solid ascii
  facet normal 1.437957e-04 1.000000e+00 2.943570e-13
    outer loop
      vertex   -2.346831e+02 9.682533e+01 1.320156e+02
      vertex   -2.349525e+02 9.682537e+01 1.306948e+02
      vertex   -2.355516e+02 9.682546e+01 1.305283e+02
    endloop
  endfacet
  facet normal 1.437957e-04 1.000000e+00 2.877814e-13
    outer loop
      vertex   -2.370855e+02 9.682568e+01 1.320438e+02
      vertex   -2.346831e+02 9.682533e+01 1.320156e+02
      vertex   -2.355516e+02 9.682546e+01 1.305283e+02
    endloop
  endfacet
  facet normal 1.437957e-04 1.000000e+00 2.898456e-13
    outer loop
      vertex   -2.370855e+02 9.682568e+01 1.320438e+02
      vertex   -2.370874e+02 9.682568e+01 1.323663e+02
      vertex   -2.346831e+02 9.682533e+01 1.320156e+02
    endloop
  endfacet
  facet normal 1.437957e-04 1.000000e+00 2.996048e-13
    outer loop
      vertex   -2.346831e+02 9.682533e+01 1.320156e+02
      vertex   -2.370874e+02 9.682568e+01 1.323663e+02
      vertex   -2.348409e+02 9.682535e+01 1.333544e+02
    endloop
  endfacet
  facet normal 1.437957e-04 1.000000e+00 3.202773e-13
    outer loop
      vertex   -2.348409e+02 9.682535e+01 1.333544e+02
      vertex   -2.370874e+02 9.682568e+01 1.323663e+02
      vertex   -2.371453e+02 9.682568e+01 1.326835e+02
    endloop
  endfacet
  facet normal 1.437957e-04 1.000000e+00 3.036513e-13
    outer loop
      vertex   -2.365869e+02 9.682560e+01 1.338553e+02
      vertex   -2.371453e+02 9.682568e+01 1.326835e+02
      vertex   -2.372575e+02 9.682570e+01 1.329858e+02
    endloop
  endfacet
  facet normal 1.437957e-04 1.000000e+00 2.685100e-13
    outer loop
      vertex   -2.374204e+02 9.682572e+01 1.332641e+02
      vertex   -2.365869e+02 9.682560e+01 1.338553e+02
      vertex   -2.372575e+02 9.682570e+01 1.329858e+02
    endloop
  endfacet
  facet normal 1.437957e-04 1.000000e+00 4.047549e-13
    outer loop
      vertex   -2.353049e+02 9.682542e+01 1.304638e+02
      vertex   -2.353930e+02 9.682543e+01 1.304555e+02
      vertex   -2.352248e+02 9.682541e+01 1.305017e+02
    endloop
  endfacet
  facet normal 1.437957e-04 1.000000e+00 4.704478e-13
    outer loop
      vertex   -2.352248e+02 9.682541e+01 1.305017e+02
      vertex   -2.353930e+02 9.682543e+01 1.304555e+02
      vertex   -2.354787e+02 9.682545e+01 1.304779e+02
    endloop
  endfacet
  facet normal 1.437957e-04 1.000000e+00 3.968738e-13
    outer loop
      vertex   -2.355516e+02 9.682546e+01 1.305283e+02
      vertex   -2.352248e+02 9.682541e+01 1.305017e+02
      vertex   -2.354787e+02 9.682545e+01 1.304779e+02
    endloop
  endfacet
  facet normal 1.437957e-04 1.000000e+00 2.546421e-13
    outer loop
      vertex   -2.355516e+02 9.682546e+01 1.305283e+02
      vertex   -2.349525e+02 9.682537e+01 1.306948e+02
      vertex   -2.352248e+02 9.682541e+01 1.305017e+02
    endloop
  endfacet
  facet normal 1.437957e-04 1.000000e+00 2.910400e-13
    outer loop
      vertex   -2.371453e+02 9.682568e+01 1.326835e+02
      vertex   -2.365869e+02 9.682560e+01 1.338553e+02
      vertex   -2.348409e+02 9.682535e+01 1.333544e+02
    endloop
  endfacet
  facet normal 1.437957e-04 1.000000e+00 2.821605e-13
    outer loop
      vertex   -2.348409e+02 9.682535e+01 1.333544e+02
      vertex   -2.365869e+02 9.682560e+01 1.338553e+02
      vertex   -2.365154e+02 9.682559e+01 1.339186e+02
    endloop
  endfacet
  facet normal 1.437957e-04 1.000000e+00 3.743692e-13
    outer loop
      vertex   -2.364590e+02 9.682559e+01 1.339958e+02
      vertex   -2.348409e+02 9.682535e+01 1.333544e+02
      vertex   -2.365154e+02 9.682559e+01 1.339186e+02
    endloop
  endfacet
  facet normal 1.437957e-04 1.000000e+00 1.720101e-13
    outer loop
      vertex   -2.364590e+02 9.682559e+01 1.339958e+02
      vertex   -2.364205e+02 9.682558e+01 1.340832e+02
      vertex   -2.348409e+02 9.682535e+01 1.333544e+02
    endloop
  endfacet
  facet normal 1.437957e-04 1.000000e+00 3.056321e-13
    outer loop
      vertex   -2.348409e+02 9.682535e+01 1.333544e+02
      vertex   -2.364205e+02 9.682558e+01 1.340832e+02
      vertex   -2.354100e+02 9.682544e+01 1.345764e+02
    endloop
  endfacet
  facet normal 1.437957e-04 1.000000e+00 4.215025e-13
    outer loop
      vertex   -2.354100e+02 9.682544e+01 1.345764e+02
      vertex   -2.364205e+02 9.682558e+01 1.340832e+02
      vertex   -2.364016e+02 9.682558e+01 1.341768e+02
    endloop
  endfacet
  facet normal 1.437957e-04 1.000000e+00 3.367924e-13
    outer loop
      vertex   -2.364031e+02 9.682558e+01 1.342723e+02
      vertex   -2.354100e+02 9.682544e+01 1.345764e+02
      vertex   -2.364016e+02 9.682558e+01 1.341768e+02
    endloop
  endfacet
  facet normal 1.437957e-04 1.000000e+00 1.418512e-13
    outer loop
      vertex   -2.364031e+02 9.682558e+01 1.342723e+02
      vertex   -2.364250e+02 9.682558e+01 1.343652e+02
      vertex   -2.354100e+02 9.682544e+01 1.345764e+02
    endloop
  endfacet
  facet normal 1.437957e-04 1.000000e+00 3.313079e-13
    outer loop
      vertex   -2.354100e+02 9.682544e+01 1.345764e+02
      vertex   -2.364250e+02 9.682558e+01 1.343652e+02
      vertex   -2.364663e+02 9.682559e+01 1.344514e+02
    endloop
  endfacet
  facet normal 1.437957e-04 1.000000e+00 3.491960e-13
    outer loop
      vertex   -2.365251e+02 9.682560e+01 1.345267e+02
      vertex   -2.354100e+02 9.682544e+01 1.345764e+02
      vertex   -2.364663e+02 9.682559e+01 1.344514e+02
    endloop
  endfacet
  facet normal 1.437957e-04 1.000000e+00 2.924029e-13
    outer loop
      vertex   -2.365251e+02 9.682560e+01 1.345267e+02
      vertex   -2.363331e+02 9.682557e+01 1.355587e+02
      vertex   -2.354100e+02 9.682544e+01 1.345764e+02
    endloop
  endfacet
  facet normal 1.437957e-04 1.000000e+00 2.950177e-13
    outer loop
      vertex   -2.365251e+02 9.682560e+01 1.345267e+02
      vertex   -2.371992e+02 9.682569e+01 1.350625e+02
      vertex   -2.363331e+02 9.682557e+01 1.355587e+02
    endloop
  endfacet
  facet normal 1.437957e-04 1.000000e+00 2.971358e-13
    outer loop
      vertex   -2.363331e+02 9.682557e+01 1.355587e+02
      vertex   -2.371992e+02 9.682569e+01 1.350625e+02
      vertex   -2.375174e+02 9.682574e+01 1.362025e+02
    endloop
  endfacet
  facet normal 1.437957e-04 1.000000e+00 3.014386e-13
    outer loop
      vertex   -2.375174e+02 9.682574e+01 1.362025e+02
      vertex   -2.371992e+02 9.682569e+01 1.350625e+02
      vertex   -2.379877e+02 9.682581e+01 1.354088e+02
    endloop
  endfacet
  facet normal 1.437957e-04 1.000000e+00 2.961988e-13
    outer loop
      vertex   -2.388438e+02 9.682593e+01 1.364430e+02
      vertex   -2.379877e+02 9.682581e+01 1.354088e+02
      vertex   -2.388384e+02 9.682593e+01 1.355427e+02
    endloop
  endfacet
  facet normal 1.437957e-04 1.000000e+00 2.963276e-13
    outer loop
      vertex   -2.396951e+02 9.682605e+01 1.354552e+02
      vertex   -2.388438e+02 9.682593e+01 1.364430e+02
      vertex   -2.388384e+02 9.682593e+01 1.355427e+02
    endloop
  endfacet
  facet normal 1.437957e-04 1.000000e+00 3.078335e-13
    outer loop
      vertex   -2.396951e+02 9.682605e+01 1.354552e+02
      vertex   -2.401788e+02 9.682612e+01 1.362561e+02
      vertex   -2.388438e+02 9.682593e+01 1.364430e+02
    endloop
  endfacet
  facet normal 1.437957e-04 1.000000e+00 2.492806e-13
    outer loop
      vertex   -2.396951e+02 9.682605e+01 1.354552e+02
      vertex   -2.397690e+02 9.682606e+01 1.354294e+02
      vertex   -2.401788e+02 9.682612e+01 1.362561e+02
    endloop
  endfacet
  facet normal 1.437957e-04 1.000000e+00 2.632019e-13
    outer loop
      vertex   -2.401788e+02 9.682612e+01 1.362561e+02
      vertex   -2.397690e+02 9.682606e+01 1.354294e+02
      vertex   -2.398358e+02 9.682607e+01 1.353885e+02
    endloop
  endfacet
  facet normal 1.437957e-04 1.000000e+00 2.816170e-13
    outer loop
      vertex   -2.398925e+02 9.682608e+01 1.353346e+02
      vertex   -2.401788e+02 9.682612e+01 1.362561e+02
      vertex   -2.398358e+02 9.682607e+01 1.353885e+02
    endloop
  endfacet
  facet normal 1.437957e-04 1.000000e+00 3.266597e-13
    outer loop
      vertex   -2.398925e+02 9.682608e+01 1.353346e+02
      vertex   -2.399366e+02 9.682609e+01 1.352700e+02
      vertex   -2.401788e+02 9.682612e+01 1.362561e+02
    endloop
  endfacet
  facet normal 1.437957e-04 1.000000e+00 2.990986e-13
    outer loop
      vertex   -2.401788e+02 9.682612e+01 1.362561e+02
      vertex   -2.399366e+02 9.682609e+01 1.352700e+02
      vertex   -2.413881e+02 9.682629e+01 1.356605e+02
    endloop
  endfacet
  facet normal 1.437957e-04 1.000000e+00 2.634813e-13
    outer loop
      vertex   -2.413881e+02 9.682629e+01 1.356605e+02
      vertex   -2.399366e+02 9.682609e+01 1.352700e+02
      vertex   -2.399661e+02 9.682609e+01 1.351975e+02
    endloop
  endfacet
  facet normal 1.437957e-04 1.000000e+00 2.741499e-13
    outer loop
      vertex   -2.399797e+02 9.682609e+01 1.351204e+02
      vertex   -2.413881e+02 9.682629e+01 1.356605e+02
      vertex   -2.399661e+02 9.682609e+01 1.351975e+02
    endloop
  endfacet
  facet normal 1.437957e-04 1.000000e+00 2.387906e-13
    outer loop
      vertex   -2.399797e+02 9.682609e+01 1.351204e+02
      vertex   -2.399768e+02 9.682609e+01 1.350422e+02
      vertex   -2.413881e+02 9.682629e+01 1.356605e+02
    endloop
  endfacet
  facet normal 1.437957e-04 1.000000e+00 2.885476e-13
    outer loop
      vertex   -2.413881e+02 9.682629e+01 1.356605e+02
      vertex   -2.399768e+02 9.682609e+01 1.350422e+02
      vertex   -2.412712e+02 9.682628e+01 1.341242e+02
    endloop
  endfacet
  facet normal 1.437957e-04 1.000000e+00 2.794994e-13
    outer loop
      vertex   -2.413440e+02 9.682629e+01 1.341528e+02
      vertex   -2.413881e+02 9.682629e+01 1.356605e+02
      vertex   -2.412712e+02 9.682628e+01 1.341242e+02
    endloop
  endfacet
  facet normal 1.437957e-04 1.000000e+00 2.883044e-13
    outer loop
      vertex   -2.413440e+02 9.682629e+01 1.341528e+02
      vertex   -2.414212e+02 9.682630e+01 1.341654e+02
      vertex   -2.413881e+02 9.682629e+01 1.356605e+02
    endloop
  endfacet
  facet normal 1.437957e-04 1.000000e+00 2.931104e-13
    outer loop
      vertex   -2.413881e+02 9.682629e+01 1.356605e+02
      vertex   -2.414212e+02 9.682630e+01 1.341654e+02
      vertex   -2.414994e+02 9.682631e+01 1.341615e+02
    endloop
  endfacet
  facet normal 1.437957e-04 1.000000e+00 2.954057e-13
    outer loop
      vertex   -2.423500e+02 9.682643e+01 1.347162e+02
      vertex   -2.414994e+02 9.682631e+01 1.341615e+02
      vertex   -2.415750e+02 9.682632e+01 1.341413e+02
    endloop
  endfacet
  facet normal 1.437957e-04 1.000000e+00 2.939133e-13
    outer loop
      vertex   -2.416447e+02 9.682633e+01 1.341056e+02
      vertex   -2.423500e+02 9.682643e+01 1.347162e+02
      vertex   -2.415750e+02 9.682632e+01 1.341413e+02
    endloop
  endfacet
  facet normal 1.437957e-04 1.000000e+00 3.125797e-13
    outer loop
      vertex   -2.416447e+02 9.682633e+01 1.341056e+02
      vertex   -2.417052e+02 9.682634e+01 1.340561e+02
      vertex   -2.423500e+02 9.682643e+01 1.347162e+02
    endloop
  endfacet
  facet normal 1.437957e-04 1.000000e+00 2.815618e-13
    outer loop
      vertex   -2.423500e+02 9.682643e+01 1.347162e+02
      vertex   -2.417052e+02 9.682634e+01 1.340561e+02
      vertex   -2.417541e+02 9.682635e+01 1.339949e+02
    endloop
  endfacet
  facet normal 1.437957e-04 1.000000e+00 3.095713e-13
    outer loop
      vertex   -2.429678e+02 9.682652e+01 1.335181e+02
      vertex   -2.417541e+02 9.682635e+01 1.339949e+02
      vertex   -2.421199e+02 9.682640e+01 1.332153e+02
    endloop
  endfacet
  facet normal 1.437957e-04 1.000000e+00 2.843595e-13
    outer loop
      vertex   -2.422748e+02 9.682642e+01 1.323682e+02
      vertex   -2.429678e+02 9.682652e+01 1.335181e+02
      vertex   -2.421199e+02 9.682640e+01 1.332153e+02
    endloop
  endfacet
  facet normal 1.437957e-04 1.000000e+00 2.959806e-13
    outer loop
      vertex   -2.422748e+02 9.682642e+01 1.323682e+02
      vertex   -2.431794e+02 9.682655e+01 1.321868e+02
      vertex   -2.429678e+02 9.682652e+01 1.335181e+02
    endloop
  endfacet
  facet normal 1.437957e-04 1.000000e+00 3.034443e-13
    outer loop
      vertex   -2.422748e+02 9.682642e+01 1.323682e+02
      vertex   -2.422087e+02 9.682641e+01 1.315095e+02
      vertex   -2.431794e+02 9.682655e+01 1.321868e+02
    endloop
  endfacet
  facet normal 1.437957e-04 1.000000e+00 2.993306e-13
    outer loop
      vertex   -2.431794e+02 9.682655e+01 1.321868e+02
      vertex   -2.422087e+02 9.682641e+01 1.315095e+02
      vertex   -2.429634e+02 9.682652e+01 1.308562e+02
    endloop
  endfacet
  facet normal 1.437957e-04 1.000000e+00 2.924891e-13
    outer loop
      vertex   -2.429634e+02 9.682652e+01 1.308562e+02
      vertex   -2.422087e+02 9.682641e+01 1.315095e+02
      vertex   -2.419259e+02 9.682637e+01 1.306961e+02
    endloop
  endfacet
  facet normal 1.437957e-04 1.000000e+00 2.862920e-13
    outer loop
      vertex   -2.423415e+02 9.682643e+01 1.296602e+02
      vertex   -2.419259e+02 9.682637e+01 1.306961e+02
      vertex   -2.418743e+02 9.682636e+01 1.306158e+02
    endloop
  endfacet
  facet normal 1.437957e-04 1.000000e+00 3.073153e-13
    outer loop
      vertex   -2.418066e+02 9.682636e+01 1.305483e+02
      vertex   -2.423415e+02 9.682643e+01 1.296602e+02
      vertex   -2.418743e+02 9.682636e+01 1.306158e+02
    endloop
  endfacet
  facet normal 1.437957e-04 1.000000e+00 2.722850e-13
    outer loop
      vertex   -2.418066e+02 9.682636e+01 1.305483e+02
      vertex   -2.417262e+02 9.682634e+01 1.304969e+02
      vertex   -2.423415e+02 9.682643e+01 1.296602e+02
    endloop
  endfacet
  facet normal 1.437957e-04 1.000000e+00 2.888506e-13
    outer loop
      vertex   -2.423415e+02 9.682643e+01 1.296602e+02
      vertex   -2.417262e+02 9.682634e+01 1.304969e+02
      vertex   -2.416365e+02 9.682633e+01 1.304639e+02
    endloop
  endfacet
  facet normal 1.437957e-04 1.000000e+00 3.628048e-13
    outer loop
      vertex   -2.415419e+02 9.682632e+01 1.304508e+02
      vertex   -2.423415e+02 9.682643e+01 1.296602e+02
      vertex   -2.416365e+02 9.682633e+01 1.304639e+02
    endloop
  endfacet
  facet normal 1.437957e-04 1.000000e+00 2.933561e-13
    outer loop
      vertex   -2.415419e+02 9.682632e+01 1.304508e+02
      vertex   -2.413764e+02 9.682629e+01 1.287191e+02
      vertex   -2.423415e+02 9.682643e+01 1.296602e+02
    endloop
  endfacet
  facet normal 1.437957e-04 1.000000e+00 2.959383e-13
    outer loop
      vertex   -2.415419e+02 9.682632e+01 1.304508e+02
      vertex   -2.414467e+02 9.682630e+01 1.304583e+02
      vertex   -2.413764e+02 9.682629e+01 1.287191e+02
    endloop
  endfacet
  facet normal 1.437957e-04 1.000000e+00 2.994856e-13
    outer loop
      vertex   -2.413764e+02 9.682629e+01 1.287191e+02
      vertex   -2.414467e+02 9.682630e+01 1.304583e+02
      vertex   -2.413553e+02 9.682629e+01 1.304859e+02
    endloop
  endfacet
  facet normal 1.437957e-04 1.000000e+00 3.036583e-13
    outer loop
      vertex   -2.412719e+02 9.682628e+01 1.305325e+02
      vertex   -2.413764e+02 9.682629e+01 1.287191e+02
      vertex   -2.413553e+02 9.682629e+01 1.304859e+02
    endloop
  endfacet
  facet normal 1.437957e-04 1.000000e+00 2.898147e-13
    outer loop
      vertex   -2.412719e+02 9.682628e+01 1.305325e+02
      vertex   -2.399813e+02 9.682609e+01 1.306721e+02
      vertex   -2.413764e+02 9.682629e+01 1.287191e+02
    endloop
  endfacet
  facet normal 1.437957e-04 1.000000e+00 2.402535e-13
    outer loop
      vertex   -2.412719e+02 9.682628e+01 1.305325e+02
      vertex   -2.402296e+02 9.682613e+01 1.308779e+02
      vertex   -2.399813e+02 9.682609e+01 1.306721e+02
    endloop
  endfacet
  facet normal 1.437957e-04 1.000000e+00 3.269354e-13
    outer loop
      vertex   -2.412719e+02 9.682628e+01 1.305325e+02
      vertex   -2.404384e+02 9.682616e+01 1.311236e+02
      vertex   -2.402296e+02 9.682613e+01 1.308779e+02
    endloop
  endfacet
  facet normal 1.437957e-04 1.000000e+00 4.065549e-13
    outer loop
      vertex   -2.412712e+02 9.682628e+01 1.341242e+02
      vertex   -2.399768e+02 9.682609e+01 1.350422e+02
      vertex   -2.412060e+02 9.682627e+01 1.340809e+02
    endloop
  endfacet
  facet normal 1.437957e-04 1.000000e+00 4.085038e-13
    outer loop
      vertex   -2.412060e+02 9.682627e+01 1.340809e+02
      vertex   -2.399768e+02 9.682609e+01 1.350422e+02
      vertex   -2.399575e+02 9.682609e+01 1.349664e+02
    endloop
  endfacet
  facet normal 1.437957e-04 1.000000e+00 2.973775e-13
    outer loop
      vertex   -2.399996e+02 9.682610e+01 1.337029e+02
      vertex   -2.399575e+02 9.682609e+01 1.349664e+02
      vertex   -2.395726e+02 9.682603e+01 1.339285e+02
    endloop
  endfacet
  facet normal 1.437957e-04 1.000000e+00 2.973229e-13
    outer loop
      vertex   -2.399996e+02 9.682610e+01 1.337029e+02
      vertex   -2.412060e+02 9.682627e+01 1.340809e+02
      vertex   -2.399575e+02 9.682609e+01 1.349664e+02
    endloop
  endfacet
  facet normal 1.437957e-04 1.000000e+00 2.984425e-13
    outer loop
      vertex   -2.399996e+02 9.682610e+01 1.337029e+02
      vertex   -2.403537e+02 9.682615e+01 1.333745e+02
      vertex   -2.412060e+02 9.682627e+01 1.340809e+02
    endloop
  endfacet
  facet normal 1.437957e-04 1.000000e+00 3.039197e-13
    outer loop
      vertex   -2.399813e+02 9.682609e+01 1.306721e+02
      vertex   -2.397011e+02 9.682605e+01 1.305125e+02
      vertex   -2.413764e+02 9.682629e+01 1.287191e+02
    endloop
  endfacet
  facet normal 1.437957e-04 1.000000e+00 2.945014e-13
    outer loop
      vertex   -2.413764e+02 9.682629e+01 1.287191e+02
      vertex   -2.397011e+02 9.682605e+01 1.305125e+02
      vertex   -2.401651e+02 9.682612e+01 1.281275e+02
    endloop
  endfacet
  facet normal 1.437957e-04 1.000000e+00 2.911072e-13
    outer loop
      vertex   -2.401651e+02 9.682612e+01 1.281275e+02
      vertex   -2.397011e+02 9.682605e+01 1.305125e+02
      vertex   -2.393974e+02 9.682601e+01 1.304041e+02
    endloop
  endfacet
  facet normal 1.437957e-04 1.000000e+00 2.953325e-13
    outer loop
      vertex   -2.384743e+02 9.682588e+01 1.284553e+02
      vertex   -2.401651e+02 9.682612e+01 1.281275e+02
      vertex   -2.393974e+02 9.682601e+01 1.304041e+02
    endloop
  endfacet
  facet normal 1.437957e-04 1.000000e+00 3.044313e-13
    outer loop
      vertex   -2.384743e+02 9.682588e+01 1.284553e+02
      vertex   -2.388295e+02 9.682593e+01 1.279451e+02
      vertex   -2.401651e+02 9.682612e+01 1.281275e+02
    endloop
  endfacet
  facet normal 1.437957e-04 1.000000e+00 2.820002e-13
    outer loop
      vertex   -2.384743e+02 9.682588e+01 1.284553e+02
      vertex   -2.385572e+02 9.682589e+01 1.281382e+02
      vertex   -2.388295e+02 9.682593e+01 1.279451e+02
    endloop
  endfacet
  facet normal 1.437957e-04 1.000000e+00 2.864260e-13
    outer loop
      vertex   -2.384743e+02 9.682588e+01 1.284553e+02
      vertex   -2.384509e+02 9.682587e+01 1.283699e+02
      vertex   -2.385572e+02 9.682589e+01 1.281382e+02
    endloop
  endfacet
  facet normal 1.437957e-04 1.000000e+00 2.392783e-13
    outer loop
      vertex   -2.385572e+02 9.682589e+01 1.281382e+02
      vertex   -2.384509e+02 9.682587e+01 1.283699e+02
      vertex   -2.384581e+02 9.682587e+01 1.282817e+02
    endloop
  endfacet
  facet normal 1.437957e-04 1.000000e+00 1.079007e-12
    outer loop
      vertex   -2.384950e+02 9.682588e+01 1.282012e+02
      vertex   -2.385572e+02 9.682589e+01 1.281382e+02
      vertex   -2.384581e+02 9.682587e+01 1.282817e+02
    endloop
  endfacet
  facet normal 1.437957e-04 1.000000e+00 2.933930e-13
    outer loop
      vertex   -2.423415e+02 9.682643e+01 1.296602e+02
      vertex   -2.429634e+02 9.682652e+01 1.308562e+02
      vertex   -2.419259e+02 9.682637e+01 1.306961e+02
    endloop
  endfacet
  facet normal 1.437957e-04 1.000000e+00 2.966017e-13
    outer loop
      vertex   -2.429678e+02 9.682652e+01 1.335181e+02
      vertex   -2.423500e+02 9.682643e+01 1.347162e+02
      vertex   -2.417541e+02 9.682635e+01 1.339949e+02
    endloop
  endfacet
  facet normal 1.437957e-04 1.000000e+00 2.918344e-13
    outer loop
      vertex   -2.423500e+02 9.682643e+01 1.347162e+02
      vertex   -2.413881e+02 9.682629e+01 1.356605e+02
      vertex   -2.414994e+02 9.682631e+01 1.341615e+02
    endloop
  endfacet
  facet normal 1.437957e-04 1.000000e+00 3.054439e-13
    outer loop
      vertex   -2.388438e+02 9.682593e+01 1.364430e+02
      vertex   -2.375174e+02 9.682574e+01 1.362025e+02
      vertex   -2.379877e+02 9.682581e+01 1.354088e+02
    endloop
  endfacet
  facet normal 5.785140e-01 -8.318784e-05 -8.156725e-01
    outer loop
      vertex   -2.349526e+02 9.622537e+01 1.306948e+02
      vertex   -2.352249e+02 9.622541e+01 1.305017e+02
      vertex   -2.349525e+02 9.682537e+01 1.306948e+02
    endloop
  endfacet
  facet normal 5.785140e-01 -8.318784e-05 -8.156725e-01
    outer loop
      vertex   -2.349525e+02 9.682537e+01 1.306948e+02
      vertex   -2.352249e+02 9.622541e+01 1.305017e+02
      vertex   -2.352248e+02 9.682541e+01 1.305017e+02
    endloop
  endfacet
  facet normal -1.353508e-01 1.946287e-05 -9.907977e-01
    outer loop
      vertex   -2.388296e+02 9.622593e+01 1.279451e+02
      vertex   -2.401652e+02 9.622612e+01 1.281275e+02
      vertex   -2.388295e+02 9.682593e+01 1.279451e+02
    endloop
  endfacet
  facet normal -1.353508e-01 1.946287e-05 -9.907977e-01
    outer loop
      vertex   -2.388295e+02 9.682593e+01 1.279451e+02
      vertex   -2.401652e+02 9.622612e+01 1.281275e+02
      vertex   -2.401651e+02 9.682612e+01 1.281275e+02
    endloop
  endfacet
  facet normal -4.388246e-01 6.310110e-05 -8.985728e-01
    outer loop
      vertex   -2.401651e+02 9.682612e+01 1.281275e+02
      vertex   -2.401652e+02 9.622612e+01 1.281275e+02
      vertex   -2.413765e+02 9.622629e+01 1.287191e+02
    endloop
  endfacet
  facet normal -6.981518e-01 1.003912e-04 -7.159498e-01
    outer loop
      vertex   -2.413764e+02 9.682629e+01 1.287191e+02
      vertex   -2.413765e+02 9.622629e+01 1.287191e+02
      vertex   -2.423416e+02 9.622643e+01 1.296602e+02
    endloop
  endfacet
  facet normal -8.872437e-01 1.275819e-04 -4.613010e-01
    outer loop
      vertex   -2.423415e+02 9.682643e+01 1.296602e+02
      vertex   -2.423416e+02 9.622643e+01 1.296602e+02
      vertex   -2.429634e+02 9.622652e+01 1.308562e+02
    endloop
  endfacet
  facet normal -9.870773e-01 1.419375e-04 -1.602446e-01
    outer loop
      vertex   -2.429634e+02 9.682652e+01 1.308562e+02
      vertex   -2.429634e+02 9.622652e+01 1.308562e+02
      vertex   -2.431795e+02 9.622655e+01 1.321868e+02
    endloop
  endfacet
  facet normal -9.876093e-01 1.420140e-04 1.569328e-01
    outer loop
      vertex   -2.431794e+02 9.682655e+01 1.321868e+02
      vertex   -2.431795e+02 9.622655e+01 1.321868e+02
      vertex   -2.429679e+02 9.622652e+01 1.335181e+02
    endloop
  endfacet
  facet normal -8.887860e-01 1.278036e-04 4.583224e-01
    outer loop
      vertex   -2.429678e+02 9.682652e+01 1.335181e+02
      vertex   -2.429679e+02 9.622652e+01 1.335181e+02
      vertex   -2.423501e+02 9.622643e+01 1.347162e+02
    endloop
  endfacet
  facet normal -7.005493e-01 1.007360e-04 7.136040e-01
    outer loop
      vertex   -2.423500e+02 9.682643e+01 1.347162e+02
      vertex   -2.423501e+02 9.622643e+01 1.347162e+02
      vertex   -2.413882e+02 9.622630e+01 1.356605e+02
    endloop
  endfacet
  facet normal -4.418361e-01 6.353415e-05 8.970958e-01
    outer loop
      vertex   -2.413881e+02 9.682629e+01 1.356605e+02
      vertex   -2.413882e+02 9.622630e+01 1.356605e+02
      vertex   -2.401789e+02 9.622612e+01 1.362561e+02
    endloop
  endfacet
  facet normal -1.386735e-01 1.994065e-05 9.903382e-01
    outer loop
      vertex   -2.401788e+02 9.682612e+01 1.362561e+02
      vertex   -2.401789e+02 9.622612e+01 1.362561e+02
      vertex   -2.388439e+02 9.622593e+01 1.364430e+02
    endloop
  endfacet
  facet normal 1.784400e-01 -2.565891e-05 9.839508e-01
    outer loop
      vertex   -2.388438e+02 9.682593e+01 1.364430e+02
      vertex   -2.388439e+02 9.622593e+01 1.364430e+02
      vertex   -2.375175e+02 9.622574e+01 1.362025e+02
    endloop
  endfacet
  facet normal 4.776021e-01 -6.867714e-05 8.785763e-01
    outer loop
      vertex   -2.375174e+02 9.682574e+01 1.362025e+02
      vertex   -2.375175e+02 9.622574e+01 1.362025e+02
      vertex   -2.363332e+02 9.622557e+01 1.355587e+02
    endloop
  endfacet
  facet normal 7.287166e-01 -1.047863e-04 6.848154e-01
    outer loop
      vertex   -2.363331e+02 9.682557e+01 1.355587e+02
      vertex   -2.363332e+02 9.622557e+01 1.355587e+02
      vertex   -2.354100e+02 9.622544e+01 1.345764e+02
    endloop
  endfacet
  facet normal 9.065209e-01 -1.303538e-04 4.221610e-01
    outer loop
      vertex   -2.354100e+02 9.682544e+01 1.345764e+02
      vertex   -2.354100e+02 9.622544e+01 1.345764e+02
      vertex   -2.348410e+02 9.622535e+01 1.333544e+02
    endloop
  endfacet
  facet normal 9.931276e-01 -1.428075e-04 1.170364e-01
    outer loop
      vertex   -2.348409e+02 9.682535e+01 1.333544e+02
      vertex   -2.348410e+02 9.622535e+01 1.333544e+02
      vertex   -2.346832e+02 9.622533e+01 1.320156e+02
    endloop
  endfacet
  facet normal 9.798240e-01 -1.408945e-04 -1.998623e-01
    outer loop
      vertex   -2.346831e+02 9.682533e+01 1.320156e+02
      vertex   -2.346832e+02 9.622533e+01 1.320156e+02
      vertex   -2.349526e+02 9.622537e+01 1.306948e+02
    endloop
  endfacet
  facet normal 9.798240e-01 -1.408945e-04 -1.998623e-01
    outer loop
      vertex   -2.349525e+02 9.682537e+01 1.306948e+02
      vertex   -2.346831e+02 9.682533e+01 1.320156e+02
      vertex   -2.349526e+02 9.622537e+01 1.306948e+02
    endloop
  endfacet
  facet normal 9.931276e-01 -1.428075e-04 1.170364e-01
    outer loop
      vertex   -2.346831e+02 9.682533e+01 1.320156e+02
      vertex   -2.348409e+02 9.682535e+01 1.333544e+02
      vertex   -2.346832e+02 9.622533e+01 1.320156e+02
    endloop
  endfacet
  facet normal 9.065209e-01 -1.303538e-04 4.221610e-01
    outer loop
      vertex   -2.348409e+02 9.682535e+01 1.333544e+02
      vertex   -2.354100e+02 9.682544e+01 1.345764e+02
      vertex   -2.348410e+02 9.622535e+01 1.333544e+02
    endloop
  endfacet
  facet normal 7.287166e-01 -1.047863e-04 6.848154e-01
    outer loop
      vertex   -2.354100e+02 9.682544e+01 1.345764e+02
      vertex   -2.363331e+02 9.682557e+01 1.355587e+02
      vertex   -2.354100e+02 9.622544e+01 1.345764e+02
    endloop
  endfacet
  facet normal 4.776021e-01 -6.867714e-05 8.785763e-01
    outer loop
      vertex   -2.363331e+02 9.682557e+01 1.355587e+02
      vertex   -2.375174e+02 9.682574e+01 1.362025e+02
      vertex   -2.363332e+02 9.622557e+01 1.355587e+02
    endloop
  endfacet
  facet normal 1.784400e-01 -2.565891e-05 9.839508e-01
    outer loop
      vertex   -2.375174e+02 9.682574e+01 1.362025e+02
      vertex   -2.388438e+02 9.682593e+01 1.364430e+02
      vertex   -2.375175e+02 9.622574e+01 1.362025e+02
    endloop
  endfacet
  facet normal -1.386735e-01 1.994065e-05 9.903382e-01
    outer loop
      vertex   -2.388438e+02 9.682593e+01 1.364430e+02
      vertex   -2.401788e+02 9.682612e+01 1.362561e+02
      vertex   -2.388439e+02 9.622593e+01 1.364430e+02
    endloop
  endfacet
  facet normal -4.418361e-01 6.353415e-05 8.970958e-01
    outer loop
      vertex   -2.401788e+02 9.682612e+01 1.362561e+02
      vertex   -2.413881e+02 9.682629e+01 1.356605e+02
      vertex   -2.401789e+02 9.622612e+01 1.362561e+02
    endloop
  endfacet
  facet normal -7.005493e-01 1.007360e-04 7.136040e-01
    outer loop
      vertex   -2.413881e+02 9.682629e+01 1.356605e+02
      vertex   -2.423500e+02 9.682643e+01 1.347162e+02
      vertex   -2.413882e+02 9.622630e+01 1.356605e+02
    endloop
  endfacet
  facet normal -8.887860e-01 1.278036e-04 4.583224e-01
    outer loop
      vertex   -2.423500e+02 9.682643e+01 1.347162e+02
      vertex   -2.429678e+02 9.682652e+01 1.335181e+02
      vertex   -2.423501e+02 9.622643e+01 1.347162e+02
    endloop
  endfacet
  facet normal -9.876093e-01 1.420140e-04 1.569328e-01
    outer loop
      vertex   -2.429678e+02 9.682652e+01 1.335181e+02
      vertex   -2.431794e+02 9.682655e+01 1.321868e+02
      vertex   -2.429679e+02 9.622652e+01 1.335181e+02
    endloop
  endfacet
  facet normal -9.870773e-01 1.419375e-04 -1.602446e-01
    outer loop
      vertex   -2.431794e+02 9.682655e+01 1.321868e+02
      vertex   -2.429634e+02 9.682652e+01 1.308562e+02
      vertex   -2.431795e+02 9.622655e+01 1.321868e+02
    endloop
  endfacet
  facet normal -8.872437e-01 1.275819e-04 -4.613010e-01
    outer loop
      vertex   -2.429634e+02 9.682652e+01 1.308562e+02
      vertex   -2.423415e+02 9.682643e+01 1.296602e+02
      vertex   -2.429634e+02 9.622652e+01 1.308562e+02
    endloop
  endfacet
  facet normal -6.981518e-01 1.003912e-04 -7.159498e-01
    outer loop
      vertex   -2.423415e+02 9.682643e+01 1.296602e+02
      vertex   -2.413764e+02 9.682629e+01 1.287191e+02
      vertex   -2.423416e+02 9.622643e+01 1.296602e+02
    endloop
  endfacet
  facet normal -4.388246e-01 6.310110e-05 -8.985728e-01
    outer loop
      vertex   -2.413764e+02 9.682629e+01 1.287191e+02
      vertex   -2.401651e+02 9.682612e+01 1.281275e+02
      vertex   -2.413765e+02 9.622629e+01 1.287191e+02
    endloop
  endfacet
  facet normal -1.437957e-04 -1.000000e+00 -3.051623e-13
    outer loop
      vertex   -2.421200e+02 9.622640e+01 1.332153e+02
      vertex   -2.429679e+02 9.622652e+01 1.335181e+02
      vertex   -2.422749e+02 9.622642e+01 1.323682e+02
    endloop
  endfacet
  facet normal -1.437957e-04 -1.000000e+00 -2.942742e-13
    outer loop
      vertex   -2.421200e+02 9.622640e+01 1.332153e+02
      vertex   -2.417541e+02 9.622635e+01 1.339949e+02
      vertex   -2.429679e+02 9.622652e+01 1.335181e+02
    endloop
  endfacet
  facet normal -1.437957e-04 -1.000000e+00 -3.052399e-13
    outer loop
      vertex   -2.429679e+02 9.622652e+01 1.335181e+02
      vertex   -2.417541e+02 9.622635e+01 1.339949e+02
      vertex   -2.423501e+02 9.622643e+01 1.347162e+02
    endloop
  endfacet
  facet normal -1.437957e-04 -1.000000e+00 -2.597811e-13
    outer loop
      vertex   -2.423501e+02 9.622643e+01 1.347162e+02
      vertex   -2.417541e+02 9.622635e+01 1.339949e+02
      vertex   -2.417053e+02 9.622634e+01 1.340561e+02
    endloop
  endfacet
  facet normal -1.437957e-04 -1.000000e+00 -3.077434e-13
    outer loop
      vertex   -2.416447e+02 9.622633e+01 1.341056e+02
      vertex   -2.423501e+02 9.622643e+01 1.347162e+02
      vertex   -2.417053e+02 9.622634e+01 1.340561e+02
    endloop
  endfacet
  facet normal -1.437957e-04 -1.000000e+00 -2.706274e-13
    outer loop
      vertex   -2.416447e+02 9.622633e+01 1.341056e+02
      vertex   -2.415751e+02 9.622632e+01 1.341413e+02
      vertex   -2.423501e+02 9.622643e+01 1.347162e+02
    endloop
  endfacet
  facet normal -1.437957e-04 -1.000000e+00 -2.987111e-13
    outer loop
      vertex   -2.423501e+02 9.622643e+01 1.347162e+02
      vertex   -2.415751e+02 9.622632e+01 1.341413e+02
      vertex   -2.414995e+02 9.622631e+01 1.341615e+02
    endloop
  endfacet
  facet normal -1.437957e-04 -1.000000e+00 -2.876379e-13
    outer loop
      vertex   -2.413882e+02 9.622630e+01 1.356605e+02
      vertex   -2.414995e+02 9.622631e+01 1.341615e+02
      vertex   -2.414213e+02 9.622630e+01 1.341654e+02
    endloop
  endfacet
  facet normal -1.437957e-04 -1.000000e+00 -2.931619e-13
    outer loop
      vertex   -2.413441e+02 9.622629e+01 1.341528e+02
      vertex   -2.413882e+02 9.622630e+01 1.356605e+02
      vertex   -2.414213e+02 9.622630e+01 1.341654e+02
    endloop
  endfacet
  facet normal -1.437957e-04 -1.000000e+00 -2.957792e-13
    outer loop
      vertex   -2.413441e+02 9.622629e+01 1.341528e+02
      vertex   -2.412713e+02 9.622628e+01 1.341241e+02
      vertex   -2.413882e+02 9.622630e+01 1.356605e+02
    endloop
  endfacet
  facet normal -1.437957e-04 -1.000000e+00 -2.970448e-13
    outer loop
      vertex   -2.413882e+02 9.622630e+01 1.356605e+02
      vertex   -2.412713e+02 9.622628e+01 1.341241e+02
      vertex   -2.399769e+02 9.622609e+01 1.350422e+02
    endloop
  endfacet
  facet normal -1.437957e-04 -1.000000e+00 -3.707665e-13
    outer loop
      vertex   -2.399798e+02 9.622609e+01 1.351204e+02
      vertex   -2.413882e+02 9.622630e+01 1.356605e+02
      vertex   -2.399769e+02 9.622609e+01 1.350422e+02
    endloop
  endfacet
  facet normal -1.437957e-04 -1.000000e+00 -2.424325e-13
    outer loop
      vertex   -2.399798e+02 9.622609e+01 1.351204e+02
      vertex   -2.399662e+02 9.622609e+01 1.351975e+02
      vertex   -2.413882e+02 9.622630e+01 1.356605e+02
    endloop
  endfacet
  facet normal -1.437957e-04 -1.000000e+00 -4.237570e-13
    outer loop
      vertex   -2.413882e+02 9.622630e+01 1.356605e+02
      vertex   -2.399662e+02 9.622609e+01 1.351975e+02
      vertex   -2.399367e+02 9.622609e+01 1.352700e+02
    endloop
  endfacet
  facet normal -1.437957e-04 -1.000000e+00 -2.718962e-13
    outer loop
      vertex   -2.401789e+02 9.622612e+01 1.362561e+02
      vertex   -2.399367e+02 9.622609e+01 1.352700e+02
      vertex   -2.398926e+02 9.622608e+01 1.353346e+02
    endloop
  endfacet
  facet normal -1.437957e-04 -1.000000e+00 -3.024081e-13
    outer loop
      vertex   -2.398359e+02 9.622607e+01 1.353885e+02
      vertex   -2.401789e+02 9.622612e+01 1.362561e+02
      vertex   -2.398926e+02 9.622608e+01 1.353346e+02
    endloop
  endfacet
  facet normal -1.437957e-04 -1.000000e+00 -2.898364e-13
    outer loop
      vertex   -2.398359e+02 9.622607e+01 1.353885e+02
      vertex   -2.397691e+02 9.622606e+01 1.354294e+02
      vertex   -2.401789e+02 9.622612e+01 1.362561e+02
    endloop
  endfacet
  facet normal -1.437957e-04 -1.000000e+00 -3.625116e-13
    outer loop
      vertex   -2.401789e+02 9.622612e+01 1.362561e+02
      vertex   -2.397691e+02 9.622606e+01 1.354294e+02
      vertex   -2.396952e+02 9.622605e+01 1.354552e+02
    endloop
  endfacet
  facet normal -1.437957e-04 -1.000000e+00 -2.963369e-13
    outer loop
      vertex   -2.388439e+02 9.622593e+01 1.364430e+02
      vertex   -2.396952e+02 9.622605e+01 1.354552e+02
      vertex   -2.388385e+02 9.622593e+01 1.355427e+02
    endloop
  endfacet
  facet normal -1.437957e-04 -1.000000e+00 -2.962080e-13
    outer loop
      vertex   -2.379878e+02 9.622581e+01 1.354088e+02
      vertex   -2.388439e+02 9.622593e+01 1.364430e+02
      vertex   -2.388385e+02 9.622593e+01 1.355427e+02
    endloop
  endfacet
  facet normal -1.437957e-04 -1.000000e+00 -3.054223e-13
    outer loop
      vertex   -2.379878e+02 9.622581e+01 1.354088e+02
      vertex   -2.375175e+02 9.622574e+01 1.362025e+02
      vertex   -2.388439e+02 9.622593e+01 1.364430e+02
    endloop
  endfacet
  facet normal -1.437957e-04 -1.000000e+00 -3.014060e-13
    outer loop
      vertex   -2.379878e+02 9.622581e+01 1.354088e+02
      vertex   -2.371993e+02 9.622569e+01 1.350625e+02
      vertex   -2.375175e+02 9.622574e+01 1.362025e+02
    endloop
  endfacet
  facet normal -1.437957e-04 -1.000000e+00 -3.010409e-13
    outer loop
      vertex   -2.375175e+02 9.622574e+01 1.362025e+02
      vertex   -2.371993e+02 9.622569e+01 1.350625e+02
      vertex   -2.363332e+02 9.622557e+01 1.355587e+02
    endloop
  endfacet
  facet normal -1.437957e-04 -1.000000e+00 -3.070778e-13
    outer loop
      vertex   -2.363332e+02 9.622557e+01 1.355587e+02
      vertex   -2.371993e+02 9.622569e+01 1.350625e+02
      vertex   -2.365252e+02 9.622560e+01 1.345267e+02
    endloop
  endfacet
  facet normal -1.437957e-04 -1.000000e+00 -2.878970e-13
    outer loop
      vertex   -2.354100e+02 9.622544e+01 1.345764e+02
      vertex   -2.365252e+02 9.622560e+01 1.345267e+02
      vertex   -2.364664e+02 9.622559e+01 1.344514e+02
    endloop
  endfacet
  facet normal -1.437957e-04 -1.000000e+00 -3.309572e-13
    outer loop
      vertex   -2.364251e+02 9.622558e+01 1.343652e+02
      vertex   -2.354100e+02 9.622544e+01 1.345764e+02
      vertex   -2.364664e+02 9.622559e+01 1.344514e+02
    endloop
  endfacet
  facet normal -1.437957e-04 -1.000000e+00 -1.926406e-13
    outer loop
      vertex   -2.364251e+02 9.622558e+01 1.343652e+02
      vertex   -2.364032e+02 9.622558e+01 1.342723e+02
      vertex   -2.354100e+02 9.622544e+01 1.345764e+02
    endloop
  endfacet
  facet normal -1.437957e-04 -1.000000e+00 -3.161241e-13
    outer loop
      vertex   -2.354100e+02 9.622544e+01 1.345764e+02
      vertex   -2.364032e+02 9.622558e+01 1.342723e+02
      vertex   -2.364017e+02 9.622558e+01 1.341768e+02
    endloop
  endfacet
  facet normal -1.437957e-04 -1.000000e+00 -5.314137e-13
    outer loop
      vertex   -2.364206e+02 9.622558e+01 1.340832e+02
      vertex   -2.354100e+02 9.622544e+01 1.345764e+02
      vertex   -2.364017e+02 9.622558e+01 1.341768e+02
    endloop
  endfacet
  facet normal -1.437957e-04 -1.000000e+00 -3.086125e-13
    outer loop
      vertex   -2.364206e+02 9.622558e+01 1.340832e+02
      vertex   -2.348410e+02 9.622535e+01 1.333544e+02
      vertex   -2.354100e+02 9.622544e+01 1.345764e+02
    endloop
  endfacet
  facet normal -1.437957e-04 -1.000000e+00 -1.609333e-13
    outer loop
      vertex   -2.364206e+02 9.622558e+01 1.340832e+02
      vertex   -2.364591e+02 9.622559e+01 1.339958e+02
      vertex   -2.348410e+02 9.622535e+01 1.333544e+02
    endloop
  endfacet
  facet normal -1.437957e-04 -1.000000e+00 -3.611522e-13
    outer loop
      vertex   -2.348410e+02 9.622535e+01 1.333544e+02
      vertex   -2.364591e+02 9.622559e+01 1.339958e+02
      vertex   -2.365154e+02 9.622559e+01 1.339186e+02
    endloop
  endfacet
  facet normal -1.437957e-04 -1.000000e+00 -2.860359e-13
    outer loop
      vertex   -2.365870e+02 9.622560e+01 1.338553e+02
      vertex   -2.348410e+02 9.622535e+01 1.333544e+02
      vertex   -2.365154e+02 9.622559e+01 1.339186e+02
    endloop
  endfacet
  facet normal -1.437957e-04 -1.000000e+00 -2.863631e-13
    outer loop
      vertex   -2.365870e+02 9.622560e+01 1.338553e+02
      vertex   -2.371454e+02 9.622568e+01 1.326835e+02
      vertex   -2.348410e+02 9.622535e+01 1.333544e+02
    endloop
  endfacet
  facet normal -1.437957e-04 -1.000000e+00 -3.020530e-13
    outer loop
      vertex   -2.365870e+02 9.622560e+01 1.338553e+02
      vertex   -2.372576e+02 9.622570e+01 1.329858e+02
      vertex   -2.371454e+02 9.622568e+01 1.326835e+02
    endloop
  endfacet
  facet normal -1.437957e-04 -1.000000e+00 -2.787839e-13
    outer loop
      vertex   -2.365870e+02 9.622560e+01 1.338553e+02
      vertex   -2.374205e+02 9.622572e+01 1.332641e+02
      vertex   -2.372576e+02 9.622570e+01 1.329858e+02
    endloop
  endfacet
  facet normal -1.437957e-04 -1.000000e+00 -2.906156e-13
    outer loop
      vertex   -2.422749e+02 9.622642e+01 1.323682e+02
      vertex   -2.431795e+02 9.622655e+01 1.321868e+02
      vertex   -2.422088e+02 9.622641e+01 1.315095e+02
    endloop
  endfacet
  facet normal -1.437957e-04 -1.000000e+00 -2.967384e-13
    outer loop
      vertex   -2.422749e+02 9.622642e+01 1.323682e+02
      vertex   -2.429679e+02 9.622652e+01 1.335181e+02
      vertex   -2.431795e+02 9.622655e+01 1.321868e+02
    endloop
  endfacet
  facet normal -1.437957e-04 -1.000000e+00 -1.770581e-13
    outer loop
      vertex   -2.399769e+02 9.622609e+01 1.350422e+02
      vertex   -2.412713e+02 9.622628e+01 1.341241e+02
      vertex   -2.399576e+02 9.622609e+01 1.349664e+02
    endloop
  endfacet
  facet normal -1.437957e-04 -1.000000e+00 -3.146088e-13
    outer loop
      vertex   -2.399576e+02 9.622609e+01 1.349664e+02
      vertex   -2.412713e+02 9.622628e+01 1.341241e+02
      vertex   -2.412061e+02 9.622627e+01 1.340809e+02
    endloop
  endfacet
  facet normal -1.437957e-04 -1.000000e+00 -3.047532e-13
    outer loop
      vertex   -2.399997e+02 9.622610e+01 1.337029e+02
      vertex   -2.412061e+02 9.622627e+01 1.340809e+02
      vertex   -2.403538e+02 9.622615e+01 1.333745e+02
    endloop
  endfacet
  facet normal -1.437957e-04 -1.000000e+00 -2.980074e-13
    outer loop
      vertex   -2.399997e+02 9.622610e+01 1.337029e+02
      vertex   -2.399576e+02 9.622609e+01 1.349664e+02
      vertex   -2.412061e+02 9.622627e+01 1.340809e+02
    endloop
  endfacet
  facet normal -1.437957e-04 -1.000000e+00 -2.987651e-13
    outer loop
      vertex   -2.399997e+02 9.622610e+01 1.337029e+02
      vertex   -2.395727e+02 9.622603e+01 1.339285e+02
      vertex   -2.399576e+02 9.622609e+01 1.349664e+02
    endloop
  endfacet
  facet normal -1.437957e-04 -1.000000e+00 -3.058567e-13
    outer loop
      vertex   -2.371454e+02 9.622568e+01 1.326835e+02
      vertex   -2.370875e+02 9.622568e+01 1.323663e+02
      vertex   -2.348410e+02 9.622535e+01 1.333544e+02
    endloop
  endfacet
  facet normal -1.437957e-04 -1.000000e+00 -2.893855e-13
    outer loop
      vertex   -2.348410e+02 9.622535e+01 1.333544e+02
      vertex   -2.370875e+02 9.622568e+01 1.323663e+02
      vertex   -2.346832e+02 9.622533e+01 1.320156e+02
    endloop
  endfacet
  facet normal -1.437957e-04 -1.000000e+00 -2.947343e-13
    outer loop
      vertex   -2.346832e+02 9.622533e+01 1.320156e+02
      vertex   -2.370875e+02 9.622568e+01 1.323663e+02
      vertex   -2.370856e+02 9.622568e+01 1.320438e+02
    endloop
  endfacet
  facet normal -1.437957e-04 -1.000000e+00 -3.036875e-13
    outer loop
      vertex   -2.355517e+02 9.622546e+01 1.305283e+02
      vertex   -2.346832e+02 9.622533e+01 1.320156e+02
      vertex   -2.370856e+02 9.622568e+01 1.320438e+02
    endloop
  endfacet
  facet normal -1.437957e-04 -1.000000e+00 -3.005771e-13
    outer loop
      vertex   -2.355517e+02 9.622546e+01 1.305283e+02
      vertex   -2.349526e+02 9.622537e+01 1.306948e+02
      vertex   -2.346832e+02 9.622533e+01 1.320156e+02
    endloop
  endfacet
  facet normal -1.437957e-04 -1.000000e+00 -3.202233e-13
    outer loop
      vertex   -2.355517e+02 9.622546e+01 1.305283e+02
      vertex   -2.352249e+02 9.622541e+01 1.305017e+02
      vertex   -2.349526e+02 9.622537e+01 1.306948e+02
    endloop
  endfacet
  facet normal -1.437957e-04 -1.000000e+00 -7.528739e-14
    outer loop
      vertex   -2.355517e+02 9.622546e+01 1.305283e+02
      vertex   -2.354788e+02 9.622545e+01 1.304779e+02
      vertex   -2.352249e+02 9.622541e+01 1.305017e+02
    endloop
  endfacet
  facet normal -1.437957e-04 -1.000000e+00 -3.129907e-13
    outer loop
      vertex   -2.352249e+02 9.622541e+01 1.305017e+02
      vertex   -2.354788e+02 9.622545e+01 1.304779e+02
      vertex   -2.353931e+02 9.622543e+01 1.304555e+02
    endloop
  endfacet
  facet normal -1.437957e-04 -1.000000e+00 6.182228e-14
    outer loop
      vertex   -2.353049e+02 9.622542e+01 1.304638e+02
      vertex   -2.352249e+02 9.622541e+01 1.305017e+02
      vertex   -2.353931e+02 9.622543e+01 1.304555e+02
    endloop
  endfacet
  facet normal -1.437957e-04 -1.000000e+00 -3.063282e-13
    outer loop
      vertex   -2.354100e+02 9.622544e+01 1.345764e+02
      vertex   -2.363332e+02 9.622557e+01 1.355587e+02
      vertex   -2.365252e+02 9.622560e+01 1.345267e+02
    endloop
  endfacet
  facet normal -1.437957e-04 -1.000000e+00 -3.078681e-13
    outer loop
      vertex   -2.388439e+02 9.622593e+01 1.364430e+02
      vertex   -2.401789e+02 9.622612e+01 1.362561e+02
      vertex   -2.396952e+02 9.622605e+01 1.354552e+02
    endloop
  endfacet
  facet normal -1.437957e-04 -1.000000e+00 -3.039759e-13
    outer loop
      vertex   -2.401789e+02 9.622612e+01 1.362561e+02
      vertex   -2.413882e+02 9.622630e+01 1.356605e+02
      vertex   -2.399367e+02 9.622609e+01 1.352700e+02
    endloop
  endfacet
  facet normal -1.437957e-04 -1.000000e+00 -2.989469e-13
    outer loop
      vertex   -2.413882e+02 9.622630e+01 1.356605e+02
      vertex   -2.423501e+02 9.622643e+01 1.347162e+02
      vertex   -2.414995e+02 9.622631e+01 1.341615e+02
    endloop
  endfacet
  facet normal -1.437957e-04 -1.000000e+00 -2.885716e-13
    outer loop
      vertex   -2.431795e+02 9.622655e+01 1.321868e+02
      vertex   -2.429634e+02 9.622652e+01 1.308562e+02
      vertex   -2.422088e+02 9.622641e+01 1.315095e+02
    endloop
  endfacet
  facet normal -1.437957e-04 -1.000000e+00 -2.968436e-13
    outer loop
      vertex   -2.422088e+02 9.622641e+01 1.315095e+02
      vertex   -2.429634e+02 9.622652e+01 1.308562e+02
      vertex   -2.419260e+02 9.622637e+01 1.306961e+02
    endloop
  endfacet
  facet normal -1.437957e-04 -1.000000e+00 -2.982356e-13
    outer loop
      vertex   -2.419260e+02 9.622637e+01 1.306961e+02
      vertex   -2.429634e+02 9.622652e+01 1.308562e+02
      vertex   -2.423416e+02 9.622643e+01 1.296602e+02
    endloop
  endfacet
  facet normal -1.437957e-04 -1.000000e+00 -3.191710e-13
    outer loop
      vertex   -2.418744e+02 9.622636e+01 1.306158e+02
      vertex   -2.423416e+02 9.622643e+01 1.296602e+02
      vertex   -2.418067e+02 9.622636e+01 1.305483e+02
    endloop
  endfacet
  facet normal -1.437957e-04 -1.000000e+00 -2.988580e-13
    outer loop
      vertex   -2.418744e+02 9.622636e+01 1.306158e+02
      vertex   -2.419260e+02 9.622637e+01 1.306961e+02
      vertex   -2.423416e+02 9.622643e+01 1.296602e+02
    endloop
  endfacet
  facet normal -1.437957e-04 -1.000000e+00 -2.873159e-13
    outer loop
      vertex   -2.413554e+02 9.622629e+01 1.304859e+02
      vertex   -2.414468e+02 9.622630e+01 1.304583e+02
      vertex   -2.413765e+02 9.622629e+01 1.287191e+02
    endloop
  endfacet
  facet normal -1.437957e-04 -1.000000e+00 -2.900533e-13
    outer loop
      vertex   -2.412720e+02 9.622628e+01 1.305325e+02
      vertex   -2.413765e+02 9.622629e+01 1.287191e+02
      vertex   -2.399814e+02 9.622609e+01 1.306721e+02
    endloop
  endfacet
  facet normal -1.437957e-04 -1.000000e+00 -2.632624e-13
    outer loop
      vertex   -2.402297e+02 9.622613e+01 1.308779e+02
      vertex   -2.412720e+02 9.622628e+01 1.305325e+02
      vertex   -2.399814e+02 9.622609e+01 1.306721e+02
    endloop
  endfacet
  facet normal -1.437957e-04 -1.000000e+00 -3.163909e-13
    outer loop
      vertex   -2.402297e+02 9.622613e+01 1.308779e+02
      vertex   -2.404385e+02 9.622616e+01 1.311236e+02
      vertex   -2.412720e+02 9.622628e+01 1.305325e+02
    endloop
  endfacet
  facet normal -1.437957e-04 -1.000000e+00 -2.918483e-13
    outer loop
      vertex   -2.399814e+02 9.622609e+01 1.306721e+02
      vertex   -2.413765e+02 9.622629e+01 1.287191e+02
      vertex   -2.397012e+02 9.622605e+01 1.305125e+02
    endloop
  endfacet
  facet normal -1.437957e-04 -1.000000e+00 -2.963192e-13
    outer loop
      vertex   -2.397012e+02 9.622605e+01 1.305125e+02
      vertex   -2.413765e+02 9.622629e+01 1.287191e+02
      vertex   -2.401652e+02 9.622612e+01 1.281275e+02
    endloop
  endfacet
  facet normal -1.437957e-04 -1.000000e+00 -2.946029e-13
    outer loop
      vertex   -2.393975e+02 9.622601e+01 1.304041e+02
      vertex   -2.401652e+02 9.622612e+01 1.281275e+02
      vertex   -2.384744e+02 9.622588e+01 1.284553e+02
    endloop
  endfacet
  facet normal -1.437957e-04 -1.000000e+00 -3.006069e-13
    outer loop
      vertex   -2.393975e+02 9.622601e+01 1.304041e+02
      vertex   -2.397012e+02 9.622605e+01 1.305125e+02
      vertex   -2.401652e+02 9.622612e+01 1.281275e+02
    endloop
  endfacet
  facet normal -1.437957e-04 -1.000000e+00 -2.790172e-13
    outer loop
      vertex   -2.401652e+02 9.622612e+01 1.281275e+02
      vertex   -2.388296e+02 9.622593e+01 1.279451e+02
      vertex   -2.384744e+02 9.622588e+01 1.284553e+02
    endloop
  endfacet
  facet normal -1.437957e-04 -1.000000e+00 -2.987240e-13
    outer loop
      vertex   -2.384744e+02 9.622588e+01 1.284553e+02
      vertex   -2.388296e+02 9.622593e+01 1.279451e+02
      vertex   -2.385573e+02 9.622589e+01 1.281382e+02
    endloop
  endfacet
  facet normal -1.437957e-04 -1.000000e+00 -2.341510e-13
    outer loop
      vertex   -2.384951e+02 9.622588e+01 1.282012e+02
      vertex   -2.384744e+02 9.622588e+01 1.284553e+02
      vertex   -2.385573e+02 9.622589e+01 1.281382e+02
    endloop
  endfacet
  facet normal -1.437957e-04 -1.000000e+00 -2.198900e-13
    outer loop
      vertex   -2.384951e+02 9.622588e+01 1.282012e+02
      vertex   -2.384582e+02 9.622587e+01 1.282817e+02
      vertex   -2.384744e+02 9.622588e+01 1.284553e+02
    endloop
  endfacet
  facet normal -1.437957e-04 -1.000000e+00 -2.184772e-13
    outer loop
      vertex   -2.384744e+02 9.622588e+01 1.284553e+02
      vertex   -2.384582e+02 9.622587e+01 1.282817e+02
      vertex   -2.384510e+02 9.622587e+01 1.283699e+02
    endloop
  endfacet
  facet normal -1.437957e-04 -1.000000e+00 -2.874518e-13
    outer loop
      vertex   -2.412720e+02 9.622628e+01 1.305325e+02
      vertex   -2.413554e+02 9.622629e+01 1.304859e+02
      vertex   -2.413765e+02 9.622629e+01 1.287191e+02
    endloop
  endfacet
  facet normal -1.437957e-04 -1.000000e+00 -2.853753e-13
    outer loop
      vertex   -2.414468e+02 9.622630e+01 1.304583e+02
      vertex   -2.415420e+02 9.622632e+01 1.304508e+02
      vertex   -2.413765e+02 9.622629e+01 1.287191e+02
    endloop
  endfacet
  facet normal -1.437957e-04 -1.000000e+00 -2.847225e-13
    outer loop
      vertex   -2.413765e+02 9.622629e+01 1.287191e+02
      vertex   -2.415420e+02 9.622632e+01 1.304508e+02
      vertex   -2.423416e+02 9.622643e+01 1.296602e+02
    endloop
  endfacet
  facet normal -1.437957e-04 -1.000000e+00 -4.353928e-13
    outer loop
      vertex   -2.423416e+02 9.622643e+01 1.296602e+02
      vertex   -2.415420e+02 9.622632e+01 1.304508e+02
      vertex   -2.416366e+02 9.622633e+01 1.304639e+02
    endloop
  endfacet
  facet normal -1.437957e-04 -1.000000e+00 -2.893874e-13
    outer loop
      vertex   -2.417262e+02 9.622634e+01 1.304969e+02
      vertex   -2.423416e+02 9.622643e+01 1.296602e+02
      vertex   -2.416366e+02 9.622633e+01 1.304639e+02
    endloop
  endfacet
  facet normal -1.437957e-04 -1.000000e+00 -2.040458e-13
    outer loop
      vertex   -2.417262e+02 9.622634e+01 1.304969e+02
      vertex   -2.418067e+02 9.622636e+01 1.305483e+02
      vertex   -2.423416e+02 9.622643e+01 1.296602e+02
    endloop
  endfacet
  facet normal 9.052969e-01 -1.301229e-04 -4.247793e-01
    outer loop
      vertex   -2.417541e+02 9.622635e+01 1.339949e+02
      vertex   -2.421200e+02 9.622640e+01 1.332153e+02
      vertex   -2.417541e+02 9.682635e+01 1.339949e+02
    endloop
  endfacet
  facet normal 9.052969e-01 -1.301645e-04 -4.247793e-01
    outer loop
      vertex   -2.417541e+02 9.682635e+01 1.339949e+02
      vertex   -2.421200e+02 9.622640e+01 1.332153e+02
      vertex   -2.421199e+02 9.682640e+01 1.332153e+02
    endloop
  endfacet
  facet normal 9.836756e-01 -1.414617e-04 -1.799509e-01
    outer loop
      vertex   -2.421199e+02 9.682640e+01 1.332153e+02
      vertex   -2.421200e+02 9.622640e+01 1.332153e+02
      vertex   -2.422749e+02 9.622642e+01 1.323682e+02
    endloop
  endfacet
  facet normal 9.970489e-01 -1.434531e-04 7.676953e-02
    outer loop
      vertex   -2.422748e+02 9.682642e+01 1.323682e+02
      vertex   -2.422749e+02 9.622642e+01 1.323682e+02
      vertex   -2.422088e+02 9.622641e+01 1.315095e+02
    endloop
  endfacet
  facet normal 9.445329e-01 -1.359698e-04 3.284167e-01
    outer loop
      vertex   -2.422087e+02 9.682641e+01 1.315095e+02
      vertex   -2.422088e+02 9.622641e+01 1.315095e+02
      vertex   -2.419260e+02 9.622637e+01 1.306961e+02
    endloop
  endfacet
  facet normal 9.445330e-01 -1.356015e-04 3.284164e-01
    outer loop
      vertex   -2.419259e+02 9.682637e+01 1.306961e+02
      vertex   -2.422087e+02 9.682641e+01 1.315095e+02
      vertex   -2.419260e+02 9.622637e+01 1.306961e+02
    endloop
  endfacet
  facet normal 9.970489e-01 -1.432214e-04 7.676937e-02
    outer loop
      vertex   -2.422087e+02 9.682641e+01 1.315095e+02
      vertex   -2.422748e+02 9.682642e+01 1.323682e+02
      vertex   -2.422088e+02 9.622641e+01 1.315095e+02
    endloop
  endfacet
  facet normal 9.836756e-01 -1.413667e-04 -1.799509e-01
    outer loop
      vertex   -2.422748e+02 9.682642e+01 1.323682e+02
      vertex   -2.421199e+02 9.682640e+01 1.332153e+02
      vertex   -2.422749e+02 9.622642e+01 1.323682e+02
    endloop
  endfacet
  facet normal -5.531464e-01 7.999627e-05 -8.330841e-01
    outer loop
      vertex   -2.412061e+02 9.622627e+01 1.340809e+02
      vertex   -2.412713e+02 9.622628e+01 1.341241e+02
      vertex   -2.412060e+02 9.682627e+01 1.340809e+02
    endloop
  endfacet
  facet normal -5.531409e-01 7.913450e-05 -8.330877e-01
    outer loop
      vertex   -2.412060e+02 9.682627e+01 1.340809e+02
      vertex   -2.412713e+02 9.622628e+01 1.341241e+02
      vertex   -2.412712e+02 9.682628e+01 1.341242e+02
    endloop
  endfacet
  facet normal -3.655527e-01 5.296971e-05 -9.307907e-01
    outer loop
      vertex   -2.412712e+02 9.682628e+01 1.341242e+02
      vertex   -2.412713e+02 9.622628e+01 1.341241e+02
      vertex   -2.413441e+02 9.622629e+01 1.341528e+02
    endloop
  endfacet
  facet normal -1.616049e-01 2.359152e-05 -9.868555e-01
    outer loop
      vertex   -2.413440e+02 9.682629e+01 1.341528e+02
      vertex   -2.413441e+02 9.622629e+01 1.341528e+02
      vertex   -2.414213e+02 9.622630e+01 1.341654e+02
    endloop
  endfacet
  facet normal 4.957284e-02 -6.826294e-06 -9.987705e-01
    outer loop
      vertex   -2.414212e+02 9.682630e+01 1.341654e+02
      vertex   -2.414213e+02 9.622630e+01 1.341654e+02
      vertex   -2.414995e+02 9.622631e+01 1.341615e+02
    endloop
  endfacet
  facet normal 2.585327e-01 -3.692520e-05 -9.660025e-01
    outer loop
      vertex   -2.414994e+02 9.682631e+01 1.341615e+02
      vertex   -2.414995e+02 9.622631e+01 1.341615e+02
      vertex   -2.415751e+02 9.622632e+01 1.341413e+02
    endloop
  endfacet
  facet normal 4.559264e-01 -6.536093e-05 -8.900175e-01
    outer loop
      vertex   -2.415750e+02 9.682632e+01 1.341413e+02
      vertex   -2.415751e+02 9.622632e+01 1.341413e+02
      vertex   -2.416447e+02 9.622633e+01 1.341056e+02
    endloop
  endfacet
  facet normal 6.329228e-01 -9.086363e-05 -7.742149e-01
    outer loop
      vertex   -2.416447e+02 9.682633e+01 1.341056e+02
      vertex   -2.416447e+02 9.622633e+01 1.341056e+02
      vertex   -2.417053e+02 9.622634e+01 1.340561e+02
    endloop
  endfacet
  facet normal 7.816036e-01 -1.122947e-04 -6.237755e-01
    outer loop
      vertex   -2.417052e+02 9.682634e+01 1.340561e+02
      vertex   -2.417053e+02 9.622634e+01 1.340561e+02
      vertex   -2.417541e+02 9.622635e+01 1.339949e+02
    endloop
  endfacet
  facet normal 7.816043e-01 -1.124366e-04 -6.237746e-01
    outer loop
      vertex   -2.417541e+02 9.682635e+01 1.339949e+02
      vertex   -2.417052e+02 9.682634e+01 1.340561e+02
      vertex   -2.417541e+02 9.622635e+01 1.339949e+02
    endloop
  endfacet
  facet normal 6.329243e-01 -9.110842e-05 -7.742137e-01
    outer loop
      vertex   -2.417052e+02 9.682634e+01 1.340561e+02
      vertex   -2.416447e+02 9.682633e+01 1.341056e+02
      vertex   -2.417053e+02 9.622634e+01 1.340561e+02
    endloop
  endfacet
  facet normal 4.559288e-01 -6.570858e-05 -8.900163e-01
    outer loop
      vertex   -2.416447e+02 9.682633e+01 1.341056e+02
      vertex   -2.415750e+02 9.682632e+01 1.341413e+02
      vertex   -2.416447e+02 9.622633e+01 1.341056e+02
    endloop
  endfacet
  facet normal 2.585361e-01 -3.737572e-05 -9.660016e-01
    outer loop
      vertex   -2.415750e+02 9.682632e+01 1.341413e+02
      vertex   -2.414994e+02 9.682631e+01 1.341615e+02
      vertex   -2.415751e+02 9.622632e+01 1.341413e+02
    endloop
  endfacet
  facet normal 4.957707e-02 -7.379672e-06 -9.987703e-01
    outer loop
      vertex   -2.414994e+02 9.682631e+01 1.341615e+02
      vertex   -2.414212e+02 9.682630e+01 1.341654e+02
      vertex   -2.414995e+02 9.622631e+01 1.341615e+02
    endloop
  endfacet
  facet normal -1.615999e-01 2.293531e-05 -9.868564e-01
    outer loop
      vertex   -2.414212e+02 9.682630e+01 1.341654e+02
      vertex   -2.413440e+02 9.682629e+01 1.341528e+02
      vertex   -2.414213e+02 9.622630e+01 1.341654e+02
    endloop
  endfacet
  facet normal -3.655473e-01 5.221070e-05 -9.307928e-01
    outer loop
      vertex   -2.413440e+02 9.682629e+01 1.341528e+02
      vertex   -2.412712e+02 9.682628e+01 1.341242e+02
      vertex   -2.413441e+02 9.622629e+01 1.341528e+02
    endloop
  endfacet
  facet normal -6.381484e-01 9.176302e-05 -7.699133e-01
    outer loop
      vertex   -2.412060e+02 9.682627e+01 1.340809e+02
      vertex   -2.403537e+02 9.682615e+01 1.333745e+02
      vertex   -2.412061e+02 9.622627e+01 1.340809e+02
    endloop
  endfacet
  facet normal -6.381486e-01 9.225781e-05 -7.699132e-01
    outer loop
      vertex   -2.412061e+02 9.622627e+01 1.340809e+02
      vertex   -2.403537e+02 9.682615e+01 1.333745e+02
      vertex   -2.403538e+02 9.622615e+01 1.333745e+02
    endloop
  endfacet
  facet normal 4.670982e-01 -6.720972e-05 -8.842055e-01
    outer loop
      vertex   -2.395727e+02 9.622603e+01 1.339285e+02
      vertex   -2.399997e+02 9.622610e+01 1.337029e+02
      vertex   -2.395726e+02 9.682603e+01 1.339285e+02
    endloop
  endfacet
  facet normal 4.670981e-01 -6.711827e-05 -8.842055e-01
    outer loop
      vertex   -2.395726e+02 9.682603e+01 1.339285e+02
      vertex   -2.399997e+02 9.622610e+01 1.337029e+02
      vertex   -2.399996e+02 9.682610e+01 1.337029e+02
    endloop
  endfacet
  facet normal 6.800314e-01 -9.783404e-05 -7.331830e-01
    outer loop
      vertex   -2.399996e+02 9.682610e+01 1.337029e+02
      vertex   -2.399997e+02 9.622610e+01 1.337029e+02
      vertex   -2.403538e+02 9.622615e+01 1.333745e+02
    endloop
  endfacet
  facet normal 6.800313e-01 -9.771030e-05 -7.331831e-01
    outer loop
      vertex   -2.403537e+02 9.682615e+01 1.333745e+02
      vertex   -2.399996e+02 9.682610e+01 1.337029e+02
      vertex   -2.403538e+02 9.622615e+01 1.333745e+02
    endloop
  endfacet
  facet normal 9.376096e-01 -1.348243e-04 3.476899e-01
    outer loop
      vertex   -2.399576e+02 9.622609e+01 1.349664e+02
      vertex   -2.395727e+02 9.622603e+01 1.339285e+02
      vertex   -2.399575e+02 9.682609e+01 1.349664e+02
    endloop
  endfacet
  facet normal 9.376095e-01 -1.350716e-04 3.476900e-01
    outer loop
      vertex   -2.399575e+02 9.682609e+01 1.349664e+02
      vertex   -2.395727e+02 9.622603e+01 1.339285e+02
      vertex   -2.395726e+02 9.682603e+01 1.339285e+02
    endloop
  endfacet
  facet normal 9.691236e-01 -1.393559e-04 2.465752e-01
    outer loop
      vertex   -2.399575e+02 9.682609e+01 1.349664e+02
      vertex   -2.399768e+02 9.682609e+01 1.350422e+02
      vertex   -2.399576e+02 9.622609e+01 1.349664e+02
    endloop
  endfacet
  facet normal 9.691236e-01 -1.393558e-04 2.465752e-01
    outer loop
      vertex   -2.399576e+02 9.622609e+01 1.349664e+02
      vertex   -2.399768e+02 9.682609e+01 1.350422e+02
      vertex   -2.399769e+02 9.622609e+01 1.350422e+02
    endloop
  endfacet
  facet normal 9.993068e-01 -1.436961e-04 3.722714e-02
    outer loop
      vertex   -2.399769e+02 9.622609e+01 1.350422e+02
      vertex   -2.399768e+02 9.682609e+01 1.350422e+02
      vertex   -2.399797e+02 9.682609e+01 1.351204e+02
    endloop
  endfacet
  facet normal 9.847834e-01 -1.416077e-04 -1.737864e-01
    outer loop
      vertex   -2.399798e+02 9.622609e+01 1.351204e+02
      vertex   -2.399797e+02 9.682609e+01 1.351204e+02
      vertex   -2.399661e+02 9.682609e+01 1.351975e+02
    endloop
  endfacet
  facet normal 9.262030e-01 -1.331841e-04 -3.770252e-01
    outer loop
      vertex   -2.399662e+02 9.622609e+01 1.351975e+02
      vertex   -2.399661e+02 9.682609e+01 1.351975e+02
      vertex   -2.399366e+02 9.682609e+01 1.352700e+02
    endloop
  endfacet
  facet normal 8.261865e-01 -1.188021e-04 -5.633967e-01
    outer loop
      vertex   -2.399367e+02 9.622609e+01 1.352700e+02
      vertex   -2.399366e+02 9.682609e+01 1.352700e+02
      vertex   -2.398925e+02 9.682608e+01 1.353346e+02
    endloop
  endfacet
  facet normal 6.892083e-01 -9.910523e-05 -7.245632e-01
    outer loop
      vertex   -2.398926e+02 9.622608e+01 1.353346e+02
      vertex   -2.398925e+02 9.682608e+01 1.353346e+02
      vertex   -2.398358e+02 9.682607e+01 1.353885e+02
    endloop
  endfacet
  facet normal 5.213966e-01 -7.497462e-05 -8.533144e-01
    outer loop
      vertex   -2.398359e+02 9.622607e+01 1.353885e+02
      vertex   -2.398358e+02 9.682607e+01 1.353885e+02
      vertex   -2.397690e+02 9.682606e+01 1.354294e+02
    endloop
  endfacet
  facet normal 3.302589e-01 -4.748982e-05 -9.438904e-01
    outer loop
      vertex   -2.397691e+02 9.622606e+01 1.354294e+02
      vertex   -2.397690e+02 9.682606e+01 1.354294e+02
      vertex   -2.396952e+02 9.622605e+01 1.354552e+02
    endloop
  endfacet
  facet normal 5.213966e-01 -7.497461e-05 -8.533144e-01
    outer loop
      vertex   -2.397691e+02 9.622606e+01 1.354294e+02
      vertex   -2.398359e+02 9.622607e+01 1.353885e+02
      vertex   -2.397690e+02 9.682606e+01 1.354294e+02
    endloop
  endfacet
  facet normal 3.302589e-01 -4.748981e-05 -9.438904e-01
    outer loop
      vertex   -2.397690e+02 9.682606e+01 1.354294e+02
      vertex   -2.396951e+02 9.682605e+01 1.354552e+02
      vertex   -2.396952e+02 9.622605e+01 1.354552e+02
    endloop
  endfacet
  facet normal 6.892083e-01 -9.910521e-05 -7.245632e-01
    outer loop
      vertex   -2.398359e+02 9.622607e+01 1.353885e+02
      vertex   -2.398926e+02 9.622608e+01 1.353346e+02
      vertex   -2.398358e+02 9.682607e+01 1.353885e+02
    endloop
  endfacet
  facet normal 8.261865e-01 -1.188021e-04 -5.633967e-01
    outer loop
      vertex   -2.398926e+02 9.622608e+01 1.353346e+02
      vertex   -2.399367e+02 9.622609e+01 1.352700e+02
      vertex   -2.398925e+02 9.682608e+01 1.353346e+02
    endloop
  endfacet
  facet normal 9.262030e-01 -1.331840e-04 -3.770252e-01
    outer loop
      vertex   -2.399367e+02 9.622609e+01 1.352700e+02
      vertex   -2.399662e+02 9.622609e+01 1.351975e+02
      vertex   -2.399366e+02 9.682609e+01 1.352700e+02
    endloop
  endfacet
  facet normal 9.847834e-01 -1.416076e-04 -1.737864e-01
    outer loop
      vertex   -2.399662e+02 9.622609e+01 1.351975e+02
      vertex   -2.399798e+02 9.622609e+01 1.351204e+02
      vertex   -2.399661e+02 9.682609e+01 1.351975e+02
    endloop
  endfacet
  facet normal 9.993068e-01 -1.436960e-04 3.722714e-02
    outer loop
      vertex   -2.399798e+02 9.622609e+01 1.351204e+02
      vertex   -2.399769e+02 9.622609e+01 1.350422e+02
      vertex   -2.399797e+02 9.682609e+01 1.351204e+02
    endloop
  endfacet
  facet normal 1.015577e-01 -1.460357e-05 -9.948296e-01
    outer loop
      vertex   -2.396951e+02 9.682605e+01 1.354552e+02
      vertex   -2.388384e+02 9.682593e+01 1.355427e+02
      vertex   -2.396952e+02 9.622605e+01 1.354552e+02
    endloop
  endfacet
  facet normal 1.015577e-01 -1.460357e-05 -9.948296e-01
    outer loop
      vertex   -2.396952e+02 9.622605e+01 1.354552e+02
      vertex   -2.388384e+02 9.682593e+01 1.355427e+02
      vertex   -2.388385e+02 9.622593e+01 1.355427e+02
    endloop
  endfacet
  facet normal -1.554159e-01 2.234815e-05 -9.878491e-01
    outer loop
      vertex   -2.388385e+02 9.622593e+01 1.355427e+02
      vertex   -2.388384e+02 9.682593e+01 1.355427e+02
      vertex   -2.379877e+02 9.682581e+01 1.354088e+02
    endloop
  endfacet
  facet normal -4.021191e-01 5.782300e-05 -9.155874e-01
    outer loop
      vertex   -2.379878e+02 9.622581e+01 1.354088e+02
      vertex   -2.379877e+02 9.682581e+01 1.354088e+02
      vertex   -2.371992e+02 9.682569e+01 1.350625e+02
    endloop
  endfacet
  facet normal -6.222485e-01 8.947667e-05 -7.828198e-01
    outer loop
      vertex   -2.371993e+02 9.622569e+01 1.350625e+02
      vertex   -2.371992e+02 9.682569e+01 1.350625e+02
      vertex   -2.365251e+02 9.682560e+01 1.345267e+02
    endloop
  endfacet
  facet normal -6.222485e-01 8.947667e-05 -7.828198e-01
    outer loop
      vertex   -2.365252e+02 9.622560e+01 1.345267e+02
      vertex   -2.371993e+02 9.622569e+01 1.350625e+02
      vertex   -2.365251e+02 9.682560e+01 1.345267e+02
    endloop
  endfacet
  facet normal -4.021191e-01 5.782300e-05 -9.155874e-01
    outer loop
      vertex   -2.371993e+02 9.622569e+01 1.350625e+02
      vertex   -2.379878e+02 9.622581e+01 1.354088e+02
      vertex   -2.371992e+02 9.682569e+01 1.350625e+02
    endloop
  endfacet
  facet normal -1.554159e-01 2.234815e-05 -9.878491e-01
    outer loop
      vertex   -2.379878e+02 9.622581e+01 1.354088e+02
      vertex   -2.388385e+02 9.622593e+01 1.355427e+02
      vertex   -2.379877e+02 9.682581e+01 1.354088e+02
    endloop
  endfacet
  facet normal -7.884371e-01 1.133739e-04 -6.151154e-01
    outer loop
      vertex   -2.365251e+02 9.682560e+01 1.345267e+02
      vertex   -2.364663e+02 9.682559e+01 1.344514e+02
      vertex   -2.365252e+02 9.622560e+01 1.345267e+02
    endloop
  endfacet
  facet normal -7.884371e-01 1.133735e-04 -6.151154e-01
    outer loop
      vertex   -2.365252e+02 9.622560e+01 1.345267e+02
      vertex   -2.364663e+02 9.682559e+01 1.344514e+02
      vertex   -2.364664e+02 9.622559e+01 1.344514e+02
    endloop
  endfacet
  facet normal -9.017440e-01 1.296673e-04 -4.322706e-01
    outer loop
      vertex   -2.364664e+02 9.622559e+01 1.344514e+02
      vertex   -2.364663e+02 9.682559e+01 1.344514e+02
      vertex   -2.364250e+02 9.682558e+01 1.343652e+02
    endloop
  endfacet
  facet normal -9.733265e-01 1.399610e-04 -2.294243e-01
    outer loop
      vertex   -2.364251e+02 9.622558e+01 1.343652e+02
      vertex   -2.364250e+02 9.682558e+01 1.343652e+02
      vertex   -2.364031e+02 9.682558e+01 1.342723e+02
    endloop
  endfacet
  facet normal -9.998726e-01 1.437786e-04 -1.596242e-02
    outer loop
      vertex   -2.364032e+02 9.622558e+01 1.342723e+02
      vertex   -2.364031e+02 9.682558e+01 1.342723e+02
      vertex   -2.364016e+02 9.682558e+01 1.341768e+02
    endloop
  endfacet
  facet normal -9.801539e-01 1.409435e-04 1.982380e-01
    outer loop
      vertex   -2.364017e+02 9.622558e+01 1.341768e+02
      vertex   -2.364016e+02 9.682558e+01 1.341768e+02
      vertex   -2.364205e+02 9.682558e+01 1.340832e+02
    endloop
  endfacet
  facet normal -9.150828e-01 1.315869e-04 4.032659e-01
    outer loop
      vertex   -2.364206e+02 9.622558e+01 1.340832e+02
      vertex   -2.364205e+02 9.682558e+01 1.340832e+02
      vertex   -2.364590e+02 9.682559e+01 1.339958e+02
    endloop
  endfacet
  facet normal -8.076703e-01 1.161418e-04 5.896344e-01
    outer loop
      vertex   -2.364591e+02 9.622559e+01 1.339958e+02
      vertex   -2.364590e+02 9.682559e+01 1.339958e+02
      vertex   -2.365154e+02 9.682559e+01 1.339186e+02
    endloop
  endfacet
  facet normal -6.628863e-01 9.532289e-05 7.487201e-01
    outer loop
      vertex   -2.365154e+02 9.622559e+01 1.339186e+02
      vertex   -2.365154e+02 9.682559e+01 1.339186e+02
      vertex   -2.365870e+02 9.622560e+01 1.338553e+02
    endloop
  endfacet
  facet normal -8.076703e-01 1.161369e-04 5.896344e-01
    outer loop
      vertex   -2.365154e+02 9.622559e+01 1.339186e+02
      vertex   -2.364591e+02 9.622559e+01 1.339958e+02
      vertex   -2.365154e+02 9.682559e+01 1.339186e+02
    endloop
  endfacet
  facet normal -6.628863e-01 9.531717e-05 7.487201e-01
    outer loop
      vertex   -2.365154e+02 9.682559e+01 1.339186e+02
      vertex   -2.365869e+02 9.682560e+01 1.338553e+02
      vertex   -2.365870e+02 9.622560e+01 1.338553e+02
    endloop
  endfacet
  facet normal -9.150828e-01 1.315827e-04 4.032659e-01
    outer loop
      vertex   -2.364591e+02 9.622559e+01 1.339958e+02
      vertex   -2.364206e+02 9.622558e+01 1.340832e+02
      vertex   -2.364590e+02 9.682559e+01 1.339958e+02
    endloop
  endfacet
  facet normal -9.801539e-01 1.409400e-04 1.982380e-01
    outer loop
      vertex   -2.364206e+02 9.622558e+01 1.340832e+02
      vertex   -2.364017e+02 9.622558e+01 1.341768e+02
      vertex   -2.364205e+02 9.682558e+01 1.340832e+02
    endloop
  endfacet
  facet normal -9.998726e-01 1.437759e-04 -1.596244e-02
    outer loop
      vertex   -2.364017e+02 9.622558e+01 1.341768e+02
      vertex   -2.364032e+02 9.622558e+01 1.342723e+02
      vertex   -2.364016e+02 9.682558e+01 1.341768e+02
    endloop
  endfacet
  facet normal -9.733265e-01 1.399591e-04 -2.294243e-01
    outer loop
      vertex   -2.364032e+02 9.622558e+01 1.342723e+02
      vertex   -2.364251e+02 9.622558e+01 1.343652e+02
      vertex   -2.364031e+02 9.682558e+01 1.342723e+02
    endloop
  endfacet
  facet normal -9.017439e-01 1.296662e-04 -4.322706e-01
    outer loop
      vertex   -2.364251e+02 9.622558e+01 1.343652e+02
      vertex   -2.364664e+02 9.622559e+01 1.344514e+02
      vertex   -2.364250e+02 9.682558e+01 1.343652e+02
    endloop
  endfacet
  facet normal -5.785140e-01 8.319076e-05 8.156725e-01
    outer loop
      vertex   -2.374204e+02 9.682572e+01 1.332641e+02
      vertex   -2.374205e+02 9.622572e+01 1.332641e+02
      vertex   -2.365869e+02 9.682560e+01 1.338553e+02
    endloop
  endfacet
  facet normal -5.785140e-01 8.318784e-05 8.156725e-01
    outer loop
      vertex   -2.365869e+02 9.682560e+01 1.338553e+02
      vertex   -2.374205e+02 9.622572e+01 1.332641e+02
      vertex   -2.365870e+02 9.622560e+01 1.338553e+02
    endloop
  endfacet
  facet normal -9.999817e-01 1.448629e-04 -6.039879e-03
    outer loop
      vertex   -2.370856e+02 9.622568e+01 1.320438e+02
      vertex   -2.370875e+02 9.622568e+01 1.323663e+02
      vertex   -2.370855e+02 9.682568e+01 1.320438e+02
    endloop
  endfacet
  facet normal -9.999817e-01 1.437223e-04 -6.042001e-03
    outer loop
      vertex   -2.370855e+02 9.682568e+01 1.320438e+02
      vertex   -2.370875e+02 9.622568e+01 1.323663e+02
      vertex   -2.370874e+02 9.682568e+01 1.323663e+02
    endloop
  endfacet
  facet normal -9.837409e-01 1.415286e-04 -1.795933e-01
    outer loop
      vertex   -2.370874e+02 9.682568e+01 1.323663e+02
      vertex   -2.370875e+02 9.622568e+01 1.323663e+02
      vertex   -2.371454e+02 9.622568e+01 1.326835e+02
    endloop
  endfacet
  facet normal -9.376096e-01 1.348714e-04 -3.476898e-01
    outer loop
      vertex   -2.371453e+02 9.682568e+01 1.326835e+02
      vertex   -2.371454e+02 9.622568e+01 1.326835e+02
      vertex   -2.372576e+02 9.622570e+01 1.329858e+02
    endloop
  endfacet
  facet normal -8.629894e-01 1.241176e-04 -5.052220e-01
    outer loop
      vertex   -2.372575e+02 9.682570e+01 1.329858e+02
      vertex   -2.372576e+02 9.622570e+01 1.329858e+02
      vertex   -2.374204e+02 9.682572e+01 1.332641e+02
    endloop
  endfacet
  facet normal -9.376096e-01 1.348008e-04 -3.476899e-01
    outer loop
      vertex   -2.372575e+02 9.682570e+01 1.329858e+02
      vertex   -2.371453e+02 9.682568e+01 1.326835e+02
      vertex   -2.372576e+02 9.622570e+01 1.329858e+02
    endloop
  endfacet
  facet normal -8.629894e-01 1.240945e-04 -5.052220e-01
    outer loop
      vertex   -2.372576e+02 9.622570e+01 1.329858e+02
      vertex   -2.374205e+02 9.622572e+01 1.332641e+02
      vertex   -2.374204e+02 9.682572e+01 1.332641e+02
    endloop
  endfacet
  facet normal -9.837409e-01 1.414106e-04 -1.795935e-01
    outer loop
      vertex   -2.371453e+02 9.682568e+01 1.326835e+02
      vertex   -2.370874e+02 9.682568e+01 1.323663e+02
      vertex   -2.371454e+02 9.622568e+01 1.326835e+02
    endloop
  endfacet
  facet normal -7.028227e-01 1.010629e-04 -7.113651e-01
    outer loop
      vertex   -2.355516e+02 9.682546e+01 1.305283e+02
      vertex   -2.355517e+02 9.622546e+01 1.305283e+02
      vertex   -2.370855e+02 9.682568e+01 1.320438e+02
    endloop
  endfacet
  facet normal -7.028224e-01 1.025231e-04 -7.113654e-01
    outer loop
      vertex   -2.370855e+02 9.682568e+01 1.320438e+02
      vertex   -2.355517e+02 9.622546e+01 1.305283e+02
      vertex   -2.370856e+02 9.622568e+01 1.320438e+02
    endloop
  endfacet
  facet normal -5.686179e-01 8.176483e-05 -8.226017e-01
    outer loop
      vertex   -2.355516e+02 9.682546e+01 1.305283e+02
      vertex   -2.354787e+02 9.682545e+01 1.304779e+02
      vertex   -2.355517e+02 9.622546e+01 1.305283e+02
    endloop
  endfacet
  facet normal -5.686179e-01 8.176483e-05 -8.226017e-01
    outer loop
      vertex   -2.355517e+02 9.622546e+01 1.305283e+02
      vertex   -2.354787e+02 9.682545e+01 1.304779e+02
      vertex   -2.354788e+02 9.622545e+01 1.304779e+02
    endloop
  endfacet
  facet normal -2.529797e-01 3.637740e-05 -9.674716e-01
    outer loop
      vertex   -2.354788e+02 9.622545e+01 1.304779e+02
      vertex   -2.354787e+02 9.682545e+01 1.304779e+02
      vertex   -2.353930e+02 9.682543e+01 1.304555e+02
    endloop
  endfacet
  facet normal 9.317159e-02 -1.339768e-05 -9.956501e-01
    outer loop
      vertex   -2.353931e+02 9.622543e+01 1.304555e+02
      vertex   -2.353930e+02 9.682543e+01 1.304555e+02
      vertex   -2.353049e+02 9.682542e+01 1.304638e+02
    endloop
  endfacet
  facet normal 4.280850e-01 -6.155680e-05 -9.037385e-01
    outer loop
      vertex   -2.353049e+02 9.622542e+01 1.304638e+02
      vertex   -2.353049e+02 9.682542e+01 1.304638e+02
      vertex   -2.352248e+02 9.682541e+01 1.305017e+02
    endloop
  endfacet
  facet normal 4.280850e-01 -6.155680e-05 -9.037385e-01
    outer loop
      vertex   -2.352249e+02 9.622541e+01 1.305017e+02
      vertex   -2.353049e+02 9.622542e+01 1.304638e+02
      vertex   -2.352248e+02 9.682541e+01 1.305017e+02
    endloop
  endfacet
  facet normal 9.317159e-02 -1.339768e-05 -9.956501e-01
    outer loop
      vertex   -2.353049e+02 9.622542e+01 1.304638e+02
      vertex   -2.353931e+02 9.622543e+01 1.304555e+02
      vertex   -2.353049e+02 9.682542e+01 1.304638e+02
    endloop
  endfacet
  facet normal -2.529797e-01 3.637740e-05 -9.674716e-01
    outer loop
      vertex   -2.353931e+02 9.622543e+01 1.304555e+02
      vertex   -2.354788e+02 9.622545e+01 1.304779e+02
      vertex   -2.353930e+02 9.682543e+01 1.304555e+02
    endloop
  endfacet
  facet normal 8.412112e-01 -1.211453e-04 5.407067e-01
    outer loop
      vertex   -2.419259e+02 9.682637e+01 1.306961e+02
      vertex   -2.419260e+02 9.622637e+01 1.306961e+02
      vertex   -2.418743e+02 9.682636e+01 1.306158e+02
    endloop
  endfacet
  facet normal 8.412100e-01 -1.208025e-04 5.407085e-01
    outer loop
      vertex   -2.418743e+02 9.682636e+01 1.306158e+02
      vertex   -2.419260e+02 9.622637e+01 1.306961e+02
      vertex   -2.418744e+02 9.622636e+01 1.306158e+02
    endloop
  endfacet
  facet normal 7.061133e-01 -1.016960e-04 7.080989e-01
    outer loop
      vertex   -2.418067e+02 9.622636e+01 1.305483e+02
      vertex   -2.418743e+02 9.682636e+01 1.306158e+02
      vertex   -2.418744e+02 9.622636e+01 1.306158e+02
    endloop
  endfacet
  facet normal 7.061146e-01 -1.013992e-04 7.080975e-01
    outer loop
      vertex   -2.418067e+02 9.622636e+01 1.305483e+02
      vertex   -2.418066e+02 9.682636e+01 1.305483e+02
      vertex   -2.418743e+02 9.682636e+01 1.306158e+02
    endloop
  endfacet
  facet normal 5.383442e-01 -7.754867e-05 8.427250e-01
    outer loop
      vertex   -2.418067e+02 9.622636e+01 1.305483e+02
      vertex   -2.417262e+02 9.622634e+01 1.304969e+02
      vertex   -2.418066e+02 9.682636e+01 1.305483e+02
    endloop
  endfacet
  facet normal 5.383456e-01 -7.729755e-05 8.427242e-01
    outer loop
      vertex   -2.418066e+02 9.682636e+01 1.305483e+02
      vertex   -2.417262e+02 9.622634e+01 1.304969e+02
      vertex   -2.417262e+02 9.682634e+01 1.304969e+02
    endloop
  endfacet
  facet normal 3.456656e-01 -4.981949e-05 9.383578e-01
    outer loop
      vertex   -2.417262e+02 9.682634e+01 1.304969e+02
      vertex   -2.417262e+02 9.622634e+01 1.304969e+02
      vertex   -2.416366e+02 9.622633e+01 1.304639e+02
    endloop
  endfacet
  facet normal 1.369928e-01 -1.979041e-05 9.905720e-01
    outer loop
      vertex   -2.416365e+02 9.682633e+01 1.304639e+02
      vertex   -2.416366e+02 9.622633e+01 1.304639e+02
      vertex   -2.415420e+02 9.622632e+01 1.304508e+02
    endloop
  endfacet
  facet normal -7.801869e-02 1.115015e-05 9.969519e-01
    outer loop
      vertex   -2.415419e+02 9.682632e+01 1.304508e+02
      vertex   -2.415420e+02 9.622632e+01 1.304508e+02
      vertex   -2.414468e+02 9.622630e+01 1.304583e+02
    endloop
  endfacet
  facet normal -2.894202e-01 4.157161e-05 9.572021e-01
    outer loop
      vertex   -2.414467e+02 9.682630e+01 1.304583e+02
      vertex   -2.414468e+02 9.622630e+01 1.304583e+02
      vertex   -2.413554e+02 9.622629e+01 1.304859e+02
    endloop
  endfacet
  facet normal -4.874301e-01 7.006740e-05 8.731620e-01
    outer loop
      vertex   -2.413553e+02 9.682629e+01 1.304859e+02
      vertex   -2.413554e+02 9.622629e+01 1.304859e+02
      vertex   -2.412720e+02 9.622628e+01 1.305325e+02
    endloop
  endfacet
  facet normal -4.874300e-01 7.009051e-05 8.731621e-01
    outer loop
      vertex   -2.412719e+02 9.682628e+01 1.305325e+02
      vertex   -2.413553e+02 9.682629e+01 1.304859e+02
      vertex   -2.412720e+02 9.622628e+01 1.305325e+02
    endloop
  endfacet
  facet normal -2.894198e-01 4.164031e-05 9.572023e-01
    outer loop
      vertex   -2.413553e+02 9.682629e+01 1.304859e+02
      vertex   -2.414467e+02 9.682630e+01 1.304583e+02
      vertex   -2.413554e+02 9.622629e+01 1.304859e+02
    endloop
  endfacet
  facet normal -7.801797e-02 1.126444e-05 9.969520e-01
    outer loop
      vertex   -2.414467e+02 9.682630e+01 1.304583e+02
      vertex   -2.415419e+02 9.682632e+01 1.304508e+02
      vertex   -2.414468e+02 9.622630e+01 1.304583e+02
    endloop
  endfacet
  facet normal 1.369938e-01 -1.963052e-05 9.905719e-01
    outer loop
      vertex   -2.415419e+02 9.682632e+01 1.304508e+02
      vertex   -2.416365e+02 9.682633e+01 1.304639e+02
      vertex   -2.415420e+02 9.622632e+01 1.304508e+02
    endloop
  endfacet
  facet normal 3.456668e-01 -4.961399e-05 9.383573e-01
    outer loop
      vertex   -2.416365e+02 9.682633e+01 1.304639e+02
      vertex   -2.417262e+02 9.682634e+01 1.304969e+02
      vertex   -2.416366e+02 9.622633e+01 1.304639e+02
    endloop
  endfacet
  facet normal -5.785140e-01 8.318784e-05 8.156725e-01
    outer loop
      vertex   -2.412719e+02 9.682628e+01 1.305325e+02
      vertex   -2.412720e+02 9.622628e+01 1.305325e+02
      vertex   -2.404384e+02 9.682616e+01 1.311236e+02
    endloop
  endfacet
  facet normal -5.785140e-01 8.318784e-05 8.156725e-01
    outer loop
      vertex   -2.404384e+02 9.682616e+01 1.311236e+02
      vertex   -2.412720e+02 9.622628e+01 1.305325e+02
      vertex   -2.404385e+02 9.622616e+01 1.311236e+02
    endloop
  endfacet
  facet normal 7.621477e-01 -1.095936e-04 6.474032e-01
    outer loop
      vertex   -2.404384e+02 9.682616e+01 1.311236e+02
      vertex   -2.404385e+02 9.622616e+01 1.311236e+02
      vertex   -2.402296e+02 9.682613e+01 1.308779e+02
    endloop
  endfacet
  facet normal 7.621477e-01 -1.096172e-04 6.474031e-01
    outer loop
      vertex   -2.402296e+02 9.682613e+01 1.308779e+02
      vertex   -2.404385e+02 9.622616e+01 1.311236e+02
      vertex   -2.402297e+02 9.622613e+01 1.308779e+02
    endloop
  endfacet
  facet normal 6.381486e-01 -9.173940e-05 7.699132e-01
    outer loop
      vertex   -2.399814e+02 9.622609e+01 1.306721e+02
      vertex   -2.402296e+02 9.682613e+01 1.308779e+02
      vertex   -2.402297e+02 9.622613e+01 1.308779e+02
    endloop
  endfacet
  facet normal 6.381485e-01 -9.181030e-05 7.699133e-01
    outer loop
      vertex   -2.399814e+02 9.622609e+01 1.306721e+02
      vertex   -2.399813e+02 9.682609e+01 1.306721e+02
      vertex   -2.402296e+02 9.682613e+01 1.308779e+02
    endloop
  endfacet
  facet normal 4.947596e-01 -7.109704e-05 8.690299e-01
    outer loop
      vertex   -2.399814e+02 9.622609e+01 1.306721e+02
      vertex   -2.397012e+02 9.622605e+01 1.305125e+02
      vertex   -2.399813e+02 9.682609e+01 1.306721e+02
    endloop
  endfacet
  facet normal 4.947594e-01 -7.121520e-05 8.690300e-01
    outer loop
      vertex   -2.399813e+02 9.682609e+01 1.306721e+02
      vertex   -2.397012e+02 9.622605e+01 1.305125e+02
      vertex   -2.397011e+02 9.682605e+01 1.305125e+02
    endloop
  endfacet
  facet normal 3.363393e-01 -4.829324e-05 9.417409e-01
    outer loop
      vertex   -2.397011e+02 9.682605e+01 1.305125e+02
      vertex   -2.397012e+02 9.622605e+01 1.305125e+02
      vertex   -2.393975e+02 9.622601e+01 1.304041e+02
    endloop
  endfacet
  facet normal 3.363373e-01 -4.943361e-05 9.417416e-01
    outer loop
      vertex   -2.393974e+02 9.682601e+01 1.304041e+02
      vertex   -2.397011e+02 9.682605e+01 1.305125e+02
      vertex   -2.393975e+02 9.622601e+01 1.304041e+02
    endloop
  endfacet
  facet normal 9.037386e-01 -1.314140e-04 4.280847e-01
    outer loop
      vertex   -2.393974e+02 9.682601e+01 1.304041e+02
      vertex   -2.393975e+02 9.622601e+01 1.304041e+02
      vertex   -2.384743e+02 9.682588e+01 1.284553e+02
    endloop
  endfacet
  facet normal 9.037385e-01 -1.299537e-04 4.280850e-01
    outer loop
      vertex   -2.384743e+02 9.682588e+01 1.284553e+02
      vertex   -2.393975e+02 9.622601e+01 1.304041e+02
      vertex   -2.384744e+02 9.622588e+01 1.284553e+02
    endloop
  endfacet
  facet normal 9.643448e-01 -1.386687e-04 2.646489e-01
    outer loop
      vertex   -2.384744e+02 9.622588e+01 1.284553e+02
      vertex   -2.384510e+02 9.622587e+01 1.283699e+02
      vertex   -2.384743e+02 9.682588e+01 1.284553e+02
    endloop
  endfacet
  facet normal 9.643448e-01 -1.386687e-04 2.646489e-01
    outer loop
      vertex   -2.384743e+02 9.682588e+01 1.284553e+02
      vertex   -2.384510e+02 9.622587e+01 1.283699e+02
      vertex   -2.384509e+02 9.682587e+01 1.283699e+02
    endloop
  endfacet
  facet normal 9.967030e-01 -1.433216e-04 -8.113672e-02
    outer loop
      vertex   -2.384509e+02 9.682587e+01 1.283699e+02
      vertex   -2.384510e+02 9.622587e+01 1.283699e+02
      vertex   -2.384582e+02 9.622587e+01 1.282817e+02
    endloop
  endfacet
  facet normal 9.088440e-01 -1.306879e-04 -4.171361e-01
    outer loop
      vertex   -2.384581e+02 9.682587e+01 1.282817e+02
      vertex   -2.384582e+02 9.622587e+01 1.282817e+02
      vertex   -2.384951e+02 9.622588e+01 1.282012e+02
    endloop
  endfacet
  facet normal 7.113651e-01 -1.022913e-04 -7.028227e-01
    outer loop
      vertex   -2.384950e+02 9.682588e+01 1.282012e+02
      vertex   -2.384951e+02 9.622588e+01 1.282012e+02
      vertex   -2.385573e+02 9.622589e+01 1.281382e+02
    endloop
  endfacet
  facet normal 7.113651e-01 -1.022913e-04 -7.028227e-01
    outer loop
      vertex   -2.385572e+02 9.682589e+01 1.281382e+02
      vertex   -2.384950e+02 9.682588e+01 1.282012e+02
      vertex   -2.385573e+02 9.622589e+01 1.281382e+02
    endloop
  endfacet
  facet normal 9.088440e-01 -1.306879e-04 -4.171361e-01
    outer loop
      vertex   -2.384950e+02 9.682588e+01 1.282012e+02
      vertex   -2.384581e+02 9.682587e+01 1.282817e+02
      vertex   -2.384951e+02 9.622588e+01 1.282012e+02
    endloop
  endfacet
  facet normal 9.967030e-01 -1.433216e-04 -8.113672e-02
    outer loop
      vertex   -2.384581e+02 9.682587e+01 1.282817e+02
      vertex   -2.384509e+02 9.682587e+01 1.283699e+02
      vertex   -2.384582e+02 9.622587e+01 1.282817e+02
    endloop
  endfacet
  facet normal 5.785140e-01 -8.318784e-05 -8.156725e-01
    outer loop
      vertex   -2.388295e+02 9.682593e+01 1.279451e+02
      vertex   -2.385572e+02 9.682589e+01 1.281382e+02
      vertex   -2.388296e+02 9.622593e+01 1.279451e+02
    endloop
  endfacet
  facet normal 5.785140e-01 -8.318784e-05 -8.156725e-01
    outer loop
      vertex   -2.388296e+02 9.622593e+01 1.279451e+02
      vertex   -2.385572e+02 9.682589e+01 1.281382e+02
      vertex   -2.385573e+02 9.622589e+01 1.281382e+02
    endloop
  endfacet
endsolid
