solid ascii
  facet normal -1.437957e-04 -1.000000e+00 -3.012700e-13
    outer loop
      vertex   -2.060028e+02 6.822121e+01 1.592278e+02
      vertex   -2.054319e+02 6.822112e+01 1.596328e+02
      vertex   -2.061486e+02 6.822123e+01 1.594832e+02
    endloop
  endfacet
  facet normal -1.437957e-04 -1.000000e+00 -2.466826e-13
    outer loop
      vertex   -2.060028e+02 6.822121e+01 1.592278e+02
      vertex   -2.058100e+02 6.822118e+01 1.590058e+02
      vertex   -2.054319e+02 6.822112e+01 1.596328e+02
    endloop
  endfacet
  facet normal -1.437957e-04 -1.000000e+00 -2.270149e-13
    outer loop
      vertex   -2.054319e+02 6.822112e+01 1.596328e+02
      vertex   -2.058100e+02 6.822118e+01 1.590058e+02
      vertex   -2.053290e+02 6.822111e+01 1.595144e+02
    endloop
  endfacet
  facet normal -1.437957e-04 -1.000000e+00 -3.187620e-13
    outer loop
      vertex   -2.053290e+02 6.822111e+01 1.595144e+02
      vertex   -2.058100e+02 6.822118e+01 1.590058e+02
      vertex   -2.055776e+02 6.822115e+01 1.588257e+02
    endloop
  endfacet
  facet normal -1.437957e-04 -1.000000e+00 -3.149792e-13
    outer loop
      vertex   -2.052051e+02 6.822109e+01 1.594183e+02
      vertex   -2.055776e+02 6.822115e+01 1.588257e+02
      vertex   -2.053145e+02 6.822111e+01 1.586943e+02
    endloop
  endfacet
  facet normal -1.437957e-04 -1.000000e+00 -2.905139e-13
    outer loop
      vertex   -2.050648e+02 6.822107e+01 1.593483e+02
      vertex   -2.053145e+02 6.822111e+01 1.586943e+02
      vertex   -2.050309e+02 6.822107e+01 1.586169e+02
    endloop
  endfacet
  facet normal -1.437957e-04 -1.000000e+00 -3.043413e-13
    outer loop
      vertex   -2.049135e+02 6.822105e+01 1.593069e+02
      vertex   -2.050309e+02 6.822107e+01 1.586169e+02
      vertex   -2.047375e+02 6.822102e+01 1.585962e+02
    endloop
  endfacet
  facet normal -1.437957e-04 -1.000000e+00 -2.873285e-13
    outer loop
      vertex   -2.047570e+02 6.822103e+01 1.592959e+02
      vertex   -2.047375e+02 6.822102e+01 1.585962e+02
      vertex   -2.044458e+02 6.822098e+01 1.586332e+02
    endloop
  endfacet
  facet normal -1.437957e-04 -1.000000e+00 -3.163839e-13
    outer loop
      vertex   -2.046014e+02 6.822100e+01 1.593156e+02
      vertex   -2.044458e+02 6.822098e+01 1.586332e+02
      vertex   -2.041669e+02 6.822094e+01 1.587263e+02
    endloop
  endfacet
  facet normal -1.437957e-04 -1.000000e+00 -3.042559e-13
    outer loop
      vertex   -2.044527e+02 6.822098e+01 1.593653e+02
      vertex   -2.041669e+02 6.822094e+01 1.587263e+02
      vertex   -2.043165e+02 6.822096e+01 1.594431e+02
    endloop
  endfacet
  facet normal -1.437957e-04 -1.000000e+00 -3.088270e-13
    outer loop
      vertex   -2.044527e+02 6.822098e+01 1.593653e+02
      vertex   -2.046014e+02 6.822100e+01 1.593156e+02
      vertex   -2.041669e+02 6.822094e+01 1.587263e+02
    endloop
  endfacet
  facet normal -1.437957e-04 -1.000000e+00 -3.181055e-13
    outer loop
      vertex   -2.061486e+02 6.822123e+01 1.594832e+02
      vertex   -2.055096e+02 6.822114e+01 1.597690e+02
      vertex   -2.062418e+02 6.822124e+01 1.597621e+02
    endloop
  endfacet
  facet normal -1.437957e-04 -1.000000e+00 -3.385577e-13
    outer loop
      vertex   -2.061486e+02 6.822123e+01 1.594832e+02
      vertex   -2.054319e+02 6.822112e+01 1.596328e+02
      vertex   -2.055096e+02 6.822114e+01 1.597690e+02
    endloop
  endfacet
  facet normal -1.437957e-04 -1.000000e+00 -2.685806e-13
    outer loop
      vertex   -2.062418e+02 6.822124e+01 1.597621e+02
      vertex   -2.055593e+02 6.822114e+01 1.599178e+02
      vertex   -2.062787e+02 6.822125e+01 1.600538e+02
    endloop
  endfacet
  facet normal -1.437957e-04 -1.000000e+00 -3.180818e-13
    outer loop
      vertex   -2.062418e+02 6.822124e+01 1.597621e+02
      vertex   -2.055096e+02 6.822114e+01 1.597690e+02
      vertex   -2.055593e+02 6.822114e+01 1.599178e+02
    endloop
  endfacet
  facet normal -1.437957e-04 -1.000000e+00 -2.816573e-13
    outer loop
      vertex   -2.062787e+02 6.822125e+01 1.600538e+02
      vertex   -2.055790e+02 6.822115e+01 1.600733e+02
      vertex   -2.062581e+02 6.822124e+01 1.603472e+02
    endloop
  endfacet
  facet normal -1.437957e-04 -1.000000e+00 -3.185107e-13
    outer loop
      vertex   -2.062787e+02 6.822125e+01 1.600538e+02
      vertex   -2.055593e+02 6.822114e+01 1.599178e+02
      vertex   -2.055790e+02 6.822115e+01 1.600733e+02
    endloop
  endfacet
  facet normal -1.437957e-04 -1.000000e+00 -3.185193e-13
    outer loop
      vertex   -2.041669e+02 6.822094e+01 1.587263e+02
      vertex   -2.039115e+02 6.822091e+01 1.588721e+02
      vertex   -2.043165e+02 6.822096e+01 1.594431e+02
    endloop
  endfacet
  facet normal -1.437957e-04 -1.000000e+00 -3.469478e-13
    outer loop
      vertex   -2.043165e+02 6.822096e+01 1.594431e+02
      vertex   -2.039115e+02 6.822091e+01 1.588721e+02
      vertex   -2.041981e+02 6.822095e+01 1.595459e+02
    endloop
  endfacet
  facet normal -1.437957e-04 -1.000000e+00 -3.146431e-13
    outer loop
      vertex   -2.041981e+02 6.822095e+01 1.595459e+02
      vertex   -2.039115e+02 6.822091e+01 1.588721e+02
      vertex   -2.036895e+02 6.822087e+01 1.590649e+02
    endloop
  endfacet
  facet normal -1.437957e-04 -1.000000e+00 -2.958873e-13
    outer loop
      vertex   -2.041020e+02 6.822093e+01 1.596699e+02
      vertex   -2.036895e+02 6.822087e+01 1.590649e+02
      vertex   -2.035094e+02 6.822085e+01 1.592973e+02
    endloop
  endfacet
  facet normal -1.437957e-04 -1.000000e+00 -2.854220e-13
    outer loop
      vertex   -2.040320e+02 6.822092e+01 1.598102e+02
      vertex   -2.035094e+02 6.822085e+01 1.592973e+02
      vertex   -2.033780e+02 6.822083e+01 1.595604e+02
    endloop
  endfacet
  facet normal -1.437957e-04 -1.000000e+00 -3.365933e-13
    outer loop
      vertex   -2.039906e+02 6.822092e+01 1.599615e+02
      vertex   -2.033780e+02 6.822083e+01 1.595604e+02
      vertex   -2.033006e+02 6.822082e+01 1.598441e+02
    endloop
  endfacet
  facet normal -1.437957e-04 -1.000000e+00 -2.816573e-13
    outer loop
      vertex   -2.039796e+02 6.822092e+01 1.601179e+02
      vertex   -2.033006e+02 6.822082e+01 1.598441e+02
      vertex   -2.032799e+02 6.822081e+01 1.601374e+02
    endloop
  endfacet
  facet normal -1.437957e-04 -1.000000e+00 -2.685806e-13
    outer loop
      vertex   -2.039993e+02 6.822092e+01 1.602735e+02
      vertex   -2.032799e+02 6.822081e+01 1.601374e+02
      vertex   -2.033169e+02 6.822082e+01 1.604291e+02
    endloop
  endfacet
  facet normal -1.437957e-04 -1.000000e+00 -3.181055e-13
    outer loop
      vertex   -2.040490e+02 6.822093e+01 1.604222e+02
      vertex   -2.033169e+02 6.822082e+01 1.604291e+02
      vertex   -2.034100e+02 6.822083e+01 1.607080e+02
    endloop
  endfacet
  facet normal -1.437957e-04 -1.000000e+00 -3.113837e-13
    outer loop
      vertex   -2.041268e+02 6.822094e+01 1.605584e+02
      vertex   -2.034100e+02 6.822083e+01 1.607080e+02
      vertex   -2.035558e+02 6.822085e+01 1.609634e+02
    endloop
  endfacet
  facet normal -1.437957e-04 -1.000000e+00 -2.600580e-13
    outer loop
      vertex   -2.037486e+02 6.822088e+01 1.611854e+02
      vertex   -2.041268e+02 6.822094e+01 1.605584e+02
      vertex   -2.035558e+02 6.822085e+01 1.609634e+02
    endloop
  endfacet
  facet normal -1.437957e-04 -1.000000e+00 -2.895808e-13
    outer loop
      vertex   -2.037486e+02 6.822088e+01 1.611854e+02
      vertex   -2.042296e+02 6.822095e+01 1.606768e+02
      vertex   -2.041268e+02 6.822094e+01 1.605584e+02
    endloop
  endfacet
  facet normal -1.437957e-04 -1.000000e+00 -3.187620e-13
    outer loop
      vertex   -2.037486e+02 6.822088e+01 1.611854e+02
      vertex   -2.039810e+02 6.822092e+01 1.613656e+02
      vertex   -2.042296e+02 6.822095e+01 1.606768e+02
    endloop
  endfacet
  facet normal -1.437957e-04 -1.000000e+00 -2.928912e-13
    outer loop
      vertex   -2.042296e+02 6.822095e+01 1.606768e+02
      vertex   -2.039810e+02 6.822092e+01 1.613656e+02
      vertex   -2.043536e+02 6.822097e+01 1.607729e+02
    endloop
  endfacet
  facet normal -1.437957e-04 -1.000000e+00 -3.149792e-13
    outer loop
      vertex   -2.043536e+02 6.822097e+01 1.607729e+02
      vertex   -2.039810e+02 6.822092e+01 1.613656e+02
      vertex   -2.042441e+02 6.822095e+01 1.614969e+02
    endloop
  endfacet
  facet normal -1.437957e-04 -1.000000e+00 -2.905139e-13
    outer loop
      vertex   -2.044939e+02 6.822099e+01 1.608430e+02
      vertex   -2.042441e+02 6.822095e+01 1.614969e+02
      vertex   -2.045278e+02 6.822099e+01 1.615744e+02
    endloop
  endfacet
  facet normal -1.437957e-04 -1.000000e+00 -3.043413e-13
    outer loop
      vertex   -2.046452e+02 6.822101e+01 1.608843e+02
      vertex   -2.045278e+02 6.822099e+01 1.615744e+02
      vertex   -2.048211e+02 6.822104e+01 1.615950e+02
    endloop
  endfacet
  facet normal -1.437957e-04 -1.000000e+00 -2.873285e-13
    outer loop
      vertex   -2.048016e+02 6.822103e+01 1.608953e+02
      vertex   -2.048211e+02 6.822104e+01 1.615950e+02
      vertex   -2.051128e+02 6.822108e+01 1.615581e+02
    endloop
  endfacet
  facet normal -1.437957e-04 -1.000000e+00 -3.163839e-13
    outer loop
      vertex   -2.049572e+02 6.822106e+01 1.608756e+02
      vertex   -2.051128e+02 6.822108e+01 1.615581e+02
      vertex   -2.053917e+02 6.822112e+01 1.614649e+02
    endloop
  endfacet
  facet normal -1.437957e-04 -1.000000e+00 -3.315055e-13
    outer loop
      vertex   -2.051059e+02 6.822108e+01 1.608259e+02
      vertex   -2.053917e+02 6.822112e+01 1.614649e+02
      vertex   -2.056471e+02 6.822116e+01 1.613191e+02
    endloop
  endfacet
  facet normal -1.437957e-04 -1.000000e+00 -3.469478e-13
    outer loop
      vertex   -2.052421e+02 6.822110e+01 1.607482e+02
      vertex   -2.056471e+02 6.822116e+01 1.613191e+02
      vertex   -2.053605e+02 6.822111e+01 1.606453e+02
    endloop
  endfacet
  facet normal -1.437957e-04 -1.000000e+00 -2.799068e-13
    outer loop
      vertex   -2.052421e+02 6.822110e+01 1.607482e+02
      vertex   -2.051059e+02 6.822108e+01 1.608259e+02
      vertex   -2.056471e+02 6.822116e+01 1.613191e+02
    endloop
  endfacet
  facet normal -1.437957e-04 -1.000000e+00 -2.227789e-13
    outer loop
      vertex   -2.055790e+02 6.822115e+01 1.600733e+02
      vertex   -2.055680e+02 6.822114e+01 1.602298e+02
      vertex   -2.062581e+02 6.822124e+01 1.603472e+02
    endloop
  endfacet
  facet normal -1.437957e-04 -1.000000e+00 -3.365933e-13
    outer loop
      vertex   -2.062581e+02 6.822124e+01 1.603472e+02
      vertex   -2.055680e+02 6.822114e+01 1.602298e+02
      vertex   -2.061806e+02 6.822123e+01 1.606308e+02
    endloop
  endfacet
  facet normal -1.437957e-04 -1.000000e+00 -3.525179e-13
    outer loop
      vertex   -2.061806e+02 6.822123e+01 1.606308e+02
      vertex   -2.055680e+02 6.822114e+01 1.602298e+02
      vertex   -2.055267e+02 6.822114e+01 1.603811e+02
    endloop
  endfacet
  facet normal -1.437957e-04 -1.000000e+00 -2.446532e-13
    outer loop
      vertex   -2.060492e+02 6.822121e+01 1.608939e+02
      vertex   -2.055267e+02 6.822114e+01 1.603811e+02
      vertex   -2.054566e+02 6.822113e+01 1.605214e+02
    endloop
  endfacet
  facet normal -1.437957e-04 -1.000000e+00 -2.887178e-13
    outer loop
      vertex   -2.058691e+02 6.822119e+01 1.611263e+02
      vertex   -2.054566e+02 6.822113e+01 1.605214e+02
      vertex   -2.053605e+02 6.822111e+01 1.606453e+02
    endloop
  endfacet
  facet normal -1.437957e-04 -1.000000e+00 -3.146431e-13
    outer loop
      vertex   -2.056471e+02 6.822116e+01 1.613191e+02
      vertex   -2.058691e+02 6.822119e+01 1.611263e+02
      vertex   -2.053605e+02 6.822111e+01 1.606453e+02
    endloop
  endfacet
  facet normal -1.437957e-04 -1.000000e+00 -3.088270e-13
    outer loop
      vertex   -2.051059e+02 6.822108e+01 1.608259e+02
      vertex   -2.049572e+02 6.822106e+01 1.608756e+02
      vertex   -2.053917e+02 6.822112e+01 1.614649e+02
    endloop
  endfacet
  facet normal -1.437957e-04 -1.000000e+00 -3.278266e-13
    outer loop
      vertex   -2.049572e+02 6.822106e+01 1.608756e+02
      vertex   -2.048016e+02 6.822103e+01 1.608953e+02
      vertex   -2.051128e+02 6.822108e+01 1.615581e+02
    endloop
  endfacet
  facet normal -1.437957e-04 -1.000000e+00 -2.875483e-13
    outer loop
      vertex   -2.048016e+02 6.822103e+01 1.608953e+02
      vertex   -2.046452e+02 6.822101e+01 1.608843e+02
      vertex   -2.048211e+02 6.822104e+01 1.615950e+02
    endloop
  endfacet
  facet normal -1.437957e-04 -1.000000e+00 -2.940433e-13
    outer loop
      vertex   -2.046452e+02 6.822101e+01 1.608843e+02
      vertex   -2.044939e+02 6.822099e+01 1.608430e+02
      vertex   -2.045278e+02 6.822099e+01 1.615744e+02
    endloop
  endfacet
  facet normal -1.437957e-04 -1.000000e+00 -3.282695e-13
    outer loop
      vertex   -2.044939e+02 6.822099e+01 1.608430e+02
      vertex   -2.043536e+02 6.822097e+01 1.607729e+02
      vertex   -2.042441e+02 6.822095e+01 1.614969e+02
    endloop
  endfacet
  facet normal -1.437957e-04 -1.000000e+00 -2.554388e-13
    outer loop
      vertex   -2.041268e+02 6.822094e+01 1.605584e+02
      vertex   -2.040490e+02 6.822093e+01 1.604222e+02
      vertex   -2.034100e+02 6.822083e+01 1.607080e+02
    endloop
  endfacet
  facet normal -1.437957e-04 -1.000000e+00 -3.180818e-13
    outer loop
      vertex   -2.040490e+02 6.822093e+01 1.604222e+02
      vertex   -2.039993e+02 6.822092e+01 1.602735e+02
      vertex   -2.033169e+02 6.822082e+01 1.604291e+02
    endloop
  endfacet
  facet normal -1.437957e-04 -1.000000e+00 -3.185107e-13
    outer loop
      vertex   -2.039993e+02 6.822092e+01 1.602735e+02
      vertex   -2.039796e+02 6.822092e+01 1.601179e+02
      vertex   -2.032799e+02 6.822081e+01 1.601374e+02
    endloop
  endfacet
  facet normal -1.437957e-04 -1.000000e+00 -2.227789e-13
    outer loop
      vertex   -2.039796e+02 6.822092e+01 1.601179e+02
      vertex   -2.039906e+02 6.822092e+01 1.599615e+02
      vertex   -2.033006e+02 6.822082e+01 1.598441e+02
    endloop
  endfacet
  facet normal -1.437957e-04 -1.000000e+00 -3.525179e-13
    outer loop
      vertex   -2.039906e+02 6.822092e+01 1.599615e+02
      vertex   -2.040320e+02 6.822092e+01 1.598102e+02
      vertex   -2.033780e+02 6.822083e+01 1.595604e+02
    endloop
  endfacet
  facet normal -1.437957e-04 -1.000000e+00 -2.446532e-13
    outer loop
      vertex   -2.040320e+02 6.822092e+01 1.598102e+02
      vertex   -2.041020e+02 6.822093e+01 1.596699e+02
      vertex   -2.035094e+02 6.822085e+01 1.592973e+02
    endloop
  endfacet
  facet normal -1.437957e-04 -1.000000e+00 -2.887178e-13
    outer loop
      vertex   -2.041020e+02 6.822093e+01 1.596699e+02
      vertex   -2.041981e+02 6.822095e+01 1.595459e+02
      vertex   -2.036895e+02 6.822087e+01 1.590649e+02
    endloop
  endfacet
  facet normal -1.437957e-04 -1.000000e+00 -3.278266e-13
    outer loop
      vertex   -2.046014e+02 6.822100e+01 1.593156e+02
      vertex   -2.047570e+02 6.822103e+01 1.592959e+02
      vertex   -2.044458e+02 6.822098e+01 1.586332e+02
    endloop
  endfacet
  facet normal -1.437957e-04 -1.000000e+00 -2.875483e-13
    outer loop
      vertex   -2.047570e+02 6.822103e+01 1.592959e+02
      vertex   -2.049135e+02 6.822105e+01 1.593069e+02
      vertex   -2.047375e+02 6.822102e+01 1.585962e+02
    endloop
  endfacet
  facet normal -1.437957e-04 -1.000000e+00 -2.940433e-13
    outer loop
      vertex   -2.049135e+02 6.822105e+01 1.593069e+02
      vertex   -2.050648e+02 6.822107e+01 1.593483e+02
      vertex   -2.050309e+02 6.822107e+01 1.586169e+02
    endloop
  endfacet
  facet normal -1.437957e-04 -1.000000e+00 -3.282695e-13
    outer loop
      vertex   -2.050648e+02 6.822107e+01 1.593483e+02
      vertex   -2.052051e+02 6.822109e+01 1.594183e+02
      vertex   -2.053145e+02 6.822111e+01 1.586943e+02
    endloop
  endfacet
  facet normal -1.437957e-04 -1.000000e+00 -2.928912e-13
    outer loop
      vertex   -2.052051e+02 6.822109e+01 1.594183e+02
      vertex   -2.053290e+02 6.822111e+01 1.595144e+02
      vertex   -2.055776e+02 6.822115e+01 1.588257e+02
    endloop
  endfacet
  facet normal -1.437957e-04 -1.000000e+00 -2.854220e-13
    outer loop
      vertex   -2.061806e+02 6.822123e+01 1.606308e+02
      vertex   -2.055267e+02 6.822114e+01 1.603811e+02
      vertex   -2.060492e+02 6.822121e+01 1.608939e+02
    endloop
  endfacet
  facet normal -1.437957e-04 -1.000000e+00 -2.958873e-13
    outer loop
      vertex   -2.060492e+02 6.822121e+01 1.608939e+02
      vertex   -2.054566e+02 6.822113e+01 1.605214e+02
      vertex   -2.058691e+02 6.822119e+01 1.611263e+02
    endloop
  endfacet
  facet normal -6.556782e-01 9.428372e-05 7.550405e-01
    outer loop
      vertex   -2.056433e+02 9.422116e+01 1.613191e+02
      vertex   -2.058654e+02 9.422119e+01 1.611263e+02
      vertex   -2.056448e+02 8.436275e+01 1.613191e+02
    endloop
  endfacet
  facet normal -6.556782e-01 9.428372e-05 7.550405e-01
    outer loop
      vertex   -2.056448e+02 8.436275e+01 1.613191e+02
      vertex   -2.058654e+02 9.422119e+01 1.611263e+02
      vertex   -2.058691e+02 6.822119e+01 1.611263e+02
    endloop
  endfacet
  facet normal -6.556782e-01 9.428372e-05 7.550405e-01
    outer loop
      vertex   -2.056471e+02 6.822116e+01 1.613191e+02
      vertex   -2.056448e+02 8.436275e+01 1.613191e+02
      vertex   -2.058691e+02 6.822119e+01 1.611263e+02
    endloop
  endfacet
  facet normal -7.903806e-01 1.136534e-04 6.126161e-01
    outer loop
      vertex   -2.058654e+02 9.422119e+01 1.611263e+02
      vertex   -2.060455e+02 9.422121e+01 1.608939e+02
      vertex   -2.058691e+02 6.822119e+01 1.611263e+02
    endloop
  endfacet
  facet normal -7.903806e-01 1.136534e-04 6.126161e-01
    outer loop
      vertex   -2.058691e+02 6.822119e+01 1.611263e+02
      vertex   -2.060455e+02 9.422121e+01 1.608939e+02
      vertex   -2.060492e+02 6.822121e+01 1.608939e+02
    endloop
  endfacet
  facet normal -8.947091e-01 1.286554e-04 4.466493e-01
    outer loop
      vertex   -2.060492e+02 6.822121e+01 1.608939e+02
      vertex   -2.060455e+02 9.422121e+01 1.608939e+02
      vertex   -2.061768e+02 9.422123e+01 1.606308e+02
    endloop
  endfacet
  facet normal -9.646545e-01 1.387132e-04 2.635179e-01
    outer loop
      vertex   -2.061806e+02 6.822123e+01 1.606308e+02
      vertex   -2.061768e+02 9.422123e+01 1.606308e+02
      vertex   -2.062543e+02 9.422124e+01 1.603472e+02
    endloop
  endfacet
  facet normal -9.975287e-01 1.434404e-04 7.025976e-02
    outer loop
      vertex   -2.062581e+02 6.822124e+01 1.603472e+02
      vertex   -2.062543e+02 9.422124e+01 1.603472e+02
      vertex   -2.062750e+02 9.422125e+01 1.600538e+02
    endloop
  endfacet
  facet normal -9.920685e-01 1.426552e-04 -1.256985e-01
    outer loop
      vertex   -2.062787e+02 6.822125e+01 1.600538e+02
      vertex   -2.062750e+02 9.422125e+01 1.600538e+02
      vertex   -2.062418e+02 6.822124e+01 1.597621e+02
    endloop
  endfacet
  facet normal -9.975287e-01 1.434404e-04 7.025976e-02
    outer loop
      vertex   -2.062787e+02 6.822125e+01 1.600538e+02
      vertex   -2.062581e+02 6.822124e+01 1.603472e+02
      vertex   -2.062750e+02 9.422125e+01 1.600538e+02
    endloop
  endfacet
  facet normal -9.920685e-01 1.426552e-04 -1.256985e-01
    outer loop
      vertex   -2.062750e+02 9.422125e+01 1.600538e+02
      vertex   -2.062380e+02 9.422124e+01 1.597621e+02
      vertex   -2.062418e+02 6.822124e+01 1.597621e+02
    endloop
  endfacet
  facet normal -9.484836e-01 1.363879e-04 -3.168262e-01
    outer loop
      vertex   -2.062418e+02 6.822124e+01 1.597621e+02
      vertex   -2.062380e+02 9.422124e+01 1.597621e+02
      vertex   -2.061449e+02 9.422123e+01 1.594832e+02
    endloop
  endfacet
  facet normal -8.684491e-01 1.248793e-04 -4.957784e-01
    outer loop
      vertex   -2.061486e+02 6.822123e+01 1.594832e+02
      vertex   -2.061449e+02 9.422123e+01 1.594832e+02
      vertex   -2.059991e+02 9.422121e+01 1.592278e+02
    endloop
  endfacet
  facet normal -7.550405e-01 1.085716e-04 -6.556782e-01
    outer loop
      vertex   -2.060028e+02 6.822121e+01 1.592278e+02
      vertex   -2.059991e+02 9.422121e+01 1.592278e+02
      vertex   -2.058063e+02 9.422118e+01 1.590058e+02
    endloop
  endfacet
  facet normal -6.126161e-01 8.809158e-05 -7.903806e-01
    outer loop
      vertex   -2.058100e+02 6.822118e+01 1.590058e+02
      vertex   -2.058063e+02 9.422118e+01 1.590058e+02
      vertex   -2.055739e+02 9.422115e+01 1.588257e+02
    endloop
  endfacet
  facet normal -4.466493e-01 6.422626e-05 -8.947091e-01
    outer loop
      vertex   -2.055776e+02 6.822115e+01 1.588257e+02
      vertex   -2.055739e+02 9.422115e+01 1.588257e+02
      vertex   -2.053145e+02 6.822111e+01 1.586943e+02
    endloop
  endfacet
  facet normal -6.126161e-01 8.809158e-05 -7.903806e-01
    outer loop
      vertex   -2.055776e+02 6.822115e+01 1.588257e+02
      vertex   -2.058100e+02 6.822118e+01 1.590058e+02
      vertex   -2.055739e+02 9.422115e+01 1.588257e+02
    endloop
  endfacet
  facet normal -4.466493e-01 6.422626e-05 -8.947091e-01
    outer loop
      vertex   -2.055739e+02 9.422115e+01 1.588257e+02
      vertex   -2.053108e+02 9.422111e+01 1.586943e+02
      vertex   -2.053145e+02 6.822111e+01 1.586943e+02
    endloop
  endfacet
  facet normal -2.635179e-01 3.789276e-05 -9.646545e-01
    outer loop
      vertex   -2.053145e+02 6.822111e+01 1.586943e+02
      vertex   -2.053108e+02 9.422111e+01 1.586943e+02
      vertex   -2.050271e+02 9.422107e+01 1.586169e+02
    endloop
  endfacet
  facet normal -7.025976e-02 1.010305e-05 -9.975287e-01
    outer loop
      vertex   -2.050309e+02 6.822107e+01 1.586169e+02
      vertex   -2.050271e+02 9.422107e+01 1.586169e+02
      vertex   -2.047338e+02 9.422102e+01 1.585962e+02
    endloop
  endfacet
  facet normal 1.256985e-01 -1.807490e-05 -9.920685e-01
    outer loop
      vertex   -2.047375e+02 6.822102e+01 1.585962e+02
      vertex   -2.047338e+02 9.422102e+01 1.585962e+02
      vertex   -2.044421e+02 9.422098e+01 1.586332e+02
    endloop
  endfacet
  facet normal 3.168262e-01 -4.555825e-05 -9.484836e-01
    outer loop
      vertex   -2.044458e+02 6.822098e+01 1.586332e+02
      vertex   -2.044421e+02 9.422098e+01 1.586332e+02
      vertex   -2.041632e+02 9.422094e+01 1.587263e+02
    endloop
  endfacet
  facet normal 4.957784e-01 -7.129082e-05 -8.684491e-01
    outer loop
      vertex   -2.041669e+02 6.822094e+01 1.587263e+02
      vertex   -2.041632e+02 9.422094e+01 1.587263e+02
      vertex   -2.039115e+02 6.822091e+01 1.588721e+02
    endloop
  endfacet
  facet normal 3.168262e-01 -4.555825e-05 -9.484836e-01
    outer loop
      vertex   -2.041669e+02 6.822094e+01 1.587263e+02
      vertex   -2.044458e+02 6.822098e+01 1.586332e+02
      vertex   -2.041632e+02 9.422094e+01 1.587263e+02
    endloop
  endfacet
  facet normal 4.957784e-01 -7.129082e-05 -8.684491e-01
    outer loop
      vertex   -2.041632e+02 9.422094e+01 1.587263e+02
      vertex   -2.039078e+02 9.422091e+01 1.588721e+02
      vertex   -2.039115e+02 6.822091e+01 1.588721e+02
    endloop
  endfacet
  facet normal 1.256985e-01 -1.807490e-05 -9.920685e-01
    outer loop
      vertex   -2.044458e+02 6.822098e+01 1.586332e+02
      vertex   -2.047375e+02 6.822102e+01 1.585962e+02
      vertex   -2.044421e+02 9.422098e+01 1.586332e+02
    endloop
  endfacet
  facet normal -7.025976e-02 1.010305e-05 -9.975287e-01
    outer loop
      vertex   -2.047375e+02 6.822102e+01 1.585962e+02
      vertex   -2.050309e+02 6.822107e+01 1.586169e+02
      vertex   -2.047338e+02 9.422102e+01 1.585962e+02
    endloop
  endfacet
  facet normal -2.635179e-01 3.789276e-05 -9.646545e-01
    outer loop
      vertex   -2.050309e+02 6.822107e+01 1.586169e+02
      vertex   -2.053145e+02 6.822111e+01 1.586943e+02
      vertex   -2.050271e+02 9.422107e+01 1.586169e+02
    endloop
  endfacet
  facet normal -7.550405e-01 1.085716e-04 -6.556782e-01
    outer loop
      vertex   -2.058100e+02 6.822118e+01 1.590058e+02
      vertex   -2.060028e+02 6.822121e+01 1.592278e+02
      vertex   -2.058063e+02 9.422118e+01 1.590058e+02
    endloop
  endfacet
  facet normal -8.684491e-01 1.248793e-04 -4.957784e-01
    outer loop
      vertex   -2.060028e+02 6.822121e+01 1.592278e+02
      vertex   -2.061486e+02 6.822123e+01 1.594832e+02
      vertex   -2.059991e+02 9.422121e+01 1.592278e+02
    endloop
  endfacet
  facet normal -9.484836e-01 1.363879e-04 -3.168262e-01
    outer loop
      vertex   -2.061486e+02 6.822123e+01 1.594832e+02
      vertex   -2.062418e+02 6.822124e+01 1.597621e+02
      vertex   -2.061449e+02 9.422123e+01 1.594832e+02
    endloop
  endfacet
  facet normal -9.646545e-01 1.387132e-04 2.635179e-01
    outer loop
      vertex   -2.062581e+02 6.822124e+01 1.603472e+02
      vertex   -2.061806e+02 6.822123e+01 1.606308e+02
      vertex   -2.062543e+02 9.422124e+01 1.603472e+02
    endloop
  endfacet
  facet normal -8.947091e-01 1.286554e-04 4.466493e-01
    outer loop
      vertex   -2.061806e+02 6.822123e+01 1.606308e+02
      vertex   -2.060492e+02 6.822121e+01 1.608939e+02
      vertex   -2.061768e+02 9.422123e+01 1.606308e+02
    endloop
  endfacet
  facet normal 1.437957e-04 1.000000e+00 3.012938e-13
    outer loop
      vertex   -2.036858e+02 9.422087e+01 1.590649e+02
      vertex   -2.039078e+02 9.422091e+01 1.588721e+02
      vertex   -2.043128e+02 9.422096e+01 1.594431e+02
    endloop
  endfacet
  facet normal 1.437957e-04 1.000000e+00 2.904229e-13
    outer loop
      vertex   -2.041944e+02 9.422095e+01 1.595459e+02
      vertex   -2.036858e+02 9.422087e+01 1.590649e+02
      vertex   -2.043128e+02 9.422096e+01 1.594431e+02
    endloop
  endfacet
  facet normal 1.437957e-04 1.000000e+00 2.850602e-13
    outer loop
      vertex   -2.041944e+02 9.422095e+01 1.595459e+02
      vertex   -2.035056e+02 9.422085e+01 1.592973e+02
      vertex   -2.036858e+02 9.422087e+01 1.590649e+02
    endloop
  endfacet
  facet normal 1.437957e-04 1.000000e+00 3.626743e-13
    outer loop
      vertex   -2.041944e+02 9.422095e+01 1.595459e+02
      vertex   -2.040983e+02 9.422093e+01 1.596699e+02
      vertex   -2.035056e+02 9.422085e+01 1.592973e+02
    endloop
  endfacet
  facet normal 1.437957e-04 1.000000e+00 2.908865e-13
    outer loop
      vertex   -2.035056e+02 9.422085e+01 1.592973e+02
      vertex   -2.040983e+02 9.422093e+01 1.596699e+02
      vertex   -2.033743e+02 9.422083e+01 1.595604e+02
    endloop
  endfacet
  facet normal 1.437957e-04 1.000000e+00 2.344072e-13
    outer loop
      vertex   -2.033743e+02 9.422083e+01 1.595604e+02
      vertex   -2.040983e+02 9.422093e+01 1.596699e+02
      vertex   -2.040282e+02 9.422092e+01 1.598102e+02
    endloop
  endfacet
  facet normal 1.437957e-04 1.000000e+00 3.545323e-13
    outer loop
      vertex   -2.032968e+02 9.422082e+01 1.598441e+02
      vertex   -2.040282e+02 9.422092e+01 1.598102e+02
      vertex   -2.039869e+02 9.422092e+01 1.599615e+02
    endloop
  endfacet
  facet normal 1.437957e-04 1.000000e+00 2.209876e-13
    outer loop
      vertex   -2.032762e+02 9.422081e+01 1.601374e+02
      vertex   -2.039869e+02 9.422092e+01 1.599615e+02
      vertex   -2.039759e+02 9.422092e+01 1.601179e+02
    endloop
  endfacet
  facet normal 1.437957e-04 1.000000e+00 3.159455e-13
    outer loop
      vertex   -2.033131e+02 9.422082e+01 1.604291e+02
      vertex   -2.039759e+02 9.422092e+01 1.601179e+02
      vertex   -2.039956e+02 9.422092e+01 1.602735e+02
    endloop
  endfacet
  facet normal 1.437957e-04 1.000000e+00 3.180848e-13
    outer loop
      vertex   -2.034063e+02 9.422083e+01 1.607080e+02
      vertex   -2.039956e+02 9.422092e+01 1.602735e+02
      vertex   -2.040453e+02 9.422093e+01 1.604222e+02
    endloop
  endfacet
  facet normal 1.437957e-04 1.000000e+00 3.309736e-13
    outer loop
      vertex   -2.035521e+02 9.422085e+01 1.609634e+02
      vertex   -2.040453e+02 9.422093e+01 1.604222e+02
      vertex   -2.041230e+02 9.422094e+01 1.605584e+02
    endloop
  endfacet
  facet normal 1.437957e-04 1.000000e+00 2.169876e-13
    outer loop
      vertex   -2.042259e+02 9.422095e+01 1.606768e+02
      vertex   -2.035521e+02 9.422085e+01 1.609634e+02
      vertex   -2.041230e+02 9.422094e+01 1.605584e+02
    endloop
  endfacet
  facet normal 1.437957e-04 1.000000e+00 2.520304e-13
    outer loop
      vertex   -2.042259e+02 9.422095e+01 1.606768e+02
      vertex   -2.037449e+02 9.422088e+01 1.611854e+02
      vertex   -2.035521e+02 9.422085e+01 1.609634e+02
    endloop
  endfacet
  facet normal 1.437957e-04 1.000000e+00 2.687033e-13
    outer loop
      vertex   -2.042259e+02 9.422095e+01 1.606768e+02
      vertex   -2.043498e+02 9.422097e+01 1.607729e+02
      vertex   -2.037449e+02 9.422088e+01 1.611854e+02
    endloop
  endfacet
  facet normal 1.437957e-04 1.000000e+00 3.316622e-13
    outer loop
      vertex   -2.037449e+02 9.422088e+01 1.611854e+02
      vertex   -2.043498e+02 9.422097e+01 1.607729e+02
      vertex   -2.039773e+02 9.422092e+01 1.613656e+02
    endloop
  endfacet
  facet normal 1.437957e-04 1.000000e+00 3.602169e-13
    outer loop
      vertex   -2.039773e+02 9.422092e+01 1.613656e+02
      vertex   -2.043498e+02 9.422097e+01 1.607729e+02
      vertex   -2.044901e+02 9.422099e+01 1.608430e+02
    endloop
  endfacet
  facet normal 1.437957e-04 1.000000e+00 2.645080e-13
    outer loop
      vertex   -2.042404e+02 9.422095e+01 1.614969e+02
      vertex   -2.044901e+02 9.422099e+01 1.608430e+02
      vertex   -2.046414e+02 9.422101e+01 1.608843e+02
    endloop
  endfacet
  facet normal 1.437957e-04 1.000000e+00 3.155458e-13
    outer loop
      vertex   -2.045240e+02 9.422099e+01 1.615744e+02
      vertex   -2.046414e+02 9.422101e+01 1.608843e+02
      vertex   -2.047979e+02 9.422103e+01 1.608953e+02
    endloop
  endfacet
  facet normal 1.437957e-04 1.000000e+00 2.898657e-13
    outer loop
      vertex   -2.048174e+02 9.422104e+01 1.615950e+02
      vertex   -2.047979e+02 9.422103e+01 1.608953e+02
      vertex   -2.049534e+02 9.422106e+01 1.608756e+02
    endloop
  endfacet
  facet normal 1.437957e-04 1.000000e+00 2.934333e-13
    outer loop
      vertex   -2.051091e+02 9.422108e+01 1.615581e+02
      vertex   -2.049534e+02 9.422106e+01 1.608756e+02
      vertex   -2.051022e+02 9.422108e+01 1.608259e+02
    endloop
  endfacet
  facet normal 1.437957e-04 1.000000e+00 3.237141e-13
    outer loop
      vertex   -2.053880e+02 9.422112e+01 1.614649e+02
      vertex   -2.051022e+02 9.422108e+01 1.608259e+02
      vertex   -2.052384e+02 9.422110e+01 1.607482e+02
    endloop
  endfacet
  facet normal 1.437957e-04 1.000000e+00 3.012938e-13
    outer loop
      vertex   -2.056433e+02 9.422116e+01 1.613191e+02
      vertex   -2.052384e+02 9.422110e+01 1.607482e+02
      vertex   -2.058654e+02 9.422119e+01 1.611263e+02
    endloop
  endfacet
  facet normal 1.437957e-04 1.000000e+00 3.185193e-13
    outer loop
      vertex   -2.056433e+02 9.422116e+01 1.613191e+02
      vertex   -2.053880e+02 9.422112e+01 1.614649e+02
      vertex   -2.052384e+02 9.422110e+01 1.607482e+02
    endloop
  endfacet
  facet normal 1.437957e-04 1.000000e+00 2.895808e-13
    outer loop
      vertex   -2.054281e+02 9.422112e+01 1.596328e+02
      vertex   -2.053253e+02 9.422111e+01 1.595144e+02
      vertex   -2.058063e+02 9.422118e+01 1.590058e+02
    endloop
  endfacet
  facet normal 1.437957e-04 1.000000e+00 2.600580e-13
    outer loop
      vertex   -2.059991e+02 9.422121e+01 1.592278e+02
      vertex   -2.054281e+02 9.422112e+01 1.596328e+02
      vertex   -2.058063e+02 9.422118e+01 1.590058e+02
    endloop
  endfacet
  facet normal 1.437957e-04 1.000000e+00 2.668177e-13
    outer loop
      vertex   -2.059991e+02 9.422121e+01 1.592278e+02
      vertex   -2.055059e+02 9.422114e+01 1.597690e+02
      vertex   -2.054281e+02 9.422112e+01 1.596328e+02
    endloop
  endfacet
  facet normal 1.437957e-04 1.000000e+00 3.053149e-13
    outer loop
      vertex   -2.059991e+02 9.422121e+01 1.592278e+02
      vertex   -2.061449e+02 9.422123e+01 1.594832e+02
      vertex   -2.055059e+02 9.422114e+01 1.597690e+02
    endloop
  endfacet
  facet normal 1.437957e-04 1.000000e+00 3.180847e-13
    outer loop
      vertex   -2.055059e+02 9.422114e+01 1.597690e+02
      vertex   -2.061449e+02 9.422123e+01 1.594832e+02
      vertex   -2.055556e+02 9.422114e+01 1.599178e+02
    endloop
  endfacet
  facet normal 1.437957e-04 1.000000e+00 3.181039e-13
    outer loop
      vertex   -2.055556e+02 9.422114e+01 1.599178e+02
      vertex   -2.061449e+02 9.422123e+01 1.594832e+02
      vertex   -2.062380e+02 9.422124e+01 1.597621e+02
    endloop
  endfacet
  facet normal 1.437957e-04 1.000000e+00 2.699487e-13
    outer loop
      vertex   -2.055753e+02 9.422115e+01 1.600733e+02
      vertex   -2.062380e+02 9.422124e+01 1.597621e+02
      vertex   -2.062750e+02 9.422125e+01 1.600538e+02
    endloop
  endfacet
  facet normal 1.437957e-04 1.000000e+00 2.826127e-13
    outer loop
      vertex   -2.055642e+02 9.422114e+01 1.602298e+02
      vertex   -2.062750e+02 9.422125e+01 1.600538e+02
      vertex   -2.062543e+02 9.422124e+01 1.603472e+02
    endloop
  endfacet
  facet normal 1.437957e-04 1.000000e+00 3.355190e-13
    outer loop
      vertex   -2.055229e+02 9.422114e+01 1.603811e+02
      vertex   -2.062543e+02 9.422124e+01 1.603472e+02
      vertex   -2.061768e+02 9.422123e+01 1.606308e+02
    endloop
  endfacet
  facet normal 1.437957e-04 1.000000e+00 2.908865e-13
    outer loop
      vertex   -2.054529e+02 9.422113e+01 1.605214e+02
      vertex   -2.061768e+02 9.422123e+01 1.606308e+02
      vertex   -2.060455e+02 9.422121e+01 1.608939e+02
    endloop
  endfacet
  facet normal 1.437957e-04 1.000000e+00 2.850602e-13
    outer loop
      vertex   -2.053568e+02 9.422111e+01 1.606453e+02
      vertex   -2.060455e+02 9.422121e+01 1.608939e+02
      vertex   -2.058654e+02 9.422119e+01 1.611263e+02
    endloop
  endfacet
  facet normal 1.437957e-04 1.000000e+00 2.904229e-13
    outer loop
      vertex   -2.052384e+02 9.422110e+01 1.607482e+02
      vertex   -2.053568e+02 9.422111e+01 1.606453e+02
      vertex   -2.058654e+02 9.422119e+01 1.611263e+02
    endloop
  endfacet
  facet normal 1.437957e-04 1.000000e+00 3.316622e-13
    outer loop
      vertex   -2.058063e+02 9.422118e+01 1.590058e+02
      vertex   -2.052013e+02 9.422109e+01 1.594183e+02
      vertex   -2.055739e+02 9.422115e+01 1.588257e+02
    endloop
  endfacet
  facet normal 1.437957e-04 1.000000e+00 2.687033e-13
    outer loop
      vertex   -2.058063e+02 9.422118e+01 1.590058e+02
      vertex   -2.053253e+02 9.422111e+01 1.595144e+02
      vertex   -2.052013e+02 9.422109e+01 1.594183e+02
    endloop
  endfacet
  facet normal 1.437957e-04 1.000000e+00 2.979406e-13
    outer loop
      vertex   -2.055739e+02 9.422115e+01 1.588257e+02
      vertex   -2.050610e+02 9.422107e+01 1.593483e+02
      vertex   -2.053108e+02 9.422111e+01 1.586943e+02
    endloop
  endfacet
  facet normal 1.437957e-04 1.000000e+00 3.602169e-13
    outer loop
      vertex   -2.055739e+02 9.422115e+01 1.588257e+02
      vertex   -2.052013e+02 9.422109e+01 1.594183e+02
      vertex   -2.050610e+02 9.422107e+01 1.593483e+02
    endloop
  endfacet
  facet normal 1.437957e-04 1.000000e+00 3.062660e-13
    outer loop
      vertex   -2.053108e+02 9.422111e+01 1.586943e+02
      vertex   -2.049097e+02 9.422105e+01 1.593069e+02
      vertex   -2.050271e+02 9.422107e+01 1.586169e+02
    endloop
  endfacet
  facet normal 1.437957e-04 1.000000e+00 2.645080e-13
    outer loop
      vertex   -2.053108e+02 9.422111e+01 1.586943e+02
      vertex   -2.050610e+02 9.422107e+01 1.593483e+02
      vertex   -2.049097e+02 9.422105e+01 1.593069e+02
    endloop
  endfacet
  facet normal 1.437957e-04 1.000000e+00 2.944485e-13
    outer loop
      vertex   -2.053880e+02 9.422112e+01 1.614649e+02
      vertex   -2.051091e+02 9.422108e+01 1.615581e+02
      vertex   -2.051022e+02 9.422108e+01 1.608259e+02
    endloop
  endfacet
  facet normal 1.437957e-04 1.000000e+00 3.075743e-13
    outer loop
      vertex   -2.051091e+02 9.422108e+01 1.615581e+02
      vertex   -2.048174e+02 9.422104e+01 1.615950e+02
      vertex   -2.049534e+02 9.422106e+01 1.608756e+02
    endloop
  endfacet
  facet normal 1.437957e-04 1.000000e+00 2.894093e-13
    outer loop
      vertex   -2.048174e+02 9.422104e+01 1.615950e+02
      vertex   -2.045240e+02 9.422099e+01 1.615744e+02
      vertex   -2.047979e+02 9.422103e+01 1.608953e+02
    endloop
  endfacet
  facet normal 1.437957e-04 1.000000e+00 3.062660e-13
    outer loop
      vertex   -2.045240e+02 9.422099e+01 1.615744e+02
      vertex   -2.042404e+02 9.422095e+01 1.614969e+02
      vertex   -2.046414e+02 9.422101e+01 1.608843e+02
    endloop
  endfacet
  facet normal 1.437957e-04 1.000000e+00 2.979406e-13
    outer loop
      vertex   -2.042404e+02 9.422095e+01 1.614969e+02
      vertex   -2.039773e+02 9.422092e+01 1.613656e+02
      vertex   -2.044901e+02 9.422099e+01 1.608430e+02
    endloop
  endfacet
  facet normal 1.437957e-04 1.000000e+00 3.053149e-13
    outer loop
      vertex   -2.035521e+02 9.422085e+01 1.609634e+02
      vertex   -2.034063e+02 9.422083e+01 1.607080e+02
      vertex   -2.040453e+02 9.422093e+01 1.604222e+02
    endloop
  endfacet
  facet normal 1.437957e-04 1.000000e+00 3.181039e-13
    outer loop
      vertex   -2.034063e+02 9.422083e+01 1.607080e+02
      vertex   -2.033131e+02 9.422082e+01 1.604291e+02
      vertex   -2.039956e+02 9.422092e+01 1.602735e+02
    endloop
  endfacet
  facet normal 1.437957e-04 1.000000e+00 2.699487e-13
    outer loop
      vertex   -2.033131e+02 9.422082e+01 1.604291e+02
      vertex   -2.032762e+02 9.422081e+01 1.601374e+02
      vertex   -2.039759e+02 9.422092e+01 1.601179e+02
    endloop
  endfacet
  facet normal 1.437957e-04 1.000000e+00 2.826127e-13
    outer loop
      vertex   -2.032762e+02 9.422081e+01 1.601374e+02
      vertex   -2.032968e+02 9.422082e+01 1.598441e+02
      vertex   -2.039869e+02 9.422092e+01 1.599615e+02
    endloop
  endfacet
  facet normal 1.437957e-04 1.000000e+00 3.355190e-13
    outer loop
      vertex   -2.032968e+02 9.422082e+01 1.598441e+02
      vertex   -2.033743e+02 9.422083e+01 1.595604e+02
      vertex   -2.040282e+02 9.422092e+01 1.598102e+02
    endloop
  endfacet
  facet normal 1.437957e-04 1.000000e+00 3.155458e-13
    outer loop
      vertex   -2.049097e+02 9.422105e+01 1.593069e+02
      vertex   -2.047533e+02 9.422103e+01 1.592959e+02
      vertex   -2.050271e+02 9.422107e+01 1.586169e+02
    endloop
  endfacet
  facet normal 1.437957e-04 1.000000e+00 2.894093e-13
    outer loop
      vertex   -2.050271e+02 9.422107e+01 1.586169e+02
      vertex   -2.047533e+02 9.422103e+01 1.592959e+02
      vertex   -2.047338e+02 9.422102e+01 1.585962e+02
    endloop
  endfacet
  facet normal 1.437957e-04 1.000000e+00 2.898657e-13
    outer loop
      vertex   -2.047338e+02 9.422102e+01 1.585962e+02
      vertex   -2.047533e+02 9.422103e+01 1.592959e+02
      vertex   -2.045977e+02 9.422100e+01 1.593156e+02
    endloop
  endfacet
  facet normal 1.437957e-04 1.000000e+00 2.934333e-13
    outer loop
      vertex   -2.044421e+02 9.422098e+01 1.586332e+02
      vertex   -2.045977e+02 9.422100e+01 1.593156e+02
      vertex   -2.044490e+02 9.422098e+01 1.593653e+02
    endloop
  endfacet
  facet normal 1.437957e-04 1.000000e+00 3.237141e-13
    outer loop
      vertex   -2.041632e+02 9.422094e+01 1.587263e+02
      vertex   -2.044490e+02 9.422098e+01 1.593653e+02
      vertex   -2.043128e+02 9.422096e+01 1.594431e+02
    endloop
  endfacet
  facet normal 1.437957e-04 1.000000e+00 3.185193e-13
    outer loop
      vertex   -2.039078e+02 9.422091e+01 1.588721e+02
      vertex   -2.041632e+02 9.422094e+01 1.587263e+02
      vertex   -2.043128e+02 9.422096e+01 1.594431e+02
    endloop
  endfacet
  facet normal 1.437957e-04 1.000000e+00 3.626743e-13
    outer loop
      vertex   -2.053568e+02 9.422111e+01 1.606453e+02
      vertex   -2.054529e+02 9.422113e+01 1.605214e+02
      vertex   -2.060455e+02 9.422121e+01 1.608939e+02
    endloop
  endfacet
  facet normal 1.437957e-04 1.000000e+00 2.344072e-13
    outer loop
      vertex   -2.054529e+02 9.422113e+01 1.605214e+02
      vertex   -2.055229e+02 9.422114e+01 1.603811e+02
      vertex   -2.061768e+02 9.422123e+01 1.606308e+02
    endloop
  endfacet
  facet normal 1.437957e-04 1.000000e+00 3.545323e-13
    outer loop
      vertex   -2.055229e+02 9.422114e+01 1.603811e+02
      vertex   -2.055642e+02 9.422114e+01 1.602298e+02
      vertex   -2.062543e+02 9.422124e+01 1.603472e+02
    endloop
  endfacet
  facet normal 1.437957e-04 1.000000e+00 2.209876e-13
    outer loop
      vertex   -2.055642e+02 9.422114e+01 1.602298e+02
      vertex   -2.055753e+02 9.422115e+01 1.600733e+02
      vertex   -2.062750e+02 9.422125e+01 1.600538e+02
    endloop
  endfacet
  facet normal 1.437957e-04 1.000000e+00 3.159455e-13
    outer loop
      vertex   -2.055753e+02 9.422115e+01 1.600733e+02
      vertex   -2.055556e+02 9.422114e+01 1.599178e+02
      vertex   -2.062380e+02 9.422124e+01 1.597621e+02
    endloop
  endfacet
  facet normal 1.437957e-04 1.000000e+00 3.075743e-13
    outer loop
      vertex   -2.047338e+02 9.422102e+01 1.585962e+02
      vertex   -2.045977e+02 9.422100e+01 1.593156e+02
      vertex   -2.044421e+02 9.422098e+01 1.586332e+02
    endloop
  endfacet
  facet normal 1.437957e-04 1.000000e+00 2.944486e-13
    outer loop
      vertex   -2.044490e+02 9.422098e+01 1.593653e+02
      vertex   -2.041632e+02 9.422094e+01 1.587263e+02
      vertex   -2.044421e+02 9.422098e+01 1.586332e+02
    endloop
  endfacet
  facet normal -7.550405e-01 1.085716e-04 -6.556782e-01
    outer loop
      vertex   -2.041262e+02 7.242094e+01 1.605584e+02
      vertex   -2.041268e+02 6.822094e+01 1.605584e+02
      vertex   -2.042290e+02 7.242095e+01 1.606768e+02
    endloop
  endfacet
  facet normal -7.550405e-01 1.085716e-04 -6.556782e-01
    outer loop
      vertex   -2.042290e+02 7.242095e+01 1.606768e+02
      vertex   -2.041268e+02 6.822094e+01 1.605584e+02
      vertex   -2.042296e+02 6.822095e+01 1.606768e+02
    endloop
  endfacet
  facet normal -6.126161e-01 8.809158e-05 -7.903806e-01
    outer loop
      vertex   -2.043536e+02 6.822097e+01 1.607729e+02
      vertex   -2.042290e+02 7.242095e+01 1.606768e+02
      vertex   -2.042296e+02 6.822095e+01 1.606768e+02
    endloop
  endfacet
  facet normal -6.126161e-01 8.809158e-05 -7.903806e-01
    outer loop
      vertex   -2.043536e+02 6.822097e+01 1.607729e+02
      vertex   -2.043530e+02 7.242097e+01 1.607729e+02
      vertex   -2.042290e+02 7.242095e+01 1.606768e+02
    endloop
  endfacet
  facet normal -4.466493e-01 6.422626e-05 -8.947091e-01
    outer loop
      vertex   -2.043536e+02 6.822097e+01 1.607729e+02
      vertex   -2.044939e+02 6.822099e+01 1.608430e+02
      vertex   -2.043530e+02 7.242097e+01 1.607729e+02
    endloop
  endfacet
  facet normal -4.466493e-01 6.422626e-05 -8.947091e-01
    outer loop
      vertex   -2.043530e+02 7.242097e+01 1.607729e+02
      vertex   -2.044939e+02 6.822099e+01 1.608430e+02
      vertex   -2.044933e+02 7.242099e+01 1.608430e+02
    endloop
  endfacet
  facet normal -2.635179e-01 3.789276e-05 -9.646545e-01
    outer loop
      vertex   -2.044933e+02 7.242099e+01 1.608430e+02
      vertex   -2.044939e+02 6.822099e+01 1.608430e+02
      vertex   -2.046452e+02 6.822101e+01 1.608843e+02
    endloop
  endfacet
  facet normal -7.025976e-02 1.010305e-05 -9.975287e-01
    outer loop
      vertex   -2.046446e+02 7.242101e+01 1.608843e+02
      vertex   -2.046452e+02 6.822101e+01 1.608843e+02
      vertex   -2.048016e+02 6.822103e+01 1.608953e+02
    endloop
  endfacet
  facet normal 1.256985e-01 -1.807490e-05 -9.920685e-01
    outer loop
      vertex   -2.048010e+02 7.242103e+01 1.608953e+02
      vertex   -2.048016e+02 6.822103e+01 1.608953e+02
      vertex   -2.049566e+02 7.242106e+01 1.608756e+02
    endloop
  endfacet
  facet normal -7.025976e-02 1.010305e-05 -9.975287e-01
    outer loop
      vertex   -2.048010e+02 7.242103e+01 1.608953e+02
      vertex   -2.046446e+02 7.242101e+01 1.608843e+02
      vertex   -2.048016e+02 6.822103e+01 1.608953e+02
    endloop
  endfacet
  facet normal 1.256985e-01 -1.807490e-05 -9.920685e-01
    outer loop
      vertex   -2.048016e+02 6.822103e+01 1.608953e+02
      vertex   -2.049572e+02 6.822106e+01 1.608756e+02
      vertex   -2.049566e+02 7.242106e+01 1.608756e+02
    endloop
  endfacet
  facet normal 3.168262e-01 -4.555825e-05 -9.484836e-01
    outer loop
      vertex   -2.049566e+02 7.242106e+01 1.608756e+02
      vertex   -2.049572e+02 6.822106e+01 1.608756e+02
      vertex   -2.051059e+02 6.822108e+01 1.608259e+02
    endloop
  endfacet
  facet normal 4.957784e-01 -7.129082e-05 -8.684491e-01
    outer loop
      vertex   -2.051053e+02 7.242108e+01 1.608259e+02
      vertex   -2.051059e+02 6.822108e+01 1.608259e+02
      vertex   -2.052421e+02 6.822110e+01 1.607482e+02
    endloop
  endfacet
  facet normal 6.556782e-01 -9.428372e-05 -7.550405e-01
    outer loop
      vertex   -2.052415e+02 7.242110e+01 1.607482e+02
      vertex   -2.052421e+02 6.822110e+01 1.607482e+02
      vertex   -2.053605e+02 6.822111e+01 1.606453e+02
    endloop
  endfacet
  facet normal 7.903806e-01 -1.136534e-04 -6.126161e-01
    outer loop
      vertex   -2.053599e+02 7.242111e+01 1.606453e+02
      vertex   -2.053605e+02 6.822111e+01 1.606453e+02
      vertex   -2.054566e+02 6.822113e+01 1.605214e+02
    endloop
  endfacet
  facet normal 8.947091e-01 -1.286554e-04 -4.466493e-01
    outer loop
      vertex   -2.054560e+02 7.242113e+01 1.605214e+02
      vertex   -2.054566e+02 6.822113e+01 1.605214e+02
      vertex   -2.055261e+02 7.242114e+01 1.603811e+02
    endloop
  endfacet
  facet normal 7.903806e-01 -1.136534e-04 -6.126161e-01
    outer loop
      vertex   -2.054560e+02 7.242113e+01 1.605214e+02
      vertex   -2.053599e+02 7.242111e+01 1.606453e+02
      vertex   -2.054566e+02 6.822113e+01 1.605214e+02
    endloop
  endfacet
  facet normal 8.947091e-01 -1.286554e-04 -4.466493e-01
    outer loop
      vertex   -2.054566e+02 6.822113e+01 1.605214e+02
      vertex   -2.055267e+02 6.822114e+01 1.603811e+02
      vertex   -2.055261e+02 7.242114e+01 1.603811e+02
    endloop
  endfacet
  facet normal 9.646545e-01 -1.387132e-04 -2.635179e-01
    outer loop
      vertex   -2.055261e+02 7.242114e+01 1.603811e+02
      vertex   -2.055267e+02 6.822114e+01 1.603811e+02
      vertex   -2.055680e+02 6.822114e+01 1.602298e+02
    endloop
  endfacet
  facet normal 9.975287e-01 -1.434404e-04 -7.025976e-02
    outer loop
      vertex   -2.055674e+02 7.242114e+01 1.602298e+02
      vertex   -2.055680e+02 6.822114e+01 1.602298e+02
      vertex   -2.055790e+02 6.822115e+01 1.600733e+02
    endloop
  endfacet
  facet normal 9.920685e-01 -1.426552e-04 1.256985e-01
    outer loop
      vertex   -2.055784e+02 7.242115e+01 1.600733e+02
      vertex   -2.055790e+02 6.822115e+01 1.600733e+02
      vertex   -2.055593e+02 6.822114e+01 1.599178e+02
    endloop
  endfacet
  facet normal 9.484836e-01 -1.363879e-04 3.168262e-01
    outer loop
      vertex   -2.055587e+02 7.242114e+01 1.599178e+02
      vertex   -2.055593e+02 6.822114e+01 1.599178e+02
      vertex   -2.055096e+02 6.822114e+01 1.597690e+02
    endloop
  endfacet
  facet normal 8.684491e-01 -1.248793e-04 4.957784e-01
    outer loop
      vertex   -2.055090e+02 7.242114e+01 1.597690e+02
      vertex   -2.055096e+02 6.822114e+01 1.597690e+02
      vertex   -2.054312e+02 7.242112e+01 1.596328e+02
    endloop
  endfacet
  facet normal 9.484836e-01 -1.363879e-04 3.168262e-01
    outer loop
      vertex   -2.055090e+02 7.242114e+01 1.597690e+02
      vertex   -2.055587e+02 7.242114e+01 1.599178e+02
      vertex   -2.055096e+02 6.822114e+01 1.597690e+02
    endloop
  endfacet
  facet normal 8.684491e-01 -1.248793e-04 4.957784e-01
    outer loop
      vertex   -2.055096e+02 6.822114e+01 1.597690e+02
      vertex   -2.054319e+02 6.822112e+01 1.596328e+02
      vertex   -2.054312e+02 7.242112e+01 1.596328e+02
    endloop
  endfacet
  facet normal 9.920685e-01 -1.426552e-04 1.256985e-01
    outer loop
      vertex   -2.055587e+02 7.242114e+01 1.599178e+02
      vertex   -2.055784e+02 7.242115e+01 1.600733e+02
      vertex   -2.055593e+02 6.822114e+01 1.599178e+02
    endloop
  endfacet
  facet normal 9.975287e-01 -1.434404e-04 -7.025976e-02
    outer loop
      vertex   -2.055784e+02 7.242115e+01 1.600733e+02
      vertex   -2.055674e+02 7.242114e+01 1.602298e+02
      vertex   -2.055790e+02 6.822115e+01 1.600733e+02
    endloop
  endfacet
  facet normal 9.646545e-01 -1.387132e-04 -2.635179e-01
    outer loop
      vertex   -2.055674e+02 7.242114e+01 1.602298e+02
      vertex   -2.055261e+02 7.242114e+01 1.603811e+02
      vertex   -2.055680e+02 6.822114e+01 1.602298e+02
    endloop
  endfacet
  facet normal 6.556782e-01 -9.428372e-05 -7.550405e-01
    outer loop
      vertex   -2.053599e+02 7.242111e+01 1.606453e+02
      vertex   -2.052415e+02 7.242110e+01 1.607482e+02
      vertex   -2.053605e+02 6.822111e+01 1.606453e+02
    endloop
  endfacet
  facet normal 4.957784e-01 -7.129082e-05 -8.684491e-01
    outer loop
      vertex   -2.052415e+02 7.242110e+01 1.607482e+02
      vertex   -2.051053e+02 7.242108e+01 1.608259e+02
      vertex   -2.052421e+02 6.822110e+01 1.607482e+02
    endloop
  endfacet
  facet normal 3.168262e-01 -4.555825e-05 -9.484836e-01
    outer loop
      vertex   -2.051053e+02 7.242108e+01 1.608259e+02
      vertex   -2.049566e+02 7.242106e+01 1.608756e+02
      vertex   -2.051059e+02 6.822108e+01 1.608259e+02
    endloop
  endfacet
  facet normal -2.635179e-01 3.789276e-05 -9.646545e-01
    outer loop
      vertex   -2.046446e+02 7.242101e+01 1.608843e+02
      vertex   -2.044933e+02 7.242099e+01 1.608430e+02
      vertex   -2.046452e+02 6.822101e+01 1.608843e+02
    endloop
  endfacet
  facet normal -8.684491e-01 1.248793e-04 -4.957784e-01
    outer loop
      vertex   -2.041236e+02 9.002094e+01 1.605584e+02
      vertex   -2.041230e+02 9.422094e+01 1.605584e+02
      vertex   -2.040459e+02 9.002093e+01 1.604222e+02
    endloop
  endfacet
  facet normal -8.684491e-01 1.248793e-04 -4.957784e-01
    outer loop
      vertex   -2.040459e+02 9.002093e+01 1.604222e+02
      vertex   -2.041230e+02 9.422094e+01 1.605584e+02
      vertex   -2.040453e+02 9.422093e+01 1.604222e+02
    endloop
  endfacet
  facet normal -9.484836e-01 1.363879e-04 -3.168262e-01
    outer loop
      vertex   -2.039956e+02 9.422092e+01 1.602735e+02
      vertex   -2.040459e+02 9.002093e+01 1.604222e+02
      vertex   -2.040453e+02 9.422093e+01 1.604222e+02
    endloop
  endfacet
  facet normal -9.484836e-01 1.363879e-04 -3.168262e-01
    outer loop
      vertex   -2.039956e+02 9.422092e+01 1.602735e+02
      vertex   -2.039962e+02 9.002092e+01 1.602735e+02
      vertex   -2.040459e+02 9.002093e+01 1.604222e+02
    endloop
  endfacet
  facet normal -9.920685e-01 1.426552e-04 -1.256985e-01
    outer loop
      vertex   -2.039956e+02 9.422092e+01 1.602735e+02
      vertex   -2.039759e+02 9.422092e+01 1.601179e+02
      vertex   -2.039962e+02 9.002092e+01 1.602735e+02
    endloop
  endfacet
  facet normal -9.920685e-01 1.426552e-04 -1.256985e-01
    outer loop
      vertex   -2.039962e+02 9.002092e+01 1.602735e+02
      vertex   -2.039759e+02 9.422092e+01 1.601179e+02
      vertex   -2.039765e+02 9.002092e+01 1.601179e+02
    endloop
  endfacet
  facet normal -9.975287e-01 1.434404e-04 7.025976e-02
    outer loop
      vertex   -2.039765e+02 9.002092e+01 1.601179e+02
      vertex   -2.039759e+02 9.422092e+01 1.601179e+02
      vertex   -2.039869e+02 9.422092e+01 1.599615e+02
    endloop
  endfacet
  facet normal -9.646545e-01 1.387132e-04 2.635179e-01
    outer loop
      vertex   -2.039875e+02 9.002092e+01 1.599615e+02
      vertex   -2.039869e+02 9.422092e+01 1.599615e+02
      vertex   -2.040282e+02 9.422092e+01 1.598102e+02
    endloop
  endfacet
  facet normal -8.947091e-01 1.286554e-04 4.466493e-01
    outer loop
      vertex   -2.040288e+02 9.002092e+01 1.598102e+02
      vertex   -2.040282e+02 9.422092e+01 1.598102e+02
      vertex   -2.040989e+02 9.002093e+01 1.596699e+02
    endloop
  endfacet
  facet normal -9.646545e-01 1.387132e-04 2.635179e-01
    outer loop
      vertex   -2.040288e+02 9.002092e+01 1.598102e+02
      vertex   -2.039875e+02 9.002092e+01 1.599615e+02
      vertex   -2.040282e+02 9.422092e+01 1.598102e+02
    endloop
  endfacet
  facet normal -8.947091e-01 1.286554e-04 4.466493e-01
    outer loop
      vertex   -2.040282e+02 9.422092e+01 1.598102e+02
      vertex   -2.040983e+02 9.422093e+01 1.596699e+02
      vertex   -2.040989e+02 9.002093e+01 1.596699e+02
    endloop
  endfacet
  facet normal -7.903806e-01 1.136534e-04 6.126161e-01
    outer loop
      vertex   -2.040989e+02 9.002093e+01 1.596699e+02
      vertex   -2.040983e+02 9.422093e+01 1.596699e+02
      vertex   -2.041944e+02 9.422095e+01 1.595459e+02
    endloop
  endfacet
  facet normal -6.556782e-01 9.428372e-05 7.550405e-01
    outer loop
      vertex   -2.041950e+02 9.002095e+01 1.595459e+02
      vertex   -2.041944e+02 9.422095e+01 1.595459e+02
      vertex   -2.043128e+02 9.422096e+01 1.594431e+02
    endloop
  endfacet
  facet normal -4.957784e-01 7.129082e-05 8.684491e-01
    outer loop
      vertex   -2.043134e+02 9.002096e+01 1.594431e+02
      vertex   -2.043128e+02 9.422096e+01 1.594431e+02
      vertex   -2.044490e+02 9.422098e+01 1.593653e+02
    endloop
  endfacet
  facet normal -3.168262e-01 4.555825e-05 9.484836e-01
    outer loop
      vertex   -2.044496e+02 9.002098e+01 1.593653e+02
      vertex   -2.044490e+02 9.422098e+01 1.593653e+02
      vertex   -2.045977e+02 9.422100e+01 1.593156e+02
    endloop
  endfacet
  facet normal -1.256985e-01 1.807490e-05 9.920685e-01
    outer loop
      vertex   -2.045983e+02 9.002100e+01 1.593156e+02
      vertex   -2.045977e+02 9.422100e+01 1.593156e+02
      vertex   -2.047539e+02 9.002103e+01 1.592959e+02
    endloop
  endfacet
  facet normal -3.168262e-01 4.555825e-05 9.484836e-01
    outer loop
      vertex   -2.045983e+02 9.002100e+01 1.593156e+02
      vertex   -2.044496e+02 9.002098e+01 1.593653e+02
      vertex   -2.045977e+02 9.422100e+01 1.593156e+02
    endloop
  endfacet
  facet normal -1.256985e-01 1.807490e-05 9.920685e-01
    outer loop
      vertex   -2.045977e+02 9.422100e+01 1.593156e+02
      vertex   -2.047533e+02 9.422103e+01 1.592959e+02
      vertex   -2.047539e+02 9.002103e+01 1.592959e+02
    endloop
  endfacet
  facet normal 7.025976e-02 -1.010305e-05 9.975287e-01
    outer loop
      vertex   -2.047539e+02 9.002103e+01 1.592959e+02
      vertex   -2.047533e+02 9.422103e+01 1.592959e+02
      vertex   -2.049097e+02 9.422105e+01 1.593069e+02
    endloop
  endfacet
  facet normal 2.635179e-01 -3.789276e-05 9.646545e-01
    outer loop
      vertex   -2.049103e+02 9.002105e+01 1.593069e+02
      vertex   -2.049097e+02 9.422105e+01 1.593069e+02
      vertex   -2.050610e+02 9.422107e+01 1.593483e+02
    endloop
  endfacet
  facet normal 4.466493e-01 -6.422626e-05 8.947091e-01
    outer loop
      vertex   -2.050616e+02 9.002107e+01 1.593483e+02
      vertex   -2.050610e+02 9.422107e+01 1.593483e+02
      vertex   -2.052013e+02 9.422109e+01 1.594183e+02
    endloop
  endfacet
  facet normal 6.126161e-01 -8.809158e-05 7.903806e-01
    outer loop
      vertex   -2.052019e+02 9.002109e+01 1.594183e+02
      vertex   -2.052013e+02 9.422109e+01 1.594183e+02
      vertex   -2.053253e+02 9.422111e+01 1.595144e+02
    endloop
  endfacet
  facet normal 7.550405e-01 -1.085716e-04 6.556782e-01
    outer loop
      vertex   -2.053259e+02 9.002111e+01 1.595144e+02
      vertex   -2.053253e+02 9.422111e+01 1.595144e+02
      vertex   -2.054287e+02 9.002112e+01 1.596328e+02
    endloop
  endfacet
  facet normal 6.126161e-01 -8.809158e-05 7.903806e-01
    outer loop
      vertex   -2.053259e+02 9.002111e+01 1.595144e+02
      vertex   -2.052019e+02 9.002109e+01 1.594183e+02
      vertex   -2.053253e+02 9.422111e+01 1.595144e+02
    endloop
  endfacet
  facet normal 7.550405e-01 -1.085716e-04 6.556782e-01
    outer loop
      vertex   -2.053253e+02 9.422111e+01 1.595144e+02
      vertex   -2.054281e+02 9.422112e+01 1.596328e+02
      vertex   -2.054287e+02 9.002112e+01 1.596328e+02
    endloop
  endfacet
  facet normal 4.466493e-01 -6.422626e-05 8.947091e-01
    outer loop
      vertex   -2.052019e+02 9.002109e+01 1.594183e+02
      vertex   -2.050616e+02 9.002107e+01 1.593483e+02
      vertex   -2.052013e+02 9.422109e+01 1.594183e+02
    endloop
  endfacet
  facet normal 2.635179e-01 -3.789276e-05 9.646545e-01
    outer loop
      vertex   -2.050616e+02 9.002107e+01 1.593483e+02
      vertex   -2.049103e+02 9.002105e+01 1.593069e+02
      vertex   -2.050610e+02 9.422107e+01 1.593483e+02
    endloop
  endfacet
  facet normal 7.025976e-02 -1.010305e-05 9.975287e-01
    outer loop
      vertex   -2.049103e+02 9.002105e+01 1.593069e+02
      vertex   -2.047539e+02 9.002103e+01 1.592959e+02
      vertex   -2.049097e+02 9.422105e+01 1.593069e+02
    endloop
  endfacet
  facet normal -4.957784e-01 7.129082e-05 8.684491e-01
    outer loop
      vertex   -2.044496e+02 9.002098e+01 1.593653e+02
      vertex   -2.043134e+02 9.002096e+01 1.594431e+02
      vertex   -2.044490e+02 9.422098e+01 1.593653e+02
    endloop
  endfacet
  facet normal -6.556782e-01 9.428372e-05 7.550405e-01
    outer loop
      vertex   -2.043134e+02 9.002096e+01 1.594431e+02
      vertex   -2.041950e+02 9.002095e+01 1.595459e+02
      vertex   -2.043128e+02 9.422096e+01 1.594431e+02
    endloop
  endfacet
  facet normal -7.903806e-01 1.136534e-04 6.126161e-01
    outer loop
      vertex   -2.041950e+02 9.002095e+01 1.595459e+02
      vertex   -2.040989e+02 9.002093e+01 1.596699e+02
      vertex   -2.041944e+02 9.422095e+01 1.595459e+02
    endloop
  endfacet
  facet normal -9.975287e-01 1.434404e-04 7.025976e-02
    outer loop
      vertex   -2.039875e+02 9.002092e+01 1.599615e+02
      vertex   -2.039765e+02 9.002092e+01 1.601179e+02
      vertex   -2.039869e+02 9.422092e+01 1.599615e+02
    endloop
  endfacet
  facet normal 3.901313e-01 -8.561227e-01 3.388975e-01
    outer loop
      vertex   -2.054312e+02 7.242112e+01 1.596328e+02
      vertex   -2.053284e+02 7.242111e+01 1.595144e+02
      vertex   -2.047786e+02 7.290172e+01 1.600956e+02
    endloop
  endfacet
  facet normal 3.165171e-01 -8.561121e-01 4.085205e-01
    outer loop
      vertex   -2.047786e+02 7.290172e+01 1.600956e+02
      vertex   -2.053284e+02 7.242111e+01 1.595144e+02
      vertex   -2.052045e+02 7.242109e+01 1.594183e+02
    endloop
  endfacet
  facet normal 2.307345e-01 -8.560998e-01 4.624443e-01
    outer loop
      vertex   -2.050642e+02 7.242107e+01 1.593483e+02
      vertex   -2.047786e+02 7.290172e+01 1.600956e+02
      vertex   -2.052045e+02 7.242109e+01 1.594183e+02
    endloop
  endfacet
  facet normal 1.360802e-01 -8.560862e-01 4.985967e-01
    outer loop
      vertex   -2.050642e+02 7.242107e+01 1.593483e+02
      vertex   -2.049129e+02 7.242105e+01 1.593069e+02
      vertex   -2.047786e+02 7.290172e+01 1.600956e+02
    endloop
  endfacet
  facet normal 3.619175e-02 -8.560718e-01 5.155882e-01
    outer loop
      vertex   -2.049129e+02 7.242105e+01 1.593069e+02
      vertex   -2.047564e+02 7.242103e+01 1.592959e+02
      vertex   -2.047786e+02 7.290172e+01 1.600956e+02
    endloop
  endfacet
  facet normal -6.509230e-02 -8.560572e-01 5.127660e-01
    outer loop
      vertex   -2.047786e+02 7.290172e+01 1.600956e+02
      vertex   -2.047564e+02 7.242103e+01 1.592959e+02
      vertex   -2.046008e+02 7.242100e+01 1.593156e+02
    endloop
  endfacet
  facet normal -1.638796e-01 -8.560430e-01 4.902385e-01
    outer loop
      vertex   -2.047786e+02 7.290172e+01 1.600956e+02
      vertex   -2.046008e+02 7.242100e+01 1.593156e+02
      vertex   -2.044521e+02 7.242098e+01 1.593653e+02
    endloop
  endfacet
  facet normal -2.563739e-01 -8.560297e-01 4.488714e-01
    outer loop
      vertex   -2.047786e+02 7.290172e+01 1.600956e+02
      vertex   -2.044521e+02 7.242098e+01 1.593653e+02
      vertex   -2.043159e+02 7.242096e+01 1.594431e+02
    endloop
  endfacet
  facet normal -3.390206e-01 -8.560178e-01 3.902544e-01
    outer loop
      vertex   -2.047786e+02 7.290172e+01 1.600956e+02
      vertex   -2.043159e+02 7.242096e+01 1.594431e+02
      vertex   -2.041975e+02 7.242095e+01 1.595459e+02
    endloop
  endfacet
  facet normal -4.086436e-01 -8.560078e-01 3.166402e-01
    outer loop
      vertex   -2.047786e+02 7.290172e+01 1.600956e+02
      vertex   -2.041975e+02 7.242095e+01 1.595459e+02
      vertex   -2.041014e+02 7.242093e+01 1.596699e+02
    endloop
  endfacet
  facet normal -4.625674e-01 -8.560001e-01 2.308576e-01
    outer loop
      vertex   -2.047786e+02 7.290172e+01 1.600956e+02
      vertex   -2.041014e+02 7.242093e+01 1.596699e+02
      vertex   -2.040314e+02 7.242092e+01 1.598102e+02
    endloop
  endfacet
  facet normal -4.987198e-01 -8.559949e-01 1.362033e-01
    outer loop
      vertex   -2.039900e+02 7.242092e+01 1.599615e+02
      vertex   -2.047786e+02 7.290172e+01 1.600956e+02
      vertex   -2.040314e+02 7.242092e+01 1.598102e+02
    endloop
  endfacet
  facet normal -5.157113e-01 -8.559924e-01 3.631485e-02
    outer loop
      vertex   -2.039900e+02 7.242092e+01 1.599615e+02
      vertex   -2.039790e+02 7.242092e+01 1.601179e+02
      vertex   -2.047786e+02 7.290172e+01 1.600956e+02
    endloop
  endfacet
  facet normal -5.128891e-01 -8.559928e-01 -6.496920e-02
    outer loop
      vertex   -2.039790e+02 7.242092e+01 1.601179e+02
      vertex   -2.039987e+02 7.242092e+01 1.602735e+02
      vertex   -2.047786e+02 7.290172e+01 1.600956e+02
    endloop
  endfacet
  facet normal -4.903616e-01 -8.559961e-01 -1.637565e-01
    outer loop
      vertex   -2.039987e+02 7.242092e+01 1.602735e+02
      vertex   -2.040484e+02 7.242093e+01 1.604222e+02
      vertex   -2.047786e+02 7.290172e+01 1.600956e+02
    endloop
  endfacet
  facet normal -4.489945e-01 -8.560020e-01 -2.562508e-01
    outer loop
      vertex   -2.047786e+02 7.290172e+01 1.600956e+02
      vertex   -2.040484e+02 7.242093e+01 1.604222e+02
      vertex   -2.041262e+02 7.242094e+01 1.605584e+02
    endloop
  endfacet
  facet normal 4.489945e-01 8.560020e-01 2.562508e-01
    outer loop
      vertex   -2.054287e+02 9.002112e+01 1.596328e+02
      vertex   -2.055065e+02 9.002114e+01 1.597690e+02
      vertex   -2.047762e+02 8.954034e+01 1.600956e+02
    endloop
  endfacet
  facet normal 4.903616e-01 8.559961e-01 1.637565e-01
    outer loop
      vertex   -2.047762e+02 8.954034e+01 1.600956e+02
      vertex   -2.055065e+02 9.002114e+01 1.597690e+02
      vertex   -2.055562e+02 9.002114e+01 1.599178e+02
    endloop
  endfacet
  facet normal 5.128891e-01 8.559928e-01 6.496920e-02
    outer loop
      vertex   -2.055759e+02 9.002115e+01 1.600733e+02
      vertex   -2.047762e+02 8.954034e+01 1.600956e+02
      vertex   -2.055562e+02 9.002114e+01 1.599178e+02
    endloop
  endfacet
  facet normal 5.157113e-01 8.559924e-01 -3.631485e-02
    outer loop
      vertex   -2.055759e+02 9.002115e+01 1.600733e+02
      vertex   -2.055649e+02 9.002114e+01 1.602298e+02
      vertex   -2.047762e+02 8.954034e+01 1.600956e+02
    endloop
  endfacet
  facet normal 4.987198e-01 8.559949e-01 -1.362033e-01
    outer loop
      vertex   -2.055649e+02 9.002114e+01 1.602298e+02
      vertex   -2.055235e+02 9.002114e+01 1.603811e+02
      vertex   -2.047762e+02 8.954034e+01 1.600956e+02
    endloop
  endfacet
  facet normal 4.625674e-01 8.560001e-01 -2.308576e-01
    outer loop
      vertex   -2.047762e+02 8.954034e+01 1.600956e+02
      vertex   -2.055235e+02 9.002114e+01 1.603811e+02
      vertex   -2.054535e+02 9.002113e+01 1.605214e+02
    endloop
  endfacet
  facet normal 4.086436e-01 8.560078e-01 -3.166402e-01
    outer loop
      vertex   -2.047762e+02 8.954034e+01 1.600956e+02
      vertex   -2.054535e+02 9.002113e+01 1.605214e+02
      vertex   -2.053574e+02 9.002111e+01 1.606453e+02
    endloop
  endfacet
  facet normal 3.390206e-01 8.560178e-01 -3.902544e-01
    outer loop
      vertex   -2.047762e+02 8.954034e+01 1.600956e+02
      vertex   -2.053574e+02 9.002111e+01 1.606453e+02
      vertex   -2.052390e+02 9.002110e+01 1.607482e+02
    endloop
  endfacet
  facet normal 2.563739e-01 8.560297e-01 -4.488714e-01
    outer loop
      vertex   -2.047762e+02 8.954034e+01 1.600956e+02
      vertex   -2.052390e+02 9.002110e+01 1.607482e+02
      vertex   -2.051028e+02 9.002108e+01 1.608259e+02
    endloop
  endfacet
  facet normal 1.638796e-01 8.560430e-01 -4.902385e-01
    outer loop
      vertex   -2.047762e+02 8.954034e+01 1.600956e+02
      vertex   -2.051028e+02 9.002108e+01 1.608259e+02
      vertex   -2.049540e+02 9.002106e+01 1.608756e+02
    endloop
  endfacet
  facet normal 6.509230e-02 8.560572e-01 -5.127660e-01
    outer loop
      vertex   -2.047762e+02 8.954034e+01 1.600956e+02
      vertex   -2.049540e+02 9.002106e+01 1.608756e+02
      vertex   -2.047985e+02 9.002103e+01 1.608953e+02
    endloop
  endfacet
  facet normal -3.619175e-02 8.560718e-01 -5.155882e-01
    outer loop
      vertex   -2.046420e+02 9.002101e+01 1.608843e+02
      vertex   -2.047762e+02 8.954034e+01 1.600956e+02
      vertex   -2.047985e+02 9.002103e+01 1.608953e+02
    endloop
  endfacet
  facet normal -1.360802e-01 8.560862e-01 -4.985967e-01
    outer loop
      vertex   -2.046420e+02 9.002101e+01 1.608843e+02
      vertex   -2.044907e+02 9.002099e+01 1.608430e+02
      vertex   -2.047762e+02 8.954034e+01 1.600956e+02
    endloop
  endfacet
  facet normal -2.307345e-01 8.560998e-01 -4.624443e-01
    outer loop
      vertex   -2.044907e+02 9.002099e+01 1.608430e+02
      vertex   -2.043504e+02 9.002097e+01 1.607729e+02
      vertex   -2.047762e+02 8.954034e+01 1.600956e+02
    endloop
  endfacet
  facet normal -3.165171e-01 8.561121e-01 -4.085205e-01
    outer loop
      vertex   -2.043504e+02 9.002097e+01 1.607729e+02
      vertex   -2.042265e+02 9.002095e+01 1.606768e+02
      vertex   -2.047762e+02 8.954034e+01 1.600956e+02
    endloop
  endfacet
  facet normal -3.901313e-01 8.561227e-01 -3.388975e-01
    outer loop
      vertex   -2.047762e+02 8.954034e+01 1.600956e+02
      vertex   -2.042265e+02 9.002095e+01 1.606768e+02
      vertex   -2.041236e+02 9.002094e+01 1.605584e+02
    endloop
  endfacet
  facet normal -4.487483e-01 8.561311e-01 -2.562508e-01
    outer loop
      vertex   -2.041236e+02 9.002094e+01 1.605584e+02
      vertex   -2.040459e+02 9.002093e+01 1.604222e+02
      vertex   -2.047762e+02 8.954034e+01 1.600956e+02
    endloop
  endfacet
  facet normal -4.901154e-01 8.561371e-01 -1.637565e-01
    outer loop
      vertex   -2.047762e+02 8.954034e+01 1.600956e+02
      vertex   -2.040459e+02 9.002093e+01 1.604222e+02
      vertex   -2.039962e+02 9.002092e+01 1.602735e+02
    endloop
  endfacet
  facet normal -5.126429e-01 8.561403e-01 -6.496920e-02
    outer loop
      vertex   -2.039765e+02 9.002092e+01 1.601179e+02
      vertex   -2.047762e+02 8.954034e+01 1.600956e+02
      vertex   -2.039962e+02 9.002092e+01 1.602735e+02
    endloop
  endfacet
  facet normal -5.154651e-01 8.561407e-01 3.631485e-02
    outer loop
      vertex   -2.039765e+02 9.002092e+01 1.601179e+02
      vertex   -2.039875e+02 9.002092e+01 1.599615e+02
      vertex   -2.047762e+02 8.954034e+01 1.600956e+02
    endloop
  endfacet
  facet normal -4.984736e-01 8.561383e-01 1.362033e-01
    outer loop
      vertex   -2.039875e+02 9.002092e+01 1.599615e+02
      vertex   -2.040288e+02 9.002092e+01 1.598102e+02
      vertex   -2.047762e+02 8.954034e+01 1.600956e+02
    endloop
  endfacet
  facet normal -4.623212e-01 8.561331e-01 2.308576e-01
    outer loop
      vertex   -2.047762e+02 8.954034e+01 1.600956e+02
      vertex   -2.040288e+02 9.002092e+01 1.598102e+02
      vertex   -2.040989e+02 9.002093e+01 1.596699e+02
    endloop
  endfacet
  facet normal -4.083974e-01 8.561253e-01 3.166402e-01
    outer loop
      vertex   -2.047762e+02 8.954034e+01 1.600956e+02
      vertex   -2.040989e+02 9.002093e+01 1.596699e+02
      vertex   -2.041950e+02 9.002095e+01 1.595459e+02
    endloop
  endfacet
  facet normal -3.387744e-01 8.561153e-01 3.902544e-01
    outer loop
      vertex   -2.047762e+02 8.954034e+01 1.600956e+02
      vertex   -2.041950e+02 9.002095e+01 1.595459e+02
      vertex   -2.043134e+02 9.002096e+01 1.594431e+02
    endloop
  endfacet
  facet normal -2.561277e-01 8.561034e-01 4.488714e-01
    outer loop
      vertex   -2.043134e+02 9.002096e+01 1.594431e+02
      vertex   -2.044496e+02 9.002098e+01 1.593653e+02
      vertex   -2.047762e+02 8.954034e+01 1.600956e+02
    endloop
  endfacet
  facet normal -1.636334e-01 8.560901e-01 4.902385e-01
    outer loop
      vertex   -2.044496e+02 9.002098e+01 1.593653e+02
      vertex   -2.045983e+02 9.002100e+01 1.593156e+02
      vertex   -2.047762e+02 8.954034e+01 1.600956e+02
    endloop
  endfacet
  facet normal -6.484610e-02 8.560759e-01 5.127660e-01
    outer loop
      vertex   -2.045983e+02 9.002100e+01 1.593156e+02
      vertex   -2.047539e+02 9.002103e+01 1.592959e+02
      vertex   -2.047762e+02 8.954034e+01 1.600956e+02
    endloop
  endfacet
  facet normal 3.643795e-02 8.560614e-01 5.155882e-01
    outer loop
      vertex   -2.047762e+02 8.954034e+01 1.600956e+02
      vertex   -2.047539e+02 9.002103e+01 1.592959e+02
      vertex   -2.049103e+02 9.002105e+01 1.593069e+02
    endloop
  endfacet
  facet normal 1.363264e-01 8.560470e-01 4.985967e-01
    outer loop
      vertex   -2.047762e+02 8.954034e+01 1.600956e+02
      vertex   -2.049103e+02 9.002105e+01 1.593069e+02
      vertex   -2.050616e+02 9.002107e+01 1.593483e+02
    endloop
  endfacet
  facet normal 2.309807e-01 8.560334e-01 4.624443e-01
    outer loop
      vertex   -2.047762e+02 8.954034e+01 1.600956e+02
      vertex   -2.050616e+02 9.002107e+01 1.593483e+02
      vertex   -2.052019e+02 9.002109e+01 1.594183e+02
    endloop
  endfacet
  facet normal 3.167633e-01 8.560210e-01 4.085205e-01
    outer loop
      vertex   -2.047762e+02 8.954034e+01 1.600956e+02
      vertex   -2.052019e+02 9.002109e+01 1.594183e+02
      vertex   -2.053259e+02 9.002111e+01 1.595144e+02
    endloop
  endfacet
  facet normal 3.903775e-01 8.560105e-01 3.388975e-01
    outer loop
      vertex   -2.054287e+02 9.002112e+01 1.596328e+02
      vertex   -2.047762e+02 8.954034e+01 1.600956e+02
      vertex   -2.053259e+02 9.002111e+01 1.595144e+02
    endloop
  endfacet
  facet normal -3.903775e-01 -8.560105e-01 -3.388975e-01
    outer loop
      vertex   -2.041262e+02 7.242094e+01 1.605584e+02
      vertex   -2.042290e+02 7.242095e+01 1.606768e+02
      vertex   -2.047786e+02 7.290172e+01 1.600956e+02
    endloop
  endfacet
  facet normal -3.167633e-01 -8.560210e-01 -4.085205e-01
    outer loop
      vertex   -2.047786e+02 7.290172e+01 1.600956e+02
      vertex   -2.042290e+02 7.242095e+01 1.606768e+02
      vertex   -2.043530e+02 7.242097e+01 1.607729e+02
    endloop
  endfacet
  facet normal -2.309807e-01 -8.560334e-01 -4.624443e-01
    outer loop
      vertex   -2.044933e+02 7.242099e+01 1.608430e+02
      vertex   -2.047786e+02 7.290172e+01 1.600956e+02
      vertex   -2.043530e+02 7.242097e+01 1.607729e+02
    endloop
  endfacet
  facet normal -1.363264e-01 -8.560470e-01 -4.985967e-01
    outer loop
      vertex   -2.044933e+02 7.242099e+01 1.608430e+02
      vertex   -2.046446e+02 7.242101e+01 1.608843e+02
      vertex   -2.047786e+02 7.290172e+01 1.600956e+02
    endloop
  endfacet
  facet normal -3.643795e-02 -8.560614e-01 -5.155882e-01
    outer loop
      vertex   -2.046446e+02 7.242101e+01 1.608843e+02
      vertex   -2.048010e+02 7.242103e+01 1.608953e+02
      vertex   -2.047786e+02 7.290172e+01 1.600956e+02
    endloop
  endfacet
  facet normal 6.484610e-02 -8.560759e-01 -5.127660e-01
    outer loop
      vertex   -2.047786e+02 7.290172e+01 1.600956e+02
      vertex   -2.048010e+02 7.242103e+01 1.608953e+02
      vertex   -2.049566e+02 7.242106e+01 1.608756e+02
    endloop
  endfacet
  facet normal 1.636334e-01 -8.560901e-01 -4.902385e-01
    outer loop
      vertex   -2.047786e+02 7.290172e+01 1.600956e+02
      vertex   -2.049566e+02 7.242106e+01 1.608756e+02
      vertex   -2.051053e+02 7.242108e+01 1.608259e+02
    endloop
  endfacet
  facet normal 2.561277e-01 -8.561034e-01 -4.488714e-01
    outer loop
      vertex   -2.047786e+02 7.290172e+01 1.600956e+02
      vertex   -2.051053e+02 7.242108e+01 1.608259e+02
      vertex   -2.052415e+02 7.242110e+01 1.607482e+02
    endloop
  endfacet
  facet normal 3.387744e-01 -8.561153e-01 -3.902544e-01
    outer loop
      vertex   -2.052415e+02 7.242110e+01 1.607482e+02
      vertex   -2.053599e+02 7.242111e+01 1.606453e+02
      vertex   -2.047786e+02 7.290172e+01 1.600956e+02
    endloop
  endfacet
  facet normal 4.083974e-01 -8.561253e-01 -3.166402e-01
    outer loop
      vertex   -2.053599e+02 7.242111e+01 1.606453e+02
      vertex   -2.054560e+02 7.242113e+01 1.605214e+02
      vertex   -2.047786e+02 7.290172e+01 1.600956e+02
    endloop
  endfacet
  facet normal 4.623212e-01 -8.561331e-01 -2.308576e-01
    outer loop
      vertex   -2.054560e+02 7.242113e+01 1.605214e+02
      vertex   -2.055261e+02 7.242114e+01 1.603811e+02
      vertex   -2.047786e+02 7.290172e+01 1.600956e+02
    endloop
  endfacet
  facet normal 4.984736e-01 -8.561383e-01 -1.362033e-01
    outer loop
      vertex   -2.047786e+02 7.290172e+01 1.600956e+02
      vertex   -2.055261e+02 7.242114e+01 1.603811e+02
      vertex   -2.055674e+02 7.242114e+01 1.602298e+02
    endloop
  endfacet
  facet normal 5.154651e-01 -8.561407e-01 -3.631485e-02
    outer loop
      vertex   -2.047786e+02 7.290172e+01 1.600956e+02
      vertex   -2.055674e+02 7.242114e+01 1.602298e+02
      vertex   -2.055784e+02 7.242115e+01 1.600733e+02
    endloop
  endfacet
  facet normal 5.126429e-01 -8.561403e-01 6.496920e-02
    outer loop
      vertex   -2.047786e+02 7.290172e+01 1.600956e+02
      vertex   -2.055784e+02 7.242115e+01 1.600733e+02
      vertex   -2.055587e+02 7.242114e+01 1.599178e+02
    endloop
  endfacet
  facet normal 4.901154e-01 -8.561371e-01 1.637565e-01
    outer loop
      vertex   -2.047786e+02 7.290172e+01 1.600956e+02
      vertex   -2.055587e+02 7.242114e+01 1.599178e+02
      vertex   -2.055090e+02 7.242114e+01 1.597690e+02
    endloop
  endfacet
  facet normal 4.487483e-01 -8.561311e-01 2.562508e-01
    outer loop
      vertex   -2.054312e+02 7.242112e+01 1.596328e+02
      vertex   -2.047786e+02 7.290172e+01 1.600956e+02
      vertex   -2.055090e+02 7.242114e+01 1.597690e+02
    endloop
  endfacet
  facet normal 8.684491e-01 -1.248793e-04 4.957784e-01
    outer loop
      vertex   -2.054287e+02 9.002112e+01 1.596328e+02
      vertex   -2.054281e+02 9.422112e+01 1.596328e+02
      vertex   -2.055065e+02 9.002114e+01 1.597690e+02
    endloop
  endfacet
  facet normal 8.684491e-01 -1.248793e-04 4.957784e-01
    outer loop
      vertex   -2.055065e+02 9.002114e+01 1.597690e+02
      vertex   -2.054281e+02 9.422112e+01 1.596328e+02
      vertex   -2.055059e+02 9.422114e+01 1.597690e+02
    endloop
  endfacet
  facet normal 9.484836e-01 -1.363879e-04 3.168262e-01
    outer loop
      vertex   -2.055556e+02 9.422114e+01 1.599178e+02
      vertex   -2.055065e+02 9.002114e+01 1.597690e+02
      vertex   -2.055059e+02 9.422114e+01 1.597690e+02
    endloop
  endfacet
  facet normal 9.484836e-01 -1.363879e-04 3.168262e-01
    outer loop
      vertex   -2.055556e+02 9.422114e+01 1.599178e+02
      vertex   -2.055562e+02 9.002114e+01 1.599178e+02
      vertex   -2.055065e+02 9.002114e+01 1.597690e+02
    endloop
  endfacet
  facet normal 9.920685e-01 -1.426552e-04 1.256985e-01
    outer loop
      vertex   -2.055556e+02 9.422114e+01 1.599178e+02
      vertex   -2.055753e+02 9.422115e+01 1.600733e+02
      vertex   -2.055562e+02 9.002114e+01 1.599178e+02
    endloop
  endfacet
  facet normal 9.920685e-01 -1.426552e-04 1.256985e-01
    outer loop
      vertex   -2.055562e+02 9.002114e+01 1.599178e+02
      vertex   -2.055753e+02 9.422115e+01 1.600733e+02
      vertex   -2.055759e+02 9.002115e+01 1.600733e+02
    endloop
  endfacet
  facet normal 9.975287e-01 -1.434404e-04 -7.025976e-02
    outer loop
      vertex   -2.055759e+02 9.002115e+01 1.600733e+02
      vertex   -2.055753e+02 9.422115e+01 1.600733e+02
      vertex   -2.055642e+02 9.422114e+01 1.602298e+02
    endloop
  endfacet
  facet normal 9.646545e-01 -1.387132e-04 -2.635179e-01
    outer loop
      vertex   -2.055649e+02 9.002114e+01 1.602298e+02
      vertex   -2.055642e+02 9.422114e+01 1.602298e+02
      vertex   -2.055229e+02 9.422114e+01 1.603811e+02
    endloop
  endfacet
  facet normal 8.947091e-01 -1.286554e-04 -4.466493e-01
    outer loop
      vertex   -2.055235e+02 9.002114e+01 1.603811e+02
      vertex   -2.055229e+02 9.422114e+01 1.603811e+02
      vertex   -2.054535e+02 9.002113e+01 1.605214e+02
    endloop
  endfacet
  facet normal 9.646545e-01 -1.387132e-04 -2.635179e-01
    outer loop
      vertex   -2.055235e+02 9.002114e+01 1.603811e+02
      vertex   -2.055649e+02 9.002114e+01 1.602298e+02
      vertex   -2.055229e+02 9.422114e+01 1.603811e+02
    endloop
  endfacet
  facet normal 8.947091e-01 -1.286554e-04 -4.466493e-01
    outer loop
      vertex   -2.055229e+02 9.422114e+01 1.603811e+02
      vertex   -2.054529e+02 9.422113e+01 1.605214e+02
      vertex   -2.054535e+02 9.002113e+01 1.605214e+02
    endloop
  endfacet
  facet normal 7.903806e-01 -1.136534e-04 -6.126161e-01
    outer loop
      vertex   -2.054535e+02 9.002113e+01 1.605214e+02
      vertex   -2.054529e+02 9.422113e+01 1.605214e+02
      vertex   -2.053568e+02 9.422111e+01 1.606453e+02
    endloop
  endfacet
  facet normal 6.556782e-01 -9.428372e-05 -7.550405e-01
    outer loop
      vertex   -2.053574e+02 9.002111e+01 1.606453e+02
      vertex   -2.053568e+02 9.422111e+01 1.606453e+02
      vertex   -2.052384e+02 9.422110e+01 1.607482e+02
    endloop
  endfacet
  facet normal 4.957784e-01 -7.129082e-05 -8.684491e-01
    outer loop
      vertex   -2.052390e+02 9.002110e+01 1.607482e+02
      vertex   -2.052384e+02 9.422110e+01 1.607482e+02
      vertex   -2.051022e+02 9.422108e+01 1.608259e+02
    endloop
  endfacet
  facet normal 3.168262e-01 -4.555825e-05 -9.484836e-01
    outer loop
      vertex   -2.051028e+02 9.002108e+01 1.608259e+02
      vertex   -2.051022e+02 9.422108e+01 1.608259e+02
      vertex   -2.049534e+02 9.422106e+01 1.608756e+02
    endloop
  endfacet
  facet normal 1.256985e-01 -1.807490e-05 -9.920685e-01
    outer loop
      vertex   -2.049540e+02 9.002106e+01 1.608756e+02
      vertex   -2.049534e+02 9.422106e+01 1.608756e+02
      vertex   -2.047985e+02 9.002103e+01 1.608953e+02
    endloop
  endfacet
  facet normal 3.168262e-01 -4.555825e-05 -9.484836e-01
    outer loop
      vertex   -2.049540e+02 9.002106e+01 1.608756e+02
      vertex   -2.051028e+02 9.002108e+01 1.608259e+02
      vertex   -2.049534e+02 9.422106e+01 1.608756e+02
    endloop
  endfacet
  facet normal 1.256985e-01 -1.807490e-05 -9.920685e-01
    outer loop
      vertex   -2.049534e+02 9.422106e+01 1.608756e+02
      vertex   -2.047979e+02 9.422103e+01 1.608953e+02
      vertex   -2.047985e+02 9.002103e+01 1.608953e+02
    endloop
  endfacet
  facet normal -7.025976e-02 1.010305e-05 -9.975287e-01
    outer loop
      vertex   -2.047985e+02 9.002103e+01 1.608953e+02
      vertex   -2.047979e+02 9.422103e+01 1.608953e+02
      vertex   -2.046414e+02 9.422101e+01 1.608843e+02
    endloop
  endfacet
  facet normal -2.635179e-01 3.789276e-05 -9.646545e-01
    outer loop
      vertex   -2.046420e+02 9.002101e+01 1.608843e+02
      vertex   -2.046414e+02 9.422101e+01 1.608843e+02
      vertex   -2.044901e+02 9.422099e+01 1.608430e+02
    endloop
  endfacet
  facet normal -4.466493e-01 6.422626e-05 -8.947091e-01
    outer loop
      vertex   -2.044907e+02 9.002099e+01 1.608430e+02
      vertex   -2.044901e+02 9.422099e+01 1.608430e+02
      vertex   -2.043498e+02 9.422097e+01 1.607729e+02
    endloop
  endfacet
  facet normal -6.126161e-01 8.809158e-05 -7.903806e-01
    outer loop
      vertex   -2.043504e+02 9.002097e+01 1.607729e+02
      vertex   -2.043498e+02 9.422097e+01 1.607729e+02
      vertex   -2.042259e+02 9.422095e+01 1.606768e+02
    endloop
  endfacet
  facet normal -7.550405e-01 1.085716e-04 -6.556782e-01
    outer loop
      vertex   -2.042265e+02 9.002095e+01 1.606768e+02
      vertex   -2.042259e+02 9.422095e+01 1.606768e+02
      vertex   -2.041236e+02 9.002094e+01 1.605584e+02
    endloop
  endfacet
  facet normal -6.126161e-01 8.809158e-05 -7.903806e-01
    outer loop
      vertex   -2.042265e+02 9.002095e+01 1.606768e+02
      vertex   -2.043504e+02 9.002097e+01 1.607729e+02
      vertex   -2.042259e+02 9.422095e+01 1.606768e+02
    endloop
  endfacet
  facet normal -7.550405e-01 1.085716e-04 -6.556782e-01
    outer loop
      vertex   -2.042259e+02 9.422095e+01 1.606768e+02
      vertex   -2.041230e+02 9.422094e+01 1.605584e+02
      vertex   -2.041236e+02 9.002094e+01 1.605584e+02
    endloop
  endfacet
  facet normal -4.466493e-01 6.422626e-05 -8.947091e-01
    outer loop
      vertex   -2.043504e+02 9.002097e+01 1.607729e+02
      vertex   -2.044907e+02 9.002099e+01 1.608430e+02
      vertex   -2.043498e+02 9.422097e+01 1.607729e+02
    endloop
  endfacet
  facet normal -2.635179e-01 3.789276e-05 -9.646545e-01
    outer loop
      vertex   -2.044907e+02 9.002099e+01 1.608430e+02
      vertex   -2.046420e+02 9.002101e+01 1.608843e+02
      vertex   -2.044901e+02 9.422099e+01 1.608430e+02
    endloop
  endfacet
  facet normal -7.025976e-02 1.010305e-05 -9.975287e-01
    outer loop
      vertex   -2.046420e+02 9.002101e+01 1.608843e+02
      vertex   -2.047985e+02 9.002103e+01 1.608953e+02
      vertex   -2.046414e+02 9.422101e+01 1.608843e+02
    endloop
  endfacet
  facet normal 4.957784e-01 -7.129082e-05 -8.684491e-01
    outer loop
      vertex   -2.051028e+02 9.002108e+01 1.608259e+02
      vertex   -2.052390e+02 9.002110e+01 1.607482e+02
      vertex   -2.051022e+02 9.422108e+01 1.608259e+02
    endloop
  endfacet
  facet normal 6.556782e-01 -9.428372e-05 -7.550405e-01
    outer loop
      vertex   -2.052390e+02 9.002110e+01 1.607482e+02
      vertex   -2.053574e+02 9.002111e+01 1.606453e+02
      vertex   -2.052384e+02 9.422110e+01 1.607482e+02
    endloop
  endfacet
  facet normal 7.903806e-01 -1.136534e-04 -6.126161e-01
    outer loop
      vertex   -2.053574e+02 9.002111e+01 1.606453e+02
      vertex   -2.054535e+02 9.002113e+01 1.605214e+02
      vertex   -2.053568e+02 9.422111e+01 1.606453e+02
    endloop
  endfacet
  facet normal 9.975287e-01 -1.434404e-04 -7.025976e-02
    outer loop
      vertex   -2.055649e+02 9.002114e+01 1.602298e+02
      vertex   -2.055759e+02 9.002115e+01 1.600733e+02
      vertex   -2.055642e+02 9.422114e+01 1.602298e+02
    endloop
  endfacet
  facet normal 7.550405e-01 -1.085716e-04 6.556782e-01
    outer loop
      vertex   -2.054312e+02 7.242112e+01 1.596328e+02
      vertex   -2.054319e+02 6.822112e+01 1.596328e+02
      vertex   -2.053284e+02 7.242111e+01 1.595144e+02
    endloop
  endfacet
  facet normal 7.550405e-01 -1.085716e-04 6.556782e-01
    outer loop
      vertex   -2.053284e+02 7.242111e+01 1.595144e+02
      vertex   -2.054319e+02 6.822112e+01 1.596328e+02
      vertex   -2.053290e+02 6.822111e+01 1.595144e+02
    endloop
  endfacet
  facet normal 6.126161e-01 -8.809158e-05 7.903806e-01
    outer loop
      vertex   -2.052051e+02 6.822109e+01 1.594183e+02
      vertex   -2.053284e+02 7.242111e+01 1.595144e+02
      vertex   -2.053290e+02 6.822111e+01 1.595144e+02
    endloop
  endfacet
  facet normal 6.126161e-01 -8.809158e-05 7.903806e-01
    outer loop
      vertex   -2.052051e+02 6.822109e+01 1.594183e+02
      vertex   -2.052045e+02 7.242109e+01 1.594183e+02
      vertex   -2.053284e+02 7.242111e+01 1.595144e+02
    endloop
  endfacet
  facet normal 4.466493e-01 -6.422626e-05 8.947091e-01
    outer loop
      vertex   -2.052051e+02 6.822109e+01 1.594183e+02
      vertex   -2.050648e+02 6.822107e+01 1.593483e+02
      vertex   -2.052045e+02 7.242109e+01 1.594183e+02
    endloop
  endfacet
  facet normal 4.466493e-01 -6.422626e-05 8.947091e-01
    outer loop
      vertex   -2.052045e+02 7.242109e+01 1.594183e+02
      vertex   -2.050648e+02 6.822107e+01 1.593483e+02
      vertex   -2.050642e+02 7.242107e+01 1.593483e+02
    endloop
  endfacet
  facet normal 2.635179e-01 -3.789276e-05 9.646545e-01
    outer loop
      vertex   -2.050642e+02 7.242107e+01 1.593483e+02
      vertex   -2.050648e+02 6.822107e+01 1.593483e+02
      vertex   -2.049135e+02 6.822105e+01 1.593069e+02
    endloop
  endfacet
  facet normal 7.025976e-02 -1.010305e-05 9.975287e-01
    outer loop
      vertex   -2.049129e+02 7.242105e+01 1.593069e+02
      vertex   -2.049135e+02 6.822105e+01 1.593069e+02
      vertex   -2.047570e+02 6.822103e+01 1.592959e+02
    endloop
  endfacet
  facet normal -1.256985e-01 1.807490e-05 9.920685e-01
    outer loop
      vertex   -2.047564e+02 7.242103e+01 1.592959e+02
      vertex   -2.047570e+02 6.822103e+01 1.592959e+02
      vertex   -2.046008e+02 7.242100e+01 1.593156e+02
    endloop
  endfacet
  facet normal 7.025976e-02 -1.010305e-05 9.975287e-01
    outer loop
      vertex   -2.047564e+02 7.242103e+01 1.592959e+02
      vertex   -2.049129e+02 7.242105e+01 1.593069e+02
      vertex   -2.047570e+02 6.822103e+01 1.592959e+02
    endloop
  endfacet
  facet normal -1.256985e-01 1.807490e-05 9.920685e-01
    outer loop
      vertex   -2.047570e+02 6.822103e+01 1.592959e+02
      vertex   -2.046014e+02 6.822100e+01 1.593156e+02
      vertex   -2.046008e+02 7.242100e+01 1.593156e+02
    endloop
  endfacet
  facet normal -3.168262e-01 4.555825e-05 9.484836e-01
    outer loop
      vertex   -2.046008e+02 7.242100e+01 1.593156e+02
      vertex   -2.046014e+02 6.822100e+01 1.593156e+02
      vertex   -2.044527e+02 6.822098e+01 1.593653e+02
    endloop
  endfacet
  facet normal -4.957784e-01 7.129082e-05 8.684491e-01
    outer loop
      vertex   -2.044521e+02 7.242098e+01 1.593653e+02
      vertex   -2.044527e+02 6.822098e+01 1.593653e+02
      vertex   -2.043165e+02 6.822096e+01 1.594431e+02
    endloop
  endfacet
  facet normal -6.556782e-01 9.428372e-05 7.550405e-01
    outer loop
      vertex   -2.043159e+02 7.242096e+01 1.594431e+02
      vertex   -2.043165e+02 6.822096e+01 1.594431e+02
      vertex   -2.041981e+02 6.822095e+01 1.595459e+02
    endloop
  endfacet
  facet normal -7.903806e-01 1.136534e-04 6.126161e-01
    outer loop
      vertex   -2.041975e+02 7.242095e+01 1.595459e+02
      vertex   -2.041981e+02 6.822095e+01 1.595459e+02
      vertex   -2.041020e+02 6.822093e+01 1.596699e+02
    endloop
  endfacet
  facet normal -8.947091e-01 1.286554e-04 4.466493e-01
    outer loop
      vertex   -2.041014e+02 7.242093e+01 1.596699e+02
      vertex   -2.041020e+02 6.822093e+01 1.596699e+02
      vertex   -2.040314e+02 7.242092e+01 1.598102e+02
    endloop
  endfacet
  facet normal -7.903806e-01 1.136534e-04 6.126161e-01
    outer loop
      vertex   -2.041014e+02 7.242093e+01 1.596699e+02
      vertex   -2.041975e+02 7.242095e+01 1.595459e+02
      vertex   -2.041020e+02 6.822093e+01 1.596699e+02
    endloop
  endfacet
  facet normal -8.947091e-01 1.286554e-04 4.466493e-01
    outer loop
      vertex   -2.041020e+02 6.822093e+01 1.596699e+02
      vertex   -2.040320e+02 6.822092e+01 1.598102e+02
      vertex   -2.040314e+02 7.242092e+01 1.598102e+02
    endloop
  endfacet
  facet normal -9.646545e-01 1.387132e-04 2.635179e-01
    outer loop
      vertex   -2.040314e+02 7.242092e+01 1.598102e+02
      vertex   -2.040320e+02 6.822092e+01 1.598102e+02
      vertex   -2.039906e+02 6.822092e+01 1.599615e+02
    endloop
  endfacet
  facet normal -9.975287e-01 1.434404e-04 7.025976e-02
    outer loop
      vertex   -2.039900e+02 7.242092e+01 1.599615e+02
      vertex   -2.039906e+02 6.822092e+01 1.599615e+02
      vertex   -2.039796e+02 6.822092e+01 1.601179e+02
    endloop
  endfacet
  facet normal -9.920685e-01 1.426552e-04 -1.256985e-01
    outer loop
      vertex   -2.039790e+02 7.242092e+01 1.601179e+02
      vertex   -2.039796e+02 6.822092e+01 1.601179e+02
      vertex   -2.039993e+02 6.822092e+01 1.602735e+02
    endloop
  endfacet
  facet normal -9.484836e-01 1.363879e-04 -3.168262e-01
    outer loop
      vertex   -2.039987e+02 7.242092e+01 1.602735e+02
      vertex   -2.039993e+02 6.822092e+01 1.602735e+02
      vertex   -2.040490e+02 6.822093e+01 1.604222e+02
    endloop
  endfacet
  facet normal -8.684491e-01 1.248793e-04 -4.957784e-01
    outer loop
      vertex   -2.040484e+02 7.242093e+01 1.604222e+02
      vertex   -2.040490e+02 6.822093e+01 1.604222e+02
      vertex   -2.041262e+02 7.242094e+01 1.605584e+02
    endloop
  endfacet
  facet normal -9.484836e-01 1.363879e-04 -3.168262e-01
    outer loop
      vertex   -2.040484e+02 7.242093e+01 1.604222e+02
      vertex   -2.039987e+02 7.242092e+01 1.602735e+02
      vertex   -2.040490e+02 6.822093e+01 1.604222e+02
    endloop
  endfacet
  facet normal -8.684491e-01 1.248793e-04 -4.957784e-01
    outer loop
      vertex   -2.040490e+02 6.822093e+01 1.604222e+02
      vertex   -2.041268e+02 6.822094e+01 1.605584e+02
      vertex   -2.041262e+02 7.242094e+01 1.605584e+02
    endloop
  endfacet
  facet normal -9.920685e-01 1.426552e-04 -1.256985e-01
    outer loop
      vertex   -2.039987e+02 7.242092e+01 1.602735e+02
      vertex   -2.039790e+02 7.242092e+01 1.601179e+02
      vertex   -2.039993e+02 6.822092e+01 1.602735e+02
    endloop
  endfacet
  facet normal -9.975287e-01 1.434404e-04 7.025976e-02
    outer loop
      vertex   -2.039790e+02 7.242092e+01 1.601179e+02
      vertex   -2.039900e+02 7.242092e+01 1.599615e+02
      vertex   -2.039796e+02 6.822092e+01 1.601179e+02
    endloop
  endfacet
  facet normal -9.646545e-01 1.387132e-04 2.635179e-01
    outer loop
      vertex   -2.039900e+02 7.242092e+01 1.599615e+02
      vertex   -2.040314e+02 7.242092e+01 1.598102e+02
      vertex   -2.039906e+02 6.822092e+01 1.599615e+02
    endloop
  endfacet
  facet normal -6.556782e-01 9.428372e-05 7.550405e-01
    outer loop
      vertex   -2.041975e+02 7.242095e+01 1.595459e+02
      vertex   -2.043159e+02 7.242096e+01 1.594431e+02
      vertex   -2.041981e+02 6.822095e+01 1.595459e+02
    endloop
  endfacet
  facet normal -4.957784e-01 7.129082e-05 8.684491e-01
    outer loop
      vertex   -2.043159e+02 7.242096e+01 1.594431e+02
      vertex   -2.044521e+02 7.242098e+01 1.593653e+02
      vertex   -2.043165e+02 6.822096e+01 1.594431e+02
    endloop
  endfacet
  facet normal -3.168262e-01 4.555825e-05 9.484836e-01
    outer loop
      vertex   -2.044521e+02 7.242098e+01 1.593653e+02
      vertex   -2.046008e+02 7.242100e+01 1.593156e+02
      vertex   -2.044527e+02 6.822098e+01 1.593653e+02
    endloop
  endfacet
  facet normal 2.635179e-01 -3.789276e-05 9.646545e-01
    outer loop
      vertex   -2.049129e+02 7.242105e+01 1.593069e+02
      vertex   -2.050642e+02 7.242107e+01 1.593483e+02
      vertex   -2.049135e+02 6.822105e+01 1.593069e+02
    endloop
  endfacet
  facet normal 6.556782e-01 -9.428372e-05 -7.550405e-01
    outer loop
      vertex   -2.039115e+02 6.822091e+01 1.588721e+02
      vertex   -2.039078e+02 9.422091e+01 1.588721e+02
      vertex   -2.036895e+02 6.822087e+01 1.590649e+02
    endloop
  endfacet
  facet normal 6.556782e-01 -9.428372e-05 -7.550405e-01
    outer loop
      vertex   -2.036895e+02 6.822087e+01 1.590649e+02
      vertex   -2.039078e+02 9.422091e+01 1.588721e+02
      vertex   -2.036858e+02 9.422087e+01 1.590649e+02
    endloop
  endfacet
  facet normal 7.903806e-01 -1.136534e-04 -6.126161e-01
    outer loop
      vertex   -2.035056e+02 9.422085e+01 1.592973e+02
      vertex   -2.036895e+02 6.822087e+01 1.590649e+02
      vertex   -2.036858e+02 9.422087e+01 1.590649e+02
    endloop
  endfacet
  facet normal 7.903806e-01 -1.136534e-04 -6.126161e-01
    outer loop
      vertex   -2.035056e+02 9.422085e+01 1.592973e+02
      vertex   -2.035094e+02 6.822085e+01 1.592973e+02
      vertex   -2.036895e+02 6.822087e+01 1.590649e+02
    endloop
  endfacet
  facet normal 8.947091e-01 -1.286554e-04 -4.466493e-01
    outer loop
      vertex   -2.035056e+02 9.422085e+01 1.592973e+02
      vertex   -2.033743e+02 9.422083e+01 1.595604e+02
      vertex   -2.035094e+02 6.822085e+01 1.592973e+02
    endloop
  endfacet
  facet normal 8.947091e-01 -1.286554e-04 -4.466493e-01
    outer loop
      vertex   -2.035094e+02 6.822085e+01 1.592973e+02
      vertex   -2.033743e+02 9.422083e+01 1.595604e+02
      vertex   -2.033780e+02 6.822083e+01 1.595604e+02
    endloop
  endfacet
  facet normal 9.646545e-01 -1.387132e-04 -2.635179e-01
    outer loop
      vertex   -2.033780e+02 6.822083e+01 1.595604e+02
      vertex   -2.033743e+02 9.422083e+01 1.595604e+02
      vertex   -2.032968e+02 9.422082e+01 1.598441e+02
    endloop
  endfacet
  facet normal 9.975287e-01 -1.434404e-04 -7.025976e-02
    outer loop
      vertex   -2.033006e+02 6.822082e+01 1.598441e+02
      vertex   -2.032968e+02 9.422082e+01 1.598441e+02
      vertex   -2.032762e+02 9.422081e+01 1.601374e+02
    endloop
  endfacet
  facet normal 9.920685e-01 -1.426552e-04 1.256985e-01
    outer loop
      vertex   -2.032799e+02 6.822081e+01 1.601374e+02
      vertex   -2.032762e+02 9.422081e+01 1.601374e+02
      vertex   -2.033169e+02 6.822082e+01 1.604291e+02
    endloop
  endfacet
  facet normal 9.975287e-01 -1.434404e-04 -7.025976e-02
    outer loop
      vertex   -2.032799e+02 6.822081e+01 1.601374e+02
      vertex   -2.033006e+02 6.822082e+01 1.598441e+02
      vertex   -2.032762e+02 9.422081e+01 1.601374e+02
    endloop
  endfacet
  facet normal 9.920685e-01 -1.426552e-04 1.256985e-01
    outer loop
      vertex   -2.032762e+02 9.422081e+01 1.601374e+02
      vertex   -2.033131e+02 9.422082e+01 1.604291e+02
      vertex   -2.033169e+02 6.822082e+01 1.604291e+02
    endloop
  endfacet
  facet normal 9.484836e-01 -1.363879e-04 3.168262e-01
    outer loop
      vertex   -2.033169e+02 6.822082e+01 1.604291e+02
      vertex   -2.033131e+02 9.422082e+01 1.604291e+02
      vertex   -2.034063e+02 9.422083e+01 1.607080e+02
    endloop
  endfacet
  facet normal 8.684491e-01 -1.248793e-04 4.957784e-01
    outer loop
      vertex   -2.034100e+02 6.822083e+01 1.607080e+02
      vertex   -2.034063e+02 9.422083e+01 1.607080e+02
      vertex   -2.035521e+02 9.422085e+01 1.609634e+02
    endloop
  endfacet
  facet normal 7.550405e-01 -1.085716e-04 6.556782e-01
    outer loop
      vertex   -2.035558e+02 6.822085e+01 1.609634e+02
      vertex   -2.035521e+02 9.422085e+01 1.609634e+02
      vertex   -2.037449e+02 9.422088e+01 1.611854e+02
    endloop
  endfacet
  facet normal 6.126161e-01 -8.809158e-05 7.903806e-01
    outer loop
      vertex   -2.037486e+02 6.822088e+01 1.611854e+02
      vertex   -2.037449e+02 9.422088e+01 1.611854e+02
      vertex   -2.039773e+02 9.422092e+01 1.613656e+02
    endloop
  endfacet
  facet normal 4.466493e-01 -6.422626e-05 8.947091e-01
    outer loop
      vertex   -2.039810e+02 6.822092e+01 1.613656e+02
      vertex   -2.039773e+02 9.422092e+01 1.613656e+02
      vertex   -2.042441e+02 6.822095e+01 1.614969e+02
    endloop
  endfacet
  facet normal 6.126161e-01 -8.809158e-05 7.903806e-01
    outer loop
      vertex   -2.039810e+02 6.822092e+01 1.613656e+02
      vertex   -2.037486e+02 6.822088e+01 1.611854e+02
      vertex   -2.039773e+02 9.422092e+01 1.613656e+02
    endloop
  endfacet
  facet normal 4.466493e-01 -6.422626e-05 8.947091e-01
    outer loop
      vertex   -2.039773e+02 9.422092e+01 1.613656e+02
      vertex   -2.042404e+02 9.422095e+01 1.614969e+02
      vertex   -2.042441e+02 6.822095e+01 1.614969e+02
    endloop
  endfacet
  facet normal 2.635179e-01 -3.789276e-05 9.646545e-01
    outer loop
      vertex   -2.042441e+02 6.822095e+01 1.614969e+02
      vertex   -2.042404e+02 9.422095e+01 1.614969e+02
      vertex   -2.045240e+02 9.422099e+01 1.615744e+02
    endloop
  endfacet
  facet normal 7.025976e-02 -1.010305e-05 9.975287e-01
    outer loop
      vertex   -2.045278e+02 6.822099e+01 1.615744e+02
      vertex   -2.045240e+02 9.422099e+01 1.615744e+02
      vertex   -2.048174e+02 9.422104e+01 1.615950e+02
    endloop
  endfacet
  facet normal -1.256985e-01 1.807490e-05 9.920685e-01
    outer loop
      vertex   -2.048211e+02 6.822104e+01 1.615950e+02
      vertex   -2.048174e+02 9.422104e+01 1.615950e+02
      vertex   -2.051091e+02 9.422108e+01 1.615581e+02
    endloop
  endfacet
  facet normal -3.168262e-01 4.555825e-05 9.484836e-01
    outer loop
      vertex   -2.051128e+02 6.822108e+01 1.615581e+02
      vertex   -2.051091e+02 9.422108e+01 1.615581e+02
      vertex   -2.053880e+02 9.422112e+01 1.614649e+02
    endloop
  endfacet
  facet normal -4.957784e-01 7.129082e-05 8.684491e-01
    outer loop
      vertex   -2.053917e+02 6.822112e+01 1.614649e+02
      vertex   -2.053880e+02 9.422112e+01 1.614649e+02
      vertex   -2.056448e+02 8.436275e+01 1.613191e+02
    endloop
  endfacet
  facet normal -4.957784e-01 7.129082e-05 8.684491e-01
    outer loop
      vertex   -2.056471e+02 6.822116e+01 1.613191e+02
      vertex   -2.053917e+02 6.822112e+01 1.614649e+02
      vertex   -2.056448e+02 8.436275e+01 1.613191e+02
    endloop
  endfacet
  facet normal -4.957784e-01 7.129082e-05 8.684491e-01
    outer loop
      vertex   -2.053880e+02 9.422112e+01 1.614649e+02
      vertex   -2.056433e+02 9.422116e+01 1.613191e+02
      vertex   -2.056448e+02 8.436275e+01 1.613191e+02
    endloop
  endfacet
  facet normal -3.168262e-01 4.555825e-05 9.484836e-01
    outer loop
      vertex   -2.053917e+02 6.822112e+01 1.614649e+02
      vertex   -2.051128e+02 6.822108e+01 1.615581e+02
      vertex   -2.053880e+02 9.422112e+01 1.614649e+02
    endloop
  endfacet
  facet normal -1.256985e-01 1.807490e-05 9.920685e-01
    outer loop
      vertex   -2.051128e+02 6.822108e+01 1.615581e+02
      vertex   -2.048211e+02 6.822104e+01 1.615950e+02
      vertex   -2.051091e+02 9.422108e+01 1.615581e+02
    endloop
  endfacet
  facet normal 7.025976e-02 -1.010305e-05 9.975287e-01
    outer loop
      vertex   -2.048211e+02 6.822104e+01 1.615950e+02
      vertex   -2.045278e+02 6.822099e+01 1.615744e+02
      vertex   -2.048174e+02 9.422104e+01 1.615950e+02
    endloop
  endfacet
  facet normal 2.635179e-01 -3.789276e-05 9.646545e-01
    outer loop
      vertex   -2.045278e+02 6.822099e+01 1.615744e+02
      vertex   -2.042441e+02 6.822095e+01 1.614969e+02
      vertex   -2.045240e+02 9.422099e+01 1.615744e+02
    endloop
  endfacet
  facet normal 7.550405e-01 -1.085716e-04 6.556782e-01
    outer loop
      vertex   -2.037486e+02 6.822088e+01 1.611854e+02
      vertex   -2.035558e+02 6.822085e+01 1.609634e+02
      vertex   -2.037449e+02 9.422088e+01 1.611854e+02
    endloop
  endfacet
  facet normal 8.684491e-01 -1.248793e-04 4.957784e-01
    outer loop
      vertex   -2.035558e+02 6.822085e+01 1.609634e+02
      vertex   -2.034100e+02 6.822083e+01 1.607080e+02
      vertex   -2.035521e+02 9.422085e+01 1.609634e+02
    endloop
  endfacet
  facet normal 9.484836e-01 -1.363879e-04 3.168262e-01
    outer loop
      vertex   -2.034100e+02 6.822083e+01 1.607080e+02
      vertex   -2.033169e+02 6.822082e+01 1.604291e+02
      vertex   -2.034063e+02 9.422083e+01 1.607080e+02
    endloop
  endfacet
  facet normal 9.646545e-01 -1.387132e-04 -2.635179e-01
    outer loop
      vertex   -2.033006e+02 6.822082e+01 1.598441e+02
      vertex   -2.033780e+02 6.822083e+01 1.595604e+02
      vertex   -2.032968e+02 9.422082e+01 1.598441e+02
    endloop
  endfacet
endsolid
