solid ascii
  facet normal -1.437957e-04 -1.000000e+00 -1.728129e-13
    outer loop
      vertex   -2.051843e+02 9.102109e+01 1.610085e+02
      vertex   -2.055026e+02 9.102113e+01 1.607828e+02
      vertex   -2.049984e+02 9.102106e+01 1.610706e+02
    endloop
  endfacet
  facet normal -1.437957e-04 -1.000000e+00 -7.617164e-13
    outer loop
      vertex   -2.051843e+02 9.102109e+01 1.610085e+02
      vertex   -2.053545e+02 9.102111e+01 1.609113e+02
      vertex   -2.055026e+02 9.102113e+01 1.607828e+02
    endloop
  endfacet
  facet normal -1.437957e-04 -1.000000e+00 -1.255172e-13
    outer loop
      vertex   -2.049984e+02 9.102106e+01 1.610706e+02
      vertex   -2.056227e+02 9.102115e+01 1.606278e+02
      vertex   -2.048039e+02 9.102103e+01 1.610952e+02
    endloop
  endfacet
  facet normal -1.437957e-04 -1.000000e+00 -3.435721e-13
    outer loop
      vertex   -2.049984e+02 9.102106e+01 1.610706e+02
      vertex   -2.055026e+02 9.102113e+01 1.607828e+02
      vertex   -2.056227e+02 9.102115e+01 1.606278e+02
    endloop
  endfacet
  facet normal -1.437957e-04 -1.000000e+00 -3.446969e-13
    outer loop
      vertex   -2.048039e+02 9.102103e+01 1.610952e+02
      vertex   -2.057102e+02 9.102116e+01 1.604524e+02
      vertex   -2.046083e+02 9.102101e+01 1.610815e+02
    endloop
  endfacet
  facet normal -1.437957e-04 -1.000000e+00 -2.620280e-13
    outer loop
      vertex   -2.048039e+02 9.102103e+01 1.610952e+02
      vertex   -2.056227e+02 9.102115e+01 1.606278e+02
      vertex   -2.057102e+02 9.102116e+01 1.604524e+02
    endloop
  endfacet
  facet normal -1.437957e-04 -1.000000e+00 -3.754485e-13
    outer loop
      vertex   -2.046083e+02 9.102101e+01 1.610815e+02
      vertex   -2.057619e+02 9.102117e+01 1.602633e+02
      vertex   -2.044192e+02 9.102098e+01 1.610298e+02
    endloop
  endfacet
  facet normal -1.437957e-04 -1.000000e+00 -3.438290e-13
    outer loop
      vertex   -2.046083e+02 9.102101e+01 1.610815e+02
      vertex   -2.057102e+02 9.102116e+01 1.604524e+02
      vertex   -2.057619e+02 9.102117e+01 1.602633e+02
    endloop
  endfacet
  facet normal -1.437957e-04 -1.000000e+00 -2.563913e-13
    outer loop
      vertex   -2.057619e+02 9.102117e+01 1.602633e+02
      vertex   -2.057756e+02 9.102117e+01 1.600678e+02
      vertex   -2.044192e+02 9.102098e+01 1.610298e+02
    endloop
  endfacet
  facet normal -1.437957e-04 -1.000000e+00 -2.805732e-13
    outer loop
      vertex   -2.044192e+02 9.102098e+01 1.610298e+02
      vertex   -2.057756e+02 9.102117e+01 1.600678e+02
      vertex   -2.042438e+02 9.102095e+01 1.609422e+02
    endloop
  endfacet
  facet normal -1.437957e-04 -1.000000e+00 -2.476359e-13
    outer loop
      vertex   -2.042438e+02 9.102095e+01 1.609422e+02
      vertex   -2.057756e+02 9.102117e+01 1.600678e+02
      vertex   -2.057510e+02 9.102117e+01 1.598733e+02
    endloop
  endfacet
  facet normal -1.437957e-04 -1.000000e+00 -3.809461e-13
    outer loop
      vertex   -2.040889e+02 9.102093e+01 1.608221e+02
      vertex   -2.057510e+02 9.102117e+01 1.598733e+02
      vertex   -2.056889e+02 9.102116e+01 1.596874e+02
    endloop
  endfacet
  facet normal -1.437957e-04 -1.000000e+00 -2.448899e-13
    outer loop
      vertex   -2.039604e+02 9.102091e+01 1.606741e+02
      vertex   -2.056889e+02 9.102116e+01 1.596874e+02
      vertex   -2.055917e+02 9.102115e+01 1.595171e+02
    endloop
  endfacet
  facet normal -1.437957e-04 -1.000000e+00 -3.153508e-13
    outer loop
      vertex   -2.038632e+02 9.102090e+01 1.605039e+02
      vertex   -2.055917e+02 9.102115e+01 1.595171e+02
      vertex   -2.054632e+02 9.102113e+01 1.593691e+02
    endloop
  endfacet
  facet normal -1.437957e-04 -1.000000e+00 -2.668891e-13
    outer loop
      vertex   -2.038011e+02 9.102089e+01 1.603180e+02
      vertex   -2.054632e+02 9.102113e+01 1.593691e+02
      vertex   -2.053082e+02 9.102111e+01 1.592490e+02
    endloop
  endfacet
  facet normal -1.437957e-04 -1.000000e+00 -2.805733e-13
    outer loop
      vertex   -2.037764e+02 9.102089e+01 1.601235e+02
      vertex   -2.053082e+02 9.102111e+01 1.592490e+02
      vertex   -2.051328e+02 9.102108e+01 1.591614e+02
    endloop
  endfacet
  facet normal -1.437957e-04 -1.000000e+00 -3.754486e-13
    outer loop
      vertex   -2.037902e+02 9.102089e+01 1.599279e+02
      vertex   -2.051328e+02 9.102108e+01 1.591614e+02
      vertex   -2.049437e+02 9.102105e+01 1.591098e+02
    endloop
  endfacet
  facet normal -1.437957e-04 -1.000000e+00 -3.446968e-13
    outer loop
      vertex   -2.038419e+02 9.102090e+01 1.597388e+02
      vertex   -2.049437e+02 9.102105e+01 1.591098e+02
      vertex   -2.047482e+02 9.102103e+01 1.590960e+02
    endloop
  endfacet
  facet normal -1.437957e-04 -1.000000e+00 -1.255172e-13
    outer loop
      vertex   -2.039294e+02 9.102091e+01 1.595634e+02
      vertex   -2.047482e+02 9.102103e+01 1.590960e+02
      vertex   -2.045537e+02 9.102100e+01 1.591206e+02
    endloop
  endfacet
  facet normal -1.437957e-04 -1.000000e+00 -1.728129e-13
    outer loop
      vertex   -2.040495e+02 9.102093e+01 1.594085e+02
      vertex   -2.045537e+02 9.102100e+01 1.591206e+02
      vertex   -2.043678e+02 9.102097e+01 1.591828e+02
    endloop
  endfacet
  facet normal -1.437957e-04 -1.000000e+00 -7.617163e-13
    outer loop
      vertex   -2.041975e+02 9.102095e+01 1.592799e+02
      vertex   -2.040495e+02 9.102093e+01 1.594085e+02
      vertex   -2.043678e+02 9.102097e+01 1.591828e+02
    endloop
  endfacet
  facet normal -1.437957e-04 -1.000000e+00 -3.435721e-13
    outer loop
      vertex   -2.040495e+02 9.102093e+01 1.594085e+02
      vertex   -2.039294e+02 9.102091e+01 1.595634e+02
      vertex   -2.045537e+02 9.102100e+01 1.591206e+02
    endloop
  endfacet
  facet normal -1.437957e-04 -1.000000e+00 -2.620280e-13
    outer loop
      vertex   -2.039294e+02 9.102091e+01 1.595634e+02
      vertex   -2.038419e+02 9.102090e+01 1.597388e+02
      vertex   -2.047482e+02 9.102103e+01 1.590960e+02
    endloop
  endfacet
  facet normal -1.437957e-04 -1.000000e+00 -3.438290e-13
    outer loop
      vertex   -2.038419e+02 9.102090e+01 1.597388e+02
      vertex   -2.037902e+02 9.102089e+01 1.599279e+02
      vertex   -2.049437e+02 9.102105e+01 1.591098e+02
    endloop
  endfacet
  facet normal -1.437957e-04 -1.000000e+00 -2.563913e-13
    outer loop
      vertex   -2.037902e+02 9.102089e+01 1.599279e+02
      vertex   -2.037764e+02 9.102089e+01 1.601235e+02
      vertex   -2.051328e+02 9.102108e+01 1.591614e+02
    endloop
  endfacet
  facet normal -1.437957e-04 -1.000000e+00 -2.476359e-13
    outer loop
      vertex   -2.037764e+02 9.102089e+01 1.601235e+02
      vertex   -2.038011e+02 9.102089e+01 1.603180e+02
      vertex   -2.053082e+02 9.102111e+01 1.592490e+02
    endloop
  endfacet
  facet normal -1.437957e-04 -1.000000e+00 -3.809461e-13
    outer loop
      vertex   -2.038011e+02 9.102089e+01 1.603180e+02
      vertex   -2.038632e+02 9.102090e+01 1.605039e+02
      vertex   -2.054632e+02 9.102113e+01 1.593691e+02
    endloop
  endfacet
  facet normal -1.437957e-04 -1.000000e+00 -2.449070e-13
    outer loop
      vertex   -2.038632e+02 9.102090e+01 1.605039e+02
      vertex   -2.039604e+02 9.102091e+01 1.606741e+02
      vertex   -2.055917e+02 9.102115e+01 1.595171e+02
    endloop
  endfacet
  facet normal -1.437957e-04 -1.000000e+00 -3.153337e-13
    outer loop
      vertex   -2.056889e+02 9.102116e+01 1.596874e+02
      vertex   -2.039604e+02 9.102091e+01 1.606741e+02
      vertex   -2.040889e+02 9.102093e+01 1.608221e+02
    endloop
  endfacet
  facet normal -1.437957e-04 -1.000000e+00 -2.668891e-13
    outer loop
      vertex   -2.057510e+02 9.102117e+01 1.598733e+02
      vertex   -2.040889e+02 9.102093e+01 1.608221e+02
      vertex   -2.042438e+02 9.102095e+01 1.609422e+02
    endloop
  endfacet
  facet normal 7.550405e-01 -1.085716e-04 6.556782e-01
    outer loop
      vertex   -2.039604e+02 9.102091e+01 1.606741e+02
      vertex   -2.039598e+02 9.495091e+01 1.606741e+02
      vertex   -2.040889e+02 9.102093e+01 1.608221e+02
    endloop
  endfacet
  facet normal 7.550405e-01 -1.085716e-04 6.556782e-01
    outer loop
      vertex   -2.040889e+02 9.102093e+01 1.608221e+02
      vertex   -2.039598e+02 9.495091e+01 1.606741e+02
      vertex   -2.040883e+02 9.495093e+01 1.608221e+02
    endloop
  endfacet
  facet normal 6.126161e-01 -8.809158e-05 7.903806e-01
    outer loop
      vertex   -2.042433e+02 9.495095e+01 1.609422e+02
      vertex   -2.040889e+02 9.102093e+01 1.608221e+02
      vertex   -2.040883e+02 9.495093e+01 1.608221e+02
    endloop
  endfacet
  facet normal 6.126161e-01 -8.809158e-05 7.903806e-01
    outer loop
      vertex   -2.042433e+02 9.495095e+01 1.609422e+02
      vertex   -2.042438e+02 9.102095e+01 1.609422e+02
      vertex   -2.040889e+02 9.102093e+01 1.608221e+02
    endloop
  endfacet
  facet normal 4.466493e-01 -6.422626e-05 8.947091e-01
    outer loop
      vertex   -2.042433e+02 9.495095e+01 1.609422e+02
      vertex   -2.044187e+02 9.495098e+01 1.610298e+02
      vertex   -2.042438e+02 9.102095e+01 1.609422e+02
    endloop
  endfacet
  facet normal 4.466493e-01 -6.422626e-05 8.947091e-01
    outer loop
      vertex   -2.042438e+02 9.102095e+01 1.609422e+02
      vertex   -2.044187e+02 9.495098e+01 1.610298e+02
      vertex   -2.044192e+02 9.102098e+01 1.610298e+02
    endloop
  endfacet
  facet normal 2.635179e-01 -3.789276e-05 9.646545e-01
    outer loop
      vertex   -2.044192e+02 9.102098e+01 1.610298e+02
      vertex   -2.044187e+02 9.495098e+01 1.610298e+02
      vertex   -2.046078e+02 9.495101e+01 1.610815e+02
    endloop
  endfacet
  facet normal 7.025976e-02 -1.010305e-05 9.975287e-01
    outer loop
      vertex   -2.046083e+02 9.102101e+01 1.610815e+02
      vertex   -2.046078e+02 9.495101e+01 1.610815e+02
      vertex   -2.048033e+02 9.495103e+01 1.610952e+02
    endloop
  endfacet
  facet normal -1.256985e-01 1.807490e-05 9.920685e-01
    outer loop
      vertex   -2.048039e+02 9.102103e+01 1.610952e+02
      vertex   -2.048033e+02 9.495103e+01 1.610952e+02
      vertex   -2.049984e+02 9.102106e+01 1.610706e+02
    endloop
  endfacet
  facet normal 7.025976e-02 -1.010305e-05 9.975287e-01
    outer loop
      vertex   -2.048039e+02 9.102103e+01 1.610952e+02
      vertex   -2.046083e+02 9.102101e+01 1.610815e+02
      vertex   -2.048033e+02 9.495103e+01 1.610952e+02
    endloop
  endfacet
  facet normal -1.256985e-01 1.807490e-05 9.920685e-01
    outer loop
      vertex   -2.048033e+02 9.495103e+01 1.610952e+02
      vertex   -2.049978e+02 9.495106e+01 1.610706e+02
      vertex   -2.049984e+02 9.102106e+01 1.610706e+02
    endloop
  endfacet
  facet normal -3.168262e-01 4.555825e-05 9.484836e-01
    outer loop
      vertex   -2.049984e+02 9.102106e+01 1.610706e+02
      vertex   -2.049978e+02 9.495106e+01 1.610706e+02
      vertex   -2.051837e+02 9.495109e+01 1.610085e+02
    endloop
  endfacet
  facet normal -4.957784e-01 7.129082e-05 8.684491e-01
    outer loop
      vertex   -2.051843e+02 9.102109e+01 1.610085e+02
      vertex   -2.051837e+02 9.495109e+01 1.610085e+02
      vertex   -2.053540e+02 9.495111e+01 1.609113e+02
    endloop
  endfacet
  facet normal -6.556782e-01 9.428372e-05 7.550405e-01
    outer loop
      vertex   -2.053545e+02 9.102111e+01 1.609113e+02
      vertex   -2.053540e+02 9.495111e+01 1.609113e+02
      vertex   -2.055020e+02 9.495113e+01 1.607828e+02
    endloop
  endfacet
  facet normal -7.903806e-01 1.136534e-04 6.126161e-01
    outer loop
      vertex   -2.055026e+02 9.102113e+01 1.607828e+02
      vertex   -2.055020e+02 9.495113e+01 1.607828e+02
      vertex   -2.056221e+02 9.495115e+01 1.606278e+02
    endloop
  endfacet
  facet normal -8.947091e-01 1.286554e-04 4.466493e-01
    outer loop
      vertex   -2.056227e+02 9.102115e+01 1.606278e+02
      vertex   -2.056221e+02 9.495115e+01 1.606278e+02
      vertex   -2.057102e+02 9.102116e+01 1.604524e+02
    endloop
  endfacet
  facet normal -7.903806e-01 1.136534e-04 6.126161e-01
    outer loop
      vertex   -2.056227e+02 9.102115e+01 1.606278e+02
      vertex   -2.055026e+02 9.102113e+01 1.607828e+02
      vertex   -2.056221e+02 9.495115e+01 1.606278e+02
    endloop
  endfacet
  facet normal -8.947091e-01 1.286554e-04 4.466493e-01
    outer loop
      vertex   -2.056221e+02 9.495115e+01 1.606278e+02
      vertex   -2.057097e+02 9.495116e+01 1.604524e+02
      vertex   -2.057102e+02 9.102116e+01 1.604524e+02
    endloop
  endfacet
  facet normal -9.646545e-01 1.387132e-04 2.635179e-01
    outer loop
      vertex   -2.057102e+02 9.102116e+01 1.604524e+02
      vertex   -2.057097e+02 9.495116e+01 1.604524e+02
      vertex   -2.057613e+02 9.495117e+01 1.602633e+02
    endloop
  endfacet
  facet normal -9.975287e-01 1.434404e-04 7.025976e-02
    outer loop
      vertex   -2.057619e+02 9.102117e+01 1.602633e+02
      vertex   -2.057613e+02 9.495117e+01 1.602633e+02
      vertex   -2.057751e+02 9.495117e+01 1.600678e+02
    endloop
  endfacet
  facet normal -9.920685e-01 1.426552e-04 -1.256985e-01
    outer loop
      vertex   -2.057756e+02 9.102117e+01 1.600678e+02
      vertex   -2.057751e+02 9.495117e+01 1.600678e+02
      vertex   -2.057504e+02 9.495117e+01 1.598733e+02
    endloop
  endfacet
  facet normal -9.484836e-01 1.363879e-04 -3.168262e-01
    outer loop
      vertex   -2.057510e+02 9.102117e+01 1.598733e+02
      vertex   -2.057504e+02 9.495117e+01 1.598733e+02
      vertex   -2.056883e+02 9.495116e+01 1.596874e+02
    endloop
  endfacet
  facet normal -8.684491e-01 1.248793e-04 -4.957784e-01
    outer loop
      vertex   -2.056889e+02 9.102116e+01 1.596874e+02
      vertex   -2.056883e+02 9.495116e+01 1.596874e+02
      vertex   -2.055917e+02 9.102115e+01 1.595171e+02
    endloop
  endfacet
  facet normal -9.484836e-01 1.363879e-04 -3.168262e-01
    outer loop
      vertex   -2.056889e+02 9.102116e+01 1.596874e+02
      vertex   -2.057510e+02 9.102117e+01 1.598733e+02
      vertex   -2.056883e+02 9.495116e+01 1.596874e+02
    endloop
  endfacet
  facet normal -8.684491e-01 1.248793e-04 -4.957784e-01
    outer loop
      vertex   -2.056883e+02 9.495116e+01 1.596874e+02
      vertex   -2.055911e+02 9.495115e+01 1.595171e+02
      vertex   -2.055917e+02 9.102115e+01 1.595171e+02
    endloop
  endfacet
  facet normal -9.920685e-01 1.426552e-04 -1.256985e-01
    outer loop
      vertex   -2.057510e+02 9.102117e+01 1.598733e+02
      vertex   -2.057756e+02 9.102117e+01 1.600678e+02
      vertex   -2.057504e+02 9.495117e+01 1.598733e+02
    endloop
  endfacet
  facet normal -9.975287e-01 1.434404e-04 7.025976e-02
    outer loop
      vertex   -2.057756e+02 9.102117e+01 1.600678e+02
      vertex   -2.057619e+02 9.102117e+01 1.602633e+02
      vertex   -2.057751e+02 9.495117e+01 1.600678e+02
    endloop
  endfacet
  facet normal -9.646545e-01 1.387132e-04 2.635179e-01
    outer loop
      vertex   -2.057619e+02 9.102117e+01 1.602633e+02
      vertex   -2.057102e+02 9.102116e+01 1.604524e+02
      vertex   -2.057613e+02 9.495117e+01 1.602633e+02
    endloop
  endfacet
  facet normal -6.556782e-01 9.428372e-05 7.550405e-01
    outer loop
      vertex   -2.055026e+02 9.102113e+01 1.607828e+02
      vertex   -2.053545e+02 9.102111e+01 1.609113e+02
      vertex   -2.055020e+02 9.495113e+01 1.607828e+02
    endloop
  endfacet
  facet normal -4.957784e-01 7.129082e-05 8.684491e-01
    outer loop
      vertex   -2.053545e+02 9.102111e+01 1.609113e+02
      vertex   -2.051843e+02 9.102109e+01 1.610085e+02
      vertex   -2.053540e+02 9.495111e+01 1.609113e+02
    endloop
  endfacet
  facet normal -3.168262e-01 4.555825e-05 9.484836e-01
    outer loop
      vertex   -2.051843e+02 9.102109e+01 1.610085e+02
      vertex   -2.049984e+02 9.102106e+01 1.610706e+02
      vertex   -2.051837e+02 9.495109e+01 1.610085e+02
    endloop
  endfacet
  facet normal 2.635179e-01 -3.789276e-05 9.646545e-01
    outer loop
      vertex   -2.046083e+02 9.102101e+01 1.610815e+02
      vertex   -2.044192e+02 9.102098e+01 1.610298e+02
      vertex   -2.046078e+02 9.495101e+01 1.610815e+02
    endloop
  endfacet
  facet normal -9.317159e-02 1.339768e-05 9.956501e-01
    outer loop
      vertex   -2.050464e+02 9.622107e+01 1.595049e+02
      vertex   -2.050466e+02 9.502107e+01 1.595049e+02
      vertex   -2.043993e+02 9.622098e+01 1.595654e+02
    endloop
  endfacet
  facet normal -9.317159e-02 1.339768e-05 9.956501e-01
    outer loop
      vertex   -2.043993e+02 9.622098e+01 1.595654e+02
      vertex   -2.050466e+02 9.502107e+01 1.595049e+02
      vertex   -2.043994e+02 9.502098e+01 1.595654e+02
    endloop
  endfacet
  facet normal 5.257006e-01 -7.177377e-01 4.566087e-01
    outer loop
      vertex   -2.039598e+02 9.495091e+01 1.606741e+02
      vertex   -2.032256e+02 9.581993e+01 1.611948e+02
      vertex   -2.040883e+02 9.495093e+01 1.608221e+02
    endloop
  endfacet
  facet normal 5.257006e-01 -7.177377e-01 4.566087e-01
    outer loop
      vertex   -2.040883e+02 9.495093e+01 1.608221e+02
      vertex   -2.032256e+02 9.581993e+01 1.611948e+02
      vertex   -2.034698e+02 9.581996e+01 1.614760e+02
    endloop
  endfacet
  facet normal 4.265175e-01 -7.177234e-01 5.504143e-01
    outer loop
      vertex   -2.037642e+02 9.582000e+01 1.617042e+02
      vertex   -2.040883e+02 9.495093e+01 1.608221e+02
      vertex   -2.034698e+02 9.581996e+01 1.614760e+02
    endloop
  endfacet
  facet normal 4.265175e-01 -7.177234e-01 5.504143e-01
    outer loop
      vertex   -2.037642e+02 9.582000e+01 1.617042e+02
      vertex   -2.042433e+02 9.495095e+01 1.609422e+02
      vertex   -2.040883e+02 9.495093e+01 1.608221e+02
    endloop
  endfacet
  facet normal 3.109396e-01 -7.177068e-01 6.230679e-01
    outer loop
      vertex   -2.037642e+02 9.582000e+01 1.617042e+02
      vertex   -2.040974e+02 9.582005e+01 1.618706e+02
      vertex   -2.042433e+02 9.495095e+01 1.609422e+02
    endloop
  endfacet
  facet normal 3.109396e-01 -7.177068e-01 6.230679e-01
    outer loop
      vertex   -2.042433e+02 9.495095e+01 1.609422e+02
      vertex   -2.040974e+02 9.582005e+01 1.618706e+02
      vertex   -2.044187e+02 9.495098e+01 1.610298e+02
    endloop
  endfacet
  facet normal 1.834085e-01 -7.176885e-01 6.717772e-01
    outer loop
      vertex   -2.044187e+02 9.495098e+01 1.610298e+02
      vertex   -2.040974e+02 9.582005e+01 1.618706e+02
      vertex   -2.044567e+02 9.582010e+01 1.619687e+02
    endloop
  endfacet
  facet normal 4.882511e-02 -7.176691e-01 6.946705e-01
    outer loop
      vertex   -2.046078e+02 9.495101e+01 1.610815e+02
      vertex   -2.044567e+02 9.582010e+01 1.619687e+02
      vertex   -2.048283e+02 9.582016e+01 1.619949e+02
    endloop
  endfacet
  facet normal -8.763854e-02 -7.176495e-01 6.908681e-01
    outer loop
      vertex   -2.048033e+02 9.495103e+01 1.610952e+02
      vertex   -2.048283e+02 9.582016e+01 1.619949e+02
      vertex   -2.049978e+02 9.495106e+01 1.610706e+02
    endloop
  endfacet
  facet normal 4.882511e-02 -7.176691e-01 6.946705e-01
    outer loop
      vertex   -2.048033e+02 9.495103e+01 1.610952e+02
      vertex   -2.046078e+02 9.495101e+01 1.610815e+02
      vertex   -2.048283e+02 9.582016e+01 1.619949e+02
    endloop
  endfacet
  facet normal -8.763854e-02 -7.176495e-01 6.908681e-01
    outer loop
      vertex   -2.048283e+02 9.582016e+01 1.619949e+02
      vertex   -2.051978e+02 9.582021e+01 1.619481e+02
      vertex   -2.049978e+02 9.495106e+01 1.610706e+02
    endloop
  endfacet
  facet normal -2.207382e-01 -7.176303e-01 6.605160e-01
    outer loop
      vertex   -2.049978e+02 9.495106e+01 1.610706e+02
      vertex   -2.051978e+02 9.582021e+01 1.619481e+02
      vertex   -2.055511e+02 9.582026e+01 1.618301e+02
    endloop
  endfacet
  facet normal -3.453591e-01 -7.176124e-01 6.047806e-01
    outer loop
      vertex   -2.051837e+02 9.495109e+01 1.610085e+02
      vertex   -2.055511e+02 9.582026e+01 1.618301e+02
      vertex   -2.058745e+02 9.582031e+01 1.616454e+02
    endloop
  endfacet
  facet normal -4.567119e-01 -7.175964e-01 5.258038e-01
    outer loop
      vertex   -2.053540e+02 9.495111e+01 1.609113e+02
      vertex   -2.058745e+02 9.582031e+01 1.616454e+02
      vertex   -2.061557e+02 9.582035e+01 1.614012e+02
    endloop
  endfacet
  facet normal -5.505175e-01 -7.175829e-01 4.266207e-01
    outer loop
      vertex   -2.055020e+02 9.495113e+01 1.607828e+02
      vertex   -2.061557e+02 9.582035e+01 1.614012e+02
      vertex   -2.063839e+02 9.582038e+01 1.611068e+02
    endloop
  endfacet
  facet normal -6.231710e-01 -7.175725e-01 3.110428e-01
    outer loop
      vertex   -2.056221e+02 9.495115e+01 1.606278e+02
      vertex   -2.063839e+02 9.582038e+01 1.611068e+02
      vertex   -2.057097e+02 9.495116e+01 1.604524e+02
    endloop
  endfacet
  facet normal -5.505175e-01 -7.175829e-01 4.266207e-01
    outer loop
      vertex   -2.056221e+02 9.495115e+01 1.606278e+02
      vertex   -2.055020e+02 9.495113e+01 1.607828e+02
      vertex   -2.063839e+02 9.582038e+01 1.611068e+02
    endloop
  endfacet
  facet normal -6.231710e-01 -7.175725e-01 3.110428e-01
    outer loop
      vertex   -2.063839e+02 9.582038e+01 1.611068e+02
      vertex   -2.065503e+02 9.582041e+01 1.607735e+02
      vertex   -2.057097e+02 9.495116e+01 1.604524e+02
    endloop
  endfacet
  facet normal -6.718804e-01 -7.175655e-01 1.835117e-01
    outer loop
      vertex   -2.057097e+02 9.495116e+01 1.604524e+02
      vertex   -2.065503e+02 9.582041e+01 1.607735e+02
      vertex   -2.066484e+02 9.582042e+01 1.604142e+02
    endloop
  endfacet
  facet normal -6.947737e-01 -7.175622e-01 4.892830e-02
    outer loop
      vertex   -2.057613e+02 9.495117e+01 1.602633e+02
      vertex   -2.066484e+02 9.582042e+01 1.604142e+02
      vertex   -2.066746e+02 9.582042e+01 1.600427e+02
    endloop
  endfacet
  facet normal -6.909713e-01 -7.175627e-01 -8.753534e-02
    outer loop
      vertex   -2.057751e+02 9.495117e+01 1.600678e+02
      vertex   -2.066746e+02 9.582042e+01 1.600427e+02
      vertex   -2.066278e+02 9.582042e+01 1.596732e+02
    endloop
  endfacet
  facet normal -6.606191e-01 -7.175671e-01 -2.206351e-01
    outer loop
      vertex   -2.057504e+02 9.495117e+01 1.598733e+02
      vertex   -2.066278e+02 9.582042e+01 1.596732e+02
      vertex   -2.065098e+02 9.582040e+01 1.593199e+02
    endloop
  endfacet
  facet normal -6.048838e-01 -7.175751e-01 -3.452559e-01
    outer loop
      vertex   -2.056883e+02 9.495116e+01 1.596874e+02
      vertex   -2.065098e+02 9.582040e+01 1.593199e+02
      vertex   -2.055911e+02 9.495115e+01 1.595171e+02
    endloop
  endfacet
  facet normal -6.606191e-01 -7.175671e-01 -2.206351e-01
    outer loop
      vertex   -2.056883e+02 9.495116e+01 1.596874e+02
      vertex   -2.057504e+02 9.495117e+01 1.598733e+02
      vertex   -2.065098e+02 9.582040e+01 1.593199e+02
    endloop
  endfacet
  facet normal -6.048838e-01 -7.175751e-01 -3.452559e-01
    outer loop
      vertex   -2.065098e+02 9.582040e+01 1.593199e+02
      vertex   -2.063251e+02 9.582037e+01 1.589964e+02
      vertex   -2.055911e+02 9.495115e+01 1.595171e+02
    endloop
  endfacet
  facet normal -6.909713e-01 -7.175627e-01 -8.753534e-02
    outer loop
      vertex   -2.057504e+02 9.495117e+01 1.598733e+02
      vertex   -2.057751e+02 9.495117e+01 1.600678e+02
      vertex   -2.066278e+02 9.582042e+01 1.596732e+02
    endloop
  endfacet
  facet normal -6.947737e-01 -7.175622e-01 4.892830e-02
    outer loop
      vertex   -2.057751e+02 9.495117e+01 1.600678e+02
      vertex   -2.057613e+02 9.495117e+01 1.602633e+02
      vertex   -2.066746e+02 9.582042e+01 1.600427e+02
    endloop
  endfacet
  facet normal -6.718804e-01 -7.175655e-01 1.835117e-01
    outer loop
      vertex   -2.057613e+02 9.495117e+01 1.602633e+02
      vertex   -2.057097e+02 9.495116e+01 1.604524e+02
      vertex   -2.066484e+02 9.582042e+01 1.604142e+02
    endloop
  endfacet
  facet normal -4.567119e-01 -7.175964e-01 5.258038e-01
    outer loop
      vertex   -2.055020e+02 9.495113e+01 1.607828e+02
      vertex   -2.053540e+02 9.495111e+01 1.609113e+02
      vertex   -2.061557e+02 9.582035e+01 1.614012e+02
    endloop
  endfacet
  facet normal -3.453591e-01 -7.176124e-01 6.047806e-01
    outer loop
      vertex   -2.053540e+02 9.495111e+01 1.609113e+02
      vertex   -2.051837e+02 9.495109e+01 1.610085e+02
      vertex   -2.058745e+02 9.582031e+01 1.616454e+02
    endloop
  endfacet
  facet normal -2.207382e-01 -7.176303e-01 6.605160e-01
    outer loop
      vertex   -2.051837e+02 9.495109e+01 1.610085e+02
      vertex   -2.049978e+02 9.495106e+01 1.610706e+02
      vertex   -2.055511e+02 9.582026e+01 1.618301e+02
    endloop
  endfacet
  facet normal 1.834085e-01 -7.176885e-01 6.717772e-01
    outer loop
      vertex   -2.046078e+02 9.495101e+01 1.610815e+02
      vertex   -2.044187e+02 9.495098e+01 1.610298e+02
      vertex   -2.044567e+02 9.582010e+01 1.619687e+02
    endloop
  endfacet
  facet normal 8.156724e-01 -1.172902e-04 5.785140e-01
    outer loop
      vertex   -2.054225e+02 9.622112e+01 1.600351e+02
      vertex   -2.054226e+02 9.502112e+01 1.600351e+02
      vertex   -2.050464e+02 9.622107e+01 1.595049e+02
    endloop
  endfacet
  facet normal 8.156724e-01 -1.172902e-04 5.785140e-01
    outer loop
      vertex   -2.050464e+02 9.622107e+01 1.595049e+02
      vertex   -2.054226e+02 9.502112e+01 1.600351e+02
      vertex   -2.050466e+02 9.502107e+01 1.595049e+02
    endloop
  endfacet
  facet normal -8.684491e-01 1.248793e-04 -4.957784e-01
    outer loop
      vertex   -2.063251e+02 9.622125e+01 1.589964e+02
      vertex   -2.063251e+02 9.582037e+01 1.589964e+02
      vertex   -2.065097e+02 9.622128e+01 1.593199e+02
    endloop
  endfacet
  facet normal -8.684491e-01 1.248793e-04 -4.957784e-01
    outer loop
      vertex   -2.065097e+02 9.622128e+01 1.593199e+02
      vertex   -2.063251e+02 9.582037e+01 1.589964e+02
      vertex   -2.065098e+02 9.582040e+01 1.593199e+02
    endloop
  endfacet
  facet normal -9.484836e-01 1.363879e-04 -3.168262e-01
    outer loop
      vertex   -2.066278e+02 9.582042e+01 1.596732e+02
      vertex   -2.065097e+02 9.622128e+01 1.593199e+02
      vertex   -2.065098e+02 9.582040e+01 1.593199e+02
    endloop
  endfacet
  facet normal -9.484836e-01 1.363879e-04 -3.168262e-01
    outer loop
      vertex   -2.066278e+02 9.582042e+01 1.596732e+02
      vertex   -2.066277e+02 9.622130e+01 1.596732e+02
      vertex   -2.065097e+02 9.622128e+01 1.593199e+02
    endloop
  endfacet
  facet normal -9.920685e-01 1.426552e-04 -1.256985e-01
    outer loop
      vertex   -2.066278e+02 9.582042e+01 1.596732e+02
      vertex   -2.066746e+02 9.582042e+01 1.600427e+02
      vertex   -2.066277e+02 9.622130e+01 1.596732e+02
    endloop
  endfacet
  facet normal -9.920685e-01 1.426552e-04 -1.256985e-01
    outer loop
      vertex   -2.066277e+02 9.622130e+01 1.596732e+02
      vertex   -2.066746e+02 9.582042e+01 1.600427e+02
      vertex   -2.066746e+02 9.622130e+01 1.600427e+02
    endloop
  endfacet
  facet normal -9.975287e-01 1.434404e-04 7.025976e-02
    outer loop
      vertex   -2.066746e+02 9.622130e+01 1.600427e+02
      vertex   -2.066746e+02 9.582042e+01 1.600427e+02
      vertex   -2.066484e+02 9.582042e+01 1.604142e+02
    endloop
  endfacet
  facet normal -9.646545e-01 1.387132e-04 2.635179e-01
    outer loop
      vertex   -2.066484e+02 9.622130e+01 1.604142e+02
      vertex   -2.066484e+02 9.582042e+01 1.604142e+02
      vertex   -2.065503e+02 9.582041e+01 1.607735e+02
    endloop
  endfacet
  facet normal -8.947091e-01 1.286554e-04 4.466493e-01
    outer loop
      vertex   -2.065502e+02 9.622129e+01 1.607735e+02
      vertex   -2.065503e+02 9.582041e+01 1.607735e+02
      vertex   -2.063839e+02 9.622126e+01 1.611068e+02
    endloop
  endfacet
  facet normal -9.646545e-01 1.387132e-04 2.635179e-01
    outer loop
      vertex   -2.065502e+02 9.622129e+01 1.607735e+02
      vertex   -2.066484e+02 9.622130e+01 1.604142e+02
      vertex   -2.065503e+02 9.582041e+01 1.607735e+02
    endloop
  endfacet
  facet normal -8.947091e-01 1.286554e-04 4.466493e-01
    outer loop
      vertex   -2.065503e+02 9.582041e+01 1.607735e+02
      vertex   -2.063839e+02 9.582038e+01 1.611068e+02
      vertex   -2.063839e+02 9.622126e+01 1.611068e+02
    endloop
  endfacet
  facet normal -7.903806e-01 1.136534e-04 6.126161e-01
    outer loop
      vertex   -2.063839e+02 9.622126e+01 1.611068e+02
      vertex   -2.063839e+02 9.582038e+01 1.611068e+02
      vertex   -2.061557e+02 9.582035e+01 1.614012e+02
    endloop
  endfacet
  facet normal -6.556782e-01 9.428372e-05 7.550405e-01
    outer loop
      vertex   -2.061557e+02 9.622123e+01 1.614012e+02
      vertex   -2.061557e+02 9.582035e+01 1.614012e+02
      vertex   -2.058745e+02 9.582031e+01 1.616454e+02
    endloop
  endfacet
  facet normal -4.957784e-01 7.129082e-05 8.684491e-01
    outer loop
      vertex   -2.058745e+02 9.622119e+01 1.616454e+02
      vertex   -2.058745e+02 9.582031e+01 1.616454e+02
      vertex   -2.055511e+02 9.582026e+01 1.618301e+02
    endloop
  endfacet
  facet normal -3.168262e-01 4.555825e-05 9.484836e-01
    outer loop
      vertex   -2.055510e+02 9.622114e+01 1.618301e+02
      vertex   -2.055511e+02 9.582026e+01 1.618301e+02
      vertex   -2.051978e+02 9.582021e+01 1.619481e+02
    endloop
  endfacet
  facet normal -1.256985e-01 1.807490e-05 9.920685e-01
    outer loop
      vertex   -2.051977e+02 9.622109e+01 1.619481e+02
      vertex   -2.051978e+02 9.582021e+01 1.619481e+02
      vertex   -2.048282e+02 9.622104e+01 1.619949e+02
    endloop
  endfacet
  facet normal -3.168262e-01 4.555825e-05 9.484836e-01
    outer loop
      vertex   -2.051977e+02 9.622109e+01 1.619481e+02
      vertex   -2.055510e+02 9.622114e+01 1.618301e+02
      vertex   -2.051978e+02 9.582021e+01 1.619481e+02
    endloop
  endfacet
  facet normal -1.256985e-01 1.807490e-05 9.920685e-01
    outer loop
      vertex   -2.051978e+02 9.582021e+01 1.619481e+02
      vertex   -2.048283e+02 9.582016e+01 1.619949e+02
      vertex   -2.048282e+02 9.622104e+01 1.619949e+02
    endloop
  endfacet
  facet normal 7.025976e-02 -1.010305e-05 9.975287e-01
    outer loop
      vertex   -2.048282e+02 9.622104e+01 1.619949e+02
      vertex   -2.048283e+02 9.582016e+01 1.619949e+02
      vertex   -2.044567e+02 9.582010e+01 1.619687e+02
    endloop
  endfacet
  facet normal 2.635179e-01 -3.789276e-05 9.646545e-01
    outer loop
      vertex   -2.044567e+02 9.622098e+01 1.619687e+02
      vertex   -2.044567e+02 9.582010e+01 1.619687e+02
      vertex   -2.040974e+02 9.582005e+01 1.618706e+02
    endloop
  endfacet
  facet normal 4.466493e-01 -6.422626e-05 8.947091e-01
    outer loop
      vertex   -2.040974e+02 9.622093e+01 1.618706e+02
      vertex   -2.040974e+02 9.582005e+01 1.618706e+02
      vertex   -2.037642e+02 9.582000e+01 1.617042e+02
    endloop
  endfacet
  facet normal 6.126161e-01 -8.809158e-05 7.903806e-01
    outer loop
      vertex   -2.037641e+02 9.622088e+01 1.617042e+02
      vertex   -2.037642e+02 9.582000e+01 1.617042e+02
      vertex   -2.034698e+02 9.581996e+01 1.614760e+02
    endloop
  endfacet
  facet normal 7.550405e-01 -1.085716e-04 6.556782e-01
    outer loop
      vertex   -2.034697e+02 9.622084e+01 1.614760e+02
      vertex   -2.034698e+02 9.581996e+01 1.614760e+02
      vertex   -2.032255e+02 9.622081e+01 1.611948e+02
    endloop
  endfacet
  facet normal 6.126161e-01 -8.809158e-05 7.903806e-01
    outer loop
      vertex   -2.034697e+02 9.622084e+01 1.614760e+02
      vertex   -2.037641e+02 9.622088e+01 1.617042e+02
      vertex   -2.034698e+02 9.581996e+01 1.614760e+02
    endloop
  endfacet
  facet normal 7.550405e-01 -1.085716e-04 6.556782e-01
    outer loop
      vertex   -2.034698e+02 9.581996e+01 1.614760e+02
      vertex   -2.032256e+02 9.581993e+01 1.611948e+02
      vertex   -2.032255e+02 9.622081e+01 1.611948e+02
    endloop
  endfacet
  facet normal 4.466493e-01 -6.422626e-05 8.947091e-01
    outer loop
      vertex   -2.037641e+02 9.622088e+01 1.617042e+02
      vertex   -2.040974e+02 9.622093e+01 1.618706e+02
      vertex   -2.037642e+02 9.582000e+01 1.617042e+02
    endloop
  endfacet
  facet normal 2.635179e-01 -3.789276e-05 9.646545e-01
    outer loop
      vertex   -2.040974e+02 9.622093e+01 1.618706e+02
      vertex   -2.044567e+02 9.622098e+01 1.619687e+02
      vertex   -2.040974e+02 9.582005e+01 1.618706e+02
    endloop
  endfacet
  facet normal 7.025976e-02 -1.010305e-05 9.975287e-01
    outer loop
      vertex   -2.044567e+02 9.622098e+01 1.619687e+02
      vertex   -2.048282e+02 9.622104e+01 1.619949e+02
      vertex   -2.044567e+02 9.582010e+01 1.619687e+02
    endloop
  endfacet
  facet normal -4.957784e-01 7.129082e-05 8.684491e-01
    outer loop
      vertex   -2.055510e+02 9.622114e+01 1.618301e+02
      vertex   -2.058745e+02 9.622119e+01 1.616454e+02
      vertex   -2.055511e+02 9.582026e+01 1.618301e+02
    endloop
  endfacet
  facet normal -6.556782e-01 9.428372e-05 7.550405e-01
    outer loop
      vertex   -2.058745e+02 9.622119e+01 1.616454e+02
      vertex   -2.061557e+02 9.622123e+01 1.614012e+02
      vertex   -2.058745e+02 9.582031e+01 1.616454e+02
    endloop
  endfacet
  facet normal -7.903806e-01 1.136534e-04 6.126161e-01
    outer loop
      vertex   -2.061557e+02 9.622123e+01 1.614012e+02
      vertex   -2.063839e+02 9.622126e+01 1.611068e+02
      vertex   -2.061557e+02 9.582035e+01 1.614012e+02
    endloop
  endfacet
  facet normal -9.975287e-01 1.434404e-04 7.025976e-02
    outer loop
      vertex   -2.066484e+02 9.622130e+01 1.604142e+02
      vertex   -2.066746e+02 9.622130e+01 1.600427e+02
      vertex   -2.066484e+02 9.582042e+01 1.604142e+02
    endloop
  endfacet
  facet normal 1.437957e-04 1.000000e+00 2.762413e-13
    outer loop
      vertex   -2.045043e+02 9.502099e+01 1.606864e+02
      vertex   -2.041283e+02 9.502094e+01 1.601562e+02
      vertex   -2.051515e+02 9.502108e+01 1.606258e+02
    endloop
  endfacet
  facet normal 1.437957e-04 1.000000e+00 2.961169e-13
    outer loop
      vertex   -2.051515e+02 9.502108e+01 1.606258e+02
      vertex   -2.041283e+02 9.502094e+01 1.601562e+02
      vertex   -2.043994e+02 9.502098e+01 1.595654e+02
    endloop
  endfacet
  facet normal 1.437957e-04 1.000000e+00 3.159811e-13
    outer loop
      vertex   -2.054226e+02 9.502112e+01 1.600351e+02
      vertex   -2.043994e+02 9.502098e+01 1.595654e+02
      vertex   -2.050466e+02 9.502107e+01 1.595049e+02
    endloop
  endfacet
  facet normal 1.437957e-04 1.000000e+00 2.961169e-13
    outer loop
      vertex   -2.054226e+02 9.502112e+01 1.600351e+02
      vertex   -2.051515e+02 9.502108e+01 1.606258e+02
      vertex   -2.043994e+02 9.502098e+01 1.595654e+02
    endloop
  endfacet
  facet normal 1.437957e-04 1.000000e+00 3.621805e-13
    outer loop
      vertex   -2.065097e+02 9.622128e+01 1.593199e+02
      vertex   -2.054225e+02 9.622112e+01 1.600351e+02
      vertex   -2.063251e+02 9.622125e+01 1.589964e+02
    endloop
  endfacet
  facet normal 1.437957e-04 1.000000e+00 2.755432e-13
    outer loop
      vertex   -2.065097e+02 9.622128e+01 1.593199e+02
      vertex   -2.066277e+02 9.622130e+01 1.596732e+02
      vertex   -2.054225e+02 9.622112e+01 1.600351e+02
    endloop
  endfacet
  facet normal 1.437957e-04 1.000000e+00 2.764928e-13
    outer loop
      vertex   -2.054225e+02 9.622112e+01 1.600351e+02
      vertex   -2.066277e+02 9.622130e+01 1.596732e+02
      vertex   -2.066746e+02 9.622130e+01 1.600427e+02
    endloop
  endfacet
  facet normal 1.437957e-04 1.000000e+00 2.709632e-13
    outer loop
      vertex   -2.066484e+02 9.622130e+01 1.604142e+02
      vertex   -2.054225e+02 9.622112e+01 1.600351e+02
      vertex   -2.066746e+02 9.622130e+01 1.600427e+02
    endloop
  endfacet
  facet normal 1.437957e-04 1.000000e+00 3.231094e-13
    outer loop
      vertex   -2.066484e+02 9.622130e+01 1.604142e+02
      vertex   -2.065502e+02 9.622129e+01 1.607735e+02
      vertex   -2.054225e+02 9.622112e+01 1.600351e+02
    endloop
  endfacet
  facet normal 1.437957e-04 1.000000e+00 3.046658e-13
    outer loop
      vertex   -2.054225e+02 9.622112e+01 1.600351e+02
      vertex   -2.065502e+02 9.622129e+01 1.607735e+02
      vertex   -2.051513e+02 9.622108e+01 1.606258e+02
    endloop
  endfacet
  facet normal 1.437957e-04 1.000000e+00 2.970666e-13
    outer loop
      vertex   -2.051513e+02 9.622108e+01 1.606258e+02
      vertex   -2.065502e+02 9.622129e+01 1.607735e+02
      vertex   -2.063839e+02 9.622126e+01 1.611068e+02
    endloop
  endfacet
  facet normal 1.437957e-04 1.000000e+00 2.927730e-13
    outer loop
      vertex   -2.061557e+02 9.622123e+01 1.614012e+02
      vertex   -2.051513e+02 9.622108e+01 1.606258e+02
      vertex   -2.063839e+02 9.622126e+01 1.611068e+02
    endloop
  endfacet
  facet normal 1.437957e-04 1.000000e+00 3.109060e-13
    outer loop
      vertex   -2.061557e+02 9.622123e+01 1.614012e+02
      vertex   -2.058745e+02 9.622119e+01 1.616454e+02
      vertex   -2.051513e+02 9.622108e+01 1.606258e+02
    endloop
  endfacet
  facet normal 1.437957e-04 1.000000e+00 3.120634e-13
    outer loop
      vertex   -2.051513e+02 9.622108e+01 1.606258e+02
      vertex   -2.058745e+02 9.622119e+01 1.616454e+02
      vertex   -2.055510e+02 9.622114e+01 1.618301e+02
    endloop
  endfacet
  facet normal 1.437957e-04 1.000000e+00 3.076555e-13
    outer loop
      vertex   -2.051977e+02 9.622109e+01 1.619481e+02
      vertex   -2.051513e+02 9.622108e+01 1.606258e+02
      vertex   -2.055510e+02 9.622114e+01 1.618301e+02
    endloop
  endfacet
  facet normal 1.437957e-04 1.000000e+00 3.076414e-13
    outer loop
      vertex   -2.051977e+02 9.622109e+01 1.619481e+02
      vertex   -2.048282e+02 9.622104e+01 1.619949e+02
      vertex   -2.051513e+02 9.622108e+01 1.606258e+02
    endloop
  endfacet
  facet normal 1.437957e-04 1.000000e+00 3.059277e-13
    outer loop
      vertex   -2.051513e+02 9.622108e+01 1.606258e+02
      vertex   -2.048282e+02 9.622104e+01 1.619949e+02
      vertex   -2.045041e+02 9.622099e+01 1.606864e+02
    endloop
  endfacet
  facet normal 1.437957e-04 1.000000e+00 3.154508e-13
    outer loop
      vertex   -2.045041e+02 9.622099e+01 1.606864e+02
      vertex   -2.048282e+02 9.622104e+01 1.619949e+02
      vertex   -2.044567e+02 9.622098e+01 1.619687e+02
    endloop
  endfacet
  facet normal 1.437957e-04 1.000000e+00 3.168583e-13
    outer loop
      vertex   -2.040974e+02 9.622093e+01 1.618706e+02
      vertex   -2.045041e+02 9.622099e+01 1.606864e+02
      vertex   -2.044567e+02 9.622098e+01 1.619687e+02
    endloop
  endfacet
  facet normal 1.437957e-04 1.000000e+00 3.082811e-13
    outer loop
      vertex   -2.040974e+02 9.622093e+01 1.618706e+02
      vertex   -2.037641e+02 9.622088e+01 1.617042e+02
      vertex   -2.045041e+02 9.622099e+01 1.606864e+02
    endloop
  endfacet
  facet normal 1.437957e-04 1.000000e+00 3.066415e-13
    outer loop
      vertex   -2.045041e+02 9.622099e+01 1.606864e+02
      vertex   -2.037641e+02 9.622088e+01 1.617042e+02
      vertex   -2.034697e+02 9.622084e+01 1.614760e+02
    endloop
  endfacet
  facet normal 1.437957e-04 1.000000e+00 3.220430e-13
    outer loop
      vertex   -2.032255e+02 9.622081e+01 1.611948e+02
      vertex   -2.045041e+02 9.622099e+01 1.606864e+02
      vertex   -2.034697e+02 9.622084e+01 1.614760e+02
    endloop
  endfacet
  facet normal 1.437957e-04 1.000000e+00 3.144923e-13
    outer loop
      vertex   -2.032255e+02 9.622081e+01 1.611948e+02
      vertex   -2.041281e+02 9.622094e+01 1.601562e+02
      vertex   -2.045041e+02 9.622099e+01 1.606864e+02
    endloop
  endfacet
  facet normal 1.437957e-04 1.000000e+00 3.199994e-13
    outer loop
      vertex   -2.032255e+02 9.622081e+01 1.611948e+02
      vertex   -2.030408e+02 9.622078e+01 1.608713e+02
      vertex   -2.041281e+02 9.622094e+01 1.601562e+02
    endloop
  endfacet
  facet normal 1.437957e-04 1.000000e+00 2.898611e-13
    outer loop
      vertex   -2.041281e+02 9.622094e+01 1.601562e+02
      vertex   -2.030408e+02 9.622078e+01 1.608713e+02
      vertex   -2.029228e+02 9.622076e+01 1.605181e+02
    endloop
  endfacet
  facet normal 1.437957e-04 1.000000e+00 2.822495e-13
    outer loop
      vertex   -2.028760e+02 9.622076e+01 1.601485e+02
      vertex   -2.041281e+02 9.622094e+01 1.601562e+02
      vertex   -2.029228e+02 9.622076e+01 1.605181e+02
    endloop
  endfacet
  facet normal 1.437957e-04 1.000000e+00 2.677670e-13
    outer loop
      vertex   -2.028760e+02 9.622076e+01 1.601485e+02
      vertex   -2.029022e+02 9.622076e+01 1.597770e+02
      vertex   -2.041281e+02 9.622094e+01 1.601562e+02
    endloop
  endfacet
  facet normal 1.437957e-04 1.000000e+00 3.114298e-13
    outer loop
      vertex   -2.041281e+02 9.622094e+01 1.601562e+02
      vertex   -2.029022e+02 9.622076e+01 1.597770e+02
      vertex   -2.030003e+02 9.622078e+01 1.594177e+02
    endloop
  endfacet
  facet normal 1.437957e-04 1.000000e+00 2.777975e-13
    outer loop
      vertex   -2.043993e+02 9.622098e+01 1.595654e+02
      vertex   -2.030003e+02 9.622078e+01 1.594177e+02
      vertex   -2.031667e+02 9.622080e+01 1.590844e+02
    endloop
  endfacet
  facet normal 1.437957e-04 1.000000e+00 2.653281e-13
    outer loop
      vertex   -2.033949e+02 9.622083e+01 1.587901e+02
      vertex   -2.043993e+02 9.622098e+01 1.595654e+02
      vertex   -2.031667e+02 9.622080e+01 1.590844e+02
    endloop
  endfacet
  facet normal 1.437957e-04 1.000000e+00 2.764046e-13
    outer loop
      vertex   -2.033949e+02 9.622083e+01 1.587901e+02
      vertex   -2.036761e+02 9.622087e+01 1.585458e+02
      vertex   -2.043993e+02 9.622098e+01 1.595654e+02
    endloop
  endfacet
  facet normal 1.437957e-04 1.000000e+00 2.723798e-13
    outer loop
      vertex   -2.043993e+02 9.622098e+01 1.595654e+02
      vertex   -2.036761e+02 9.622087e+01 1.585458e+02
      vertex   -2.039996e+02 9.622092e+01 1.583612e+02
    endloop
  endfacet
  facet normal 1.437957e-04 1.000000e+00 2.651638e-13
    outer loop
      vertex   -2.043529e+02 9.622097e+01 1.582432e+02
      vertex   -2.043993e+02 9.622098e+01 1.595654e+02
      vertex   -2.039996e+02 9.622092e+01 1.583612e+02
    endloop
  endfacet
  facet normal 1.437957e-04 1.000000e+00 2.648420e-13
    outer loop
      vertex   -2.043529e+02 9.622097e+01 1.582432e+02
      vertex   -2.047224e+02 9.622102e+01 1.581964e+02
      vertex   -2.043993e+02 9.622098e+01 1.595654e+02
    endloop
  endfacet
  facet normal 1.437957e-04 1.000000e+00 2.634705e-13
    outer loop
      vertex   -2.043993e+02 9.622098e+01 1.595654e+02
      vertex   -2.047224e+02 9.622102e+01 1.581964e+02
      vertex   -2.050464e+02 9.622107e+01 1.595049e+02
    endloop
  endfacet
  facet normal 1.437957e-04 1.000000e+00 2.712384e-13
    outer loop
      vertex   -2.050464e+02 9.622107e+01 1.595049e+02
      vertex   -2.047224e+02 9.622102e+01 1.581964e+02
      vertex   -2.050939e+02 9.622108e+01 1.582225e+02
    endloop
  endfacet
  facet normal 1.437957e-04 1.000000e+00 2.729745e-13
    outer loop
      vertex   -2.054532e+02 9.622113e+01 1.583207e+02
      vertex   -2.050464e+02 9.622107e+01 1.595049e+02
      vertex   -2.050939e+02 9.622108e+01 1.582225e+02
    endloop
  endfacet
  facet normal 1.437957e-04 1.000000e+00 2.673060e-13
    outer loop
      vertex   -2.054532e+02 9.622113e+01 1.583207e+02
      vertex   -2.057865e+02 9.622118e+01 1.584870e+02
      vertex   -2.050464e+02 9.622107e+01 1.595049e+02
    endloop
  endfacet
  facet normal 1.437957e-04 1.000000e+00 2.709230e-13
    outer loop
      vertex   -2.050464e+02 9.622107e+01 1.595049e+02
      vertex   -2.057865e+02 9.622118e+01 1.584870e+02
      vertex   -2.060808e+02 9.622122e+01 1.587152e+02
    endloop
  endfacet
  facet normal 1.437957e-04 1.000000e+00 2.325715e-13
    outer loop
      vertex   -2.063251e+02 9.622125e+01 1.589964e+02
      vertex   -2.050464e+02 9.622107e+01 1.595049e+02
      vertex   -2.060808e+02 9.622122e+01 1.587152e+02
    endloop
  endfacet
  facet normal 1.437957e-04 1.000000e+00 3.021951e-13
    outer loop
      vertex   -2.063251e+02 9.622125e+01 1.589964e+02
      vertex   -2.054225e+02 9.622112e+01 1.600351e+02
      vertex   -2.050464e+02 9.622107e+01 1.595049e+02
    endloop
  endfacet
  facet normal 1.437957e-04 1.000000e+00 2.868779e-13
    outer loop
      vertex   -2.043993e+02 9.622098e+01 1.595654e+02
      vertex   -2.041281e+02 9.622094e+01 1.601562e+02
      vertex   -2.030003e+02 9.622078e+01 1.594177e+02
    endloop
  endfacet
  facet normal 9.088440e-01 -1.306879e-04 -4.171361e-01
    outer loop
      vertex   -2.051513e+02 9.622108e+01 1.606258e+02
      vertex   -2.051515e+02 9.502108e+01 1.606258e+02
      vertex   -2.054225e+02 9.622112e+01 1.600351e+02
    endloop
  endfacet
  facet normal 9.088440e-01 -1.306879e-04 -4.171361e-01
    outer loop
      vertex   -2.054225e+02 9.622112e+01 1.600351e+02
      vertex   -2.051515e+02 9.502108e+01 1.606258e+02
      vertex   -2.054226e+02 9.502112e+01 1.600351e+02
    endloop
  endfacet
  facet normal 9.317159e-02 -1.339768e-05 -9.956501e-01
    outer loop
      vertex   -2.045043e+02 9.502099e+01 1.606864e+02
      vertex   -2.051515e+02 9.502108e+01 1.606258e+02
      vertex   -2.045041e+02 9.622099e+01 1.606864e+02
    endloop
  endfacet
  facet normal 9.317159e-02 -1.339768e-05 -9.956501e-01
    outer loop
      vertex   -2.045041e+02 9.622099e+01 1.606864e+02
      vertex   -2.051515e+02 9.502108e+01 1.606258e+02
      vertex   -2.051513e+02 9.622108e+01 1.606258e+02
    endloop
  endfacet
  facet normal -8.156724e-01 1.172902e-04 -5.785140e-01
    outer loop
      vertex   -2.041283e+02 9.502094e+01 1.601562e+02
      vertex   -2.045043e+02 9.502099e+01 1.606864e+02
      vertex   -2.041281e+02 9.622094e+01 1.601562e+02
    endloop
  endfacet
  facet normal -8.156724e-01 1.172902e-04 -5.785140e-01
    outer loop
      vertex   -2.041281e+02 9.622094e+01 1.601562e+02
      vertex   -2.045043e+02 9.502099e+01 1.606864e+02
      vertex   -2.045041e+02 9.622099e+01 1.606864e+02
    endloop
  endfacet
  facet normal -9.088440e-01 1.306879e-04 4.171361e-01
    outer loop
      vertex   -2.043993e+02 9.622098e+01 1.595654e+02
      vertex   -2.043994e+02 9.502098e+01 1.595654e+02
      vertex   -2.041281e+02 9.622094e+01 1.601562e+02
    endloop
  endfacet
  facet normal -9.088440e-01 1.306879e-04 4.171361e-01
    outer loop
      vertex   -2.041281e+02 9.622094e+01 1.601562e+02
      vertex   -2.043994e+02 9.502098e+01 1.595654e+02
      vertex   -2.041283e+02 9.502094e+01 1.601562e+02
    endloop
  endfacet
  facet normal -5.259070e-01 -7.175865e-01 -4.566087e-01
    outer loop
      vertex   -2.055911e+02 9.495115e+01 1.595171e+02
      vertex   -2.063251e+02 9.582037e+01 1.589964e+02
      vertex   -2.054626e+02 9.495113e+01 1.593691e+02
    endloop
  endfacet
  facet normal -5.259070e-01 -7.175865e-01 -4.566087e-01
    outer loop
      vertex   -2.054626e+02 9.495113e+01 1.593691e+02
      vertex   -2.063251e+02 9.582037e+01 1.589964e+02
      vertex   -2.060809e+02 9.582034e+01 1.587152e+02
    endloop
  endfacet
  facet normal -4.267239e-01 -7.176007e-01 -5.504143e-01
    outer loop
      vertex   -2.057865e+02 9.582030e+01 1.584870e+02
      vertex   -2.054626e+02 9.495113e+01 1.593691e+02
      vertex   -2.060809e+02 9.582034e+01 1.587152e+02
    endloop
  endfacet
  facet normal -4.267239e-01 -7.176007e-01 -5.504143e-01
    outer loop
      vertex   -2.057865e+02 9.582030e+01 1.584870e+02
      vertex   -2.053077e+02 9.495111e+01 1.592490e+02
      vertex   -2.054626e+02 9.495113e+01 1.593691e+02
    endloop
  endfacet
  facet normal -3.111460e-01 -7.176173e-01 -6.230679e-01
    outer loop
      vertex   -2.057865e+02 9.582030e+01 1.584870e+02
      vertex   -2.054533e+02 9.582025e+01 1.583207e+02
      vertex   -2.053077e+02 9.495111e+01 1.592490e+02
    endloop
  endfacet
  facet normal -3.111460e-01 -7.176173e-01 -6.230679e-01
    outer loop
      vertex   -2.053077e+02 9.495111e+01 1.592490e+02
      vertex   -2.054533e+02 9.582025e+01 1.583207e+02
      vertex   -2.051323e+02 9.495108e+01 1.591614e+02
    endloop
  endfacet
  facet normal -1.836149e-01 -7.176357e-01 -6.717772e-01
    outer loop
      vertex   -2.051323e+02 9.495108e+01 1.591614e+02
      vertex   -2.054533e+02 9.582025e+01 1.583207e+02
      vertex   -2.050940e+02 9.582020e+01 1.582225e+02
    endloop
  endfacet
  facet normal -4.903150e-02 -7.176550e-01 -6.946705e-01
    outer loop
      vertex   -2.049432e+02 9.495105e+01 1.591098e+02
      vertex   -2.050940e+02 9.582020e+01 1.582225e+02
      vertex   -2.047224e+02 9.582014e+01 1.581964e+02
    endloop
  endfacet
  facet normal 8.743214e-02 -7.176747e-01 -6.908681e-01
    outer loop
      vertex   -2.047476e+02 9.495103e+01 1.590960e+02
      vertex   -2.047224e+02 9.582014e+01 1.581964e+02
      vertex   -2.045531e+02 9.495100e+01 1.591206e+02
    endloop
  endfacet
  facet normal -4.903150e-02 -7.176550e-01 -6.946705e-01
    outer loop
      vertex   -2.047476e+02 9.495103e+01 1.590960e+02
      vertex   -2.049432e+02 9.495105e+01 1.591098e+02
      vertex   -2.047224e+02 9.582014e+01 1.581964e+02
    endloop
  endfacet
  facet normal 8.743214e-02 -7.176747e-01 -6.908681e-01
    outer loop
      vertex   -2.047224e+02 9.582014e+01 1.581964e+02
      vertex   -2.043529e+02 9.582009e+01 1.582432e+02
      vertex   -2.045531e+02 9.495100e+01 1.591206e+02
    endloop
  endfacet
  facet normal 2.205319e-01 -7.176938e-01 -6.605160e-01
    outer loop
      vertex   -2.045531e+02 9.495100e+01 1.591206e+02
      vertex   -2.043529e+02 9.582009e+01 1.582432e+02
      vertex   -2.039996e+02 9.582004e+01 1.583612e+02
    endloop
  endfacet
  facet normal 3.451527e-01 -7.177117e-01 -6.047806e-01
    outer loop
      vertex   -2.043672e+02 9.495097e+01 1.591828e+02
      vertex   -2.039996e+02 9.582004e+01 1.583612e+02
      vertex   -2.036762e+02 9.581999e+01 1.585458e+02
    endloop
  endfacet
  facet normal 4.565055e-01 -7.177277e-01 -5.258038e-01
    outer loop
      vertex   -2.041970e+02 9.495095e+01 1.592799e+02
      vertex   -2.036762e+02 9.581999e+01 1.585458e+02
      vertex   -2.033949e+02 9.581995e+01 1.587901e+02
    endloop
  endfacet
  facet normal 5.503111e-01 -7.177412e-01 -4.266207e-01
    outer loop
      vertex   -2.040489e+02 9.495093e+01 1.594085e+02
      vertex   -2.033949e+02 9.581995e+01 1.587901e+02
      vertex   -2.031668e+02 9.581992e+01 1.590844e+02
    endloop
  endfacet
  facet normal 6.229646e-01 -7.177517e-01 -3.110428e-01
    outer loop
      vertex   -2.039288e+02 9.495091e+01 1.595634e+02
      vertex   -2.031668e+02 9.581992e+01 1.590844e+02
      vertex   -2.038413e+02 9.495090e+01 1.597388e+02
    endloop
  endfacet
  facet normal 5.503111e-01 -7.177412e-01 -4.266207e-01
    outer loop
      vertex   -2.039288e+02 9.495091e+01 1.595634e+02
      vertex   -2.040489e+02 9.495093e+01 1.594085e+02
      vertex   -2.031668e+02 9.581992e+01 1.590844e+02
    endloop
  endfacet
  facet normal 6.229646e-01 -7.177517e-01 -3.110428e-01
    outer loop
      vertex   -2.031668e+02 9.581992e+01 1.590844e+02
      vertex   -2.030004e+02 9.581989e+01 1.594177e+02
      vertex   -2.038413e+02 9.495090e+01 1.597388e+02
    endloop
  endfacet
  facet normal 6.716740e-01 -7.177587e-01 -1.835117e-01
    outer loop
      vertex   -2.038413e+02 9.495090e+01 1.597388e+02
      vertex   -2.030004e+02 9.581989e+01 1.594177e+02
      vertex   -2.029023e+02 9.581988e+01 1.597770e+02
    endloop
  endfacet
  facet normal 6.945673e-01 -7.177620e-01 -4.892830e-02
    outer loop
      vertex   -2.037896e+02 9.495089e+01 1.599279e+02
      vertex   -2.029023e+02 9.581988e+01 1.597770e+02
      vertex   -2.028761e+02 9.581988e+01 1.601485e+02
    endloop
  endfacet
  facet normal 6.907649e-01 -7.177614e-01 8.753534e-02
    outer loop
      vertex   -2.037759e+02 9.495089e+01 1.601235e+02
      vertex   -2.028761e+02 9.581988e+01 1.601485e+02
      vertex   -2.029229e+02 9.581988e+01 1.605181e+02
    endloop
  endfacet
  facet normal 6.604128e-01 -7.177570e-01 2.206351e-01
    outer loop
      vertex   -2.038005e+02 9.495089e+01 1.603180e+02
      vertex   -2.029229e+02 9.581988e+01 1.605181e+02
      vertex   -2.030409e+02 9.581990e+01 1.608713e+02
    endloop
  endfacet
  facet normal 6.046774e-01 -7.177490e-01 3.452559e-01
    outer loop
      vertex   -2.038626e+02 9.495090e+01 1.605039e+02
      vertex   -2.030409e+02 9.581990e+01 1.608713e+02
      vertex   -2.039598e+02 9.495091e+01 1.606741e+02
    endloop
  endfacet
  facet normal 6.604128e-01 -7.177570e-01 2.206351e-01
    outer loop
      vertex   -2.038626e+02 9.495090e+01 1.605039e+02
      vertex   -2.038005e+02 9.495089e+01 1.603180e+02
      vertex   -2.030409e+02 9.581990e+01 1.608713e+02
    endloop
  endfacet
  facet normal 6.046774e-01 -7.177490e-01 3.452559e-01
    outer loop
      vertex   -2.030409e+02 9.581990e+01 1.608713e+02
      vertex   -2.032256e+02 9.581993e+01 1.611948e+02
      vertex   -2.039598e+02 9.495091e+01 1.606741e+02
    endloop
  endfacet
  facet normal 6.907649e-01 -7.177614e-01 8.753534e-02
    outer loop
      vertex   -2.038005e+02 9.495089e+01 1.603180e+02
      vertex   -2.037759e+02 9.495089e+01 1.601235e+02
      vertex   -2.029229e+02 9.581988e+01 1.605181e+02
    endloop
  endfacet
  facet normal 6.945673e-01 -7.177620e-01 -4.892830e-02
    outer loop
      vertex   -2.037759e+02 9.495089e+01 1.601235e+02
      vertex   -2.037896e+02 9.495089e+01 1.599279e+02
      vertex   -2.028761e+02 9.581988e+01 1.601485e+02
    endloop
  endfacet
  facet normal 6.716740e-01 -7.177587e-01 -1.835117e-01
    outer loop
      vertex   -2.037896e+02 9.495089e+01 1.599279e+02
      vertex   -2.038413e+02 9.495090e+01 1.597388e+02
      vertex   -2.029023e+02 9.581988e+01 1.597770e+02
    endloop
  endfacet
  facet normal 4.565055e-01 -7.177277e-01 -5.258038e-01
    outer loop
      vertex   -2.040489e+02 9.495093e+01 1.594085e+02
      vertex   -2.041970e+02 9.495095e+01 1.592799e+02
      vertex   -2.033949e+02 9.581995e+01 1.587901e+02
    endloop
  endfacet
  facet normal 3.451527e-01 -7.177117e-01 -6.047806e-01
    outer loop
      vertex   -2.041970e+02 9.495095e+01 1.592799e+02
      vertex   -2.043672e+02 9.495097e+01 1.591828e+02
      vertex   -2.036762e+02 9.581999e+01 1.585458e+02
    endloop
  endfacet
  facet normal 2.205319e-01 -7.176938e-01 -6.605160e-01
    outer loop
      vertex   -2.043672e+02 9.495097e+01 1.591828e+02
      vertex   -2.045531e+02 9.495100e+01 1.591206e+02
      vertex   -2.039996e+02 9.582004e+01 1.583612e+02
    endloop
  endfacet
  facet normal -1.836149e-01 -7.176357e-01 -6.717772e-01
    outer loop
      vertex   -2.049432e+02 9.495105e+01 1.591098e+02
      vertex   -2.051323e+02 9.495108e+01 1.591614e+02
      vertex   -2.050940e+02 9.582020e+01 1.582225e+02
    endloop
  endfacet
  facet normal 8.684491e-01 -1.248793e-04 4.957784e-01
    outer loop
      vertex   -2.032255e+02 9.622081e+01 1.611948e+02
      vertex   -2.032256e+02 9.581993e+01 1.611948e+02
      vertex   -2.030408e+02 9.622078e+01 1.608713e+02
    endloop
  endfacet
  facet normal 8.684491e-01 -1.248793e-04 4.957784e-01
    outer loop
      vertex   -2.030408e+02 9.622078e+01 1.608713e+02
      vertex   -2.032256e+02 9.581993e+01 1.611948e+02
      vertex   -2.030409e+02 9.581990e+01 1.608713e+02
    endloop
  endfacet
  facet normal 9.484836e-01 -1.363879e-04 3.168262e-01
    outer loop
      vertex   -2.029229e+02 9.581988e+01 1.605181e+02
      vertex   -2.030408e+02 9.622078e+01 1.608713e+02
      vertex   -2.030409e+02 9.581990e+01 1.608713e+02
    endloop
  endfacet
  facet normal 9.484836e-01 -1.363879e-04 3.168262e-01
    outer loop
      vertex   -2.029229e+02 9.581988e+01 1.605181e+02
      vertex   -2.029228e+02 9.622076e+01 1.605181e+02
      vertex   -2.030408e+02 9.622078e+01 1.608713e+02
    endloop
  endfacet
  facet normal 9.920685e-01 -1.426552e-04 1.256985e-01
    outer loop
      vertex   -2.029229e+02 9.581988e+01 1.605181e+02
      vertex   -2.028761e+02 9.581988e+01 1.601485e+02
      vertex   -2.029228e+02 9.622076e+01 1.605181e+02
    endloop
  endfacet
  facet normal 9.920685e-01 -1.426552e-04 1.256985e-01
    outer loop
      vertex   -2.029228e+02 9.622076e+01 1.605181e+02
      vertex   -2.028761e+02 9.581988e+01 1.601485e+02
      vertex   -2.028760e+02 9.622076e+01 1.601485e+02
    endloop
  endfacet
  facet normal 9.975287e-01 -1.434404e-04 -7.025976e-02
    outer loop
      vertex   -2.028760e+02 9.622076e+01 1.601485e+02
      vertex   -2.028761e+02 9.581988e+01 1.601485e+02
      vertex   -2.029023e+02 9.581988e+01 1.597770e+02
    endloop
  endfacet
  facet normal 9.646545e-01 -1.387132e-04 -2.635179e-01
    outer loop
      vertex   -2.029022e+02 9.622076e+01 1.597770e+02
      vertex   -2.029023e+02 9.581988e+01 1.597770e+02
      vertex   -2.030004e+02 9.581989e+01 1.594177e+02
    endloop
  endfacet
  facet normal 8.947091e-01 -1.286554e-04 -4.466493e-01
    outer loop
      vertex   -2.030003e+02 9.622078e+01 1.594177e+02
      vertex   -2.030004e+02 9.581989e+01 1.594177e+02
      vertex   -2.031667e+02 9.622080e+01 1.590844e+02
    endloop
  endfacet
  facet normal 9.646545e-01 -1.387132e-04 -2.635179e-01
    outer loop
      vertex   -2.030003e+02 9.622078e+01 1.594177e+02
      vertex   -2.029022e+02 9.622076e+01 1.597770e+02
      vertex   -2.030004e+02 9.581989e+01 1.594177e+02
    endloop
  endfacet
  facet normal 8.947091e-01 -1.286554e-04 -4.466493e-01
    outer loop
      vertex   -2.030004e+02 9.581989e+01 1.594177e+02
      vertex   -2.031668e+02 9.581992e+01 1.590844e+02
      vertex   -2.031667e+02 9.622080e+01 1.590844e+02
    endloop
  endfacet
  facet normal 7.903806e-01 -1.136534e-04 -6.126161e-01
    outer loop
      vertex   -2.031667e+02 9.622080e+01 1.590844e+02
      vertex   -2.031668e+02 9.581992e+01 1.590844e+02
      vertex   -2.033949e+02 9.581995e+01 1.587901e+02
    endloop
  endfacet
  facet normal 6.556782e-01 -9.428372e-05 -7.550405e-01
    outer loop
      vertex   -2.033949e+02 9.622083e+01 1.587901e+02
      vertex   -2.033949e+02 9.581995e+01 1.587901e+02
      vertex   -2.036762e+02 9.581999e+01 1.585458e+02
    endloop
  endfacet
  facet normal 4.957784e-01 -7.129082e-05 -8.684491e-01
    outer loop
      vertex   -2.036761e+02 9.622087e+01 1.585458e+02
      vertex   -2.036762e+02 9.581999e+01 1.585458e+02
      vertex   -2.039996e+02 9.582004e+01 1.583612e+02
    endloop
  endfacet
  facet normal 3.168262e-01 -4.555825e-05 -9.484836e-01
    outer loop
      vertex   -2.039996e+02 9.622092e+01 1.583612e+02
      vertex   -2.039996e+02 9.582004e+01 1.583612e+02
      vertex   -2.043529e+02 9.582009e+01 1.582432e+02
    endloop
  endfacet
  facet normal 1.256985e-01 -1.807490e-05 -9.920685e-01
    outer loop
      vertex   -2.043529e+02 9.622097e+01 1.582432e+02
      vertex   -2.043529e+02 9.582009e+01 1.582432e+02
      vertex   -2.047224e+02 9.622102e+01 1.581964e+02
    endloop
  endfacet
  facet normal 3.168262e-01 -4.555825e-05 -9.484836e-01
    outer loop
      vertex   -2.043529e+02 9.622097e+01 1.582432e+02
      vertex   -2.039996e+02 9.622092e+01 1.583612e+02
      vertex   -2.043529e+02 9.582009e+01 1.582432e+02
    endloop
  endfacet
  facet normal 1.256985e-01 -1.807490e-05 -9.920685e-01
    outer loop
      vertex   -2.043529e+02 9.582009e+01 1.582432e+02
      vertex   -2.047224e+02 9.582014e+01 1.581964e+02
      vertex   -2.047224e+02 9.622102e+01 1.581964e+02
    endloop
  endfacet
  facet normal -7.025976e-02 1.010305e-05 -9.975287e-01
    outer loop
      vertex   -2.047224e+02 9.622102e+01 1.581964e+02
      vertex   -2.047224e+02 9.582014e+01 1.581964e+02
      vertex   -2.050940e+02 9.582020e+01 1.582225e+02
    endloop
  endfacet
  facet normal -2.635179e-01 3.789276e-05 -9.646545e-01
    outer loop
      vertex   -2.050939e+02 9.622108e+01 1.582225e+02
      vertex   -2.050940e+02 9.582020e+01 1.582225e+02
      vertex   -2.054533e+02 9.582025e+01 1.583207e+02
    endloop
  endfacet
  facet normal -4.466493e-01 6.422626e-05 -8.947091e-01
    outer loop
      vertex   -2.054532e+02 9.622113e+01 1.583207e+02
      vertex   -2.054533e+02 9.582025e+01 1.583207e+02
      vertex   -2.057865e+02 9.582030e+01 1.584870e+02
    endloop
  endfacet
  facet normal -6.126161e-01 8.809158e-05 -7.903806e-01
    outer loop
      vertex   -2.057865e+02 9.622118e+01 1.584870e+02
      vertex   -2.057865e+02 9.582030e+01 1.584870e+02
      vertex   -2.060809e+02 9.582034e+01 1.587152e+02
    endloop
  endfacet
  facet normal -7.550405e-01 1.085716e-04 -6.556782e-01
    outer loop
      vertex   -2.060808e+02 9.622122e+01 1.587152e+02
      vertex   -2.060809e+02 9.582034e+01 1.587152e+02
      vertex   -2.063251e+02 9.622125e+01 1.589964e+02
    endloop
  endfacet
  facet normal -6.126161e-01 8.809158e-05 -7.903806e-01
    outer loop
      vertex   -2.060808e+02 9.622122e+01 1.587152e+02
      vertex   -2.057865e+02 9.622118e+01 1.584870e+02
      vertex   -2.060809e+02 9.582034e+01 1.587152e+02
    endloop
  endfacet
  facet normal -7.550405e-01 1.085716e-04 -6.556782e-01
    outer loop
      vertex   -2.060809e+02 9.582034e+01 1.587152e+02
      vertex   -2.063251e+02 9.582037e+01 1.589964e+02
      vertex   -2.063251e+02 9.622125e+01 1.589964e+02
    endloop
  endfacet
  facet normal -4.466493e-01 6.422626e-05 -8.947091e-01
    outer loop
      vertex   -2.057865e+02 9.622118e+01 1.584870e+02
      vertex   -2.054532e+02 9.622113e+01 1.583207e+02
      vertex   -2.057865e+02 9.582030e+01 1.584870e+02
    endloop
  endfacet
  facet normal -2.635179e-01 3.789276e-05 -9.646545e-01
    outer loop
      vertex   -2.054532e+02 9.622113e+01 1.583207e+02
      vertex   -2.050939e+02 9.622108e+01 1.582225e+02
      vertex   -2.054533e+02 9.582025e+01 1.583207e+02
    endloop
  endfacet
  facet normal -7.025976e-02 1.010305e-05 -9.975287e-01
    outer loop
      vertex   -2.050939e+02 9.622108e+01 1.582225e+02
      vertex   -2.047224e+02 9.622102e+01 1.581964e+02
      vertex   -2.050940e+02 9.582020e+01 1.582225e+02
    endloop
  endfacet
  facet normal 4.957784e-01 -7.129082e-05 -8.684491e-01
    outer loop
      vertex   -2.039996e+02 9.622092e+01 1.583612e+02
      vertex   -2.036761e+02 9.622087e+01 1.585458e+02
      vertex   -2.039996e+02 9.582004e+01 1.583612e+02
    endloop
  endfacet
  facet normal 6.556782e-01 -9.428372e-05 -7.550405e-01
    outer loop
      vertex   -2.036761e+02 9.622087e+01 1.585458e+02
      vertex   -2.033949e+02 9.622083e+01 1.587901e+02
      vertex   -2.036762e+02 9.581999e+01 1.585458e+02
    endloop
  endfacet
  facet normal 7.903806e-01 -1.136534e-04 -6.126161e-01
    outer loop
      vertex   -2.033949e+02 9.622083e+01 1.587901e+02
      vertex   -2.031667e+02 9.622080e+01 1.590844e+02
      vertex   -2.033949e+02 9.581995e+01 1.587901e+02
    endloop
  endfacet
  facet normal 9.975287e-01 -1.434404e-04 -7.025976e-02
    outer loop
      vertex   -2.029022e+02 9.622076e+01 1.597770e+02
      vertex   -2.028760e+02 9.622076e+01 1.601485e+02
      vertex   -2.029023e+02 9.581988e+01 1.597770e+02
    endloop
  endfacet
  facet normal 8.684491e-01 -1.248793e-04 4.957784e-01
    outer loop
      vertex   -2.039598e+02 9.495091e+01 1.606741e+02
      vertex   -2.039604e+02 9.102091e+01 1.606741e+02
      vertex   -2.038626e+02 9.495090e+01 1.605039e+02
    endloop
  endfacet
  facet normal 8.684491e-01 -1.248793e-04 4.957784e-01
    outer loop
      vertex   -2.038626e+02 9.495090e+01 1.605039e+02
      vertex   -2.039604e+02 9.102091e+01 1.606741e+02
      vertex   -2.038632e+02 9.102090e+01 1.605039e+02
    endloop
  endfacet
  facet normal 9.484836e-01 -1.363879e-04 3.168262e-01
    outer loop
      vertex   -2.038011e+02 9.102089e+01 1.603180e+02
      vertex   -2.038626e+02 9.495090e+01 1.605039e+02
      vertex   -2.038632e+02 9.102090e+01 1.605039e+02
    endloop
  endfacet
  facet normal 9.484836e-01 -1.363879e-04 3.168262e-01
    outer loop
      vertex   -2.038011e+02 9.102089e+01 1.603180e+02
      vertex   -2.038005e+02 9.495089e+01 1.603180e+02
      vertex   -2.038626e+02 9.495090e+01 1.605039e+02
    endloop
  endfacet
  facet normal 9.920685e-01 -1.426552e-04 1.256985e-01
    outer loop
      vertex   -2.038011e+02 9.102089e+01 1.603180e+02
      vertex   -2.037764e+02 9.102089e+01 1.601235e+02
      vertex   -2.038005e+02 9.495089e+01 1.603180e+02
    endloop
  endfacet
  facet normal 9.920685e-01 -1.426552e-04 1.256985e-01
    outer loop
      vertex   -2.038005e+02 9.495089e+01 1.603180e+02
      vertex   -2.037764e+02 9.102089e+01 1.601235e+02
      vertex   -2.037759e+02 9.495089e+01 1.601235e+02
    endloop
  endfacet
  facet normal 9.975287e-01 -1.434404e-04 -7.025976e-02
    outer loop
      vertex   -2.037759e+02 9.495089e+01 1.601235e+02
      vertex   -2.037764e+02 9.102089e+01 1.601235e+02
      vertex   -2.037902e+02 9.102089e+01 1.599279e+02
    endloop
  endfacet
  facet normal 9.646545e-01 -1.387132e-04 -2.635179e-01
    outer loop
      vertex   -2.037896e+02 9.495089e+01 1.599279e+02
      vertex   -2.037902e+02 9.102089e+01 1.599279e+02
      vertex   -2.038419e+02 9.102090e+01 1.597388e+02
    endloop
  endfacet
  facet normal 8.947091e-01 -1.286554e-04 -4.466493e-01
    outer loop
      vertex   -2.038413e+02 9.495090e+01 1.597388e+02
      vertex   -2.038419e+02 9.102090e+01 1.597388e+02
      vertex   -2.039288e+02 9.495091e+01 1.595634e+02
    endloop
  endfacet
  facet normal 9.646545e-01 -1.387132e-04 -2.635179e-01
    outer loop
      vertex   -2.038413e+02 9.495090e+01 1.597388e+02
      vertex   -2.037896e+02 9.495089e+01 1.599279e+02
      vertex   -2.038419e+02 9.102090e+01 1.597388e+02
    endloop
  endfacet
  facet normal 8.947091e-01 -1.286554e-04 -4.466493e-01
    outer loop
      vertex   -2.038419e+02 9.102090e+01 1.597388e+02
      vertex   -2.039294e+02 9.102091e+01 1.595634e+02
      vertex   -2.039288e+02 9.495091e+01 1.595634e+02
    endloop
  endfacet
  facet normal 7.903806e-01 -1.136534e-04 -6.126161e-01
    outer loop
      vertex   -2.039288e+02 9.495091e+01 1.595634e+02
      vertex   -2.039294e+02 9.102091e+01 1.595634e+02
      vertex   -2.040495e+02 9.102093e+01 1.594085e+02
    endloop
  endfacet
  facet normal 6.556782e-01 -9.428372e-05 -7.550405e-01
    outer loop
      vertex   -2.040489e+02 9.495093e+01 1.594085e+02
      vertex   -2.040495e+02 9.102093e+01 1.594085e+02
      vertex   -2.041975e+02 9.102095e+01 1.592799e+02
    endloop
  endfacet
  facet normal 4.957784e-01 -7.129082e-05 -8.684491e-01
    outer loop
      vertex   -2.041970e+02 9.495095e+01 1.592799e+02
      vertex   -2.041975e+02 9.102095e+01 1.592799e+02
      vertex   -2.043678e+02 9.102097e+01 1.591828e+02
    endloop
  endfacet
  facet normal 3.168262e-01 -4.555825e-05 -9.484836e-01
    outer loop
      vertex   -2.043672e+02 9.495097e+01 1.591828e+02
      vertex   -2.043678e+02 9.102097e+01 1.591828e+02
      vertex   -2.045537e+02 9.102100e+01 1.591206e+02
    endloop
  endfacet
  facet normal 1.256985e-01 -1.807490e-05 -9.920685e-01
    outer loop
      vertex   -2.045531e+02 9.495100e+01 1.591206e+02
      vertex   -2.045537e+02 9.102100e+01 1.591206e+02
      vertex   -2.047476e+02 9.495103e+01 1.590960e+02
    endloop
  endfacet
  facet normal 3.168262e-01 -4.555825e-05 -9.484836e-01
    outer loop
      vertex   -2.045531e+02 9.495100e+01 1.591206e+02
      vertex   -2.043672e+02 9.495097e+01 1.591828e+02
      vertex   -2.045537e+02 9.102100e+01 1.591206e+02
    endloop
  endfacet
  facet normal 1.256985e-01 -1.807490e-05 -9.920685e-01
    outer loop
      vertex   -2.045537e+02 9.102100e+01 1.591206e+02
      vertex   -2.047482e+02 9.102103e+01 1.590960e+02
      vertex   -2.047476e+02 9.495103e+01 1.590960e+02
    endloop
  endfacet
  facet normal -7.025976e-02 1.010305e-05 -9.975287e-01
    outer loop
      vertex   -2.047476e+02 9.495103e+01 1.590960e+02
      vertex   -2.047482e+02 9.102103e+01 1.590960e+02
      vertex   -2.049437e+02 9.102105e+01 1.591098e+02
    endloop
  endfacet
  facet normal -2.635179e-01 3.789276e-05 -9.646545e-01
    outer loop
      vertex   -2.049432e+02 9.495105e+01 1.591098e+02
      vertex   -2.049437e+02 9.102105e+01 1.591098e+02
      vertex   -2.051328e+02 9.102108e+01 1.591614e+02
    endloop
  endfacet
  facet normal -4.466493e-01 6.422626e-05 -8.947091e-01
    outer loop
      vertex   -2.051323e+02 9.495108e+01 1.591614e+02
      vertex   -2.051328e+02 9.102108e+01 1.591614e+02
      vertex   -2.053082e+02 9.102111e+01 1.592490e+02
    endloop
  endfacet
  facet normal -6.126161e-01 8.809158e-05 -7.903806e-01
    outer loop
      vertex   -2.053077e+02 9.495111e+01 1.592490e+02
      vertex   -2.053082e+02 9.102111e+01 1.592490e+02
      vertex   -2.054632e+02 9.102113e+01 1.593691e+02
    endloop
  endfacet
  facet normal -7.550405e-01 1.085716e-04 -6.556782e-01
    outer loop
      vertex   -2.054626e+02 9.495113e+01 1.593691e+02
      vertex   -2.054632e+02 9.102113e+01 1.593691e+02
      vertex   -2.055911e+02 9.495115e+01 1.595171e+02
    endloop
  endfacet
  facet normal -6.126161e-01 8.809158e-05 -7.903806e-01
    outer loop
      vertex   -2.054626e+02 9.495113e+01 1.593691e+02
      vertex   -2.053077e+02 9.495111e+01 1.592490e+02
      vertex   -2.054632e+02 9.102113e+01 1.593691e+02
    endloop
  endfacet
  facet normal -7.550405e-01 1.085716e-04 -6.556782e-01
    outer loop
      vertex   -2.054632e+02 9.102113e+01 1.593691e+02
      vertex   -2.055917e+02 9.102115e+01 1.595171e+02
      vertex   -2.055911e+02 9.495115e+01 1.595171e+02
    endloop
  endfacet
  facet normal -4.466493e-01 6.422626e-05 -8.947091e-01
    outer loop
      vertex   -2.053077e+02 9.495111e+01 1.592490e+02
      vertex   -2.051323e+02 9.495108e+01 1.591614e+02
      vertex   -2.053082e+02 9.102111e+01 1.592490e+02
    endloop
  endfacet
  facet normal -2.635179e-01 3.789276e-05 -9.646545e-01
    outer loop
      vertex   -2.051323e+02 9.495108e+01 1.591614e+02
      vertex   -2.049432e+02 9.495105e+01 1.591098e+02
      vertex   -2.051328e+02 9.102108e+01 1.591614e+02
    endloop
  endfacet
  facet normal -7.025976e-02 1.010305e-05 -9.975287e-01
    outer loop
      vertex   -2.049432e+02 9.495105e+01 1.591098e+02
      vertex   -2.047476e+02 9.495103e+01 1.590960e+02
      vertex   -2.049437e+02 9.102105e+01 1.591098e+02
    endloop
  endfacet
  facet normal 4.957784e-01 -7.129082e-05 -8.684491e-01
    outer loop
      vertex   -2.043672e+02 9.495097e+01 1.591828e+02
      vertex   -2.041970e+02 9.495095e+01 1.592799e+02
      vertex   -2.043678e+02 9.102097e+01 1.591828e+02
    endloop
  endfacet
  facet normal 6.556782e-01 -9.428372e-05 -7.550405e-01
    outer loop
      vertex   -2.041970e+02 9.495095e+01 1.592799e+02
      vertex   -2.040489e+02 9.495093e+01 1.594085e+02
      vertex   -2.041975e+02 9.102095e+01 1.592799e+02
    endloop
  endfacet
  facet normal 7.903806e-01 -1.136534e-04 -6.126161e-01
    outer loop
      vertex   -2.040489e+02 9.495093e+01 1.594085e+02
      vertex   -2.039288e+02 9.495091e+01 1.595634e+02
      vertex   -2.040495e+02 9.102093e+01 1.594085e+02
    endloop
  endfacet
  facet normal 9.975287e-01 -1.434404e-04 -7.025976e-02
    outer loop
      vertex   -2.037896e+02 9.495089e+01 1.599279e+02
      vertex   -2.037759e+02 9.495089e+01 1.601235e+02
      vertex   -2.037902e+02 9.102089e+01 1.599279e+02
    endloop
  endfacet
endsolid
