solid ascii
  facet normal 1.437957e-04 1.000000e+00 3.842451e-13
    outer loop
      vertex   -2.055054e+02 7.142113e+01 1.607828e+02
      vertex   -2.051871e+02 7.142109e+01 1.610085e+02
      vertex   -2.056255e+02 7.142115e+01 1.606278e+02
    endloop
  endfacet
  facet normal 1.437957e-04 1.000000e+00 7.617164e-13
    outer loop
      vertex   -2.055054e+02 7.142113e+01 1.607828e+02
      vertex   -2.053574e+02 7.142111e+01 1.609113e+02
      vertex   -2.051871e+02 7.142109e+01 1.610085e+02
    endloop
  endfacet
  facet normal 1.437957e-04 1.000000e+00 2.766264e-13
    outer loop
      vertex   -2.056255e+02 7.142115e+01 1.606278e+02
      vertex   -2.050012e+02 7.142106e+01 1.610706e+02
      vertex   -2.057130e+02 7.142116e+01 1.604524e+02
    endloop
  endfacet
  facet normal 1.437957e-04 1.000000e+00 2.357849e-13
    outer loop
      vertex   -2.056255e+02 7.142115e+01 1.606278e+02
      vertex   -2.051871e+02 7.142109e+01 1.610085e+02
      vertex   -2.050012e+02 7.142106e+01 1.610706e+02
    endloop
  endfacet
  facet normal 1.437957e-04 1.000000e+00 3.437883e-13
    outer loop
      vertex   -2.057130e+02 7.142116e+01 1.604524e+02
      vertex   -2.048067e+02 7.142103e+01 1.610952e+02
      vertex   -2.057647e+02 7.142117e+01 1.602633e+02
    endloop
  endfacet
  facet normal 1.437957e-04 1.000000e+00 1.579422e-13
    outer loop
      vertex   -2.057130e+02 7.142116e+01 1.604524e+02
      vertex   -2.050012e+02 7.142106e+01 1.610706e+02
      vertex   -2.048067e+02 7.142103e+01 1.610952e+02
    endloop
  endfacet
  facet normal 1.437957e-04 1.000000e+00 2.551699e-13
    outer loop
      vertex   -2.057647e+02 7.142117e+01 1.602633e+02
      vertex   -2.046112e+02 7.142101e+01 1.610815e+02
      vertex   -2.057785e+02 7.142117e+01 1.600678e+02
    endloop
  endfacet
  facet normal 1.437957e-04 1.000000e+00 3.445428e-13
    outer loop
      vertex   -2.057647e+02 7.142117e+01 1.602633e+02
      vertex   -2.048067e+02 7.142103e+01 1.610952e+02
      vertex   -2.046112e+02 7.142101e+01 1.610815e+02
    endloop
  endfacet
  facet normal 1.437957e-04 1.000000e+00 3.586798e-13
    outer loop
      vertex   -2.046112e+02 7.142101e+01 1.610815e+02
      vertex   -2.044221e+02 7.142098e+01 1.610298e+02
      vertex   -2.057785e+02 7.142117e+01 1.600678e+02
    endloop
  endfacet
  facet normal 1.437957e-04 1.000000e+00 2.481657e-13
    outer loop
      vertex   -2.057785e+02 7.142117e+01 1.600678e+02
      vertex   -2.044221e+02 7.142098e+01 1.610298e+02
      vertex   -2.057538e+02 7.142117e+01 1.598733e+02
    endloop
  endfacet
  facet normal 1.437957e-04 1.000000e+00 2.768019e-13
    outer loop
      vertex   -2.057538e+02 7.142117e+01 1.598733e+02
      vertex   -2.044221e+02 7.142098e+01 1.610298e+02
      vertex   -2.042467e+02 7.142095e+01 1.609422e+02
    endloop
  endfacet
  facet normal 1.437957e-04 1.000000e+00 2.775215e-13
    outer loop
      vertex   -2.056917e+02 7.142116e+01 1.596874e+02
      vertex   -2.042467e+02 7.142095e+01 1.609422e+02
      vertex   -2.040917e+02 7.142093e+01 1.608221e+02
    endloop
  endfacet
  facet normal 1.437957e-04 1.000000e+00 3.101125e-13
    outer loop
      vertex   -2.055945e+02 7.142115e+01 1.595171e+02
      vertex   -2.040917e+02 7.142093e+01 1.608221e+02
      vertex   -2.039632e+02 7.142091e+01 1.606741e+02
    endloop
  endfacet
  facet normal 1.437957e-04 1.000000e+00 2.488507e-13
    outer loop
      vertex   -2.054660e+02 7.142113e+01 1.593691e+02
      vertex   -2.039632e+02 7.142091e+01 1.606741e+02
      vertex   -2.038660e+02 7.142090e+01 1.605039e+02
    endloop
  endfacet
  facet normal 1.437957e-04 1.000000e+00 3.766841e-13
    outer loop
      vertex   -2.053110e+02 7.142111e+01 1.592490e+02
      vertex   -2.038660e+02 7.142090e+01 1.605039e+02
      vertex   -2.038039e+02 7.142089e+01 1.603180e+02
    endloop
  endfacet
  facet normal 1.437957e-04 1.000000e+00 2.481658e-13
    outer loop
      vertex   -2.051357e+02 7.142108e+01 1.591614e+02
      vertex   -2.038039e+02 7.142089e+01 1.603180e+02
      vertex   -2.037792e+02 7.142089e+01 1.601235e+02
    endloop
  endfacet
  facet normal 1.437957e-04 1.000000e+00 2.551700e-13
    outer loop
      vertex   -2.049466e+02 7.142105e+01 1.591098e+02
      vertex   -2.037792e+02 7.142089e+01 1.601235e+02
      vertex   -2.037930e+02 7.142089e+01 1.599279e+02
    endloop
  endfacet
  facet normal 1.437957e-04 1.000000e+00 3.437884e-13
    outer loop
      vertex   -2.047510e+02 7.142103e+01 1.590960e+02
      vertex   -2.037930e+02 7.142089e+01 1.599279e+02
      vertex   -2.038447e+02 7.142090e+01 1.597388e+02
    endloop
  endfacet
  facet normal 1.437957e-04 1.000000e+00 2.766263e-13
    outer loop
      vertex   -2.045565e+02 7.142100e+01 1.591206e+02
      vertex   -2.038447e+02 7.142090e+01 1.597388e+02
      vertex   -2.039322e+02 7.142091e+01 1.595634e+02
    endloop
  endfacet
  facet normal 1.437957e-04 1.000000e+00 3.842450e-13
    outer loop
      vertex   -2.043706e+02 7.142097e+01 1.591828e+02
      vertex   -2.039322e+02 7.142091e+01 1.595634e+02
      vertex   -2.040523e+02 7.142093e+01 1.594085e+02
    endloop
  endfacet
  facet normal 1.437957e-04 1.000000e+00 7.617163e-13
    outer loop
      vertex   -2.042003e+02 7.142095e+01 1.592799e+02
      vertex   -2.043706e+02 7.142097e+01 1.591828e+02
      vertex   -2.040523e+02 7.142093e+01 1.594085e+02
    endloop
  endfacet
  facet normal 1.437957e-04 1.000000e+00 2.357848e-13
    outer loop
      vertex   -2.043706e+02 7.142097e+01 1.591828e+02
      vertex   -2.045565e+02 7.142100e+01 1.591206e+02
      vertex   -2.039322e+02 7.142091e+01 1.595634e+02
    endloop
  endfacet
  facet normal 1.437957e-04 1.000000e+00 1.579422e-13
    outer loop
      vertex   -2.045565e+02 7.142100e+01 1.591206e+02
      vertex   -2.047510e+02 7.142103e+01 1.590960e+02
      vertex   -2.038447e+02 7.142090e+01 1.597388e+02
    endloop
  endfacet
  facet normal 1.437957e-04 1.000000e+00 3.445428e-13
    outer loop
      vertex   -2.047510e+02 7.142103e+01 1.590960e+02
      vertex   -2.049466e+02 7.142105e+01 1.591098e+02
      vertex   -2.037930e+02 7.142089e+01 1.599279e+02
    endloop
  endfacet
  facet normal 1.437957e-04 1.000000e+00 3.586798e-13
    outer loop
      vertex   -2.049466e+02 7.142105e+01 1.591098e+02
      vertex   -2.051357e+02 7.142108e+01 1.591614e+02
      vertex   -2.037792e+02 7.142089e+01 1.601235e+02
    endloop
  endfacet
  facet normal 1.437957e-04 1.000000e+00 2.768019e-13
    outer loop
      vertex   -2.051357e+02 7.142108e+01 1.591614e+02
      vertex   -2.053110e+02 7.142111e+01 1.592490e+02
      vertex   -2.038039e+02 7.142089e+01 1.603180e+02
    endloop
  endfacet
  facet normal 1.437957e-04 1.000000e+00 2.775215e-13
    outer loop
      vertex   -2.053110e+02 7.142111e+01 1.592490e+02
      vertex   -2.054660e+02 7.142113e+01 1.593691e+02
      vertex   -2.038660e+02 7.142090e+01 1.605039e+02
    endloop
  endfacet
  facet normal 1.437957e-04 1.000000e+00 3.100954e-13
    outer loop
      vertex   -2.054660e+02 7.142113e+01 1.593691e+02
      vertex   -2.055945e+02 7.142115e+01 1.595171e+02
      vertex   -2.039632e+02 7.142091e+01 1.606741e+02
    endloop
  endfacet
  facet normal 1.437957e-04 1.000000e+00 2.488678e-13
    outer loop
      vertex   -2.040917e+02 7.142093e+01 1.608221e+02
      vertex   -2.055945e+02 7.142115e+01 1.595171e+02
      vertex   -2.056917e+02 7.142116e+01 1.596874e+02
    endloop
  endfacet
  facet normal 1.437957e-04 1.000000e+00 3.766841e-13
    outer loop
      vertex   -2.042467e+02 7.142095e+01 1.609422e+02
      vertex   -2.056917e+02 7.142116e+01 1.596874e+02
      vertex   -2.057538e+02 7.142117e+01 1.598733e+02
    endloop
  endfacet
  facet normal -8.684491e-01 1.248793e-04 -4.957784e-01
    outer loop
      vertex   -2.055945e+02 7.142115e+01 1.595171e+02
      vertex   -2.055951e+02 6.749115e+01 1.595171e+02
      vertex   -2.056917e+02 7.142116e+01 1.596874e+02
    endloop
  endfacet
  facet normal -8.684491e-01 1.248793e-04 -4.957784e-01
    outer loop
      vertex   -2.056917e+02 7.142116e+01 1.596874e+02
      vertex   -2.055951e+02 6.749115e+01 1.595171e+02
      vertex   -2.056923e+02 6.749116e+01 1.596874e+02
    endloop
  endfacet
  facet normal -9.484836e-01 1.363879e-04 -3.168262e-01
    outer loop
      vertex   -2.057544e+02 6.749117e+01 1.598733e+02
      vertex   -2.056917e+02 7.142116e+01 1.596874e+02
      vertex   -2.056923e+02 6.749116e+01 1.596874e+02
    endloop
  endfacet
  facet normal -9.484836e-01 1.363879e-04 -3.168262e-01
    outer loop
      vertex   -2.057544e+02 6.749117e+01 1.598733e+02
      vertex   -2.057538e+02 7.142117e+01 1.598733e+02
      vertex   -2.056917e+02 7.142116e+01 1.596874e+02
    endloop
  endfacet
  facet normal -9.920685e-01 1.426552e-04 -1.256985e-01
    outer loop
      vertex   -2.057544e+02 6.749117e+01 1.598733e+02
      vertex   -2.057790e+02 6.749117e+01 1.600678e+02
      vertex   -2.057538e+02 7.142117e+01 1.598733e+02
    endloop
  endfacet
  facet normal -9.920685e-01 1.426552e-04 -1.256985e-01
    outer loop
      vertex   -2.057538e+02 7.142117e+01 1.598733e+02
      vertex   -2.057790e+02 6.749117e+01 1.600678e+02
      vertex   -2.057785e+02 7.142117e+01 1.600678e+02
    endloop
  endfacet
  facet normal -9.975287e-01 1.434404e-04 7.025976e-02
    outer loop
      vertex   -2.057785e+02 7.142117e+01 1.600678e+02
      vertex   -2.057790e+02 6.749117e+01 1.600678e+02
      vertex   -2.057653e+02 6.749117e+01 1.602633e+02
    endloop
  endfacet
  facet normal -9.646545e-01 1.387132e-04 2.635179e-01
    outer loop
      vertex   -2.057647e+02 7.142117e+01 1.602633e+02
      vertex   -2.057653e+02 6.749117e+01 1.602633e+02
      vertex   -2.057136e+02 6.749116e+01 1.604524e+02
    endloop
  endfacet
  facet normal -8.947091e-01 1.286554e-04 4.466493e-01
    outer loop
      vertex   -2.057130e+02 7.142116e+01 1.604524e+02
      vertex   -2.057136e+02 6.749116e+01 1.604524e+02
      vertex   -2.056255e+02 7.142115e+01 1.606278e+02
    endloop
  endfacet
  facet normal -9.646545e-01 1.387132e-04 2.635179e-01
    outer loop
      vertex   -2.057130e+02 7.142116e+01 1.604524e+02
      vertex   -2.057647e+02 7.142117e+01 1.602633e+02
      vertex   -2.057136e+02 6.749116e+01 1.604524e+02
    endloop
  endfacet
  facet normal -8.947091e-01 1.286554e-04 4.466493e-01
    outer loop
      vertex   -2.057136e+02 6.749116e+01 1.604524e+02
      vertex   -2.056260e+02 6.749115e+01 1.606278e+02
      vertex   -2.056255e+02 7.142115e+01 1.606278e+02
    endloop
  endfacet
  facet normal -7.903806e-01 1.136534e-04 6.126161e-01
    outer loop
      vertex   -2.056255e+02 7.142115e+01 1.606278e+02
      vertex   -2.056260e+02 6.749115e+01 1.606278e+02
      vertex   -2.055059e+02 6.749114e+01 1.607828e+02
    endloop
  endfacet
  facet normal -6.556782e-01 9.428372e-05 7.550405e-01
    outer loop
      vertex   -2.055054e+02 7.142113e+01 1.607828e+02
      vertex   -2.055059e+02 6.749114e+01 1.607828e+02
      vertex   -2.053579e+02 6.749111e+01 1.609113e+02
    endloop
  endfacet
  facet normal -4.957784e-01 7.129082e-05 8.684491e-01
    outer loop
      vertex   -2.053574e+02 7.142111e+01 1.609113e+02
      vertex   -2.053579e+02 6.749111e+01 1.609113e+02
      vertex   -2.051877e+02 6.749109e+01 1.610085e+02
    endloop
  endfacet
  facet normal -3.168262e-01 4.555825e-05 9.484836e-01
    outer loop
      vertex   -2.051871e+02 7.142109e+01 1.610085e+02
      vertex   -2.051877e+02 6.749109e+01 1.610085e+02
      vertex   -2.050018e+02 6.749106e+01 1.610706e+02
    endloop
  endfacet
  facet normal -1.256985e-01 1.807490e-05 9.920685e-01
    outer loop
      vertex   -2.050012e+02 7.142106e+01 1.610706e+02
      vertex   -2.050018e+02 6.749106e+01 1.610706e+02
      vertex   -2.048067e+02 7.142103e+01 1.610952e+02
    endloop
  endfacet
  facet normal -3.168262e-01 4.555825e-05 9.484836e-01
    outer loop
      vertex   -2.050012e+02 7.142106e+01 1.610706e+02
      vertex   -2.051871e+02 7.142109e+01 1.610085e+02
      vertex   -2.050018e+02 6.749106e+01 1.610706e+02
    endloop
  endfacet
  facet normal -1.256985e-01 1.807490e-05 9.920685e-01
    outer loop
      vertex   -2.050018e+02 6.749106e+01 1.610706e+02
      vertex   -2.048073e+02 6.749103e+01 1.610952e+02
      vertex   -2.048067e+02 7.142103e+01 1.610952e+02
    endloop
  endfacet
  facet normal 7.025976e-02 -1.010305e-05 9.975287e-01
    outer loop
      vertex   -2.048067e+02 7.142103e+01 1.610952e+02
      vertex   -2.048073e+02 6.749103e+01 1.610952e+02
      vertex   -2.046117e+02 6.749101e+01 1.610815e+02
    endloop
  endfacet
  facet normal 2.635179e-01 -3.789276e-05 9.646545e-01
    outer loop
      vertex   -2.046112e+02 7.142101e+01 1.610815e+02
      vertex   -2.046117e+02 6.749101e+01 1.610815e+02
      vertex   -2.044226e+02 6.749098e+01 1.610298e+02
    endloop
  endfacet
  facet normal 4.466493e-01 -6.422626e-05 8.947091e-01
    outer loop
      vertex   -2.044221e+02 7.142098e+01 1.610298e+02
      vertex   -2.044226e+02 6.749098e+01 1.610298e+02
      vertex   -2.042472e+02 6.749095e+01 1.609422e+02
    endloop
  endfacet
  facet normal 6.126161e-01 -8.809158e-05 7.903806e-01
    outer loop
      vertex   -2.042467e+02 7.142095e+01 1.609422e+02
      vertex   -2.042472e+02 6.749095e+01 1.609422e+02
      vertex   -2.040923e+02 6.749093e+01 1.608221e+02
    endloop
  endfacet
  facet normal 7.550405e-01 -1.085716e-04 6.556782e-01
    outer loop
      vertex   -2.040917e+02 7.142093e+01 1.608221e+02
      vertex   -2.040923e+02 6.749093e+01 1.608221e+02
      vertex   -2.039632e+02 7.142091e+01 1.606741e+02
    endloop
  endfacet
  facet normal 6.126161e-01 -8.809158e-05 7.903806e-01
    outer loop
      vertex   -2.040917e+02 7.142093e+01 1.608221e+02
      vertex   -2.042467e+02 7.142095e+01 1.609422e+02
      vertex   -2.040923e+02 6.749093e+01 1.608221e+02
    endloop
  endfacet
  facet normal 7.550405e-01 -1.085716e-04 6.556782e-01
    outer loop
      vertex   -2.040923e+02 6.749093e+01 1.608221e+02
      vertex   -2.039637e+02 6.749091e+01 1.606741e+02
      vertex   -2.039632e+02 7.142091e+01 1.606741e+02
    endloop
  endfacet
  facet normal 4.466493e-01 -6.422626e-05 8.947091e-01
    outer loop
      vertex   -2.042467e+02 7.142095e+01 1.609422e+02
      vertex   -2.044221e+02 7.142098e+01 1.610298e+02
      vertex   -2.042472e+02 6.749095e+01 1.609422e+02
    endloop
  endfacet
  facet normal 2.635179e-01 -3.789276e-05 9.646545e-01
    outer loop
      vertex   -2.044221e+02 7.142098e+01 1.610298e+02
      vertex   -2.046112e+02 7.142101e+01 1.610815e+02
      vertex   -2.044226e+02 6.749098e+01 1.610298e+02
    endloop
  endfacet
  facet normal 7.025976e-02 -1.010305e-05 9.975287e-01
    outer loop
      vertex   -2.046112e+02 7.142101e+01 1.610815e+02
      vertex   -2.048067e+02 7.142103e+01 1.610952e+02
      vertex   -2.046117e+02 6.749101e+01 1.610815e+02
    endloop
  endfacet
  facet normal -4.957784e-01 7.129082e-05 8.684491e-01
    outer loop
      vertex   -2.051871e+02 7.142109e+01 1.610085e+02
      vertex   -2.053574e+02 7.142111e+01 1.609113e+02
      vertex   -2.051877e+02 6.749109e+01 1.610085e+02
    endloop
  endfacet
  facet normal -6.556782e-01 9.428372e-05 7.550405e-01
    outer loop
      vertex   -2.053574e+02 7.142111e+01 1.609113e+02
      vertex   -2.055054e+02 7.142113e+01 1.607828e+02
      vertex   -2.053579e+02 6.749111e+01 1.609113e+02
    endloop
  endfacet
  facet normal -7.903806e-01 1.136534e-04 6.126161e-01
    outer loop
      vertex   -2.055054e+02 7.142113e+01 1.607828e+02
      vertex   -2.056255e+02 7.142115e+01 1.606278e+02
      vertex   -2.055059e+02 6.749114e+01 1.607828e+02
    endloop
  endfacet
  facet normal -9.975287e-01 1.434404e-04 7.025976e-02
    outer loop
      vertex   -2.057647e+02 7.142117e+01 1.602633e+02
      vertex   -2.057785e+02 7.142117e+01 1.600678e+02
      vertex   -2.057653e+02 6.749117e+01 1.602633e+02
    endloop
  endfacet
  facet normal -9.088440e-01 1.306879e-04 4.171361e-01
    outer loop
      vertex   -2.041324e+02 6.622094e+01 1.601562e+02
      vertex   -2.041323e+02 6.742094e+01 1.601562e+02
      vertex   -2.044036e+02 6.622098e+01 1.595654e+02
    endloop
  endfacet
  facet normal -9.088440e-01 1.306879e-04 4.171361e-01
    outer loop
      vertex   -2.044036e+02 6.622098e+01 1.595654e+02
      vertex   -2.041323e+02 6.742094e+01 1.601562e+02
      vertex   -2.044034e+02 6.742098e+01 1.595654e+02
    endloop
  endfacet
  facet normal -6.046774e-01 7.177490e-01 -3.452559e-01
    outer loop
      vertex   -2.055951e+02 6.749115e+01 1.595171e+02
      vertex   -2.063293e+02 6.662213e+01 1.589964e+02
      vertex   -2.056923e+02 6.749116e+01 1.596874e+02
    endloop
  endfacet
  facet normal -6.046774e-01 7.177490e-01 -3.452559e-01
    outer loop
      vertex   -2.056923e+02 6.749116e+01 1.596874e+02
      vertex   -2.063293e+02 6.662213e+01 1.589964e+02
      vertex   -2.065140e+02 6.662216e+01 1.593199e+02
    endloop
  endfacet
  facet normal -6.604128e-01 7.177570e-01 -2.206351e-01
    outer loop
      vertex   -2.066320e+02 6.662218e+01 1.596732e+02
      vertex   -2.056923e+02 6.749116e+01 1.596874e+02
      vertex   -2.065140e+02 6.662216e+01 1.593199e+02
    endloop
  endfacet
  facet normal -6.604128e-01 7.177570e-01 -2.206351e-01
    outer loop
      vertex   -2.066320e+02 6.662218e+01 1.596732e+02
      vertex   -2.057544e+02 6.749117e+01 1.598733e+02
      vertex   -2.056923e+02 6.749116e+01 1.596874e+02
    endloop
  endfacet
  facet normal -6.907649e-01 7.177614e-01 -8.753534e-02
    outer loop
      vertex   -2.066320e+02 6.662218e+01 1.596732e+02
      vertex   -2.066788e+02 6.662218e+01 1.600427e+02
      vertex   -2.057544e+02 6.749117e+01 1.598733e+02
    endloop
  endfacet
  facet normal -6.907649e-01 7.177614e-01 -8.753534e-02
    outer loop
      vertex   -2.057544e+02 6.749117e+01 1.598733e+02
      vertex   -2.066788e+02 6.662218e+01 1.600427e+02
      vertex   -2.057790e+02 6.749117e+01 1.600678e+02
    endloop
  endfacet
  facet normal -6.945673e-01 7.177620e-01 4.892830e-02
    outer loop
      vertex   -2.057790e+02 6.749117e+01 1.600678e+02
      vertex   -2.066788e+02 6.662218e+01 1.600427e+02
      vertex   -2.066526e+02 6.662218e+01 1.604142e+02
    endloop
  endfacet
  facet normal -6.716740e-01 7.177587e-01 1.835117e-01
    outer loop
      vertex   -2.057653e+02 6.749117e+01 1.602633e+02
      vertex   -2.066526e+02 6.662218e+01 1.604142e+02
      vertex   -2.065545e+02 6.662217e+01 1.607735e+02
    endloop
  endfacet
  facet normal -6.229646e-01 7.177517e-01 3.110428e-01
    outer loop
      vertex   -2.057136e+02 6.749116e+01 1.604524e+02
      vertex   -2.065545e+02 6.662217e+01 1.607735e+02
      vertex   -2.056260e+02 6.749115e+01 1.606278e+02
    endloop
  endfacet
  facet normal -6.716740e-01 7.177587e-01 1.835117e-01
    outer loop
      vertex   -2.057136e+02 6.749116e+01 1.604524e+02
      vertex   -2.057653e+02 6.749117e+01 1.602633e+02
      vertex   -2.065545e+02 6.662217e+01 1.607735e+02
    endloop
  endfacet
  facet normal -6.229646e-01 7.177517e-01 3.110428e-01
    outer loop
      vertex   -2.065545e+02 6.662217e+01 1.607735e+02
      vertex   -2.063881e+02 6.662214e+01 1.611068e+02
      vertex   -2.056260e+02 6.749115e+01 1.606278e+02
    endloop
  endfacet
  facet normal -5.503111e-01 7.177412e-01 4.266207e-01
    outer loop
      vertex   -2.056260e+02 6.749115e+01 1.606278e+02
      vertex   -2.063881e+02 6.662214e+01 1.611068e+02
      vertex   -2.061599e+02 6.662211e+01 1.614012e+02
    endloop
  endfacet
  facet normal -4.565055e-01 7.177277e-01 5.258038e-01
    outer loop
      vertex   -2.055059e+02 6.749114e+01 1.607828e+02
      vertex   -2.061599e+02 6.662211e+01 1.614012e+02
      vertex   -2.058787e+02 6.662207e+01 1.616454e+02
    endloop
  endfacet
  facet normal -3.451527e-01 7.177117e-01 6.047806e-01
    outer loop
      vertex   -2.053579e+02 6.749111e+01 1.609113e+02
      vertex   -2.058787e+02 6.662207e+01 1.616454e+02
      vertex   -2.055553e+02 6.662202e+01 1.618301e+02
    endloop
  endfacet
  facet normal -2.205319e-01 7.176938e-01 6.605160e-01
    outer loop
      vertex   -2.051877e+02 6.749109e+01 1.610085e+02
      vertex   -2.055553e+02 6.662202e+01 1.618301e+02
      vertex   -2.052020e+02 6.662197e+01 1.619481e+02
    endloop
  endfacet
  facet normal -8.743214e-02 7.176747e-01 6.908681e-01
    outer loop
      vertex   -2.050018e+02 6.749106e+01 1.610706e+02
      vertex   -2.052020e+02 6.662197e+01 1.619481e+02
      vertex   -2.048073e+02 6.749103e+01 1.610952e+02
    endloop
  endfacet
  facet normal -2.205319e-01 7.176938e-01 6.605160e-01
    outer loop
      vertex   -2.050018e+02 6.749106e+01 1.610706e+02
      vertex   -2.051877e+02 6.749109e+01 1.610085e+02
      vertex   -2.052020e+02 6.662197e+01 1.619481e+02
    endloop
  endfacet
  facet normal -8.743214e-02 7.176747e-01 6.908681e-01
    outer loop
      vertex   -2.052020e+02 6.662197e+01 1.619481e+02
      vertex   -2.048325e+02 6.662192e+01 1.619949e+02
      vertex   -2.048073e+02 6.749103e+01 1.610952e+02
    endloop
  endfacet
  facet normal 4.903150e-02 7.176550e-01 6.946705e-01
    outer loop
      vertex   -2.048073e+02 6.749103e+01 1.610952e+02
      vertex   -2.048325e+02 6.662192e+01 1.619949e+02
      vertex   -2.044609e+02 6.662186e+01 1.619687e+02
    endloop
  endfacet
  facet normal 1.836149e-01 7.176357e-01 6.717772e-01
    outer loop
      vertex   -2.046117e+02 6.749101e+01 1.610815e+02
      vertex   -2.044609e+02 6.662186e+01 1.619687e+02
      vertex   -2.041016e+02 6.662181e+01 1.618706e+02
    endloop
  endfacet
  facet normal 3.111460e-01 7.176173e-01 6.230679e-01
    outer loop
      vertex   -2.044226e+02 6.749098e+01 1.610298e+02
      vertex   -2.041016e+02 6.662181e+01 1.618706e+02
      vertex   -2.037684e+02 6.662177e+01 1.617042e+02
    endloop
  endfacet
  facet normal 4.267239e-01 7.176007e-01 5.504143e-01
    outer loop
      vertex   -2.042472e+02 6.749095e+01 1.609422e+02
      vertex   -2.037684e+02 6.662177e+01 1.617042e+02
      vertex   -2.034740e+02 6.662172e+01 1.614760e+02
    endloop
  endfacet
  facet normal 5.259070e-01 7.175865e-01 4.566087e-01
    outer loop
      vertex   -2.040923e+02 6.749093e+01 1.608221e+02
      vertex   -2.034740e+02 6.662172e+01 1.614760e+02
      vertex   -2.039637e+02 6.749091e+01 1.606741e+02
    endloop
  endfacet
  facet normal 4.267239e-01 7.176007e-01 5.504143e-01
    outer loop
      vertex   -2.040923e+02 6.749093e+01 1.608221e+02
      vertex   -2.042472e+02 6.749095e+01 1.609422e+02
      vertex   -2.034740e+02 6.662172e+01 1.614760e+02
    endloop
  endfacet
  facet normal 5.259070e-01 7.175865e-01 4.566087e-01
    outer loop
      vertex   -2.034740e+02 6.662172e+01 1.614760e+02
      vertex   -2.032298e+02 6.662169e+01 1.611948e+02
      vertex   -2.039637e+02 6.749091e+01 1.606741e+02
    endloop
  endfacet
  facet normal 3.111460e-01 7.176173e-01 6.230679e-01
    outer loop
      vertex   -2.042472e+02 6.749095e+01 1.609422e+02
      vertex   -2.044226e+02 6.749098e+01 1.610298e+02
      vertex   -2.037684e+02 6.662177e+01 1.617042e+02
    endloop
  endfacet
  facet normal 1.836149e-01 7.176357e-01 6.717772e-01
    outer loop
      vertex   -2.044226e+02 6.749098e+01 1.610298e+02
      vertex   -2.046117e+02 6.749101e+01 1.610815e+02
      vertex   -2.041016e+02 6.662181e+01 1.618706e+02
    endloop
  endfacet
  facet normal 4.903150e-02 7.176550e-01 6.946705e-01
    outer loop
      vertex   -2.046117e+02 6.749101e+01 1.610815e+02
      vertex   -2.048073e+02 6.749103e+01 1.610952e+02
      vertex   -2.044609e+02 6.662186e+01 1.619687e+02
    endloop
  endfacet
  facet normal -3.451527e-01 7.177117e-01 6.047806e-01
    outer loop
      vertex   -2.051877e+02 6.749109e+01 1.610085e+02
      vertex   -2.053579e+02 6.749111e+01 1.609113e+02
      vertex   -2.055553e+02 6.662202e+01 1.618301e+02
    endloop
  endfacet
  facet normal -4.565055e-01 7.177277e-01 5.258038e-01
    outer loop
      vertex   -2.053579e+02 6.749111e+01 1.609113e+02
      vertex   -2.055059e+02 6.749114e+01 1.607828e+02
      vertex   -2.058787e+02 6.662207e+01 1.616454e+02
    endloop
  endfacet
  facet normal -5.503111e-01 7.177412e-01 4.266207e-01
    outer loop
      vertex   -2.055059e+02 6.749114e+01 1.607828e+02
      vertex   -2.056260e+02 6.749115e+01 1.606278e+02
      vertex   -2.061599e+02 6.662211e+01 1.614012e+02
    endloop
  endfacet
  facet normal -6.945673e-01 7.177620e-01 4.892830e-02
    outer loop
      vertex   -2.057653e+02 6.749117e+01 1.602633e+02
      vertex   -2.057790e+02 6.749117e+01 1.600678e+02
      vertex   -2.066526e+02 6.662218e+01 1.604142e+02
    endloop
  endfacet
  facet normal -8.156724e-01 1.172902e-04 -5.785140e-01
    outer loop
      vertex   -2.045085e+02 6.622099e+01 1.606864e+02
      vertex   -2.045083e+02 6.742099e+01 1.606864e+02
      vertex   -2.041324e+02 6.622094e+01 1.601562e+02
    endloop
  endfacet
  facet normal -8.156724e-01 1.172902e-04 -5.785140e-01
    outer loop
      vertex   -2.041324e+02 6.622094e+01 1.601562e+02
      vertex   -2.045083e+02 6.742099e+01 1.606864e+02
      vertex   -2.041323e+02 6.742094e+01 1.601562e+02
    endloop
  endfacet
  facet normal 7.550405e-01 -1.085716e-04 6.556782e-01
    outer loop
      vertex   -2.032298e+02 6.622081e+01 1.611948e+02
      vertex   -2.032298e+02 6.662169e+01 1.611948e+02
      vertex   -2.034740e+02 6.622084e+01 1.614760e+02
    endloop
  endfacet
  facet normal 7.550405e-01 -1.085716e-04 6.556782e-01
    outer loop
      vertex   -2.034740e+02 6.622084e+01 1.614760e+02
      vertex   -2.032298e+02 6.662169e+01 1.611948e+02
      vertex   -2.034740e+02 6.662172e+01 1.614760e+02
    endloop
  endfacet
  facet normal 6.126161e-01 -8.809158e-05 7.903806e-01
    outer loop
      vertex   -2.037684e+02 6.662177e+01 1.617042e+02
      vertex   -2.034740e+02 6.622084e+01 1.614760e+02
      vertex   -2.034740e+02 6.662172e+01 1.614760e+02
    endloop
  endfacet
  facet normal 6.126161e-01 -8.809158e-05 7.903806e-01
    outer loop
      vertex   -2.037684e+02 6.662177e+01 1.617042e+02
      vertex   -2.037684e+02 6.622089e+01 1.617042e+02
      vertex   -2.034740e+02 6.622084e+01 1.614760e+02
    endloop
  endfacet
  facet normal 4.466493e-01 -6.422626e-05 8.947091e-01
    outer loop
      vertex   -2.037684e+02 6.662177e+01 1.617042e+02
      vertex   -2.041016e+02 6.662181e+01 1.618706e+02
      vertex   -2.037684e+02 6.622089e+01 1.617042e+02
    endloop
  endfacet
  facet normal 4.466493e-01 -6.422626e-05 8.947091e-01
    outer loop
      vertex   -2.037684e+02 6.622089e+01 1.617042e+02
      vertex   -2.041016e+02 6.662181e+01 1.618706e+02
      vertex   -2.041017e+02 6.622093e+01 1.618706e+02
    endloop
  endfacet
  facet normal 2.635179e-01 -3.789276e-05 9.646545e-01
    outer loop
      vertex   -2.041017e+02 6.622093e+01 1.618706e+02
      vertex   -2.041016e+02 6.662181e+01 1.618706e+02
      vertex   -2.044609e+02 6.662186e+01 1.619687e+02
    endloop
  endfacet
  facet normal 7.025976e-02 -1.010305e-05 9.975287e-01
    outer loop
      vertex   -2.044610e+02 6.622098e+01 1.619687e+02
      vertex   -2.044609e+02 6.662186e+01 1.619687e+02
      vertex   -2.048325e+02 6.662192e+01 1.619949e+02
    endloop
  endfacet
  facet normal -1.256985e-01 1.807490e-05 9.920685e-01
    outer loop
      vertex   -2.048325e+02 6.622104e+01 1.619949e+02
      vertex   -2.048325e+02 6.662192e+01 1.619949e+02
      vertex   -2.052020e+02 6.622109e+01 1.619481e+02
    endloop
  endfacet
  facet normal 7.025976e-02 -1.010305e-05 9.975287e-01
    outer loop
      vertex   -2.048325e+02 6.622104e+01 1.619949e+02
      vertex   -2.044610e+02 6.622098e+01 1.619687e+02
      vertex   -2.048325e+02 6.662192e+01 1.619949e+02
    endloop
  endfacet
  facet normal -1.256985e-01 1.807490e-05 9.920685e-01
    outer loop
      vertex   -2.048325e+02 6.662192e+01 1.619949e+02
      vertex   -2.052020e+02 6.662197e+01 1.619481e+02
      vertex   -2.052020e+02 6.622109e+01 1.619481e+02
    endloop
  endfacet
  facet normal -3.168262e-01 4.555825e-05 9.484836e-01
    outer loop
      vertex   -2.052020e+02 6.622109e+01 1.619481e+02
      vertex   -2.052020e+02 6.662197e+01 1.619481e+02
      vertex   -2.055553e+02 6.662202e+01 1.618301e+02
    endloop
  endfacet
  facet normal -4.957784e-01 7.129082e-05 8.684491e-01
    outer loop
      vertex   -2.055553e+02 6.622114e+01 1.618301e+02
      vertex   -2.055553e+02 6.662202e+01 1.618301e+02
      vertex   -2.058787e+02 6.662207e+01 1.616454e+02
    endloop
  endfacet
  facet normal -6.556782e-01 9.428372e-05 7.550405e-01
    outer loop
      vertex   -2.058788e+02 6.622119e+01 1.616454e+02
      vertex   -2.058787e+02 6.662207e+01 1.616454e+02
      vertex   -2.061599e+02 6.662211e+01 1.614012e+02
    endloop
  endfacet
  facet normal -7.903806e-01 1.136534e-04 6.126161e-01
    outer loop
      vertex   -2.061600e+02 6.622123e+01 1.614012e+02
      vertex   -2.061599e+02 6.662211e+01 1.614012e+02
      vertex   -2.063881e+02 6.662214e+01 1.611068e+02
    endloop
  endfacet
  facet normal -8.947091e-01 1.286554e-04 4.466493e-01
    outer loop
      vertex   -2.063882e+02 6.622126e+01 1.611068e+02
      vertex   -2.063881e+02 6.662214e+01 1.611068e+02
      vertex   -2.065545e+02 6.622129e+01 1.607735e+02
    endloop
  endfacet
  facet normal -7.903806e-01 1.136534e-04 6.126161e-01
    outer loop
      vertex   -2.063882e+02 6.622126e+01 1.611068e+02
      vertex   -2.061600e+02 6.622123e+01 1.614012e+02
      vertex   -2.063881e+02 6.662214e+01 1.611068e+02
    endloop
  endfacet
  facet normal -8.947091e-01 1.286554e-04 4.466493e-01
    outer loop
      vertex   -2.063881e+02 6.662214e+01 1.611068e+02
      vertex   -2.065545e+02 6.662217e+01 1.607735e+02
      vertex   -2.065545e+02 6.622129e+01 1.607735e+02
    endloop
  endfacet
  facet normal -9.646545e-01 1.387132e-04 2.635179e-01
    outer loop
      vertex   -2.065545e+02 6.622129e+01 1.607735e+02
      vertex   -2.065545e+02 6.662217e+01 1.607735e+02
      vertex   -2.066526e+02 6.662218e+01 1.604142e+02
    endloop
  endfacet
  facet normal -9.975287e-01 1.434404e-04 7.025976e-02
    outer loop
      vertex   -2.066527e+02 6.622130e+01 1.604142e+02
      vertex   -2.066526e+02 6.662218e+01 1.604142e+02
      vertex   -2.066788e+02 6.662218e+01 1.600427e+02
    endloop
  endfacet
  facet normal -9.920685e-01 1.426552e-04 -1.256985e-01
    outer loop
      vertex   -2.066789e+02 6.622130e+01 1.600427e+02
      vertex   -2.066788e+02 6.662218e+01 1.600427e+02
      vertex   -2.066320e+02 6.662218e+01 1.596732e+02
    endloop
  endfacet
  facet normal -9.484836e-01 1.363879e-04 -3.168262e-01
    outer loop
      vertex   -2.066320e+02 6.622130e+01 1.596732e+02
      vertex   -2.066320e+02 6.662218e+01 1.596732e+02
      vertex   -2.065140e+02 6.662216e+01 1.593199e+02
    endloop
  endfacet
  facet normal -8.684491e-01 1.248793e-04 -4.957784e-01
    outer loop
      vertex   -2.065140e+02 6.622128e+01 1.593199e+02
      vertex   -2.065140e+02 6.662216e+01 1.593199e+02
      vertex   -2.063294e+02 6.622125e+01 1.589964e+02
    endloop
  endfacet
  facet normal -9.484836e-01 1.363879e-04 -3.168262e-01
    outer loop
      vertex   -2.065140e+02 6.622128e+01 1.593199e+02
      vertex   -2.066320e+02 6.622130e+01 1.596732e+02
      vertex   -2.065140e+02 6.662216e+01 1.593199e+02
    endloop
  endfacet
  facet normal -8.684491e-01 1.248793e-04 -4.957784e-01
    outer loop
      vertex   -2.065140e+02 6.662216e+01 1.593199e+02
      vertex   -2.063293e+02 6.662213e+01 1.589964e+02
      vertex   -2.063294e+02 6.622125e+01 1.589964e+02
    endloop
  endfacet
  facet normal -9.920685e-01 1.426552e-04 -1.256985e-01
    outer loop
      vertex   -2.066320e+02 6.622130e+01 1.596732e+02
      vertex   -2.066789e+02 6.622130e+01 1.600427e+02
      vertex   -2.066320e+02 6.662218e+01 1.596732e+02
    endloop
  endfacet
  facet normal -9.975287e-01 1.434404e-04 7.025976e-02
    outer loop
      vertex   -2.066789e+02 6.622130e+01 1.600427e+02
      vertex   -2.066527e+02 6.622130e+01 1.604142e+02
      vertex   -2.066788e+02 6.662218e+01 1.600427e+02
    endloop
  endfacet
  facet normal -9.646545e-01 1.387132e-04 2.635179e-01
    outer loop
      vertex   -2.066527e+02 6.622130e+01 1.604142e+02
      vertex   -2.065545e+02 6.622129e+01 1.607735e+02
      vertex   -2.066526e+02 6.662218e+01 1.604142e+02
    endloop
  endfacet
  facet normal -6.556782e-01 9.428372e-05 7.550405e-01
    outer loop
      vertex   -2.061600e+02 6.622123e+01 1.614012e+02
      vertex   -2.058788e+02 6.622119e+01 1.616454e+02
      vertex   -2.061599e+02 6.662211e+01 1.614012e+02
    endloop
  endfacet
  facet normal -4.957784e-01 7.129082e-05 8.684491e-01
    outer loop
      vertex   -2.058788e+02 6.622119e+01 1.616454e+02
      vertex   -2.055553e+02 6.622114e+01 1.618301e+02
      vertex   -2.058787e+02 6.662207e+01 1.616454e+02
    endloop
  endfacet
  facet normal -3.168262e-01 4.555825e-05 9.484836e-01
    outer loop
      vertex   -2.055553e+02 6.622114e+01 1.618301e+02
      vertex   -2.052020e+02 6.622109e+01 1.619481e+02
      vertex   -2.055553e+02 6.662202e+01 1.618301e+02
    endloop
  endfacet
  facet normal 2.635179e-01 -3.789276e-05 9.646545e-01
    outer loop
      vertex   -2.044610e+02 6.622098e+01 1.619687e+02
      vertex   -2.041017e+02 6.622093e+01 1.618706e+02
      vertex   -2.044609e+02 6.662186e+01 1.619687e+02
    endloop
  endfacet
  facet normal -1.437957e-04 -1.000000e+00 -2.908543e-13
    outer loop
      vertex   -2.054266e+02 6.742112e+01 1.600351e+02
      vertex   -2.050506e+02 6.742107e+01 1.595049e+02
      vertex   -2.051555e+02 6.742108e+01 1.606258e+02
    endloop
  endfacet
  facet normal -1.437957e-04 -1.000000e+00 -2.888155e-13
    outer loop
      vertex   -2.051555e+02 6.742108e+01 1.606258e+02
      vertex   -2.050506e+02 6.742107e+01 1.595049e+02
      vertex   -2.044034e+02 6.742098e+01 1.595654e+02
    endloop
  endfacet
  facet normal -1.437957e-04 -1.000000e+00 -3.013861e-13
    outer loop
      vertex   -2.045083e+02 6.742099e+01 1.606864e+02
      vertex   -2.044034e+02 6.742098e+01 1.595654e+02
      vertex   -2.041323e+02 6.742094e+01 1.601562e+02
    endloop
  endfacet
  facet normal -1.437957e-04 -1.000000e+00 -3.034202e-13
    outer loop
      vertex   -2.045083e+02 6.742099e+01 1.606864e+02
      vertex   -2.051555e+02 6.742108e+01 1.606258e+02
      vertex   -2.044034e+02 6.742098e+01 1.595654e+02
    endloop
  endfacet
  facet normal -1.437957e-04 -1.000000e+00 -2.325715e-13
    outer loop
      vertex   -2.034740e+02 6.622084e+01 1.614760e+02
      vertex   -2.045085e+02 6.622099e+01 1.606864e+02
      vertex   -2.032298e+02 6.622081e+01 1.611948e+02
    endloop
  endfacet
  facet normal -1.437957e-04 -1.000000e+00 -2.709230e-13
    outer loop
      vertex   -2.034740e+02 6.622084e+01 1.614760e+02
      vertex   -2.037684e+02 6.622089e+01 1.617042e+02
      vertex   -2.045085e+02 6.622099e+01 1.606864e+02
    endloop
  endfacet
  facet normal -1.437957e-04 -1.000000e+00 -2.673060e-13
    outer loop
      vertex   -2.045085e+02 6.622099e+01 1.606864e+02
      vertex   -2.037684e+02 6.622089e+01 1.617042e+02
      vertex   -2.041017e+02 6.622093e+01 1.618706e+02
    endloop
  endfacet
  facet normal -1.437957e-04 -1.000000e+00 -2.729745e-13
    outer loop
      vertex   -2.044610e+02 6.622098e+01 1.619687e+02
      vertex   -2.045085e+02 6.622099e+01 1.606864e+02
      vertex   -2.041017e+02 6.622093e+01 1.618706e+02
    endloop
  endfacet
  facet normal -1.437957e-04 -1.000000e+00 -2.712384e-13
    outer loop
      vertex   -2.044610e+02 6.622098e+01 1.619687e+02
      vertex   -2.048325e+02 6.622104e+01 1.619949e+02
      vertex   -2.045085e+02 6.622099e+01 1.606864e+02
    endloop
  endfacet
  facet normal -1.437957e-04 -1.000000e+00 -2.634674e-13
    outer loop
      vertex   -2.045085e+02 6.622099e+01 1.606864e+02
      vertex   -2.048325e+02 6.622104e+01 1.619949e+02
      vertex   -2.051556e+02 6.622108e+01 1.606258e+02
    endloop
  endfacet
  facet normal -1.437957e-04 -1.000000e+00 -2.648359e-13
    outer loop
      vertex   -2.051556e+02 6.622108e+01 1.606258e+02
      vertex   -2.048325e+02 6.622104e+01 1.619949e+02
      vertex   -2.052020e+02 6.622109e+01 1.619481e+02
    endloop
  endfacet
  facet normal -1.437957e-04 -1.000000e+00 -2.651577e-13
    outer loop
      vertex   -2.055553e+02 6.622114e+01 1.618301e+02
      vertex   -2.051556e+02 6.622108e+01 1.606258e+02
      vertex   -2.052020e+02 6.622109e+01 1.619481e+02
    endloop
  endfacet
  facet normal -1.437957e-04 -1.000000e+00 -2.723741e-13
    outer loop
      vertex   -2.055553e+02 6.622114e+01 1.618301e+02
      vertex   -2.058788e+02 6.622119e+01 1.616454e+02
      vertex   -2.051556e+02 6.622108e+01 1.606258e+02
    endloop
  endfacet
  facet normal -1.437957e-04 -1.000000e+00 -2.763997e-13
    outer loop
      vertex   -2.051556e+02 6.622108e+01 1.606258e+02
      vertex   -2.058788e+02 6.622119e+01 1.616454e+02
      vertex   -2.061600e+02 6.622123e+01 1.614012e+02
    endloop
  endfacet
  facet normal -1.437957e-04 -1.000000e+00 -2.653242e-13
    outer loop
      vertex   -2.063882e+02 6.622126e+01 1.611068e+02
      vertex   -2.051556e+02 6.622108e+01 1.606258e+02
      vertex   -2.061600e+02 6.622123e+01 1.614012e+02
    endloop
  endfacet
  facet normal -1.437957e-04 -1.000000e+00 -2.777947e-13
    outer loop
      vertex   -2.063882e+02 6.622126e+01 1.611068e+02
      vertex   -2.065545e+02 6.622129e+01 1.607735e+02
      vertex   -2.051556e+02 6.622108e+01 1.606258e+02
    endloop
  endfacet
  facet normal -1.437957e-04 -1.000000e+00 -2.868886e-13
    outer loop
      vertex   -2.051556e+02 6.622108e+01 1.606258e+02
      vertex   -2.065545e+02 6.622129e+01 1.607735e+02
      vertex   -2.054268e+02 6.622112e+01 1.600351e+02
    endloop
  endfacet
  facet normal -1.437957e-04 -1.000000e+00 -3.114298e-13
    outer loop
      vertex   -2.054268e+02 6.622112e+01 1.600351e+02
      vertex   -2.065545e+02 6.622129e+01 1.607735e+02
      vertex   -2.066527e+02 6.622130e+01 1.604142e+02
    endloop
  endfacet
  facet normal -1.437957e-04 -1.000000e+00 -2.677670e-13
    outer loop
      vertex   -2.066789e+02 6.622130e+01 1.600427e+02
      vertex   -2.054268e+02 6.622112e+01 1.600351e+02
      vertex   -2.066527e+02 6.622130e+01 1.604142e+02
    endloop
  endfacet
  facet normal -1.437957e-04 -1.000000e+00 -2.822494e-13
    outer loop
      vertex   -2.066789e+02 6.622130e+01 1.600427e+02
      vertex   -2.066320e+02 6.622130e+01 1.596732e+02
      vertex   -2.054268e+02 6.622112e+01 1.600351e+02
    endloop
  endfacet
  facet normal -1.437957e-04 -1.000000e+00 -2.898611e-13
    outer loop
      vertex   -2.054268e+02 6.622112e+01 1.600351e+02
      vertex   -2.066320e+02 6.622130e+01 1.596732e+02
      vertex   -2.065140e+02 6.622128e+01 1.593199e+02
    endloop
  endfacet
  facet normal -1.437957e-04 -1.000000e+00 -3.199994e-13
    outer loop
      vertex   -2.063294e+02 6.622125e+01 1.589964e+02
      vertex   -2.054268e+02 6.622112e+01 1.600351e+02
      vertex   -2.065140e+02 6.622128e+01 1.593199e+02
    endloop
  endfacet
  facet normal -1.437957e-04 -1.000000e+00 -3.144881e-13
    outer loop
      vertex   -2.063294e+02 6.622125e+01 1.589964e+02
      vertex   -2.050507e+02 6.622107e+01 1.595049e+02
      vertex   -2.054268e+02 6.622112e+01 1.600351e+02
    endloop
  endfacet
  facet normal -1.437957e-04 -1.000000e+00 -3.220450e-13
    outer loop
      vertex   -2.063294e+02 6.622125e+01 1.589964e+02
      vertex   -2.060852e+02 6.622122e+01 1.587152e+02
      vertex   -2.050507e+02 6.622107e+01 1.595049e+02
    endloop
  endfacet
  facet normal -1.437957e-04 -1.000000e+00 -3.066441e-13
    outer loop
      vertex   -2.050507e+02 6.622107e+01 1.595049e+02
      vertex   -2.060852e+02 6.622122e+01 1.587152e+02
      vertex   -2.057908e+02 6.622118e+01 1.584870e+02
    endloop
  endfacet
  facet normal -1.437957e-04 -1.000000e+00 -3.082841e-13
    outer loop
      vertex   -2.054575e+02 6.622113e+01 1.583207e+02
      vertex   -2.050507e+02 6.622107e+01 1.595049e+02
      vertex   -2.057908e+02 6.622118e+01 1.584870e+02
    endloop
  endfacet
  facet normal -1.437957e-04 -1.000000e+00 -3.168615e-13
    outer loop
      vertex   -2.054575e+02 6.622113e+01 1.583207e+02
      vertex   -2.050982e+02 6.622108e+01 1.582225e+02
      vertex   -2.050507e+02 6.622107e+01 1.595049e+02
    endloop
  endfacet
  facet normal -1.437957e-04 -1.000000e+00 -3.154540e-13
    outer loop
      vertex   -2.050507e+02 6.622107e+01 1.595049e+02
      vertex   -2.050982e+02 6.622108e+01 1.582225e+02
      vertex   -2.047267e+02 6.622102e+01 1.581964e+02
    endloop
  endfacet
  facet normal -1.437957e-04 -1.000000e+00 -3.076353e-13
    outer loop
      vertex   -2.044036e+02 6.622098e+01 1.595654e+02
      vertex   -2.047267e+02 6.622102e+01 1.581964e+02
      vertex   -2.043572e+02 6.622097e+01 1.582432e+02
    endloop
  endfacet
  facet normal -1.437957e-04 -1.000000e+00 -3.076493e-13
    outer loop
      vertex   -2.040039e+02 6.622092e+01 1.583612e+02
      vertex   -2.044036e+02 6.622098e+01 1.595654e+02
      vertex   -2.043572e+02 6.622097e+01 1.582432e+02
    endloop
  endfacet
  facet normal -1.437957e-04 -1.000000e+00 -3.120577e-13
    outer loop
      vertex   -2.040039e+02 6.622092e+01 1.583612e+02
      vertex   -2.036804e+02 6.622087e+01 1.585458e+02
      vertex   -2.044036e+02 6.622098e+01 1.595654e+02
    endloop
  endfacet
  facet normal -1.437957e-04 -1.000000e+00 -3.109011e-13
    outer loop
      vertex   -2.044036e+02 6.622098e+01 1.595654e+02
      vertex   -2.036804e+02 6.622087e+01 1.585458e+02
      vertex   -2.033992e+02 6.622083e+01 1.587901e+02
    endloop
  endfacet
  facet normal -1.437957e-04 -1.000000e+00 -2.927691e-13
    outer loop
      vertex   -2.031710e+02 6.622080e+01 1.590844e+02
      vertex   -2.044036e+02 6.622098e+01 1.595654e+02
      vertex   -2.033992e+02 6.622083e+01 1.587901e+02
    endloop
  endfacet
  facet normal -1.437957e-04 -1.000000e+00 -2.970638e-13
    outer loop
      vertex   -2.031710e+02 6.622080e+01 1.590844e+02
      vertex   -2.030047e+02 6.622078e+01 1.594177e+02
      vertex   -2.044036e+02 6.622098e+01 1.595654e+02
    endloop
  endfacet
  facet normal -1.437957e-04 -1.000000e+00 -3.046764e-13
    outer loop
      vertex   -2.044036e+02 6.622098e+01 1.595654e+02
      vertex   -2.030047e+02 6.622078e+01 1.594177e+02
      vertex   -2.041324e+02 6.622094e+01 1.601562e+02
    endloop
  endfacet
  facet normal -1.437957e-04 -1.000000e+00 -3.231094e-13
    outer loop
      vertex   -2.041324e+02 6.622094e+01 1.601562e+02
      vertex   -2.030047e+02 6.622078e+01 1.594177e+02
      vertex   -2.029065e+02 6.622076e+01 1.597770e+02
    endloop
  endfacet
  facet normal -1.437957e-04 -1.000000e+00 -2.709632e-13
    outer loop
      vertex   -2.028803e+02 6.622076e+01 1.601485e+02
      vertex   -2.041324e+02 6.622094e+01 1.601562e+02
      vertex   -2.029065e+02 6.622076e+01 1.597770e+02
    endloop
  endfacet
  facet normal -1.437957e-04 -1.000000e+00 -2.764928e-13
    outer loop
      vertex   -2.028803e+02 6.622076e+01 1.601485e+02
      vertex   -2.029272e+02 6.622076e+01 1.605181e+02
      vertex   -2.041324e+02 6.622094e+01 1.601562e+02
    endloop
  endfacet
  facet normal -1.437957e-04 -1.000000e+00 -2.755432e-13
    outer loop
      vertex   -2.041324e+02 6.622094e+01 1.601562e+02
      vertex   -2.029272e+02 6.622076e+01 1.605181e+02
      vertex   -2.030452e+02 6.622078e+01 1.608713e+02
    endloop
  endfacet
  facet normal -1.437957e-04 -1.000000e+00 -3.621805e-13
    outer loop
      vertex   -2.032298e+02 6.622081e+01 1.611948e+02
      vertex   -2.041324e+02 6.622094e+01 1.601562e+02
      vertex   -2.030452e+02 6.622078e+01 1.608713e+02
    endloop
  endfacet
  facet normal -1.437957e-04 -1.000000e+00 -3.021951e-13
    outer loop
      vertex   -2.032298e+02 6.622081e+01 1.611948e+02
      vertex   -2.045085e+02 6.622099e+01 1.606864e+02
      vertex   -2.041324e+02 6.622094e+01 1.601562e+02
    endloop
  endfacet
  facet normal -1.437957e-04 -1.000000e+00 -3.059262e-13
    outer loop
      vertex   -2.044036e+02 6.622098e+01 1.595654e+02
      vertex   -2.050507e+02 6.622107e+01 1.595049e+02
      vertex   -2.047267e+02 6.622102e+01 1.581964e+02
    endloop
  endfacet
  facet normal 9.317159e-02 -1.339768e-05 -9.956501e-01
    outer loop
      vertex   -2.051556e+02 6.622108e+01 1.606258e+02
      vertex   -2.051555e+02 6.742108e+01 1.606258e+02
      vertex   -2.045085e+02 6.622099e+01 1.606864e+02
    endloop
  endfacet
  facet normal 9.317159e-02 -1.339768e-05 -9.956501e-01
    outer loop
      vertex   -2.045085e+02 6.622099e+01 1.606864e+02
      vertex   -2.051555e+02 6.742108e+01 1.606258e+02
      vertex   -2.045083e+02 6.742099e+01 1.606864e+02
    endloop
  endfacet
  facet normal 9.088440e-01 -1.306879e-04 -4.171361e-01
    outer loop
      vertex   -2.054266e+02 6.742112e+01 1.600351e+02
      vertex   -2.051555e+02 6.742108e+01 1.606258e+02
      vertex   -2.054268e+02 6.622112e+01 1.600351e+02
    endloop
  endfacet
  facet normal 9.088440e-01 -1.306879e-04 -4.171361e-01
    outer loop
      vertex   -2.054268e+02 6.622112e+01 1.600351e+02
      vertex   -2.051555e+02 6.742108e+01 1.606258e+02
      vertex   -2.051556e+02 6.622108e+01 1.606258e+02
    endloop
  endfacet
  facet normal 8.156724e-01 -1.172902e-04 5.785140e-01
    outer loop
      vertex   -2.050506e+02 6.742107e+01 1.595049e+02
      vertex   -2.054266e+02 6.742112e+01 1.600351e+02
      vertex   -2.050507e+02 6.622107e+01 1.595049e+02
    endloop
  endfacet
  facet normal 8.156724e-01 -1.172902e-04 5.785140e-01
    outer loop
      vertex   -2.050507e+02 6.622107e+01 1.595049e+02
      vertex   -2.054266e+02 6.742112e+01 1.600351e+02
      vertex   -2.054268e+02 6.622112e+01 1.600351e+02
    endloop
  endfacet
  facet normal -9.317159e-02 1.339768e-05 9.956501e-01
    outer loop
      vertex   -2.044036e+02 6.622098e+01 1.595654e+02
      vertex   -2.044034e+02 6.742098e+01 1.595654e+02
      vertex   -2.050507e+02 6.622107e+01 1.595049e+02
    endloop
  endfacet
  facet normal -9.317159e-02 1.339768e-05 9.956501e-01
    outer loop
      vertex   -2.050507e+02 6.622107e+01 1.595049e+02
      vertex   -2.044034e+02 6.742098e+01 1.595654e+02
      vertex   -2.050506e+02 6.742107e+01 1.595049e+02
    endloop
  endfacet
  facet normal 6.048838e-01 7.175751e-01 3.452559e-01
    outer loop
      vertex   -2.039637e+02 6.749091e+01 1.606741e+02
      vertex   -2.032298e+02 6.662169e+01 1.611948e+02
      vertex   -2.038666e+02 6.749090e+01 1.605039e+02
    endloop
  endfacet
  facet normal 6.048838e-01 7.175751e-01 3.452559e-01
    outer loop
      vertex   -2.038666e+02 6.749090e+01 1.605039e+02
      vertex   -2.032298e+02 6.662169e+01 1.611948e+02
      vertex   -2.030451e+02 6.662166e+01 1.608713e+02
    endloop
  endfacet
  facet normal 6.606191e-01 7.175671e-01 2.206351e-01
    outer loop
      vertex   -2.029271e+02 6.662164e+01 1.605181e+02
      vertex   -2.038666e+02 6.749090e+01 1.605039e+02
      vertex   -2.030451e+02 6.662166e+01 1.608713e+02
    endloop
  endfacet
  facet normal 6.606191e-01 7.175671e-01 2.206351e-01
    outer loop
      vertex   -2.029271e+02 6.662164e+01 1.605181e+02
      vertex   -2.038044e+02 6.749089e+01 1.603180e+02
      vertex   -2.038666e+02 6.749090e+01 1.605039e+02
    endloop
  endfacet
  facet normal 6.909713e-01 7.175627e-01 8.753534e-02
    outer loop
      vertex   -2.029271e+02 6.662164e+01 1.605181e+02
      vertex   -2.028803e+02 6.662164e+01 1.601485e+02
      vertex   -2.038044e+02 6.749089e+01 1.603180e+02
    endloop
  endfacet
  facet normal 6.909713e-01 7.175627e-01 8.753534e-02
    outer loop
      vertex   -2.038044e+02 6.749089e+01 1.603180e+02
      vertex   -2.028803e+02 6.662164e+01 1.601485e+02
      vertex   -2.037798e+02 6.749089e+01 1.601235e+02
    endloop
  endfacet
  facet normal 6.947737e-01 7.175622e-01 -4.892830e-02
    outer loop
      vertex   -2.037798e+02 6.749089e+01 1.601235e+02
      vertex   -2.028803e+02 6.662164e+01 1.601485e+02
      vertex   -2.029065e+02 6.662164e+01 1.597770e+02
    endloop
  endfacet
  facet normal 6.718804e-01 7.175655e-01 -1.835117e-01
    outer loop
      vertex   -2.037936e+02 6.749089e+01 1.599279e+02
      vertex   -2.029065e+02 6.662164e+01 1.597770e+02
      vertex   -2.030046e+02 6.662166e+01 1.594177e+02
    endloop
  endfacet
  facet normal 6.231710e-01 7.175725e-01 -3.110428e-01
    outer loop
      vertex   -2.038452e+02 6.749090e+01 1.597388e+02
      vertex   -2.030046e+02 6.662166e+01 1.594177e+02
      vertex   -2.039328e+02 6.749091e+01 1.595634e+02
    endloop
  endfacet
  facet normal 6.718804e-01 7.175655e-01 -1.835117e-01
    outer loop
      vertex   -2.038452e+02 6.749090e+01 1.597388e+02
      vertex   -2.037936e+02 6.749089e+01 1.599279e+02
      vertex   -2.030046e+02 6.662166e+01 1.594177e+02
    endloop
  endfacet
  facet normal 6.231710e-01 7.175725e-01 -3.110428e-01
    outer loop
      vertex   -2.030046e+02 6.662166e+01 1.594177e+02
      vertex   -2.031710e+02 6.662168e+01 1.590844e+02
      vertex   -2.039328e+02 6.749091e+01 1.595634e+02
    endloop
  endfacet
  facet normal 5.505175e-01 7.175829e-01 -4.266207e-01
    outer loop
      vertex   -2.039328e+02 6.749091e+01 1.595634e+02
      vertex   -2.031710e+02 6.662168e+01 1.590844e+02
      vertex   -2.033991e+02 6.662171e+01 1.587901e+02
    endloop
  endfacet
  facet normal 4.567119e-01 7.175964e-01 -5.258038e-01
    outer loop
      vertex   -2.040529e+02 6.749093e+01 1.594085e+02
      vertex   -2.033991e+02 6.662171e+01 1.587901e+02
      vertex   -2.036804e+02 6.662175e+01 1.585458e+02
    endloop
  endfacet
  facet normal 3.453591e-01 7.176124e-01 -6.047806e-01
    outer loop
      vertex   -2.042009e+02 6.749095e+01 1.592799e+02
      vertex   -2.036804e+02 6.662175e+01 1.585458e+02
      vertex   -2.040038e+02 6.662180e+01 1.583612e+02
    endloop
  endfacet
  facet normal 2.207382e-01 7.176303e-01 -6.605160e-01
    outer loop
      vertex   -2.043712e+02 6.749097e+01 1.591828e+02
      vertex   -2.040038e+02 6.662180e+01 1.583612e+02
      vertex   -2.043571e+02 6.662185e+01 1.582432e+02
    endloop
  endfacet
  facet normal 8.763854e-02 7.176495e-01 -6.908681e-01
    outer loop
      vertex   -2.045571e+02 6.749100e+01 1.591206e+02
      vertex   -2.043571e+02 6.662185e+01 1.582432e+02
      vertex   -2.047516e+02 6.749103e+01 1.590960e+02
    endloop
  endfacet
  facet normal 2.207382e-01 7.176303e-01 -6.605160e-01
    outer loop
      vertex   -2.045571e+02 6.749100e+01 1.591206e+02
      vertex   -2.043712e+02 6.749097e+01 1.591828e+02
      vertex   -2.043571e+02 6.662185e+01 1.582432e+02
    endloop
  endfacet
  facet normal 8.763854e-02 7.176495e-01 -6.908681e-01
    outer loop
      vertex   -2.043571e+02 6.662185e+01 1.582432e+02
      vertex   -2.047266e+02 6.662190e+01 1.581964e+02
      vertex   -2.047516e+02 6.749103e+01 1.590960e+02
    endloop
  endfacet
  facet normal -4.882511e-02 7.176691e-01 -6.946705e-01
    outer loop
      vertex   -2.047516e+02 6.749103e+01 1.590960e+02
      vertex   -2.047266e+02 6.662190e+01 1.581964e+02
      vertex   -2.050982e+02 6.662196e+01 1.582225e+02
    endloop
  endfacet
  facet normal -1.834085e-01 7.176885e-01 -6.717772e-01
    outer loop
      vertex   -2.049471e+02 6.749105e+01 1.591098e+02
      vertex   -2.050982e+02 6.662196e+01 1.582225e+02
      vertex   -2.054575e+02 6.662201e+01 1.583207e+02
    endloop
  endfacet
  facet normal -3.109396e-01 7.177068e-01 -6.230679e-01
    outer loop
      vertex   -2.051362e+02 6.749108e+01 1.591614e+02
      vertex   -2.054575e+02 6.662201e+01 1.583207e+02
      vertex   -2.057907e+02 6.662206e+01 1.584870e+02
    endloop
  endfacet
  facet normal -4.265175e-01 7.177234e-01 -5.504143e-01
    outer loop
      vertex   -2.053116e+02 6.749111e+01 1.592490e+02
      vertex   -2.057907e+02 6.662206e+01 1.584870e+02
      vertex   -2.060851e+02 6.662210e+01 1.587152e+02
    endloop
  endfacet
  facet normal -5.257006e-01 7.177377e-01 -4.566087e-01
    outer loop
      vertex   -2.054666e+02 6.749113e+01 1.593691e+02
      vertex   -2.060851e+02 6.662210e+01 1.587152e+02
      vertex   -2.055951e+02 6.749115e+01 1.595171e+02
    endloop
  endfacet
  facet normal -4.265175e-01 7.177234e-01 -5.504143e-01
    outer loop
      vertex   -2.054666e+02 6.749113e+01 1.593691e+02
      vertex   -2.053116e+02 6.749111e+01 1.592490e+02
      vertex   -2.060851e+02 6.662210e+01 1.587152e+02
    endloop
  endfacet
  facet normal -5.257006e-01 7.177377e-01 -4.566087e-01
    outer loop
      vertex   -2.060851e+02 6.662210e+01 1.587152e+02
      vertex   -2.063293e+02 6.662213e+01 1.589964e+02
      vertex   -2.055951e+02 6.749115e+01 1.595171e+02
    endloop
  endfacet
  facet normal -3.109396e-01 7.177068e-01 -6.230679e-01
    outer loop
      vertex   -2.053116e+02 6.749111e+01 1.592490e+02
      vertex   -2.051362e+02 6.749108e+01 1.591614e+02
      vertex   -2.057907e+02 6.662206e+01 1.584870e+02
    endloop
  endfacet
  facet normal -1.834085e-01 7.176885e-01 -6.717772e-01
    outer loop
      vertex   -2.051362e+02 6.749108e+01 1.591614e+02
      vertex   -2.049471e+02 6.749105e+01 1.591098e+02
      vertex   -2.054575e+02 6.662201e+01 1.583207e+02
    endloop
  endfacet
  facet normal -4.882511e-02 7.176691e-01 -6.946705e-01
    outer loop
      vertex   -2.049471e+02 6.749105e+01 1.591098e+02
      vertex   -2.047516e+02 6.749103e+01 1.590960e+02
      vertex   -2.050982e+02 6.662196e+01 1.582225e+02
    endloop
  endfacet
  facet normal 3.453591e-01 7.176124e-01 -6.047806e-01
    outer loop
      vertex   -2.043712e+02 6.749097e+01 1.591828e+02
      vertex   -2.042009e+02 6.749095e+01 1.592799e+02
      vertex   -2.040038e+02 6.662180e+01 1.583612e+02
    endloop
  endfacet
  facet normal 4.567119e-01 7.175964e-01 -5.258038e-01
    outer loop
      vertex   -2.042009e+02 6.749095e+01 1.592799e+02
      vertex   -2.040529e+02 6.749093e+01 1.594085e+02
      vertex   -2.036804e+02 6.662175e+01 1.585458e+02
    endloop
  endfacet
  facet normal 5.505175e-01 7.175829e-01 -4.266207e-01
    outer loop
      vertex   -2.040529e+02 6.749093e+01 1.594085e+02
      vertex   -2.039328e+02 6.749091e+01 1.595634e+02
      vertex   -2.033991e+02 6.662171e+01 1.587901e+02
    endloop
  endfacet
  facet normal 6.947737e-01 7.175622e-01 -4.892830e-02
    outer loop
      vertex   -2.037936e+02 6.749089e+01 1.599279e+02
      vertex   -2.037798e+02 6.749089e+01 1.601235e+02
      vertex   -2.029065e+02 6.662164e+01 1.597770e+02
    endloop
  endfacet
  facet normal -7.550405e-01 1.085716e-04 -6.556782e-01
    outer loop
      vertex   -2.063294e+02 6.622125e+01 1.589964e+02
      vertex   -2.063293e+02 6.662213e+01 1.589964e+02
      vertex   -2.060852e+02 6.622122e+01 1.587152e+02
    endloop
  endfacet
  facet normal -7.550405e-01 1.085716e-04 -6.556782e-01
    outer loop
      vertex   -2.060852e+02 6.622122e+01 1.587152e+02
      vertex   -2.063293e+02 6.662213e+01 1.589964e+02
      vertex   -2.060851e+02 6.662210e+01 1.587152e+02
    endloop
  endfacet
  facet normal -6.126161e-01 8.809158e-05 -7.903806e-01
    outer loop
      vertex   -2.057907e+02 6.662206e+01 1.584870e+02
      vertex   -2.060852e+02 6.622122e+01 1.587152e+02
      vertex   -2.060851e+02 6.662210e+01 1.587152e+02
    endloop
  endfacet
  facet normal -6.126161e-01 8.809158e-05 -7.903806e-01
    outer loop
      vertex   -2.057907e+02 6.662206e+01 1.584870e+02
      vertex   -2.057908e+02 6.622118e+01 1.584870e+02
      vertex   -2.060852e+02 6.622122e+01 1.587152e+02
    endloop
  endfacet
  facet normal -4.466493e-01 6.422626e-05 -8.947091e-01
    outer loop
      vertex   -2.057907e+02 6.662206e+01 1.584870e+02
      vertex   -2.054575e+02 6.662201e+01 1.583207e+02
      vertex   -2.057908e+02 6.622118e+01 1.584870e+02
    endloop
  endfacet
  facet normal -4.466493e-01 6.422626e-05 -8.947091e-01
    outer loop
      vertex   -2.057908e+02 6.622118e+01 1.584870e+02
      vertex   -2.054575e+02 6.662201e+01 1.583207e+02
      vertex   -2.054575e+02 6.622113e+01 1.583207e+02
    endloop
  endfacet
  facet normal -2.635179e-01 3.789276e-05 -9.646545e-01
    outer loop
      vertex   -2.054575e+02 6.622113e+01 1.583207e+02
      vertex   -2.054575e+02 6.662201e+01 1.583207e+02
      vertex   -2.050982e+02 6.662196e+01 1.582225e+02
    endloop
  endfacet
  facet normal -7.025976e-02 1.010305e-05 -9.975287e-01
    outer loop
      vertex   -2.050982e+02 6.622108e+01 1.582225e+02
      vertex   -2.050982e+02 6.662196e+01 1.582225e+02
      vertex   -2.047266e+02 6.662190e+01 1.581964e+02
    endloop
  endfacet
  facet normal 1.256985e-01 -1.807490e-05 -9.920685e-01
    outer loop
      vertex   -2.047267e+02 6.622102e+01 1.581964e+02
      vertex   -2.047266e+02 6.662190e+01 1.581964e+02
      vertex   -2.043572e+02 6.622097e+01 1.582432e+02
    endloop
  endfacet
  facet normal -7.025976e-02 1.010305e-05 -9.975287e-01
    outer loop
      vertex   -2.047267e+02 6.622102e+01 1.581964e+02
      vertex   -2.050982e+02 6.622108e+01 1.582225e+02
      vertex   -2.047266e+02 6.662190e+01 1.581964e+02
    endloop
  endfacet
  facet normal 1.256985e-01 -1.807490e-05 -9.920685e-01
    outer loop
      vertex   -2.047266e+02 6.662190e+01 1.581964e+02
      vertex   -2.043571e+02 6.662185e+01 1.582432e+02
      vertex   -2.043572e+02 6.622097e+01 1.582432e+02
    endloop
  endfacet
  facet normal 3.168262e-01 -4.555825e-05 -9.484836e-01
    outer loop
      vertex   -2.043572e+02 6.622097e+01 1.582432e+02
      vertex   -2.043571e+02 6.662185e+01 1.582432e+02
      vertex   -2.040038e+02 6.662180e+01 1.583612e+02
    endloop
  endfacet
  facet normal 4.957784e-01 -7.129082e-05 -8.684491e-01
    outer loop
      vertex   -2.040039e+02 6.622092e+01 1.583612e+02
      vertex   -2.040038e+02 6.662180e+01 1.583612e+02
      vertex   -2.036804e+02 6.662175e+01 1.585458e+02
    endloop
  endfacet
  facet normal 6.556782e-01 -9.428372e-05 -7.550405e-01
    outer loop
      vertex   -2.036804e+02 6.622087e+01 1.585458e+02
      vertex   -2.036804e+02 6.662175e+01 1.585458e+02
      vertex   -2.033991e+02 6.662171e+01 1.587901e+02
    endloop
  endfacet
  facet normal 7.903806e-01 -1.136534e-04 -6.126161e-01
    outer loop
      vertex   -2.033992e+02 6.622083e+01 1.587901e+02
      vertex   -2.033991e+02 6.662171e+01 1.587901e+02
      vertex   -2.031710e+02 6.662168e+01 1.590844e+02
    endloop
  endfacet
  facet normal 8.947091e-01 -1.286554e-04 -4.466493e-01
    outer loop
      vertex   -2.031710e+02 6.622080e+01 1.590844e+02
      vertex   -2.031710e+02 6.662168e+01 1.590844e+02
      vertex   -2.030047e+02 6.622078e+01 1.594177e+02
    endloop
  endfacet
  facet normal 7.903806e-01 -1.136534e-04 -6.126161e-01
    outer loop
      vertex   -2.031710e+02 6.622080e+01 1.590844e+02
      vertex   -2.033992e+02 6.622083e+01 1.587901e+02
      vertex   -2.031710e+02 6.662168e+01 1.590844e+02
    endloop
  endfacet
  facet normal 8.947091e-01 -1.286554e-04 -4.466493e-01
    outer loop
      vertex   -2.031710e+02 6.662168e+01 1.590844e+02
      vertex   -2.030046e+02 6.662166e+01 1.594177e+02
      vertex   -2.030047e+02 6.622078e+01 1.594177e+02
    endloop
  endfacet
  facet normal 9.646545e-01 -1.387132e-04 -2.635179e-01
    outer loop
      vertex   -2.030047e+02 6.622078e+01 1.594177e+02
      vertex   -2.030046e+02 6.662166e+01 1.594177e+02
      vertex   -2.029065e+02 6.662164e+01 1.597770e+02
    endloop
  endfacet
  facet normal 9.975287e-01 -1.434404e-04 -7.025976e-02
    outer loop
      vertex   -2.029065e+02 6.622076e+01 1.597770e+02
      vertex   -2.029065e+02 6.662164e+01 1.597770e+02
      vertex   -2.028803e+02 6.662164e+01 1.601485e+02
    endloop
  endfacet
  facet normal 9.920685e-01 -1.426552e-04 1.256985e-01
    outer loop
      vertex   -2.028803e+02 6.622076e+01 1.601485e+02
      vertex   -2.028803e+02 6.662164e+01 1.601485e+02
      vertex   -2.029271e+02 6.662164e+01 1.605181e+02
    endloop
  endfacet
  facet normal 9.484836e-01 -1.363879e-04 3.168262e-01
    outer loop
      vertex   -2.029272e+02 6.622076e+01 1.605181e+02
      vertex   -2.029271e+02 6.662164e+01 1.605181e+02
      vertex   -2.030451e+02 6.662166e+01 1.608713e+02
    endloop
  endfacet
  facet normal 8.684491e-01 -1.248793e-04 4.957784e-01
    outer loop
      vertex   -2.030452e+02 6.622078e+01 1.608713e+02
      vertex   -2.030451e+02 6.662166e+01 1.608713e+02
      vertex   -2.032298e+02 6.622081e+01 1.611948e+02
    endloop
  endfacet
  facet normal 9.484836e-01 -1.363879e-04 3.168262e-01
    outer loop
      vertex   -2.030452e+02 6.622078e+01 1.608713e+02
      vertex   -2.029272e+02 6.622076e+01 1.605181e+02
      vertex   -2.030451e+02 6.662166e+01 1.608713e+02
    endloop
  endfacet
  facet normal 8.684491e-01 -1.248793e-04 4.957784e-01
    outer loop
      vertex   -2.030451e+02 6.662166e+01 1.608713e+02
      vertex   -2.032298e+02 6.662169e+01 1.611948e+02
      vertex   -2.032298e+02 6.622081e+01 1.611948e+02
    endloop
  endfacet
  facet normal 9.920685e-01 -1.426552e-04 1.256985e-01
    outer loop
      vertex   -2.029272e+02 6.622076e+01 1.605181e+02
      vertex   -2.028803e+02 6.622076e+01 1.601485e+02
      vertex   -2.029271e+02 6.662164e+01 1.605181e+02
    endloop
  endfacet
  facet normal 9.975287e-01 -1.434404e-04 -7.025976e-02
    outer loop
      vertex   -2.028803e+02 6.622076e+01 1.601485e+02
      vertex   -2.029065e+02 6.622076e+01 1.597770e+02
      vertex   -2.028803e+02 6.662164e+01 1.601485e+02
    endloop
  endfacet
  facet normal 9.646545e-01 -1.387132e-04 -2.635179e-01
    outer loop
      vertex   -2.029065e+02 6.622076e+01 1.597770e+02
      vertex   -2.030047e+02 6.622078e+01 1.594177e+02
      vertex   -2.029065e+02 6.662164e+01 1.597770e+02
    endloop
  endfacet
  facet normal 6.556782e-01 -9.428372e-05 -7.550405e-01
    outer loop
      vertex   -2.033992e+02 6.622083e+01 1.587901e+02
      vertex   -2.036804e+02 6.622087e+01 1.585458e+02
      vertex   -2.033991e+02 6.662171e+01 1.587901e+02
    endloop
  endfacet
  facet normal 4.957784e-01 -7.129082e-05 -8.684491e-01
    outer loop
      vertex   -2.036804e+02 6.622087e+01 1.585458e+02
      vertex   -2.040039e+02 6.622092e+01 1.583612e+02
      vertex   -2.036804e+02 6.662175e+01 1.585458e+02
    endloop
  endfacet
  facet normal 3.168262e-01 -4.555825e-05 -9.484836e-01
    outer loop
      vertex   -2.040039e+02 6.622092e+01 1.583612e+02
      vertex   -2.043572e+02 6.622097e+01 1.582432e+02
      vertex   -2.040038e+02 6.662180e+01 1.583612e+02
    endloop
  endfacet
  facet normal -2.635179e-01 3.789276e-05 -9.646545e-01
    outer loop
      vertex   -2.050982e+02 6.622108e+01 1.582225e+02
      vertex   -2.054575e+02 6.622113e+01 1.583207e+02
      vertex   -2.050982e+02 6.662196e+01 1.582225e+02
    endloop
  endfacet
  facet normal -7.550405e-01 1.085716e-04 -6.556782e-01
    outer loop
      vertex   -2.055951e+02 6.749115e+01 1.595171e+02
      vertex   -2.055945e+02 7.142115e+01 1.595171e+02
      vertex   -2.054666e+02 6.749113e+01 1.593691e+02
    endloop
  endfacet
  facet normal -7.550405e-01 1.085716e-04 -6.556782e-01
    outer loop
      vertex   -2.054666e+02 6.749113e+01 1.593691e+02
      vertex   -2.055945e+02 7.142115e+01 1.595171e+02
      vertex   -2.054660e+02 7.142113e+01 1.593691e+02
    endloop
  endfacet
  facet normal -6.126161e-01 8.809158e-05 -7.903806e-01
    outer loop
      vertex   -2.053110e+02 7.142111e+01 1.592490e+02
      vertex   -2.054666e+02 6.749113e+01 1.593691e+02
      vertex   -2.054660e+02 7.142113e+01 1.593691e+02
    endloop
  endfacet
  facet normal -6.126161e-01 8.809158e-05 -7.903806e-01
    outer loop
      vertex   -2.053110e+02 7.142111e+01 1.592490e+02
      vertex   -2.053116e+02 6.749111e+01 1.592490e+02
      vertex   -2.054666e+02 6.749113e+01 1.593691e+02
    endloop
  endfacet
  facet normal -4.466493e-01 6.422626e-05 -8.947091e-01
    outer loop
      vertex   -2.053110e+02 7.142111e+01 1.592490e+02
      vertex   -2.051357e+02 7.142108e+01 1.591614e+02
      vertex   -2.053116e+02 6.749111e+01 1.592490e+02
    endloop
  endfacet
  facet normal -4.466493e-01 6.422626e-05 -8.947091e-01
    outer loop
      vertex   -2.053116e+02 6.749111e+01 1.592490e+02
      vertex   -2.051357e+02 7.142108e+01 1.591614e+02
      vertex   -2.051362e+02 6.749108e+01 1.591614e+02
    endloop
  endfacet
  facet normal -2.635179e-01 3.789276e-05 -9.646545e-01
    outer loop
      vertex   -2.051362e+02 6.749108e+01 1.591614e+02
      vertex   -2.051357e+02 7.142108e+01 1.591614e+02
      vertex   -2.049466e+02 7.142105e+01 1.591098e+02
    endloop
  endfacet
  facet normal -7.025976e-02 1.010305e-05 -9.975287e-01
    outer loop
      vertex   -2.049471e+02 6.749105e+01 1.591098e+02
      vertex   -2.049466e+02 7.142105e+01 1.591098e+02
      vertex   -2.047510e+02 7.142103e+01 1.590960e+02
    endloop
  endfacet
  facet normal 1.256985e-01 -1.807490e-05 -9.920685e-01
    outer loop
      vertex   -2.047516e+02 6.749103e+01 1.590960e+02
      vertex   -2.047510e+02 7.142103e+01 1.590960e+02
      vertex   -2.045571e+02 6.749100e+01 1.591206e+02
    endloop
  endfacet
  facet normal -7.025976e-02 1.010305e-05 -9.975287e-01
    outer loop
      vertex   -2.047516e+02 6.749103e+01 1.590960e+02
      vertex   -2.049471e+02 6.749105e+01 1.591098e+02
      vertex   -2.047510e+02 7.142103e+01 1.590960e+02
    endloop
  endfacet
  facet normal 1.256985e-01 -1.807490e-05 -9.920685e-01
    outer loop
      vertex   -2.047510e+02 7.142103e+01 1.590960e+02
      vertex   -2.045565e+02 7.142100e+01 1.591206e+02
      vertex   -2.045571e+02 6.749100e+01 1.591206e+02
    endloop
  endfacet
  facet normal 3.168262e-01 -4.555825e-05 -9.484836e-01
    outer loop
      vertex   -2.045571e+02 6.749100e+01 1.591206e+02
      vertex   -2.045565e+02 7.142100e+01 1.591206e+02
      vertex   -2.043706e+02 7.142097e+01 1.591828e+02
    endloop
  endfacet
  facet normal 4.957784e-01 -7.129082e-05 -8.684491e-01
    outer loop
      vertex   -2.043712e+02 6.749097e+01 1.591828e+02
      vertex   -2.043706e+02 7.142097e+01 1.591828e+02
      vertex   -2.042003e+02 7.142095e+01 1.592799e+02
    endloop
  endfacet
  facet normal 6.556782e-01 -9.428372e-05 -7.550405e-01
    outer loop
      vertex   -2.042009e+02 6.749095e+01 1.592799e+02
      vertex   -2.042003e+02 7.142095e+01 1.592799e+02
      vertex   -2.040523e+02 7.142093e+01 1.594085e+02
    endloop
  endfacet
  facet normal 7.903806e-01 -1.136534e-04 -6.126161e-01
    outer loop
      vertex   -2.040529e+02 6.749093e+01 1.594085e+02
      vertex   -2.040523e+02 7.142093e+01 1.594085e+02
      vertex   -2.039322e+02 7.142091e+01 1.595634e+02
    endloop
  endfacet
  facet normal 8.947091e-01 -1.286554e-04 -4.466493e-01
    outer loop
      vertex   -2.039328e+02 6.749091e+01 1.595634e+02
      vertex   -2.039322e+02 7.142091e+01 1.595634e+02
      vertex   -2.038452e+02 6.749090e+01 1.597388e+02
    endloop
  endfacet
  facet normal 7.903806e-01 -1.136534e-04 -6.126161e-01
    outer loop
      vertex   -2.039328e+02 6.749091e+01 1.595634e+02
      vertex   -2.040529e+02 6.749093e+01 1.594085e+02
      vertex   -2.039322e+02 7.142091e+01 1.595634e+02
    endloop
  endfacet
  facet normal 8.947091e-01 -1.286554e-04 -4.466493e-01
    outer loop
      vertex   -2.039322e+02 7.142091e+01 1.595634e+02
      vertex   -2.038447e+02 7.142090e+01 1.597388e+02
      vertex   -2.038452e+02 6.749090e+01 1.597388e+02
    endloop
  endfacet
  facet normal 9.646545e-01 -1.387132e-04 -2.635179e-01
    outer loop
      vertex   -2.038452e+02 6.749090e+01 1.597388e+02
      vertex   -2.038447e+02 7.142090e+01 1.597388e+02
      vertex   -2.037930e+02 7.142089e+01 1.599279e+02
    endloop
  endfacet
  facet normal 9.975287e-01 -1.434404e-04 -7.025976e-02
    outer loop
      vertex   -2.037936e+02 6.749089e+01 1.599279e+02
      vertex   -2.037930e+02 7.142089e+01 1.599279e+02
      vertex   -2.037792e+02 7.142089e+01 1.601235e+02
    endloop
  endfacet
  facet normal 9.920685e-01 -1.426552e-04 1.256985e-01
    outer loop
      vertex   -2.037798e+02 6.749089e+01 1.601235e+02
      vertex   -2.037792e+02 7.142089e+01 1.601235e+02
      vertex   -2.038039e+02 7.142089e+01 1.603180e+02
    endloop
  endfacet
  facet normal 9.484836e-01 -1.363879e-04 3.168262e-01
    outer loop
      vertex   -2.038044e+02 6.749089e+01 1.603180e+02
      vertex   -2.038039e+02 7.142089e+01 1.603180e+02
      vertex   -2.038660e+02 7.142090e+01 1.605039e+02
    endloop
  endfacet
  facet normal 8.684491e-01 -1.248793e-04 4.957784e-01
    outer loop
      vertex   -2.038666e+02 6.749090e+01 1.605039e+02
      vertex   -2.038660e+02 7.142090e+01 1.605039e+02
      vertex   -2.039637e+02 6.749091e+01 1.606741e+02
    endloop
  endfacet
  facet normal 9.484836e-01 -1.363879e-04 3.168262e-01
    outer loop
      vertex   -2.038666e+02 6.749090e+01 1.605039e+02
      vertex   -2.038044e+02 6.749089e+01 1.603180e+02
      vertex   -2.038660e+02 7.142090e+01 1.605039e+02
    endloop
  endfacet
  facet normal 8.684491e-01 -1.248793e-04 4.957784e-01
    outer loop
      vertex   -2.038660e+02 7.142090e+01 1.605039e+02
      vertex   -2.039632e+02 7.142091e+01 1.606741e+02
      vertex   -2.039637e+02 6.749091e+01 1.606741e+02
    endloop
  endfacet
  facet normal 9.920685e-01 -1.426552e-04 1.256985e-01
    outer loop
      vertex   -2.038044e+02 6.749089e+01 1.603180e+02
      vertex   -2.037798e+02 6.749089e+01 1.601235e+02
      vertex   -2.038039e+02 7.142089e+01 1.603180e+02
    endloop
  endfacet
  facet normal 9.975287e-01 -1.434404e-04 -7.025976e-02
    outer loop
      vertex   -2.037798e+02 6.749089e+01 1.601235e+02
      vertex   -2.037936e+02 6.749089e+01 1.599279e+02
      vertex   -2.037792e+02 7.142089e+01 1.601235e+02
    endloop
  endfacet
  facet normal 9.646545e-01 -1.387132e-04 -2.635179e-01
    outer loop
      vertex   -2.037936e+02 6.749089e+01 1.599279e+02
      vertex   -2.038452e+02 6.749090e+01 1.597388e+02
      vertex   -2.037930e+02 7.142089e+01 1.599279e+02
    endloop
  endfacet
  facet normal 6.556782e-01 -9.428372e-05 -7.550405e-01
    outer loop
      vertex   -2.040529e+02 6.749093e+01 1.594085e+02
      vertex   -2.042009e+02 6.749095e+01 1.592799e+02
      vertex   -2.040523e+02 7.142093e+01 1.594085e+02
    endloop
  endfacet
  facet normal 4.957784e-01 -7.129082e-05 -8.684491e-01
    outer loop
      vertex   -2.042009e+02 6.749095e+01 1.592799e+02
      vertex   -2.043712e+02 6.749097e+01 1.591828e+02
      vertex   -2.042003e+02 7.142095e+01 1.592799e+02
    endloop
  endfacet
  facet normal 3.168262e-01 -4.555825e-05 -9.484836e-01
    outer loop
      vertex   -2.043712e+02 6.749097e+01 1.591828e+02
      vertex   -2.045571e+02 6.749100e+01 1.591206e+02
      vertex   -2.043706e+02 7.142097e+01 1.591828e+02
    endloop
  endfacet
  facet normal -2.635179e-01 3.789276e-05 -9.646545e-01
    outer loop
      vertex   -2.049471e+02 6.749105e+01 1.591098e+02
      vertex   -2.051362e+02 6.749108e+01 1.591614e+02
      vertex   -2.049466e+02 7.142105e+01 1.591098e+02
    endloop
  endfacet
endsolid
