solid ascii
  facet normal -1.437957e-04 -1.000000e+00 -1.728129e-13
    outer loop
      vertex   -1.489029e+02 9.101300e+01 2.009259e+02
      vertex   -1.492212e+02 9.101304e+01 2.007002e+02
      vertex   -1.487170e+02 9.101297e+01 2.009881e+02
    endloop
  endfacet
  facet normal -1.437957e-04 -1.000000e+00 -7.617164e-13
    outer loop
      vertex   -1.489029e+02 9.101300e+01 2.009259e+02
      vertex   -1.490732e+02 9.101302e+01 2.008288e+02
      vertex   -1.492212e+02 9.101304e+01 2.007002e+02
    endloop
  endfacet
  facet normal -1.437957e-04 -1.000000e+00 -1.255172e-13
    outer loop
      vertex   -1.487170e+02 9.101297e+01 2.009881e+02
      vertex   -1.493413e+02 9.101306e+01 2.005453e+02
      vertex   -1.485225e+02 9.101294e+01 2.010127e+02
    endloop
  endfacet
  facet normal -1.437957e-04 -1.000000e+00 -3.435721e-13
    outer loop
      vertex   -1.487170e+02 9.101297e+01 2.009881e+02
      vertex   -1.492212e+02 9.101304e+01 2.007002e+02
      vertex   -1.493413e+02 9.101306e+01 2.005453e+02
    endloop
  endfacet
  facet normal -1.437957e-04 -1.000000e+00 -3.446969e-13
    outer loop
      vertex   -1.485225e+02 9.101294e+01 2.010127e+02
      vertex   -1.494288e+02 9.101307e+01 2.003699e+02
      vertex   -1.483269e+02 9.101291e+01 2.009989e+02
    endloop
  endfacet
  facet normal -1.437957e-04 -1.000000e+00 -2.620280e-13
    outer loop
      vertex   -1.485225e+02 9.101294e+01 2.010127e+02
      vertex   -1.493413e+02 9.101306e+01 2.005453e+02
      vertex   -1.494288e+02 9.101307e+01 2.003699e+02
    endloop
  endfacet
  facet normal -1.437957e-04 -1.000000e+00 -3.754485e-13
    outer loop
      vertex   -1.483269e+02 9.101291e+01 2.009989e+02
      vertex   -1.494805e+02 9.101308e+01 2.001808e+02
      vertex   -1.481378e+02 9.101289e+01 2.009473e+02
    endloop
  endfacet
  facet normal -1.437957e-04 -1.000000e+00 -3.438290e-13
    outer loop
      vertex   -1.483269e+02 9.101291e+01 2.009989e+02
      vertex   -1.494288e+02 9.101307e+01 2.003699e+02
      vertex   -1.494805e+02 9.101308e+01 2.001808e+02
    endloop
  endfacet
  facet normal -1.437957e-04 -1.000000e+00 -2.563913e-13
    outer loop
      vertex   -1.494805e+02 9.101308e+01 2.001808e+02
      vertex   -1.494942e+02 9.101308e+01 1.999852e+02
      vertex   -1.481378e+02 9.101289e+01 2.009473e+02
    endloop
  endfacet
  facet normal -1.437957e-04 -1.000000e+00 -2.805732e-13
    outer loop
      vertex   -1.481378e+02 9.101289e+01 2.009473e+02
      vertex   -1.494942e+02 9.101308e+01 1.999852e+02
      vertex   -1.479624e+02 9.101286e+01 2.008597e+02
    endloop
  endfacet
  facet normal -1.437957e-04 -1.000000e+00 -2.476359e-13
    outer loop
      vertex   -1.479624e+02 9.101286e+01 2.008597e+02
      vertex   -1.494942e+02 9.101308e+01 1.999852e+02
      vertex   -1.494696e+02 9.101308e+01 1.997908e+02
    endloop
  endfacet
  facet normal -1.437957e-04 -1.000000e+00 -3.809461e-13
    outer loop
      vertex   -1.478075e+02 9.101284e+01 2.007396e+02
      vertex   -1.494696e+02 9.101308e+01 1.997908e+02
      vertex   -1.494075e+02 9.101307e+01 1.996048e+02
    endloop
  endfacet
  facet normal -1.437957e-04 -1.000000e+00 -2.448899e-13
    outer loop
      vertex   -1.476790e+02 9.101282e+01 2.005916e+02
      vertex   -1.494075e+02 9.101307e+01 1.996048e+02
      vertex   -1.493103e+02 9.101305e+01 1.994346e+02
    endloop
  endfacet
  facet normal -1.437957e-04 -1.000000e+00 -3.153508e-13
    outer loop
      vertex   -1.475818e+02 9.101281e+01 2.004214e+02
      vertex   -1.493103e+02 9.101305e+01 1.994346e+02
      vertex   -1.491818e+02 9.101304e+01 1.992866e+02
    endloop
  endfacet
  facet normal -1.437957e-04 -1.000000e+00 -2.668891e-13
    outer loop
      vertex   -1.475197e+02 9.101280e+01 2.002354e+02
      vertex   -1.491818e+02 9.101304e+01 1.992866e+02
      vertex   -1.490268e+02 9.101301e+01 1.991665e+02
    endloop
  endfacet
  facet normal -1.437957e-04 -1.000000e+00 -2.805733e-13
    outer loop
      vertex   -1.474950e+02 9.101279e+01 2.000409e+02
      vertex   -1.490268e+02 9.101301e+01 1.991665e+02
      vertex   -1.488514e+02 9.101299e+01 1.990789e+02
    endloop
  endfacet
  facet normal -1.437957e-04 -1.000000e+00 -3.754486e-13
    outer loop
      vertex   -1.475088e+02 9.101280e+01 1.998454e+02
      vertex   -1.488514e+02 9.101299e+01 1.990789e+02
      vertex   -1.486623e+02 9.101296e+01 1.990272e+02
    endloop
  endfacet
  facet normal -1.437957e-04 -1.000000e+00 -3.446968e-13
    outer loop
      vertex   -1.475605e+02 9.101280e+01 1.996563e+02
      vertex   -1.486623e+02 9.101296e+01 1.990272e+02
      vertex   -1.484668e+02 9.101293e+01 1.990135e+02
    endloop
  endfacet
  facet normal -1.437957e-04 -1.000000e+00 -1.255172e-13
    outer loop
      vertex   -1.476480e+02 9.101282e+01 1.994809e+02
      vertex   -1.484668e+02 9.101293e+01 1.990135e+02
      vertex   -1.482723e+02 9.101291e+01 1.990381e+02
    endloop
  endfacet
  facet normal -1.437957e-04 -1.000000e+00 -1.728129e-13
    outer loop
      vertex   -1.477681e+02 9.101283e+01 1.993259e+02
      vertex   -1.482723e+02 9.101291e+01 1.990381e+02
      vertex   -1.480864e+02 9.101288e+01 1.991002e+02
    endloop
  endfacet
  facet normal -1.437957e-04 -1.000000e+00 -7.617163e-13
    outer loop
      vertex   -1.479161e+02 9.101285e+01 1.991974e+02
      vertex   -1.477681e+02 9.101283e+01 1.993259e+02
      vertex   -1.480864e+02 9.101288e+01 1.991002e+02
    endloop
  endfacet
  facet normal -1.437957e-04 -1.000000e+00 -3.435721e-13
    outer loop
      vertex   -1.477681e+02 9.101283e+01 1.993259e+02
      vertex   -1.476480e+02 9.101282e+01 1.994809e+02
      vertex   -1.482723e+02 9.101291e+01 1.990381e+02
    endloop
  endfacet
  facet normal -1.437957e-04 -1.000000e+00 -2.620280e-13
    outer loop
      vertex   -1.476480e+02 9.101282e+01 1.994809e+02
      vertex   -1.475605e+02 9.101280e+01 1.996563e+02
      vertex   -1.484668e+02 9.101293e+01 1.990135e+02
    endloop
  endfacet
  facet normal -1.437957e-04 -1.000000e+00 -3.438290e-13
    outer loop
      vertex   -1.475605e+02 9.101280e+01 1.996563e+02
      vertex   -1.475088e+02 9.101280e+01 1.998454e+02
      vertex   -1.486623e+02 9.101296e+01 1.990272e+02
    endloop
  endfacet
  facet normal -1.437957e-04 -1.000000e+00 -2.563913e-13
    outer loop
      vertex   -1.475088e+02 9.101280e+01 1.998454e+02
      vertex   -1.474950e+02 9.101279e+01 2.000409e+02
      vertex   -1.488514e+02 9.101299e+01 1.990789e+02
    endloop
  endfacet
  facet normal -1.437957e-04 -1.000000e+00 -2.476359e-13
    outer loop
      vertex   -1.474950e+02 9.101279e+01 2.000409e+02
      vertex   -1.475197e+02 9.101280e+01 2.002354e+02
      vertex   -1.490268e+02 9.101301e+01 1.991665e+02
    endloop
  endfacet
  facet normal -1.437957e-04 -1.000000e+00 -3.809461e-13
    outer loop
      vertex   -1.475197e+02 9.101280e+01 2.002354e+02
      vertex   -1.475818e+02 9.101281e+01 2.004214e+02
      vertex   -1.491818e+02 9.101304e+01 1.992866e+02
    endloop
  endfacet
  facet normal -1.437957e-04 -1.000000e+00 -2.449070e-13
    outer loop
      vertex   -1.475818e+02 9.101281e+01 2.004214e+02
      vertex   -1.476790e+02 9.101282e+01 2.005916e+02
      vertex   -1.493103e+02 9.101305e+01 1.994346e+02
    endloop
  endfacet
  facet normal -1.437957e-04 -1.000000e+00 -3.153337e-13
    outer loop
      vertex   -1.494075e+02 9.101307e+01 1.996048e+02
      vertex   -1.476790e+02 9.101282e+01 2.005916e+02
      vertex   -1.478075e+02 9.101284e+01 2.007396e+02
    endloop
  endfacet
  facet normal -1.437957e-04 -1.000000e+00 -2.668891e-13
    outer loop
      vertex   -1.494696e+02 9.101308e+01 1.997908e+02
      vertex   -1.478075e+02 9.101284e+01 2.007396e+02
      vertex   -1.479624e+02 9.101286e+01 2.008597e+02
    endloop
  endfacet
  facet normal 7.550405e-01 -1.085716e-04 6.556782e-01
    outer loop
      vertex   -1.476790e+02 9.101282e+01 2.005916e+02
      vertex   -1.476784e+02 9.494282e+01 2.005916e+02
      vertex   -1.478075e+02 9.101284e+01 2.007396e+02
    endloop
  endfacet
  facet normal 7.550405e-01 -1.085716e-04 6.556782e-01
    outer loop
      vertex   -1.478075e+02 9.101284e+01 2.007396e+02
      vertex   -1.476784e+02 9.494282e+01 2.005916e+02
      vertex   -1.478069e+02 9.494284e+01 2.007396e+02
    endloop
  endfacet
  facet normal 6.126161e-01 -8.809158e-05 7.903806e-01
    outer loop
      vertex   -1.479619e+02 9.494286e+01 2.008597e+02
      vertex   -1.478075e+02 9.101284e+01 2.007396e+02
      vertex   -1.478069e+02 9.494284e+01 2.007396e+02
    endloop
  endfacet
  facet normal 6.126161e-01 -8.809158e-05 7.903806e-01
    outer loop
      vertex   -1.479619e+02 9.494286e+01 2.008597e+02
      vertex   -1.479624e+02 9.101286e+01 2.008597e+02
      vertex   -1.478075e+02 9.101284e+01 2.007396e+02
    endloop
  endfacet
  facet normal 4.466493e-01 -6.422626e-05 8.947091e-01
    outer loop
      vertex   -1.479619e+02 9.494286e+01 2.008597e+02
      vertex   -1.481373e+02 9.494289e+01 2.009473e+02
      vertex   -1.479624e+02 9.101286e+01 2.008597e+02
    endloop
  endfacet
  facet normal 4.466493e-01 -6.422626e-05 8.947091e-01
    outer loop
      vertex   -1.479624e+02 9.101286e+01 2.008597e+02
      vertex   -1.481373e+02 9.494289e+01 2.009473e+02
      vertex   -1.481378e+02 9.101289e+01 2.009473e+02
    endloop
  endfacet
  facet normal 2.635179e-01 -3.789276e-05 9.646545e-01
    outer loop
      vertex   -1.481378e+02 9.101289e+01 2.009473e+02
      vertex   -1.481373e+02 9.494289e+01 2.009473e+02
      vertex   -1.483264e+02 9.494291e+01 2.009989e+02
    endloop
  endfacet
  facet normal 7.025976e-02 -1.010305e-05 9.975287e-01
    outer loop
      vertex   -1.483269e+02 9.101291e+01 2.009989e+02
      vertex   -1.483264e+02 9.494291e+01 2.009989e+02
      vertex   -1.485219e+02 9.494294e+01 2.010127e+02
    endloop
  endfacet
  facet normal -1.256985e-01 1.807490e-05 9.920685e-01
    outer loop
      vertex   -1.485225e+02 9.101294e+01 2.010127e+02
      vertex   -1.485219e+02 9.494294e+01 2.010127e+02
      vertex   -1.487170e+02 9.101297e+01 2.009881e+02
    endloop
  endfacet
  facet normal 7.025976e-02 -1.010305e-05 9.975287e-01
    outer loop
      vertex   -1.485225e+02 9.101294e+01 2.010127e+02
      vertex   -1.483269e+02 9.101291e+01 2.009989e+02
      vertex   -1.485219e+02 9.494294e+01 2.010127e+02
    endloop
  endfacet
  facet normal -1.256985e-01 1.807490e-05 9.920685e-01
    outer loop
      vertex   -1.485219e+02 9.494294e+01 2.010127e+02
      vertex   -1.487164e+02 9.494297e+01 2.009881e+02
      vertex   -1.487170e+02 9.101297e+01 2.009881e+02
    endloop
  endfacet
  facet normal -3.168262e-01 4.555825e-05 9.484836e-01
    outer loop
      vertex   -1.487170e+02 9.101297e+01 2.009881e+02
      vertex   -1.487164e+02 9.494297e+01 2.009881e+02
      vertex   -1.489023e+02 9.494300e+01 2.009259e+02
    endloop
  endfacet
  facet normal -4.957784e-01 7.129082e-05 8.684491e-01
    outer loop
      vertex   -1.489029e+02 9.101300e+01 2.009259e+02
      vertex   -1.489023e+02 9.494300e+01 2.009259e+02
      vertex   -1.490726e+02 9.494302e+01 2.008288e+02
    endloop
  endfacet
  facet normal -6.556782e-01 9.428372e-05 7.550405e-01
    outer loop
      vertex   -1.490732e+02 9.101302e+01 2.008288e+02
      vertex   -1.490726e+02 9.494302e+01 2.008288e+02
      vertex   -1.492206e+02 9.494304e+01 2.007002e+02
    endloop
  endfacet
  facet normal -7.903806e-01 1.136534e-04 6.126161e-01
    outer loop
      vertex   -1.492212e+02 9.101304e+01 2.007002e+02
      vertex   -1.492206e+02 9.494304e+01 2.007002e+02
      vertex   -1.493407e+02 9.494306e+01 2.005453e+02
    endloop
  endfacet
  facet normal -8.947091e-01 1.286554e-04 4.466493e-01
    outer loop
      vertex   -1.493413e+02 9.101306e+01 2.005453e+02
      vertex   -1.493407e+02 9.494306e+01 2.005453e+02
      vertex   -1.494288e+02 9.101307e+01 2.003699e+02
    endloop
  endfacet
  facet normal -7.903806e-01 1.136534e-04 6.126161e-01
    outer loop
      vertex   -1.493413e+02 9.101306e+01 2.005453e+02
      vertex   -1.492212e+02 9.101304e+01 2.007002e+02
      vertex   -1.493407e+02 9.494306e+01 2.005453e+02
    endloop
  endfacet
  facet normal -8.947091e-01 1.286554e-04 4.466493e-01
    outer loop
      vertex   -1.493407e+02 9.494306e+01 2.005453e+02
      vertex   -1.494283e+02 9.494307e+01 2.003699e+02
      vertex   -1.494288e+02 9.101307e+01 2.003699e+02
    endloop
  endfacet
  facet normal -9.646545e-01 1.387132e-04 2.635179e-01
    outer loop
      vertex   -1.494288e+02 9.101307e+01 2.003699e+02
      vertex   -1.494283e+02 9.494307e+01 2.003699e+02
      vertex   -1.494799e+02 9.494308e+01 2.001808e+02
    endloop
  endfacet
  facet normal -9.975287e-01 1.434404e-04 7.025976e-02
    outer loop
      vertex   -1.494805e+02 9.101308e+01 2.001808e+02
      vertex   -1.494799e+02 9.494308e+01 2.001808e+02
      vertex   -1.494937e+02 9.494308e+01 1.999852e+02
    endloop
  endfacet
  facet normal -9.920685e-01 1.426552e-04 -1.256985e-01
    outer loop
      vertex   -1.494942e+02 9.101308e+01 1.999852e+02
      vertex   -1.494937e+02 9.494308e+01 1.999852e+02
      vertex   -1.494690e+02 9.494308e+01 1.997908e+02
    endloop
  endfacet
  facet normal -9.484836e-01 1.363879e-04 -3.168262e-01
    outer loop
      vertex   -1.494696e+02 9.101308e+01 1.997908e+02
      vertex   -1.494690e+02 9.494308e+01 1.997908e+02
      vertex   -1.494069e+02 9.494307e+01 1.996048e+02
    endloop
  endfacet
  facet normal -8.684491e-01 1.248793e-04 -4.957784e-01
    outer loop
      vertex   -1.494075e+02 9.101307e+01 1.996048e+02
      vertex   -1.494069e+02 9.494307e+01 1.996048e+02
      vertex   -1.493103e+02 9.101305e+01 1.994346e+02
    endloop
  endfacet
  facet normal -9.484836e-01 1.363879e-04 -3.168262e-01
    outer loop
      vertex   -1.494075e+02 9.101307e+01 1.996048e+02
      vertex   -1.494696e+02 9.101308e+01 1.997908e+02
      vertex   -1.494069e+02 9.494307e+01 1.996048e+02
    endloop
  endfacet
  facet normal -8.684491e-01 1.248793e-04 -4.957784e-01
    outer loop
      vertex   -1.494069e+02 9.494307e+01 1.996048e+02
      vertex   -1.493097e+02 9.494305e+01 1.994346e+02
      vertex   -1.493103e+02 9.101305e+01 1.994346e+02
    endloop
  endfacet
  facet normal -9.920685e-01 1.426552e-04 -1.256985e-01
    outer loop
      vertex   -1.494696e+02 9.101308e+01 1.997908e+02
      vertex   -1.494942e+02 9.101308e+01 1.999852e+02
      vertex   -1.494690e+02 9.494308e+01 1.997908e+02
    endloop
  endfacet
  facet normal -9.975287e-01 1.434404e-04 7.025976e-02
    outer loop
      vertex   -1.494942e+02 9.101308e+01 1.999852e+02
      vertex   -1.494805e+02 9.101308e+01 2.001808e+02
      vertex   -1.494937e+02 9.494308e+01 1.999852e+02
    endloop
  endfacet
  facet normal -9.646545e-01 1.387132e-04 2.635179e-01
    outer loop
      vertex   -1.494805e+02 9.101308e+01 2.001808e+02
      vertex   -1.494288e+02 9.101307e+01 2.003699e+02
      vertex   -1.494799e+02 9.494308e+01 2.001808e+02
    endloop
  endfacet
  facet normal -6.556782e-01 9.428372e-05 7.550405e-01
    outer loop
      vertex   -1.492212e+02 9.101304e+01 2.007002e+02
      vertex   -1.490732e+02 9.101302e+01 2.008288e+02
      vertex   -1.492206e+02 9.494304e+01 2.007002e+02
    endloop
  endfacet
  facet normal -4.957784e-01 7.129082e-05 8.684491e-01
    outer loop
      vertex   -1.490732e+02 9.101302e+01 2.008288e+02
      vertex   -1.489029e+02 9.101300e+01 2.009259e+02
      vertex   -1.490726e+02 9.494302e+01 2.008288e+02
    endloop
  endfacet
  facet normal -3.168262e-01 4.555825e-05 9.484836e-01
    outer loop
      vertex   -1.489029e+02 9.101300e+01 2.009259e+02
      vertex   -1.487170e+02 9.101297e+01 2.009881e+02
      vertex   -1.489023e+02 9.494300e+01 2.009259e+02
    endloop
  endfacet
  facet normal 2.635179e-01 -3.789276e-05 9.646545e-01
    outer loop
      vertex   -1.483269e+02 9.101291e+01 2.009989e+02
      vertex   -1.481378e+02 9.101289e+01 2.009473e+02
      vertex   -1.483264e+02 9.494291e+01 2.009989e+02
    endloop
  endfacet
  facet normal -9.317159e-02 1.339768e-05 9.956501e-01
    outer loop
      vertex   -1.487650e+02 9.621298e+01 1.994223e+02
      vertex   -1.487652e+02 9.501298e+01 1.994223e+02
      vertex   -1.481179e+02 9.621288e+01 1.994829e+02
    endloop
  endfacet
  facet normal -9.317159e-02 1.339768e-05 9.956501e-01
    outer loop
      vertex   -1.481179e+02 9.621288e+01 1.994829e+02
      vertex   -1.487652e+02 9.501298e+01 1.994223e+02
      vertex   -1.481180e+02 9.501288e+01 1.994829e+02
    endloop
  endfacet
  facet normal 5.257006e-01 -7.177377e-01 4.566087e-01
    outer loop
      vertex   -1.476784e+02 9.494282e+01 2.005916e+02
      vertex   -1.469442e+02 9.581183e+01 2.011123e+02
      vertex   -1.478069e+02 9.494284e+01 2.007396e+02
    endloop
  endfacet
  facet normal 5.257006e-01 -7.177377e-01 4.566087e-01
    outer loop
      vertex   -1.478069e+02 9.494284e+01 2.007396e+02
      vertex   -1.469442e+02 9.581183e+01 2.011123e+02
      vertex   -1.471884e+02 9.581187e+01 2.013935e+02
    endloop
  endfacet
  facet normal 4.265175e-01 -7.177234e-01 5.504143e-01
    outer loop
      vertex   -1.474828e+02 9.581191e+01 2.016217e+02
      vertex   -1.478069e+02 9.494284e+01 2.007396e+02
      vertex   -1.471884e+02 9.581187e+01 2.013935e+02
    endloop
  endfacet
  facet normal 4.265175e-01 -7.177234e-01 5.504143e-01
    outer loop
      vertex   -1.474828e+02 9.581191e+01 2.016217e+02
      vertex   -1.479619e+02 9.494286e+01 2.008597e+02
      vertex   -1.478069e+02 9.494284e+01 2.007396e+02
    endloop
  endfacet
  facet normal 3.109396e-01 -7.177068e-01 6.230679e-01
    outer loop
      vertex   -1.474828e+02 9.581191e+01 2.016217e+02
      vertex   -1.478160e+02 9.581196e+01 2.017880e+02
      vertex   -1.479619e+02 9.494286e+01 2.008597e+02
    endloop
  endfacet
  facet normal 3.109396e-01 -7.177068e-01 6.230679e-01
    outer loop
      vertex   -1.479619e+02 9.494286e+01 2.008597e+02
      vertex   -1.478160e+02 9.581196e+01 2.017880e+02
      vertex   -1.481373e+02 9.494289e+01 2.009473e+02
    endloop
  endfacet
  facet normal 1.834085e-01 -7.176885e-01 6.717772e-01
    outer loop
      vertex   -1.481373e+02 9.494289e+01 2.009473e+02
      vertex   -1.478160e+02 9.581196e+01 2.017880e+02
      vertex   -1.481753e+02 9.581201e+01 2.018862e+02
    endloop
  endfacet
  facet normal 4.882511e-02 -7.176691e-01 6.946705e-01
    outer loop
      vertex   -1.483264e+02 9.494291e+01 2.009989e+02
      vertex   -1.481753e+02 9.581201e+01 2.018862e+02
      vertex   -1.485469e+02 9.581206e+01 2.019123e+02
    endloop
  endfacet
  facet normal -8.763854e-02 -7.176495e-01 6.908681e-01
    outer loop
      vertex   -1.485219e+02 9.494294e+01 2.010127e+02
      vertex   -1.485469e+02 9.581206e+01 2.019123e+02
      vertex   -1.487164e+02 9.494297e+01 2.009881e+02
    endloop
  endfacet
  facet normal 4.882511e-02 -7.176691e-01 6.946705e-01
    outer loop
      vertex   -1.485219e+02 9.494294e+01 2.010127e+02
      vertex   -1.483264e+02 9.494291e+01 2.009989e+02
      vertex   -1.485469e+02 9.581206e+01 2.019123e+02
    endloop
  endfacet
  facet normal -8.763854e-02 -7.176495e-01 6.908681e-01
    outer loop
      vertex   -1.485469e+02 9.581206e+01 2.019123e+02
      vertex   -1.489164e+02 9.581212e+01 2.018655e+02
      vertex   -1.487164e+02 9.494297e+01 2.009881e+02
    endloop
  endfacet
  facet normal -2.207382e-01 -7.176303e-01 6.605160e-01
    outer loop
      vertex   -1.487164e+02 9.494297e+01 2.009881e+02
      vertex   -1.489164e+02 9.581212e+01 2.018655e+02
      vertex   -1.492697e+02 9.581217e+01 2.017475e+02
    endloop
  endfacet
  facet normal -3.453591e-01 -7.176124e-01 6.047806e-01
    outer loop
      vertex   -1.489023e+02 9.494300e+01 2.009259e+02
      vertex   -1.492697e+02 9.581217e+01 2.017475e+02
      vertex   -1.495931e+02 9.581222e+01 2.015629e+02
    endloop
  endfacet
  facet normal -4.567119e-01 -7.175964e-01 5.258038e-01
    outer loop
      vertex   -1.490726e+02 9.494302e+01 2.008288e+02
      vertex   -1.495931e+02 9.581222e+01 2.015629e+02
      vertex   -1.498743e+02 9.581226e+01 2.013186e+02
    endloop
  endfacet
  facet normal -5.505175e-01 -7.175829e-01 4.266207e-01
    outer loop
      vertex   -1.492206e+02 9.494304e+01 2.007002e+02
      vertex   -1.498743e+02 9.581226e+01 2.013186e+02
      vertex   -1.501025e+02 9.581229e+01 2.010243e+02
    endloop
  endfacet
  facet normal -6.231710e-01 -7.175725e-01 3.110428e-01
    outer loop
      vertex   -1.493407e+02 9.494306e+01 2.005453e+02
      vertex   -1.501025e+02 9.581229e+01 2.010243e+02
      vertex   -1.494283e+02 9.494307e+01 2.003699e+02
    endloop
  endfacet
  facet normal -5.505175e-01 -7.175829e-01 4.266207e-01
    outer loop
      vertex   -1.493407e+02 9.494306e+01 2.005453e+02
      vertex   -1.492206e+02 9.494304e+01 2.007002e+02
      vertex   -1.501025e+02 9.581229e+01 2.010243e+02
    endloop
  endfacet
  facet normal -6.231710e-01 -7.175725e-01 3.110428e-01
    outer loop
      vertex   -1.501025e+02 9.581229e+01 2.010243e+02
      vertex   -1.502689e+02 9.581231e+01 2.006910e+02
      vertex   -1.494283e+02 9.494307e+01 2.003699e+02
    endloop
  endfacet
  facet normal -6.718804e-01 -7.175655e-01 1.835117e-01
    outer loop
      vertex   -1.494283e+02 9.494307e+01 2.003699e+02
      vertex   -1.502689e+02 9.581231e+01 2.006910e+02
      vertex   -1.503670e+02 9.581233e+01 2.003317e+02
    endloop
  endfacet
  facet normal -6.947737e-01 -7.175622e-01 4.892830e-02
    outer loop
      vertex   -1.494799e+02 9.494308e+01 2.001808e+02
      vertex   -1.503670e+02 9.581233e+01 2.003317e+02
      vertex   -1.503932e+02 9.581233e+01 1.999602e+02
    endloop
  endfacet
  facet normal -6.909713e-01 -7.175627e-01 -8.753534e-02
    outer loop
      vertex   -1.494937e+02 9.494308e+01 1.999852e+02
      vertex   -1.503932e+02 9.581233e+01 1.999602e+02
      vertex   -1.503464e+02 9.581232e+01 1.995907e+02
    endloop
  endfacet
  facet normal -6.606191e-01 -7.175671e-01 -2.206351e-01
    outer loop
      vertex   -1.494690e+02 9.494308e+01 1.997908e+02
      vertex   -1.503464e+02 9.581232e+01 1.995907e+02
      vertex   -1.502284e+02 9.581231e+01 1.992374e+02
    endloop
  endfacet
  facet normal -6.048838e-01 -7.175751e-01 -3.452559e-01
    outer loop
      vertex   -1.494069e+02 9.494307e+01 1.996048e+02
      vertex   -1.502284e+02 9.581231e+01 1.992374e+02
      vertex   -1.493097e+02 9.494305e+01 1.994346e+02
    endloop
  endfacet
  facet normal -6.606191e-01 -7.175671e-01 -2.206351e-01
    outer loop
      vertex   -1.494069e+02 9.494307e+01 1.996048e+02
      vertex   -1.494690e+02 9.494308e+01 1.997908e+02
      vertex   -1.502284e+02 9.581231e+01 1.992374e+02
    endloop
  endfacet
  facet normal -6.048838e-01 -7.175751e-01 -3.452559e-01
    outer loop
      vertex   -1.502284e+02 9.581231e+01 1.992374e+02
      vertex   -1.500437e+02 9.581228e+01 1.989139e+02
      vertex   -1.493097e+02 9.494305e+01 1.994346e+02
    endloop
  endfacet
  facet normal -6.909713e-01 -7.175627e-01 -8.753534e-02
    outer loop
      vertex   -1.494690e+02 9.494308e+01 1.997908e+02
      vertex   -1.494937e+02 9.494308e+01 1.999852e+02
      vertex   -1.503464e+02 9.581232e+01 1.995907e+02
    endloop
  endfacet
  facet normal -6.947737e-01 -7.175622e-01 4.892830e-02
    outer loop
      vertex   -1.494937e+02 9.494308e+01 1.999852e+02
      vertex   -1.494799e+02 9.494308e+01 2.001808e+02
      vertex   -1.503932e+02 9.581233e+01 1.999602e+02
    endloop
  endfacet
  facet normal -6.718804e-01 -7.175655e-01 1.835117e-01
    outer loop
      vertex   -1.494799e+02 9.494308e+01 2.001808e+02
      vertex   -1.494283e+02 9.494307e+01 2.003699e+02
      vertex   -1.503670e+02 9.581233e+01 2.003317e+02
    endloop
  endfacet
  facet normal -4.567119e-01 -7.175964e-01 5.258038e-01
    outer loop
      vertex   -1.492206e+02 9.494304e+01 2.007002e+02
      vertex   -1.490726e+02 9.494302e+01 2.008288e+02
      vertex   -1.498743e+02 9.581226e+01 2.013186e+02
    endloop
  endfacet
  facet normal -3.453591e-01 -7.176124e-01 6.047806e-01
    outer loop
      vertex   -1.490726e+02 9.494302e+01 2.008288e+02
      vertex   -1.489023e+02 9.494300e+01 2.009259e+02
      vertex   -1.495931e+02 9.581222e+01 2.015629e+02
    endloop
  endfacet
  facet normal -2.207382e-01 -7.176303e-01 6.605160e-01
    outer loop
      vertex   -1.489023e+02 9.494300e+01 2.009259e+02
      vertex   -1.487164e+02 9.494297e+01 2.009881e+02
      vertex   -1.492697e+02 9.581217e+01 2.017475e+02
    endloop
  endfacet
  facet normal 1.834085e-01 -7.176885e-01 6.717772e-01
    outer loop
      vertex   -1.483264e+02 9.494291e+01 2.009989e+02
      vertex   -1.481373e+02 9.494289e+01 2.009473e+02
      vertex   -1.481753e+02 9.581201e+01 2.018862e+02
    endloop
  endfacet
  facet normal 8.156724e-01 -1.172902e-04 5.785140e-01
    outer loop
      vertex   -1.491411e+02 9.621303e+01 1.999525e+02
      vertex   -1.491412e+02 9.501303e+01 1.999525e+02
      vertex   -1.487650e+02 9.621298e+01 1.994223e+02
    endloop
  endfacet
  facet normal 8.156724e-01 -1.172902e-04 5.785140e-01
    outer loop
      vertex   -1.487650e+02 9.621298e+01 1.994223e+02
      vertex   -1.491412e+02 9.501303e+01 1.999525e+02
      vertex   -1.487652e+02 9.501298e+01 1.994223e+02
    endloop
  endfacet
  facet normal -8.684491e-01 1.248793e-04 -4.957784e-01
    outer loop
      vertex   -1.500437e+02 9.621316e+01 1.989139e+02
      vertex   -1.500437e+02 9.581228e+01 1.989139e+02
      vertex   -1.502283e+02 9.621319e+01 1.992374e+02
    endloop
  endfacet
  facet normal -8.684491e-01 1.248793e-04 -4.957784e-01
    outer loop
      vertex   -1.502283e+02 9.621319e+01 1.992374e+02
      vertex   -1.500437e+02 9.581228e+01 1.989139e+02
      vertex   -1.502284e+02 9.581231e+01 1.992374e+02
    endloop
  endfacet
  facet normal -9.484836e-01 1.363879e-04 -3.168262e-01
    outer loop
      vertex   -1.503464e+02 9.581232e+01 1.995907e+02
      vertex   -1.502283e+02 9.621319e+01 1.992374e+02
      vertex   -1.502284e+02 9.581231e+01 1.992374e+02
    endloop
  endfacet
  facet normal -9.484836e-01 1.363879e-04 -3.168262e-01
    outer loop
      vertex   -1.503464e+02 9.581232e+01 1.995907e+02
      vertex   -1.503463e+02 9.621320e+01 1.995907e+02
      vertex   -1.502283e+02 9.621319e+01 1.992374e+02
    endloop
  endfacet
  facet normal -9.920685e-01 1.426552e-04 -1.256985e-01
    outer loop
      vertex   -1.503464e+02 9.581232e+01 1.995907e+02
      vertex   -1.503932e+02 9.581233e+01 1.999602e+02
      vertex   -1.503463e+02 9.621320e+01 1.995907e+02
    endloop
  endfacet
  facet normal -9.920685e-01 1.426552e-04 -1.256985e-01
    outer loop
      vertex   -1.503463e+02 9.621320e+01 1.995907e+02
      vertex   -1.503932e+02 9.581233e+01 1.999602e+02
      vertex   -1.503932e+02 9.621321e+01 1.999602e+02
    endloop
  endfacet
  facet normal -9.975287e-01 1.434404e-04 7.025976e-02
    outer loop
      vertex   -1.503932e+02 9.621321e+01 1.999602e+02
      vertex   -1.503932e+02 9.581233e+01 1.999602e+02
      vertex   -1.503670e+02 9.581233e+01 2.003317e+02
    endloop
  endfacet
  facet normal -9.646545e-01 1.387132e-04 2.635179e-01
    outer loop
      vertex   -1.503670e+02 9.621321e+01 2.003317e+02
      vertex   -1.503670e+02 9.581233e+01 2.003317e+02
      vertex   -1.502689e+02 9.581231e+01 2.006910e+02
    endloop
  endfacet
  facet normal -8.947091e-01 1.286554e-04 4.466493e-01
    outer loop
      vertex   -1.502688e+02 9.621319e+01 2.006910e+02
      vertex   -1.502689e+02 9.581231e+01 2.006910e+02
      vertex   -1.501025e+02 9.621317e+01 2.010243e+02
    endloop
  endfacet
  facet normal -9.646545e-01 1.387132e-04 2.635179e-01
    outer loop
      vertex   -1.502688e+02 9.621319e+01 2.006910e+02
      vertex   -1.503670e+02 9.621321e+01 2.003317e+02
      vertex   -1.502689e+02 9.581231e+01 2.006910e+02
    endloop
  endfacet
  facet normal -8.947091e-01 1.286554e-04 4.466493e-01
    outer loop
      vertex   -1.502689e+02 9.581231e+01 2.006910e+02
      vertex   -1.501025e+02 9.581229e+01 2.010243e+02
      vertex   -1.501025e+02 9.621317e+01 2.010243e+02
    endloop
  endfacet
  facet normal -7.903806e-01 1.136534e-04 6.126161e-01
    outer loop
      vertex   -1.501025e+02 9.621317e+01 2.010243e+02
      vertex   -1.501025e+02 9.581229e+01 2.010243e+02
      vertex   -1.498743e+02 9.581226e+01 2.013186e+02
    endloop
  endfacet
  facet normal -6.556782e-01 9.428372e-05 7.550405e-01
    outer loop
      vertex   -1.498743e+02 9.621314e+01 2.013186e+02
      vertex   -1.498743e+02 9.581226e+01 2.013186e+02
      vertex   -1.495931e+02 9.581222e+01 2.015629e+02
    endloop
  endfacet
  facet normal -4.957784e-01 7.129082e-05 8.684491e-01
    outer loop
      vertex   -1.495931e+02 9.621310e+01 2.015629e+02
      vertex   -1.495931e+02 9.581222e+01 2.015629e+02
      vertex   -1.492697e+02 9.581217e+01 2.017475e+02
    endloop
  endfacet
  facet normal -3.168262e-01 4.555825e-05 9.484836e-01
    outer loop
      vertex   -1.492696e+02 9.621305e+01 2.017475e+02
      vertex   -1.492697e+02 9.581217e+01 2.017475e+02
      vertex   -1.489164e+02 9.581212e+01 2.018655e+02
    endloop
  endfacet
  facet normal -1.256985e-01 1.807490e-05 9.920685e-01
    outer loop
      vertex   -1.489163e+02 9.621300e+01 2.018655e+02
      vertex   -1.489164e+02 9.581212e+01 2.018655e+02
      vertex   -1.485468e+02 9.621294e+01 2.019123e+02
    endloop
  endfacet
  facet normal -3.168262e-01 4.555825e-05 9.484836e-01
    outer loop
      vertex   -1.489163e+02 9.621300e+01 2.018655e+02
      vertex   -1.492696e+02 9.621305e+01 2.017475e+02
      vertex   -1.489164e+02 9.581212e+01 2.018655e+02
    endloop
  endfacet
  facet normal -1.256985e-01 1.807490e-05 9.920685e-01
    outer loop
      vertex   -1.489164e+02 9.581212e+01 2.018655e+02
      vertex   -1.485469e+02 9.581206e+01 2.019123e+02
      vertex   -1.485468e+02 9.621294e+01 2.019123e+02
    endloop
  endfacet
  facet normal 7.025976e-02 -1.010305e-05 9.975287e-01
    outer loop
      vertex   -1.485468e+02 9.621294e+01 2.019123e+02
      vertex   -1.485469e+02 9.581206e+01 2.019123e+02
      vertex   -1.481753e+02 9.581201e+01 2.018862e+02
    endloop
  endfacet
  facet normal 2.635179e-01 -3.789276e-05 9.646545e-01
    outer loop
      vertex   -1.481753e+02 9.621289e+01 2.018862e+02
      vertex   -1.481753e+02 9.581201e+01 2.018862e+02
      vertex   -1.478160e+02 9.581196e+01 2.017880e+02
    endloop
  endfacet
  facet normal 4.466493e-01 -6.422626e-05 8.947091e-01
    outer loop
      vertex   -1.478160e+02 9.621284e+01 2.017880e+02
      vertex   -1.478160e+02 9.581196e+01 2.017880e+02
      vertex   -1.474828e+02 9.581191e+01 2.016217e+02
    endloop
  endfacet
  facet normal 6.126161e-01 -8.809158e-05 7.903806e-01
    outer loop
      vertex   -1.474827e+02 9.621279e+01 2.016217e+02
      vertex   -1.474828e+02 9.581191e+01 2.016217e+02
      vertex   -1.471884e+02 9.581187e+01 2.013935e+02
    endloop
  endfacet
  facet normal 7.550405e-01 -1.085716e-04 6.556782e-01
    outer loop
      vertex   -1.471883e+02 9.621275e+01 2.013935e+02
      vertex   -1.471884e+02 9.581187e+01 2.013935e+02
      vertex   -1.469441e+02 9.621271e+01 2.011123e+02
    endloop
  endfacet
  facet normal 6.126161e-01 -8.809158e-05 7.903806e-01
    outer loop
      vertex   -1.471883e+02 9.621275e+01 2.013935e+02
      vertex   -1.474827e+02 9.621279e+01 2.016217e+02
      vertex   -1.471884e+02 9.581187e+01 2.013935e+02
    endloop
  endfacet
  facet normal 7.550405e-01 -1.085716e-04 6.556782e-01
    outer loop
      vertex   -1.471884e+02 9.581187e+01 2.013935e+02
      vertex   -1.469442e+02 9.581183e+01 2.011123e+02
      vertex   -1.469441e+02 9.621271e+01 2.011123e+02
    endloop
  endfacet
  facet normal 4.466493e-01 -6.422626e-05 8.947091e-01
    outer loop
      vertex   -1.474827e+02 9.621279e+01 2.016217e+02
      vertex   -1.478160e+02 9.621284e+01 2.017880e+02
      vertex   -1.474828e+02 9.581191e+01 2.016217e+02
    endloop
  endfacet
  facet normal 2.635179e-01 -3.789276e-05 9.646545e-01
    outer loop
      vertex   -1.478160e+02 9.621284e+01 2.017880e+02
      vertex   -1.481753e+02 9.621289e+01 2.018862e+02
      vertex   -1.478160e+02 9.581196e+01 2.017880e+02
    endloop
  endfacet
  facet normal 7.025976e-02 -1.010305e-05 9.975287e-01
    outer loop
      vertex   -1.481753e+02 9.621289e+01 2.018862e+02
      vertex   -1.485468e+02 9.621294e+01 2.019123e+02
      vertex   -1.481753e+02 9.581201e+01 2.018862e+02
    endloop
  endfacet
  facet normal -4.957784e-01 7.129082e-05 8.684491e-01
    outer loop
      vertex   -1.492696e+02 9.621305e+01 2.017475e+02
      vertex   -1.495931e+02 9.621310e+01 2.015629e+02
      vertex   -1.492697e+02 9.581217e+01 2.017475e+02
    endloop
  endfacet
  facet normal -6.556782e-01 9.428372e-05 7.550405e-01
    outer loop
      vertex   -1.495931e+02 9.621310e+01 2.015629e+02
      vertex   -1.498743e+02 9.621314e+01 2.013186e+02
      vertex   -1.495931e+02 9.581222e+01 2.015629e+02
    endloop
  endfacet
  facet normal -7.903806e-01 1.136534e-04 6.126161e-01
    outer loop
      vertex   -1.498743e+02 9.621314e+01 2.013186e+02
      vertex   -1.501025e+02 9.621317e+01 2.010243e+02
      vertex   -1.498743e+02 9.581226e+01 2.013186e+02
    endloop
  endfacet
  facet normal -9.975287e-01 1.434404e-04 7.025976e-02
    outer loop
      vertex   -1.503670e+02 9.621321e+01 2.003317e+02
      vertex   -1.503932e+02 9.621321e+01 1.999602e+02
      vertex   -1.503670e+02 9.581233e+01 2.003317e+02
    endloop
  endfacet
  facet normal 1.437957e-04 1.000000e+00 2.762413e-13
    outer loop
      vertex   -1.482229e+02 9.501290e+01 2.006038e+02
      vertex   -1.478469e+02 9.501284e+01 2.000736e+02
      vertex   -1.488701e+02 9.501299e+01 2.005433e+02
    endloop
  endfacet
  facet normal 1.437957e-04 1.000000e+00 2.961169e-13
    outer loop
      vertex   -1.488701e+02 9.501299e+01 2.005433e+02
      vertex   -1.478469e+02 9.501284e+01 2.000736e+02
      vertex   -1.481180e+02 9.501288e+01 1.994829e+02
    endloop
  endfacet
  facet normal 1.437957e-04 1.000000e+00 3.159811e-13
    outer loop
      vertex   -1.491412e+02 9.501303e+01 1.999525e+02
      vertex   -1.481180e+02 9.501288e+01 1.994829e+02
      vertex   -1.487652e+02 9.501298e+01 1.994223e+02
    endloop
  endfacet
  facet normal 1.437957e-04 1.000000e+00 2.961169e-13
    outer loop
      vertex   -1.491412e+02 9.501303e+01 1.999525e+02
      vertex   -1.488701e+02 9.501299e+01 2.005433e+02
      vertex   -1.481180e+02 9.501288e+01 1.994829e+02
    endloop
  endfacet
  facet normal 1.437957e-04 1.000000e+00 3.621805e-13
    outer loop
      vertex   -1.502283e+02 9.621319e+01 1.992374e+02
      vertex   -1.491411e+02 9.621303e+01 1.999525e+02
      vertex   -1.500437e+02 9.621316e+01 1.989139e+02
    endloop
  endfacet
  facet normal 1.437957e-04 1.000000e+00 2.755432e-13
    outer loop
      vertex   -1.502283e+02 9.621319e+01 1.992374e+02
      vertex   -1.503463e+02 9.621320e+01 1.995907e+02
      vertex   -1.491411e+02 9.621303e+01 1.999525e+02
    endloop
  endfacet
  facet normal 1.437957e-04 1.000000e+00 2.764928e-13
    outer loop
      vertex   -1.491411e+02 9.621303e+01 1.999525e+02
      vertex   -1.503463e+02 9.621320e+01 1.995907e+02
      vertex   -1.503932e+02 9.621321e+01 1.999602e+02
    endloop
  endfacet
  facet normal 1.437957e-04 1.000000e+00 2.709632e-13
    outer loop
      vertex   -1.503670e+02 9.621321e+01 2.003317e+02
      vertex   -1.491411e+02 9.621303e+01 1.999525e+02
      vertex   -1.503932e+02 9.621321e+01 1.999602e+02
    endloop
  endfacet
  facet normal 1.437957e-04 1.000000e+00 3.231094e-13
    outer loop
      vertex   -1.503670e+02 9.621321e+01 2.003317e+02
      vertex   -1.502688e+02 9.621319e+01 2.006910e+02
      vertex   -1.491411e+02 9.621303e+01 1.999525e+02
    endloop
  endfacet
  facet normal 1.437957e-04 1.000000e+00 3.046658e-13
    outer loop
      vertex   -1.491411e+02 9.621303e+01 1.999525e+02
      vertex   -1.502688e+02 9.621319e+01 2.006910e+02
      vertex   -1.488699e+02 9.621299e+01 2.005433e+02
    endloop
  endfacet
  facet normal 1.437957e-04 1.000000e+00 2.970666e-13
    outer loop
      vertex   -1.488699e+02 9.621299e+01 2.005433e+02
      vertex   -1.502688e+02 9.621319e+01 2.006910e+02
      vertex   -1.501025e+02 9.621317e+01 2.010243e+02
    endloop
  endfacet
  facet normal 1.437957e-04 1.000000e+00 2.927730e-13
    outer loop
      vertex   -1.498743e+02 9.621314e+01 2.013186e+02
      vertex   -1.488699e+02 9.621299e+01 2.005433e+02
      vertex   -1.501025e+02 9.621317e+01 2.010243e+02
    endloop
  endfacet
  facet normal 1.437957e-04 1.000000e+00 3.109060e-13
    outer loop
      vertex   -1.498743e+02 9.621314e+01 2.013186e+02
      vertex   -1.495931e+02 9.621310e+01 2.015629e+02
      vertex   -1.488699e+02 9.621299e+01 2.005433e+02
    endloop
  endfacet
  facet normal 1.437957e-04 1.000000e+00 3.120634e-13
    outer loop
      vertex   -1.488699e+02 9.621299e+01 2.005433e+02
      vertex   -1.495931e+02 9.621310e+01 2.015629e+02
      vertex   -1.492696e+02 9.621305e+01 2.017475e+02
    endloop
  endfacet
  facet normal 1.437957e-04 1.000000e+00 3.076555e-13
    outer loop
      vertex   -1.489163e+02 9.621300e+01 2.018655e+02
      vertex   -1.488699e+02 9.621299e+01 2.005433e+02
      vertex   -1.492696e+02 9.621305e+01 2.017475e+02
    endloop
  endfacet
  facet normal 1.437957e-04 1.000000e+00 3.076414e-13
    outer loop
      vertex   -1.489163e+02 9.621300e+01 2.018655e+02
      vertex   -1.485468e+02 9.621294e+01 2.019123e+02
      vertex   -1.488699e+02 9.621299e+01 2.005433e+02
    endloop
  endfacet
  facet normal 1.437957e-04 1.000000e+00 3.059277e-13
    outer loop
      vertex   -1.488699e+02 9.621299e+01 2.005433e+02
      vertex   -1.485468e+02 9.621294e+01 2.019123e+02
      vertex   -1.482228e+02 9.621290e+01 2.006038e+02
    endloop
  endfacet
  facet normal 1.437957e-04 1.000000e+00 3.154508e-13
    outer loop
      vertex   -1.482228e+02 9.621290e+01 2.006038e+02
      vertex   -1.485468e+02 9.621294e+01 2.019123e+02
      vertex   -1.481753e+02 9.621289e+01 2.018862e+02
    endloop
  endfacet
  facet normal 1.437957e-04 1.000000e+00 3.168583e-13
    outer loop
      vertex   -1.478160e+02 9.621284e+01 2.017880e+02
      vertex   -1.482228e+02 9.621290e+01 2.006038e+02
      vertex   -1.481753e+02 9.621289e+01 2.018862e+02
    endloop
  endfacet
  facet normal 1.437957e-04 1.000000e+00 3.082811e-13
    outer loop
      vertex   -1.478160e+02 9.621284e+01 2.017880e+02
      vertex   -1.474827e+02 9.621279e+01 2.016217e+02
      vertex   -1.482228e+02 9.621290e+01 2.006038e+02
    endloop
  endfacet
  facet normal 1.437957e-04 1.000000e+00 3.066415e-13
    outer loop
      vertex   -1.482228e+02 9.621290e+01 2.006038e+02
      vertex   -1.474827e+02 9.621279e+01 2.016217e+02
      vertex   -1.471883e+02 9.621275e+01 2.013935e+02
    endloop
  endfacet
  facet normal 1.437957e-04 1.000000e+00 3.220430e-13
    outer loop
      vertex   -1.469441e+02 9.621271e+01 2.011123e+02
      vertex   -1.482228e+02 9.621290e+01 2.006038e+02
      vertex   -1.471883e+02 9.621275e+01 2.013935e+02
    endloop
  endfacet
  facet normal 1.437957e-04 1.000000e+00 3.144923e-13
    outer loop
      vertex   -1.469441e+02 9.621271e+01 2.011123e+02
      vertex   -1.478467e+02 9.621284e+01 2.000736e+02
      vertex   -1.482228e+02 9.621290e+01 2.006038e+02
    endloop
  endfacet
  facet normal 1.437957e-04 1.000000e+00 3.199994e-13
    outer loop
      vertex   -1.469441e+02 9.621271e+01 2.011123e+02
      vertex   -1.467595e+02 9.621269e+01 2.007888e+02
      vertex   -1.478467e+02 9.621284e+01 2.000736e+02
    endloop
  endfacet
  facet normal 1.437957e-04 1.000000e+00 2.898611e-13
    outer loop
      vertex   -1.478467e+02 9.621284e+01 2.000736e+02
      vertex   -1.467595e+02 9.621269e+01 2.007888e+02
      vertex   -1.466414e+02 9.621267e+01 2.004355e+02
    endloop
  endfacet
  facet normal 1.437957e-04 1.000000e+00 2.822495e-13
    outer loop
      vertex   -1.465946e+02 9.621266e+01 2.000660e+02
      vertex   -1.478467e+02 9.621284e+01 2.000736e+02
      vertex   -1.466414e+02 9.621267e+01 2.004355e+02
    endloop
  endfacet
  facet normal 1.437957e-04 1.000000e+00 2.677670e-13
    outer loop
      vertex   -1.465946e+02 9.621266e+01 2.000660e+02
      vertex   -1.466208e+02 9.621267e+01 1.996945e+02
      vertex   -1.478467e+02 9.621284e+01 2.000736e+02
    endloop
  endfacet
  facet normal 1.437957e-04 1.000000e+00 3.114298e-13
    outer loop
      vertex   -1.478467e+02 9.621284e+01 2.000736e+02
      vertex   -1.466208e+02 9.621267e+01 1.996945e+02
      vertex   -1.467189e+02 9.621268e+01 1.993352e+02
    endloop
  endfacet
  facet normal 1.437957e-04 1.000000e+00 2.777975e-13
    outer loop
      vertex   -1.481179e+02 9.621288e+01 1.994829e+02
      vertex   -1.467189e+02 9.621268e+01 1.993352e+02
      vertex   -1.468853e+02 9.621271e+01 1.990019e+02
    endloop
  endfacet
  facet normal 1.437957e-04 1.000000e+00 2.653281e-13
    outer loop
      vertex   -1.471135e+02 9.621274e+01 1.987075e+02
      vertex   -1.481179e+02 9.621288e+01 1.994829e+02
      vertex   -1.468853e+02 9.621271e+01 1.990019e+02
    endloop
  endfacet
  facet normal 1.437957e-04 1.000000e+00 2.764046e-13
    outer loop
      vertex   -1.471135e+02 9.621274e+01 1.987075e+02
      vertex   -1.473947e+02 9.621278e+01 1.984633e+02
      vertex   -1.481179e+02 9.621288e+01 1.994829e+02
    endloop
  endfacet
  facet normal 1.437957e-04 1.000000e+00 2.723798e-13
    outer loop
      vertex   -1.481179e+02 9.621288e+01 1.994829e+02
      vertex   -1.473947e+02 9.621278e+01 1.984633e+02
      vertex   -1.477182e+02 9.621283e+01 1.982786e+02
    endloop
  endfacet
  facet normal 1.437957e-04 1.000000e+00 2.651638e-13
    outer loop
      vertex   -1.480715e+02 9.621288e+01 1.981606e+02
      vertex   -1.481179e+02 9.621288e+01 1.994829e+02
      vertex   -1.477182e+02 9.621283e+01 1.982786e+02
    endloop
  endfacet
  facet normal 1.437957e-04 1.000000e+00 2.648420e-13
    outer loop
      vertex   -1.480715e+02 9.621288e+01 1.981606e+02
      vertex   -1.484410e+02 9.621293e+01 1.981138e+02
      vertex   -1.481179e+02 9.621288e+01 1.994829e+02
    endloop
  endfacet
  facet normal 1.437957e-04 1.000000e+00 2.634705e-13
    outer loop
      vertex   -1.481179e+02 9.621288e+01 1.994829e+02
      vertex   -1.484410e+02 9.621293e+01 1.981138e+02
      vertex   -1.487650e+02 9.621298e+01 1.994223e+02
    endloop
  endfacet
  facet normal 1.437957e-04 1.000000e+00 2.712384e-13
    outer loop
      vertex   -1.487650e+02 9.621298e+01 1.994223e+02
      vertex   -1.484410e+02 9.621293e+01 1.981138e+02
      vertex   -1.488125e+02 9.621298e+01 1.981400e+02
    endloop
  endfacet
  facet normal 1.437957e-04 1.000000e+00 2.729745e-13
    outer loop
      vertex   -1.491718e+02 9.621303e+01 1.982381e+02
      vertex   -1.487650e+02 9.621298e+01 1.994223e+02
      vertex   -1.488125e+02 9.621298e+01 1.981400e+02
    endloop
  endfacet
  facet normal 1.437957e-04 1.000000e+00 2.673060e-13
    outer loop
      vertex   -1.491718e+02 9.621303e+01 1.982381e+02
      vertex   -1.495051e+02 9.621308e+01 1.984045e+02
      vertex   -1.487650e+02 9.621298e+01 1.994223e+02
    endloop
  endfacet
  facet normal 1.437957e-04 1.000000e+00 2.709230e-13
    outer loop
      vertex   -1.487650e+02 9.621298e+01 1.994223e+02
      vertex   -1.495051e+02 9.621308e+01 1.984045e+02
      vertex   -1.497994e+02 9.621312e+01 1.986327e+02
    endloop
  endfacet
  facet normal 1.437957e-04 1.000000e+00 2.325715e-13
    outer loop
      vertex   -1.500437e+02 9.621316e+01 1.989139e+02
      vertex   -1.487650e+02 9.621298e+01 1.994223e+02
      vertex   -1.497994e+02 9.621312e+01 1.986327e+02
    endloop
  endfacet
  facet normal 1.437957e-04 1.000000e+00 3.021951e-13
    outer loop
      vertex   -1.500437e+02 9.621316e+01 1.989139e+02
      vertex   -1.491411e+02 9.621303e+01 1.999525e+02
      vertex   -1.487650e+02 9.621298e+01 1.994223e+02
    endloop
  endfacet
  facet normal 1.437957e-04 1.000000e+00 2.868779e-13
    outer loop
      vertex   -1.481179e+02 9.621288e+01 1.994829e+02
      vertex   -1.478467e+02 9.621284e+01 2.000736e+02
      vertex   -1.467189e+02 9.621268e+01 1.993352e+02
    endloop
  endfacet
  facet normal 9.088440e-01 -1.306879e-04 -4.171361e-01
    outer loop
      vertex   -1.488699e+02 9.621299e+01 2.005433e+02
      vertex   -1.488701e+02 9.501299e+01 2.005433e+02
      vertex   -1.491411e+02 9.621303e+01 1.999525e+02
    endloop
  endfacet
  facet normal 9.088440e-01 -1.306879e-04 -4.171361e-01
    outer loop
      vertex   -1.491411e+02 9.621303e+01 1.999525e+02
      vertex   -1.488701e+02 9.501299e+01 2.005433e+02
      vertex   -1.491412e+02 9.501303e+01 1.999525e+02
    endloop
  endfacet
  facet normal 9.317159e-02 -1.339768e-05 -9.956501e-01
    outer loop
      vertex   -1.482229e+02 9.501290e+01 2.006038e+02
      vertex   -1.488701e+02 9.501299e+01 2.005433e+02
      vertex   -1.482228e+02 9.621290e+01 2.006038e+02
    endloop
  endfacet
  facet normal 9.317159e-02 -1.339768e-05 -9.956501e-01
    outer loop
      vertex   -1.482228e+02 9.621290e+01 2.006038e+02
      vertex   -1.488701e+02 9.501299e+01 2.005433e+02
      vertex   -1.488699e+02 9.621299e+01 2.005433e+02
    endloop
  endfacet
  facet normal -8.156724e-01 1.172902e-04 -5.785140e-01
    outer loop
      vertex   -1.478469e+02 9.501284e+01 2.000736e+02
      vertex   -1.482229e+02 9.501290e+01 2.006038e+02
      vertex   -1.478467e+02 9.621284e+01 2.000736e+02
    endloop
  endfacet
  facet normal -8.156724e-01 1.172902e-04 -5.785140e-01
    outer loop
      vertex   -1.478467e+02 9.621284e+01 2.000736e+02
      vertex   -1.482229e+02 9.501290e+01 2.006038e+02
      vertex   -1.482228e+02 9.621290e+01 2.006038e+02
    endloop
  endfacet
  facet normal -9.088440e-01 1.306879e-04 4.171361e-01
    outer loop
      vertex   -1.481179e+02 9.621288e+01 1.994829e+02
      vertex   -1.481180e+02 9.501288e+01 1.994829e+02
      vertex   -1.478467e+02 9.621284e+01 2.000736e+02
    endloop
  endfacet
  facet normal -9.088440e-01 1.306879e-04 4.171361e-01
    outer loop
      vertex   -1.478467e+02 9.621284e+01 2.000736e+02
      vertex   -1.481180e+02 9.501288e+01 1.994829e+02
      vertex   -1.478469e+02 9.501284e+01 2.000736e+02
    endloop
  endfacet
  facet normal -5.259070e-01 -7.175865e-01 -4.566087e-01
    outer loop
      vertex   -1.493097e+02 9.494305e+01 1.994346e+02
      vertex   -1.500437e+02 9.581228e+01 1.989139e+02
      vertex   -1.491812e+02 9.494304e+01 1.992866e+02
    endloop
  endfacet
  facet normal -5.259070e-01 -7.175865e-01 -4.566087e-01
    outer loop
      vertex   -1.491812e+02 9.494304e+01 1.992866e+02
      vertex   -1.500437e+02 9.581228e+01 1.989139e+02
      vertex   -1.497995e+02 9.581224e+01 1.986327e+02
    endloop
  endfacet
  facet normal -4.267239e-01 -7.176007e-01 -5.504143e-01
    outer loop
      vertex   -1.495051e+02 9.581220e+01 1.984045e+02
      vertex   -1.491812e+02 9.494304e+01 1.992866e+02
      vertex   -1.497995e+02 9.581224e+01 1.986327e+02
    endloop
  endfacet
  facet normal -4.267239e-01 -7.176007e-01 -5.504143e-01
    outer loop
      vertex   -1.495051e+02 9.581220e+01 1.984045e+02
      vertex   -1.490263e+02 9.494301e+01 1.991665e+02
      vertex   -1.491812e+02 9.494304e+01 1.992866e+02
    endloop
  endfacet
  facet normal -3.111460e-01 -7.176173e-01 -6.230679e-01
    outer loop
      vertex   -1.495051e+02 9.581220e+01 1.984045e+02
      vertex   -1.491719e+02 9.581215e+01 1.982381e+02
      vertex   -1.490263e+02 9.494301e+01 1.991665e+02
    endloop
  endfacet
  facet normal -3.111460e-01 -7.176173e-01 -6.230679e-01
    outer loop
      vertex   -1.490263e+02 9.494301e+01 1.991665e+02
      vertex   -1.491719e+02 9.581215e+01 1.982381e+02
      vertex   -1.488509e+02 9.494299e+01 1.990789e+02
    endloop
  endfacet
  facet normal -1.836149e-01 -7.176357e-01 -6.717772e-01
    outer loop
      vertex   -1.488509e+02 9.494299e+01 1.990789e+02
      vertex   -1.491719e+02 9.581215e+01 1.982381e+02
      vertex   -1.488126e+02 9.581210e+01 1.981400e+02
    endloop
  endfacet
  facet normal -4.903150e-02 -7.176550e-01 -6.946705e-01
    outer loop
      vertex   -1.486618e+02 9.494296e+01 1.990272e+02
      vertex   -1.488126e+02 9.581210e+01 1.981400e+02
      vertex   -1.484410e+02 9.581205e+01 1.981138e+02
    endloop
  endfacet
  facet normal 8.743214e-02 -7.176747e-01 -6.908681e-01
    outer loop
      vertex   -1.484662e+02 9.494293e+01 1.990135e+02
      vertex   -1.484410e+02 9.581205e+01 1.981138e+02
      vertex   -1.482717e+02 9.494291e+01 1.990381e+02
    endloop
  endfacet
  facet normal -4.903150e-02 -7.176550e-01 -6.946705e-01
    outer loop
      vertex   -1.484662e+02 9.494293e+01 1.990135e+02
      vertex   -1.486618e+02 9.494296e+01 1.990272e+02
      vertex   -1.484410e+02 9.581205e+01 1.981138e+02
    endloop
  endfacet
  facet normal 8.743214e-02 -7.176747e-01 -6.908681e-01
    outer loop
      vertex   -1.484410e+02 9.581205e+01 1.981138e+02
      vertex   -1.480715e+02 9.581200e+01 1.981606e+02
      vertex   -1.482717e+02 9.494291e+01 1.990381e+02
    endloop
  endfacet
  facet normal 2.205319e-01 -7.176938e-01 -6.605160e-01
    outer loop
      vertex   -1.482717e+02 9.494291e+01 1.990381e+02
      vertex   -1.480715e+02 9.581200e+01 1.981606e+02
      vertex   -1.477182e+02 9.581195e+01 1.982786e+02
    endloop
  endfacet
  facet normal 3.451527e-01 -7.177117e-01 -6.047806e-01
    outer loop
      vertex   -1.480858e+02 9.494288e+01 1.991002e+02
      vertex   -1.477182e+02 9.581195e+01 1.982786e+02
      vertex   -1.473948e+02 9.581190e+01 1.984633e+02
    endloop
  endfacet
  facet normal 4.565055e-01 -7.177277e-01 -5.258038e-01
    outer loop
      vertex   -1.479156e+02 9.494285e+01 1.991974e+02
      vertex   -1.473948e+02 9.581190e+01 1.984633e+02
      vertex   -1.471135e+02 9.581186e+01 1.987075e+02
    endloop
  endfacet
  facet normal 5.503111e-01 -7.177412e-01 -4.266207e-01
    outer loop
      vertex   -1.477675e+02 9.494283e+01 1.993259e+02
      vertex   -1.471135e+02 9.581186e+01 1.987075e+02
      vertex   -1.468854e+02 9.581183e+01 1.990019e+02
    endloop
  endfacet
  facet normal 6.229646e-01 -7.177517e-01 -3.110428e-01
    outer loop
      vertex   -1.476474e+02 9.494282e+01 1.994809e+02
      vertex   -1.468854e+02 9.581183e+01 1.990019e+02
      vertex   -1.475599e+02 9.494280e+01 1.996563e+02
    endloop
  endfacet
  facet normal 5.503111e-01 -7.177412e-01 -4.266207e-01
    outer loop
      vertex   -1.476474e+02 9.494282e+01 1.994809e+02
      vertex   -1.477675e+02 9.494283e+01 1.993259e+02
      vertex   -1.468854e+02 9.581183e+01 1.990019e+02
    endloop
  endfacet
  facet normal 6.229646e-01 -7.177517e-01 -3.110428e-01
    outer loop
      vertex   -1.468854e+02 9.581183e+01 1.990019e+02
      vertex   -1.467190e+02 9.581180e+01 1.993352e+02
      vertex   -1.475599e+02 9.494280e+01 1.996563e+02
    endloop
  endfacet
  facet normal 6.716740e-01 -7.177587e-01 -1.835117e-01
    outer loop
      vertex   -1.475599e+02 9.494280e+01 1.996563e+02
      vertex   -1.467190e+02 9.581180e+01 1.993352e+02
      vertex   -1.466209e+02 9.581179e+01 1.996945e+02
    endloop
  endfacet
  facet normal 6.945673e-01 -7.177620e-01 -4.892830e-02
    outer loop
      vertex   -1.475082e+02 9.494280e+01 1.998454e+02
      vertex   -1.466209e+02 9.581179e+01 1.996945e+02
      vertex   -1.465947e+02 9.581178e+01 2.000660e+02
    endloop
  endfacet
  facet normal 6.907649e-01 -7.177614e-01 8.753534e-02
    outer loop
      vertex   -1.474945e+02 9.494279e+01 2.000409e+02
      vertex   -1.465947e+02 9.581178e+01 2.000660e+02
      vertex   -1.466415e+02 9.581179e+01 2.004355e+02
    endloop
  endfacet
  facet normal 6.604128e-01 -7.177570e-01 2.206351e-01
    outer loop
      vertex   -1.475191e+02 9.494280e+01 2.002354e+02
      vertex   -1.466415e+02 9.581179e+01 2.004355e+02
      vertex   -1.467595e+02 9.581181e+01 2.007888e+02
    endloop
  endfacet
  facet normal 6.046774e-01 -7.177490e-01 3.452559e-01
    outer loop
      vertex   -1.475812e+02 9.494281e+01 2.004214e+02
      vertex   -1.467595e+02 9.581181e+01 2.007888e+02
      vertex   -1.476784e+02 9.494282e+01 2.005916e+02
    endloop
  endfacet
  facet normal 6.604128e-01 -7.177570e-01 2.206351e-01
    outer loop
      vertex   -1.475812e+02 9.494281e+01 2.004214e+02
      vertex   -1.475191e+02 9.494280e+01 2.002354e+02
      vertex   -1.467595e+02 9.581181e+01 2.007888e+02
    endloop
  endfacet
  facet normal 6.046774e-01 -7.177490e-01 3.452559e-01
    outer loop
      vertex   -1.467595e+02 9.581181e+01 2.007888e+02
      vertex   -1.469442e+02 9.581183e+01 2.011123e+02
      vertex   -1.476784e+02 9.494282e+01 2.005916e+02
    endloop
  endfacet
  facet normal 6.907649e-01 -7.177614e-01 8.753534e-02
    outer loop
      vertex   -1.475191e+02 9.494280e+01 2.002354e+02
      vertex   -1.474945e+02 9.494279e+01 2.000409e+02
      vertex   -1.466415e+02 9.581179e+01 2.004355e+02
    endloop
  endfacet
  facet normal 6.945673e-01 -7.177620e-01 -4.892830e-02
    outer loop
      vertex   -1.474945e+02 9.494279e+01 2.000409e+02
      vertex   -1.475082e+02 9.494280e+01 1.998454e+02
      vertex   -1.465947e+02 9.581178e+01 2.000660e+02
    endloop
  endfacet
  facet normal 6.716740e-01 -7.177587e-01 -1.835117e-01
    outer loop
      vertex   -1.475082e+02 9.494280e+01 1.998454e+02
      vertex   -1.475599e+02 9.494280e+01 1.996563e+02
      vertex   -1.466209e+02 9.581179e+01 1.996945e+02
    endloop
  endfacet
  facet normal 4.565055e-01 -7.177277e-01 -5.258038e-01
    outer loop
      vertex   -1.477675e+02 9.494283e+01 1.993259e+02
      vertex   -1.479156e+02 9.494285e+01 1.991974e+02
      vertex   -1.471135e+02 9.581186e+01 1.987075e+02
    endloop
  endfacet
  facet normal 3.451527e-01 -7.177117e-01 -6.047806e-01
    outer loop
      vertex   -1.479156e+02 9.494285e+01 1.991974e+02
      vertex   -1.480858e+02 9.494288e+01 1.991002e+02
      vertex   -1.473948e+02 9.581190e+01 1.984633e+02
    endloop
  endfacet
  facet normal 2.205319e-01 -7.176938e-01 -6.605160e-01
    outer loop
      vertex   -1.480858e+02 9.494288e+01 1.991002e+02
      vertex   -1.482717e+02 9.494291e+01 1.990381e+02
      vertex   -1.477182e+02 9.581195e+01 1.982786e+02
    endloop
  endfacet
  facet normal -1.836149e-01 -7.176357e-01 -6.717772e-01
    outer loop
      vertex   -1.486618e+02 9.494296e+01 1.990272e+02
      vertex   -1.488509e+02 9.494299e+01 1.990789e+02
      vertex   -1.488126e+02 9.581210e+01 1.981400e+02
    endloop
  endfacet
  facet normal 8.684491e-01 -1.248793e-04 4.957784e-01
    outer loop
      vertex   -1.469441e+02 9.621271e+01 2.011123e+02
      vertex   -1.469442e+02 9.581183e+01 2.011123e+02
      vertex   -1.467595e+02 9.621269e+01 2.007888e+02
    endloop
  endfacet
  facet normal 8.684491e-01 -1.248793e-04 4.957784e-01
    outer loop
      vertex   -1.467595e+02 9.621269e+01 2.007888e+02
      vertex   -1.469442e+02 9.581183e+01 2.011123e+02
      vertex   -1.467595e+02 9.581181e+01 2.007888e+02
    endloop
  endfacet
  facet normal 9.484836e-01 -1.363879e-04 3.168262e-01
    outer loop
      vertex   -1.466415e+02 9.581179e+01 2.004355e+02
      vertex   -1.467595e+02 9.621269e+01 2.007888e+02
      vertex   -1.467595e+02 9.581181e+01 2.007888e+02
    endloop
  endfacet
  facet normal 9.484836e-01 -1.363879e-04 3.168262e-01
    outer loop
      vertex   -1.466415e+02 9.581179e+01 2.004355e+02
      vertex   -1.466414e+02 9.621267e+01 2.004355e+02
      vertex   -1.467595e+02 9.621269e+01 2.007888e+02
    endloop
  endfacet
  facet normal 9.920685e-01 -1.426552e-04 1.256985e-01
    outer loop
      vertex   -1.466415e+02 9.581179e+01 2.004355e+02
      vertex   -1.465947e+02 9.581178e+01 2.000660e+02
      vertex   -1.466414e+02 9.621267e+01 2.004355e+02
    endloop
  endfacet
  facet normal 9.920685e-01 -1.426552e-04 1.256985e-01
    outer loop
      vertex   -1.466414e+02 9.621267e+01 2.004355e+02
      vertex   -1.465947e+02 9.581178e+01 2.000660e+02
      vertex   -1.465946e+02 9.621266e+01 2.000660e+02
    endloop
  endfacet
  facet normal 9.975287e-01 -1.434404e-04 -7.025976e-02
    outer loop
      vertex   -1.465946e+02 9.621266e+01 2.000660e+02
      vertex   -1.465947e+02 9.581178e+01 2.000660e+02
      vertex   -1.466209e+02 9.581179e+01 1.996945e+02
    endloop
  endfacet
  facet normal 9.646545e-01 -1.387132e-04 -2.635179e-01
    outer loop
      vertex   -1.466208e+02 9.621267e+01 1.996945e+02
      vertex   -1.466209e+02 9.581179e+01 1.996945e+02
      vertex   -1.467190e+02 9.581180e+01 1.993352e+02
    endloop
  endfacet
  facet normal 8.947091e-01 -1.286554e-04 -4.466493e-01
    outer loop
      vertex   -1.467189e+02 9.621268e+01 1.993352e+02
      vertex   -1.467190e+02 9.581180e+01 1.993352e+02
      vertex   -1.468853e+02 9.621271e+01 1.990019e+02
    endloop
  endfacet
  facet normal 9.646545e-01 -1.387132e-04 -2.635179e-01
    outer loop
      vertex   -1.467189e+02 9.621268e+01 1.993352e+02
      vertex   -1.466208e+02 9.621267e+01 1.996945e+02
      vertex   -1.467190e+02 9.581180e+01 1.993352e+02
    endloop
  endfacet
  facet normal 8.947091e-01 -1.286554e-04 -4.466493e-01
    outer loop
      vertex   -1.467190e+02 9.581180e+01 1.993352e+02
      vertex   -1.468854e+02 9.581183e+01 1.990019e+02
      vertex   -1.468853e+02 9.621271e+01 1.990019e+02
    endloop
  endfacet
  facet normal 7.903806e-01 -1.136534e-04 -6.126161e-01
    outer loop
      vertex   -1.468853e+02 9.621271e+01 1.990019e+02
      vertex   -1.468854e+02 9.581183e+01 1.990019e+02
      vertex   -1.471135e+02 9.581186e+01 1.987075e+02
    endloop
  endfacet
  facet normal 6.556782e-01 -9.428372e-05 -7.550405e-01
    outer loop
      vertex   -1.471135e+02 9.621274e+01 1.987075e+02
      vertex   -1.471135e+02 9.581186e+01 1.987075e+02
      vertex   -1.473948e+02 9.581190e+01 1.984633e+02
    endloop
  endfacet
  facet normal 4.957784e-01 -7.129082e-05 -8.684491e-01
    outer loop
      vertex   -1.473947e+02 9.621278e+01 1.984633e+02
      vertex   -1.473948e+02 9.581190e+01 1.984633e+02
      vertex   -1.477182e+02 9.581195e+01 1.982786e+02
    endloop
  endfacet
  facet normal 3.168262e-01 -4.555825e-05 -9.484836e-01
    outer loop
      vertex   -1.477182e+02 9.621283e+01 1.982786e+02
      vertex   -1.477182e+02 9.581195e+01 1.982786e+02
      vertex   -1.480715e+02 9.581200e+01 1.981606e+02
    endloop
  endfacet
  facet normal 1.256985e-01 -1.807490e-05 -9.920685e-01
    outer loop
      vertex   -1.480715e+02 9.621288e+01 1.981606e+02
      vertex   -1.480715e+02 9.581200e+01 1.981606e+02
      vertex   -1.484410e+02 9.621293e+01 1.981138e+02
    endloop
  endfacet
  facet normal 3.168262e-01 -4.555825e-05 -9.484836e-01
    outer loop
      vertex   -1.480715e+02 9.621288e+01 1.981606e+02
      vertex   -1.477182e+02 9.621283e+01 1.982786e+02
      vertex   -1.480715e+02 9.581200e+01 1.981606e+02
    endloop
  endfacet
  facet normal 1.256985e-01 -1.807490e-05 -9.920685e-01
    outer loop
      vertex   -1.480715e+02 9.581200e+01 1.981606e+02
      vertex   -1.484410e+02 9.581205e+01 1.981138e+02
      vertex   -1.484410e+02 9.621293e+01 1.981138e+02
    endloop
  endfacet
  facet normal -7.025976e-02 1.010305e-05 -9.975287e-01
    outer loop
      vertex   -1.484410e+02 9.621293e+01 1.981138e+02
      vertex   -1.484410e+02 9.581205e+01 1.981138e+02
      vertex   -1.488126e+02 9.581210e+01 1.981400e+02
    endloop
  endfacet
  facet normal -2.635179e-01 3.789276e-05 -9.646545e-01
    outer loop
      vertex   -1.488125e+02 9.621298e+01 1.981400e+02
      vertex   -1.488126e+02 9.581210e+01 1.981400e+02
      vertex   -1.491719e+02 9.581215e+01 1.982381e+02
    endloop
  endfacet
  facet normal -4.466493e-01 6.422626e-05 -8.947091e-01
    outer loop
      vertex   -1.491718e+02 9.621303e+01 1.982381e+02
      vertex   -1.491719e+02 9.581215e+01 1.982381e+02
      vertex   -1.495051e+02 9.581220e+01 1.984045e+02
    endloop
  endfacet
  facet normal -6.126161e-01 8.809158e-05 -7.903806e-01
    outer loop
      vertex   -1.495051e+02 9.621308e+01 1.984045e+02
      vertex   -1.495051e+02 9.581220e+01 1.984045e+02
      vertex   -1.497995e+02 9.581224e+01 1.986327e+02
    endloop
  endfacet
  facet normal -7.550405e-01 1.085716e-04 -6.556782e-01
    outer loop
      vertex   -1.497994e+02 9.621312e+01 1.986327e+02
      vertex   -1.497995e+02 9.581224e+01 1.986327e+02
      vertex   -1.500437e+02 9.621316e+01 1.989139e+02
    endloop
  endfacet
  facet normal -6.126161e-01 8.809158e-05 -7.903806e-01
    outer loop
      vertex   -1.497994e+02 9.621312e+01 1.986327e+02
      vertex   -1.495051e+02 9.621308e+01 1.984045e+02
      vertex   -1.497995e+02 9.581224e+01 1.986327e+02
    endloop
  endfacet
  facet normal -7.550405e-01 1.085716e-04 -6.556782e-01
    outer loop
      vertex   -1.497995e+02 9.581224e+01 1.986327e+02
      vertex   -1.500437e+02 9.581228e+01 1.989139e+02
      vertex   -1.500437e+02 9.621316e+01 1.989139e+02
    endloop
  endfacet
  facet normal -4.466493e-01 6.422626e-05 -8.947091e-01
    outer loop
      vertex   -1.495051e+02 9.621308e+01 1.984045e+02
      vertex   -1.491718e+02 9.621303e+01 1.982381e+02
      vertex   -1.495051e+02 9.581220e+01 1.984045e+02
    endloop
  endfacet
  facet normal -2.635179e-01 3.789276e-05 -9.646545e-01
    outer loop
      vertex   -1.491718e+02 9.621303e+01 1.982381e+02
      vertex   -1.488125e+02 9.621298e+01 1.981400e+02
      vertex   -1.491719e+02 9.581215e+01 1.982381e+02
    endloop
  endfacet
  facet normal -7.025976e-02 1.010305e-05 -9.975287e-01
    outer loop
      vertex   -1.488125e+02 9.621298e+01 1.981400e+02
      vertex   -1.484410e+02 9.621293e+01 1.981138e+02
      vertex   -1.488126e+02 9.581210e+01 1.981400e+02
    endloop
  endfacet
  facet normal 4.957784e-01 -7.129082e-05 -8.684491e-01
    outer loop
      vertex   -1.477182e+02 9.621283e+01 1.982786e+02
      vertex   -1.473947e+02 9.621278e+01 1.984633e+02
      vertex   -1.477182e+02 9.581195e+01 1.982786e+02
    endloop
  endfacet
  facet normal 6.556782e-01 -9.428372e-05 -7.550405e-01
    outer loop
      vertex   -1.473947e+02 9.621278e+01 1.984633e+02
      vertex   -1.471135e+02 9.621274e+01 1.987075e+02
      vertex   -1.473948e+02 9.581190e+01 1.984633e+02
    endloop
  endfacet
  facet normal 7.903806e-01 -1.136534e-04 -6.126161e-01
    outer loop
      vertex   -1.471135e+02 9.621274e+01 1.987075e+02
      vertex   -1.468853e+02 9.621271e+01 1.990019e+02
      vertex   -1.471135e+02 9.581186e+01 1.987075e+02
    endloop
  endfacet
  facet normal 9.975287e-01 -1.434404e-04 -7.025976e-02
    outer loop
      vertex   -1.466208e+02 9.621267e+01 1.996945e+02
      vertex   -1.465946e+02 9.621266e+01 2.000660e+02
      vertex   -1.466209e+02 9.581179e+01 1.996945e+02
    endloop
  endfacet
  facet normal 8.684491e-01 -1.248793e-04 4.957784e-01
    outer loop
      vertex   -1.476784e+02 9.494282e+01 2.005916e+02
      vertex   -1.476790e+02 9.101282e+01 2.005916e+02
      vertex   -1.475812e+02 9.494281e+01 2.004214e+02
    endloop
  endfacet
  facet normal 8.684491e-01 -1.248793e-04 4.957784e-01
    outer loop
      vertex   -1.475812e+02 9.494281e+01 2.004214e+02
      vertex   -1.476790e+02 9.101282e+01 2.005916e+02
      vertex   -1.475818e+02 9.101281e+01 2.004214e+02
    endloop
  endfacet
  facet normal 9.484836e-01 -1.363879e-04 3.168262e-01
    outer loop
      vertex   -1.475197e+02 9.101280e+01 2.002354e+02
      vertex   -1.475812e+02 9.494281e+01 2.004214e+02
      vertex   -1.475818e+02 9.101281e+01 2.004214e+02
    endloop
  endfacet
  facet normal 9.484836e-01 -1.363879e-04 3.168262e-01
    outer loop
      vertex   -1.475197e+02 9.101280e+01 2.002354e+02
      vertex   -1.475191e+02 9.494280e+01 2.002354e+02
      vertex   -1.475812e+02 9.494281e+01 2.004214e+02
    endloop
  endfacet
  facet normal 9.920685e-01 -1.426552e-04 1.256985e-01
    outer loop
      vertex   -1.475197e+02 9.101280e+01 2.002354e+02
      vertex   -1.474950e+02 9.101279e+01 2.000409e+02
      vertex   -1.475191e+02 9.494280e+01 2.002354e+02
    endloop
  endfacet
  facet normal 9.920685e-01 -1.426552e-04 1.256985e-01
    outer loop
      vertex   -1.475191e+02 9.494280e+01 2.002354e+02
      vertex   -1.474950e+02 9.101279e+01 2.000409e+02
      vertex   -1.474945e+02 9.494279e+01 2.000409e+02
    endloop
  endfacet
  facet normal 9.975287e-01 -1.434404e-04 -7.025976e-02
    outer loop
      vertex   -1.474945e+02 9.494279e+01 2.000409e+02
      vertex   -1.474950e+02 9.101279e+01 2.000409e+02
      vertex   -1.475088e+02 9.101280e+01 1.998454e+02
    endloop
  endfacet
  facet normal 9.646545e-01 -1.387132e-04 -2.635179e-01
    outer loop
      vertex   -1.475082e+02 9.494280e+01 1.998454e+02
      vertex   -1.475088e+02 9.101280e+01 1.998454e+02
      vertex   -1.475605e+02 9.101280e+01 1.996563e+02
    endloop
  endfacet
  facet normal 8.947091e-01 -1.286554e-04 -4.466493e-01
    outer loop
      vertex   -1.475599e+02 9.494280e+01 1.996563e+02
      vertex   -1.475605e+02 9.101280e+01 1.996563e+02
      vertex   -1.476474e+02 9.494282e+01 1.994809e+02
    endloop
  endfacet
  facet normal 9.646545e-01 -1.387132e-04 -2.635179e-01
    outer loop
      vertex   -1.475599e+02 9.494280e+01 1.996563e+02
      vertex   -1.475082e+02 9.494280e+01 1.998454e+02
      vertex   -1.475605e+02 9.101280e+01 1.996563e+02
    endloop
  endfacet
  facet normal 8.947091e-01 -1.286554e-04 -4.466493e-01
    outer loop
      vertex   -1.475605e+02 9.101280e+01 1.996563e+02
      vertex   -1.476480e+02 9.101282e+01 1.994809e+02
      vertex   -1.476474e+02 9.494282e+01 1.994809e+02
    endloop
  endfacet
  facet normal 7.903806e-01 -1.136534e-04 -6.126161e-01
    outer loop
      vertex   -1.476474e+02 9.494282e+01 1.994809e+02
      vertex   -1.476480e+02 9.101282e+01 1.994809e+02
      vertex   -1.477681e+02 9.101283e+01 1.993259e+02
    endloop
  endfacet
  facet normal 6.556782e-01 -9.428372e-05 -7.550405e-01
    outer loop
      vertex   -1.477675e+02 9.494283e+01 1.993259e+02
      vertex   -1.477681e+02 9.101283e+01 1.993259e+02
      vertex   -1.479161e+02 9.101285e+01 1.991974e+02
    endloop
  endfacet
  facet normal 4.957784e-01 -7.129082e-05 -8.684491e-01
    outer loop
      vertex   -1.479156e+02 9.494285e+01 1.991974e+02
      vertex   -1.479161e+02 9.101285e+01 1.991974e+02
      vertex   -1.480864e+02 9.101288e+01 1.991002e+02
    endloop
  endfacet
  facet normal 3.168262e-01 -4.555825e-05 -9.484836e-01
    outer loop
      vertex   -1.480858e+02 9.494288e+01 1.991002e+02
      vertex   -1.480864e+02 9.101288e+01 1.991002e+02
      vertex   -1.482723e+02 9.101291e+01 1.990381e+02
    endloop
  endfacet
  facet normal 1.256985e-01 -1.807490e-05 -9.920685e-01
    outer loop
      vertex   -1.482717e+02 9.494291e+01 1.990381e+02
      vertex   -1.482723e+02 9.101291e+01 1.990381e+02
      vertex   -1.484662e+02 9.494293e+01 1.990135e+02
    endloop
  endfacet
  facet normal 3.168262e-01 -4.555825e-05 -9.484836e-01
    outer loop
      vertex   -1.482717e+02 9.494291e+01 1.990381e+02
      vertex   -1.480858e+02 9.494288e+01 1.991002e+02
      vertex   -1.482723e+02 9.101291e+01 1.990381e+02
    endloop
  endfacet
  facet normal 1.256985e-01 -1.807490e-05 -9.920685e-01
    outer loop
      vertex   -1.482723e+02 9.101291e+01 1.990381e+02
      vertex   -1.484668e+02 9.101293e+01 1.990135e+02
      vertex   -1.484662e+02 9.494293e+01 1.990135e+02
    endloop
  endfacet
  facet normal -7.025976e-02 1.010305e-05 -9.975287e-01
    outer loop
      vertex   -1.484662e+02 9.494293e+01 1.990135e+02
      vertex   -1.484668e+02 9.101293e+01 1.990135e+02
      vertex   -1.486623e+02 9.101296e+01 1.990272e+02
    endloop
  endfacet
  facet normal -2.635179e-01 3.789276e-05 -9.646545e-01
    outer loop
      vertex   -1.486618e+02 9.494296e+01 1.990272e+02
      vertex   -1.486623e+02 9.101296e+01 1.990272e+02
      vertex   -1.488514e+02 9.101299e+01 1.990789e+02
    endloop
  endfacet
  facet normal -4.466493e-01 6.422626e-05 -8.947091e-01
    outer loop
      vertex   -1.488509e+02 9.494299e+01 1.990789e+02
      vertex   -1.488514e+02 9.101299e+01 1.990789e+02
      vertex   -1.490268e+02 9.101301e+01 1.991665e+02
    endloop
  endfacet
  facet normal -6.126161e-01 8.809158e-05 -7.903806e-01
    outer loop
      vertex   -1.490263e+02 9.494301e+01 1.991665e+02
      vertex   -1.490268e+02 9.101301e+01 1.991665e+02
      vertex   -1.491818e+02 9.101304e+01 1.992866e+02
    endloop
  endfacet
  facet normal -7.550405e-01 1.085716e-04 -6.556782e-01
    outer loop
      vertex   -1.491812e+02 9.494304e+01 1.992866e+02
      vertex   -1.491818e+02 9.101304e+01 1.992866e+02
      vertex   -1.493097e+02 9.494305e+01 1.994346e+02
    endloop
  endfacet
  facet normal -6.126161e-01 8.809158e-05 -7.903806e-01
    outer loop
      vertex   -1.491812e+02 9.494304e+01 1.992866e+02
      vertex   -1.490263e+02 9.494301e+01 1.991665e+02
      vertex   -1.491818e+02 9.101304e+01 1.992866e+02
    endloop
  endfacet
  facet normal -7.550405e-01 1.085716e-04 -6.556782e-01
    outer loop
      vertex   -1.491818e+02 9.101304e+01 1.992866e+02
      vertex   -1.493103e+02 9.101305e+01 1.994346e+02
      vertex   -1.493097e+02 9.494305e+01 1.994346e+02
    endloop
  endfacet
  facet normal -4.466493e-01 6.422626e-05 -8.947091e-01
    outer loop
      vertex   -1.490263e+02 9.494301e+01 1.991665e+02
      vertex   -1.488509e+02 9.494299e+01 1.990789e+02
      vertex   -1.490268e+02 9.101301e+01 1.991665e+02
    endloop
  endfacet
  facet normal -2.635179e-01 3.789276e-05 -9.646545e-01
    outer loop
      vertex   -1.488509e+02 9.494299e+01 1.990789e+02
      vertex   -1.486618e+02 9.494296e+01 1.990272e+02
      vertex   -1.488514e+02 9.101299e+01 1.990789e+02
    endloop
  endfacet
  facet normal -7.025976e-02 1.010305e-05 -9.975287e-01
    outer loop
      vertex   -1.486618e+02 9.494296e+01 1.990272e+02
      vertex   -1.484662e+02 9.494293e+01 1.990135e+02
      vertex   -1.486623e+02 9.101296e+01 1.990272e+02
    endloop
  endfacet
  facet normal 4.957784e-01 -7.129082e-05 -8.684491e-01
    outer loop
      vertex   -1.480858e+02 9.494288e+01 1.991002e+02
      vertex   -1.479156e+02 9.494285e+01 1.991974e+02
      vertex   -1.480864e+02 9.101288e+01 1.991002e+02
    endloop
  endfacet
  facet normal 6.556782e-01 -9.428372e-05 -7.550405e-01
    outer loop
      vertex   -1.479156e+02 9.494285e+01 1.991974e+02
      vertex   -1.477675e+02 9.494283e+01 1.993259e+02
      vertex   -1.479161e+02 9.101285e+01 1.991974e+02
    endloop
  endfacet
  facet normal 7.903806e-01 -1.136534e-04 -6.126161e-01
    outer loop
      vertex   -1.477675e+02 9.494283e+01 1.993259e+02
      vertex   -1.476474e+02 9.494282e+01 1.994809e+02
      vertex   -1.477681e+02 9.101283e+01 1.993259e+02
    endloop
  endfacet
  facet normal 9.975287e-01 -1.434404e-04 -7.025976e-02
    outer loop
      vertex   -1.475082e+02 9.494280e+01 1.998454e+02
      vertex   -1.474945e+02 9.494279e+01 2.000409e+02
      vertex   -1.475088e+02 9.101280e+01 1.998454e+02
    endloop
  endfacet
endsolid
