solid ascii
  facet normal 3.321964e-01 7.053504e-01 6.261999e-01
    outer loop
      vertex   -1.215078e+02 1.017091e+02 2.514662e+02
      vertex   -1.217841e+02 1.022091e+02 2.510496e+02
      vertex   -1.220273e+02 1.017091e+02 2.517418e+02
    endloop
  endfacet
  facet normal 3.321964e-01 7.053504e-01 6.261999e-01
    outer loop
      vertex   -1.220273e+02 1.017091e+02 2.517418e+02
      vertex   -1.217841e+02 1.022091e+02 2.510496e+02
      vertex   -1.222171e+02 1.022092e+02 2.512792e+02
    endloop
  endfacet
  facet normal 2.036498e-01 7.053689e-01 6.789562e-01
    outer loop
      vertex   -1.226865e+02 1.022092e+02 2.514199e+02
      vertex   -1.220273e+02 1.017091e+02 2.517418e+02
      vertex   -1.222171e+02 1.022092e+02 2.512792e+02
    endloop
  endfacet
  facet normal 2.036498e-01 7.053689e-01 6.789562e-01
    outer loop
      vertex   -1.226865e+02 1.022092e+02 2.514199e+02
      vertex   -1.225907e+02 1.017092e+02 2.519106e+02
      vertex   -1.220273e+02 1.017091e+02 2.517418e+02
    endloop
  endfacet
  facet normal 6.728089e-02 7.053885e-01 7.056205e-01
    outer loop
      vertex   -1.226865e+02 1.022092e+02 2.514199e+02
      vertex   -1.231744e+02 1.022093e+02 2.514664e+02
      vertex   -1.225907e+02 1.017092e+02 2.519106e+02
    endloop
  endfacet
  facet normal 6.728089e-02 7.053885e-01 7.056205e-01
    outer loop
      vertex   -1.225907e+02 1.017092e+02 2.519106e+02
      vertex   -1.231744e+02 1.022093e+02 2.514664e+02
      vertex   -1.231761e+02 1.017093e+02 2.519664e+02
    endloop
  endfacet
  facet normal -7.166968e-02 7.054085e-01 7.051683e-01
    outer loop
      vertex   -1.231761e+02 1.017093e+02 2.519664e+02
      vertex   -1.231744e+02 1.022093e+02 2.514664e+02
      vertex   -1.236620e+02 1.022094e+02 2.514168e+02
    endloop
  endfacet
  facet normal -2.078621e-01 7.054281e-01 6.776168e-01
    outer loop
      vertex   -1.237612e+02 1.017094e+02 2.519068e+02
      vertex   -1.236620e+02 1.022094e+02 2.514168e+02
      vertex   -1.241305e+02 1.022094e+02 2.512730e+02
    endloop
  endfacet
  facet normal -3.360627e-01 7.054465e-01 6.240249e-01
    outer loop
      vertex   -1.243234e+02 1.017095e+02 2.517343e+02
      vertex   -1.241305e+02 1.022094e+02 2.512730e+02
      vertex   -1.248412e+02 1.017095e+02 2.514554e+02
    endloop
  endfacet
  facet normal -2.078621e-01 7.054281e-01 6.776168e-01
    outer loop
      vertex   -1.243234e+02 1.017095e+02 2.517343e+02
      vertex   -1.237612e+02 1.017094e+02 2.519068e+02
      vertex   -1.241305e+02 1.022094e+02 2.512730e+02
    endloop
  endfacet
  facet normal -3.360627e-01 7.054465e-01 6.240249e-01
    outer loop
      vertex   -1.241305e+02 1.022094e+02 2.512730e+02
      vertex   -1.245620e+02 1.022095e+02 2.510405e+02
      vertex   -1.248412e+02 1.017095e+02 2.514554e+02
    endloop
  endfacet
  facet normal -4.513446e-01 7.054631e-01 5.464521e-01
    outer loop
      vertex   -1.248412e+02 1.017095e+02 2.514554e+02
      vertex   -1.245620e+02 1.022095e+02 2.510405e+02
      vertex   -1.249398e+02 1.022096e+02 2.507284e+02
    endloop
  endfacet
  facet normal -5.492777e-01 7.054772e-01 4.478794e-01
    outer loop
      vertex   -1.252946e+02 1.017096e+02 2.510808e+02
      vertex   -1.249398e+02 1.022096e+02 2.507284e+02
      vertex   -1.252495e+02 1.022096e+02 2.503485e+02
    endloop
  endfacet
  facet normal -6.260985e-01 7.054882e-01 3.320950e-01
    outer loop
      vertex   -1.256662e+02 1.017097e+02 2.506250e+02
      vertex   -1.252495e+02 1.022096e+02 2.503485e+02
      vertex   -1.254791e+02 1.022096e+02 2.499156e+02
    endloop
  endfacet
  facet normal -6.788547e-01 7.054958e-01 2.035484e-01
    outer loop
      vertex   -1.259417e+02 1.017097e+02 2.501054e+02
      vertex   -1.254791e+02 1.022096e+02 2.499156e+02
      vertex   -1.256198e+02 1.022096e+02 2.494461e+02
    endloop
  endfacet
  facet normal -7.055191e-01 7.054996e-01 6.717946e-02
    outer loop
      vertex   -1.261106e+02 1.017097e+02 2.495421e+02
      vertex   -1.256198e+02 1.022096e+02 2.494461e+02
      vertex   -1.261663e+02 1.017097e+02 2.489566e+02
    endloop
  endfacet
  facet normal -6.788547e-01 7.054958e-01 2.035484e-01
    outer loop
      vertex   -1.261106e+02 1.017097e+02 2.495421e+02
      vertex   -1.259417e+02 1.017097e+02 2.501054e+02
      vertex   -1.256198e+02 1.022096e+02 2.494461e+02
    endloop
  endfacet
  facet normal -7.055191e-01 7.054996e-01 6.717946e-02
    outer loop
      vertex   -1.256198e+02 1.022096e+02 2.494461e+02
      vertex   -1.256663e+02 1.022097e+02 2.489583e+02
      vertex   -1.261663e+02 1.017097e+02 2.489566e+02
    endloop
  endfacet
  facet normal -7.050669e-01 7.054996e-01 -7.177112e-02
    outer loop
      vertex   -1.261663e+02 1.017097e+02 2.489566e+02
      vertex   -1.256663e+02 1.022097e+02 2.489583e+02
      vertex   -1.256166e+02 1.022096e+02 2.484707e+02
    endloop
  endfacet
  facet normal -6.775154e-01 7.054956e-01 -2.079636e-01
    outer loop
      vertex   -1.261068e+02 1.017097e+02 2.483715e+02
      vertex   -1.256166e+02 1.022096e+02 2.484707e+02
      vertex   -1.254729e+02 1.022096e+02 2.480022e+02
    endloop
  endfacet
  facet normal -6.239235e-01 7.054879e-01 -3.361641e-01
    outer loop
      vertex   -1.259342e+02 1.017097e+02 2.478093e+02
      vertex   -1.254729e+02 1.022096e+02 2.480022e+02
      vertex   -1.252404e+02 1.022096e+02 2.475707e+02
    endloop
  endfacet
  facet normal -5.463507e-01 7.054767e-01 -4.514460e-01
    outer loop
      vertex   -1.256553e+02 1.017097e+02 2.472916e+02
      vertex   -1.252404e+02 1.022096e+02 2.475707e+02
      vertex   -1.249283e+02 1.022095e+02 2.471929e+02
    endloop
  endfacet
  facet normal -4.477780e-01 7.054626e-01 -5.493791e-01
    outer loop
      vertex   -1.252808e+02 1.017096e+02 2.468382e+02
      vertex   -1.249283e+02 1.022095e+02 2.471929e+02
      vertex   -1.248249e+02 1.017095e+02 2.464666e+02
    endloop
  endfacet
  facet normal -5.463507e-01 7.054767e-01 -4.514460e-01
    outer loop
      vertex   -1.252808e+02 1.017096e+02 2.468382e+02
      vertex   -1.256553e+02 1.017097e+02 2.472916e+02
      vertex   -1.249283e+02 1.022095e+02 2.471929e+02
    endloop
  endfacet
  facet normal -4.477780e-01 7.054626e-01 -5.493791e-01
    outer loop
      vertex   -1.249283e+02 1.022095e+02 2.471929e+02
      vertex   -1.245484e+02 1.022095e+02 2.468832e+02
      vertex   -1.248249e+02 1.017095e+02 2.464666e+02
    endloop
  endfacet
  facet normal -6.239235e-01 7.054879e-01 -3.361641e-01
    outer loop
      vertex   -1.256553e+02 1.017097e+02 2.472916e+02
      vertex   -1.259342e+02 1.017097e+02 2.478093e+02
      vertex   -1.252404e+02 1.022096e+02 2.475707e+02
    endloop
  endfacet
  facet normal -6.775154e-01 7.054956e-01 -2.079636e-01
    outer loop
      vertex   -1.259342e+02 1.017097e+02 2.478093e+02
      vertex   -1.261068e+02 1.017097e+02 2.483715e+02
      vertex   -1.254729e+02 1.022096e+02 2.480022e+02
    endloop
  endfacet
  facet normal -7.050669e-01 7.054996e-01 -7.177112e-02
    outer loop
      vertex   -1.261068e+02 1.017097e+02 2.483715e+02
      vertex   -1.261663e+02 1.017097e+02 2.489566e+02
      vertex   -1.256166e+02 1.022096e+02 2.484707e+02
    endloop
  endfacet
  facet normal -6.260985e-01 7.054882e-01 3.320950e-01
    outer loop
      vertex   -1.259417e+02 1.017097e+02 2.501054e+02
      vertex   -1.256662e+02 1.017097e+02 2.506250e+02
      vertex   -1.254791e+02 1.022096e+02 2.499156e+02
    endloop
  endfacet
  facet normal -5.492777e-01 7.054772e-01 4.478794e-01
    outer loop
      vertex   -1.256662e+02 1.017097e+02 2.506250e+02
      vertex   -1.252946e+02 1.017096e+02 2.510808e+02
      vertex   -1.252495e+02 1.022096e+02 2.503485e+02
    endloop
  endfacet
  facet normal -4.513446e-01 7.054631e-01 5.464521e-01
    outer loop
      vertex   -1.252946e+02 1.017096e+02 2.510808e+02
      vertex   -1.248412e+02 1.017095e+02 2.514554e+02
      vertex   -1.249398e+02 1.022096e+02 2.507284e+02
    endloop
  endfacet
  facet normal -7.166968e-02 7.054085e-01 7.051683e-01
    outer loop
      vertex   -1.237612e+02 1.017094e+02 2.519068e+02
      vertex   -1.231761e+02 1.017093e+02 2.519664e+02
      vertex   -1.236620e+02 1.022094e+02 2.514168e+02
    endloop
  endfacet
  facet normal 1.437957e-04 1.000000e+00 2.306706e-13
    outer loop
      vertex   -1.245484e+02 1.022095e+02 2.468832e+02
      vertex   -1.249283e+02 1.022095e+02 2.471929e+02
      vertex   -1.241155e+02 1.022094e+02 2.466536e+02
    endloop
  endfacet
  facet normal 1.437957e-04 1.000000e+00 3.435774e-13
    outer loop
      vertex   -1.241155e+02 1.022094e+02 2.466536e+02
      vertex   -1.249283e+02 1.022095e+02 2.471929e+02
      vertex   -1.236460e+02 1.022094e+02 2.465129e+02
    endloop
  endfacet
  facet normal 1.437957e-04 1.000000e+00 2.401389e-13
    outer loop
      vertex   -1.236460e+02 1.022094e+02 2.465129e+02
      vertex   -1.249283e+02 1.022095e+02 2.471929e+02
      vertex   -1.252404e+02 1.022096e+02 2.475707e+02
    endloop
  endfacet
  facet normal 1.437957e-04 1.000000e+00 3.072297e-13
    outer loop
      vertex   -1.231581e+02 1.022093e+02 2.464664e+02
      vertex   -1.252404e+02 1.022096e+02 2.475707e+02
      vertex   -1.254729e+02 1.022096e+02 2.480022e+02
    endloop
  endfacet
  facet normal 1.437957e-04 1.000000e+00 2.880638e-13
    outer loop
      vertex   -1.226706e+02 1.022092e+02 2.465160e+02
      vertex   -1.254729e+02 1.022096e+02 2.480022e+02
      vertex   -1.256166e+02 1.022096e+02 2.484707e+02
    endloop
  endfacet
  facet normal 1.437957e-04 1.000000e+00 3.193841e-13
    outer loop
      vertex   -1.222021e+02 1.022092e+02 2.466598e+02
      vertex   -1.256166e+02 1.022096e+02 2.484707e+02
      vertex   -1.256663e+02 1.022097e+02 2.489583e+02
    endloop
  endfacet
  facet normal 1.437957e-04 1.000000e+00 2.761050e-13
    outer loop
      vertex   -1.217706e+02 1.022091e+02 2.468922e+02
      vertex   -1.256663e+02 1.022097e+02 2.489583e+02
      vertex   -1.256198e+02 1.022096e+02 2.494461e+02
    endloop
  endfacet
  facet normal 1.437957e-04 1.000000e+00 3.025685e-13
    outer loop
      vertex   -1.213928e+02 1.022090e+02 2.472044e+02
      vertex   -1.256198e+02 1.022096e+02 2.494461e+02
      vertex   -1.254791e+02 1.022096e+02 2.499156e+02
    endloop
  endfacet
  facet normal 1.437957e-04 1.000000e+00 2.951914e-13
    outer loop
      vertex   -1.210831e+02 1.022090e+02 2.475842e+02
      vertex   -1.254791e+02 1.022096e+02 2.499156e+02
      vertex   -1.252495e+02 1.022096e+02 2.503485e+02
    endloop
  endfacet
  facet normal 1.437957e-04 1.000000e+00 3.036022e-13
    outer loop
      vertex   -1.208535e+02 1.022090e+02 2.480172e+02
      vertex   -1.252495e+02 1.022096e+02 2.503485e+02
      vertex   -1.249398e+02 1.022096e+02 2.507284e+02
    endloop
  endfacet
  facet normal 1.437957e-04 1.000000e+00 2.752072e-13
    outer loop
      vertex   -1.207127e+02 1.022089e+02 2.484866e+02
      vertex   -1.249398e+02 1.022096e+02 2.507284e+02
      vertex   -1.245620e+02 1.022095e+02 2.510405e+02
    endloop
  endfacet
  facet normal 1.437957e-04 1.000000e+00 3.050384e-13
    outer loop
      vertex   -1.206663e+02 1.022089e+02 2.489745e+02
      vertex   -1.245620e+02 1.022095e+02 2.510405e+02
      vertex   -1.241305e+02 1.022094e+02 2.512730e+02
    endloop
  endfacet
  facet normal 1.437957e-04 1.000000e+00 2.900267e-13
    outer loop
      vertex   -1.207159e+02 1.022089e+02 2.494621e+02
      vertex   -1.241305e+02 1.022094e+02 2.512730e+02
      vertex   -1.236620e+02 1.022094e+02 2.514168e+02
    endloop
  endfacet
  facet normal 1.437957e-04 1.000000e+00 2.932382e-13
    outer loop
      vertex   -1.208597e+02 1.022090e+02 2.499306e+02
      vertex   -1.236620e+02 1.022094e+02 2.514168e+02
      vertex   -1.231744e+02 1.022093e+02 2.514664e+02
    endloop
  endfacet
  facet normal 1.437957e-04 1.000000e+00 3.298153e-13
    outer loop
      vertex   -1.210921e+02 1.022090e+02 2.503621e+02
      vertex   -1.231744e+02 1.022093e+02 2.514664e+02
      vertex   -1.226865e+02 1.022092e+02 2.514199e+02
    endloop
  endfacet
  facet normal 1.437957e-04 1.000000e+00 3.435773e-13
    outer loop
      vertex   -1.214043e+02 1.022090e+02 2.507399e+02
      vertex   -1.226865e+02 1.022092e+02 2.514199e+02
      vertex   -1.222171e+02 1.022092e+02 2.512792e+02
    endloop
  endfacet
  facet normal 1.437957e-04 1.000000e+00 2.306706e-13
    outer loop
      vertex   -1.217841e+02 1.022091e+02 2.510496e+02
      vertex   -1.214043e+02 1.022090e+02 2.507399e+02
      vertex   -1.222171e+02 1.022092e+02 2.512792e+02
    endloop
  endfacet
  facet normal 1.437957e-04 1.000000e+00 2.401389e-13
    outer loop
      vertex   -1.214043e+02 1.022090e+02 2.507399e+02
      vertex   -1.210921e+02 1.022090e+02 2.503621e+02
      vertex   -1.226865e+02 1.022092e+02 2.514199e+02
    endloop
  endfacet
  facet normal 1.437957e-04 1.000000e+00 3.072297e-13
    outer loop
      vertex   -1.210921e+02 1.022090e+02 2.503621e+02
      vertex   -1.208597e+02 1.022090e+02 2.499306e+02
      vertex   -1.231744e+02 1.022093e+02 2.514664e+02
    endloop
  endfacet
  facet normal 1.437957e-04 1.000000e+00 2.880638e-13
    outer loop
      vertex   -1.208597e+02 1.022090e+02 2.499306e+02
      vertex   -1.207159e+02 1.022089e+02 2.494621e+02
      vertex   -1.236620e+02 1.022094e+02 2.514168e+02
    endloop
  endfacet
  facet normal 1.437957e-04 1.000000e+00 3.193841e-13
    outer loop
      vertex   -1.207159e+02 1.022089e+02 2.494621e+02
      vertex   -1.206663e+02 1.022089e+02 2.489745e+02
      vertex   -1.241305e+02 1.022094e+02 2.512730e+02
    endloop
  endfacet
  facet normal 1.437957e-04 1.000000e+00 2.761050e-13
    outer loop
      vertex   -1.206663e+02 1.022089e+02 2.489745e+02
      vertex   -1.207127e+02 1.022089e+02 2.484866e+02
      vertex   -1.245620e+02 1.022095e+02 2.510405e+02
    endloop
  endfacet
  facet normal 1.437957e-04 1.000000e+00 3.025685e-13
    outer loop
      vertex   -1.207127e+02 1.022089e+02 2.484866e+02
      vertex   -1.208535e+02 1.022090e+02 2.480172e+02
      vertex   -1.249398e+02 1.022096e+02 2.507284e+02
    endloop
  endfacet
  facet normal 1.437957e-04 1.000000e+00 2.951914e-13
    outer loop
      vertex   -1.208535e+02 1.022090e+02 2.480172e+02
      vertex   -1.210831e+02 1.022090e+02 2.475842e+02
      vertex   -1.252495e+02 1.022096e+02 2.503485e+02
    endloop
  endfacet
  facet normal 1.437957e-04 1.000000e+00 3.036022e-13
    outer loop
      vertex   -1.210831e+02 1.022090e+02 2.475842e+02
      vertex   -1.213928e+02 1.022090e+02 2.472044e+02
      vertex   -1.254791e+02 1.022096e+02 2.499156e+02
    endloop
  endfacet
  facet normal 1.437957e-04 1.000000e+00 2.752072e-13
    outer loop
      vertex   -1.213928e+02 1.022090e+02 2.472044e+02
      vertex   -1.217706e+02 1.022091e+02 2.468922e+02
      vertex   -1.256198e+02 1.022096e+02 2.494461e+02
    endloop
  endfacet
  facet normal 1.437957e-04 1.000000e+00 3.050384e-13
    outer loop
      vertex   -1.217706e+02 1.022091e+02 2.468922e+02
      vertex   -1.222021e+02 1.022092e+02 2.466598e+02
      vertex   -1.256663e+02 1.022097e+02 2.489583e+02
    endloop
  endfacet
  facet normal 1.437957e-04 1.000000e+00 2.900267e-13
    outer loop
      vertex   -1.222021e+02 1.022092e+02 2.466598e+02
      vertex   -1.226706e+02 1.022092e+02 2.465160e+02
      vertex   -1.256166e+02 1.022096e+02 2.484707e+02
    endloop
  endfacet
  facet normal 1.437957e-04 1.000000e+00 2.932382e-13
    outer loop
      vertex   -1.226706e+02 1.022092e+02 2.465160e+02
      vertex   -1.231581e+02 1.022093e+02 2.464664e+02
      vertex   -1.254729e+02 1.022096e+02 2.480022e+02
    endloop
  endfacet
  facet normal 1.437957e-04 1.000000e+00 3.298153e-13
    outer loop
      vertex   -1.231581e+02 1.022093e+02 2.464664e+02
      vertex   -1.236460e+02 1.022094e+02 2.465129e+02
      vertex   -1.252404e+02 1.022096e+02 2.475707e+02
    endloop
  endfacet
  facet normal -1.437957e-04 -1.000000e+00 -3.329423e-13
    outer loop
      vertex   -1.210383e+02 1.007090e+02 2.468520e+02
      vertex   -1.203911e+02 1.007089e+02 2.478274e+02
      vertex   -1.214917e+02 1.007091e+02 2.464774e+02
    endloop
  endfacet
  facet normal -1.437957e-04 -1.000000e+00 -2.223072e-13
    outer loop
      vertex   -1.210383e+02 1.007090e+02 2.468520e+02
      vertex   -1.206667e+02 1.007089e+02 2.473078e+02
      vertex   -1.203911e+02 1.007089e+02 2.478274e+02
    endloop
  endfacet
  facet normal -1.437957e-04 -1.000000e+00 -3.223308e-13
    outer loop
      vertex   -1.214917e+02 1.007091e+02 2.464774e+02
      vertex   -1.202223e+02 1.007089e+02 2.483907e+02
      vertex   -1.220094e+02 1.007091e+02 2.461985e+02
    endloop
  endfacet
  facet normal -1.437957e-04 -1.000000e+00 -2.655889e-13
    outer loop
      vertex   -1.214917e+02 1.007091e+02 2.464774e+02
      vertex   -1.203911e+02 1.007089e+02 2.478274e+02
      vertex   -1.202223e+02 1.007089e+02 2.483907e+02
    endloop
  endfacet
  facet normal -1.437957e-04 -1.000000e+00 -2.765889e-13
    outer loop
      vertex   -1.220094e+02 1.007091e+02 2.461985e+02
      vertex   -1.201665e+02 1.007089e+02 2.489762e+02
      vertex   -1.225717e+02 1.007092e+02 2.460260e+02
    endloop
  endfacet
  facet normal -1.437957e-04 -1.000000e+00 -3.119564e-13
    outer loop
      vertex   -1.220094e+02 1.007091e+02 2.461985e+02
      vertex   -1.202223e+02 1.007089e+02 2.483907e+02
      vertex   -1.201665e+02 1.007089e+02 2.489762e+02
    endloop
  endfacet
  facet normal -1.437957e-04 -1.000000e+00 -2.994445e-13
    outer loop
      vertex   -1.225717e+02 1.007092e+02 2.460260e+02
      vertex   -1.202261e+02 1.007089e+02 2.495612e+02
      vertex   -1.231567e+02 1.007093e+02 2.459664e+02
    endloop
  endfacet
  facet normal -1.437957e-04 -1.000000e+00 -2.981553e-13
    outer loop
      vertex   -1.225717e+02 1.007092e+02 2.460260e+02
      vertex   -1.201665e+02 1.007089e+02 2.489762e+02
      vertex   -1.202261e+02 1.007089e+02 2.495612e+02
    endloop
  endfacet
  facet normal -1.437957e-04 -1.000000e+00 -2.942334e-13
    outer loop
      vertex   -1.202261e+02 1.007089e+02 2.495612e+02
      vertex   -1.203986e+02 1.007089e+02 2.501235e+02
      vertex   -1.231567e+02 1.007093e+02 2.459664e+02
    endloop
  endfacet
  facet normal -1.437957e-04 -1.000000e+00 -2.987905e-13
    outer loop
      vertex   -1.231567e+02 1.007093e+02 2.459664e+02
      vertex   -1.203986e+02 1.007089e+02 2.501235e+02
      vertex   -1.237422e+02 1.007094e+02 2.460221e+02
    endloop
  endfacet
  facet normal -1.437957e-04 -1.000000e+00 -2.823997e-13
    outer loop
      vertex   -1.237422e+02 1.007094e+02 2.460221e+02
      vertex   -1.203986e+02 1.007089e+02 2.501235e+02
      vertex   -1.206775e+02 1.007089e+02 2.506412e+02
    endloop
  endfacet
  facet normal -1.437957e-04 -1.000000e+00 -3.018585e-13
    outer loop
      vertex   -1.243055e+02 1.007095e+02 2.461910e+02
      vertex   -1.206775e+02 1.007089e+02 2.506412e+02
      vertex   -1.210521e+02 1.007090e+02 2.510946e+02
    endloop
  endfacet
  facet normal -1.437957e-04 -1.000000e+00 -3.001927e-13
    outer loop
      vertex   -1.248251e+02 1.007095e+02 2.464666e+02
      vertex   -1.210521e+02 1.007090e+02 2.510946e+02
      vertex   -1.215079e+02 1.007091e+02 2.514662e+02
    endloop
  endfacet
  facet normal -1.437957e-04 -1.000000e+00 -3.048080e-13
    outer loop
      vertex   -1.252809e+02 1.007096e+02 2.468382e+02
      vertex   -1.215079e+02 1.007091e+02 2.514662e+02
      vertex   -1.220275e+02 1.007091e+02 2.517418e+02
    endloop
  endfacet
  facet normal -1.437957e-04 -1.000000e+00 -2.800042e-13
    outer loop
      vertex   -1.256555e+02 1.007097e+02 2.472916e+02
      vertex   -1.220275e+02 1.007091e+02 2.517418e+02
      vertex   -1.225908e+02 1.007092e+02 2.519106e+02
    endloop
  endfacet
  facet normal -1.437957e-04 -1.000000e+00 -2.987910e-13
    outer loop
      vertex   -1.259344e+02 1.007097e+02 2.478093e+02
      vertex   -1.225908e+02 1.007092e+02 2.519106e+02
      vertex   -1.231763e+02 1.007093e+02 2.519664e+02
    endloop
  endfacet
  facet normal -1.437957e-04 -1.000000e+00 -2.994445e-13
    outer loop
      vertex   -1.261069e+02 1.007097e+02 2.483715e+02
      vertex   -1.231763e+02 1.007093e+02 2.519664e+02
      vertex   -1.237613e+02 1.007094e+02 2.519068e+02
    endloop
  endfacet
  facet normal -1.437957e-04 -1.000000e+00 -2.765889e-13
    outer loop
      vertex   -1.261665e+02 1.007097e+02 2.489566e+02
      vertex   -1.237613e+02 1.007094e+02 2.519068e+02
      vertex   -1.243236e+02 1.007095e+02 2.517343e+02
    endloop
  endfacet
  facet normal -1.437957e-04 -1.000000e+00 -3.223308e-13
    outer loop
      vertex   -1.261107e+02 1.007097e+02 2.495421e+02
      vertex   -1.243236e+02 1.007095e+02 2.517343e+02
      vertex   -1.248413e+02 1.007095e+02 2.514554e+02
    endloop
  endfacet
  facet normal -1.437957e-04 -1.000000e+00 -3.329423e-13
    outer loop
      vertex   -1.259419e+02 1.007097e+02 2.501054e+02
      vertex   -1.248413e+02 1.007095e+02 2.514554e+02
      vertex   -1.252947e+02 1.007096e+02 2.510808e+02
    endloop
  endfacet
  facet normal -1.437957e-04 -1.000000e+00 -2.223072e-13
    outer loop
      vertex   -1.256663e+02 1.007097e+02 2.506250e+02
      vertex   -1.259419e+02 1.007097e+02 2.501054e+02
      vertex   -1.252947e+02 1.007096e+02 2.510808e+02
    endloop
  endfacet
  facet normal -1.437957e-04 -1.000000e+00 -2.655889e-13
    outer loop
      vertex   -1.259419e+02 1.007097e+02 2.501054e+02
      vertex   -1.261107e+02 1.007097e+02 2.495421e+02
      vertex   -1.248413e+02 1.007095e+02 2.514554e+02
    endloop
  endfacet
  facet normal -1.437957e-04 -1.000000e+00 -3.119564e-13
    outer loop
      vertex   -1.261107e+02 1.007097e+02 2.495421e+02
      vertex   -1.261665e+02 1.007097e+02 2.489566e+02
      vertex   -1.243236e+02 1.007095e+02 2.517343e+02
    endloop
  endfacet
  facet normal -1.437957e-04 -1.000000e+00 -2.981553e-13
    outer loop
      vertex   -1.261665e+02 1.007097e+02 2.489566e+02
      vertex   -1.261069e+02 1.007097e+02 2.483715e+02
      vertex   -1.237613e+02 1.007094e+02 2.519068e+02
    endloop
  endfacet
  facet normal -1.437957e-04 -1.000000e+00 -2.942360e-13
    outer loop
      vertex   -1.261069e+02 1.007097e+02 2.483715e+02
      vertex   -1.259344e+02 1.007097e+02 2.478093e+02
      vertex   -1.231763e+02 1.007093e+02 2.519664e+02
    endloop
  endfacet
  facet normal -1.437957e-04 -1.000000e+00 -2.823999e-13
    outer loop
      vertex   -1.259344e+02 1.007097e+02 2.478093e+02
      vertex   -1.256555e+02 1.007097e+02 2.472916e+02
      vertex   -1.225908e+02 1.007092e+02 2.519106e+02
    endloop
  endfacet
  facet normal -1.437957e-04 -1.000000e+00 -3.018565e-13
    outer loop
      vertex   -1.256555e+02 1.007097e+02 2.472916e+02
      vertex   -1.252809e+02 1.007096e+02 2.468382e+02
      vertex   -1.220275e+02 1.007091e+02 2.517418e+02
    endloop
  endfacet
  facet normal -1.437957e-04 -1.000000e+00 -3.001927e-13
    outer loop
      vertex   -1.252809e+02 1.007096e+02 2.468382e+02
      vertex   -1.248251e+02 1.007095e+02 2.464666e+02
      vertex   -1.215079e+02 1.007091e+02 2.514662e+02
    endloop
  endfacet
  facet normal -1.437957e-04 -1.000000e+00 -3.048080e-13
    outer loop
      vertex   -1.210521e+02 1.007090e+02 2.510946e+02
      vertex   -1.248251e+02 1.007095e+02 2.464666e+02
      vertex   -1.243055e+02 1.007095e+02 2.461910e+02
    endloop
  endfacet
  facet normal -1.437957e-04 -1.000000e+00 -2.800038e-13
    outer loop
      vertex   -1.206775e+02 1.007089e+02 2.506412e+02
      vertex   -1.243055e+02 1.007095e+02 2.461910e+02
      vertex   -1.237422e+02 1.007094e+02 2.460221e+02
    endloop
  endfacet
  facet normal -4.685239e-01 6.737173e-05 -8.834508e-01
    outer loop
      vertex   -1.248251e+02 1.007095e+02 2.464666e+02
      vertex   -1.248249e+02 1.017095e+02 2.464666e+02
      vertex   -1.243055e+02 1.007095e+02 2.461910e+02
    endloop
  endfacet
  facet normal -4.685239e-01 6.737173e-05 -8.834508e-01
    outer loop
      vertex   -1.243055e+02 1.007095e+02 2.461910e+02
      vertex   -1.248249e+02 1.017095e+02 2.464666e+02
      vertex   -1.243054e+02 1.017095e+02 2.461910e+02
    endloop
  endfacet
  facet normal -2.871686e-01 4.129362e-05 -9.578800e-01
    outer loop
      vertex   -1.237420e+02 1.017094e+02 2.460221e+02
      vertex   -1.243055e+02 1.007095e+02 2.461910e+02
      vertex   -1.243054e+02 1.017095e+02 2.461910e+02
    endloop
  endfacet
  facet normal -2.871686e-01 4.129362e-05 -9.578800e-01
    outer loop
      vertex   -1.237420e+02 1.017094e+02 2.460221e+02
      vertex   -1.237422e+02 1.007094e+02 2.460221e+02
      vertex   -1.243055e+02 1.007095e+02 2.461910e+02
    endloop
  endfacet
  facet normal -9.477763e-02 1.362862e-05 -9.954985e-01
    outer loop
      vertex   -1.237420e+02 1.017094e+02 2.460221e+02
      vertex   -1.231566e+02 1.017093e+02 2.459664e+02
      vertex   -1.237422e+02 1.007094e+02 2.460221e+02
    endloop
  endfacet
  facet normal -9.477763e-02 1.362862e-05 -9.954985e-01
    outer loop
      vertex   -1.237422e+02 1.007094e+02 2.460221e+02
      vertex   -1.231566e+02 1.017093e+02 2.459664e+02
      vertex   -1.231567e+02 1.007093e+02 2.459664e+02
    endloop
  endfacet
  facet normal 1.012556e-01 -1.456012e-05 -9.948604e-01
    outer loop
      vertex   -1.231567e+02 1.007093e+02 2.459664e+02
      vertex   -1.231566e+02 1.017093e+02 2.459664e+02
      vertex   -1.225715e+02 1.017092e+02 2.460260e+02
    endloop
  endfacet
  facet normal 2.933976e-01 -4.218933e-05 -9.559905e-01
    outer loop
      vertex   -1.225717e+02 1.007092e+02 2.460260e+02
      vertex   -1.225715e+02 1.017092e+02 2.460260e+02
      vertex   -1.220093e+02 1.017091e+02 2.461985e+02
    endloop
  endfacet
  facet normal 4.742646e-01 -6.819722e-05 -8.803824e-01
    outer loop
      vertex   -1.220094e+02 1.007091e+02 2.461985e+02
      vertex   -1.220093e+02 1.017091e+02 2.461985e+02
      vertex   -1.214917e+02 1.007091e+02 2.464774e+02
    endloop
  endfacet
  facet normal 2.933976e-01 -4.218933e-05 -9.559905e-01
    outer loop
      vertex   -1.220094e+02 1.007091e+02 2.461985e+02
      vertex   -1.225717e+02 1.007092e+02 2.460260e+02
      vertex   -1.220093e+02 1.017091e+02 2.461985e+02
    endloop
  endfacet
  facet normal 4.742646e-01 -6.819722e-05 -8.803824e-01
    outer loop
      vertex   -1.220093e+02 1.017091e+02 2.461985e+02
      vertex   -1.214915e+02 1.017091e+02 2.464774e+02
      vertex   -1.214917e+02 1.007091e+02 2.464774e+02
    endloop
  endfacet
  facet normal 6.369058e-01 -9.158434e-05 -7.709416e-01
    outer loop
      vertex   -1.214917e+02 1.007091e+02 2.464774e+02
      vertex   -1.214915e+02 1.017091e+02 2.464774e+02
      vertex   -1.210381e+02 1.017090e+02 2.468520e+02
    endloop
  endfacet
  facet normal 7.750711e-01 -1.114519e-04 -6.318740e-01
    outer loop
      vertex   -1.210383e+02 1.007090e+02 2.468520e+02
      vertex   -1.210381e+02 1.017090e+02 2.468520e+02
      vertex   -1.206665e+02 1.017089e+02 2.473078e+02
    endloop
  endfacet
  facet normal 8.834508e-01 -1.270365e-04 -4.685239e-01
    outer loop
      vertex   -1.206667e+02 1.007089e+02 2.473078e+02
      vertex   -1.206665e+02 1.017089e+02 2.473078e+02
      vertex   -1.203910e+02 1.017089e+02 2.478274e+02
    endloop
  endfacet
  facet normal 9.578800e-01 -1.377391e-04 -2.871686e-01
    outer loop
      vertex   -1.203911e+02 1.007089e+02 2.478274e+02
      vertex   -1.203910e+02 1.017089e+02 2.478274e+02
      vertex   -1.202221e+02 1.017089e+02 2.483907e+02
    endloop
  endfacet
  facet normal 9.954985e-01 -1.431484e-04 -9.477764e-02
    outer loop
      vertex   -1.202223e+02 1.007089e+02 2.483907e+02
      vertex   -1.202221e+02 1.017089e+02 2.483907e+02
      vertex   -1.201665e+02 1.007089e+02 2.489762e+02
    endloop
  endfacet
  facet normal 9.578800e-01 -1.377391e-04 -2.871686e-01
    outer loop
      vertex   -1.202223e+02 1.007089e+02 2.483907e+02
      vertex   -1.203911e+02 1.007089e+02 2.478274e+02
      vertex   -1.202221e+02 1.017089e+02 2.483907e+02
    endloop
  endfacet
  facet normal 9.954985e-01 -1.431484e-04 -9.477764e-02
    outer loop
      vertex   -1.202221e+02 1.017089e+02 2.483907e+02
      vertex   -1.201664e+02 1.017089e+02 2.489762e+02
      vertex   -1.201665e+02 1.007089e+02 2.489762e+02
    endloop
  endfacet
  facet normal 9.948604e-01 -1.430567e-04 1.012556e-01
    outer loop
      vertex   -1.201665e+02 1.007089e+02 2.489762e+02
      vertex   -1.201664e+02 1.017089e+02 2.489762e+02
      vertex   -1.202259e+02 1.017089e+02 2.495612e+02
    endloop
  endfacet
  facet normal 9.559905e-01 -1.374674e-04 2.933977e-01
    outer loop
      vertex   -1.202261e+02 1.007089e+02 2.495612e+02
      vertex   -1.202259e+02 1.017089e+02 2.495612e+02
      vertex   -1.203985e+02 1.017089e+02 2.501235e+02
    endloop
  endfacet
  facet normal 8.803823e-01 -1.265952e-04 4.742646e-01
    outer loop
      vertex   -1.203986e+02 1.007089e+02 2.501235e+02
      vertex   -1.203985e+02 1.017089e+02 2.501235e+02
      vertex   -1.206774e+02 1.017089e+02 2.506412e+02
    endloop
  endfacet
  facet normal 7.709416e-01 -1.108581e-04 6.369058e-01
    outer loop
      vertex   -1.206775e+02 1.007089e+02 2.506412e+02
      vertex   -1.206774e+02 1.017089e+02 2.506412e+02
      vertex   -1.210519e+02 1.017090e+02 2.510946e+02
    endloop
  endfacet
  facet normal 6.318740e-01 -9.086079e-05 7.750711e-01
    outer loop
      vertex   -1.210521e+02 1.007090e+02 2.510946e+02
      vertex   -1.210519e+02 1.017090e+02 2.510946e+02
      vertex   -1.215079e+02 1.007091e+02 2.514662e+02
    endloop
  endfacet
  facet normal 7.709416e-01 -1.108581e-04 6.369058e-01
    outer loop
      vertex   -1.210521e+02 1.007090e+02 2.510946e+02
      vertex   -1.206775e+02 1.007089e+02 2.506412e+02
      vertex   -1.210519e+02 1.017090e+02 2.510946e+02
    endloop
  endfacet
  facet normal 6.318740e-01 -9.086079e-05 7.750711e-01
    outer loop
      vertex   -1.210519e+02 1.017090e+02 2.510946e+02
      vertex   -1.215078e+02 1.017091e+02 2.514662e+02
      vertex   -1.215079e+02 1.007091e+02 2.514662e+02
    endloop
  endfacet
  facet normal 8.803823e-01 -1.265952e-04 4.742646e-01
    outer loop
      vertex   -1.206775e+02 1.007089e+02 2.506412e+02
      vertex   -1.203986e+02 1.007089e+02 2.501235e+02
      vertex   -1.206774e+02 1.017089e+02 2.506412e+02
    endloop
  endfacet
  facet normal 9.559905e-01 -1.374674e-04 2.933977e-01
    outer loop
      vertex   -1.203986e+02 1.007089e+02 2.501235e+02
      vertex   -1.202261e+02 1.007089e+02 2.495612e+02
      vertex   -1.203985e+02 1.017089e+02 2.501235e+02
    endloop
  endfacet
  facet normal 9.948604e-01 -1.430567e-04 1.012556e-01
    outer loop
      vertex   -1.202261e+02 1.007089e+02 2.495612e+02
      vertex   -1.201665e+02 1.007089e+02 2.489762e+02
      vertex   -1.202259e+02 1.017089e+02 2.495612e+02
    endloop
  endfacet
  facet normal 8.834508e-01 -1.270365e-04 -4.685239e-01
    outer loop
      vertex   -1.203911e+02 1.007089e+02 2.478274e+02
      vertex   -1.206667e+02 1.007089e+02 2.473078e+02
      vertex   -1.203910e+02 1.017089e+02 2.478274e+02
    endloop
  endfacet
  facet normal 7.750711e-01 -1.114519e-04 -6.318740e-01
    outer loop
      vertex   -1.206667e+02 1.007089e+02 2.473078e+02
      vertex   -1.210383e+02 1.007090e+02 2.468520e+02
      vertex   -1.206665e+02 1.017089e+02 2.473078e+02
    endloop
  endfacet
  facet normal 6.369058e-01 -9.158434e-05 -7.709416e-01
    outer loop
      vertex   -1.210383e+02 1.007090e+02 2.468520e+02
      vertex   -1.214917e+02 1.007091e+02 2.464774e+02
      vertex   -1.210381e+02 1.017090e+02 2.468520e+02
    endloop
  endfacet
  facet normal 1.012556e-01 -1.456012e-05 -9.948604e-01
    outer loop
      vertex   -1.225717e+02 1.007092e+02 2.460260e+02
      vertex   -1.231567e+02 1.007093e+02 2.459664e+02
      vertex   -1.225715e+02 1.017092e+02 2.460260e+02
    endloop
  endfacet
  facet normal 4.685239e-01 -6.737173e-05 8.834508e-01
    outer loop
      vertex   -1.215079e+02 1.007091e+02 2.514662e+02
      vertex   -1.215078e+02 1.017091e+02 2.514662e+02
      vertex   -1.220275e+02 1.007091e+02 2.517418e+02
    endloop
  endfacet
  facet normal 4.685239e-01 -6.737173e-05 8.834508e-01
    outer loop
      vertex   -1.220275e+02 1.007091e+02 2.517418e+02
      vertex   -1.215078e+02 1.017091e+02 2.514662e+02
      vertex   -1.220273e+02 1.017091e+02 2.517418e+02
    endloop
  endfacet
  facet normal 2.871686e-01 -4.129362e-05 9.578800e-01
    outer loop
      vertex   -1.225907e+02 1.017092e+02 2.519106e+02
      vertex   -1.220275e+02 1.007091e+02 2.517418e+02
      vertex   -1.220273e+02 1.017091e+02 2.517418e+02
    endloop
  endfacet
  facet normal 2.871686e-01 -4.129362e-05 9.578800e-01
    outer loop
      vertex   -1.225907e+02 1.017092e+02 2.519106e+02
      vertex   -1.225908e+02 1.007092e+02 2.519106e+02
      vertex   -1.220275e+02 1.007091e+02 2.517418e+02
    endloop
  endfacet
  facet normal 9.477763e-02 -1.362862e-05 9.954985e-01
    outer loop
      vertex   -1.225907e+02 1.017092e+02 2.519106e+02
      vertex   -1.231761e+02 1.017093e+02 2.519664e+02
      vertex   -1.225908e+02 1.007092e+02 2.519106e+02
    endloop
  endfacet
  facet normal 9.477763e-02 -1.362862e-05 9.954985e-01
    outer loop
      vertex   -1.225908e+02 1.007092e+02 2.519106e+02
      vertex   -1.231761e+02 1.017093e+02 2.519664e+02
      vertex   -1.231763e+02 1.007093e+02 2.519664e+02
    endloop
  endfacet
  facet normal -1.012556e-01 1.456012e-05 9.948604e-01
    outer loop
      vertex   -1.231763e+02 1.007093e+02 2.519664e+02
      vertex   -1.231761e+02 1.017093e+02 2.519664e+02
      vertex   -1.237612e+02 1.017094e+02 2.519068e+02
    endloop
  endfacet
  facet normal -2.933976e-01 4.218933e-05 9.559905e-01
    outer loop
      vertex   -1.237613e+02 1.007094e+02 2.519068e+02
      vertex   -1.237612e+02 1.017094e+02 2.519068e+02
      vertex   -1.243234e+02 1.017095e+02 2.517343e+02
    endloop
  endfacet
  facet normal -4.742646e-01 6.819722e-05 8.803824e-01
    outer loop
      vertex   -1.243236e+02 1.007095e+02 2.517343e+02
      vertex   -1.243234e+02 1.017095e+02 2.517343e+02
      vertex   -1.248413e+02 1.007095e+02 2.514554e+02
    endloop
  endfacet
  facet normal -2.933976e-01 4.218933e-05 9.559905e-01
    outer loop
      vertex   -1.243236e+02 1.007095e+02 2.517343e+02
      vertex   -1.237613e+02 1.007094e+02 2.519068e+02
      vertex   -1.243234e+02 1.017095e+02 2.517343e+02
    endloop
  endfacet
  facet normal -4.742646e-01 6.819722e-05 8.803824e-01
    outer loop
      vertex   -1.243234e+02 1.017095e+02 2.517343e+02
      vertex   -1.248412e+02 1.017095e+02 2.514554e+02
      vertex   -1.248413e+02 1.007095e+02 2.514554e+02
    endloop
  endfacet
  facet normal -6.369058e-01 9.158434e-05 7.709416e-01
    outer loop
      vertex   -1.248413e+02 1.007095e+02 2.514554e+02
      vertex   -1.248412e+02 1.017095e+02 2.514554e+02
      vertex   -1.252946e+02 1.017096e+02 2.510808e+02
    endloop
  endfacet
  facet normal -7.750711e-01 1.114519e-04 6.318740e-01
    outer loop
      vertex   -1.252947e+02 1.007096e+02 2.510808e+02
      vertex   -1.252946e+02 1.017096e+02 2.510808e+02
      vertex   -1.256662e+02 1.017097e+02 2.506250e+02
    endloop
  endfacet
  facet normal -8.834508e-01 1.270365e-04 4.685239e-01
    outer loop
      vertex   -1.256663e+02 1.007097e+02 2.506250e+02
      vertex   -1.256662e+02 1.017097e+02 2.506250e+02
      vertex   -1.259417e+02 1.017097e+02 2.501054e+02
    endloop
  endfacet
  facet normal -9.578800e-01 1.377391e-04 2.871686e-01
    outer loop
      vertex   -1.259419e+02 1.007097e+02 2.501054e+02
      vertex   -1.259417e+02 1.017097e+02 2.501054e+02
      vertex   -1.261106e+02 1.017097e+02 2.495421e+02
    endloop
  endfacet
  facet normal -9.954985e-01 1.431484e-04 9.477764e-02
    outer loop
      vertex   -1.261107e+02 1.007097e+02 2.495421e+02
      vertex   -1.261106e+02 1.017097e+02 2.495421e+02
      vertex   -1.261665e+02 1.007097e+02 2.489566e+02
    endloop
  endfacet
  facet normal -9.578800e-01 1.377391e-04 2.871686e-01
    outer loop
      vertex   -1.261107e+02 1.007097e+02 2.495421e+02
      vertex   -1.259419e+02 1.007097e+02 2.501054e+02
      vertex   -1.261106e+02 1.017097e+02 2.495421e+02
    endloop
  endfacet
  facet normal -9.954985e-01 1.431484e-04 9.477764e-02
    outer loop
      vertex   -1.261106e+02 1.017097e+02 2.495421e+02
      vertex   -1.261663e+02 1.017097e+02 2.489566e+02
      vertex   -1.261665e+02 1.007097e+02 2.489566e+02
    endloop
  endfacet
  facet normal -9.948604e-01 1.430567e-04 -1.012556e-01
    outer loop
      vertex   -1.261665e+02 1.007097e+02 2.489566e+02
      vertex   -1.261663e+02 1.017097e+02 2.489566e+02
      vertex   -1.261068e+02 1.017097e+02 2.483715e+02
    endloop
  endfacet
  facet normal -9.559905e-01 1.374674e-04 -2.933977e-01
    outer loop
      vertex   -1.261069e+02 1.007097e+02 2.483715e+02
      vertex   -1.261068e+02 1.017097e+02 2.483715e+02
      vertex   -1.259342e+02 1.017097e+02 2.478093e+02
    endloop
  endfacet
  facet normal -8.803823e-01 1.265952e-04 -4.742646e-01
    outer loop
      vertex   -1.259344e+02 1.007097e+02 2.478093e+02
      vertex   -1.259342e+02 1.017097e+02 2.478093e+02
      vertex   -1.256553e+02 1.017097e+02 2.472916e+02
    endloop
  endfacet
  facet normal -7.709416e-01 1.108581e-04 -6.369058e-01
    outer loop
      vertex   -1.256555e+02 1.007097e+02 2.472916e+02
      vertex   -1.256553e+02 1.017097e+02 2.472916e+02
      vertex   -1.252808e+02 1.017096e+02 2.468382e+02
    endloop
  endfacet
  facet normal -6.318740e-01 9.086079e-05 -7.750711e-01
    outer loop
      vertex   -1.252809e+02 1.007096e+02 2.468382e+02
      vertex   -1.252808e+02 1.017096e+02 2.468382e+02
      vertex   -1.248251e+02 1.007095e+02 2.464666e+02
    endloop
  endfacet
  facet normal -7.709416e-01 1.108581e-04 -6.369058e-01
    outer loop
      vertex   -1.252809e+02 1.007096e+02 2.468382e+02
      vertex   -1.256555e+02 1.007097e+02 2.472916e+02
      vertex   -1.252808e+02 1.017096e+02 2.468382e+02
    endloop
  endfacet
  facet normal -6.318740e-01 9.086079e-05 -7.750711e-01
    outer loop
      vertex   -1.252808e+02 1.017096e+02 2.468382e+02
      vertex   -1.248249e+02 1.017095e+02 2.464666e+02
      vertex   -1.248251e+02 1.007095e+02 2.464666e+02
    endloop
  endfacet
  facet normal -8.803823e-01 1.265952e-04 -4.742646e-01
    outer loop
      vertex   -1.256555e+02 1.007097e+02 2.472916e+02
      vertex   -1.259344e+02 1.007097e+02 2.478093e+02
      vertex   -1.256553e+02 1.017097e+02 2.472916e+02
    endloop
  endfacet
  facet normal -9.559905e-01 1.374674e-04 -2.933977e-01
    outer loop
      vertex   -1.259344e+02 1.007097e+02 2.478093e+02
      vertex   -1.261069e+02 1.007097e+02 2.483715e+02
      vertex   -1.259342e+02 1.017097e+02 2.478093e+02
    endloop
  endfacet
  facet normal -9.948604e-01 1.430567e-04 -1.012556e-01
    outer loop
      vertex   -1.261069e+02 1.007097e+02 2.483715e+02
      vertex   -1.261665e+02 1.007097e+02 2.489566e+02
      vertex   -1.261068e+02 1.017097e+02 2.483715e+02
    endloop
  endfacet
  facet normal -8.834508e-01 1.270365e-04 4.685239e-01
    outer loop
      vertex   -1.259419e+02 1.007097e+02 2.501054e+02
      vertex   -1.256663e+02 1.007097e+02 2.506250e+02
      vertex   -1.259417e+02 1.017097e+02 2.501054e+02
    endloop
  endfacet
  facet normal -7.750711e-01 1.114519e-04 6.318740e-01
    outer loop
      vertex   -1.256663e+02 1.007097e+02 2.506250e+02
      vertex   -1.252947e+02 1.007096e+02 2.510808e+02
      vertex   -1.256662e+02 1.017097e+02 2.506250e+02
    endloop
  endfacet
  facet normal -6.369058e-01 9.158434e-05 7.709416e-01
    outer loop
      vertex   -1.252947e+02 1.007096e+02 2.510808e+02
      vertex   -1.248413e+02 1.007095e+02 2.514554e+02
      vertex   -1.252946e+02 1.017096e+02 2.510808e+02
    endloop
  endfacet
  facet normal -1.012556e-01 1.456012e-05 9.948604e-01
    outer loop
      vertex   -1.237613e+02 1.007094e+02 2.519068e+02
      vertex   -1.231763e+02 1.007093e+02 2.519664e+02
      vertex   -1.237612e+02 1.017094e+02 2.519068e+02
    endloop
  endfacet
  facet normal 3.362655e-01 7.053498e-01 -6.240249e-01
    outer loop
      vertex   -1.222021e+02 1.022092e+02 2.466598e+02
      vertex   -1.217706e+02 1.022091e+02 2.468922e+02
      vertex   -1.214915e+02 1.017091e+02 2.464774e+02
    endloop
  endfacet
  facet normal 3.362655e-01 7.053498e-01 -6.240249e-01
    outer loop
      vertex   -1.220093e+02 1.017091e+02 2.461985e+02
      vertex   -1.222021e+02 1.022092e+02 2.466598e+02
      vertex   -1.214915e+02 1.017091e+02 2.464774e+02
    endloop
  endfacet
  facet normal 2.080650e-01 7.053683e-01 -6.776168e-01
    outer loop
      vertex   -1.220093e+02 1.017091e+02 2.461985e+02
      vertex   -1.225715e+02 1.017092e+02 2.460260e+02
      vertex   -1.222021e+02 1.022092e+02 2.466598e+02
    endloop
  endfacet
  facet normal 2.080650e-01 7.053683e-01 -6.776168e-01
    outer loop
      vertex   -1.222021e+02 1.022092e+02 2.466598e+02
      vertex   -1.225715e+02 1.017092e+02 2.460260e+02
      vertex   -1.226706e+02 1.022092e+02 2.465160e+02
    endloop
  endfacet
  facet normal 7.187255e-02 7.053878e-01 -7.051683e-01
    outer loop
      vertex   -1.226706e+02 1.022092e+02 2.465160e+02
      vertex   -1.225715e+02 1.017092e+02 2.460260e+02
      vertex   -1.231566e+02 1.017093e+02 2.459664e+02
    endloop
  endfacet
  facet normal -6.707802e-02 7.054078e-01 -7.056205e-01
    outer loop
      vertex   -1.231581e+02 1.022093e+02 2.464664e+02
      vertex   -1.231566e+02 1.017093e+02 2.459664e+02
      vertex   -1.237420e+02 1.017094e+02 2.460221e+02
    endloop
  endfacet
  facet normal -2.034469e-01 7.054274e-01 -6.789562e-01
    outer loop
      vertex   -1.236460e+02 1.022094e+02 2.465129e+02
      vertex   -1.237420e+02 1.017094e+02 2.460221e+02
      vertex   -1.243054e+02 1.017095e+02 2.461910e+02
    endloop
  endfacet
  facet normal -3.319936e-01 7.054459e-01 -6.261999e-01
    outer loop
      vertex   -1.241155e+02 1.022094e+02 2.466536e+02
      vertex   -1.243054e+02 1.017095e+02 2.461910e+02
      vertex   -1.245484e+02 1.022095e+02 2.468832e+02
    endloop
  endfacet
  facet normal -2.034469e-01 7.054274e-01 -6.789562e-01
    outer loop
      vertex   -1.241155e+02 1.022094e+02 2.466536e+02
      vertex   -1.236460e+02 1.022094e+02 2.465129e+02
      vertex   -1.243054e+02 1.017095e+02 2.461910e+02
    endloop
  endfacet
  facet normal 4.515475e-01 7.053332e-01 -5.464521e-01
    outer loop
      vertex   -1.214915e+02 1.017091e+02 2.464774e+02
      vertex   -1.213928e+02 1.022090e+02 2.472044e+02
      vertex   -1.210381e+02 1.017090e+02 2.468520e+02
    endloop
  endfacet
  facet normal 4.515475e-01 7.053332e-01 -5.464521e-01
    outer loop
      vertex   -1.214915e+02 1.017091e+02 2.464774e+02
      vertex   -1.217706e+02 1.022091e+02 2.468922e+02
      vertex   -1.213928e+02 1.022090e+02 2.472044e+02
    endloop
  endfacet
  facet normal -3.319936e-01 7.054459e-01 -6.261999e-01
    outer loop
      vertex   -1.243054e+02 1.017095e+02 2.461910e+02
      vertex   -1.248249e+02 1.017095e+02 2.464666e+02
      vertex   -1.245484e+02 1.022095e+02 2.468832e+02
    endloop
  endfacet
  facet normal -6.707802e-02 7.054078e-01 -7.056205e-01
    outer loop
      vertex   -1.236460e+02 1.022094e+02 2.465129e+02
      vertex   -1.231581e+02 1.022093e+02 2.464664e+02
      vertex   -1.237420e+02 1.017094e+02 2.460221e+02
    endloop
  endfacet
  facet normal 7.187255e-02 7.053878e-01 -7.051683e-01
    outer loop
      vertex   -1.231581e+02 1.022093e+02 2.464664e+02
      vertex   -1.226706e+02 1.022092e+02 2.465160e+02
      vertex   -1.231566e+02 1.017093e+02 2.459664e+02
    endloop
  endfacet
  facet normal 5.494806e-01 7.053192e-01 -4.478794e-01
    outer loop
      vertex   -1.213928e+02 1.022090e+02 2.472044e+02
      vertex   -1.210831e+02 1.022090e+02 2.475842e+02
      vertex   -1.210381e+02 1.017090e+02 2.468520e+02
    endloop
  endfacet
  facet normal 5.494806e-01 7.053192e-01 -4.478794e-01
    outer loop
      vertex   -1.210381e+02 1.017090e+02 2.468520e+02
      vertex   -1.210831e+02 1.022090e+02 2.475842e+02
      vertex   -1.206665e+02 1.017089e+02 2.473078e+02
    endloop
  endfacet
  facet normal 6.263013e-01 7.053081e-01 -3.320950e-01
    outer loop
      vertex   -1.206665e+02 1.017089e+02 2.473078e+02
      vertex   -1.210831e+02 1.022090e+02 2.475842e+02
      vertex   -1.208535e+02 1.022090e+02 2.480172e+02
    endloop
  endfacet
  facet normal 6.790576e-01 7.053005e-01 -2.035484e-01
    outer loop
      vertex   -1.203910e+02 1.017089e+02 2.478274e+02
      vertex   -1.208535e+02 1.022090e+02 2.480172e+02
      vertex   -1.207127e+02 1.022089e+02 2.484866e+02
    endloop
  endfacet
  facet normal 7.057220e-01 7.052967e-01 -6.717946e-02
    outer loop
      vertex   -1.202221e+02 1.017089e+02 2.483907e+02
      vertex   -1.207127e+02 1.022089e+02 2.484866e+02
      vertex   -1.201664e+02 1.017089e+02 2.489762e+02
    endloop
  endfacet
  facet normal 6.790576e-01 7.053005e-01 -2.035484e-01
    outer loop
      vertex   -1.202221e+02 1.017089e+02 2.483907e+02
      vertex   -1.203910e+02 1.017089e+02 2.478274e+02
      vertex   -1.207127e+02 1.022089e+02 2.484866e+02
    endloop
  endfacet
  facet normal 7.057220e-01 7.052967e-01 -6.717946e-02
    outer loop
      vertex   -1.207127e+02 1.022089e+02 2.484866e+02
      vertex   -1.206663e+02 1.022089e+02 2.489745e+02
      vertex   -1.201664e+02 1.017089e+02 2.489762e+02
    endloop
  endfacet
  facet normal 7.052697e-01 7.052968e-01 7.177112e-02
    outer loop
      vertex   -1.201664e+02 1.017089e+02 2.489762e+02
      vertex   -1.206663e+02 1.022089e+02 2.489745e+02
      vertex   -1.207159e+02 1.022089e+02 2.494621e+02
    endloop
  endfacet
  facet normal 6.777183e-01 7.053007e-01 2.079636e-01
    outer loop
      vertex   -1.202259e+02 1.017089e+02 2.495612e+02
      vertex   -1.207159e+02 1.022089e+02 2.494621e+02
      vertex   -1.208597e+02 1.022090e+02 2.499306e+02
    endloop
  endfacet
  facet normal 6.241264e-01 7.053084e-01 3.361641e-01
    outer loop
      vertex   -1.203985e+02 1.017089e+02 2.501235e+02
      vertex   -1.208597e+02 1.022090e+02 2.499306e+02
      vertex   -1.210921e+02 1.022090e+02 2.503621e+02
    endloop
  endfacet
  facet normal 5.465535e-01 7.053196e-01 4.514460e-01
    outer loop
      vertex   -1.206774e+02 1.017089e+02 2.506412e+02
      vertex   -1.210921e+02 1.022090e+02 2.503621e+02
      vertex   -1.214043e+02 1.022090e+02 2.507399e+02
    endloop
  endfacet
  facet normal 4.479809e-01 7.053338e-01 5.493791e-01
    outer loop
      vertex   -1.210519e+02 1.017090e+02 2.510946e+02
      vertex   -1.214043e+02 1.022090e+02 2.507399e+02
      vertex   -1.215078e+02 1.017091e+02 2.514662e+02
    endloop
  endfacet
  facet normal 5.465535e-01 7.053196e-01 4.514460e-01
    outer loop
      vertex   -1.210519e+02 1.017090e+02 2.510946e+02
      vertex   -1.206774e+02 1.017089e+02 2.506412e+02
      vertex   -1.214043e+02 1.022090e+02 2.507399e+02
    endloop
  endfacet
  facet normal 4.479809e-01 7.053338e-01 5.493791e-01
    outer loop
      vertex   -1.214043e+02 1.022090e+02 2.507399e+02
      vertex   -1.217841e+02 1.022091e+02 2.510496e+02
      vertex   -1.215078e+02 1.017091e+02 2.514662e+02
    endloop
  endfacet
  facet normal 6.241264e-01 7.053084e-01 3.361641e-01
    outer loop
      vertex   -1.206774e+02 1.017089e+02 2.506412e+02
      vertex   -1.203985e+02 1.017089e+02 2.501235e+02
      vertex   -1.210921e+02 1.022090e+02 2.503621e+02
    endloop
  endfacet
  facet normal 6.777183e-01 7.053007e-01 2.079636e-01
    outer loop
      vertex   -1.203985e+02 1.017089e+02 2.501235e+02
      vertex   -1.202259e+02 1.017089e+02 2.495612e+02
      vertex   -1.208597e+02 1.022090e+02 2.499306e+02
    endloop
  endfacet
  facet normal 7.052697e-01 7.052968e-01 7.177112e-02
    outer loop
      vertex   -1.202259e+02 1.017089e+02 2.495612e+02
      vertex   -1.201664e+02 1.017089e+02 2.489762e+02
      vertex   -1.207159e+02 1.022089e+02 2.494621e+02
    endloop
  endfacet
  facet normal 6.263013e-01 7.053081e-01 -3.320950e-01
    outer loop
      vertex   -1.203910e+02 1.017089e+02 2.478274e+02
      vertex   -1.206665e+02 1.017089e+02 2.473078e+02
      vertex   -1.208535e+02 1.022090e+02 2.480172e+02
    endloop
  endfacet
endsolid
