solid ascii
  facet normal -1.437957e-04 -1.000000e+00 -2.991465e-13
    outer loop
      vertex   -8.167737e+01 6.320333e+01 1.942873e+02
      vertex   -8.144946e+01 6.320330e+01 1.941015e+02
      vertex   -8.106245e+01 6.320324e+01 1.946848e+02
    endloop
  endfacet
  facet normal -1.437957e-04 -1.000000e+00 -3.204698e-13
    outer loop
      vertex   -8.118401e+01 6.320326e+01 1.947839e+02
      vertex   -8.167737e+01 6.320333e+01 1.942873e+02
      vertex   -8.106245e+01 6.320324e+01 1.946848e+02
    endloop
  endfacet
  facet normal -1.437957e-04 -1.000000e+00 -2.871304e-13
    outer loop
      vertex   -8.118401e+01 6.320326e+01 1.947839e+02
      vertex   -8.186465e+01 6.320336e+01 1.945140e+02
      vertex   -8.167737e+01 6.320333e+01 1.942873e+02
    endloop
  endfacet
  facet normal -1.437957e-04 -1.000000e+00 -2.664619e-13
    outer loop
      vertex   -8.118401e+01 6.320326e+01 1.947839e+02
      vertex   -8.128389e+01 6.320327e+01 1.949048e+02
      vertex   -8.186465e+01 6.320336e+01 1.945140e+02
    endloop
  endfacet
  facet normal -1.437957e-04 -1.000000e+00 -3.003293e-13
    outer loop
      vertex   -8.186465e+01 6.320336e+01 1.945140e+02
      vertex   -8.128389e+01 6.320327e+01 1.949048e+02
      vertex   -8.200411e+01 6.320338e+01 1.947729e+02
    endloop
  endfacet
  facet normal -1.437957e-04 -1.000000e+00 -3.190748e-13
    outer loop
      vertex   -8.200411e+01 6.320338e+01 1.947729e+02
      vertex   -8.128389e+01 6.320327e+01 1.949048e+02
      vertex   -8.135827e+01 6.320328e+01 1.950429e+02
    endloop
  endfacet
  facet normal -1.437957e-04 -1.000000e+00 -2.536456e-13
    outer loop
      vertex   -8.209038e+01 6.320339e+01 1.950540e+02
      vertex   -8.135827e+01 6.320328e+01 1.950429e+02
      vertex   -8.140428e+01 6.320329e+01 1.951928e+02
    endloop
  endfacet
  facet normal -1.437957e-04 -1.000000e+00 -3.196038e-13
    outer loop
      vertex   -8.212016e+01 6.320339e+01 1.953466e+02
      vertex   -8.140428e+01 6.320329e+01 1.951928e+02
      vertex   -8.142016e+01 6.320329e+01 1.953488e+02
    endloop
  endfacet
  facet normal -1.437957e-04 -1.000000e+00 -3.325272e-13
    outer loop
      vertex   -8.209229e+01 6.320339e+01 1.956393e+02
      vertex   -8.142016e+01 6.320329e+01 1.953488e+02
      vertex   -8.140530e+01 6.320329e+01 1.955050e+02
    endloop
  endfacet
  facet normal -1.437957e-04 -1.000000e+00 -2.920163e-13
    outer loop
      vertex   -8.200785e+01 6.320338e+01 1.959210e+02
      vertex   -8.140530e+01 6.320329e+01 1.955050e+02
      vertex   -8.136026e+01 6.320328e+01 1.956552e+02
    endloop
  endfacet
  facet normal -1.437957e-04 -1.000000e+00 -2.559221e-13
    outer loop
      vertex   -8.187008e+01 6.320336e+01 1.961807e+02
      vertex   -8.136026e+01 6.320328e+01 1.956552e+02
      vertex   -8.128678e+01 6.320327e+01 1.957937e+02
    endloop
  endfacet
  facet normal -1.437957e-04 -1.000000e+00 -3.154009e-13
    outer loop
      vertex   -8.118769e+01 6.320326e+01 1.959153e+02
      vertex   -8.187008e+01 6.320336e+01 1.961807e+02
      vertex   -8.128678e+01 6.320327e+01 1.957937e+02
    endloop
  endfacet
  facet normal -1.437957e-04 -1.000000e+00 -3.154094e-13
    outer loop
      vertex   -8.118769e+01 6.320326e+01 1.959153e+02
      vertex   -8.168427e+01 6.320333e+01 1.964087e+02
      vertex   -8.187008e+01 6.320336e+01 1.961807e+02
    endloop
  endfacet
  facet normal -1.437957e-04 -1.000000e+00 -2.880352e-13
    outer loop
      vertex   -8.118769e+01 6.320326e+01 1.959153e+02
      vertex   -8.106678e+01 6.320324e+01 1.960152e+02
      vertex   -8.168427e+01 6.320333e+01 1.964087e+02
    endloop
  endfacet
  facet normal -1.437957e-04 -1.000000e+00 -2.960595e-13
    outer loop
      vertex   -8.168427e+01 6.320333e+01 1.964087e+02
      vertex   -8.106678e+01 6.320324e+01 1.960152e+02
      vertex   -8.145758e+01 6.320330e+01 1.965959e+02
    endloop
  endfacet
  facet normal -1.437957e-04 -1.000000e+00 -3.035099e-13
    outer loop
      vertex   -8.145758e+01 6.320330e+01 1.965959e+02
      vertex   -8.106678e+01 6.320324e+01 1.960152e+02
      vertex   -8.092872e+01 6.320322e+01 1.960896e+02
    endloop
  endfacet
  facet normal -1.437957e-04 -1.000000e+00 -2.950847e-13
    outer loop
      vertex   -8.119870e+01 6.320326e+01 1.967354e+02
      vertex   -8.092872e+01 6.320322e+01 1.960896e+02
      vertex   -8.077879e+01 6.320320e+01 1.961356e+02
    endloop
  endfacet
  facet normal -1.437957e-04 -1.000000e+00 -2.895584e-13
    outer loop
      vertex   -8.091759e+01 6.320322e+01 1.968217e+02
      vertex   -8.077879e+01 6.320320e+01 1.961356e+02
      vertex   -8.062277e+01 6.320318e+01 1.961514e+02
    endloop
  endfacet
  facet normal -1.437957e-04 -1.000000e+00 -2.959616e-13
    outer loop
      vertex   -8.062505e+01 6.320318e+01 1.968514e+02
      vertex   -8.062277e+01 6.320318e+01 1.961514e+02
      vertex   -8.046665e+01 6.320315e+01 1.961366e+02
    endloop
  endfacet
  facet normal -1.437957e-04 -1.000000e+00 -2.996817e-13
    outer loop
      vertex   -8.033232e+01 6.320314e+01 1.968236e+02
      vertex   -8.046665e+01 6.320315e+01 1.961366e+02
      vertex   -8.031643e+01 6.320313e+01 1.960915e+02
    endloop
  endfacet
  facet normal -1.437957e-04 -1.000000e+00 -3.018707e-13
    outer loop
      vertex   -8.005065e+01 6.320310e+01 1.967391e+02
      vertex   -8.031643e+01 6.320313e+01 1.960915e+02
      vertex   -8.017788e+01 6.320311e+01 1.960181e+02
    endloop
  endfacet
  facet normal -1.437957e-04 -1.000000e+00 -2.991465e-13
    outer loop
      vertex   -7.979087e+01 6.320306e+01 1.966014e+02
      vertex   -8.017788e+01 6.320311e+01 1.960181e+02
      vertex   -7.956296e+01 6.320302e+01 1.964156e+02
    endloop
  endfacet
  facet normal -1.437957e-04 -1.000000e+00 -3.029714e-13
    outer loop
      vertex   -7.979087e+01 6.320306e+01 1.966014e+02
      vertex   -8.005065e+01 6.320310e+01 1.967391e+02
      vertex   -8.017788e+01 6.320311e+01 1.960181e+02
    endloop
  endfacet
  facet normal -1.437957e-04 -1.000000e+00 -3.154032e-13
    outer loop
      vertex   -7.995355e+01 6.320308e+01 1.949092e+02
      vertex   -8.005264e+01 6.320310e+01 1.947876e+02
      vertex   -7.955606e+01 6.320302e+01 1.942942e+02
    endloop
  endfacet
  facet normal -1.437957e-04 -1.000000e+00 -3.154082e-13
    outer loop
      vertex   -7.937026e+01 6.320300e+01 1.945222e+02
      vertex   -7.995355e+01 6.320308e+01 1.949092e+02
      vertex   -7.955606e+01 6.320302e+01 1.942942e+02
    endloop
  endfacet
  facet normal -1.437957e-04 -1.000000e+00 -2.559330e-13
    outer loop
      vertex   -7.937026e+01 6.320300e+01 1.945222e+02
      vertex   -7.988007e+01 6.320307e+01 1.950477e+02
      vertex   -7.995355e+01 6.320308e+01 1.949092e+02
    endloop
  endfacet
  facet normal -1.437957e-04 -1.000000e+00 -2.868753e-13
    outer loop
      vertex   -7.937026e+01 6.320300e+01 1.945222e+02
      vertex   -7.923249e+01 6.320298e+01 1.947819e+02
      vertex   -7.988007e+01 6.320307e+01 1.950477e+02
    endloop
  endfacet
  facet normal -1.437957e-04 -1.000000e+00 -2.920050e-13
    outer loop
      vertex   -7.988007e+01 6.320307e+01 1.950477e+02
      vertex   -7.923249e+01 6.320298e+01 1.947819e+02
      vertex   -7.983503e+01 6.320306e+01 1.951979e+02
    endloop
  endfacet
  facet normal -1.437957e-04 -1.000000e+00 -2.789354e-13
    outer loop
      vertex   -7.983503e+01 6.320306e+01 1.951979e+02
      vertex   -7.923249e+01 6.320298e+01 1.947819e+02
      vertex   -7.914804e+01 6.320297e+01 1.950636e+02
    endloop
  endfacet
  facet normal -1.437957e-04 -1.000000e+00 -3.092308e-13
    outer loop
      vertex   -7.982017e+01 6.320306e+01 1.953541e+02
      vertex   -7.914804e+01 6.320297e+01 1.950636e+02
      vertex   -7.912017e+01 6.320296e+01 1.953563e+02
    endloop
  endfacet
  facet normal -1.437957e-04 -1.000000e+00 -2.978682e-13
    outer loop
      vertex   -7.983605e+01 6.320306e+01 1.955101e+02
      vertex   -7.912017e+01 6.320296e+01 1.953563e+02
      vertex   -7.914995e+01 6.320297e+01 1.956489e+02
    endloop
  endfacet
  facet normal -1.437957e-04 -1.000000e+00 -2.949158e-13
    outer loop
      vertex   -7.988206e+01 6.320307e+01 1.956600e+02
      vertex   -7.914995e+01 6.320297e+01 1.956489e+02
      vertex   -7.923622e+01 6.320298e+01 1.959300e+02
    endloop
  endfacet
  facet normal -1.437957e-04 -1.000000e+00 -3.003293e-13
    outer loop
      vertex   -7.995644e+01 6.320308e+01 1.957981e+02
      vertex   -7.923622e+01 6.320298e+01 1.959300e+02
      vertex   -7.937568e+01 6.320300e+01 1.961889e+02
    endloop
  endfacet
  facet normal -1.437957e-04 -1.000000e+00 -2.871304e-13
    outer loop
      vertex   -8.005632e+01 6.320310e+01 1.959190e+02
      vertex   -7.937568e+01 6.320300e+01 1.961889e+02
      vertex   -7.956296e+01 6.320302e+01 1.964156e+02
    endloop
  endfacet
  facet normal -1.437957e-04 -1.000000e+00 -3.204698e-13
    outer loop
      vertex   -8.017788e+01 6.320311e+01 1.960181e+02
      vertex   -8.005632e+01 6.320310e+01 1.959190e+02
      vertex   -7.956296e+01 6.320302e+01 1.964156e+02
    endloop
  endfacet
  facet normal -1.437957e-04 -1.000000e+00 -2.960595e-13
    outer loop
      vertex   -7.955606e+01 6.320302e+01 1.942942e+02
      vertex   -8.017355e+01 6.320311e+01 1.946877e+02
      vertex   -7.978276e+01 6.320306e+01 1.941070e+02
    endloop
  endfacet
  facet normal -1.437957e-04 -1.000000e+00 -2.880352e-13
    outer loop
      vertex   -7.955606e+01 6.320302e+01 1.942942e+02
      vertex   -8.005264e+01 6.320310e+01 1.947876e+02
      vertex   -8.017355e+01 6.320311e+01 1.946877e+02
    endloop
  endfacet
  facet normal -1.437957e-04 -1.000000e+00 -2.805773e-13
    outer loop
      vertex   -7.978276e+01 6.320306e+01 1.941070e+02
      vertex   -8.031162e+01 6.320313e+01 1.946133e+02
      vertex   -8.004163e+01 6.320309e+01 1.939675e+02
    endloop
  endfacet
  facet normal -1.437957e-04 -1.000000e+00 -3.035099e-13
    outer loop
      vertex   -7.978276e+01 6.320306e+01 1.941070e+02
      vertex   -8.017355e+01 6.320311e+01 1.946877e+02
      vertex   -8.031162e+01 6.320313e+01 1.946133e+02
    endloop
  endfacet
  facet normal -1.437957e-04 -1.000000e+00 -2.969069e-13
    outer loop
      vertex   -8.004163e+01 6.320309e+01 1.939675e+02
      vertex   -8.046154e+01 6.320315e+01 1.945673e+02
      vertex   -8.032274e+01 6.320313e+01 1.938812e+02
    endloop
  endfacet
  facet normal -1.437957e-04 -1.000000e+00 -2.950847e-13
    outer loop
      vertex   -8.004163e+01 6.320309e+01 1.939675e+02
      vertex   -8.031162e+01 6.320313e+01 1.946133e+02
      vertex   -8.046154e+01 6.320315e+01 1.945673e+02
    endloop
  endfacet
  facet normal -1.437957e-04 -1.000000e+00 -2.991993e-13
    outer loop
      vertex   -8.005065e+01 6.320310e+01 1.967391e+02
      vertex   -8.033232e+01 6.320314e+01 1.968236e+02
      vertex   -8.031643e+01 6.320313e+01 1.960915e+02
    endloop
  endfacet
  facet normal -1.437957e-04 -1.000000e+00 -3.000840e-13
    outer loop
      vertex   -8.033232e+01 6.320314e+01 1.968236e+02
      vertex   -8.062505e+01 6.320318e+01 1.968514e+02
      vertex   -8.046665e+01 6.320315e+01 1.961366e+02
    endloop
  endfacet
  facet normal -1.437957e-04 -1.000000e+00 -2.959455e-13
    outer loop
      vertex   -8.062505e+01 6.320318e+01 1.968514e+02
      vertex   -8.091759e+01 6.320322e+01 1.968217e+02
      vertex   -8.062277e+01 6.320318e+01 1.961514e+02
    endloop
  endfacet
  facet normal -1.437957e-04 -1.000000e+00 -2.969069e-13
    outer loop
      vertex   -8.091759e+01 6.320322e+01 1.968217e+02
      vertex   -8.119870e+01 6.320326e+01 1.967354e+02
      vertex   -8.077879e+01 6.320320e+01 1.961356e+02
    endloop
  endfacet
  facet normal -1.437957e-04 -1.000000e+00 -2.805773e-13
    outer loop
      vertex   -8.119870e+01 6.320326e+01 1.967354e+02
      vertex   -8.145758e+01 6.320330e+01 1.965959e+02
      vertex   -8.092872e+01 6.320322e+01 1.960896e+02
    endloop
  endfacet
  facet normal -1.437957e-04 -1.000000e+00 -2.868739e-13
    outer loop
      vertex   -8.187008e+01 6.320336e+01 1.961807e+02
      vertex   -8.200785e+01 6.320338e+01 1.959210e+02
      vertex   -8.136026e+01 6.320328e+01 1.956552e+02
    endloop
  endfacet
  facet normal -1.437957e-04 -1.000000e+00 -2.789354e-13
    outer loop
      vertex   -8.200785e+01 6.320338e+01 1.959210e+02
      vertex   -8.209229e+01 6.320339e+01 1.956393e+02
      vertex   -8.140530e+01 6.320329e+01 1.955050e+02
    endloop
  endfacet
  facet normal -1.437957e-04 -1.000000e+00 -3.092308e-13
    outer loop
      vertex   -8.209229e+01 6.320339e+01 1.956393e+02
      vertex   -8.212016e+01 6.320339e+01 1.953466e+02
      vertex   -8.142016e+01 6.320329e+01 1.953488e+02
    endloop
  endfacet
  facet normal -1.437957e-04 -1.000000e+00 -2.978682e-13
    outer loop
      vertex   -8.212016e+01 6.320339e+01 1.953466e+02
      vertex   -8.209038e+01 6.320339e+01 1.950540e+02
      vertex   -8.140428e+01 6.320329e+01 1.951928e+02
    endloop
  endfacet
  facet normal -1.437957e-04 -1.000000e+00 -2.949158e-13
    outer loop
      vertex   -8.209038e+01 6.320339e+01 1.950540e+02
      vertex   -8.200411e+01 6.320338e+01 1.947729e+02
      vertex   -8.135827e+01 6.320328e+01 1.950429e+02
    endloop
  endfacet
  facet normal -1.437957e-04 -1.000000e+00 -2.895584e-13
    outer loop
      vertex   -8.046154e+01 6.320315e+01 1.945673e+02
      vertex   -8.061756e+01 6.320318e+01 1.945515e+02
      vertex   -8.032274e+01 6.320313e+01 1.938812e+02
    endloop
  endfacet
  facet normal -1.437957e-04 -1.000000e+00 -2.959455e-13
    outer loop
      vertex   -8.032274e+01 6.320313e+01 1.938812e+02
      vertex   -8.061756e+01 6.320318e+01 1.945515e+02
      vertex   -8.061528e+01 6.320318e+01 1.938515e+02
    endloop
  endfacet
  facet normal -1.437957e-04 -1.000000e+00 -2.959616e-13
    outer loop
      vertex   -8.061528e+01 6.320318e+01 1.938515e+02
      vertex   -8.061756e+01 6.320318e+01 1.945515e+02
      vertex   -8.077368e+01 6.320320e+01 1.945663e+02
    endloop
  endfacet
  facet normal -1.437957e-04 -1.000000e+00 -2.996817e-13
    outer loop
      vertex   -8.090801e+01 6.320322e+01 1.938793e+02
      vertex   -8.077368e+01 6.320320e+01 1.945663e+02
      vertex   -8.092391e+01 6.320322e+01 1.946114e+02
    endloop
  endfacet
  facet normal -1.437957e-04 -1.000000e+00 -3.018707e-13
    outer loop
      vertex   -8.118968e+01 6.320326e+01 1.939638e+02
      vertex   -8.092391e+01 6.320322e+01 1.946114e+02
      vertex   -8.106245e+01 6.320324e+01 1.946848e+02
    endloop
  endfacet
  facet normal -1.437957e-04 -1.000000e+00 -3.029714e-13
    outer loop
      vertex   -8.144946e+01 6.320330e+01 1.941015e+02
      vertex   -8.118968e+01 6.320326e+01 1.939638e+02
      vertex   -8.106245e+01 6.320324e+01 1.946848e+02
    endloop
  endfacet
  facet normal -1.437957e-04 -1.000000e+00 -2.664619e-13
    outer loop
      vertex   -8.005632e+01 6.320310e+01 1.959190e+02
      vertex   -7.995644e+01 6.320308e+01 1.957981e+02
      vertex   -7.937568e+01 6.320300e+01 1.961889e+02
    endloop
  endfacet
  facet normal -1.437957e-04 -1.000000e+00 -3.190748e-13
    outer loop
      vertex   -7.995644e+01 6.320308e+01 1.957981e+02
      vertex   -7.988206e+01 6.320307e+01 1.956600e+02
      vertex   -7.923622e+01 6.320298e+01 1.959300e+02
    endloop
  endfacet
  facet normal -1.437957e-04 -1.000000e+00 -2.536456e-13
    outer loop
      vertex   -7.988206e+01 6.320307e+01 1.956600e+02
      vertex   -7.983605e+01 6.320306e+01 1.955101e+02
      vertex   -7.914995e+01 6.320297e+01 1.956489e+02
    endloop
  endfacet
  facet normal -1.437957e-04 -1.000000e+00 -3.196038e-13
    outer loop
      vertex   -7.983605e+01 6.320306e+01 1.955101e+02
      vertex   -7.982017e+01 6.320306e+01 1.953541e+02
      vertex   -7.912017e+01 6.320296e+01 1.953563e+02
    endloop
  endfacet
  facet normal -1.437957e-04 -1.000000e+00 -3.325272e-13
    outer loop
      vertex   -7.982017e+01 6.320306e+01 1.953541e+02
      vertex   -7.983503e+01 6.320306e+01 1.951979e+02
      vertex   -7.914804e+01 6.320297e+01 1.950636e+02
    endloop
  endfacet
  facet normal -1.437957e-04 -1.000000e+00 -3.000840e-13
    outer loop
      vertex   -8.061528e+01 6.320318e+01 1.938515e+02
      vertex   -8.077368e+01 6.320320e+01 1.945663e+02
      vertex   -8.090801e+01 6.320322e+01 1.938793e+02
    endloop
  endfacet
  facet normal -1.437957e-04 -1.000000e+00 -2.991993e-13
    outer loop
      vertex   -8.092391e+01 6.320322e+01 1.946114e+02
      vertex   -8.118968e+01 6.320326e+01 1.939638e+02
      vertex   -8.090801e+01 6.320322e+01 1.938793e+02
    endloop
  endfacet
  facet normal 6.318740e-01 -9.086079e-05 7.750711e-01
    outer loop
      vertex   -7.978570e+01 9.920306e+01 1.966014e+02
      vertex   -7.979087e+01 6.320306e+01 1.966014e+02
      vertex   -7.955779e+01 9.920302e+01 1.964156e+02
    endloop
  endfacet
  facet normal 6.318740e-01 -9.086079e-05 7.750711e-01
    outer loop
      vertex   -7.955779e+01 9.920302e+01 1.964156e+02
      vertex   -7.979087e+01 6.320306e+01 1.966014e+02
      vertex   -7.956296e+01 6.320302e+01 1.964156e+02
    endloop
  endfacet
  facet normal 7.709416e-01 -1.108581e-04 6.369058e-01
    outer loop
      vertex   -7.937568e+01 6.320300e+01 1.961889e+02
      vertex   -7.955779e+01 9.920302e+01 1.964156e+02
      vertex   -7.956296e+01 6.320302e+01 1.964156e+02
    endloop
  endfacet
  facet normal 7.709416e-01 -1.108581e-04 6.369058e-01
    outer loop
      vertex   -7.937568e+01 6.320300e+01 1.961889e+02
      vertex   -7.937050e+01 9.920300e+01 1.961889e+02
      vertex   -7.955779e+01 9.920302e+01 1.964156e+02
    endloop
  endfacet
  facet normal 8.803823e-01 -1.265952e-04 4.742646e-01
    outer loop
      vertex   -7.937568e+01 6.320300e+01 1.961889e+02
      vertex   -7.923622e+01 6.320298e+01 1.959300e+02
      vertex   -7.937050e+01 9.920300e+01 1.961889e+02
    endloop
  endfacet
  facet normal 8.803823e-01 -1.265952e-04 4.742646e-01
    outer loop
      vertex   -7.937050e+01 9.920300e+01 1.961889e+02
      vertex   -7.923622e+01 6.320298e+01 1.959300e+02
      vertex   -7.923105e+01 9.920298e+01 1.959300e+02
    endloop
  endfacet
  facet normal 9.559905e-01 -1.374674e-04 2.933977e-01
    outer loop
      vertex   -7.923105e+01 9.920298e+01 1.959300e+02
      vertex   -7.923622e+01 6.320298e+01 1.959300e+02
      vertex   -7.914995e+01 6.320297e+01 1.956489e+02
    endloop
  endfacet
  facet normal 9.948604e-01 -1.430567e-04 1.012556e-01
    outer loop
      vertex   -7.914477e+01 9.920297e+01 1.956489e+02
      vertex   -7.914995e+01 6.320297e+01 1.956489e+02
      vertex   -7.912017e+01 6.320296e+01 1.953563e+02
    endloop
  endfacet
  facet normal 9.954985e-01 -1.431484e-04 -9.477764e-02
    outer loop
      vertex   -7.911500e+01 9.920296e+01 1.953563e+02
      vertex   -7.912017e+01 6.320296e+01 1.953563e+02
      vertex   -7.914287e+01 9.920296e+01 1.950636e+02
    endloop
  endfacet
  facet normal 9.948604e-01 -1.430567e-04 1.012556e-01
    outer loop
      vertex   -7.911500e+01 9.920296e+01 1.953563e+02
      vertex   -7.914477e+01 9.920297e+01 1.956489e+02
      vertex   -7.912017e+01 6.320296e+01 1.953563e+02
    endloop
  endfacet
  facet normal 9.954985e-01 -1.431484e-04 -9.477764e-02
    outer loop
      vertex   -7.912017e+01 6.320296e+01 1.953563e+02
      vertex   -7.914804e+01 6.320297e+01 1.950636e+02
      vertex   -7.914287e+01 9.920296e+01 1.950636e+02
    endloop
  endfacet
  facet normal 9.578800e-01 -1.377391e-04 -2.871686e-01
    outer loop
      vertex   -7.914287e+01 9.920296e+01 1.950636e+02
      vertex   -7.914804e+01 6.320297e+01 1.950636e+02
      vertex   -7.923249e+01 6.320298e+01 1.947819e+02
    endloop
  endfacet
  facet normal 8.834508e-01 -1.270365e-04 -4.685239e-01
    outer loop
      vertex   -7.922731e+01 9.920298e+01 1.947819e+02
      vertex   -7.923249e+01 6.320298e+01 1.947819e+02
      vertex   -7.937026e+01 6.320300e+01 1.945222e+02
    endloop
  endfacet
  facet normal 7.750711e-01 -1.114519e-04 -6.318740e-01
    outer loop
      vertex   -7.936508e+01 9.920300e+01 1.945222e+02
      vertex   -7.937026e+01 6.320300e+01 1.945222e+02
      vertex   -7.955606e+01 6.320302e+01 1.942942e+02
    endloop
  endfacet
  facet normal 6.369058e-01 -9.158434e-05 -7.709416e-01
    outer loop
      vertex   -7.955088e+01 9.920302e+01 1.942942e+02
      vertex   -7.955606e+01 6.320302e+01 1.942942e+02
      vertex   -7.978276e+01 6.320306e+01 1.941070e+02
    endloop
  endfacet
  facet normal 4.742646e-01 -6.819722e-05 -8.803824e-01
    outer loop
      vertex   -7.977758e+01 9.920306e+01 1.941070e+02
      vertex   -7.978276e+01 6.320306e+01 1.941070e+02
      vertex   -8.003646e+01 9.920309e+01 1.939675e+02
    endloop
  endfacet
  facet normal 6.369058e-01 -9.158434e-05 -7.709416e-01
    outer loop
      vertex   -7.977758e+01 9.920306e+01 1.941070e+02
      vertex   -7.955088e+01 9.920302e+01 1.942942e+02
      vertex   -7.978276e+01 6.320306e+01 1.941070e+02
    endloop
  endfacet
  facet normal 4.742646e-01 -6.819722e-05 -8.803824e-01
    outer loop
      vertex   -7.978276e+01 6.320306e+01 1.941070e+02
      vertex   -8.004163e+01 6.320309e+01 1.939675e+02
      vertex   -8.003646e+01 9.920309e+01 1.939675e+02
    endloop
  endfacet
  facet normal 2.933976e-01 -4.218933e-05 -9.559905e-01
    outer loop
      vertex   -8.003646e+01 9.920309e+01 1.939675e+02
      vertex   -8.004163e+01 6.320309e+01 1.939675e+02
      vertex   -8.032274e+01 6.320313e+01 1.938812e+02
    endloop
  endfacet
  facet normal 1.012556e-01 -1.456012e-05 -9.948604e-01
    outer loop
      vertex   -8.031757e+01 9.920313e+01 1.938812e+02
      vertex   -8.032274e+01 6.320313e+01 1.938812e+02
      vertex   -8.061528e+01 6.320318e+01 1.938515e+02
    endloop
  endfacet
  facet normal -9.477763e-02 1.362862e-05 -9.954985e-01
    outer loop
      vertex   -8.061011e+01 9.920318e+01 1.938515e+02
      vertex   -8.061528e+01 6.320318e+01 1.938515e+02
      vertex   -8.090801e+01 6.320322e+01 1.938793e+02
    endloop
  endfacet
  facet normal -2.871686e-01 4.129362e-05 -9.578800e-01
    outer loop
      vertex   -8.090283e+01 9.920322e+01 1.938793e+02
      vertex   -8.090801e+01 6.320322e+01 1.938793e+02
      vertex   -8.118968e+01 6.320326e+01 1.939638e+02
    endloop
  endfacet
  facet normal -4.685239e-01 6.737173e-05 -8.834508e-01
    outer loop
      vertex   -8.118450e+01 9.920326e+01 1.939638e+02
      vertex   -8.118968e+01 6.320326e+01 1.939638e+02
      vertex   -8.144732e+01 7.806170e+01 1.941015e+02
    endloop
  endfacet
  facet normal -4.685239e-01 6.737173e-05 -8.834508e-01
    outer loop
      vertex   -8.144428e+01 9.920330e+01 1.941015e+02
      vertex   -8.118450e+01 9.920326e+01 1.939638e+02
      vertex   -8.144732e+01 7.806170e+01 1.941015e+02
    endloop
  endfacet
  facet normal -4.685239e-01 6.737173e-05 -8.834508e-01
    outer loop
      vertex   -8.118968e+01 6.320326e+01 1.939638e+02
      vertex   -8.144946e+01 6.320330e+01 1.941015e+02
      vertex   -8.144732e+01 7.806170e+01 1.941015e+02
    endloop
  endfacet
  facet normal -2.871686e-01 4.129362e-05 -9.578800e-01
    outer loop
      vertex   -8.118450e+01 9.920326e+01 1.939638e+02
      vertex   -8.090283e+01 9.920322e+01 1.938793e+02
      vertex   -8.118968e+01 6.320326e+01 1.939638e+02
    endloop
  endfacet
  facet normal -9.477763e-02 1.362862e-05 -9.954985e-01
    outer loop
      vertex   -8.090283e+01 9.920322e+01 1.938793e+02
      vertex   -8.061011e+01 9.920318e+01 1.938515e+02
      vertex   -8.090801e+01 6.320322e+01 1.938793e+02
    endloop
  endfacet
  facet normal 1.012556e-01 -1.456012e-05 -9.948604e-01
    outer loop
      vertex   -8.061011e+01 9.920318e+01 1.938515e+02
      vertex   -8.031757e+01 9.920313e+01 1.938812e+02
      vertex   -8.061528e+01 6.320318e+01 1.938515e+02
    endloop
  endfacet
  facet normal 2.933976e-01 -4.218933e-05 -9.559905e-01
    outer loop
      vertex   -8.031757e+01 9.920313e+01 1.938812e+02
      vertex   -8.003646e+01 9.920309e+01 1.939675e+02
      vertex   -8.032274e+01 6.320313e+01 1.938812e+02
    endloop
  endfacet
  facet normal 7.750711e-01 -1.114519e-04 -6.318740e-01
    outer loop
      vertex   -7.955088e+01 9.920302e+01 1.942942e+02
      vertex   -7.936508e+01 9.920300e+01 1.945222e+02
      vertex   -7.955606e+01 6.320302e+01 1.942942e+02
    endloop
  endfacet
  facet normal 8.834508e-01 -1.270365e-04 -4.685239e-01
    outer loop
      vertex   -7.936508e+01 9.920300e+01 1.945222e+02
      vertex   -7.922731e+01 9.920298e+01 1.947819e+02
      vertex   -7.937026e+01 6.320300e+01 1.945222e+02
    endloop
  endfacet
  facet normal 9.578800e-01 -1.377391e-04 -2.871686e-01
    outer loop
      vertex   -7.922731e+01 9.920298e+01 1.947819e+02
      vertex   -7.914287e+01 9.920296e+01 1.950636e+02
      vertex   -7.923249e+01 6.320298e+01 1.947819e+02
    endloop
  endfacet
  facet normal 9.559905e-01 -1.374674e-04 2.933977e-01
    outer loop
      vertex   -7.914477e+01 9.920297e+01 1.956489e+02
      vertex   -7.923105e+01 9.920298e+01 1.959300e+02
      vertex   -7.914995e+01 6.320297e+01 1.956489e+02
    endloop
  endfacet
  facet normal -4.567484e-01 -8.560009e-01 2.421639e-01
    outer loop
      vertex   -7.995294e+01 6.740308e+01 1.949092e+02
      vertex   -7.987947e+01 6.740307e+01 1.950477e+02
      vertex   -8.061949e+01 6.788387e+01 1.953515e+02
    endloop
  endfacet
  facet normal -4.952183e-01 -8.559954e-01 1.484276e-01
    outer loop
      vertex   -8.061949e+01 6.788387e+01 1.953515e+02
      vertex   -7.987947e+01 6.740307e+01 1.950477e+02
      vertex   -7.983443e+01 6.740306e+01 1.951979e+02
    endloop
  endfacet
  facet normal -5.146620e-01 -8.559926e-01 4.898729e-02
    outer loop
      vertex   -7.981957e+01 6.740306e+01 1.953541e+02
      vertex   -8.061949e+01 6.788387e+01 1.953515e+02
      vertex   -7.983443e+01 6.740306e+01 1.951979e+02
    endloop
  endfacet
  facet normal -5.143322e-01 -8.559926e-01 -5.233553e-02
    outer loop
      vertex   -7.981957e+01 6.740306e+01 1.953541e+02
      vertex   -7.983545e+01 6.740306e+01 1.955101e+02
      vertex   -8.061949e+01 6.788387e+01 1.953515e+02
    endloop
  endfacet
  facet normal -4.942416e-01 -8.559955e-01 -1.516471e-01
    outer loop
      vertex   -7.983545e+01 6.740306e+01 1.955101e+02
      vertex   -7.988146e+01 6.740307e+01 1.956600e+02
      vertex   -8.061949e+01 6.788387e+01 1.953515e+02
    endloop
  endfacet
  facet normal -4.551624e-01 -8.560011e-01 -2.451310e-01
    outer loop
      vertex   -8.061949e+01 6.788387e+01 1.953515e+02
      vertex   -7.988146e+01 6.740307e+01 1.956600e+02
      vertex   -7.995584e+01 6.740308e+01 1.957981e+02
    endloop
  endfacet
  facet normal -3.985963e-01 -8.560093e-01 -3.291947e-01
    outer loop
      vertex   -8.061949e+01 6.788387e+01 1.953515e+02
      vertex   -7.995584e+01 6.740308e+01 1.957981e+02
      vertex   -8.005572e+01 6.740310e+01 1.959190e+02
    endloop
  endfacet
  facet normal -3.267170e-01 -8.560196e-01 -4.006075e-01
    outer loop
      vertex   -8.061949e+01 6.788387e+01 1.953515e+02
      vertex   -8.005572e+01 6.740310e+01 1.959190e+02
      vertex   -8.017727e+01 6.740311e+01 1.960181e+02
    endloop
  endfacet
  facet normal -2.422870e-01 -8.560318e-01 -4.566253e-01
    outer loop
      vertex   -8.061949e+01 6.788387e+01 1.953515e+02
      vertex   -8.017727e+01 6.740311e+01 1.960181e+02
      vertex   -8.031582e+01 6.740313e+01 1.960915e+02
    endloop
  endfacet
  facet normal -1.485507e-01 -8.560452e-01 -4.950952e-01
    outer loop
      vertex   -8.061949e+01 6.788387e+01 1.953515e+02
      vertex   -8.031582e+01 6.740313e+01 1.960915e+02
      vertex   -8.046604e+01 6.740315e+01 1.961366e+02
    endloop
  endfacet
  facet normal -4.911039e-02 -8.560595e-01 -5.145389e-01
    outer loop
      vertex   -8.061949e+01 6.788387e+01 1.953515e+02
      vertex   -8.046604e+01 6.740315e+01 1.961366e+02
      vertex   -8.062217e+01 6.740318e+01 1.961514e+02
    endloop
  endfacet
  facet normal 5.221244e-02 -8.560741e-01 -5.142091e-01
    outer loop
      vertex   -8.077819e+01 6.740320e+01 1.961356e+02
      vertex   -8.061949e+01 6.788387e+01 1.953515e+02
      vertex   -8.062217e+01 6.740318e+01 1.961514e+02
    endloop
  endfacet
  facet normal 1.515240e-01 -8.560884e-01 -4.941185e-01
    outer loop
      vertex   -8.077819e+01 6.740320e+01 1.961356e+02
      vertex   -8.092811e+01 6.740322e+01 1.960896e+02
      vertex   -8.061949e+01 6.788387e+01 1.953515e+02
    endloop
  endfacet
  facet normal 2.450079e-01 -8.561018e-01 -4.550393e-01
    outer loop
      vertex   -8.092811e+01 6.740322e+01 1.960896e+02
      vertex   -8.106618e+01 6.740324e+01 1.960152e+02
      vertex   -8.061949e+01 6.788387e+01 1.953515e+02
    endloop
  endfacet
  facet normal 3.290716e-01 -8.561139e-01 -3.984732e-01
    outer loop
      vertex   -8.106618e+01 6.740324e+01 1.960152e+02
      vertex   -8.118709e+01 6.740326e+01 1.959153e+02
      vertex   -8.061949e+01 6.788387e+01 1.953515e+02
    endloop
  endfacet
  facet normal 4.004844e-01 -8.561242e-01 -3.265939e-01
    outer loop
      vertex   -8.061949e+01 6.788387e+01 1.953515e+02
      vertex   -8.118709e+01 6.740326e+01 1.959153e+02
      vertex   -8.128618e+01 6.740327e+01 1.957937e+02
    endloop
  endfacet
  facet normal 1.437957e-04 1.000000e+00 3.163463e-13
    outer loop
      vertex   -7.936508e+01 9.920300e+01 1.945222e+02
      vertex   -7.994837e+01 9.920308e+01 1.949092e+02
      vertex   -7.922731e+01 9.920298e+01 1.947819e+02
    endloop
  endfacet
  facet normal 1.437957e-04 1.000000e+00 2.611554e-13
    outer loop
      vertex   -7.936508e+01 9.920300e+01 1.945222e+02
      vertex   -7.955088e+01 9.920302e+01 1.942942e+02
      vertex   -7.994837e+01 9.920308e+01 1.949092e+02
    endloop
  endfacet
  facet normal 1.437957e-04 1.000000e+00 3.025133e-13
    outer loop
      vertex   -7.994837e+01 9.920308e+01 1.949092e+02
      vertex   -7.955088e+01 9.920302e+01 1.942942e+02
      vertex   -8.004747e+01 9.920309e+01 1.947876e+02
    endloop
  endfacet
  facet normal 1.437957e-04 1.000000e+00 2.959815e-13
    outer loop
      vertex   -8.004747e+01 9.920309e+01 1.947876e+02
      vertex   -7.955088e+01 9.920302e+01 1.942942e+02
      vertex   -7.977758e+01 9.920306e+01 1.941070e+02
    endloop
  endfacet
  facet normal 1.437957e-04 1.000000e+00 3.001209e-13
    outer loop
      vertex   -8.016837e+01 9.920311e+01 1.946877e+02
      vertex   -7.977758e+01 9.920306e+01 1.941070e+02
      vertex   -8.003646e+01 9.920309e+01 1.939675e+02
    endloop
  endfacet
  facet normal 1.437957e-04 1.000000e+00 3.060071e-13
    outer loop
      vertex   -8.030644e+01 9.920313e+01 1.946133e+02
      vertex   -8.003646e+01 9.920309e+01 1.939675e+02
      vertex   -8.031757e+01 9.920313e+01 1.938812e+02
    endloop
  endfacet
  facet normal 1.437957e-04 1.000000e+00 2.973798e-13
    outer loop
      vertex   -8.045636e+01 9.920315e+01 1.945673e+02
      vertex   -8.031757e+01 9.920313e+01 1.938812e+02
      vertex   -8.061011e+01 9.920318e+01 1.938515e+02
    endloop
  endfacet
  facet normal 1.437957e-04 1.000000e+00 2.958629e-13
    outer loop
      vertex   -8.061239e+01 9.920318e+01 1.945515e+02
      vertex   -8.061011e+01 9.920318e+01 1.938515e+02
      vertex   -8.090283e+01 9.920322e+01 1.938793e+02
    endloop
  endfacet
  facet normal 1.437957e-04 1.000000e+00 2.990996e-13
    outer loop
      vertex   -8.076851e+01 9.920320e+01 1.945663e+02
      vertex   -8.090283e+01 9.920322e+01 1.938793e+02
      vertex   -8.118450e+01 9.920326e+01 1.939638e+02
    endloop
  endfacet
  facet normal 1.437957e-04 1.000000e+00 3.018707e-13
    outer loop
      vertex   -8.091873e+01 9.920322e+01 1.946114e+02
      vertex   -8.118450e+01 9.920326e+01 1.939638e+02
      vertex   -8.105728e+01 9.920324e+01 1.946848e+02
    endloop
  endfacet
  facet normal 1.437957e-04 1.000000e+00 2.738469e-13
    outer loop
      vertex   -8.091873e+01 9.920322e+01 1.946114e+02
      vertex   -8.076851e+01 9.920320e+01 1.945663e+02
      vertex   -8.118450e+01 9.920326e+01 1.939638e+02
    endloop
  endfacet
  facet normal 1.437957e-04 1.000000e+00 3.062850e-13
    outer loop
      vertex   -7.922731e+01 9.920298e+01 1.947819e+02
      vertex   -7.987489e+01 9.920307e+01 1.950477e+02
      vertex   -7.914287e+01 9.920296e+01 1.950636e+02
    endloop
  endfacet
  facet normal 1.437957e-04 1.000000e+00 3.413504e-13
    outer loop
      vertex   -7.922731e+01 9.920298e+01 1.947819e+02
      vertex   -7.994837e+01 9.920308e+01 1.949092e+02
      vertex   -7.987489e+01 9.920307e+01 1.950477e+02
    endloop
  endfacet
  facet normal 1.437957e-04 1.000000e+00 2.848789e-13
    outer loop
      vertex   -7.914287e+01 9.920296e+01 1.950636e+02
      vertex   -7.982986e+01 9.920306e+01 1.951979e+02
      vertex   -7.911500e+01 9.920296e+01 1.953563e+02
    endloop
  endfacet
  facet normal 1.437957e-04 1.000000e+00 2.491682e-13
    outer loop
      vertex   -7.914287e+01 9.920296e+01 1.950636e+02
      vertex   -7.987489e+01 9.920307e+01 1.950477e+02
      vertex   -7.982986e+01 9.920306e+01 1.951979e+02
    endloop
  endfacet
  facet normal 1.437957e-04 1.000000e+00 2.993831e-13
    outer loop
      vertex   -7.911500e+01 9.920296e+01 1.953563e+02
      vertex   -7.981499e+01 9.920306e+01 1.953541e+02
      vertex   -7.914477e+01 9.920297e+01 1.956489e+02
    endloop
  endfacet
  facet normal 1.437957e-04 1.000000e+00 2.414739e-13
    outer loop
      vertex   -7.911500e+01 9.920296e+01 1.953563e+02
      vertex   -7.982986e+01 9.920306e+01 1.951979e+02
      vertex   -7.981499e+01 9.920306e+01 1.953541e+02
    endloop
  endfacet
  facet normal 1.437957e-04 1.000000e+00 2.985585e-13
    outer loop
      vertex   -8.118450e+01 9.920326e+01 1.939638e+02
      vertex   -8.144428e+01 9.920330e+01 1.941015e+02
      vertex   -8.105728e+01 9.920324e+01 1.946848e+02
    endloop
  endfacet
  facet normal 1.437957e-04 1.000000e+00 2.701323e-13
    outer loop
      vertex   -8.105728e+01 9.920324e+01 1.946848e+02
      vertex   -8.144428e+01 9.920330e+01 1.941015e+02
      vertex   -8.117883e+01 9.920326e+01 1.947839e+02
    endloop
  endfacet
  facet normal 1.437957e-04 1.000000e+00 3.046637e-13
    outer loop
      vertex   -8.117883e+01 9.920326e+01 1.947839e+02
      vertex   -8.144428e+01 9.920330e+01 1.941015e+02
      vertex   -8.167219e+01 9.920333e+01 1.942873e+02
    endloop
  endfacet
  facet normal 1.437957e-04 1.000000e+00 2.769451e-13
    outer loop
      vertex   -8.127871e+01 9.920327e+01 1.949048e+02
      vertex   -8.167219e+01 9.920333e+01 1.942873e+02
      vertex   -8.185947e+01 9.920336e+01 1.945140e+02
    endloop
  endfacet
  facet normal 1.437957e-04 1.000000e+00 3.373948e-13
    outer loop
      vertex   -8.135309e+01 9.920328e+01 1.950429e+02
      vertex   -8.185947e+01 9.920336e+01 1.945140e+02
      vertex   -8.199893e+01 9.920338e+01 1.947729e+02
    endloop
  endfacet
  facet normal 1.437957e-04 1.000000e+00 2.685232e-13
    outer loop
      vertex   -8.139911e+01 9.920329e+01 1.951928e+02
      vertex   -8.199893e+01 9.920338e+01 1.947729e+02
      vertex   -8.208521e+01 9.920339e+01 1.950540e+02
    endloop
  endfacet
  facet normal 1.437957e-04 1.000000e+00 2.993832e-13
    outer loop
      vertex   -8.141498e+01 9.920329e+01 1.953488e+02
      vertex   -8.208521e+01 9.920339e+01 1.950540e+02
      vertex   -8.211498e+01 9.920339e+01 1.953466e+02
    endloop
  endfacet
  facet normal 1.437957e-04 1.000000e+00 2.848789e-13
    outer loop
      vertex   -8.140012e+01 9.920329e+01 1.955050e+02
      vertex   -8.211498e+01 9.920339e+01 1.953466e+02
      vertex   -8.208711e+01 9.920339e+01 1.956393e+02
    endloop
  endfacet
  facet normal 1.437957e-04 1.000000e+00 3.062850e-13
    outer loop
      vertex   -8.135509e+01 9.920328e+01 1.956552e+02
      vertex   -8.208711e+01 9.920339e+01 1.956393e+02
      vertex   -8.200267e+01 9.920338e+01 1.959210e+02
    endloop
  endfacet
  facet normal 1.437957e-04 1.000000e+00 3.163463e-13
    outer loop
      vertex   -8.128161e+01 9.920327e+01 1.957937e+02
      vertex   -8.200267e+01 9.920338e+01 1.959210e+02
      vertex   -8.186490e+01 9.920336e+01 1.961807e+02
    endloop
  endfacet
  facet normal 1.437957e-04 1.000000e+00 2.611554e-13
    outer loop
      vertex   -8.167910e+01 9.920333e+01 1.964087e+02
      vertex   -8.128161e+01 9.920327e+01 1.957937e+02
      vertex   -8.186490e+01 9.920336e+01 1.961807e+02
    endloop
  endfacet
  facet normal 1.437957e-04 1.000000e+00 3.025208e-13
    outer loop
      vertex   -8.167910e+01 9.920333e+01 1.964087e+02
      vertex   -8.118251e+01 9.920326e+01 1.959153e+02
      vertex   -8.128161e+01 9.920327e+01 1.957937e+02
    endloop
  endfacet
  facet normal 1.437957e-04 1.000000e+00 2.959793e-13
    outer loop
      vertex   -8.167910e+01 9.920333e+01 1.964087e+02
      vertex   -8.145240e+01 9.920330e+01 1.965959e+02
      vertex   -8.118251e+01 9.920326e+01 1.959153e+02
    endloop
  endfacet
  facet normal 1.437957e-04 1.000000e+00 2.655553e-13
    outer loop
      vertex   -8.118251e+01 9.920326e+01 1.959153e+02
      vertex   -8.145240e+01 9.920330e+01 1.965959e+02
      vertex   -8.106161e+01 9.920324e+01 1.960152e+02
    endloop
  endfacet
  facet normal 1.437957e-04 1.000000e+00 3.001209e-13
    outer loop
      vertex   -8.106161e+01 9.920324e+01 1.960152e+02
      vertex   -8.145240e+01 9.920330e+01 1.965959e+02
      vertex   -8.119352e+01 9.920326e+01 1.967354e+02
    endloop
  endfacet
  facet normal 1.437957e-04 1.000000e+00 3.060071e-13
    outer loop
      vertex   -8.092354e+01 9.920322e+01 1.960896e+02
      vertex   -8.119352e+01 9.920326e+01 1.967354e+02
      vertex   -8.091241e+01 9.920322e+01 1.968217e+02
    endloop
  endfacet
  facet normal 1.437957e-04 1.000000e+00 2.973798e-13
    outer loop
      vertex   -8.077361e+01 9.920320e+01 1.961356e+02
      vertex   -8.091241e+01 9.920322e+01 1.968217e+02
      vertex   -8.061987e+01 9.920318e+01 1.968514e+02
    endloop
  endfacet
  facet normal 1.437957e-04 1.000000e+00 2.958629e-13
    outer loop
      vertex   -8.061759e+01 9.920318e+01 1.961514e+02
      vertex   -8.061987e+01 9.920318e+01 1.968514e+02
      vertex   -8.032714e+01 9.920314e+01 1.968236e+02
    endloop
  endfacet
  facet normal 1.437957e-04 1.000000e+00 2.990996e-13
    outer loop
      vertex   -8.046147e+01 9.920315e+01 1.961366e+02
      vertex   -8.032714e+01 9.920314e+01 1.968236e+02
      vertex   -8.004548e+01 9.920309e+01 1.967391e+02
    endloop
  endfacet
  facet normal 1.437957e-04 1.000000e+00 2.949513e-13
    outer loop
      vertex   -8.031125e+01 9.920313e+01 1.960915e+02
      vertex   -8.004548e+01 9.920309e+01 1.967391e+02
      vertex   -7.978570e+01 9.920306e+01 1.966014e+02
    endloop
  endfacet
  facet normal 1.437957e-04 1.000000e+00 2.701323e-13
    outer loop
      vertex   -8.017270e+01 9.920311e+01 1.960181e+02
      vertex   -7.978570e+01 9.920306e+01 1.966014e+02
      vertex   -8.005115e+01 9.920310e+01 1.959190e+02
    endloop
  endfacet
  facet normal 1.437957e-04 1.000000e+00 3.086341e-13
    outer loop
      vertex   -8.017270e+01 9.920311e+01 1.960181e+02
      vertex   -8.031125e+01 9.920313e+01 1.960915e+02
      vertex   -7.978570e+01 9.920306e+01 1.966014e+02
    endloop
  endfacet
  facet normal 1.437957e-04 1.000000e+00 3.413505e-13
    outer loop
      vertex   -8.128161e+01 9.920327e+01 1.957937e+02
      vertex   -8.135509e+01 9.920328e+01 1.956552e+02
      vertex   -8.200267e+01 9.920338e+01 1.959210e+02
    endloop
  endfacet
  facet normal 1.437957e-04 1.000000e+00 2.491682e-13
    outer loop
      vertex   -8.135509e+01 9.920328e+01 1.956552e+02
      vertex   -8.140012e+01 9.920329e+01 1.955050e+02
      vertex   -8.208711e+01 9.920339e+01 1.956393e+02
    endloop
  endfacet
  facet normal 1.437957e-04 1.000000e+00 2.414739e-13
    outer loop
      vertex   -8.140012e+01 9.920329e+01 1.955050e+02
      vertex   -8.141498e+01 9.920329e+01 1.953488e+02
      vertex   -8.211498e+01 9.920339e+01 1.953466e+02
    endloop
  endfacet
  facet normal 1.437957e-04 1.000000e+00 3.633224e-13
    outer loop
      vertex   -8.141498e+01 9.920329e+01 1.953488e+02
      vertex   -8.139911e+01 9.920329e+01 1.951928e+02
      vertex   -8.208521e+01 9.920339e+01 1.950540e+02
    endloop
  endfacet
  facet normal 1.437957e-04 1.000000e+00 2.945279e-13
    outer loop
      vertex   -8.139911e+01 9.920329e+01 1.951928e+02
      vertex   -8.135309e+01 9.920328e+01 1.950429e+02
      vertex   -8.199893e+01 9.920338e+01 1.947729e+02
    endloop
  endfacet
  facet normal 1.437957e-04 1.000000e+00 2.495770e-13
    outer loop
      vertex   -8.135309e+01 9.920328e+01 1.950429e+02
      vertex   -8.127871e+01 9.920327e+01 1.949048e+02
      vertex   -8.185947e+01 9.920336e+01 1.945140e+02
    endloop
  endfacet
  facet normal 1.437957e-04 1.000000e+00 3.554179e-13
    outer loop
      vertex   -8.127871e+01 9.920327e+01 1.949048e+02
      vertex   -8.117883e+01 9.920326e+01 1.947839e+02
      vertex   -8.167219e+01 9.920333e+01 1.942873e+02
    endloop
  endfacet
  facet normal 1.437957e-04 1.000000e+00 3.210527e-13
    outer loop
      vertex   -8.076851e+01 9.920320e+01 1.945663e+02
      vertex   -8.061239e+01 9.920318e+01 1.945515e+02
      vertex   -8.090283e+01 9.920322e+01 1.938793e+02
    endloop
  endfacet
  facet normal 1.437957e-04 1.000000e+00 2.960443e-13
    outer loop
      vertex   -8.061239e+01 9.920318e+01 1.945515e+02
      vertex   -8.045636e+01 9.920315e+01 1.945673e+02
      vertex   -8.061011e+01 9.920318e+01 1.938515e+02
    endloop
  endfacet
  facet normal 1.437957e-04 1.000000e+00 3.053316e-13
    outer loop
      vertex   -8.045636e+01 9.920315e+01 1.945673e+02
      vertex   -8.030644e+01 9.920313e+01 1.946133e+02
      vertex   -8.031757e+01 9.920313e+01 1.938812e+02
    endloop
  endfacet
  facet normal 1.437957e-04 1.000000e+00 3.012640e-13
    outer loop
      vertex   -8.030644e+01 9.920313e+01 1.946133e+02
      vertex   -8.016837e+01 9.920311e+01 1.946877e+02
      vertex   -8.003646e+01 9.920309e+01 1.939675e+02
    endloop
  endfacet
  facet normal 1.437957e-04 1.000000e+00 2.655626e-13
    outer loop
      vertex   -8.016837e+01 9.920311e+01 1.946877e+02
      vertex   -8.004747e+01 9.920309e+01 1.947876e+02
      vertex   -7.977758e+01 9.920306e+01 1.941070e+02
    endloop
  endfacet
  facet normal 1.437957e-04 1.000000e+00 3.633224e-13
    outer loop
      vertex   -7.981499e+01 9.920306e+01 1.953541e+02
      vertex   -7.983087e+01 9.920306e+01 1.955101e+02
      vertex   -7.914477e+01 9.920297e+01 1.956489e+02
    endloop
  endfacet
  facet normal 1.437957e-04 1.000000e+00 2.685232e-13
    outer loop
      vertex   -7.914477e+01 9.920297e+01 1.956489e+02
      vertex   -7.983087e+01 9.920306e+01 1.955101e+02
      vertex   -7.923105e+01 9.920298e+01 1.959300e+02
    endloop
  endfacet
  facet normal 1.437957e-04 1.000000e+00 2.945279e-13
    outer loop
      vertex   -7.923105e+01 9.920298e+01 1.959300e+02
      vertex   -7.983087e+01 9.920306e+01 1.955101e+02
      vertex   -7.987689e+01 9.920307e+01 1.956600e+02
    endloop
  endfacet
  facet normal 1.437957e-04 1.000000e+00 2.495770e-13
    outer loop
      vertex   -7.937050e+01 9.920300e+01 1.961889e+02
      vertex   -7.987689e+01 9.920307e+01 1.956600e+02
      vertex   -7.995126e+01 9.920308e+01 1.957981e+02
    endloop
  endfacet
  facet normal 1.437957e-04 1.000000e+00 3.554179e-13
    outer loop
      vertex   -7.955779e+01 9.920302e+01 1.964156e+02
      vertex   -7.995126e+01 9.920308e+01 1.957981e+02
      vertex   -8.005115e+01 9.920310e+01 1.959190e+02
    endloop
  endfacet
  facet normal 1.437957e-04 1.000000e+00 3.046637e-13
    outer loop
      vertex   -7.978570e+01 9.920306e+01 1.966014e+02
      vertex   -7.955779e+01 9.920302e+01 1.964156e+02
      vertex   -8.005115e+01 9.920310e+01 1.959190e+02
    endloop
  endfacet
  facet normal 1.437957e-04 1.000000e+00 2.738469e-13
    outer loop
      vertex   -8.031125e+01 9.920313e+01 1.960915e+02
      vertex   -8.046147e+01 9.920315e+01 1.961366e+02
      vertex   -8.004548e+01 9.920309e+01 1.967391e+02
    endloop
  endfacet
  facet normal 1.437957e-04 1.000000e+00 3.210527e-13
    outer loop
      vertex   -8.046147e+01 9.920315e+01 1.961366e+02
      vertex   -8.061759e+01 9.920318e+01 1.961514e+02
      vertex   -8.032714e+01 9.920314e+01 1.968236e+02
    endloop
  endfacet
  facet normal 1.437957e-04 1.000000e+00 2.960443e-13
    outer loop
      vertex   -8.061759e+01 9.920318e+01 1.961514e+02
      vertex   -8.077361e+01 9.920320e+01 1.961356e+02
      vertex   -8.061987e+01 9.920318e+01 1.968514e+02
    endloop
  endfacet
  facet normal 1.437957e-04 1.000000e+00 3.053316e-13
    outer loop
      vertex   -8.077361e+01 9.920320e+01 1.961356e+02
      vertex   -8.092354e+01 9.920322e+01 1.960896e+02
      vertex   -8.091241e+01 9.920322e+01 1.968217e+02
    endloop
  endfacet
  facet normal 1.437957e-04 1.000000e+00 3.012640e-13
    outer loop
      vertex   -8.092354e+01 9.920322e+01 1.960896e+02
      vertex   -8.106161e+01 9.920324e+01 1.960152e+02
      vertex   -8.119352e+01 9.920326e+01 1.967354e+02
    endloop
  endfacet
  facet normal 1.437957e-04 1.000000e+00 3.373948e-13
    outer loop
      vertex   -7.923105e+01 9.920298e+01 1.959300e+02
      vertex   -7.987689e+01 9.920307e+01 1.956600e+02
      vertex   -7.937050e+01 9.920300e+01 1.961889e+02
    endloop
  endfacet
  facet normal 1.437957e-04 1.000000e+00 2.769450e-13
    outer loop
      vertex   -7.937050e+01 9.920300e+01 1.961889e+02
      vertex   -7.995126e+01 9.920308e+01 1.957981e+02
      vertex   -7.955779e+01 9.920302e+01 1.964156e+02
    endloop
  endfacet
  facet normal -7.750711e-01 1.114519e-04 6.318740e-01
    outer loop
      vertex   -7.994897e+01 9.500308e+01 1.949092e+02
      vertex   -7.994837e+01 9.920308e+01 1.949092e+02
      vertex   -8.004807e+01 9.500309e+01 1.947876e+02
    endloop
  endfacet
  facet normal -7.750711e-01 1.114519e-04 6.318740e-01
    outer loop
      vertex   -8.004807e+01 9.500309e+01 1.947876e+02
      vertex   -7.994837e+01 9.920308e+01 1.949092e+02
      vertex   -8.004747e+01 9.920309e+01 1.947876e+02
    endloop
  endfacet
  facet normal -6.369058e-01 9.158434e-05 7.709416e-01
    outer loop
      vertex   -8.016837e+01 9.920311e+01 1.946877e+02
      vertex   -8.004807e+01 9.500309e+01 1.947876e+02
      vertex   -8.004747e+01 9.920309e+01 1.947876e+02
    endloop
  endfacet
  facet normal -6.369058e-01 9.158434e-05 7.709416e-01
    outer loop
      vertex   -8.016837e+01 9.920311e+01 1.946877e+02
      vertex   -8.016897e+01 9.500311e+01 1.946877e+02
      vertex   -8.004807e+01 9.500309e+01 1.947876e+02
    endloop
  endfacet
  facet normal -4.742646e-01 6.819722e-05 8.803824e-01
    outer loop
      vertex   -8.016837e+01 9.920311e+01 1.946877e+02
      vertex   -8.030644e+01 9.920313e+01 1.946133e+02
      vertex   -8.016897e+01 9.500311e+01 1.946877e+02
    endloop
  endfacet
  facet normal -4.742646e-01 6.819722e-05 8.803824e-01
    outer loop
      vertex   -8.016897e+01 9.500311e+01 1.946877e+02
      vertex   -8.030644e+01 9.920313e+01 1.946133e+02
      vertex   -8.030704e+01 9.500313e+01 1.946133e+02
    endloop
  endfacet
  facet normal -2.933976e-01 4.218933e-05 9.559905e-01
    outer loop
      vertex   -8.030704e+01 9.500313e+01 1.946133e+02
      vertex   -8.030644e+01 9.920313e+01 1.946133e+02
      vertex   -8.045636e+01 9.920315e+01 1.945673e+02
    endloop
  endfacet
  facet normal -1.012556e-01 1.456012e-05 9.948604e-01
    outer loop
      vertex   -8.045697e+01 9.500315e+01 1.945673e+02
      vertex   -8.045636e+01 9.920315e+01 1.945673e+02
      vertex   -8.061239e+01 9.920318e+01 1.945515e+02
    endloop
  endfacet
  facet normal 9.477763e-02 -1.362862e-05 9.954985e-01
    outer loop
      vertex   -8.061299e+01 9.500318e+01 1.945515e+02
      vertex   -8.061239e+01 9.920318e+01 1.945515e+02
      vertex   -8.076911e+01 9.500320e+01 1.945663e+02
    endloop
  endfacet
  facet normal -1.012556e-01 1.456012e-05 9.948604e-01
    outer loop
      vertex   -8.061299e+01 9.500318e+01 1.945515e+02
      vertex   -8.045697e+01 9.500315e+01 1.945673e+02
      vertex   -8.061239e+01 9.920318e+01 1.945515e+02
    endloop
  endfacet
  facet normal 9.477763e-02 -1.362862e-05 9.954985e-01
    outer loop
      vertex   -8.061239e+01 9.920318e+01 1.945515e+02
      vertex   -8.076851e+01 9.920320e+01 1.945663e+02
      vertex   -8.076911e+01 9.500320e+01 1.945663e+02
    endloop
  endfacet
  facet normal 2.871686e-01 -4.129362e-05 9.578800e-01
    outer loop
      vertex   -8.076911e+01 9.500320e+01 1.945663e+02
      vertex   -8.076851e+01 9.920320e+01 1.945663e+02
      vertex   -8.091873e+01 9.920322e+01 1.946114e+02
    endloop
  endfacet
  facet normal 4.685239e-01 -6.737173e-05 8.834508e-01
    outer loop
      vertex   -8.091933e+01 9.500322e+01 1.946114e+02
      vertex   -8.091873e+01 9.920322e+01 1.946114e+02
      vertex   -8.105728e+01 9.920324e+01 1.946848e+02
    endloop
  endfacet
  facet normal 6.318740e-01 -9.086079e-05 7.750711e-01
    outer loop
      vertex   -8.105788e+01 9.500324e+01 1.946848e+02
      vertex   -8.105728e+01 9.920324e+01 1.946848e+02
      vertex   -8.117883e+01 9.920326e+01 1.947839e+02
    endloop
  endfacet
  facet normal 7.709416e-01 -1.108581e-04 6.369058e-01
    outer loop
      vertex   -8.117943e+01 9.500326e+01 1.947839e+02
      vertex   -8.117883e+01 9.920326e+01 1.947839e+02
      vertex   -8.127871e+01 9.920327e+01 1.949048e+02
    endloop
  endfacet
  facet normal 8.803823e-01 -1.265952e-04 4.742646e-01
    outer loop
      vertex   -8.127932e+01 9.500327e+01 1.949048e+02
      vertex   -8.127871e+01 9.920327e+01 1.949048e+02
      vertex   -8.135370e+01 9.500328e+01 1.950429e+02
    endloop
  endfacet
  facet normal 7.709416e-01 -1.108581e-04 6.369058e-01
    outer loop
      vertex   -8.127932e+01 9.500327e+01 1.949048e+02
      vertex   -8.117943e+01 9.500326e+01 1.947839e+02
      vertex   -8.127871e+01 9.920327e+01 1.949048e+02
    endloop
  endfacet
  facet normal 8.803823e-01 -1.265952e-04 4.742646e-01
    outer loop
      vertex   -8.127871e+01 9.920327e+01 1.949048e+02
      vertex   -8.135309e+01 9.920328e+01 1.950429e+02
      vertex   -8.135370e+01 9.500328e+01 1.950429e+02
    endloop
  endfacet
  facet normal 9.559905e-01 -1.374673e-04 2.933977e-01
    outer loop
      vertex   -8.135370e+01 9.500328e+01 1.950429e+02
      vertex   -8.135309e+01 9.920328e+01 1.950429e+02
      vertex   -8.139911e+01 9.920329e+01 1.951928e+02
    endloop
  endfacet
  facet normal 9.948604e-01 -1.430567e-04 1.012556e-01
    outer loop
      vertex   -8.139971e+01 9.500329e+01 1.951928e+02
      vertex   -8.139911e+01 9.920329e+01 1.951928e+02
      vertex   -8.141498e+01 9.920329e+01 1.953488e+02
    endloop
  endfacet
  facet normal 9.954985e-01 -1.431484e-04 -9.477764e-02
    outer loop
      vertex   -8.141559e+01 9.500329e+01 1.953488e+02
      vertex   -8.141498e+01 9.920329e+01 1.953488e+02
      vertex   -8.140012e+01 9.920329e+01 1.955050e+02
    endloop
  endfacet
  facet normal 9.578800e-01 -1.377391e-04 -2.871686e-01
    outer loop
      vertex   -8.140072e+01 9.500329e+01 1.955050e+02
      vertex   -8.140012e+01 9.920329e+01 1.955050e+02
      vertex   -8.135509e+01 9.920328e+01 1.956552e+02
    endloop
  endfacet
  facet normal 8.834508e-01 -1.270365e-04 -4.685239e-01
    outer loop
      vertex   -8.135569e+01 9.500328e+01 1.956552e+02
      vertex   -8.135509e+01 9.920328e+01 1.956552e+02
      vertex   -8.128221e+01 9.500327e+01 1.957937e+02
    endloop
  endfacet
  facet normal 9.578800e-01 -1.377391e-04 -2.871686e-01
    outer loop
      vertex   -8.135569e+01 9.500328e+01 1.956552e+02
      vertex   -8.140072e+01 9.500329e+01 1.955050e+02
      vertex   -8.135509e+01 9.920328e+01 1.956552e+02
    endloop
  endfacet
  facet normal 8.834508e-01 -1.270365e-04 -4.685239e-01
    outer loop
      vertex   -8.135509e+01 9.920328e+01 1.956552e+02
      vertex   -8.128161e+01 9.920327e+01 1.957937e+02
      vertex   -8.128221e+01 9.500327e+01 1.957937e+02
    endloop
  endfacet
  facet normal 9.954985e-01 -1.431484e-04 -9.477764e-02
    outer loop
      vertex   -8.140072e+01 9.500329e+01 1.955050e+02
      vertex   -8.141559e+01 9.500329e+01 1.953488e+02
      vertex   -8.140012e+01 9.920329e+01 1.955050e+02
    endloop
  endfacet
  facet normal 9.948604e-01 -1.430567e-04 1.012556e-01
    outer loop
      vertex   -8.141559e+01 9.500329e+01 1.953488e+02
      vertex   -8.139971e+01 9.500329e+01 1.951928e+02
      vertex   -8.141498e+01 9.920329e+01 1.953488e+02
    endloop
  endfacet
  facet normal 9.559905e-01 -1.374673e-04 2.933977e-01
    outer loop
      vertex   -8.139971e+01 9.500329e+01 1.951928e+02
      vertex   -8.135370e+01 9.500328e+01 1.950429e+02
      vertex   -8.139911e+01 9.920329e+01 1.951928e+02
    endloop
  endfacet
  facet normal 6.318740e-01 -9.086079e-05 7.750711e-01
    outer loop
      vertex   -8.117943e+01 9.500326e+01 1.947839e+02
      vertex   -8.105788e+01 9.500324e+01 1.946848e+02
      vertex   -8.117883e+01 9.920326e+01 1.947839e+02
    endloop
  endfacet
  facet normal 4.685239e-01 -6.737173e-05 8.834508e-01
    outer loop
      vertex   -8.105788e+01 9.500324e+01 1.946848e+02
      vertex   -8.091933e+01 9.500322e+01 1.946114e+02
      vertex   -8.105728e+01 9.920324e+01 1.946848e+02
    endloop
  endfacet
  facet normal 2.871686e-01 -4.129362e-05 9.578800e-01
    outer loop
      vertex   -8.091933e+01 9.500322e+01 1.946114e+02
      vertex   -8.076911e+01 9.500320e+01 1.945663e+02
      vertex   -8.091873e+01 9.920322e+01 1.946114e+02
    endloop
  endfacet
  facet normal -2.933976e-01 4.218933e-05 9.559905e-01
    outer loop
      vertex   -8.045697e+01 9.500315e+01 1.945673e+02
      vertex   -8.030704e+01 9.500313e+01 1.946133e+02
      vertex   -8.045636e+01 9.920315e+01 1.945673e+02
    endloop
  endfacet
  facet normal 8.834508e-01 -1.270365e-04 -4.685239e-01
    outer loop
      vertex   -8.128618e+01 6.740327e+01 1.957937e+02
      vertex   -8.128678e+01 6.320327e+01 1.957937e+02
      vertex   -8.135966e+01 6.740328e+01 1.956552e+02
    endloop
  endfacet
  facet normal 8.834508e-01 -1.270365e-04 -4.685239e-01
    outer loop
      vertex   -8.135966e+01 6.740328e+01 1.956552e+02
      vertex   -8.128678e+01 6.320327e+01 1.957937e+02
      vertex   -8.136026e+01 6.320328e+01 1.956552e+02
    endloop
  endfacet
  facet normal 9.578800e-01 -1.377391e-04 -2.871686e-01
    outer loop
      vertex   -8.140530e+01 6.320329e+01 1.955050e+02
      vertex   -8.135966e+01 6.740328e+01 1.956552e+02
      vertex   -8.136026e+01 6.320328e+01 1.956552e+02
    endloop
  endfacet
  facet normal 9.578800e-01 -1.377391e-04 -2.871686e-01
    outer loop
      vertex   -8.140530e+01 6.320329e+01 1.955050e+02
      vertex   -8.140469e+01 6.740329e+01 1.955050e+02
      vertex   -8.135966e+01 6.740328e+01 1.956552e+02
    endloop
  endfacet
  facet normal 9.954985e-01 -1.431484e-04 -9.477764e-02
    outer loop
      vertex   -8.140530e+01 6.320329e+01 1.955050e+02
      vertex   -8.142016e+01 6.320329e+01 1.953488e+02
      vertex   -8.140469e+01 6.740329e+01 1.955050e+02
    endloop
  endfacet
  facet normal 9.954985e-01 -1.431484e-04 -9.477764e-02
    outer loop
      vertex   -8.140469e+01 6.740329e+01 1.955050e+02
      vertex   -8.142016e+01 6.320329e+01 1.953488e+02
      vertex   -8.141956e+01 6.740329e+01 1.953488e+02
    endloop
  endfacet
  facet normal 9.948604e-01 -1.430567e-04 1.012556e-01
    outer loop
      vertex   -8.141956e+01 6.740329e+01 1.953488e+02
      vertex   -8.142016e+01 6.320329e+01 1.953488e+02
      vertex   -8.140428e+01 6.320329e+01 1.951928e+02
    endloop
  endfacet
  facet normal 9.559905e-01 -1.374674e-04 2.933977e-01
    outer loop
      vertex   -8.140368e+01 6.740329e+01 1.951928e+02
      vertex   -8.140428e+01 6.320329e+01 1.951928e+02
      vertex   -8.135827e+01 6.320328e+01 1.950429e+02
    endloop
  endfacet
  facet normal 8.803823e-01 -1.265952e-04 4.742646e-01
    outer loop
      vertex   -8.135767e+01 6.740328e+01 1.950429e+02
      vertex   -8.135827e+01 6.320328e+01 1.950429e+02
      vertex   -8.128329e+01 6.740327e+01 1.949048e+02
    endloop
  endfacet
  facet normal 9.559905e-01 -1.374674e-04 2.933977e-01
    outer loop
      vertex   -8.135767e+01 6.740328e+01 1.950429e+02
      vertex   -8.140368e+01 6.740329e+01 1.951928e+02
      vertex   -8.135827e+01 6.320328e+01 1.950429e+02
    endloop
  endfacet
  facet normal 8.803823e-01 -1.265952e-04 4.742646e-01
    outer loop
      vertex   -8.135827e+01 6.320328e+01 1.950429e+02
      vertex   -8.128389e+01 6.320327e+01 1.949048e+02
      vertex   -8.128329e+01 6.740327e+01 1.949048e+02
    endloop
  endfacet
  facet normal 7.709416e-01 -1.108581e-04 6.369058e-01
    outer loop
      vertex   -8.128329e+01 6.740327e+01 1.949048e+02
      vertex   -8.128389e+01 6.320327e+01 1.949048e+02
      vertex   -8.118401e+01 6.320326e+01 1.947839e+02
    endloop
  endfacet
  facet normal 6.318740e-01 -9.086079e-05 7.750711e-01
    outer loop
      vertex   -8.118340e+01 6.740326e+01 1.947839e+02
      vertex   -8.118401e+01 6.320326e+01 1.947839e+02
      vertex   -8.106245e+01 6.320324e+01 1.946848e+02
    endloop
  endfacet
  facet normal 4.685239e-01 -6.737174e-05 8.834508e-01
    outer loop
      vertex   -8.106185e+01 6.740324e+01 1.946848e+02
      vertex   -8.106245e+01 6.320324e+01 1.946848e+02
      vertex   -8.092391e+01 6.320322e+01 1.946114e+02
    endloop
  endfacet
  facet normal 2.871686e-01 -4.129362e-05 9.578800e-01
    outer loop
      vertex   -8.092330e+01 6.740322e+01 1.946114e+02
      vertex   -8.092391e+01 6.320322e+01 1.946114e+02
      vertex   -8.077368e+01 6.320320e+01 1.945663e+02
    endloop
  endfacet
  facet normal 9.477763e-02 -1.362862e-05 9.954985e-01
    outer loop
      vertex   -8.077308e+01 6.740320e+01 1.945663e+02
      vertex   -8.077368e+01 6.320320e+01 1.945663e+02
      vertex   -8.061696e+01 6.740318e+01 1.945515e+02
    endloop
  endfacet
  facet normal 2.871686e-01 -4.129362e-05 9.578800e-01
    outer loop
      vertex   -8.077308e+01 6.740320e+01 1.945663e+02
      vertex   -8.092330e+01 6.740322e+01 1.946114e+02
      vertex   -8.077368e+01 6.320320e+01 1.945663e+02
    endloop
  endfacet
  facet normal 9.477763e-02 -1.362862e-05 9.954985e-01
    outer loop
      vertex   -8.077368e+01 6.320320e+01 1.945663e+02
      vertex   -8.061756e+01 6.320318e+01 1.945515e+02
      vertex   -8.061696e+01 6.740318e+01 1.945515e+02
    endloop
  endfacet
  facet normal -1.012556e-01 1.456012e-05 9.948604e-01
    outer loop
      vertex   -8.061696e+01 6.740318e+01 1.945515e+02
      vertex   -8.061756e+01 6.320318e+01 1.945515e+02
      vertex   -8.046154e+01 6.320315e+01 1.945673e+02
    endloop
  endfacet
  facet normal -2.933976e-01 4.218933e-05 9.559905e-01
    outer loop
      vertex   -8.046094e+01 6.740315e+01 1.945673e+02
      vertex   -8.046154e+01 6.320315e+01 1.945673e+02
      vertex   -8.031162e+01 6.320313e+01 1.946133e+02
    endloop
  endfacet
  facet normal -4.742646e-01 6.819722e-05 8.803824e-01
    outer loop
      vertex   -8.031101e+01 6.740313e+01 1.946133e+02
      vertex   -8.031162e+01 6.320313e+01 1.946133e+02
      vertex   -8.017355e+01 6.320311e+01 1.946877e+02
    endloop
  endfacet
  facet normal -6.369058e-01 9.158433e-05 7.709416e-01
    outer loop
      vertex   -8.017294e+01 6.740311e+01 1.946877e+02
      vertex   -8.017355e+01 6.320311e+01 1.946877e+02
      vertex   -8.005264e+01 6.320310e+01 1.947876e+02
    endloop
  endfacet
  facet normal -7.750711e-01 1.114519e-04 6.318740e-01
    outer loop
      vertex   -8.005204e+01 6.740310e+01 1.947876e+02
      vertex   -8.005264e+01 6.320310e+01 1.947876e+02
      vertex   -7.995294e+01 6.740308e+01 1.949092e+02
    endloop
  endfacet
  facet normal -6.369058e-01 9.158433e-05 7.709416e-01
    outer loop
      vertex   -8.005204e+01 6.740310e+01 1.947876e+02
      vertex   -8.017294e+01 6.740311e+01 1.946877e+02
      vertex   -8.005264e+01 6.320310e+01 1.947876e+02
    endloop
  endfacet
  facet normal -7.750711e-01 1.114519e-04 6.318740e-01
    outer loop
      vertex   -8.005264e+01 6.320310e+01 1.947876e+02
      vertex   -7.995355e+01 6.320308e+01 1.949092e+02
      vertex   -7.995294e+01 6.740308e+01 1.949092e+02
    endloop
  endfacet
  facet normal -4.742646e-01 6.819722e-05 8.803824e-01
    outer loop
      vertex   -8.017294e+01 6.740311e+01 1.946877e+02
      vertex   -8.031101e+01 6.740313e+01 1.946133e+02
      vertex   -8.017355e+01 6.320311e+01 1.946877e+02
    endloop
  endfacet
  facet normal -2.933976e-01 4.218933e-05 9.559905e-01
    outer loop
      vertex   -8.031101e+01 6.740313e+01 1.946133e+02
      vertex   -8.046094e+01 6.740315e+01 1.945673e+02
      vertex   -8.031162e+01 6.320313e+01 1.946133e+02
    endloop
  endfacet
  facet normal -1.012556e-01 1.456012e-05 9.948604e-01
    outer loop
      vertex   -8.046094e+01 6.740315e+01 1.945673e+02
      vertex   -8.061696e+01 6.740318e+01 1.945515e+02
      vertex   -8.046154e+01 6.320315e+01 1.945673e+02
    endloop
  endfacet
  facet normal 4.685239e-01 -6.737174e-05 8.834508e-01
    outer loop
      vertex   -8.092330e+01 6.740322e+01 1.946114e+02
      vertex   -8.106185e+01 6.740324e+01 1.946848e+02
      vertex   -8.092391e+01 6.320322e+01 1.946114e+02
    endloop
  endfacet
  facet normal 6.318740e-01 -9.086079e-05 7.750711e-01
    outer loop
      vertex   -8.106185e+01 6.740324e+01 1.946848e+02
      vertex   -8.118340e+01 6.740326e+01 1.947839e+02
      vertex   -8.106245e+01 6.320324e+01 1.946848e+02
    endloop
  endfacet
  facet normal 7.709416e-01 -1.108581e-04 6.369058e-01
    outer loop
      vertex   -8.118340e+01 6.740326e+01 1.947839e+02
      vertex   -8.128329e+01 6.740327e+01 1.949048e+02
      vertex   -8.118401e+01 6.320326e+01 1.947839e+02
    endloop
  endfacet
  facet normal 9.948604e-01 -1.430567e-04 1.012556e-01
    outer loop
      vertex   -8.140368e+01 6.740329e+01 1.951928e+02
      vertex   -8.141956e+01 6.740329e+01 1.953488e+02
      vertex   -8.140428e+01 6.320329e+01 1.951928e+02
    endloop
  endfacet
  facet normal 4.007306e-01 8.560090e-01 -3.265939e-01
    outer loop
      vertex   -8.128221e+01 9.500327e+01 1.957937e+02
      vertex   -8.118312e+01 9.500326e+01 1.959153e+02
      vertex   -8.061566e+01 9.452249e+01 1.953515e+02
    endloop
  endfacet
  facet normal 3.293178e-01 8.560192e-01 -3.984732e-01
    outer loop
      vertex   -8.061566e+01 9.452249e+01 1.953515e+02
      vertex   -8.118312e+01 9.500326e+01 1.959153e+02
      vertex   -8.106221e+01 9.500324e+01 1.960152e+02
    endloop
  endfacet
  facet normal 2.452541e-01 8.560313e-01 -4.550393e-01
    outer loop
      vertex   -8.092414e+01 9.500322e+01 1.960896e+02
      vertex   -8.061566e+01 9.452249e+01 1.953515e+02
      vertex   -8.106221e+01 9.500324e+01 1.960152e+02
    endloop
  endfacet
  facet normal 1.517702e-01 8.560448e-01 -4.941185e-01
    outer loop
      vertex   -8.092414e+01 9.500322e+01 1.960896e+02
      vertex   -8.077422e+01 9.500320e+01 1.961356e+02
      vertex   -8.061566e+01 9.452249e+01 1.953515e+02
    endloop
  endfacet
  facet normal 5.245863e-02 8.560591e-01 -5.142091e-01
    outer loop
      vertex   -8.077422e+01 9.500320e+01 1.961356e+02
      vertex   -8.061820e+01 9.500318e+01 1.961514e+02
      vertex   -8.061566e+01 9.452249e+01 1.953515e+02
    endloop
  endfacet
  facet normal -4.886420e-02 8.560736e-01 -5.145389e-01
    outer loop
      vertex   -8.061566e+01 9.452249e+01 1.953515e+02
      vertex   -8.061820e+01 9.500318e+01 1.961514e+02
      vertex   -8.046208e+01 9.500315e+01 1.961366e+02
    endloop
  endfacet
  facet normal -1.483045e-01 8.560879e-01 -4.950952e-01
    outer loop
      vertex   -8.061566e+01 9.452249e+01 1.953515e+02
      vertex   -8.046208e+01 9.500315e+01 1.961366e+02
      vertex   -8.031185e+01 9.500313e+01 1.960915e+02
    endloop
  endfacet
  facet normal -2.420408e-01 8.561014e-01 -4.566253e-01
    outer loop
      vertex   -8.061566e+01 9.452249e+01 1.953515e+02
      vertex   -8.031185e+01 9.500313e+01 1.960915e+02
      vertex   -8.017330e+01 9.500311e+01 1.960181e+02
    endloop
  endfacet
  facet normal -3.264708e-01 8.561135e-01 -4.006075e-01
    outer loop
      vertex   -8.061566e+01 9.452249e+01 1.953515e+02
      vertex   -8.017330e+01 9.500311e+01 1.960181e+02
      vertex   -8.005175e+01 9.500310e+01 1.959190e+02
    endloop
  endfacet
  facet normal -3.983501e-01 8.561239e-01 -3.291947e-01
    outer loop
      vertex   -8.061566e+01 9.452249e+01 1.953515e+02
      vertex   -8.005175e+01 9.500310e+01 1.959190e+02
      vertex   -7.995187e+01 9.500308e+01 1.957981e+02
    endloop
  endfacet
  facet normal -4.549162e-01 8.561320e-01 -2.451310e-01
    outer loop
      vertex   -8.061566e+01 9.452249e+01 1.953515e+02
      vertex   -7.995187e+01 9.500308e+01 1.957981e+02
      vertex   -7.987749e+01 9.500307e+01 1.956600e+02
    endloop
  endfacet
  facet normal -4.939954e-01 8.561376e-01 -1.516471e-01
    outer loop
      vertex   -7.983148e+01 9.500306e+01 1.955101e+02
      vertex   -8.061566e+01 9.452249e+01 1.953515e+02
      vertex   -7.987749e+01 9.500307e+01 1.956600e+02
    endloop
  endfacet
  facet normal -5.140860e-01 8.561405e-01 -5.233553e-02
    outer loop
      vertex   -7.983148e+01 9.500306e+01 1.955101e+02
      vertex   -7.981560e+01 9.500306e+01 1.953541e+02
      vertex   -8.061566e+01 9.452249e+01 1.953515e+02
    endloop
  endfacet
  facet normal -5.144158e-01 8.561406e-01 4.898729e-02
    outer loop
      vertex   -7.981560e+01 9.500306e+01 1.953541e+02
      vertex   -7.983046e+01 9.500306e+01 1.951979e+02
      vertex   -8.061566e+01 9.452249e+01 1.953515e+02
    endloop
  endfacet
  facet normal -4.949721e-01 8.561378e-01 1.484276e-01
    outer loop
      vertex   -7.983046e+01 9.500306e+01 1.951979e+02
      vertex   -7.987550e+01 9.500307e+01 1.950477e+02
      vertex   -8.061566e+01 9.452249e+01 1.953515e+02
    endloop
  endfacet
  facet normal -4.565022e-01 8.561322e-01 2.421639e-01
    outer loop
      vertex   -8.061566e+01 9.452249e+01 1.953515e+02
      vertex   -7.987550e+01 9.500307e+01 1.950477e+02
      vertex   -7.994897e+01 9.500308e+01 1.949092e+02
    endloop
  endfacet
  facet normal 4.685239e-01 -6.737173e-05 8.834508e-01
    outer loop
      vertex   -7.979087e+01 6.320306e+01 1.966014e+02
      vertex   -7.978570e+01 9.920306e+01 1.966014e+02
      vertex   -8.005065e+01 6.320310e+01 1.967391e+02
    endloop
  endfacet
  facet normal 4.685239e-01 -6.737173e-05 8.834508e-01
    outer loop
      vertex   -8.005065e+01 6.320310e+01 1.967391e+02
      vertex   -7.978570e+01 9.920306e+01 1.966014e+02
      vertex   -8.004548e+01 9.920309e+01 1.967391e+02
    endloop
  endfacet
  facet normal 2.871686e-01 -4.129362e-05 9.578800e-01
    outer loop
      vertex   -8.032714e+01 9.920314e+01 1.968236e+02
      vertex   -8.005065e+01 6.320310e+01 1.967391e+02
      vertex   -8.004548e+01 9.920309e+01 1.967391e+02
    endloop
  endfacet
  facet normal 2.871686e-01 -4.129362e-05 9.578800e-01
    outer loop
      vertex   -8.032714e+01 9.920314e+01 1.968236e+02
      vertex   -8.033232e+01 6.320314e+01 1.968236e+02
      vertex   -8.005065e+01 6.320310e+01 1.967391e+02
    endloop
  endfacet
  facet normal 9.477763e-02 -1.362862e-05 9.954985e-01
    outer loop
      vertex   -8.032714e+01 9.920314e+01 1.968236e+02
      vertex   -8.061987e+01 9.920318e+01 1.968514e+02
      vertex   -8.033232e+01 6.320314e+01 1.968236e+02
    endloop
  endfacet
  facet normal 9.477763e-02 -1.362862e-05 9.954985e-01
    outer loop
      vertex   -8.033232e+01 6.320314e+01 1.968236e+02
      vertex   -8.061987e+01 9.920318e+01 1.968514e+02
      vertex   -8.062505e+01 6.320318e+01 1.968514e+02
    endloop
  endfacet
  facet normal -1.012556e-01 1.456012e-05 9.948604e-01
    outer loop
      vertex   -8.062505e+01 6.320318e+01 1.968514e+02
      vertex   -8.061987e+01 9.920318e+01 1.968514e+02
      vertex   -8.091241e+01 9.920322e+01 1.968217e+02
    endloop
  endfacet
  facet normal -2.933976e-01 4.218933e-05 9.559905e-01
    outer loop
      vertex   -8.091759e+01 6.320322e+01 1.968217e+02
      vertex   -8.091241e+01 9.920322e+01 1.968217e+02
      vertex   -8.119352e+01 9.920326e+01 1.967354e+02
    endloop
  endfacet
  facet normal -4.742646e-01 6.819722e-05 8.803824e-01
    outer loop
      vertex   -8.119870e+01 6.320326e+01 1.967354e+02
      vertex   -8.119352e+01 9.920326e+01 1.967354e+02
      vertex   -8.145758e+01 6.320330e+01 1.965959e+02
    endloop
  endfacet
  facet normal -2.933976e-01 4.218933e-05 9.559905e-01
    outer loop
      vertex   -8.119870e+01 6.320326e+01 1.967354e+02
      vertex   -8.091759e+01 6.320322e+01 1.968217e+02
      vertex   -8.119352e+01 9.920326e+01 1.967354e+02
    endloop
  endfacet
  facet normal -4.742646e-01 6.819722e-05 8.803824e-01
    outer loop
      vertex   -8.119352e+01 9.920326e+01 1.967354e+02
      vertex   -8.145240e+01 9.920330e+01 1.965959e+02
      vertex   -8.145758e+01 6.320330e+01 1.965959e+02
    endloop
  endfacet
  facet normal -6.369058e-01 9.158434e-05 7.709416e-01
    outer loop
      vertex   -8.145758e+01 6.320330e+01 1.965959e+02
      vertex   -8.145240e+01 9.920330e+01 1.965959e+02
      vertex   -8.167910e+01 9.920333e+01 1.964087e+02
    endloop
  endfacet
  facet normal -7.750711e-01 1.114519e-04 6.318740e-01
    outer loop
      vertex   -8.168427e+01 6.320333e+01 1.964087e+02
      vertex   -8.167910e+01 9.920333e+01 1.964087e+02
      vertex   -8.186490e+01 9.920336e+01 1.961807e+02
    endloop
  endfacet
  facet normal -8.834508e-01 1.270365e-04 4.685239e-01
    outer loop
      vertex   -8.187008e+01 6.320336e+01 1.961807e+02
      vertex   -8.186490e+01 9.920336e+01 1.961807e+02
      vertex   -8.200267e+01 9.920338e+01 1.959210e+02
    endloop
  endfacet
  facet normal -9.578800e-01 1.377391e-04 2.871686e-01
    outer loop
      vertex   -8.200785e+01 6.320338e+01 1.959210e+02
      vertex   -8.200267e+01 9.920338e+01 1.959210e+02
      vertex   -8.208711e+01 9.920339e+01 1.956393e+02
    endloop
  endfacet
  facet normal -9.954985e-01 1.431484e-04 9.477764e-02
    outer loop
      vertex   -8.209229e+01 6.320339e+01 1.956393e+02
      vertex   -8.208711e+01 9.920339e+01 1.956393e+02
      vertex   -8.212016e+01 6.320339e+01 1.953466e+02
    endloop
  endfacet
  facet normal -9.578800e-01 1.377391e-04 2.871686e-01
    outer loop
      vertex   -8.209229e+01 6.320339e+01 1.956393e+02
      vertex   -8.200785e+01 6.320338e+01 1.959210e+02
      vertex   -8.208711e+01 9.920339e+01 1.956393e+02
    endloop
  endfacet
  facet normal -9.954985e-01 1.431484e-04 9.477764e-02
    outer loop
      vertex   -8.208711e+01 9.920339e+01 1.956393e+02
      vertex   -8.211498e+01 9.920339e+01 1.953466e+02
      vertex   -8.212016e+01 6.320339e+01 1.953466e+02
    endloop
  endfacet
  facet normal -9.948604e-01 1.430567e-04 -1.012556e-01
    outer loop
      vertex   -8.212016e+01 6.320339e+01 1.953466e+02
      vertex   -8.211498e+01 9.920339e+01 1.953466e+02
      vertex   -8.208521e+01 9.920339e+01 1.950540e+02
    endloop
  endfacet
  facet normal -9.559905e-01 1.374674e-04 -2.933977e-01
    outer loop
      vertex   -8.209038e+01 6.320339e+01 1.950540e+02
      vertex   -8.208521e+01 9.920339e+01 1.950540e+02
      vertex   -8.199893e+01 9.920338e+01 1.947729e+02
    endloop
  endfacet
  facet normal -8.803823e-01 1.265952e-04 -4.742646e-01
    outer loop
      vertex   -8.200411e+01 6.320338e+01 1.947729e+02
      vertex   -8.199893e+01 9.920338e+01 1.947729e+02
      vertex   -8.185947e+01 9.920336e+01 1.945140e+02
    endloop
  endfacet
  facet normal -7.709416e-01 1.108581e-04 -6.369058e-01
    outer loop
      vertex   -8.186465e+01 6.320336e+01 1.945140e+02
      vertex   -8.185947e+01 9.920336e+01 1.945140e+02
      vertex   -8.167219e+01 9.920333e+01 1.942873e+02
    endloop
  endfacet
  facet normal -6.318740e-01 9.086079e-05 -7.750711e-01
    outer loop
      vertex   -8.167737e+01 6.320333e+01 1.942873e+02
      vertex   -8.167219e+01 9.920333e+01 1.942873e+02
      vertex   -8.144732e+01 7.806170e+01 1.941015e+02
    endloop
  endfacet
  facet normal -6.318740e-01 9.086079e-05 -7.750711e-01
    outer loop
      vertex   -8.144946e+01 6.320330e+01 1.941015e+02
      vertex   -8.167737e+01 6.320333e+01 1.942873e+02
      vertex   -8.144732e+01 7.806170e+01 1.941015e+02
    endloop
  endfacet
  facet normal -6.318740e-01 9.086079e-05 -7.750711e-01
    outer loop
      vertex   -8.167219e+01 9.920333e+01 1.942873e+02
      vertex   -8.144428e+01 9.920330e+01 1.941015e+02
      vertex   -8.144732e+01 7.806170e+01 1.941015e+02
    endloop
  endfacet
  facet normal -7.709416e-01 1.108581e-04 -6.369058e-01
    outer loop
      vertex   -8.167737e+01 6.320333e+01 1.942873e+02
      vertex   -8.186465e+01 6.320336e+01 1.945140e+02
      vertex   -8.167219e+01 9.920333e+01 1.942873e+02
    endloop
  endfacet
  facet normal -8.803823e-01 1.265952e-04 -4.742646e-01
    outer loop
      vertex   -8.186465e+01 6.320336e+01 1.945140e+02
      vertex   -8.200411e+01 6.320338e+01 1.947729e+02
      vertex   -8.185947e+01 9.920336e+01 1.945140e+02
    endloop
  endfacet
  facet normal -9.559905e-01 1.374674e-04 -2.933977e-01
    outer loop
      vertex   -8.200411e+01 6.320338e+01 1.947729e+02
      vertex   -8.209038e+01 6.320339e+01 1.950540e+02
      vertex   -8.199893e+01 9.920338e+01 1.947729e+02
    endloop
  endfacet
  facet normal -9.948604e-01 1.430567e-04 -1.012556e-01
    outer loop
      vertex   -8.209038e+01 6.320339e+01 1.950540e+02
      vertex   -8.212016e+01 6.320339e+01 1.953466e+02
      vertex   -8.208521e+01 9.920339e+01 1.950540e+02
    endloop
  endfacet
  facet normal -8.834508e-01 1.270365e-04 4.685239e-01
    outer loop
      vertex   -8.200785e+01 6.320338e+01 1.959210e+02
      vertex   -8.187008e+01 6.320336e+01 1.961807e+02
      vertex   -8.200267e+01 9.920338e+01 1.959210e+02
    endloop
  endfacet
  facet normal -7.750711e-01 1.114519e-04 6.318740e-01
    outer loop
      vertex   -8.187008e+01 6.320336e+01 1.961807e+02
      vertex   -8.168427e+01 6.320333e+01 1.964087e+02
      vertex   -8.186490e+01 9.920336e+01 1.961807e+02
    endloop
  endfacet
  facet normal -6.369058e-01 9.158434e-05 7.709416e-01
    outer loop
      vertex   -8.168427e+01 6.320333e+01 1.964087e+02
      vertex   -8.145758e+01 6.320330e+01 1.965959e+02
      vertex   -8.167910e+01 9.920333e+01 1.964087e+02
    endloop
  endfacet
  facet normal -1.012556e-01 1.456012e-05 9.948604e-01
    outer loop
      vertex   -8.091759e+01 6.320322e+01 1.968217e+02
      vertex   -8.062505e+01 6.320318e+01 1.968514e+02
      vertex   -8.091241e+01 9.920322e+01 1.968217e+02
    endloop
  endfacet
  facet normal -4.004844e-01 8.561242e-01 3.265939e-01
    outer loop
      vertex   -7.994897e+01 9.500308e+01 1.949092e+02
      vertex   -8.004807e+01 9.500309e+01 1.947876e+02
      vertex   -8.061566e+01 9.452249e+01 1.953515e+02
    endloop
  endfacet
  facet normal -3.290716e-01 8.561139e-01 3.984732e-01
    outer loop
      vertex   -8.061566e+01 9.452249e+01 1.953515e+02
      vertex   -8.004807e+01 9.500309e+01 1.947876e+02
      vertex   -8.016897e+01 9.500311e+01 1.946877e+02
    endloop
  endfacet
  facet normal -2.450079e-01 8.561018e-01 4.550393e-01
    outer loop
      vertex   -8.030704e+01 9.500313e+01 1.946133e+02
      vertex   -8.061566e+01 9.452249e+01 1.953515e+02
      vertex   -8.016897e+01 9.500311e+01 1.946877e+02
    endloop
  endfacet
  facet normal -1.515240e-01 8.560884e-01 4.941185e-01
    outer loop
      vertex   -8.030704e+01 9.500313e+01 1.946133e+02
      vertex   -8.045697e+01 9.500315e+01 1.945673e+02
      vertex   -8.061566e+01 9.452249e+01 1.953515e+02
    endloop
  endfacet
  facet normal -5.221244e-02 8.560741e-01 5.142091e-01
    outer loop
      vertex   -8.045697e+01 9.500315e+01 1.945673e+02
      vertex   -8.061299e+01 9.500318e+01 1.945515e+02
      vertex   -8.061566e+01 9.452249e+01 1.953515e+02
    endloop
  endfacet
  facet normal 4.911039e-02 8.560595e-01 5.145389e-01
    outer loop
      vertex   -8.061566e+01 9.452249e+01 1.953515e+02
      vertex   -8.061299e+01 9.500318e+01 1.945515e+02
      vertex   -8.076911e+01 9.500320e+01 1.945663e+02
    endloop
  endfacet
  facet normal 1.485507e-01 8.560452e-01 4.950952e-01
    outer loop
      vertex   -8.061566e+01 9.452249e+01 1.953515e+02
      vertex   -8.076911e+01 9.500320e+01 1.945663e+02
      vertex   -8.091933e+01 9.500322e+01 1.946114e+02
    endloop
  endfacet
  facet normal 2.422870e-01 8.560318e-01 4.566253e-01
    outer loop
      vertex   -8.061566e+01 9.452249e+01 1.953515e+02
      vertex   -8.091933e+01 9.500322e+01 1.946114e+02
      vertex   -8.105788e+01 9.500324e+01 1.946848e+02
    endloop
  endfacet
  facet normal 3.267170e-01 8.560196e-01 4.006075e-01
    outer loop
      vertex   -8.105788e+01 9.500324e+01 1.946848e+02
      vertex   -8.117943e+01 9.500326e+01 1.947839e+02
      vertex   -8.061566e+01 9.452249e+01 1.953515e+02
    endloop
  endfacet
  facet normal 3.985963e-01 8.560093e-01 3.291947e-01
    outer loop
      vertex   -8.117943e+01 9.500326e+01 1.947839e+02
      vertex   -8.127932e+01 9.500327e+01 1.949048e+02
      vertex   -8.061566e+01 9.452249e+01 1.953515e+02
    endloop
  endfacet
  facet normal 4.551624e-01 8.560011e-01 2.451310e-01
    outer loop
      vertex   -8.127932e+01 9.500327e+01 1.949048e+02
      vertex   -8.135370e+01 9.500328e+01 1.950429e+02
      vertex   -8.061566e+01 9.452249e+01 1.953515e+02
    endloop
  endfacet
  facet normal 4.942416e-01 8.559955e-01 1.516471e-01
    outer loop
      vertex   -8.061566e+01 9.452249e+01 1.953515e+02
      vertex   -8.135370e+01 9.500328e+01 1.950429e+02
      vertex   -8.139971e+01 9.500329e+01 1.951928e+02
    endloop
  endfacet
  facet normal 5.143322e-01 8.559926e-01 5.233553e-02
    outer loop
      vertex   -8.061566e+01 9.452249e+01 1.953515e+02
      vertex   -8.139971e+01 9.500329e+01 1.951928e+02
      vertex   -8.141559e+01 9.500329e+01 1.953488e+02
    endloop
  endfacet
  facet normal 5.146620e-01 8.559926e-01 -4.898729e-02
    outer loop
      vertex   -8.061566e+01 9.452249e+01 1.953515e+02
      vertex   -8.141559e+01 9.500329e+01 1.953488e+02
      vertex   -8.140072e+01 9.500329e+01 1.955050e+02
    endloop
  endfacet
  facet normal 4.952183e-01 8.559954e-01 -1.484276e-01
    outer loop
      vertex   -8.061566e+01 9.452249e+01 1.953515e+02
      vertex   -8.140072e+01 9.500329e+01 1.955050e+02
      vertex   -8.135569e+01 9.500328e+01 1.956552e+02
    endloop
  endfacet
  facet normal 4.567484e-01 8.560009e-01 -2.421639e-01
    outer loop
      vertex   -8.128221e+01 9.500327e+01 1.957937e+02
      vertex   -8.061566e+01 9.452249e+01 1.953515e+02
      vertex   -8.135569e+01 9.500328e+01 1.956552e+02
    endloop
  endfacet
  facet normal 4.831546e-01 -8.527737e-01 -1.983397e-01
    outer loop
      vertex   -8.128618e+01 6.740327e+01 1.957937e+02
      vertex   -8.140469e+01 6.740329e+01 1.955050e+02
      vertex   -8.061949e+01 6.788387e+01 1.953515e+02
    endloop
  endfacet
  facet normal -1.437957e-04 -1.000000e+00 -2.535592e-13
    outer loop
      vertex   -8.128618e+01 6.740327e+01 1.957937e+02
      vertex   -8.135966e+01 6.740328e+01 1.956552e+02
      vertex   -8.140469e+01 6.740329e+01 1.955050e+02
    endloop
  endfacet
  facet normal 5.144158e-01 -8.561406e-01 -4.898729e-02
    outer loop
      vertex   -8.140469e+01 6.740329e+01 1.955050e+02
      vertex   -8.141956e+01 6.740329e+01 1.953488e+02
      vertex   -8.061949e+01 6.788387e+01 1.953515e+02
    endloop
  endfacet
  facet normal 5.140860e-01 -8.561405e-01 5.233553e-02
    outer loop
      vertex   -8.141956e+01 6.740329e+01 1.953488e+02
      vertex   -8.140368e+01 6.740329e+01 1.951928e+02
      vertex   -8.061949e+01 6.788387e+01 1.953515e+02
    endloop
  endfacet
  facet normal 4.939954e-01 -8.561376e-01 1.516471e-01
    outer loop
      vertex   -8.140368e+01 6.740329e+01 1.951928e+02
      vertex   -8.135767e+01 6.740328e+01 1.950429e+02
      vertex   -8.061949e+01 6.788387e+01 1.953515e+02
    endloop
  endfacet
  facet normal 4.549162e-01 -8.561320e-01 2.451310e-01
    outer loop
      vertex   -8.061949e+01 6.788387e+01 1.953515e+02
      vertex   -8.135767e+01 6.740328e+01 1.950429e+02
      vertex   -8.128329e+01 6.740327e+01 1.949048e+02
    endloop
  endfacet
  facet normal 3.983501e-01 -8.561239e-01 3.291947e-01
    outer loop
      vertex   -8.061949e+01 6.788387e+01 1.953515e+02
      vertex   -8.128329e+01 6.740327e+01 1.949048e+02
      vertex   -8.118340e+01 6.740326e+01 1.947839e+02
    endloop
  endfacet
  facet normal 3.264708e-01 -8.561135e-01 4.006075e-01
    outer loop
      vertex   -8.061949e+01 6.788387e+01 1.953515e+02
      vertex   -8.118340e+01 6.740326e+01 1.947839e+02
      vertex   -8.106185e+01 6.740324e+01 1.946848e+02
    endloop
  endfacet
  facet normal 2.420408e-01 -8.561014e-01 4.566253e-01
    outer loop
      vertex   -8.106185e+01 6.740324e+01 1.946848e+02
      vertex   -8.092330e+01 6.740322e+01 1.946114e+02
      vertex   -8.061949e+01 6.788387e+01 1.953515e+02
    endloop
  endfacet
  facet normal 1.483045e-01 -8.560879e-01 4.950952e-01
    outer loop
      vertex   -8.092330e+01 6.740322e+01 1.946114e+02
      vertex   -8.077308e+01 6.740320e+01 1.945663e+02
      vertex   -8.061949e+01 6.788387e+01 1.953515e+02
    endloop
  endfacet
  facet normal 4.886420e-02 -8.560736e-01 5.145389e-01
    outer loop
      vertex   -8.077308e+01 6.740320e+01 1.945663e+02
      vertex   -8.061696e+01 6.740318e+01 1.945515e+02
      vertex   -8.061949e+01 6.788387e+01 1.953515e+02
    endloop
  endfacet
  facet normal -5.245863e-02 -8.560591e-01 5.142091e-01
    outer loop
      vertex   -8.061949e+01 6.788387e+01 1.953515e+02
      vertex   -8.061696e+01 6.740318e+01 1.945515e+02
      vertex   -8.046094e+01 6.740315e+01 1.945673e+02
    endloop
  endfacet
  facet normal -1.517702e-01 -8.560448e-01 4.941185e-01
    outer loop
      vertex   -8.061949e+01 6.788387e+01 1.953515e+02
      vertex   -8.046094e+01 6.740315e+01 1.945673e+02
      vertex   -8.031101e+01 6.740313e+01 1.946133e+02
    endloop
  endfacet
  facet normal -2.452541e-01 -8.560313e-01 4.550393e-01
    outer loop
      vertex   -8.061949e+01 6.788387e+01 1.953515e+02
      vertex   -8.031101e+01 6.740313e+01 1.946133e+02
      vertex   -8.017294e+01 6.740311e+01 1.946877e+02
    endloop
  endfacet
  facet normal -3.293178e-01 -8.560192e-01 3.984732e-01
    outer loop
      vertex   -8.061949e+01 6.788387e+01 1.953515e+02
      vertex   -8.017294e+01 6.740311e+01 1.946877e+02
      vertex   -8.005204e+01 6.740310e+01 1.947876e+02
    endloop
  endfacet
  facet normal -4.007306e-01 -8.560090e-01 3.265939e-01
    outer loop
      vertex   -7.995294e+01 6.740308e+01 1.949092e+02
      vertex   -8.061949e+01 6.788387e+01 1.953515e+02
      vertex   -8.005204e+01 6.740310e+01 1.947876e+02
    endloop
  endfacet
  facet normal -8.834508e-01 1.270365e-04 4.685239e-01
    outer loop
      vertex   -7.994837e+01 9.920308e+01 1.949092e+02
      vertex   -7.994897e+01 9.500308e+01 1.949092e+02
      vertex   -7.987489e+01 9.920307e+01 1.950477e+02
    endloop
  endfacet
  facet normal -8.834508e-01 1.270365e-04 4.685239e-01
    outer loop
      vertex   -7.987489e+01 9.920307e+01 1.950477e+02
      vertex   -7.994897e+01 9.500308e+01 1.949092e+02
      vertex   -7.987550e+01 9.500307e+01 1.950477e+02
    endloop
  endfacet
  facet normal -9.578800e-01 1.377391e-04 2.871686e-01
    outer loop
      vertex   -7.983046e+01 9.500306e+01 1.951979e+02
      vertex   -7.987489e+01 9.920307e+01 1.950477e+02
      vertex   -7.987550e+01 9.500307e+01 1.950477e+02
    endloop
  endfacet
  facet normal -9.578800e-01 1.377391e-04 2.871686e-01
    outer loop
      vertex   -7.983046e+01 9.500306e+01 1.951979e+02
      vertex   -7.982986e+01 9.920306e+01 1.951979e+02
      vertex   -7.987489e+01 9.920307e+01 1.950477e+02
    endloop
  endfacet
  facet normal -9.954985e-01 1.431484e-04 9.477764e-02
    outer loop
      vertex   -7.983046e+01 9.500306e+01 1.951979e+02
      vertex   -7.981560e+01 9.500306e+01 1.953541e+02
      vertex   -7.982986e+01 9.920306e+01 1.951979e+02
    endloop
  endfacet
  facet normal -9.954985e-01 1.431484e-04 9.477764e-02
    outer loop
      vertex   -7.982986e+01 9.920306e+01 1.951979e+02
      vertex   -7.981560e+01 9.500306e+01 1.953541e+02
      vertex   -7.981499e+01 9.920306e+01 1.953541e+02
    endloop
  endfacet
  facet normal -9.948604e-01 1.430567e-04 -1.012556e-01
    outer loop
      vertex   -7.981499e+01 9.920306e+01 1.953541e+02
      vertex   -7.981560e+01 9.500306e+01 1.953541e+02
      vertex   -7.983148e+01 9.500306e+01 1.955101e+02
    endloop
  endfacet
  facet normal -9.559905e-01 1.374674e-04 -2.933977e-01
    outer loop
      vertex   -7.983087e+01 9.920306e+01 1.955101e+02
      vertex   -7.983148e+01 9.500306e+01 1.955101e+02
      vertex   -7.987749e+01 9.500307e+01 1.956600e+02
    endloop
  endfacet
  facet normal -8.803823e-01 1.265952e-04 -4.742646e-01
    outer loop
      vertex   -7.987689e+01 9.920307e+01 1.956600e+02
      vertex   -7.987749e+01 9.500307e+01 1.956600e+02
      vertex   -7.995126e+01 9.920308e+01 1.957981e+02
    endloop
  endfacet
  facet normal -9.559905e-01 1.374674e-04 -2.933977e-01
    outer loop
      vertex   -7.987689e+01 9.920307e+01 1.956600e+02
      vertex   -7.983087e+01 9.920306e+01 1.955101e+02
      vertex   -7.987749e+01 9.500307e+01 1.956600e+02
    endloop
  endfacet
  facet normal -8.803823e-01 1.265952e-04 -4.742646e-01
    outer loop
      vertex   -7.987749e+01 9.500307e+01 1.956600e+02
      vertex   -7.995187e+01 9.500308e+01 1.957981e+02
      vertex   -7.995126e+01 9.920308e+01 1.957981e+02
    endloop
  endfacet
  facet normal -7.709416e-01 1.108581e-04 -6.369058e-01
    outer loop
      vertex   -7.995126e+01 9.920308e+01 1.957981e+02
      vertex   -7.995187e+01 9.500308e+01 1.957981e+02
      vertex   -8.005175e+01 9.500310e+01 1.959190e+02
    endloop
  endfacet
  facet normal -6.318740e-01 9.086079e-05 -7.750711e-01
    outer loop
      vertex   -8.005115e+01 9.920310e+01 1.959190e+02
      vertex   -8.005175e+01 9.500310e+01 1.959190e+02
      vertex   -8.017330e+01 9.500311e+01 1.960181e+02
    endloop
  endfacet
  facet normal -4.685239e-01 6.737174e-05 -8.834508e-01
    outer loop
      vertex   -8.017270e+01 9.920311e+01 1.960181e+02
      vertex   -8.017330e+01 9.500311e+01 1.960181e+02
      vertex   -8.031185e+01 9.500313e+01 1.960915e+02
    endloop
  endfacet
  facet normal -2.871686e-01 4.129362e-05 -9.578800e-01
    outer loop
      vertex   -8.031125e+01 9.920313e+01 1.960915e+02
      vertex   -8.031185e+01 9.500313e+01 1.960915e+02
      vertex   -8.046208e+01 9.500315e+01 1.961366e+02
    endloop
  endfacet
  facet normal -9.477763e-02 1.362862e-05 -9.954985e-01
    outer loop
      vertex   -8.046147e+01 9.920315e+01 1.961366e+02
      vertex   -8.046208e+01 9.500315e+01 1.961366e+02
      vertex   -8.061759e+01 9.920318e+01 1.961514e+02
    endloop
  endfacet
  facet normal -2.871686e-01 4.129362e-05 -9.578800e-01
    outer loop
      vertex   -8.046147e+01 9.920315e+01 1.961366e+02
      vertex   -8.031125e+01 9.920313e+01 1.960915e+02
      vertex   -8.046208e+01 9.500315e+01 1.961366e+02
    endloop
  endfacet
  facet normal -9.477763e-02 1.362862e-05 -9.954985e-01
    outer loop
      vertex   -8.046208e+01 9.500315e+01 1.961366e+02
      vertex   -8.061820e+01 9.500318e+01 1.961514e+02
      vertex   -8.061759e+01 9.920318e+01 1.961514e+02
    endloop
  endfacet
  facet normal 1.012556e-01 -1.456012e-05 -9.948604e-01
    outer loop
      vertex   -8.061759e+01 9.920318e+01 1.961514e+02
      vertex   -8.061820e+01 9.500318e+01 1.961514e+02
      vertex   -8.077422e+01 9.500320e+01 1.961356e+02
    endloop
  endfacet
  facet normal 2.933976e-01 -4.218933e-05 -9.559905e-01
    outer loop
      vertex   -8.077361e+01 9.920320e+01 1.961356e+02
      vertex   -8.077422e+01 9.500320e+01 1.961356e+02
      vertex   -8.092414e+01 9.500322e+01 1.960896e+02
    endloop
  endfacet
  facet normal 4.742646e-01 -6.819722e-05 -8.803824e-01
    outer loop
      vertex   -8.092354e+01 9.920322e+01 1.960896e+02
      vertex   -8.092414e+01 9.500322e+01 1.960896e+02
      vertex   -8.106221e+01 9.500324e+01 1.960152e+02
    endloop
  endfacet
  facet normal 6.369058e-01 -9.158433e-05 -7.709416e-01
    outer loop
      vertex   -8.106161e+01 9.920324e+01 1.960152e+02
      vertex   -8.106221e+01 9.500324e+01 1.960152e+02
      vertex   -8.118312e+01 9.500326e+01 1.959153e+02
    endloop
  endfacet
  facet normal 7.750711e-01 -1.114519e-04 -6.318740e-01
    outer loop
      vertex   -8.118251e+01 9.920326e+01 1.959153e+02
      vertex   -8.118312e+01 9.500326e+01 1.959153e+02
      vertex   -8.128161e+01 9.920327e+01 1.957937e+02
    endloop
  endfacet
  facet normal 6.369058e-01 -9.158433e-05 -7.709416e-01
    outer loop
      vertex   -8.118251e+01 9.920326e+01 1.959153e+02
      vertex   -8.106161e+01 9.920324e+01 1.960152e+02
      vertex   -8.118312e+01 9.500326e+01 1.959153e+02
    endloop
  endfacet
  facet normal 7.750711e-01 -1.114519e-04 -6.318740e-01
    outer loop
      vertex   -8.118312e+01 9.500326e+01 1.959153e+02
      vertex   -8.128221e+01 9.500327e+01 1.957937e+02
      vertex   -8.128161e+01 9.920327e+01 1.957937e+02
    endloop
  endfacet
  facet normal 4.742646e-01 -6.819722e-05 -8.803824e-01
    outer loop
      vertex   -8.106161e+01 9.920324e+01 1.960152e+02
      vertex   -8.092354e+01 9.920322e+01 1.960896e+02
      vertex   -8.106221e+01 9.500324e+01 1.960152e+02
    endloop
  endfacet
  facet normal 2.933976e-01 -4.218933e-05 -9.559905e-01
    outer loop
      vertex   -8.092354e+01 9.920322e+01 1.960896e+02
      vertex   -8.077361e+01 9.920320e+01 1.961356e+02
      vertex   -8.092414e+01 9.500322e+01 1.960896e+02
    endloop
  endfacet
  facet normal 1.012556e-01 -1.456012e-05 -9.948604e-01
    outer loop
      vertex   -8.077361e+01 9.920320e+01 1.961356e+02
      vertex   -8.061759e+01 9.920318e+01 1.961514e+02
      vertex   -8.077422e+01 9.500320e+01 1.961356e+02
    endloop
  endfacet
  facet normal -4.685239e-01 6.737174e-05 -8.834508e-01
    outer loop
      vertex   -8.031125e+01 9.920313e+01 1.960915e+02
      vertex   -8.017270e+01 9.920311e+01 1.960181e+02
      vertex   -8.031185e+01 9.500313e+01 1.960915e+02
    endloop
  endfacet
  facet normal -6.318740e-01 9.086079e-05 -7.750711e-01
    outer loop
      vertex   -8.017270e+01 9.920311e+01 1.960181e+02
      vertex   -8.005115e+01 9.920310e+01 1.959190e+02
      vertex   -8.017330e+01 9.500311e+01 1.960181e+02
    endloop
  endfacet
  facet normal -7.709416e-01 1.108581e-04 -6.369058e-01
    outer loop
      vertex   -8.005115e+01 9.920310e+01 1.959190e+02
      vertex   -7.995126e+01 9.920308e+01 1.957981e+02
      vertex   -8.005175e+01 9.500310e+01 1.959190e+02
    endloop
  endfacet
  facet normal -9.948604e-01 1.430567e-04 -1.012556e-01
    outer loop
      vertex   -7.983087e+01 9.920306e+01 1.955101e+02
      vertex   -7.981499e+01 9.920306e+01 1.953541e+02
      vertex   -7.983148e+01 9.500306e+01 1.955101e+02
    endloop
  endfacet
  facet normal 7.750711e-01 -1.114519e-04 -6.318740e-01
    outer loop
      vertex   -8.128678e+01 6.320327e+01 1.957937e+02
      vertex   -8.128618e+01 6.740327e+01 1.957937e+02
      vertex   -8.118769e+01 6.320326e+01 1.959153e+02
    endloop
  endfacet
  facet normal 7.750711e-01 -1.114519e-04 -6.318740e-01
    outer loop
      vertex   -8.118769e+01 6.320326e+01 1.959153e+02
      vertex   -8.128618e+01 6.740327e+01 1.957937e+02
      vertex   -8.118709e+01 6.740326e+01 1.959153e+02
    endloop
  endfacet
  facet normal 6.369058e-01 -9.158434e-05 -7.709416e-01
    outer loop
      vertex   -8.106618e+01 6.740324e+01 1.960152e+02
      vertex   -8.118769e+01 6.320326e+01 1.959153e+02
      vertex   -8.118709e+01 6.740326e+01 1.959153e+02
    endloop
  endfacet
  facet normal 6.369058e-01 -9.158434e-05 -7.709416e-01
    outer loop
      vertex   -8.106618e+01 6.740324e+01 1.960152e+02
      vertex   -8.106678e+01 6.320324e+01 1.960152e+02
      vertex   -8.118769e+01 6.320326e+01 1.959153e+02
    endloop
  endfacet
  facet normal 4.742646e-01 -6.819722e-05 -8.803824e-01
    outer loop
      vertex   -8.106618e+01 6.740324e+01 1.960152e+02
      vertex   -8.092811e+01 6.740322e+01 1.960896e+02
      vertex   -8.106678e+01 6.320324e+01 1.960152e+02
    endloop
  endfacet
  facet normal 4.742646e-01 -6.819722e-05 -8.803824e-01
    outer loop
      vertex   -8.106678e+01 6.320324e+01 1.960152e+02
      vertex   -8.092811e+01 6.740322e+01 1.960896e+02
      vertex   -8.092872e+01 6.320322e+01 1.960896e+02
    endloop
  endfacet
  facet normal 2.933976e-01 -4.218933e-05 -9.559905e-01
    outer loop
      vertex   -8.092872e+01 6.320322e+01 1.960896e+02
      vertex   -8.092811e+01 6.740322e+01 1.960896e+02
      vertex   -8.077819e+01 6.740320e+01 1.961356e+02
    endloop
  endfacet
  facet normal 1.012556e-01 -1.456012e-05 -9.948604e-01
    outer loop
      vertex   -8.077879e+01 6.320320e+01 1.961356e+02
      vertex   -8.077819e+01 6.740320e+01 1.961356e+02
      vertex   -8.062217e+01 6.740318e+01 1.961514e+02
    endloop
  endfacet
  facet normal -9.477763e-02 1.362862e-05 -9.954985e-01
    outer loop
      vertex   -8.062277e+01 6.320318e+01 1.961514e+02
      vertex   -8.062217e+01 6.740318e+01 1.961514e+02
      vertex   -8.046665e+01 6.320315e+01 1.961366e+02
    endloop
  endfacet
  facet normal 1.012556e-01 -1.456012e-05 -9.948604e-01
    outer loop
      vertex   -8.062277e+01 6.320318e+01 1.961514e+02
      vertex   -8.077879e+01 6.320320e+01 1.961356e+02
      vertex   -8.062217e+01 6.740318e+01 1.961514e+02
    endloop
  endfacet
  facet normal -9.477763e-02 1.362862e-05 -9.954985e-01
    outer loop
      vertex   -8.062217e+01 6.740318e+01 1.961514e+02
      vertex   -8.046604e+01 6.740315e+01 1.961366e+02
      vertex   -8.046665e+01 6.320315e+01 1.961366e+02
    endloop
  endfacet
  facet normal -2.871686e-01 4.129362e-05 -9.578800e-01
    outer loop
      vertex   -8.046665e+01 6.320315e+01 1.961366e+02
      vertex   -8.046604e+01 6.740315e+01 1.961366e+02
      vertex   -8.031582e+01 6.740313e+01 1.960915e+02
    endloop
  endfacet
  facet normal -4.685239e-01 6.737173e-05 -8.834508e-01
    outer loop
      vertex   -8.031643e+01 6.320313e+01 1.960915e+02
      vertex   -8.031582e+01 6.740313e+01 1.960915e+02
      vertex   -8.017727e+01 6.740311e+01 1.960181e+02
    endloop
  endfacet
  facet normal -6.318740e-01 9.086079e-05 -7.750711e-01
    outer loop
      vertex   -8.017788e+01 6.320311e+01 1.960181e+02
      vertex   -8.017727e+01 6.740311e+01 1.960181e+02
      vertex   -8.005572e+01 6.740310e+01 1.959190e+02
    endloop
  endfacet
  facet normal -7.709416e-01 1.108581e-04 -6.369058e-01
    outer loop
      vertex   -8.005632e+01 6.320310e+01 1.959190e+02
      vertex   -8.005572e+01 6.740310e+01 1.959190e+02
      vertex   -7.995584e+01 6.740308e+01 1.957981e+02
    endloop
  endfacet
  facet normal -8.803823e-01 1.265952e-04 -4.742646e-01
    outer loop
      vertex   -7.995644e+01 6.320308e+01 1.957981e+02
      vertex   -7.995584e+01 6.740308e+01 1.957981e+02
      vertex   -7.988206e+01 6.320307e+01 1.956600e+02
    endloop
  endfacet
  facet normal -7.709416e-01 1.108581e-04 -6.369058e-01
    outer loop
      vertex   -7.995644e+01 6.320308e+01 1.957981e+02
      vertex   -8.005632e+01 6.320310e+01 1.959190e+02
      vertex   -7.995584e+01 6.740308e+01 1.957981e+02
    endloop
  endfacet
  facet normal -8.803823e-01 1.265952e-04 -4.742646e-01
    outer loop
      vertex   -7.995584e+01 6.740308e+01 1.957981e+02
      vertex   -7.988146e+01 6.740307e+01 1.956600e+02
      vertex   -7.988206e+01 6.320307e+01 1.956600e+02
    endloop
  endfacet
  facet normal -9.559905e-01 1.374673e-04 -2.933977e-01
    outer loop
      vertex   -7.988206e+01 6.320307e+01 1.956600e+02
      vertex   -7.988146e+01 6.740307e+01 1.956600e+02
      vertex   -7.983545e+01 6.740306e+01 1.955101e+02
    endloop
  endfacet
  facet normal -9.948604e-01 1.430567e-04 -1.012556e-01
    outer loop
      vertex   -7.983605e+01 6.320306e+01 1.955101e+02
      vertex   -7.983545e+01 6.740306e+01 1.955101e+02
      vertex   -7.981957e+01 6.740306e+01 1.953541e+02
    endloop
  endfacet
  facet normal -9.954985e-01 1.431484e-04 9.477764e-02
    outer loop
      vertex   -7.982017e+01 6.320306e+01 1.953541e+02
      vertex   -7.981957e+01 6.740306e+01 1.953541e+02
      vertex   -7.983443e+01 6.740306e+01 1.951979e+02
    endloop
  endfacet
  facet normal -9.578800e-01 1.377391e-04 2.871686e-01
    outer loop
      vertex   -7.983503e+01 6.320306e+01 1.951979e+02
      vertex   -7.983443e+01 6.740306e+01 1.951979e+02
      vertex   -7.987947e+01 6.740307e+01 1.950477e+02
    endloop
  endfacet
  facet normal -8.834508e-01 1.270365e-04 4.685239e-01
    outer loop
      vertex   -7.988007e+01 6.320307e+01 1.950477e+02
      vertex   -7.987947e+01 6.740307e+01 1.950477e+02
      vertex   -7.995355e+01 6.320308e+01 1.949092e+02
    endloop
  endfacet
  facet normal -9.578800e-01 1.377391e-04 2.871686e-01
    outer loop
      vertex   -7.988007e+01 6.320307e+01 1.950477e+02
      vertex   -7.983503e+01 6.320306e+01 1.951979e+02
      vertex   -7.987947e+01 6.740307e+01 1.950477e+02
    endloop
  endfacet
  facet normal -8.834508e-01 1.270365e-04 4.685239e-01
    outer loop
      vertex   -7.987947e+01 6.740307e+01 1.950477e+02
      vertex   -7.995294e+01 6.740308e+01 1.949092e+02
      vertex   -7.995355e+01 6.320308e+01 1.949092e+02
    endloop
  endfacet
  facet normal -9.954985e-01 1.431484e-04 9.477764e-02
    outer loop
      vertex   -7.983503e+01 6.320306e+01 1.951979e+02
      vertex   -7.982017e+01 6.320306e+01 1.953541e+02
      vertex   -7.983443e+01 6.740306e+01 1.951979e+02
    endloop
  endfacet
  facet normal -9.948604e-01 1.430567e-04 -1.012556e-01
    outer loop
      vertex   -7.982017e+01 6.320306e+01 1.953541e+02
      vertex   -7.983605e+01 6.320306e+01 1.955101e+02
      vertex   -7.981957e+01 6.740306e+01 1.953541e+02
    endloop
  endfacet
  facet normal -9.559905e-01 1.374673e-04 -2.933977e-01
    outer loop
      vertex   -7.983605e+01 6.320306e+01 1.955101e+02
      vertex   -7.988206e+01 6.320307e+01 1.956600e+02
      vertex   -7.983545e+01 6.740306e+01 1.955101e+02
    endloop
  endfacet
  facet normal -6.318740e-01 9.086079e-05 -7.750711e-01
    outer loop
      vertex   -8.005632e+01 6.320310e+01 1.959190e+02
      vertex   -8.017788e+01 6.320311e+01 1.960181e+02
      vertex   -8.005572e+01 6.740310e+01 1.959190e+02
    endloop
  endfacet
  facet normal -4.685239e-01 6.737173e-05 -8.834508e-01
    outer loop
      vertex   -8.017788e+01 6.320311e+01 1.960181e+02
      vertex   -8.031643e+01 6.320313e+01 1.960915e+02
      vertex   -8.017727e+01 6.740311e+01 1.960181e+02
    endloop
  endfacet
  facet normal -2.871686e-01 4.129362e-05 -9.578800e-01
    outer loop
      vertex   -8.031643e+01 6.320313e+01 1.960915e+02
      vertex   -8.046665e+01 6.320315e+01 1.961366e+02
      vertex   -8.031582e+01 6.740313e+01 1.960915e+02
    endloop
  endfacet
  facet normal 2.933976e-01 -4.218933e-05 -9.559905e-01
    outer loop
      vertex   -8.077879e+01 6.320320e+01 1.961356e+02
      vertex   -8.092872e+01 6.320322e+01 1.960896e+02
      vertex   -8.077819e+01 6.740320e+01 1.961356e+02
    endloop
  endfacet
endsolid
