solid ascii
  facet normal 1.437957e-04 1.000000e+00 2.985552e-13
    outer loop
      vertex   -4.285392e+01 9.919775e+01 1.685322e+02
      vertex   -4.311370e+01 9.919778e+01 1.686699e+02
      vertex   -4.272670e+01 9.919773e+01 1.692532e+02
    endloop
  endfacet
  facet normal 1.437957e-04 1.000000e+00 3.018658e-13
    outer loop
      vertex   -4.258815e+01 9.919771e+01 1.691797e+02
      vertex   -4.285392e+01 9.919775e+01 1.685322e+02
      vertex   -4.272670e+01 9.919773e+01 1.692532e+02
    endloop
  endfacet
  facet normal 1.437957e-04 1.000000e+00 2.899805e-13
    outer loop
      vertex   -4.258815e+01 9.919771e+01 1.691797e+02
      vertex   -4.257226e+01 9.919771e+01 1.684477e+02
      vertex   -4.285392e+01 9.919775e+01 1.685322e+02
    endloop
  endfacet
  facet normal 1.437957e-04 1.000000e+00 2.909453e-13
    outer loop
      vertex   -4.258815e+01 9.919771e+01 1.691797e+02
      vertex   -4.243793e+01 9.919769e+01 1.691347e+02
      vertex   -4.257226e+01 9.919771e+01 1.684477e+02
    endloop
  endfacet
  facet normal 1.437957e-04 1.000000e+00 3.094042e-13
    outer loop
      vertex   -4.257226e+01 9.919771e+01 1.684477e+02
      vertex   -4.243793e+01 9.919769e+01 1.691347e+02
      vertex   -4.227953e+01 9.919766e+01 1.684198e+02
    endloop
  endfacet
  facet normal 1.437957e-04 1.000000e+00 2.956682e-13
    outer loop
      vertex   -4.227953e+01 9.919766e+01 1.684198e+02
      vertex   -4.243793e+01 9.919769e+01 1.691347e+02
      vertex   -4.228181e+01 9.919766e+01 1.691198e+02
    endloop
  endfacet
  facet normal 1.437957e-04 1.000000e+00 2.985829e-13
    outer loop
      vertex   -4.198699e+01 9.919762e+01 1.684496e+02
      vertex   -4.228181e+01 9.919766e+01 1.691198e+02
      vertex   -4.212579e+01 9.919764e+01 1.691357e+02
    endloop
  endfacet
  facet normal 1.437957e-04 1.000000e+00 3.224024e-13
    outer loop
      vertex   -4.170588e+01 9.919758e+01 1.685359e+02
      vertex   -4.212579e+01 9.919764e+01 1.691357e+02
      vertex   -4.197586e+01 9.919762e+01 1.691817e+02
    endloop
  endfacet
  facet normal 1.437957e-04 1.000000e+00 3.035062e-13
    outer loop
      vertex   -4.144700e+01 9.919754e+01 1.686754e+02
      vertex   -4.197586e+01 9.919762e+01 1.691817e+02
      vertex   -4.183779e+01 9.919760e+01 1.692561e+02
    endloop
  endfacet
  facet normal 1.437957e-04 1.000000e+00 2.400059e-13
    outer loop
      vertex   -4.122031e+01 9.919751e+01 1.688626e+02
      vertex   -4.183779e+01 9.919760e+01 1.692561e+02
      vertex   -4.171689e+01 9.919758e+01 1.693560e+02
    endloop
  endfacet
  facet normal 1.437957e-04 1.000000e+00 3.218458e-13
    outer loop
      vertex   -4.103450e+01 9.919749e+01 1.690905e+02
      vertex   -4.171689e+01 9.919758e+01 1.693560e+02
      vertex   -4.161779e+01 9.919757e+01 1.694776e+02
    endloop
  endfacet
  facet normal 1.437957e-04 1.000000e+00 3.365839e-13
    outer loop
      vertex   -4.154432e+01 9.919756e+01 1.696161e+02
      vertex   -4.103450e+01 9.919749e+01 1.690905e+02
      vertex   -4.161779e+01 9.919757e+01 1.694776e+02
    endloop
  endfacet
  facet normal 1.437957e-04 1.000000e+00 3.188982e-13
    outer loop
      vertex   -4.154432e+01 9.919756e+01 1.696161e+02
      vertex   -4.089673e+01 9.919747e+01 1.693503e+02
      vertex   -4.103450e+01 9.919749e+01 1.690905e+02
    endloop
  endfacet
  facet normal 1.437957e-04 1.000000e+00 2.557391e-13
    outer loop
      vertex   -4.154432e+01 9.919756e+01 1.696161e+02
      vertex   -4.149928e+01 9.919755e+01 1.697663e+02
      vertex   -4.089673e+01 9.919747e+01 1.693503e+02
    endloop
  endfacet
  facet normal 1.437957e-04 1.000000e+00 3.027702e-13
    outer loop
      vertex   -4.089673e+01 9.919747e+01 1.693503e+02
      vertex   -4.149928e+01 9.919755e+01 1.697663e+02
      vertex   -4.081229e+01 9.919745e+01 1.696320e+02
    endloop
  endfacet
  facet normal 1.437957e-04 1.000000e+00 2.431851e-13
    outer loop
      vertex   -4.081229e+01 9.919745e+01 1.696320e+02
      vertex   -4.149928e+01 9.919755e+01 1.697663e+02
      vertex   -4.148442e+01 9.919755e+01 1.699224e+02
    endloop
  endfacet
  facet normal 1.437957e-04 1.000000e+00 3.661498e-13
    outer loop
      vertex   -4.078442e+01 9.919745e+01 1.699247e+02
      vertex   -4.148442e+01 9.919755e+01 1.699224e+02
      vertex   -4.150030e+01 9.919755e+01 1.700785e+02
    endloop
  endfacet
  facet normal 1.437957e-04 1.000000e+00 2.982810e-13
    outer loop
      vertex   -4.081420e+01 9.919745e+01 1.702173e+02
      vertex   -4.150030e+01 9.919755e+01 1.700785e+02
      vertex   -4.154631e+01 9.919756e+01 1.702284e+02
    endloop
  endfacet
  facet normal 1.437957e-04 1.000000e+00 2.253798e-13
    outer loop
      vertex   -4.090047e+01 9.919747e+01 1.704984e+02
      vertex   -4.154631e+01 9.919756e+01 1.702284e+02
      vertex   -4.162069e+01 9.919757e+01 1.703665e+02
    endloop
  endfacet
  facet normal 1.437957e-04 1.000000e+00 3.927804e-13
    outer loop
      vertex   -4.103993e+01 9.919749e+01 1.707572e+02
      vertex   -4.162069e+01 9.919757e+01 1.703665e+02
      vertex   -4.172057e+01 9.919758e+01 1.704874e+02
    endloop
  endfacet
  facet normal 1.437957e-04 1.000000e+00 2.404844e-13
    outer loop
      vertex   -4.122721e+01 9.919751e+01 1.709839e+02
      vertex   -4.172057e+01 9.919758e+01 1.704874e+02
      vertex   -4.184212e+01 9.919760e+01 1.705865e+02
    endloop
  endfacet
  facet normal 1.437957e-04 1.000000e+00 2.985559e-13
    outer loop
      vertex   -4.145512e+01 9.919755e+01 1.711697e+02
      vertex   -4.184212e+01 9.919760e+01 1.705865e+02
      vertex   -4.171490e+01 9.919758e+01 1.713075e+02
    endloop
  endfacet
  facet normal 1.437957e-04 1.000000e+00 3.204698e-13
    outer loop
      vertex   -4.145512e+01 9.919755e+01 1.711697e+02
      vertex   -4.122721e+01 9.919751e+01 1.709839e+02
      vertex   -4.184212e+01 9.919760e+01 1.705865e+02
    endloop
  endfacet
  facet normal 1.437957e-04 1.000000e+00 3.413572e-13
    outer loop
      vertex   -4.295103e+01 9.919776e+01 1.703621e+02
      vertex   -4.302451e+01 9.919777e+01 1.702236e+02
      vertex   -4.367209e+01 9.919786e+01 1.704894e+02
    endloop
  endfacet
  facet normal 1.437957e-04 1.000000e+00 3.163499e-13
    outer loop
      vertex   -4.353432e+01 9.919784e+01 1.707491e+02
      vertex   -4.295103e+01 9.919776e+01 1.703621e+02
      vertex   -4.367209e+01 9.919786e+01 1.704894e+02
    endloop
  endfacet
  facet normal 1.437957e-04 1.000000e+00 3.218522e-13
    outer loop
      vertex   -4.353432e+01 9.919784e+01 1.707491e+02
      vertex   -4.285194e+01 9.919775e+01 1.704837e+02
      vertex   -4.295103e+01 9.919776e+01 1.703621e+02
    endloop
  endfacet
  facet normal 1.437957e-04 1.000000e+00 2.508414e-13
    outer loop
      vertex   -4.353432e+01 9.919784e+01 1.707491e+02
      vertex   -4.334852e+01 9.919782e+01 1.709770e+02
      vertex   -4.285194e+01 9.919775e+01 1.704837e+02
    endloop
  endfacet
  facet normal 1.437957e-04 1.000000e+00 2.400059e-13
    outer loop
      vertex   -4.285194e+01 9.919775e+01 1.704837e+02
      vertex   -4.334852e+01 9.919782e+01 1.709770e+02
      vertex   -4.273103e+01 9.919773e+01 1.705836e+02
    endloop
  endfacet
  facet normal 1.437957e-04 1.000000e+00 3.096149e-13
    outer loop
      vertex   -4.273103e+01 9.919773e+01 1.705836e+02
      vertex   -4.334852e+01 9.919782e+01 1.709770e+02
      vertex   -4.312182e+01 9.919779e+01 1.711643e+02
    endloop
  endfacet
  facet normal 1.437957e-04 1.000000e+00 2.989257e-13
    outer loop
      vertex   -4.259296e+01 9.919771e+01 1.706579e+02
      vertex   -4.312182e+01 9.919779e+01 1.711643e+02
      vertex   -4.286295e+01 9.919775e+01 1.713038e+02
    endloop
  endfacet
  facet normal 1.437957e-04 1.000000e+00 2.969069e-13
    outer loop
      vertex   -4.244304e+01 9.919769e+01 1.707040e+02
      vertex   -4.286295e+01 9.919775e+01 1.713038e+02
      vertex   -4.258184e+01 9.919771e+01 1.713901e+02
    endloop
  endfacet
  facet normal 1.437957e-04 1.000000e+00 2.960274e-13
    outer loop
      vertex   -4.228702e+01 9.919767e+01 1.707198e+02
      vertex   -4.258184e+01 9.919771e+01 1.713901e+02
      vertex   -4.228930e+01 9.919767e+01 1.714198e+02
    endloop
  endfacet
  facet normal 1.437957e-04 1.000000e+00 3.094042e-13
    outer loop
      vertex   -4.213090e+01 9.919764e+01 1.707050e+02
      vertex   -4.228930e+01 9.919767e+01 1.714198e+02
      vertex   -4.199657e+01 9.919762e+01 1.713920e+02
    endloop
  endfacet
  facet normal 1.437957e-04 1.000000e+00 2.899805e-13
    outer loop
      vertex   -4.198067e+01 9.919762e+01 1.706599e+02
      vertex   -4.199657e+01 9.919762e+01 1.713920e+02
      vertex   -4.171490e+01 9.919758e+01 1.713075e+02
    endloop
  endfacet
  facet normal 1.437957e-04 1.000000e+00 3.018658e-13
    outer loop
      vertex   -4.184212e+01 9.919760e+01 1.705865e+02
      vertex   -4.198067e+01 9.919762e+01 1.706599e+02
      vertex   -4.171490e+01 9.919758e+01 1.713075e+02
    endloop
  endfacet
  facet normal 1.437957e-04 1.000000e+00 3.027702e-13
    outer loop
      vertex   -4.367209e+01 9.919786e+01 1.704894e+02
      vertex   -4.306955e+01 9.919778e+01 1.700734e+02
      vertex   -4.375654e+01 9.919788e+01 1.702077e+02
    endloop
  endfacet
  facet normal 1.437957e-04 1.000000e+00 2.557391e-13
    outer loop
      vertex   -4.367209e+01 9.919786e+01 1.704894e+02
      vertex   -4.302451e+01 9.919777e+01 1.702236e+02
      vertex   -4.306955e+01 9.919778e+01 1.700734e+02
    endloop
  endfacet
  facet normal 1.437957e-04 1.000000e+00 2.839799e-13
    outer loop
      vertex   -4.375654e+01 9.919788e+01 1.702077e+02
      vertex   -4.308441e+01 9.919778e+01 1.699172e+02
      vertex   -4.378441e+01 9.919788e+01 1.699150e+02
    endloop
  endfacet
  facet normal 1.437957e-04 1.000000e+00 2.431851e-13
    outer loop
      vertex   -4.375654e+01 9.919788e+01 1.702077e+02
      vertex   -4.306955e+01 9.919778e+01 1.700734e+02
      vertex   -4.308441e+01 9.919778e+01 1.699172e+02
    endloop
  endfacet
  facet normal 1.437957e-04 1.000000e+00 2.978614e-13
    outer loop
      vertex   -4.378441e+01 9.919788e+01 1.699150e+02
      vertex   -4.306853e+01 9.919778e+01 1.697612e+02
      vertex   -4.375463e+01 9.919788e+01 1.696224e+02
    endloop
  endfacet
  facet normal 1.437957e-04 1.000000e+00 3.661498e-13
    outer loop
      vertex   -4.378441e+01 9.919788e+01 1.699150e+02
      vertex   -4.308441e+01 9.919778e+01 1.699172e+02
      vertex   -4.306853e+01 9.919778e+01 1.697612e+02
    endloop
  endfacet
  facet normal 1.437957e-04 1.000000e+00 2.570271e-13
    outer loop
      vertex   -4.122721e+01 9.919751e+01 1.709839e+02
      vertex   -4.103993e+01 9.919749e+01 1.707572e+02
      vertex   -4.172057e+01 9.919758e+01 1.704874e+02
    endloop
  endfacet
  facet normal 1.437957e-04 1.000000e+00 3.502913e-13
    outer loop
      vertex   -4.103993e+01 9.919749e+01 1.707572e+02
      vertex   -4.090047e+01 9.919747e+01 1.704984e+02
      vertex   -4.162069e+01 9.919757e+01 1.703665e+02
    endloop
  endfacet
  facet normal 1.437957e-04 1.000000e+00 2.665349e-13
    outer loop
      vertex   -4.090047e+01 9.919747e+01 1.704984e+02
      vertex   -4.081420e+01 9.919745e+01 1.702173e+02
      vertex   -4.154631e+01 9.919756e+01 1.702284e+02
    endloop
  endfacet
  facet normal 1.437957e-04 1.000000e+00 2.978614e-13
    outer loop
      vertex   -4.081420e+01 9.919745e+01 1.702173e+02
      vertex   -4.078442e+01 9.919745e+01 1.699247e+02
      vertex   -4.150030e+01 9.919755e+01 1.700785e+02
    endloop
  endfacet
  facet normal 1.437957e-04 1.000000e+00 2.839799e-13
    outer loop
      vertex   -4.078442e+01 9.919745e+01 1.699247e+02
      vertex   -4.081229e+01 9.919745e+01 1.696320e+02
      vertex   -4.148442e+01 9.919755e+01 1.699224e+02
    endloop
  endfacet
  facet normal 1.437957e-04 1.000000e+00 2.508414e-13
    outer loop
      vertex   -4.103450e+01 9.919749e+01 1.690905e+02
      vertex   -4.122031e+01 9.919751e+01 1.688626e+02
      vertex   -4.171689e+01 9.919758e+01 1.693560e+02
    endloop
  endfacet
  facet normal 1.437957e-04 1.000000e+00 3.096149e-13
    outer loop
      vertex   -4.122031e+01 9.919751e+01 1.688626e+02
      vertex   -4.144700e+01 9.919754e+01 1.686754e+02
      vertex   -4.183779e+01 9.919760e+01 1.692561e+02
    endloop
  endfacet
  facet normal 1.437957e-04 1.000000e+00 2.989257e-13
    outer loop
      vertex   -4.144700e+01 9.919754e+01 1.686754e+02
      vertex   -4.170588e+01 9.919758e+01 1.685359e+02
      vertex   -4.197586e+01 9.919762e+01 1.691817e+02
    endloop
  endfacet
  facet normal 1.437957e-04 1.000000e+00 2.969069e-13
    outer loop
      vertex   -4.170588e+01 9.919758e+01 1.685359e+02
      vertex   -4.198699e+01 9.919762e+01 1.684496e+02
      vertex   -4.212579e+01 9.919764e+01 1.691357e+02
    endloop
  endfacet
  facet normal 1.437957e-04 1.000000e+00 2.960274e-13
    outer loop
      vertex   -4.198699e+01 9.919762e+01 1.684496e+02
      vertex   -4.227953e+01 9.919766e+01 1.684198e+02
      vertex   -4.228181e+01 9.919766e+01 1.691198e+02
    endloop
  endfacet
  facet normal 1.437957e-04 1.000000e+00 2.982810e-13
    outer loop
      vertex   -4.306853e+01 9.919778e+01 1.697612e+02
      vertex   -4.302252e+01 9.919777e+01 1.696113e+02
      vertex   -4.375463e+01 9.919788e+01 1.696224e+02
    endloop
  endfacet
  facet normal 1.437957e-04 1.000000e+00 2.665348e-13
    outer loop
      vertex   -4.375463e+01 9.919788e+01 1.696224e+02
      vertex   -4.302252e+01 9.919777e+01 1.696113e+02
      vertex   -4.366836e+01 9.919786e+01 1.693413e+02
    endloop
  endfacet
  facet normal 1.437957e-04 1.000000e+00 2.253798e-13
    outer loop
      vertex   -4.366836e+01 9.919786e+01 1.693413e+02
      vertex   -4.302252e+01 9.919777e+01 1.696113e+02
      vertex   -4.294814e+01 9.919776e+01 1.694732e+02
    endloop
  endfacet
  facet normal 1.437957e-04 1.000000e+00 3.927814e-13
    outer loop
      vertex   -4.352890e+01 9.919784e+01 1.690824e+02
      vertex   -4.294814e+01 9.919776e+01 1.694732e+02
      vertex   -4.284825e+01 9.919775e+01 1.693523e+02
    endloop
  endfacet
  facet normal 1.437957e-04 1.000000e+00 2.404844e-13
    outer loop
      vertex   -4.334162e+01 9.919782e+01 1.688557e+02
      vertex   -4.284825e+01 9.919775e+01 1.693523e+02
      vertex   -4.272670e+01 9.919773e+01 1.692532e+02
    endloop
  endfacet
  facet normal 1.437957e-04 1.000000e+00 3.204728e-13
    outer loop
      vertex   -4.311370e+01 9.919778e+01 1.686699e+02
      vertex   -4.334162e+01 9.919782e+01 1.688557e+02
      vertex   -4.272670e+01 9.919773e+01 1.692532e+02
    endloop
  endfacet
  facet normal 1.437957e-04 1.000000e+00 2.909453e-13
    outer loop
      vertex   -4.198067e+01 9.919762e+01 1.706599e+02
      vertex   -4.213090e+01 9.919764e+01 1.707050e+02
      vertex   -4.199657e+01 9.919762e+01 1.713920e+02
    endloop
  endfacet
  facet normal 1.437957e-04 1.000000e+00 2.956682e-13
    outer loop
      vertex   -4.213090e+01 9.919764e+01 1.707050e+02
      vertex   -4.228702e+01 9.919767e+01 1.707198e+02
      vertex   -4.228930e+01 9.919767e+01 1.714198e+02
    endloop
  endfacet
  facet normal 1.437957e-04 1.000000e+00 2.985829e-13
    outer loop
      vertex   -4.228702e+01 9.919767e+01 1.707198e+02
      vertex   -4.244304e+01 9.919769e+01 1.707040e+02
      vertex   -4.258184e+01 9.919771e+01 1.713901e+02
    endloop
  endfacet
  facet normal 1.437957e-04 1.000000e+00 3.224024e-13
    outer loop
      vertex   -4.244304e+01 9.919769e+01 1.707040e+02
      vertex   -4.259296e+01 9.919771e+01 1.706579e+02
      vertex   -4.286295e+01 9.919775e+01 1.713038e+02
    endloop
  endfacet
  facet normal 1.437957e-04 1.000000e+00 3.035062e-13
    outer loop
      vertex   -4.259296e+01 9.919771e+01 1.706579e+02
      vertex   -4.273103e+01 9.919773e+01 1.705836e+02
      vertex   -4.312182e+01 9.919779e+01 1.711643e+02
    endloop
  endfacet
  facet normal 1.437957e-04 1.000000e+00 3.502949e-13
    outer loop
      vertex   -4.366836e+01 9.919786e+01 1.693413e+02
      vertex   -4.294814e+01 9.919776e+01 1.694732e+02
      vertex   -4.352890e+01 9.919784e+01 1.690824e+02
    endloop
  endfacet
  facet normal 1.437957e-04 1.000000e+00 2.570247e-13
    outer loop
      vertex   -4.284825e+01 9.919775e+01 1.693523e+02
      vertex   -4.334162e+01 9.919782e+01 1.688557e+02
      vertex   -4.352890e+01 9.919784e+01 1.690824e+02
    endloop
  endfacet
  facet normal 4.685239e-01 -6.737173e-05 8.834508e-01
    outer loop
      vertex   -4.146030e+01 6.319755e+01 1.711697e+02
      vertex   -4.145512e+01 9.919755e+01 1.711697e+02
      vertex   -4.172008e+01 6.319758e+01 1.713075e+02
    endloop
  endfacet
  facet normal 4.685239e-01 -6.737173e-05 8.834508e-01
    outer loop
      vertex   -4.172008e+01 6.319758e+01 1.713075e+02
      vertex   -4.145512e+01 9.919755e+01 1.711697e+02
      vertex   -4.171490e+01 9.919758e+01 1.713075e+02
    endloop
  endfacet
  facet normal 2.871686e-01 -4.129362e-05 9.578800e-01
    outer loop
      vertex   -4.199657e+01 9.919762e+01 1.713920e+02
      vertex   -4.172008e+01 6.319758e+01 1.713075e+02
      vertex   -4.171490e+01 9.919758e+01 1.713075e+02
    endloop
  endfacet
  facet normal 2.871686e-01 -4.129362e-05 9.578800e-01
    outer loop
      vertex   -4.199657e+01 9.919762e+01 1.713920e+02
      vertex   -4.200174e+01 6.319762e+01 1.713920e+02
      vertex   -4.172008e+01 6.319758e+01 1.713075e+02
    endloop
  endfacet
  facet normal 9.477763e-02 -1.362862e-05 9.954985e-01
    outer loop
      vertex   -4.199657e+01 9.919762e+01 1.713920e+02
      vertex   -4.228930e+01 9.919767e+01 1.714198e+02
      vertex   -4.200174e+01 6.319762e+01 1.713920e+02
    endloop
  endfacet
  facet normal 9.477763e-02 -1.362862e-05 9.954985e-01
    outer loop
      vertex   -4.200174e+01 6.319762e+01 1.713920e+02
      vertex   -4.228930e+01 9.919767e+01 1.714198e+02
      vertex   -4.229447e+01 6.319767e+01 1.714198e+02
    endloop
  endfacet
  facet normal -1.012556e-01 1.456012e-05 9.948604e-01
    outer loop
      vertex   -4.229447e+01 6.319767e+01 1.714198e+02
      vertex   -4.228930e+01 9.919767e+01 1.714198e+02
      vertex   -4.258184e+01 9.919771e+01 1.713901e+02
    endloop
  endfacet
  facet normal -2.933976e-01 4.218933e-05 9.559905e-01
    outer loop
      vertex   -4.258701e+01 6.319771e+01 1.713901e+02
      vertex   -4.258184e+01 9.919771e+01 1.713901e+02
      vertex   -4.286295e+01 9.919775e+01 1.713038e+02
    endloop
  endfacet
  facet normal -4.742646e-01 6.819722e-05 8.803824e-01
    outer loop
      vertex   -4.286812e+01 6.319775e+01 1.713038e+02
      vertex   -4.286295e+01 9.919775e+01 1.713038e+02
      vertex   -4.312700e+01 6.319779e+01 1.711643e+02
    endloop
  endfacet
  facet normal -2.933976e-01 4.218933e-05 9.559905e-01
    outer loop
      vertex   -4.286812e+01 6.319775e+01 1.713038e+02
      vertex   -4.258701e+01 6.319771e+01 1.713901e+02
      vertex   -4.286295e+01 9.919775e+01 1.713038e+02
    endloop
  endfacet
  facet normal -4.742646e-01 6.819722e-05 8.803824e-01
    outer loop
      vertex   -4.286295e+01 9.919775e+01 1.713038e+02
      vertex   -4.312182e+01 9.919779e+01 1.711643e+02
      vertex   -4.312700e+01 6.319779e+01 1.711643e+02
    endloop
  endfacet
  facet normal -6.369058e-01 9.158434e-05 7.709416e-01
    outer loop
      vertex   -4.312700e+01 6.319779e+01 1.711643e+02
      vertex   -4.312182e+01 9.919779e+01 1.711643e+02
      vertex   -4.334852e+01 9.919782e+01 1.709770e+02
    endloop
  endfacet
  facet normal -7.750711e-01 1.114519e-04 6.318740e-01
    outer loop
      vertex   -4.335370e+01 6.319782e+01 1.709770e+02
      vertex   -4.334852e+01 9.919782e+01 1.709770e+02
      vertex   -4.353432e+01 9.919784e+01 1.707491e+02
    endloop
  endfacet
  facet normal -8.834508e-01 1.270365e-04 4.685239e-01
    outer loop
      vertex   -4.353950e+01 6.319784e+01 1.707491e+02
      vertex   -4.353432e+01 9.919784e+01 1.707491e+02
      vertex   -4.367209e+01 9.919786e+01 1.704894e+02
    endloop
  endfacet
  facet normal -9.578800e-01 1.377391e-04 2.871686e-01
    outer loop
      vertex   -4.367727e+01 6.319786e+01 1.704894e+02
      vertex   -4.367209e+01 9.919786e+01 1.704894e+02
      vertex   -4.375654e+01 9.919788e+01 1.702077e+02
    endloop
  endfacet
  facet normal -9.954985e-01 1.431484e-04 9.477764e-02
    outer loop
      vertex   -4.376171e+01 6.319788e+01 1.702077e+02
      vertex   -4.375654e+01 9.919788e+01 1.702077e+02
      vertex   -4.378958e+01 6.319788e+01 1.699150e+02
    endloop
  endfacet
  facet normal -9.578800e-01 1.377391e-04 2.871686e-01
    outer loop
      vertex   -4.376171e+01 6.319788e+01 1.702077e+02
      vertex   -4.367727e+01 6.319786e+01 1.704894e+02
      vertex   -4.375654e+01 9.919788e+01 1.702077e+02
    endloop
  endfacet
  facet normal -9.954985e-01 1.431484e-04 9.477764e-02
    outer loop
      vertex   -4.375654e+01 9.919788e+01 1.702077e+02
      vertex   -4.378441e+01 9.919788e+01 1.699150e+02
      vertex   -4.378958e+01 6.319788e+01 1.699150e+02
    endloop
  endfacet
  facet normal -9.948604e-01 1.430567e-04 -1.012556e-01
    outer loop
      vertex   -4.378958e+01 6.319788e+01 1.699150e+02
      vertex   -4.378441e+01 9.919788e+01 1.699150e+02
      vertex   -4.375463e+01 9.919788e+01 1.696224e+02
    endloop
  endfacet
  facet normal -9.559905e-01 1.374674e-04 -2.933977e-01
    outer loop
      vertex   -4.375981e+01 6.319788e+01 1.696224e+02
      vertex   -4.375463e+01 9.919788e+01 1.696224e+02
      vertex   -4.366836e+01 9.919786e+01 1.693413e+02
    endloop
  endfacet
  facet normal -8.803823e-01 1.265952e-04 -4.742646e-01
    outer loop
      vertex   -4.367353e+01 6.319786e+01 1.693413e+02
      vertex   -4.366836e+01 9.919786e+01 1.693413e+02
      vertex   -4.352890e+01 9.919784e+01 1.690824e+02
    endloop
  endfacet
  facet normal -7.709416e-01 1.108581e-04 -6.369058e-01
    outer loop
      vertex   -4.353408e+01 6.319784e+01 1.690824e+02
      vertex   -4.352890e+01 9.919784e+01 1.690824e+02
      vertex   -4.334162e+01 9.919782e+01 1.688557e+02
    endloop
  endfacet
  facet normal -6.318740e-01 9.086079e-05 -7.750711e-01
    outer loop
      vertex   -4.334679e+01 6.319782e+01 1.688557e+02
      vertex   -4.334162e+01 9.919782e+01 1.688557e+02
      vertex   -4.311584e+01 8.433938e+01 1.686699e+02
    endloop
  endfacet
  facet normal -6.318740e-01 9.086079e-05 -7.750711e-01
    outer loop
      vertex   -4.311888e+01 6.319778e+01 1.686699e+02
      vertex   -4.334679e+01 6.319782e+01 1.688557e+02
      vertex   -4.311584e+01 8.433938e+01 1.686699e+02
    endloop
  endfacet
  facet normal -6.318740e-01 9.086079e-05 -7.750711e-01
    outer loop
      vertex   -4.334162e+01 9.919782e+01 1.688557e+02
      vertex   -4.311370e+01 9.919778e+01 1.686699e+02
      vertex   -4.311584e+01 8.433938e+01 1.686699e+02
    endloop
  endfacet
  facet normal -7.709416e-01 1.108581e-04 -6.369058e-01
    outer loop
      vertex   -4.334679e+01 6.319782e+01 1.688557e+02
      vertex   -4.353408e+01 6.319784e+01 1.690824e+02
      vertex   -4.334162e+01 9.919782e+01 1.688557e+02
    endloop
  endfacet
  facet normal -8.803823e-01 1.265952e-04 -4.742646e-01
    outer loop
      vertex   -4.353408e+01 6.319784e+01 1.690824e+02
      vertex   -4.367353e+01 6.319786e+01 1.693413e+02
      vertex   -4.352890e+01 9.919784e+01 1.690824e+02
    endloop
  endfacet
  facet normal -9.559905e-01 1.374674e-04 -2.933977e-01
    outer loop
      vertex   -4.367353e+01 6.319786e+01 1.693413e+02
      vertex   -4.375981e+01 6.319788e+01 1.696224e+02
      vertex   -4.366836e+01 9.919786e+01 1.693413e+02
    endloop
  endfacet
  facet normal -9.948604e-01 1.430567e-04 -1.012556e-01
    outer loop
      vertex   -4.375981e+01 6.319788e+01 1.696224e+02
      vertex   -4.378958e+01 6.319788e+01 1.699150e+02
      vertex   -4.375463e+01 9.919788e+01 1.696224e+02
    endloop
  endfacet
  facet normal -8.834508e-01 1.270365e-04 4.685239e-01
    outer loop
      vertex   -4.367727e+01 6.319786e+01 1.704894e+02
      vertex   -4.353950e+01 6.319784e+01 1.707491e+02
      vertex   -4.367209e+01 9.919786e+01 1.704894e+02
    endloop
  endfacet
  facet normal -7.750711e-01 1.114519e-04 6.318740e-01
    outer loop
      vertex   -4.353950e+01 6.319784e+01 1.707491e+02
      vertex   -4.335370e+01 6.319782e+01 1.709770e+02
      vertex   -4.353432e+01 9.919784e+01 1.707491e+02
    endloop
  endfacet
  facet normal -6.369058e-01 9.158434e-05 7.709416e-01
    outer loop
      vertex   -4.335370e+01 6.319782e+01 1.709770e+02
      vertex   -4.312700e+01 6.319779e+01 1.711643e+02
      vertex   -4.334852e+01 9.919782e+01 1.709770e+02
    endloop
  endfacet
  facet normal -1.012556e-01 1.456012e-05 9.948604e-01
    outer loop
      vertex   -4.258701e+01 6.319771e+01 1.713901e+02
      vertex   -4.229447e+01 6.319767e+01 1.714198e+02
      vertex   -4.258184e+01 9.919771e+01 1.713901e+02
    endloop
  endfacet
  facet normal 4.007306e-01 8.560090e-01 -3.265939e-01
    outer loop
      vertex   -4.295164e+01 9.499776e+01 1.703621e+02
      vertex   -4.285254e+01 9.499775e+01 1.704837e+02
      vertex   -4.228509e+01 9.451698e+01 1.699198e+02
    endloop
  endfacet
  facet normal 3.293178e-01 8.560192e-01 -3.984732e-01
    outer loop
      vertex   -4.228509e+01 9.451698e+01 1.699198e+02
      vertex   -4.285254e+01 9.499775e+01 1.704837e+02
      vertex   -4.273164e+01 9.499773e+01 1.705836e+02
    endloop
  endfacet
  facet normal 2.452541e-01 8.560313e-01 -4.550393e-01
    outer loop
      vertex   -4.259357e+01 9.499771e+01 1.706579e+02
      vertex   -4.228509e+01 9.451698e+01 1.699198e+02
      vertex   -4.273164e+01 9.499773e+01 1.705836e+02
    endloop
  endfacet
  facet normal 1.517702e-01 8.560448e-01 -4.941185e-01
    outer loop
      vertex   -4.259357e+01 9.499771e+01 1.706579e+02
      vertex   -4.244364e+01 9.499769e+01 1.707040e+02
      vertex   -4.228509e+01 9.451698e+01 1.699198e+02
    endloop
  endfacet
  facet normal 5.245863e-02 8.560591e-01 -5.142091e-01
    outer loop
      vertex   -4.244364e+01 9.499769e+01 1.707040e+02
      vertex   -4.228762e+01 9.499767e+01 1.707198e+02
      vertex   -4.228509e+01 9.451698e+01 1.699198e+02
    endloop
  endfacet
  facet normal -4.886420e-02 8.560736e-01 -5.145389e-01
    outer loop
      vertex   -4.228509e+01 9.451698e+01 1.699198e+02
      vertex   -4.228762e+01 9.499767e+01 1.707198e+02
      vertex   -4.213150e+01 9.499764e+01 1.707050e+02
    endloop
  endfacet
  facet normal -1.483045e-01 8.560879e-01 -4.950952e-01
    outer loop
      vertex   -4.228509e+01 9.451698e+01 1.699198e+02
      vertex   -4.213150e+01 9.499764e+01 1.707050e+02
      vertex   -4.198128e+01 9.499762e+01 1.706599e+02
    endloop
  endfacet
  facet normal -2.420408e-01 8.561014e-01 -4.566253e-01
    outer loop
      vertex   -4.228509e+01 9.451698e+01 1.699198e+02
      vertex   -4.198128e+01 9.499762e+01 1.706599e+02
      vertex   -4.184273e+01 9.499760e+01 1.705865e+02
    endloop
  endfacet
  facet normal -3.264708e-01 8.561135e-01 -4.006075e-01
    outer loop
      vertex   -4.228509e+01 9.451698e+01 1.699198e+02
      vertex   -4.184273e+01 9.499760e+01 1.705865e+02
      vertex   -4.172118e+01 9.499758e+01 1.704874e+02
    endloop
  endfacet
  facet normal -3.983501e-01 8.561239e-01 -3.291947e-01
    outer loop
      vertex   -4.228509e+01 9.451698e+01 1.699198e+02
      vertex   -4.172118e+01 9.499758e+01 1.704874e+02
      vertex   -4.162129e+01 9.499757e+01 1.703665e+02
    endloop
  endfacet
  facet normal -4.549162e-01 8.561320e-01 -2.451310e-01
    outer loop
      vertex   -4.228509e+01 9.451698e+01 1.699198e+02
      vertex   -4.162129e+01 9.499757e+01 1.703665e+02
      vertex   -4.154691e+01 9.499756e+01 1.702284e+02
    endloop
  endfacet
  facet normal -4.939954e-01 8.561376e-01 -1.516471e-01
    outer loop
      vertex   -4.150090e+01 9.499755e+01 1.700785e+02
      vertex   -4.228509e+01 9.451698e+01 1.699198e+02
      vertex   -4.154691e+01 9.499756e+01 1.702284e+02
    endloop
  endfacet
  facet normal -5.140860e-01 8.561405e-01 -5.233553e-02
    outer loop
      vertex   -4.150090e+01 9.499755e+01 1.700785e+02
      vertex   -4.148502e+01 9.499755e+01 1.699224e+02
      vertex   -4.228509e+01 9.451698e+01 1.699198e+02
    endloop
  endfacet
  facet normal -5.144158e-01 8.561406e-01 4.898729e-02
    outer loop
      vertex   -4.148502e+01 9.499755e+01 1.699224e+02
      vertex   -4.149988e+01 9.499755e+01 1.697663e+02
      vertex   -4.228509e+01 9.451698e+01 1.699198e+02
    endloop
  endfacet
  facet normal -4.949721e-01 8.561378e-01 1.484276e-01
    outer loop
      vertex   -4.149988e+01 9.499755e+01 1.697663e+02
      vertex   -4.154492e+01 9.499756e+01 1.696161e+02
      vertex   -4.228509e+01 9.451698e+01 1.699198e+02
    endloop
  endfacet
  facet normal -4.565022e-01 8.561322e-01 2.421639e-01
    outer loop
      vertex   -4.228509e+01 9.451698e+01 1.699198e+02
      vertex   -4.154492e+01 9.499756e+01 1.696161e+02
      vertex   -4.161840e+01 9.499757e+01 1.694776e+02
    endloop
  endfacet
  facet normal -1.437957e-04 -1.000000e+00 -3.154072e-13
    outer loop
      vertex   -4.353950e+01 6.319784e+01 1.707491e+02
      vertex   -4.295621e+01 6.319776e+01 1.703621e+02
      vertex   -4.335370e+01 6.319782e+01 1.709770e+02
    endloop
  endfacet
  facet normal -1.437957e-04 -1.000000e+00 -2.913342e-13
    outer loop
      vertex   -4.353950e+01 6.319784e+01 1.707491e+02
      vertex   -4.367727e+01 6.319786e+01 1.704894e+02
      vertex   -4.295621e+01 6.319776e+01 1.703621e+02
    endloop
  endfacet
  facet normal -1.437957e-04 -1.000000e+00 -2.475705e-13
    outer loop
      vertex   -4.295621e+01 6.319776e+01 1.703621e+02
      vertex   -4.367727e+01 6.319786e+01 1.704894e+02
      vertex   -4.302969e+01 6.319777e+01 1.702236e+02
    endloop
  endfacet
  facet normal -1.437957e-04 -1.000000e+00 -2.779646e-13
    outer loop
      vertex   -4.302969e+01 6.319777e+01 1.702236e+02
      vertex   -4.367727e+01 6.319786e+01 1.704894e+02
      vertex   -4.376171e+01 6.319788e+01 1.702077e+02
    endloop
  endfacet
  facet normal -1.437957e-04 -1.000000e+00 -3.087117e-13
    outer loop
      vertex   -4.307472e+01 6.319778e+01 1.700734e+02
      vertex   -4.376171e+01 6.319788e+01 1.702077e+02
      vertex   -4.378958e+01 6.319788e+01 1.699150e+02
    endloop
  endfacet
  facet normal -1.437957e-04 -1.000000e+00 -2.983434e-13
    outer loop
      vertex   -4.308959e+01 6.319778e+01 1.699172e+02
      vertex   -4.378958e+01 6.319788e+01 1.699150e+02
      vertex   -4.375981e+01 6.319788e+01 1.696224e+02
    endloop
  endfacet
  facet normal -1.437957e-04 -1.000000e+00 -2.923288e-13
    outer loop
      vertex   -4.307371e+01 6.319778e+01 1.697612e+02
      vertex   -4.375981e+01 6.319788e+01 1.696224e+02
      vertex   -4.367353e+01 6.319786e+01 1.693413e+02
    endloop
  endfacet
  facet normal -1.437957e-04 -1.000000e+00 -2.798630e-13
    outer loop
      vertex   -4.302769e+01 6.319777e+01 1.696113e+02
      vertex   -4.367353e+01 6.319786e+01 1.693413e+02
      vertex   -4.353408e+01 6.319784e+01 1.690824e+02
    endloop
  endfacet
  facet normal -1.437957e-04 -1.000000e+00 -2.977476e-13
    outer loop
      vertex   -4.295332e+01 6.319776e+01 1.694732e+02
      vertex   -4.353408e+01 6.319784e+01 1.690824e+02
      vertex   -4.334679e+01 6.319782e+01 1.688557e+02
    endloop
  endfacet
  facet normal -1.437957e-04 -1.000000e+00 -3.204698e-13
    outer loop
      vertex   -4.285343e+01 6.319775e+01 1.693523e+02
      vertex   -4.334679e+01 6.319782e+01 1.688557e+02
      vertex   -4.273188e+01 6.319773e+01 1.692532e+02
    endloop
  endfacet
  facet normal -1.437957e-04 -1.000000e+00 -2.721582e-13
    outer loop
      vertex   -4.285343e+01 6.319775e+01 1.693523e+02
      vertex   -4.295332e+01 6.319776e+01 1.694732e+02
      vertex   -4.334679e+01 6.319782e+01 1.688557e+02
    endloop
  endfacet
  facet normal -1.437957e-04 -1.000000e+00 -2.944872e-13
    outer loop
      vertex   -4.335370e+01 6.319782e+01 1.709770e+02
      vertex   -4.285711e+01 6.319775e+01 1.704837e+02
      vertex   -4.312700e+01 6.319779e+01 1.711643e+02
    endloop
  endfacet
  facet normal -1.437957e-04 -1.000000e+00 -3.154023e-13
    outer loop
      vertex   -4.335370e+01 6.319782e+01 1.709770e+02
      vertex   -4.295621e+01 6.319776e+01 1.703621e+02
      vertex   -4.285711e+01 6.319775e+01 1.704837e+02
    endloop
  endfacet
  facet normal -1.437957e-04 -1.000000e+00 -2.865662e-13
    outer loop
      vertex   -4.312700e+01 6.319779e+01 1.711643e+02
      vertex   -4.273621e+01 6.319773e+01 1.705836e+02
      vertex   -4.286812e+01 6.319775e+01 1.713038e+02
    endloop
  endfacet
  facet normal -1.437957e-04 -1.000000e+00 -2.909775e-13
    outer loop
      vertex   -4.312700e+01 6.319779e+01 1.711643e+02
      vertex   -4.285711e+01 6.319775e+01 1.704837e+02
      vertex   -4.273621e+01 6.319773e+01 1.705836e+02
    endloop
  endfacet
  facet normal -1.437957e-04 -1.000000e+00 -2.962591e-13
    outer loop
      vertex   -4.286812e+01 6.319775e+01 1.713038e+02
      vertex   -4.259814e+01 6.319771e+01 1.706579e+02
      vertex   -4.258701e+01 6.319771e+01 1.713901e+02
    endloop
  endfacet
  facet normal -1.437957e-04 -1.000000e+00 -2.922844e-13
    outer loop
      vertex   -4.286812e+01 6.319775e+01 1.713038e+02
      vertex   -4.273621e+01 6.319773e+01 1.705836e+02
      vertex   -4.259814e+01 6.319771e+01 1.706579e+02
    endloop
  endfacet
  facet normal -1.437957e-04 -1.000000e+00 -2.991403e-13
    outer loop
      vertex   -4.334679e+01 6.319782e+01 1.688557e+02
      vertex   -4.311888e+01 6.319778e+01 1.686699e+02
      vertex   -4.273188e+01 6.319773e+01 1.692532e+02
    endloop
  endfacet
  facet normal -1.437957e-04 -1.000000e+00 -2.996133e-13
    outer loop
      vertex   -4.273188e+01 6.319773e+01 1.692532e+02
      vertex   -4.311888e+01 6.319778e+01 1.686699e+02
      vertex   -4.259333e+01 6.319771e+01 1.691797e+02
    endloop
  endfacet
  facet normal -1.437957e-04 -1.000000e+00 -3.041701e-13
    outer loop
      vertex   -4.259333e+01 6.319771e+01 1.691797e+02
      vertex   -4.311888e+01 6.319778e+01 1.686699e+02
      vertex   -4.285910e+01 6.319775e+01 1.685322e+02
    endloop
  endfacet
  facet normal -1.437957e-04 -1.000000e+00 -2.893316e-13
    outer loop
      vertex   -4.244311e+01 6.319769e+01 1.691347e+02
      vertex   -4.285910e+01 6.319775e+01 1.685322e+02
      vertex   -4.257744e+01 6.319771e+01 1.684477e+02
    endloop
  endfacet
  facet normal -1.437957e-04 -1.000000e+00 -2.959448e-13
    outer loop
      vertex   -4.228699e+01 6.319766e+01 1.691198e+02
      vertex   -4.257744e+01 6.319771e+01 1.684477e+02
      vertex   -4.228471e+01 6.319766e+01 1.684198e+02
    endloop
  endfacet
  facet normal -1.437957e-04 -1.000000e+00 -2.925654e-13
    outer loop
      vertex   -4.213096e+01 6.319764e+01 1.691357e+02
      vertex   -4.228471e+01 6.319766e+01 1.684198e+02
      vertex   -4.199217e+01 6.319762e+01 1.684496e+02
    endloop
  endfacet
  facet normal -1.437957e-04 -1.000000e+00 -2.962591e-13
    outer loop
      vertex   -4.198104e+01 6.319762e+01 1.691817e+02
      vertex   -4.199217e+01 6.319762e+01 1.684496e+02
      vertex   -4.171106e+01 6.319758e+01 1.685359e+02
    endloop
  endfacet
  facet normal -1.437957e-04 -1.000000e+00 -2.865662e-13
    outer loop
      vertex   -4.184297e+01 6.319760e+01 1.692561e+02
      vertex   -4.171106e+01 6.319758e+01 1.685359e+02
      vertex   -4.145218e+01 6.319754e+01 1.686754e+02
    endloop
  endfacet
  facet normal -1.437957e-04 -1.000000e+00 -2.944872e-13
    outer loop
      vertex   -4.172207e+01 6.319758e+01 1.693560e+02
      vertex   -4.145218e+01 6.319754e+01 1.686754e+02
      vertex   -4.122548e+01 6.319751e+01 1.688626e+02
    endloop
  endfacet
  facet normal -1.437957e-04 -1.000000e+00 -3.154082e-13
    outer loop
      vertex   -4.162297e+01 6.319757e+01 1.694776e+02
      vertex   -4.122548e+01 6.319751e+01 1.688626e+02
      vertex   -4.103968e+01 6.319749e+01 1.690905e+02
    endloop
  endfacet
  facet normal -1.437957e-04 -1.000000e+00 -2.913349e-13
    outer loop
      vertex   -4.090191e+01 6.319747e+01 1.693503e+02
      vertex   -4.162297e+01 6.319757e+01 1.694776e+02
      vertex   -4.103968e+01 6.319749e+01 1.690905e+02
    endloop
  endfacet
  facet normal -1.437957e-04 -1.000000e+00 -2.475646e-13
    outer loop
      vertex   -4.090191e+01 6.319747e+01 1.693503e+02
      vertex   -4.154949e+01 6.319756e+01 1.696161e+02
      vertex   -4.162297e+01 6.319757e+01 1.694776e+02
    endloop
  endfacet
  facet normal -1.437957e-04 -1.000000e+00 -2.779614e-13
    outer loop
      vertex   -4.090191e+01 6.319747e+01 1.693503e+02
      vertex   -4.081747e+01 6.319745e+01 1.696320e+02
      vertex   -4.154949e+01 6.319756e+01 1.696161e+02
    endloop
  endfacet
  facet normal -1.437957e-04 -1.000000e+00 -2.938289e-13
    outer loop
      vertex   -4.154949e+01 6.319756e+01 1.696161e+02
      vertex   -4.081747e+01 6.319745e+01 1.696320e+02
      vertex   -4.150446e+01 6.319755e+01 1.697663e+02
    endloop
  endfacet
  facet normal -1.437957e-04 -1.000000e+00 -3.087152e-13
    outer loop
      vertex   -4.150446e+01 6.319755e+01 1.697663e+02
      vertex   -4.081747e+01 6.319745e+01 1.696320e+02
      vertex   -4.078960e+01 6.319745e+01 1.699247e+02
    endloop
  endfacet
  facet normal -1.437957e-04 -1.000000e+00 -2.983434e-13
    outer loop
      vertex   -4.148959e+01 6.319755e+01 1.699224e+02
      vertex   -4.078960e+01 6.319745e+01 1.699247e+02
      vertex   -4.081937e+01 6.319745e+01 1.702173e+02
    endloop
  endfacet
  facet normal -1.437957e-04 -1.000000e+00 -2.923288e-13
    outer loop
      vertex   -4.150547e+01 6.319755e+01 1.700785e+02
      vertex   -4.081937e+01 6.319745e+01 1.702173e+02
      vertex   -4.090565e+01 6.319747e+01 1.704984e+02
    endloop
  endfacet
  facet normal -1.437957e-04 -1.000000e+00 -2.798630e-13
    outer loop
      vertex   -4.155149e+01 6.319756e+01 1.702284e+02
      vertex   -4.090565e+01 6.319747e+01 1.704984e+02
      vertex   -4.104510e+01 6.319749e+01 1.707572e+02
    endloop
  endfacet
  facet normal -1.437957e-04 -1.000000e+00 -2.977476e-13
    outer loop
      vertex   -4.162586e+01 6.319757e+01 1.703665e+02
      vertex   -4.104510e+01 6.319749e+01 1.707572e+02
      vertex   -4.123239e+01 6.319751e+01 1.709839e+02
    endloop
  endfacet
  facet normal -1.437957e-04 -1.000000e+00 -3.033591e-13
    outer loop
      vertex   -4.172575e+01 6.319758e+01 1.704874e+02
      vertex   -4.123239e+01 6.319751e+01 1.709839e+02
      vertex   -4.146030e+01 6.319755e+01 1.711697e+02
    endloop
  endfacet
  facet normal -1.437957e-04 -1.000000e+00 -2.996146e-13
    outer loop
      vertex   -4.184730e+01 6.319760e+01 1.705865e+02
      vertex   -4.146030e+01 6.319755e+01 1.711697e+02
      vertex   -4.198585e+01 6.319762e+01 1.706599e+02
    endloop
  endfacet
  facet normal -1.437957e-04 -1.000000e+00 -3.125654e-13
    outer loop
      vertex   -4.184730e+01 6.319760e+01 1.705865e+02
      vertex   -4.172575e+01 6.319758e+01 1.704874e+02
      vertex   -4.146030e+01 6.319755e+01 1.711697e+02
    endloop
  endfacet
  facet normal -1.437957e-04 -1.000000e+00 -3.154069e-13
    outer loop
      vertex   -4.162297e+01 6.319757e+01 1.694776e+02
      vertex   -4.172207e+01 6.319758e+01 1.693560e+02
      vertex   -4.122548e+01 6.319751e+01 1.688626e+02
    endloop
  endfacet
  facet normal -1.437957e-04 -1.000000e+00 -2.909775e-13
    outer loop
      vertex   -4.172207e+01 6.319758e+01 1.693560e+02
      vertex   -4.184297e+01 6.319760e+01 1.692561e+02
      vertex   -4.145218e+01 6.319754e+01 1.686754e+02
    endloop
  endfacet
  facet normal -1.437957e-04 -1.000000e+00 -2.922844e-13
    outer loop
      vertex   -4.184297e+01 6.319760e+01 1.692561e+02
      vertex   -4.198104e+01 6.319762e+01 1.691817e+02
      vertex   -4.171106e+01 6.319758e+01 1.685359e+02
    endloop
  endfacet
  facet normal -1.437957e-04 -1.000000e+00 -2.963072e-13
    outer loop
      vertex   -4.198104e+01 6.319762e+01 1.691817e+02
      vertex   -4.213096e+01 6.319764e+01 1.691357e+02
      vertex   -4.199217e+01 6.319762e+01 1.684496e+02
    endloop
  endfacet
  facet normal -1.437957e-04 -1.000000e+00 -2.958990e-13
    outer loop
      vertex   -4.213096e+01 6.319764e+01 1.691357e+02
      vertex   -4.228699e+01 6.319766e+01 1.691198e+02
      vertex   -4.228471e+01 6.319766e+01 1.684198e+02
    endloop
  endfacet
  facet normal -1.437957e-04 -1.000000e+00 -2.934275e-13
    outer loop
      vertex   -4.228699e+01 6.319766e+01 1.691198e+02
      vertex   -4.244311e+01 6.319769e+01 1.691347e+02
      vertex   -4.257744e+01 6.319771e+01 1.684477e+02
    endloop
  endfacet
  facet normal -1.437957e-04 -1.000000e+00 -2.911321e-13
    outer loop
      vertex   -4.244311e+01 6.319769e+01 1.691347e+02
      vertex   -4.259333e+01 6.319771e+01 1.691797e+02
      vertex   -4.285910e+01 6.319775e+01 1.685322e+02
    endloop
  endfacet
  facet normal -1.437957e-04 -1.000000e+00 -3.105982e-13
    outer loop
      vertex   -4.295332e+01 6.319776e+01 1.694732e+02
      vertex   -4.302769e+01 6.319777e+01 1.696113e+02
      vertex   -4.353408e+01 6.319784e+01 1.690824e+02
    endloop
  endfacet
  facet normal -1.437957e-04 -1.000000e+00 -2.585211e-13
    outer loop
      vertex   -4.302769e+01 6.319777e+01 1.696113e+02
      vertex   -4.307371e+01 6.319778e+01 1.697612e+02
      vertex   -4.367353e+01 6.319786e+01 1.693413e+02
    endloop
  endfacet
  facet normal -1.437957e-04 -1.000000e+00 -3.186870e-13
    outer loop
      vertex   -4.307371e+01 6.319778e+01 1.697612e+02
      vertex   -4.308959e+01 6.319778e+01 1.699172e+02
      vertex   -4.375981e+01 6.319788e+01 1.696224e+02
    endloop
  endfacet
  facet normal -1.437957e-04 -1.000000e+00 -3.335128e-13
    outer loop
      vertex   -4.308959e+01 6.319778e+01 1.699172e+02
      vertex   -4.307472e+01 6.319778e+01 1.700734e+02
      vertex   -4.378958e+01 6.319788e+01 1.699150e+02
    endloop
  endfacet
  facet normal -1.437957e-04 -1.000000e+00 -2.938285e-13
    outer loop
      vertex   -4.307472e+01 6.319778e+01 1.700734e+02
      vertex   -4.302969e+01 6.319777e+01 1.702236e+02
      vertex   -4.376171e+01 6.319788e+01 1.702077e+02
    endloop
  endfacet
  facet normal -1.437957e-04 -1.000000e+00 -2.963072e-13
    outer loop
      vertex   -4.259814e+01 6.319771e+01 1.706579e+02
      vertex   -4.244821e+01 6.319769e+01 1.707040e+02
      vertex   -4.258701e+01 6.319771e+01 1.713901e+02
    endloop
  endfacet
  facet normal -1.437957e-04 -1.000000e+00 -2.925654e-13
    outer loop
      vertex   -4.258701e+01 6.319771e+01 1.713901e+02
      vertex   -4.244821e+01 6.319769e+01 1.707040e+02
      vertex   -4.229447e+01 6.319767e+01 1.714198e+02
    endloop
  endfacet
  facet normal -1.437957e-04 -1.000000e+00 -2.958990e-13
    outer loop
      vertex   -4.229447e+01 6.319767e+01 1.714198e+02
      vertex   -4.244821e+01 6.319769e+01 1.707040e+02
      vertex   -4.229219e+01 6.319767e+01 1.707198e+02
    endloop
  endfacet
  facet normal -1.437957e-04 -1.000000e+00 -2.934261e-13
    outer loop
      vertex   -4.200174e+01 6.319762e+01 1.713920e+02
      vertex   -4.229219e+01 6.319767e+01 1.707198e+02
      vertex   -4.213607e+01 6.319764e+01 1.707050e+02
    endloop
  endfacet
  facet normal -1.437957e-04 -1.000000e+00 -2.911322e-13
    outer loop
      vertex   -4.172008e+01 6.319758e+01 1.713075e+02
      vertex   -4.213607e+01 6.319764e+01 1.707050e+02
      vertex   -4.198585e+01 6.319762e+01 1.706599e+02
    endloop
  endfacet
  facet normal -1.437957e-04 -1.000000e+00 -3.041688e-13
    outer loop
      vertex   -4.146030e+01 6.319755e+01 1.711697e+02
      vertex   -4.172008e+01 6.319758e+01 1.713075e+02
      vertex   -4.198585e+01 6.319762e+01 1.706599e+02
    endloop
  endfacet
  facet normal -1.437957e-04 -1.000000e+00 -2.721582e-13
    outer loop
      vertex   -4.172575e+01 6.319758e+01 1.704874e+02
      vertex   -4.162586e+01 6.319757e+01 1.703665e+02
      vertex   -4.123239e+01 6.319751e+01 1.709839e+02
    endloop
  endfacet
  facet normal -1.437957e-04 -1.000000e+00 -3.105982e-13
    outer loop
      vertex   -4.162586e+01 6.319757e+01 1.703665e+02
      vertex   -4.155149e+01 6.319756e+01 1.702284e+02
      vertex   -4.104510e+01 6.319749e+01 1.707572e+02
    endloop
  endfacet
  facet normal -1.437957e-04 -1.000000e+00 -2.585211e-13
    outer loop
      vertex   -4.155149e+01 6.319756e+01 1.702284e+02
      vertex   -4.150547e+01 6.319755e+01 1.700785e+02
      vertex   -4.090565e+01 6.319747e+01 1.704984e+02
    endloop
  endfacet
  facet normal -1.437957e-04 -1.000000e+00 -3.186870e-13
    outer loop
      vertex   -4.150547e+01 6.319755e+01 1.700785e+02
      vertex   -4.148959e+01 6.319755e+01 1.699224e+02
      vertex   -4.081937e+01 6.319745e+01 1.702173e+02
    endloop
  endfacet
  facet normal -1.437957e-04 -1.000000e+00 -3.335128e-13
    outer loop
      vertex   -4.148959e+01 6.319755e+01 1.699224e+02
      vertex   -4.150446e+01 6.319755e+01 1.697663e+02
      vertex   -4.078960e+01 6.319745e+01 1.699247e+02
    endloop
  endfacet
  facet normal -1.437957e-04 -1.000000e+00 -2.959448e-13
    outer loop
      vertex   -4.229447e+01 6.319767e+01 1.714198e+02
      vertex   -4.229219e+01 6.319767e+01 1.707198e+02
      vertex   -4.200174e+01 6.319762e+01 1.713920e+02
    endloop
  endfacet
  facet normal -1.437957e-04 -1.000000e+00 -2.893295e-13
    outer loop
      vertex   -4.200174e+01 6.319762e+01 1.713920e+02
      vertex   -4.213607e+01 6.319764e+01 1.707050e+02
      vertex   -4.172008e+01 6.319758e+01 1.713075e+02
    endloop
  endfacet
  facet normal 8.834508e-01 -1.270365e-04 -4.685239e-01
    outer loop
      vertex   -4.295560e+01 6.739776e+01 1.703621e+02
      vertex   -4.295621e+01 6.319776e+01 1.703621e+02
      vertex   -4.302908e+01 6.739777e+01 1.702236e+02
    endloop
  endfacet
  facet normal 8.834508e-01 -1.270365e-04 -4.685239e-01
    outer loop
      vertex   -4.302908e+01 6.739777e+01 1.702236e+02
      vertex   -4.295621e+01 6.319776e+01 1.703621e+02
      vertex   -4.302969e+01 6.319777e+01 1.702236e+02
    endloop
  endfacet
  facet normal 9.578800e-01 -1.377391e-04 -2.871686e-01
    outer loop
      vertex   -4.307472e+01 6.319778e+01 1.700734e+02
      vertex   -4.302908e+01 6.739777e+01 1.702236e+02
      vertex   -4.302969e+01 6.319777e+01 1.702236e+02
    endloop
  endfacet
  facet normal 9.578800e-01 -1.377391e-04 -2.871686e-01
    outer loop
      vertex   -4.307472e+01 6.319778e+01 1.700734e+02
      vertex   -4.307412e+01 6.739778e+01 1.700734e+02
      vertex   -4.302908e+01 6.739777e+01 1.702236e+02
    endloop
  endfacet
  facet normal 9.954985e-01 -1.431484e-04 -9.477764e-02
    outer loop
      vertex   -4.307472e+01 6.319778e+01 1.700734e+02
      vertex   -4.308959e+01 6.319778e+01 1.699172e+02
      vertex   -4.307412e+01 6.739778e+01 1.700734e+02
    endloop
  endfacet
  facet normal 9.954985e-01 -1.431484e-04 -9.477764e-02
    outer loop
      vertex   -4.307412e+01 6.739778e+01 1.700734e+02
      vertex   -4.308959e+01 6.319778e+01 1.699172e+02
      vertex   -4.308898e+01 6.739778e+01 1.699172e+02
    endloop
  endfacet
  facet normal 9.948604e-01 -1.430567e-04 1.012556e-01
    outer loop
      vertex   -4.308898e+01 6.739778e+01 1.699172e+02
      vertex   -4.308959e+01 6.319778e+01 1.699172e+02
      vertex   -4.307371e+01 6.319778e+01 1.697612e+02
    endloop
  endfacet
  facet normal 9.559905e-01 -1.374674e-04 2.933977e-01
    outer loop
      vertex   -4.307310e+01 6.739778e+01 1.697612e+02
      vertex   -4.307371e+01 6.319778e+01 1.697612e+02
      vertex   -4.302769e+01 6.319777e+01 1.696113e+02
    endloop
  endfacet
  facet normal 8.803823e-01 -1.265952e-04 4.742646e-01
    outer loop
      vertex   -4.302709e+01 6.739777e+01 1.696113e+02
      vertex   -4.302769e+01 6.319777e+01 1.696113e+02
      vertex   -4.295271e+01 6.739776e+01 1.694732e+02
    endloop
  endfacet
  facet normal 9.559905e-01 -1.374674e-04 2.933977e-01
    outer loop
      vertex   -4.302709e+01 6.739777e+01 1.696113e+02
      vertex   -4.307310e+01 6.739778e+01 1.697612e+02
      vertex   -4.302769e+01 6.319777e+01 1.696113e+02
    endloop
  endfacet
  facet normal 8.803823e-01 -1.265952e-04 4.742646e-01
    outer loop
      vertex   -4.302769e+01 6.319777e+01 1.696113e+02
      vertex   -4.295332e+01 6.319776e+01 1.694732e+02
      vertex   -4.295271e+01 6.739776e+01 1.694732e+02
    endloop
  endfacet
  facet normal 7.709416e-01 -1.108581e-04 6.369058e-01
    outer loop
      vertex   -4.295271e+01 6.739776e+01 1.694732e+02
      vertex   -4.295332e+01 6.319776e+01 1.694732e+02
      vertex   -4.285343e+01 6.319775e+01 1.693523e+02
    endloop
  endfacet
  facet normal 6.318740e-01 -9.086079e-05 7.750711e-01
    outer loop
      vertex   -4.285283e+01 6.739775e+01 1.693523e+02
      vertex   -4.285343e+01 6.319775e+01 1.693523e+02
      vertex   -4.273188e+01 6.319773e+01 1.692532e+02
    endloop
  endfacet
  facet normal 4.685239e-01 -6.737174e-05 8.834508e-01
    outer loop
      vertex   -4.273127e+01 6.739773e+01 1.692532e+02
      vertex   -4.273188e+01 6.319773e+01 1.692532e+02
      vertex   -4.259333e+01 6.319771e+01 1.691797e+02
    endloop
  endfacet
  facet normal 2.871686e-01 -4.129362e-05 9.578800e-01
    outer loop
      vertex   -4.259273e+01 6.739771e+01 1.691797e+02
      vertex   -4.259333e+01 6.319771e+01 1.691797e+02
      vertex   -4.244311e+01 6.319769e+01 1.691347e+02
    endloop
  endfacet
  facet normal 9.477763e-02 -1.362862e-05 9.954985e-01
    outer loop
      vertex   -4.244250e+01 6.739769e+01 1.691347e+02
      vertex   -4.244311e+01 6.319769e+01 1.691347e+02
      vertex   -4.228638e+01 6.739766e+01 1.691198e+02
    endloop
  endfacet
  facet normal 2.871686e-01 -4.129362e-05 9.578800e-01
    outer loop
      vertex   -4.244250e+01 6.739769e+01 1.691347e+02
      vertex   -4.259273e+01 6.739771e+01 1.691797e+02
      vertex   -4.244311e+01 6.319769e+01 1.691347e+02
    endloop
  endfacet
  facet normal 9.477763e-02 -1.362862e-05 9.954985e-01
    outer loop
      vertex   -4.244311e+01 6.319769e+01 1.691347e+02
      vertex   -4.228699e+01 6.319766e+01 1.691198e+02
      vertex   -4.228638e+01 6.739766e+01 1.691198e+02
    endloop
  endfacet
  facet normal -1.012556e-01 1.456012e-05 9.948604e-01
    outer loop
      vertex   -4.228638e+01 6.739766e+01 1.691198e+02
      vertex   -4.228699e+01 6.319766e+01 1.691198e+02
      vertex   -4.213096e+01 6.319764e+01 1.691357e+02
    endloop
  endfacet
  facet normal -2.933976e-01 4.218933e-05 9.559905e-01
    outer loop
      vertex   -4.213036e+01 6.739764e+01 1.691357e+02
      vertex   -4.213096e+01 6.319764e+01 1.691357e+02
      vertex   -4.198104e+01 6.319762e+01 1.691817e+02
    endloop
  endfacet
  facet normal -4.742646e-01 6.819722e-05 8.803824e-01
    outer loop
      vertex   -4.198044e+01 6.739762e+01 1.691817e+02
      vertex   -4.198104e+01 6.319762e+01 1.691817e+02
      vertex   -4.184297e+01 6.319760e+01 1.692561e+02
    endloop
  endfacet
  facet normal -6.369058e-01 9.158433e-05 7.709416e-01
    outer loop
      vertex   -4.184237e+01 6.739760e+01 1.692561e+02
      vertex   -4.184297e+01 6.319760e+01 1.692561e+02
      vertex   -4.172207e+01 6.319758e+01 1.693560e+02
    endloop
  endfacet
  facet normal -7.750711e-01 1.114519e-04 6.318740e-01
    outer loop
      vertex   -4.172146e+01 6.739758e+01 1.693560e+02
      vertex   -4.172207e+01 6.319758e+01 1.693560e+02
      vertex   -4.162237e+01 6.739757e+01 1.694776e+02
    endloop
  endfacet
  facet normal -6.369058e-01 9.158433e-05 7.709416e-01
    outer loop
      vertex   -4.172146e+01 6.739758e+01 1.693560e+02
      vertex   -4.184237e+01 6.739760e+01 1.692561e+02
      vertex   -4.172207e+01 6.319758e+01 1.693560e+02
    endloop
  endfacet
  facet normal -7.750711e-01 1.114519e-04 6.318740e-01
    outer loop
      vertex   -4.172207e+01 6.319758e+01 1.693560e+02
      vertex   -4.162297e+01 6.319757e+01 1.694776e+02
      vertex   -4.162237e+01 6.739757e+01 1.694776e+02
    endloop
  endfacet
  facet normal -4.742646e-01 6.819722e-05 8.803824e-01
    outer loop
      vertex   -4.184237e+01 6.739760e+01 1.692561e+02
      vertex   -4.198044e+01 6.739762e+01 1.691817e+02
      vertex   -4.184297e+01 6.319760e+01 1.692561e+02
    endloop
  endfacet
  facet normal -2.933976e-01 4.218933e-05 9.559905e-01
    outer loop
      vertex   -4.198044e+01 6.739762e+01 1.691817e+02
      vertex   -4.213036e+01 6.739764e+01 1.691357e+02
      vertex   -4.198104e+01 6.319762e+01 1.691817e+02
    endloop
  endfacet
  facet normal -1.012556e-01 1.456012e-05 9.948604e-01
    outer loop
      vertex   -4.213036e+01 6.739764e+01 1.691357e+02
      vertex   -4.228638e+01 6.739766e+01 1.691198e+02
      vertex   -4.213096e+01 6.319764e+01 1.691357e+02
    endloop
  endfacet
  facet normal 4.685239e-01 -6.737174e-05 8.834508e-01
    outer loop
      vertex   -4.259273e+01 6.739771e+01 1.691797e+02
      vertex   -4.273127e+01 6.739773e+01 1.692532e+02
      vertex   -4.259333e+01 6.319771e+01 1.691797e+02
    endloop
  endfacet
  facet normal 6.318740e-01 -9.086079e-05 7.750711e-01
    outer loop
      vertex   -4.273127e+01 6.739773e+01 1.692532e+02
      vertex   -4.285283e+01 6.739775e+01 1.693523e+02
      vertex   -4.273188e+01 6.319773e+01 1.692532e+02
    endloop
  endfacet
  facet normal 7.709416e-01 -1.108581e-04 6.369058e-01
    outer loop
      vertex   -4.285283e+01 6.739775e+01 1.693523e+02
      vertex   -4.295271e+01 6.739776e+01 1.694732e+02
      vertex   -4.285343e+01 6.319775e+01 1.693523e+02
    endloop
  endfacet
  facet normal 9.948604e-01 -1.430567e-04 1.012556e-01
    outer loop
      vertex   -4.307310e+01 6.739778e+01 1.697612e+02
      vertex   -4.308898e+01 6.739778e+01 1.699172e+02
      vertex   -4.307371e+01 6.319778e+01 1.697612e+02
    endloop
  endfacet
  facet normal -7.750711e-01 1.114519e-04 6.318740e-01
    outer loop
      vertex   -4.161840e+01 9.499757e+01 1.694776e+02
      vertex   -4.161779e+01 9.919757e+01 1.694776e+02
      vertex   -4.171749e+01 9.499758e+01 1.693560e+02
    endloop
  endfacet
  facet normal -7.750711e-01 1.114519e-04 6.318740e-01
    outer loop
      vertex   -4.171749e+01 9.499758e+01 1.693560e+02
      vertex   -4.161779e+01 9.919757e+01 1.694776e+02
      vertex   -4.171689e+01 9.919758e+01 1.693560e+02
    endloop
  endfacet
  facet normal -6.369058e-01 9.158434e-05 7.709416e-01
    outer loop
      vertex   -4.183779e+01 9.919760e+01 1.692561e+02
      vertex   -4.171749e+01 9.499758e+01 1.693560e+02
      vertex   -4.171689e+01 9.919758e+01 1.693560e+02
    endloop
  endfacet
  facet normal -6.369058e-01 9.158434e-05 7.709416e-01
    outer loop
      vertex   -4.183779e+01 9.919760e+01 1.692561e+02
      vertex   -4.183840e+01 9.499760e+01 1.692561e+02
      vertex   -4.171749e+01 9.499758e+01 1.693560e+02
    endloop
  endfacet
  facet normal -4.742646e-01 6.819722e-05 8.803824e-01
    outer loop
      vertex   -4.183779e+01 9.919760e+01 1.692561e+02
      vertex   -4.197586e+01 9.919762e+01 1.691817e+02
      vertex   -4.183840e+01 9.499760e+01 1.692561e+02
    endloop
  endfacet
  facet normal -4.742646e-01 6.819722e-05 8.803824e-01
    outer loop
      vertex   -4.183840e+01 9.499760e+01 1.692561e+02
      vertex   -4.197586e+01 9.919762e+01 1.691817e+02
      vertex   -4.197647e+01 9.499762e+01 1.691817e+02
    endloop
  endfacet
  facet normal -2.933976e-01 4.218933e-05 9.559905e-01
    outer loop
      vertex   -4.197647e+01 9.499762e+01 1.691817e+02
      vertex   -4.197586e+01 9.919762e+01 1.691817e+02
      vertex   -4.212579e+01 9.919764e+01 1.691357e+02
    endloop
  endfacet
  facet normal -1.012556e-01 1.456012e-05 9.948604e-01
    outer loop
      vertex   -4.212639e+01 9.499764e+01 1.691357e+02
      vertex   -4.212579e+01 9.919764e+01 1.691357e+02
      vertex   -4.228181e+01 9.919766e+01 1.691198e+02
    endloop
  endfacet
  facet normal 9.477763e-02 -1.362862e-05 9.954985e-01
    outer loop
      vertex   -4.228241e+01 9.499766e+01 1.691198e+02
      vertex   -4.228181e+01 9.919766e+01 1.691198e+02
      vertex   -4.243853e+01 9.499769e+01 1.691347e+02
    endloop
  endfacet
  facet normal -1.012556e-01 1.456012e-05 9.948604e-01
    outer loop
      vertex   -4.228241e+01 9.499766e+01 1.691198e+02
      vertex   -4.212639e+01 9.499764e+01 1.691357e+02
      vertex   -4.228181e+01 9.919766e+01 1.691198e+02
    endloop
  endfacet
  facet normal 9.477763e-02 -1.362862e-05 9.954985e-01
    outer loop
      vertex   -4.228181e+01 9.919766e+01 1.691198e+02
      vertex   -4.243793e+01 9.919769e+01 1.691347e+02
      vertex   -4.243853e+01 9.499769e+01 1.691347e+02
    endloop
  endfacet
  facet normal 2.871686e-01 -4.129362e-05 9.578800e-01
    outer loop
      vertex   -4.243853e+01 9.499769e+01 1.691347e+02
      vertex   -4.243793e+01 9.919769e+01 1.691347e+02
      vertex   -4.258815e+01 9.919771e+01 1.691797e+02
    endloop
  endfacet
  facet normal 4.685239e-01 -6.737173e-05 8.834508e-01
    outer loop
      vertex   -4.258876e+01 9.499771e+01 1.691797e+02
      vertex   -4.258815e+01 9.919771e+01 1.691797e+02
      vertex   -4.272670e+01 9.919773e+01 1.692532e+02
    endloop
  endfacet
  facet normal 6.318740e-01 -9.086079e-05 7.750711e-01
    outer loop
      vertex   -4.272731e+01 9.499773e+01 1.692532e+02
      vertex   -4.272670e+01 9.919773e+01 1.692532e+02
      vertex   -4.284825e+01 9.919775e+01 1.693523e+02
    endloop
  endfacet
  facet normal 7.709416e-01 -1.108581e-04 6.369058e-01
    outer loop
      vertex   -4.284886e+01 9.499775e+01 1.693523e+02
      vertex   -4.284825e+01 9.919775e+01 1.693523e+02
      vertex   -4.294814e+01 9.919776e+01 1.694732e+02
    endloop
  endfacet
  facet normal 8.803823e-01 -1.265952e-04 4.742646e-01
    outer loop
      vertex   -4.294874e+01 9.499776e+01 1.694732e+02
      vertex   -4.294814e+01 9.919776e+01 1.694732e+02
      vertex   -4.302312e+01 9.499777e+01 1.696113e+02
    endloop
  endfacet
  facet normal 7.709416e-01 -1.108581e-04 6.369058e-01
    outer loop
      vertex   -4.294874e+01 9.499776e+01 1.694732e+02
      vertex   -4.284886e+01 9.499775e+01 1.693523e+02
      vertex   -4.294814e+01 9.919776e+01 1.694732e+02
    endloop
  endfacet
  facet normal 8.803823e-01 -1.265952e-04 4.742646e-01
    outer loop
      vertex   -4.294814e+01 9.919776e+01 1.694732e+02
      vertex   -4.302252e+01 9.919777e+01 1.696113e+02
      vertex   -4.302312e+01 9.499777e+01 1.696113e+02
    endloop
  endfacet
  facet normal 9.559905e-01 -1.374673e-04 2.933977e-01
    outer loop
      vertex   -4.302312e+01 9.499777e+01 1.696113e+02
      vertex   -4.302252e+01 9.919777e+01 1.696113e+02
      vertex   -4.306853e+01 9.919778e+01 1.697612e+02
    endloop
  endfacet
  facet normal 9.948604e-01 -1.430567e-04 1.012556e-01
    outer loop
      vertex   -4.306913e+01 9.499778e+01 1.697612e+02
      vertex   -4.306853e+01 9.919778e+01 1.697612e+02
      vertex   -4.308441e+01 9.919778e+01 1.699172e+02
    endloop
  endfacet
  facet normal 9.954985e-01 -1.431484e-04 -9.477764e-02
    outer loop
      vertex   -4.308501e+01 9.499778e+01 1.699172e+02
      vertex   -4.308441e+01 9.919778e+01 1.699172e+02
      vertex   -4.306955e+01 9.919778e+01 1.700734e+02
    endloop
  endfacet
  facet normal 9.578800e-01 -1.377391e-04 -2.871686e-01
    outer loop
      vertex   -4.307015e+01 9.499778e+01 1.700734e+02
      vertex   -4.306955e+01 9.919778e+01 1.700734e+02
      vertex   -4.302451e+01 9.919777e+01 1.702236e+02
    endloop
  endfacet
  facet normal 8.834508e-01 -1.270365e-04 -4.685239e-01
    outer loop
      vertex   -4.302511e+01 9.499777e+01 1.702236e+02
      vertex   -4.302451e+01 9.919777e+01 1.702236e+02
      vertex   -4.295164e+01 9.499776e+01 1.703621e+02
    endloop
  endfacet
  facet normal 9.578800e-01 -1.377391e-04 -2.871686e-01
    outer loop
      vertex   -4.302511e+01 9.499777e+01 1.702236e+02
      vertex   -4.307015e+01 9.499778e+01 1.700734e+02
      vertex   -4.302451e+01 9.919777e+01 1.702236e+02
    endloop
  endfacet
  facet normal 8.834508e-01 -1.270365e-04 -4.685239e-01
    outer loop
      vertex   -4.302451e+01 9.919777e+01 1.702236e+02
      vertex   -4.295103e+01 9.919776e+01 1.703621e+02
      vertex   -4.295164e+01 9.499776e+01 1.703621e+02
    endloop
  endfacet
  facet normal 9.954985e-01 -1.431484e-04 -9.477764e-02
    outer loop
      vertex   -4.307015e+01 9.499778e+01 1.700734e+02
      vertex   -4.308501e+01 9.499778e+01 1.699172e+02
      vertex   -4.306955e+01 9.919778e+01 1.700734e+02
    endloop
  endfacet
  facet normal 9.948604e-01 -1.430567e-04 1.012556e-01
    outer loop
      vertex   -4.308501e+01 9.499778e+01 1.699172e+02
      vertex   -4.306913e+01 9.499778e+01 1.697612e+02
      vertex   -4.308441e+01 9.919778e+01 1.699172e+02
    endloop
  endfacet
  facet normal 9.559905e-01 -1.374673e-04 2.933977e-01
    outer loop
      vertex   -4.306913e+01 9.499778e+01 1.697612e+02
      vertex   -4.302312e+01 9.499777e+01 1.696113e+02
      vertex   -4.306853e+01 9.919778e+01 1.697612e+02
    endloop
  endfacet
  facet normal 6.318740e-01 -9.086079e-05 7.750711e-01
    outer loop
      vertex   -4.284886e+01 9.499775e+01 1.693523e+02
      vertex   -4.272731e+01 9.499773e+01 1.692532e+02
      vertex   -4.284825e+01 9.919775e+01 1.693523e+02
    endloop
  endfacet
  facet normal 4.685239e-01 -6.737173e-05 8.834508e-01
    outer loop
      vertex   -4.272731e+01 9.499773e+01 1.692532e+02
      vertex   -4.258876e+01 9.499771e+01 1.691797e+02
      vertex   -4.272670e+01 9.919773e+01 1.692532e+02
    endloop
  endfacet
  facet normal 2.871686e-01 -4.129362e-05 9.578800e-01
    outer loop
      vertex   -4.258876e+01 9.499771e+01 1.691797e+02
      vertex   -4.243853e+01 9.499769e+01 1.691347e+02
      vertex   -4.258815e+01 9.919771e+01 1.691797e+02
    endloop
  endfacet
  facet normal -2.933976e-01 4.218933e-05 9.559905e-01
    outer loop
      vertex   -4.212639e+01 9.499764e+01 1.691357e+02
      vertex   -4.197647e+01 9.499762e+01 1.691817e+02
      vertex   -4.212579e+01 9.919764e+01 1.691357e+02
    endloop
  endfacet
  facet normal -4.567484e-01 -8.560009e-01 2.421639e-01
    outer loop
      vertex   -4.162237e+01 6.739757e+01 1.694776e+02
      vertex   -4.154889e+01 6.739756e+01 1.696161e+02
      vertex   -4.228892e+01 6.787835e+01 1.699198e+02
    endloop
  endfacet
  facet normal -4.952183e-01 -8.559954e-01 1.484276e-01
    outer loop
      vertex   -4.228892e+01 6.787835e+01 1.699198e+02
      vertex   -4.154889e+01 6.739756e+01 1.696161e+02
      vertex   -4.150385e+01 6.739755e+01 1.697663e+02
    endloop
  endfacet
  facet normal -5.146620e-01 -8.559926e-01 4.898729e-02
    outer loop
      vertex   -4.148899e+01 6.739755e+01 1.699224e+02
      vertex   -4.228892e+01 6.787835e+01 1.699198e+02
      vertex   -4.150385e+01 6.739755e+01 1.697663e+02
    endloop
  endfacet
  facet normal -5.143322e-01 -8.559926e-01 -5.233553e-02
    outer loop
      vertex   -4.148899e+01 6.739755e+01 1.699224e+02
      vertex   -4.150487e+01 6.739755e+01 1.700785e+02
      vertex   -4.228892e+01 6.787835e+01 1.699198e+02
    endloop
  endfacet
  facet normal -4.942416e-01 -8.559955e-01 -1.516471e-01
    outer loop
      vertex   -4.150487e+01 6.739755e+01 1.700785e+02
      vertex   -4.155088e+01 6.739756e+01 1.702284e+02
      vertex   -4.228892e+01 6.787835e+01 1.699198e+02
    endloop
  endfacet
  facet normal -4.551624e-01 -8.560011e-01 -2.451310e-01
    outer loop
      vertex   -4.228892e+01 6.787835e+01 1.699198e+02
      vertex   -4.155088e+01 6.739756e+01 1.702284e+02
      vertex   -4.162526e+01 6.739757e+01 1.703665e+02
    endloop
  endfacet
  facet normal -3.985963e-01 -8.560093e-01 -3.291947e-01
    outer loop
      vertex   -4.228892e+01 6.787835e+01 1.699198e+02
      vertex   -4.162526e+01 6.739757e+01 1.703665e+02
      vertex   -4.172514e+01 6.739758e+01 1.704874e+02
    endloop
  endfacet
  facet normal -3.267170e-01 -8.560196e-01 -4.006075e-01
    outer loop
      vertex   -4.228892e+01 6.787835e+01 1.699198e+02
      vertex   -4.172514e+01 6.739758e+01 1.704874e+02
      vertex   -4.184670e+01 6.739760e+01 1.705865e+02
    endloop
  endfacet
  facet normal -2.422870e-01 -8.560318e-01 -4.566253e-01
    outer loop
      vertex   -4.184670e+01 6.739760e+01 1.705865e+02
      vertex   -4.198525e+01 6.739762e+01 1.706599e+02
      vertex   -4.228892e+01 6.787835e+01 1.699198e+02
    endloop
  endfacet
  facet normal -1.485507e-01 -8.560452e-01 -4.950952e-01
    outer loop
      vertex   -4.198525e+01 6.739762e+01 1.706599e+02
      vertex   -4.213547e+01 6.739764e+01 1.707050e+02
      vertex   -4.228892e+01 6.787835e+01 1.699198e+02
    endloop
  endfacet
  facet normal -4.911039e-02 -8.560595e-01 -5.145389e-01
    outer loop
      vertex   -4.213547e+01 6.739764e+01 1.707050e+02
      vertex   -4.229159e+01 6.739767e+01 1.707198e+02
      vertex   -4.228892e+01 6.787835e+01 1.699198e+02
    endloop
  endfacet
  facet normal 5.221244e-02 -8.560741e-01 -5.142091e-01
    outer loop
      vertex   -4.228892e+01 6.787835e+01 1.699198e+02
      vertex   -4.229159e+01 6.739767e+01 1.707198e+02
      vertex   -4.244761e+01 6.739769e+01 1.707040e+02
    endloop
  endfacet
  facet normal 1.515240e-01 -8.560884e-01 -4.941185e-01
    outer loop
      vertex   -4.228892e+01 6.787835e+01 1.699198e+02
      vertex   -4.244761e+01 6.739769e+01 1.707040e+02
      vertex   -4.259754e+01 6.739771e+01 1.706579e+02
    endloop
  endfacet
  facet normal 2.450079e-01 -8.561018e-01 -4.550393e-01
    outer loop
      vertex   -4.228892e+01 6.787835e+01 1.699198e+02
      vertex   -4.259754e+01 6.739771e+01 1.706579e+02
      vertex   -4.273560e+01 6.739773e+01 1.705836e+02
    endloop
  endfacet
  facet normal 3.290716e-01 -8.561139e-01 -3.984732e-01
    outer loop
      vertex   -4.228892e+01 6.787835e+01 1.699198e+02
      vertex   -4.273560e+01 6.739773e+01 1.705836e+02
      vertex   -4.285651e+01 6.739775e+01 1.704837e+02
    endloop
  endfacet
  facet normal 4.004844e-01 -8.561242e-01 -3.265939e-01
    outer loop
      vertex   -4.295560e+01 6.739776e+01 1.703621e+02
      vertex   -4.228892e+01 6.787835e+01 1.699198e+02
      vertex   -4.285651e+01 6.739775e+01 1.704837e+02
    endloop
  endfacet
  facet normal 6.318740e-01 -9.086079e-05 7.750711e-01
    outer loop
      vertex   -4.145512e+01 9.919755e+01 1.711697e+02
      vertex   -4.146030e+01 6.319755e+01 1.711697e+02
      vertex   -4.122721e+01 9.919751e+01 1.709839e+02
    endloop
  endfacet
  facet normal 6.318740e-01 -9.086079e-05 7.750711e-01
    outer loop
      vertex   -4.122721e+01 9.919751e+01 1.709839e+02
      vertex   -4.146030e+01 6.319755e+01 1.711697e+02
      vertex   -4.123239e+01 6.319751e+01 1.709839e+02
    endloop
  endfacet
  facet normal 7.709416e-01 -1.108581e-04 6.369058e-01
    outer loop
      vertex   -4.104510e+01 6.319749e+01 1.707572e+02
      vertex   -4.122721e+01 9.919751e+01 1.709839e+02
      vertex   -4.123239e+01 6.319751e+01 1.709839e+02
    endloop
  endfacet
  facet normal 7.709416e-01 -1.108581e-04 6.369058e-01
    outer loop
      vertex   -4.104510e+01 6.319749e+01 1.707572e+02
      vertex   -4.103993e+01 9.919749e+01 1.707572e+02
      vertex   -4.122721e+01 9.919751e+01 1.709839e+02
    endloop
  endfacet
  facet normal 8.803823e-01 -1.265952e-04 4.742646e-01
    outer loop
      vertex   -4.104510e+01 6.319749e+01 1.707572e+02
      vertex   -4.090565e+01 6.319747e+01 1.704984e+02
      vertex   -4.103993e+01 9.919749e+01 1.707572e+02
    endloop
  endfacet
  facet normal 8.803823e-01 -1.265952e-04 4.742646e-01
    outer loop
      vertex   -4.103993e+01 9.919749e+01 1.707572e+02
      vertex   -4.090565e+01 6.319747e+01 1.704984e+02
      vertex   -4.090047e+01 9.919747e+01 1.704984e+02
    endloop
  endfacet
  facet normal 9.559905e-01 -1.374674e-04 2.933977e-01
    outer loop
      vertex   -4.090047e+01 9.919747e+01 1.704984e+02
      vertex   -4.090565e+01 6.319747e+01 1.704984e+02
      vertex   -4.081937e+01 6.319745e+01 1.702173e+02
    endloop
  endfacet
  facet normal 9.948604e-01 -1.430567e-04 1.012556e-01
    outer loop
      vertex   -4.081420e+01 9.919745e+01 1.702173e+02
      vertex   -4.081937e+01 6.319745e+01 1.702173e+02
      vertex   -4.078960e+01 6.319745e+01 1.699247e+02
    endloop
  endfacet
  facet normal 9.954985e-01 -1.431484e-04 -9.477764e-02
    outer loop
      vertex   -4.078442e+01 9.919745e+01 1.699247e+02
      vertex   -4.078960e+01 6.319745e+01 1.699247e+02
      vertex   -4.081229e+01 9.919745e+01 1.696320e+02
    endloop
  endfacet
  facet normal 9.948604e-01 -1.430567e-04 1.012556e-01
    outer loop
      vertex   -4.078442e+01 9.919745e+01 1.699247e+02
      vertex   -4.081420e+01 9.919745e+01 1.702173e+02
      vertex   -4.078960e+01 6.319745e+01 1.699247e+02
    endloop
  endfacet
  facet normal 9.954985e-01 -1.431484e-04 -9.477764e-02
    outer loop
      vertex   -4.078960e+01 6.319745e+01 1.699247e+02
      vertex   -4.081747e+01 6.319745e+01 1.696320e+02
      vertex   -4.081229e+01 9.919745e+01 1.696320e+02
    endloop
  endfacet
  facet normal 9.578800e-01 -1.377391e-04 -2.871686e-01
    outer loop
      vertex   -4.081229e+01 9.919745e+01 1.696320e+02
      vertex   -4.081747e+01 6.319745e+01 1.696320e+02
      vertex   -4.090191e+01 6.319747e+01 1.693503e+02
    endloop
  endfacet
  facet normal 8.834508e-01 -1.270365e-04 -4.685239e-01
    outer loop
      vertex   -4.089673e+01 9.919747e+01 1.693503e+02
      vertex   -4.090191e+01 6.319747e+01 1.693503e+02
      vertex   -4.103968e+01 6.319749e+01 1.690905e+02
    endloop
  endfacet
  facet normal 7.750711e-01 -1.114519e-04 -6.318740e-01
    outer loop
      vertex   -4.103450e+01 9.919749e+01 1.690905e+02
      vertex   -4.103968e+01 6.319749e+01 1.690905e+02
      vertex   -4.122548e+01 6.319751e+01 1.688626e+02
    endloop
  endfacet
  facet normal 6.369058e-01 -9.158434e-05 -7.709416e-01
    outer loop
      vertex   -4.122031e+01 9.919751e+01 1.688626e+02
      vertex   -4.122548e+01 6.319751e+01 1.688626e+02
      vertex   -4.145218e+01 6.319754e+01 1.686754e+02
    endloop
  endfacet
  facet normal 4.742646e-01 -6.819722e-05 -8.803824e-01
    outer loop
      vertex   -4.144700e+01 9.919754e+01 1.686754e+02
      vertex   -4.145218e+01 6.319754e+01 1.686754e+02
      vertex   -4.170588e+01 9.919758e+01 1.685359e+02
    endloop
  endfacet
  facet normal 6.369058e-01 -9.158434e-05 -7.709416e-01
    outer loop
      vertex   -4.144700e+01 9.919754e+01 1.686754e+02
      vertex   -4.122031e+01 9.919751e+01 1.688626e+02
      vertex   -4.145218e+01 6.319754e+01 1.686754e+02
    endloop
  endfacet
  facet normal 4.742646e-01 -6.819722e-05 -8.803824e-01
    outer loop
      vertex   -4.145218e+01 6.319754e+01 1.686754e+02
      vertex   -4.171106e+01 6.319758e+01 1.685359e+02
      vertex   -4.170588e+01 9.919758e+01 1.685359e+02
    endloop
  endfacet
  facet normal 2.933976e-01 -4.218933e-05 -9.559905e-01
    outer loop
      vertex   -4.170588e+01 9.919758e+01 1.685359e+02
      vertex   -4.171106e+01 6.319758e+01 1.685359e+02
      vertex   -4.199217e+01 6.319762e+01 1.684496e+02
    endloop
  endfacet
  facet normal 1.012556e-01 -1.456012e-05 -9.948604e-01
    outer loop
      vertex   -4.198699e+01 9.919762e+01 1.684496e+02
      vertex   -4.199217e+01 6.319762e+01 1.684496e+02
      vertex   -4.228471e+01 6.319766e+01 1.684198e+02
    endloop
  endfacet
  facet normal -9.477763e-02 1.362862e-05 -9.954985e-01
    outer loop
      vertex   -4.227953e+01 9.919766e+01 1.684198e+02
      vertex   -4.228471e+01 6.319766e+01 1.684198e+02
      vertex   -4.257744e+01 6.319771e+01 1.684477e+02
    endloop
  endfacet
  facet normal -2.871686e-01 4.129362e-05 -9.578800e-01
    outer loop
      vertex   -4.257226e+01 9.919771e+01 1.684477e+02
      vertex   -4.257744e+01 6.319771e+01 1.684477e+02
      vertex   -4.285910e+01 6.319775e+01 1.685322e+02
    endloop
  endfacet
  facet normal -4.685239e-01 6.737173e-05 -8.834508e-01
    outer loop
      vertex   -4.285392e+01 9.919775e+01 1.685322e+02
      vertex   -4.285910e+01 6.319775e+01 1.685322e+02
      vertex   -4.311584e+01 8.433938e+01 1.686699e+02
    endloop
  endfacet
  facet normal -4.685239e-01 6.737173e-05 -8.834508e-01
    outer loop
      vertex   -4.311370e+01 9.919778e+01 1.686699e+02
      vertex   -4.285392e+01 9.919775e+01 1.685322e+02
      vertex   -4.311584e+01 8.433938e+01 1.686699e+02
    endloop
  endfacet
  facet normal -4.685239e-01 6.737173e-05 -8.834508e-01
    outer loop
      vertex   -4.285910e+01 6.319775e+01 1.685322e+02
      vertex   -4.311888e+01 6.319778e+01 1.686699e+02
      vertex   -4.311584e+01 8.433938e+01 1.686699e+02
    endloop
  endfacet
  facet normal -2.871686e-01 4.129362e-05 -9.578800e-01
    outer loop
      vertex   -4.285392e+01 9.919775e+01 1.685322e+02
      vertex   -4.257226e+01 9.919771e+01 1.684477e+02
      vertex   -4.285910e+01 6.319775e+01 1.685322e+02
    endloop
  endfacet
  facet normal -9.477763e-02 1.362862e-05 -9.954985e-01
    outer loop
      vertex   -4.257226e+01 9.919771e+01 1.684477e+02
      vertex   -4.227953e+01 9.919766e+01 1.684198e+02
      vertex   -4.257744e+01 6.319771e+01 1.684477e+02
    endloop
  endfacet
  facet normal 1.012556e-01 -1.456012e-05 -9.948604e-01
    outer loop
      vertex   -4.227953e+01 9.919766e+01 1.684198e+02
      vertex   -4.198699e+01 9.919762e+01 1.684496e+02
      vertex   -4.228471e+01 6.319766e+01 1.684198e+02
    endloop
  endfacet
  facet normal 2.933976e-01 -4.218933e-05 -9.559905e-01
    outer loop
      vertex   -4.198699e+01 9.919762e+01 1.684496e+02
      vertex   -4.170588e+01 9.919758e+01 1.685359e+02
      vertex   -4.199217e+01 6.319762e+01 1.684496e+02
    endloop
  endfacet
  facet normal 7.750711e-01 -1.114519e-04 -6.318740e-01
    outer loop
      vertex   -4.122031e+01 9.919751e+01 1.688626e+02
      vertex   -4.103450e+01 9.919749e+01 1.690905e+02
      vertex   -4.122548e+01 6.319751e+01 1.688626e+02
    endloop
  endfacet
  facet normal 8.834508e-01 -1.270365e-04 -4.685239e-01
    outer loop
      vertex   -4.103450e+01 9.919749e+01 1.690905e+02
      vertex   -4.089673e+01 9.919747e+01 1.693503e+02
      vertex   -4.103968e+01 6.319749e+01 1.690905e+02
    endloop
  endfacet
  facet normal 9.578800e-01 -1.377391e-04 -2.871686e-01
    outer loop
      vertex   -4.089673e+01 9.919747e+01 1.693503e+02
      vertex   -4.081229e+01 9.919745e+01 1.696320e+02
      vertex   -4.090191e+01 6.319747e+01 1.693503e+02
    endloop
  endfacet
  facet normal 9.559905e-01 -1.374674e-04 2.933977e-01
    outer loop
      vertex   -4.081420e+01 9.919745e+01 1.702173e+02
      vertex   -4.090047e+01 9.919747e+01 1.704984e+02
      vertex   -4.081937e+01 6.319745e+01 1.702173e+02
    endloop
  endfacet
  facet normal 4.565022e-01 -8.561322e-01 -2.421639e-01
    outer loop
      vertex   -4.295560e+01 6.739776e+01 1.703621e+02
      vertex   -4.302908e+01 6.739777e+01 1.702236e+02
      vertex   -4.228892e+01 6.787835e+01 1.699198e+02
    endloop
  endfacet
  facet normal 4.949721e-01 -8.561378e-01 -1.484276e-01
    outer loop
      vertex   -4.228892e+01 6.787835e+01 1.699198e+02
      vertex   -4.302908e+01 6.739777e+01 1.702236e+02
      vertex   -4.307412e+01 6.739778e+01 1.700734e+02
    endloop
  endfacet
  facet normal 5.144158e-01 -8.561406e-01 -4.898729e-02
    outer loop
      vertex   -4.308898e+01 6.739778e+01 1.699172e+02
      vertex   -4.228892e+01 6.787835e+01 1.699198e+02
      vertex   -4.307412e+01 6.739778e+01 1.700734e+02
    endloop
  endfacet
  facet normal 5.140860e-01 -8.561405e-01 5.233553e-02
    outer loop
      vertex   -4.308898e+01 6.739778e+01 1.699172e+02
      vertex   -4.307310e+01 6.739778e+01 1.697612e+02
      vertex   -4.228892e+01 6.787835e+01 1.699198e+02
    endloop
  endfacet
  facet normal 4.939954e-01 -8.561376e-01 1.516471e-01
    outer loop
      vertex   -4.307310e+01 6.739778e+01 1.697612e+02
      vertex   -4.302709e+01 6.739777e+01 1.696113e+02
      vertex   -4.228892e+01 6.787835e+01 1.699198e+02
    endloop
  endfacet
  facet normal 4.549162e-01 -8.561320e-01 2.451310e-01
    outer loop
      vertex   -4.228892e+01 6.787835e+01 1.699198e+02
      vertex   -4.302709e+01 6.739777e+01 1.696113e+02
      vertex   -4.295271e+01 6.739776e+01 1.694732e+02
    endloop
  endfacet
  facet normal 3.983501e-01 -8.561239e-01 3.291947e-01
    outer loop
      vertex   -4.228892e+01 6.787835e+01 1.699198e+02
      vertex   -4.295271e+01 6.739776e+01 1.694732e+02
      vertex   -4.285283e+01 6.739775e+01 1.693523e+02
    endloop
  endfacet
  facet normal 3.264708e-01 -8.561135e-01 4.006075e-01
    outer loop
      vertex   -4.228892e+01 6.787835e+01 1.699198e+02
      vertex   -4.285283e+01 6.739775e+01 1.693523e+02
      vertex   -4.273127e+01 6.739773e+01 1.692532e+02
    endloop
  endfacet
  facet normal 2.420408e-01 -8.561014e-01 4.566253e-01
    outer loop
      vertex   -4.228892e+01 6.787835e+01 1.699198e+02
      vertex   -4.273127e+01 6.739773e+01 1.692532e+02
      vertex   -4.259273e+01 6.739771e+01 1.691797e+02
    endloop
  endfacet
  facet normal 1.483045e-01 -8.560879e-01 4.950952e-01
    outer loop
      vertex   -4.228892e+01 6.787835e+01 1.699198e+02
      vertex   -4.259273e+01 6.739771e+01 1.691797e+02
      vertex   -4.244250e+01 6.739769e+01 1.691347e+02
    endloop
  endfacet
  facet normal 4.886420e-02 -8.560736e-01 5.145389e-01
    outer loop
      vertex   -4.228892e+01 6.787835e+01 1.699198e+02
      vertex   -4.244250e+01 6.739769e+01 1.691347e+02
      vertex   -4.228638e+01 6.739766e+01 1.691198e+02
    endloop
  endfacet
  facet normal -5.245863e-02 -8.560591e-01 5.142091e-01
    outer loop
      vertex   -4.213036e+01 6.739764e+01 1.691357e+02
      vertex   -4.228892e+01 6.787835e+01 1.699198e+02
      vertex   -4.228638e+01 6.739766e+01 1.691198e+02
    endloop
  endfacet
  facet normal -1.517702e-01 -8.560448e-01 4.941185e-01
    outer loop
      vertex   -4.213036e+01 6.739764e+01 1.691357e+02
      vertex   -4.198044e+01 6.739762e+01 1.691817e+02
      vertex   -4.228892e+01 6.787835e+01 1.699198e+02
    endloop
  endfacet
  facet normal -2.452541e-01 -8.560313e-01 4.550393e-01
    outer loop
      vertex   -4.198044e+01 6.739762e+01 1.691817e+02
      vertex   -4.184237e+01 6.739760e+01 1.692561e+02
      vertex   -4.228892e+01 6.787835e+01 1.699198e+02
    endloop
  endfacet
  facet normal -3.293178e-01 -8.560192e-01 3.984732e-01
    outer loop
      vertex   -4.184237e+01 6.739760e+01 1.692561e+02
      vertex   -4.172146e+01 6.739758e+01 1.693560e+02
      vertex   -4.228892e+01 6.787835e+01 1.699198e+02
    endloop
  endfacet
  facet normal -4.007306e-01 -8.560090e-01 3.265939e-01
    outer loop
      vertex   -4.228892e+01 6.787835e+01 1.699198e+02
      vertex   -4.172146e+01 6.739758e+01 1.693560e+02
      vertex   -4.162237e+01 6.739757e+01 1.694776e+02
    endloop
  endfacet
  facet normal -3.704660e-01 8.527575e-01 3.681842e-01
    outer loop
      vertex   -4.161840e+01 9.499757e+01 1.694776e+02
      vertex   -4.183840e+01 9.499760e+01 1.692561e+02
      vertex   -4.228509e+01 9.451698e+01 1.699198e+02
    endloop
  endfacet
  facet normal 1.437957e-04 1.000000e+00 2.930251e-13
    outer loop
      vertex   -4.161840e+01 9.499757e+01 1.694776e+02
      vertex   -4.171749e+01 9.499758e+01 1.693560e+02
      vertex   -4.183840e+01 9.499760e+01 1.692561e+02
    endloop
  endfacet
  facet normal -2.450079e-01 8.561018e-01 4.550393e-01
    outer loop
      vertex   -4.183840e+01 9.499760e+01 1.692561e+02
      vertex   -4.197647e+01 9.499762e+01 1.691817e+02
      vertex   -4.228509e+01 9.451698e+01 1.699198e+02
    endloop
  endfacet
  facet normal -1.515240e-01 8.560884e-01 4.941185e-01
    outer loop
      vertex   -4.197647e+01 9.499762e+01 1.691817e+02
      vertex   -4.212639e+01 9.499764e+01 1.691357e+02
      vertex   -4.228509e+01 9.451698e+01 1.699198e+02
    endloop
  endfacet
  facet normal -5.221244e-02 8.560741e-01 5.142091e-01
    outer loop
      vertex   -4.212639e+01 9.499764e+01 1.691357e+02
      vertex   -4.228241e+01 9.499766e+01 1.691198e+02
      vertex   -4.228509e+01 9.451698e+01 1.699198e+02
    endloop
  endfacet
  facet normal 4.911039e-02 8.560595e-01 5.145389e-01
    outer loop
      vertex   -4.228509e+01 9.451698e+01 1.699198e+02
      vertex   -4.228241e+01 9.499766e+01 1.691198e+02
      vertex   -4.243853e+01 9.499769e+01 1.691347e+02
    endloop
  endfacet
  facet normal 1.485507e-01 8.560452e-01 4.950952e-01
    outer loop
      vertex   -4.228509e+01 9.451698e+01 1.699198e+02
      vertex   -4.243853e+01 9.499769e+01 1.691347e+02
      vertex   -4.258876e+01 9.499771e+01 1.691797e+02
    endloop
  endfacet
  facet normal 2.422870e-01 8.560318e-01 4.566253e-01
    outer loop
      vertex   -4.228509e+01 9.451698e+01 1.699198e+02
      vertex   -4.258876e+01 9.499771e+01 1.691797e+02
      vertex   -4.272731e+01 9.499773e+01 1.692532e+02
    endloop
  endfacet
  facet normal 3.267170e-01 8.560196e-01 4.006075e-01
    outer loop
      vertex   -4.272731e+01 9.499773e+01 1.692532e+02
      vertex   -4.284886e+01 9.499775e+01 1.693523e+02
      vertex   -4.228509e+01 9.451698e+01 1.699198e+02
    endloop
  endfacet
  facet normal 3.985963e-01 8.560093e-01 3.291947e-01
    outer loop
      vertex   -4.284886e+01 9.499775e+01 1.693523e+02
      vertex   -4.294874e+01 9.499776e+01 1.694732e+02
      vertex   -4.228509e+01 9.451698e+01 1.699198e+02
    endloop
  endfacet
  facet normal 4.551624e-01 8.560011e-01 2.451310e-01
    outer loop
      vertex   -4.294874e+01 9.499776e+01 1.694732e+02
      vertex   -4.302312e+01 9.499777e+01 1.696113e+02
      vertex   -4.228509e+01 9.451698e+01 1.699198e+02
    endloop
  endfacet
  facet normal 4.942416e-01 8.559955e-01 1.516471e-01
    outer loop
      vertex   -4.228509e+01 9.451698e+01 1.699198e+02
      vertex   -4.302312e+01 9.499777e+01 1.696113e+02
      vertex   -4.306913e+01 9.499778e+01 1.697612e+02
    endloop
  endfacet
  facet normal 5.143322e-01 8.559926e-01 5.233553e-02
    outer loop
      vertex   -4.228509e+01 9.451698e+01 1.699198e+02
      vertex   -4.306913e+01 9.499778e+01 1.697612e+02
      vertex   -4.308501e+01 9.499778e+01 1.699172e+02
    endloop
  endfacet
  facet normal 5.146620e-01 8.559926e-01 -4.898729e-02
    outer loop
      vertex   -4.228509e+01 9.451698e+01 1.699198e+02
      vertex   -4.308501e+01 9.499778e+01 1.699172e+02
      vertex   -4.307015e+01 9.499778e+01 1.700734e+02
    endloop
  endfacet
  facet normal 4.952183e-01 8.559954e-01 -1.484276e-01
    outer loop
      vertex   -4.228509e+01 9.451698e+01 1.699198e+02
      vertex   -4.307015e+01 9.499778e+01 1.700734e+02
      vertex   -4.302511e+01 9.499777e+01 1.702236e+02
    endloop
  endfacet
  facet normal 4.567484e-01 8.560009e-01 -2.421639e-01
    outer loop
      vertex   -4.295164e+01 9.499776e+01 1.703621e+02
      vertex   -4.228509e+01 9.451698e+01 1.699198e+02
      vertex   -4.302511e+01 9.499777e+01 1.702236e+02
    endloop
  endfacet
  facet normal 7.750711e-01 -1.114519e-04 -6.318740e-01
    outer loop
      vertex   -4.295621e+01 6.319776e+01 1.703621e+02
      vertex   -4.295560e+01 6.739776e+01 1.703621e+02
      vertex   -4.285711e+01 6.319775e+01 1.704837e+02
    endloop
  endfacet
  facet normal 7.750711e-01 -1.114519e-04 -6.318740e-01
    outer loop
      vertex   -4.285711e+01 6.319775e+01 1.704837e+02
      vertex   -4.295560e+01 6.739776e+01 1.703621e+02
      vertex   -4.285651e+01 6.739775e+01 1.704837e+02
    endloop
  endfacet
  facet normal 6.369058e-01 -9.158434e-05 -7.709416e-01
    outer loop
      vertex   -4.273560e+01 6.739773e+01 1.705836e+02
      vertex   -4.285711e+01 6.319775e+01 1.704837e+02
      vertex   -4.285651e+01 6.739775e+01 1.704837e+02
    endloop
  endfacet
  facet normal 6.369058e-01 -9.158434e-05 -7.709416e-01
    outer loop
      vertex   -4.273560e+01 6.739773e+01 1.705836e+02
      vertex   -4.273621e+01 6.319773e+01 1.705836e+02
      vertex   -4.285711e+01 6.319775e+01 1.704837e+02
    endloop
  endfacet
  facet normal 4.742646e-01 -6.819722e-05 -8.803824e-01
    outer loop
      vertex   -4.273560e+01 6.739773e+01 1.705836e+02
      vertex   -4.259754e+01 6.739771e+01 1.706579e+02
      vertex   -4.273621e+01 6.319773e+01 1.705836e+02
    endloop
  endfacet
  facet normal 4.742646e-01 -6.819722e-05 -8.803824e-01
    outer loop
      vertex   -4.273621e+01 6.319773e+01 1.705836e+02
      vertex   -4.259754e+01 6.739771e+01 1.706579e+02
      vertex   -4.259814e+01 6.319771e+01 1.706579e+02
    endloop
  endfacet
  facet normal 2.933976e-01 -4.218933e-05 -9.559905e-01
    outer loop
      vertex   -4.259814e+01 6.319771e+01 1.706579e+02
      vertex   -4.259754e+01 6.739771e+01 1.706579e+02
      vertex   -4.244761e+01 6.739769e+01 1.707040e+02
    endloop
  endfacet
  facet normal 1.012556e-01 -1.456012e-05 -9.948604e-01
    outer loop
      vertex   -4.244821e+01 6.319769e+01 1.707040e+02
      vertex   -4.244761e+01 6.739769e+01 1.707040e+02
      vertex   -4.229159e+01 6.739767e+01 1.707198e+02
    endloop
  endfacet
  facet normal -9.477763e-02 1.362862e-05 -9.954985e-01
    outer loop
      vertex   -4.229219e+01 6.319767e+01 1.707198e+02
      vertex   -4.229159e+01 6.739767e+01 1.707198e+02
      vertex   -4.213607e+01 6.319764e+01 1.707050e+02
    endloop
  endfacet
  facet normal 1.012556e-01 -1.456012e-05 -9.948604e-01
    outer loop
      vertex   -4.229219e+01 6.319767e+01 1.707198e+02
      vertex   -4.244821e+01 6.319769e+01 1.707040e+02
      vertex   -4.229159e+01 6.739767e+01 1.707198e+02
    endloop
  endfacet
  facet normal -9.477763e-02 1.362862e-05 -9.954985e-01
    outer loop
      vertex   -4.229159e+01 6.739767e+01 1.707198e+02
      vertex   -4.213547e+01 6.739764e+01 1.707050e+02
      vertex   -4.213607e+01 6.319764e+01 1.707050e+02
    endloop
  endfacet
  facet normal -2.871686e-01 4.129362e-05 -9.578800e-01
    outer loop
      vertex   -4.213607e+01 6.319764e+01 1.707050e+02
      vertex   -4.213547e+01 6.739764e+01 1.707050e+02
      vertex   -4.198525e+01 6.739762e+01 1.706599e+02
    endloop
  endfacet
  facet normal -4.685239e-01 6.737173e-05 -8.834508e-01
    outer loop
      vertex   -4.198585e+01 6.319762e+01 1.706599e+02
      vertex   -4.198525e+01 6.739762e+01 1.706599e+02
      vertex   -4.184670e+01 6.739760e+01 1.705865e+02
    endloop
  endfacet
  facet normal -6.318740e-01 9.086079e-05 -7.750711e-01
    outer loop
      vertex   -4.184730e+01 6.319760e+01 1.705865e+02
      vertex   -4.184670e+01 6.739760e+01 1.705865e+02
      vertex   -4.172514e+01 6.739758e+01 1.704874e+02
    endloop
  endfacet
  facet normal -7.709416e-01 1.108581e-04 -6.369058e-01
    outer loop
      vertex   -4.172575e+01 6.319758e+01 1.704874e+02
      vertex   -4.172514e+01 6.739758e+01 1.704874e+02
      vertex   -4.162526e+01 6.739757e+01 1.703665e+02
    endloop
  endfacet
  facet normal -8.803823e-01 1.265952e-04 -4.742646e-01
    outer loop
      vertex   -4.162586e+01 6.319757e+01 1.703665e+02
      vertex   -4.162526e+01 6.739757e+01 1.703665e+02
      vertex   -4.155149e+01 6.319756e+01 1.702284e+02
    endloop
  endfacet
  facet normal -7.709416e-01 1.108581e-04 -6.369058e-01
    outer loop
      vertex   -4.162586e+01 6.319757e+01 1.703665e+02
      vertex   -4.172575e+01 6.319758e+01 1.704874e+02
      vertex   -4.162526e+01 6.739757e+01 1.703665e+02
    endloop
  endfacet
  facet normal -8.803823e-01 1.265952e-04 -4.742646e-01
    outer loop
      vertex   -4.162526e+01 6.739757e+01 1.703665e+02
      vertex   -4.155088e+01 6.739756e+01 1.702284e+02
      vertex   -4.155149e+01 6.319756e+01 1.702284e+02
    endloop
  endfacet
  facet normal -9.559905e-01 1.374673e-04 -2.933977e-01
    outer loop
      vertex   -4.155149e+01 6.319756e+01 1.702284e+02
      vertex   -4.155088e+01 6.739756e+01 1.702284e+02
      vertex   -4.150487e+01 6.739755e+01 1.700785e+02
    endloop
  endfacet
  facet normal -9.948604e-01 1.430567e-04 -1.012556e-01
    outer loop
      vertex   -4.150547e+01 6.319755e+01 1.700785e+02
      vertex   -4.150487e+01 6.739755e+01 1.700785e+02
      vertex   -4.148899e+01 6.739755e+01 1.699224e+02
    endloop
  endfacet
  facet normal -9.954985e-01 1.431484e-04 9.477764e-02
    outer loop
      vertex   -4.148959e+01 6.319755e+01 1.699224e+02
      vertex   -4.148899e+01 6.739755e+01 1.699224e+02
      vertex   -4.150385e+01 6.739755e+01 1.697663e+02
    endloop
  endfacet
  facet normal -9.578800e-01 1.377391e-04 2.871686e-01
    outer loop
      vertex   -4.150446e+01 6.319755e+01 1.697663e+02
      vertex   -4.150385e+01 6.739755e+01 1.697663e+02
      vertex   -4.154889e+01 6.739756e+01 1.696161e+02
    endloop
  endfacet
  facet normal -8.834508e-01 1.270365e-04 4.685239e-01
    outer loop
      vertex   -4.154949e+01 6.319756e+01 1.696161e+02
      vertex   -4.154889e+01 6.739756e+01 1.696161e+02
      vertex   -4.162297e+01 6.319757e+01 1.694776e+02
    endloop
  endfacet
  facet normal -9.578800e-01 1.377391e-04 2.871686e-01
    outer loop
      vertex   -4.154949e+01 6.319756e+01 1.696161e+02
      vertex   -4.150446e+01 6.319755e+01 1.697663e+02
      vertex   -4.154889e+01 6.739756e+01 1.696161e+02
    endloop
  endfacet
  facet normal -8.834508e-01 1.270365e-04 4.685239e-01
    outer loop
      vertex   -4.154889e+01 6.739756e+01 1.696161e+02
      vertex   -4.162237e+01 6.739757e+01 1.694776e+02
      vertex   -4.162297e+01 6.319757e+01 1.694776e+02
    endloop
  endfacet
  facet normal -9.954985e-01 1.431484e-04 9.477764e-02
    outer loop
      vertex   -4.150446e+01 6.319755e+01 1.697663e+02
      vertex   -4.148959e+01 6.319755e+01 1.699224e+02
      vertex   -4.150385e+01 6.739755e+01 1.697663e+02
    endloop
  endfacet
  facet normal -9.948604e-01 1.430567e-04 -1.012556e-01
    outer loop
      vertex   -4.148959e+01 6.319755e+01 1.699224e+02
      vertex   -4.150547e+01 6.319755e+01 1.700785e+02
      vertex   -4.148899e+01 6.739755e+01 1.699224e+02
    endloop
  endfacet
  facet normal -9.559905e-01 1.374673e-04 -2.933977e-01
    outer loop
      vertex   -4.150547e+01 6.319755e+01 1.700785e+02
      vertex   -4.155149e+01 6.319756e+01 1.702284e+02
      vertex   -4.150487e+01 6.739755e+01 1.700785e+02
    endloop
  endfacet
  facet normal -6.318740e-01 9.086079e-05 -7.750711e-01
    outer loop
      vertex   -4.172575e+01 6.319758e+01 1.704874e+02
      vertex   -4.184730e+01 6.319760e+01 1.705865e+02
      vertex   -4.172514e+01 6.739758e+01 1.704874e+02
    endloop
  endfacet
  facet normal -4.685239e-01 6.737173e-05 -8.834508e-01
    outer loop
      vertex   -4.184730e+01 6.319760e+01 1.705865e+02
      vertex   -4.198585e+01 6.319762e+01 1.706599e+02
      vertex   -4.184670e+01 6.739760e+01 1.705865e+02
    endloop
  endfacet
  facet normal -2.871686e-01 4.129362e-05 -9.578800e-01
    outer loop
      vertex   -4.198585e+01 6.319762e+01 1.706599e+02
      vertex   -4.213607e+01 6.319764e+01 1.707050e+02
      vertex   -4.198525e+01 6.739762e+01 1.706599e+02
    endloop
  endfacet
  facet normal 2.933976e-01 -4.218933e-05 -9.559905e-01
    outer loop
      vertex   -4.244821e+01 6.319769e+01 1.707040e+02
      vertex   -4.259814e+01 6.319771e+01 1.706579e+02
      vertex   -4.244761e+01 6.739769e+01 1.707040e+02
    endloop
  endfacet
  facet normal -8.834508e-01 1.270365e-04 4.685239e-01
    outer loop
      vertex   -4.161779e+01 9.919757e+01 1.694776e+02
      vertex   -4.161840e+01 9.499757e+01 1.694776e+02
      vertex   -4.154432e+01 9.919756e+01 1.696161e+02
    endloop
  endfacet
  facet normal -8.834508e-01 1.270365e-04 4.685239e-01
    outer loop
      vertex   -4.154432e+01 9.919756e+01 1.696161e+02
      vertex   -4.161840e+01 9.499757e+01 1.694776e+02
      vertex   -4.154492e+01 9.499756e+01 1.696161e+02
    endloop
  endfacet
  facet normal -9.578800e-01 1.377391e-04 2.871686e-01
    outer loop
      vertex   -4.149988e+01 9.499755e+01 1.697663e+02
      vertex   -4.154432e+01 9.919756e+01 1.696161e+02
      vertex   -4.154492e+01 9.499756e+01 1.696161e+02
    endloop
  endfacet
  facet normal -9.578800e-01 1.377391e-04 2.871686e-01
    outer loop
      vertex   -4.149988e+01 9.499755e+01 1.697663e+02
      vertex   -4.149928e+01 9.919755e+01 1.697663e+02
      vertex   -4.154432e+01 9.919756e+01 1.696161e+02
    endloop
  endfacet
  facet normal -9.954985e-01 1.431484e-04 9.477764e-02
    outer loop
      vertex   -4.149988e+01 9.499755e+01 1.697663e+02
      vertex   -4.148502e+01 9.499755e+01 1.699224e+02
      vertex   -4.149928e+01 9.919755e+01 1.697663e+02
    endloop
  endfacet
  facet normal -9.954985e-01 1.431484e-04 9.477764e-02
    outer loop
      vertex   -4.149928e+01 9.919755e+01 1.697663e+02
      vertex   -4.148502e+01 9.499755e+01 1.699224e+02
      vertex   -4.148442e+01 9.919755e+01 1.699224e+02
    endloop
  endfacet
  facet normal -9.948604e-01 1.430567e-04 -1.012556e-01
    outer loop
      vertex   -4.148442e+01 9.919755e+01 1.699224e+02
      vertex   -4.148502e+01 9.499755e+01 1.699224e+02
      vertex   -4.150090e+01 9.499755e+01 1.700785e+02
    endloop
  endfacet
  facet normal -9.559905e-01 1.374674e-04 -2.933977e-01
    outer loop
      vertex   -4.150030e+01 9.919755e+01 1.700785e+02
      vertex   -4.150090e+01 9.499755e+01 1.700785e+02
      vertex   -4.154691e+01 9.499756e+01 1.702284e+02
    endloop
  endfacet
  facet normal -8.803823e-01 1.265952e-04 -4.742646e-01
    outer loop
      vertex   -4.154631e+01 9.919756e+01 1.702284e+02
      vertex   -4.154691e+01 9.499756e+01 1.702284e+02
      vertex   -4.162069e+01 9.919757e+01 1.703665e+02
    endloop
  endfacet
  facet normal -9.559905e-01 1.374674e-04 -2.933977e-01
    outer loop
      vertex   -4.154631e+01 9.919756e+01 1.702284e+02
      vertex   -4.150030e+01 9.919755e+01 1.700785e+02
      vertex   -4.154691e+01 9.499756e+01 1.702284e+02
    endloop
  endfacet
  facet normal -8.803823e-01 1.265952e-04 -4.742646e-01
    outer loop
      vertex   -4.154691e+01 9.499756e+01 1.702284e+02
      vertex   -4.162129e+01 9.499757e+01 1.703665e+02
      vertex   -4.162069e+01 9.919757e+01 1.703665e+02
    endloop
  endfacet
  facet normal -7.709416e-01 1.108581e-04 -6.369058e-01
    outer loop
      vertex   -4.162069e+01 9.919757e+01 1.703665e+02
      vertex   -4.162129e+01 9.499757e+01 1.703665e+02
      vertex   -4.172118e+01 9.499758e+01 1.704874e+02
    endloop
  endfacet
  facet normal -6.318740e-01 9.086079e-05 -7.750711e-01
    outer loop
      vertex   -4.172057e+01 9.919758e+01 1.704874e+02
      vertex   -4.172118e+01 9.499758e+01 1.704874e+02
      vertex   -4.184273e+01 9.499760e+01 1.705865e+02
    endloop
  endfacet
  facet normal -4.685239e-01 6.737174e-05 -8.834508e-01
    outer loop
      vertex   -4.184212e+01 9.919760e+01 1.705865e+02
      vertex   -4.184273e+01 9.499760e+01 1.705865e+02
      vertex   -4.198128e+01 9.499762e+01 1.706599e+02
    endloop
  endfacet
  facet normal -2.871686e-01 4.129362e-05 -9.578800e-01
    outer loop
      vertex   -4.198067e+01 9.919762e+01 1.706599e+02
      vertex   -4.198128e+01 9.499762e+01 1.706599e+02
      vertex   -4.213150e+01 9.499764e+01 1.707050e+02
    endloop
  endfacet
  facet normal -9.477763e-02 1.362862e-05 -9.954985e-01
    outer loop
      vertex   -4.213090e+01 9.919764e+01 1.707050e+02
      vertex   -4.213150e+01 9.499764e+01 1.707050e+02
      vertex   -4.228702e+01 9.919767e+01 1.707198e+02
    endloop
  endfacet
  facet normal -2.871686e-01 4.129362e-05 -9.578800e-01
    outer loop
      vertex   -4.213090e+01 9.919764e+01 1.707050e+02
      vertex   -4.198067e+01 9.919762e+01 1.706599e+02
      vertex   -4.213150e+01 9.499764e+01 1.707050e+02
    endloop
  endfacet
  facet normal -9.477763e-02 1.362862e-05 -9.954985e-01
    outer loop
      vertex   -4.213150e+01 9.499764e+01 1.707050e+02
      vertex   -4.228762e+01 9.499767e+01 1.707198e+02
      vertex   -4.228702e+01 9.919767e+01 1.707198e+02
    endloop
  endfacet
  facet normal 1.012556e-01 -1.456012e-05 -9.948604e-01
    outer loop
      vertex   -4.228702e+01 9.919767e+01 1.707198e+02
      vertex   -4.228762e+01 9.499767e+01 1.707198e+02
      vertex   -4.244364e+01 9.499769e+01 1.707040e+02
    endloop
  endfacet
  facet normal 2.933976e-01 -4.218933e-05 -9.559905e-01
    outer loop
      vertex   -4.244304e+01 9.919769e+01 1.707040e+02
      vertex   -4.244364e+01 9.499769e+01 1.707040e+02
      vertex   -4.259357e+01 9.499771e+01 1.706579e+02
    endloop
  endfacet
  facet normal 4.742646e-01 -6.819722e-05 -8.803824e-01
    outer loop
      vertex   -4.259296e+01 9.919771e+01 1.706579e+02
      vertex   -4.259357e+01 9.499771e+01 1.706579e+02
      vertex   -4.273164e+01 9.499773e+01 1.705836e+02
    endloop
  endfacet
  facet normal 6.369058e-01 -9.158433e-05 -7.709416e-01
    outer loop
      vertex   -4.273103e+01 9.919773e+01 1.705836e+02
      vertex   -4.273164e+01 9.499773e+01 1.705836e+02
      vertex   -4.285254e+01 9.499775e+01 1.704837e+02
    endloop
  endfacet
  facet normal 7.750711e-01 -1.114519e-04 -6.318740e-01
    outer loop
      vertex   -4.285194e+01 9.919775e+01 1.704837e+02
      vertex   -4.285254e+01 9.499775e+01 1.704837e+02
      vertex   -4.295103e+01 9.919776e+01 1.703621e+02
    endloop
  endfacet
  facet normal 6.369058e-01 -9.158433e-05 -7.709416e-01
    outer loop
      vertex   -4.285194e+01 9.919775e+01 1.704837e+02
      vertex   -4.273103e+01 9.919773e+01 1.705836e+02
      vertex   -4.285254e+01 9.499775e+01 1.704837e+02
    endloop
  endfacet
  facet normal 7.750711e-01 -1.114519e-04 -6.318740e-01
    outer loop
      vertex   -4.285254e+01 9.499775e+01 1.704837e+02
      vertex   -4.295164e+01 9.499776e+01 1.703621e+02
      vertex   -4.295103e+01 9.919776e+01 1.703621e+02
    endloop
  endfacet
  facet normal 4.742646e-01 -6.819722e-05 -8.803824e-01
    outer loop
      vertex   -4.273103e+01 9.919773e+01 1.705836e+02
      vertex   -4.259296e+01 9.919771e+01 1.706579e+02
      vertex   -4.273164e+01 9.499773e+01 1.705836e+02
    endloop
  endfacet
  facet normal 2.933976e-01 -4.218933e-05 -9.559905e-01
    outer loop
      vertex   -4.259296e+01 9.919771e+01 1.706579e+02
      vertex   -4.244304e+01 9.919769e+01 1.707040e+02
      vertex   -4.259357e+01 9.499771e+01 1.706579e+02
    endloop
  endfacet
  facet normal 1.012556e-01 -1.456012e-05 -9.948604e-01
    outer loop
      vertex   -4.244304e+01 9.919769e+01 1.707040e+02
      vertex   -4.228702e+01 9.919767e+01 1.707198e+02
      vertex   -4.244364e+01 9.499769e+01 1.707040e+02
    endloop
  endfacet
  facet normal -4.685239e-01 6.737174e-05 -8.834508e-01
    outer loop
      vertex   -4.198067e+01 9.919762e+01 1.706599e+02
      vertex   -4.184212e+01 9.919760e+01 1.705865e+02
      vertex   -4.198128e+01 9.499762e+01 1.706599e+02
    endloop
  endfacet
  facet normal -6.318740e-01 9.086079e-05 -7.750711e-01
    outer loop
      vertex   -4.184212e+01 9.919760e+01 1.705865e+02
      vertex   -4.172057e+01 9.919758e+01 1.704874e+02
      vertex   -4.184273e+01 9.499760e+01 1.705865e+02
    endloop
  endfacet
  facet normal -7.709416e-01 1.108581e-04 -6.369058e-01
    outer loop
      vertex   -4.172057e+01 9.919758e+01 1.704874e+02
      vertex   -4.162069e+01 9.919757e+01 1.703665e+02
      vertex   -4.172118e+01 9.499758e+01 1.704874e+02
    endloop
  endfacet
  facet normal -9.948604e-01 1.430567e-04 -1.012556e-01
    outer loop
      vertex   -4.150030e+01 9.919755e+01 1.700785e+02
      vertex   -4.148442e+01 9.919755e+01 1.699224e+02
      vertex   -4.150090e+01 9.499755e+01 1.700785e+02
    endloop
  endfacet
endsolid
