solid ascii
  facet normal -1.437957e-04 -1.000000e+00 -2.981922e-13
    outer loop
      vertex   -7.991065e+01 9.600308e+01 1.960609e+02
      vertex   -8.023577e+01 9.600312e+01 1.962766e+02
      vertex   -7.978579e+01 9.600306e+01 1.959097e+02
    endloop
  endfacet
  facet normal -1.437957e-04 -1.000000e+00 -4.772132e-13
    outer loop
      vertex   -7.991065e+01 9.600308e+01 1.960609e+02
      vertex   -8.006259e+01 9.600310e+01 1.961847e+02
      vertex   -8.023577e+01 9.600312e+01 1.962766e+02
    endloop
  endfacet
  facet normal -1.437957e-04 -1.000000e+00 -2.897753e-13
    outer loop
      vertex   -7.978579e+01 9.600306e+01 1.959097e+02
      vertex   -8.042355e+01 9.600315e+01 1.963329e+02
      vertex   -7.969282e+01 9.600304e+01 1.957371e+02
    endloop
  endfacet
  facet normal -1.437957e-04 -1.000000e+00 -2.714508e-13
    outer loop
      vertex   -7.978579e+01 9.600306e+01 1.959097e+02
      vertex   -8.023577e+01 9.600312e+01 1.962766e+02
      vertex   -8.042355e+01 9.600315e+01 1.963329e+02
    endloop
  endfacet
  facet normal -1.437957e-04 -1.000000e+00 -2.259358e-13
    outer loop
      vertex   -7.969282e+01 9.600304e+01 1.957371e+02
      vertex   -8.061870e+01 9.600318e+01 1.963514e+02
      vertex   -7.963530e+01 9.600304e+01 1.955497e+02
    endloop
  endfacet
  facet normal -1.437957e-04 -1.000000e+00 -3.461416e-13
    outer loop
      vertex   -7.969282e+01 9.600304e+01 1.957371e+02
      vertex   -8.042355e+01 9.600315e+01 1.963329e+02
      vertex   -8.061870e+01 9.600318e+01 1.963514e+02
    endloop
  endfacet
  facet normal -1.437957e-04 -1.000000e+00 -3.515922e-13
    outer loop
      vertex   -7.963530e+01 9.600304e+01 1.955497e+02
      vertex   -8.081373e+01 9.600321e+01 1.963316e+02
      vertex   -7.961545e+01 9.600303e+01 1.953547e+02
    endloop
  endfacet
  facet normal -1.437957e-04 -1.000000e+00 -3.431606e-13
    outer loop
      vertex   -7.963530e+01 9.600304e+01 1.955497e+02
      vertex   -8.061870e+01 9.600318e+01 1.963514e+02
      vertex   -8.081373e+01 9.600321e+01 1.963316e+02
    endloop
  endfacet
  facet normal -1.437957e-04 -1.000000e+00 -2.670351e-13
    outer loop
      vertex   -8.081373e+01 9.600321e+01 1.963316e+02
      vertex   -8.100114e+01 9.600323e+01 1.962741e+02
      vertex   -7.961545e+01 9.600303e+01 1.953547e+02
    endloop
  endfacet
  facet normal -1.437957e-04 -1.000000e+00 -2.631187e-13
    outer loop
      vertex   -7.961545e+01 9.600303e+01 1.953547e+02
      vertex   -8.100114e+01 9.600323e+01 1.962741e+02
      vertex   -7.963403e+01 9.600304e+01 1.951596e+02
    endloop
  endfacet
  facet normal -1.437957e-04 -1.000000e+00 -3.155316e-13
    outer loop
      vertex   -7.963403e+01 9.600304e+01 1.951596e+02
      vertex   -8.100114e+01 9.600323e+01 1.962741e+02
      vertex   -8.117372e+01 9.600326e+01 1.961811e+02
    endloop
  endfacet
  facet normal -1.437957e-04 -1.000000e+00 -2.318157e-13
    outer loop
      vertex   -7.969033e+01 9.600304e+01 1.949718e+02
      vertex   -8.117372e+01 9.600326e+01 1.961811e+02
      vertex   -8.132485e+01 9.600328e+01 1.960563e+02
    endloop
  endfacet
  facet normal -1.437957e-04 -1.000000e+00 -3.160497e-13
    outer loop
      vertex   -7.978218e+01 9.600306e+01 1.947986e+02
      vertex   -8.132485e+01 9.600328e+01 1.960563e+02
      vertex   -8.144872e+01 9.600330e+01 1.959043e+02
    endloop
  endfacet
  facet normal -1.437957e-04 -1.000000e+00 -3.347795e-13
    outer loop
      vertex   -7.990604e+01 9.600307e+01 1.946466e+02
      vertex   -8.144872e+01 9.600330e+01 1.959043e+02
      vertex   -8.154057e+01 9.600331e+01 1.957311e+02
    endloop
  endfacet
  facet normal -1.437957e-04 -1.000000e+00 -3.016536e-13
    outer loop
      vertex   -8.005718e+01 9.600310e+01 1.945218e+02
      vertex   -8.154057e+01 9.600331e+01 1.957311e+02
      vertex   -8.159686e+01 9.600332e+01 1.955433e+02
    endloop
  endfacet
  facet normal -1.437957e-04 -1.000000e+00 -2.631186e-13
    outer loop
      vertex   -8.022976e+01 9.600312e+01 1.944288e+02
      vertex   -8.159686e+01 9.600332e+01 1.955433e+02
      vertex   -8.161544e+01 9.600332e+01 1.953482e+02
    endloop
  endfacet
  facet normal -1.437957e-04 -1.000000e+00 -3.515922e-13
    outer loop
      vertex   -8.041717e+01 9.600315e+01 1.943713e+02
      vertex   -8.161544e+01 9.600332e+01 1.953482e+02
      vertex   -8.159559e+01 9.600332e+01 1.951532e+02
    endloop
  endfacet
  facet normal -1.437957e-04 -1.000000e+00 -2.259358e-13
    outer loop
      vertex   -8.061219e+01 9.600318e+01 1.943515e+02
      vertex   -8.159559e+01 9.600332e+01 1.951532e+02
      vertex   -8.153808e+01 9.600331e+01 1.949658e+02
    endloop
  endfacet
  facet normal -1.437957e-04 -1.000000e+00 -2.897754e-13
    outer loop
      vertex   -8.080735e+01 9.600320e+01 1.943700e+02
      vertex   -8.153808e+01 9.600331e+01 1.949658e+02
      vertex   -8.144511e+01 9.600330e+01 1.947932e+02
    endloop
  endfacet
  facet normal -1.437957e-04 -1.000000e+00 -2.981923e-13
    outer loop
      vertex   -8.099512e+01 9.600323e+01 1.944263e+02
      vertex   -8.144511e+01 9.600330e+01 1.947932e+02
      vertex   -8.132025e+01 9.600328e+01 1.946420e+02
    endloop
  endfacet
  facet normal -1.437957e-04 -1.000000e+00 -4.772133e-13
    outer loop
      vertex   -8.116831e+01 9.600326e+01 1.945182e+02
      vertex   -8.099512e+01 9.600323e+01 1.944263e+02
      vertex   -8.132025e+01 9.600328e+01 1.946420e+02
    endloop
  endfacet
  facet normal -1.437957e-04 -1.000000e+00 -2.714508e-13
    outer loop
      vertex   -8.099512e+01 9.600323e+01 1.944263e+02
      vertex   -8.080735e+01 9.600320e+01 1.943700e+02
      vertex   -8.144511e+01 9.600330e+01 1.947932e+02
    endloop
  endfacet
  facet normal -1.437957e-04 -1.000000e+00 -3.461416e-13
    outer loop
      vertex   -8.080735e+01 9.600320e+01 1.943700e+02
      vertex   -8.061219e+01 9.600318e+01 1.943515e+02
      vertex   -8.153808e+01 9.600331e+01 1.949658e+02
    endloop
  endfacet
  facet normal -1.437957e-04 -1.000000e+00 -3.431606e-13
    outer loop
      vertex   -8.061219e+01 9.600318e+01 1.943515e+02
      vertex   -8.041717e+01 9.600315e+01 1.943713e+02
      vertex   -8.159559e+01 9.600332e+01 1.951532e+02
    endloop
  endfacet
  facet normal -1.437957e-04 -1.000000e+00 -2.670351e-13
    outer loop
      vertex   -8.041717e+01 9.600315e+01 1.943713e+02
      vertex   -8.022976e+01 9.600312e+01 1.944288e+02
      vertex   -8.161544e+01 9.600332e+01 1.953482e+02
    endloop
  endfacet
  facet normal -1.437957e-04 -1.000000e+00 -3.155316e-13
    outer loop
      vertex   -8.022976e+01 9.600312e+01 1.944288e+02
      vertex   -8.005718e+01 9.600310e+01 1.945218e+02
      vertex   -8.159686e+01 9.600332e+01 1.955433e+02
    endloop
  endfacet
  facet normal -1.437957e-04 -1.000000e+00 -2.318157e-13
    outer loop
      vertex   -8.005718e+01 9.600310e+01 1.945218e+02
      vertex   -7.990604e+01 9.600307e+01 1.946466e+02
      vertex   -8.154057e+01 9.600331e+01 1.957311e+02
    endloop
  endfacet
  facet normal -1.437957e-04 -1.000000e+00 -3.767474e-13
    outer loop
      vertex   -7.990604e+01 9.600307e+01 1.946466e+02
      vertex   -7.978218e+01 9.600306e+01 1.947986e+02
      vertex   -8.144872e+01 9.600330e+01 1.959043e+02
    endloop
  endfacet
  facet normal -1.437957e-04 -1.000000e+00 -2.740818e-13
    outer loop
      vertex   -8.132485e+01 9.600328e+01 1.960563e+02
      vertex   -7.978218e+01 9.600306e+01 1.947986e+02
      vertex   -7.969033e+01 9.600304e+01 1.949718e+02
    endloop
  endfacet
  facet normal -1.437957e-04 -1.000000e+00 -3.016536e-13
    outer loop
      vertex   -8.117372e+01 9.600326e+01 1.961811e+02
      vertex   -7.969033e+01 9.600304e+01 1.949718e+02
      vertex   -7.963403e+01 9.600304e+01 1.951596e+02
    endloop
  endfacet
  facet normal 8.834508e-01 -1.270365e-04 -4.685239e-01
    outer loop
      vertex   -7.978218e+01 9.600306e+01 1.947986e+02
      vertex   -7.978161e+01 9.993306e+01 1.947986e+02
      vertex   -7.969033e+01 9.600304e+01 1.949718e+02
    endloop
  endfacet
  facet normal 8.834508e-01 -1.270365e-04 -4.685239e-01
    outer loop
      vertex   -7.969033e+01 9.600304e+01 1.949718e+02
      vertex   -7.978161e+01 9.993306e+01 1.947986e+02
      vertex   -7.968976e+01 9.993304e+01 1.949718e+02
    endloop
  endfacet
  facet normal 9.578800e-01 -1.377391e-04 -2.871686e-01
    outer loop
      vertex   -7.963347e+01 9.993304e+01 1.951596e+02
      vertex   -7.969033e+01 9.600304e+01 1.949718e+02
      vertex   -7.968976e+01 9.993304e+01 1.949718e+02
    endloop
  endfacet
  facet normal 9.578800e-01 -1.377391e-04 -2.871686e-01
    outer loop
      vertex   -7.963347e+01 9.993304e+01 1.951596e+02
      vertex   -7.963403e+01 9.600304e+01 1.951596e+02
      vertex   -7.969033e+01 9.600304e+01 1.949718e+02
    endloop
  endfacet
  facet normal 9.954985e-01 -1.431484e-04 -9.477764e-02
    outer loop
      vertex   -7.963347e+01 9.993304e+01 1.951596e+02
      vertex   -7.961489e+01 9.993303e+01 1.953547e+02
      vertex   -7.963403e+01 9.600304e+01 1.951596e+02
    endloop
  endfacet
  facet normal 9.954985e-01 -1.431484e-04 -9.477764e-02
    outer loop
      vertex   -7.963403e+01 9.600304e+01 1.951596e+02
      vertex   -7.961489e+01 9.993303e+01 1.953547e+02
      vertex   -7.961545e+01 9.600303e+01 1.953547e+02
    endloop
  endfacet
  facet normal 9.948604e-01 -1.430567e-04 1.012556e-01
    outer loop
      vertex   -7.961545e+01 9.600303e+01 1.953547e+02
      vertex   -7.961489e+01 9.993303e+01 1.953547e+02
      vertex   -7.963474e+01 9.993304e+01 1.955497e+02
    endloop
  endfacet
  facet normal 9.559905e-01 -1.374674e-04 2.933977e-01
    outer loop
      vertex   -7.963530e+01 9.600304e+01 1.955497e+02
      vertex   -7.963474e+01 9.993304e+01 1.955497e+02
      vertex   -7.969225e+01 9.993304e+01 1.957371e+02
    endloop
  endfacet
  facet normal 8.803823e-01 -1.265952e-04 4.742646e-01
    outer loop
      vertex   -7.969282e+01 9.600304e+01 1.957371e+02
      vertex   -7.969225e+01 9.993304e+01 1.957371e+02
      vertex   -7.978579e+01 9.600306e+01 1.959097e+02
    endloop
  endfacet
  facet normal 9.559905e-01 -1.374674e-04 2.933977e-01
    outer loop
      vertex   -7.969282e+01 9.600304e+01 1.957371e+02
      vertex   -7.963530e+01 9.600304e+01 1.955497e+02
      vertex   -7.969225e+01 9.993304e+01 1.957371e+02
    endloop
  endfacet
  facet normal 8.803823e-01 -1.265952e-04 4.742646e-01
    outer loop
      vertex   -7.969225e+01 9.993304e+01 1.957371e+02
      vertex   -7.978523e+01 9.993306e+01 1.959097e+02
      vertex   -7.978579e+01 9.600306e+01 1.959097e+02
    endloop
  endfacet
  facet normal 7.709416e-01 -1.108581e-04 6.369058e-01
    outer loop
      vertex   -7.978579e+01 9.600306e+01 1.959097e+02
      vertex   -7.978523e+01 9.993306e+01 1.959097e+02
      vertex   -7.991008e+01 9.993308e+01 1.960609e+02
    endloop
  endfacet
  facet normal 6.318740e-01 -9.086079e-05 7.750711e-01
    outer loop
      vertex   -7.991065e+01 9.600308e+01 1.960609e+02
      vertex   -7.991008e+01 9.993308e+01 1.960609e+02
      vertex   -8.006202e+01 9.993310e+01 1.961847e+02
    endloop
  endfacet
  facet normal 4.685239e-01 -6.737173e-05 8.834508e-01
    outer loop
      vertex   -8.006259e+01 9.600310e+01 1.961847e+02
      vertex   -8.006202e+01 9.993310e+01 1.961847e+02
      vertex   -8.023521e+01 9.993312e+01 1.962766e+02
    endloop
  endfacet
  facet normal 2.871686e-01 -4.129362e-05 9.578800e-01
    outer loop
      vertex   -8.023577e+01 9.600312e+01 1.962766e+02
      vertex   -8.023521e+01 9.993312e+01 1.962766e+02
      vertex   -8.042299e+01 9.993315e+01 1.963329e+02
    endloop
  endfacet
  facet normal 9.477763e-02 -1.362862e-05 9.954985e-01
    outer loop
      vertex   -8.042355e+01 9.600315e+01 1.963329e+02
      vertex   -8.042299e+01 9.993315e+01 1.963329e+02
      vertex   -8.061870e+01 9.600318e+01 1.963514e+02
    endloop
  endfacet
  facet normal 2.871686e-01 -4.129362e-05 9.578800e-01
    outer loop
      vertex   -8.042355e+01 9.600315e+01 1.963329e+02
      vertex   -8.023577e+01 9.600312e+01 1.962766e+02
      vertex   -8.042299e+01 9.993315e+01 1.963329e+02
    endloop
  endfacet
  facet normal 9.477763e-02 -1.362862e-05 9.954985e-01
    outer loop
      vertex   -8.042299e+01 9.993315e+01 1.963329e+02
      vertex   -8.061814e+01 9.993318e+01 1.963514e+02
      vertex   -8.061870e+01 9.600318e+01 1.963514e+02
    endloop
  endfacet
  facet normal -1.012556e-01 1.456012e-05 9.948604e-01
    outer loop
      vertex   -8.061870e+01 9.600318e+01 1.963514e+02
      vertex   -8.061814e+01 9.993318e+01 1.963514e+02
      vertex   -8.081317e+01 9.993321e+01 1.963316e+02
    endloop
  endfacet
  facet normal -2.933976e-01 4.218933e-05 9.559905e-01
    outer loop
      vertex   -8.081373e+01 9.600321e+01 1.963316e+02
      vertex   -8.081317e+01 9.993321e+01 1.963316e+02
      vertex   -8.100057e+01 9.993323e+01 1.962741e+02
    endloop
  endfacet
  facet normal -4.742646e-01 6.819722e-05 8.803824e-01
    outer loop
      vertex   -8.100114e+01 9.600323e+01 1.962741e+02
      vertex   -8.100057e+01 9.993323e+01 1.962741e+02
      vertex   -8.117316e+01 9.993326e+01 1.961811e+02
    endloop
  endfacet
  facet normal -6.369058e-01 9.158434e-05 7.709416e-01
    outer loop
      vertex   -8.117372e+01 9.600326e+01 1.961811e+02
      vertex   -8.117316e+01 9.993326e+01 1.961811e+02
      vertex   -8.132429e+01 9.993328e+01 1.960563e+02
    endloop
  endfacet
  facet normal -7.750711e-01 1.114519e-04 6.318740e-01
    outer loop
      vertex   -8.132485e+01 9.600328e+01 1.960563e+02
      vertex   -8.132429e+01 9.993328e+01 1.960563e+02
      vertex   -8.144872e+01 9.600330e+01 1.959043e+02
    endloop
  endfacet
  facet normal -6.369058e-01 9.158434e-05 7.709416e-01
    outer loop
      vertex   -8.132485e+01 9.600328e+01 1.960563e+02
      vertex   -8.117372e+01 9.600326e+01 1.961811e+02
      vertex   -8.132429e+01 9.993328e+01 1.960563e+02
    endloop
  endfacet
  facet normal -7.750711e-01 1.114519e-04 6.318740e-01
    outer loop
      vertex   -8.132429e+01 9.993328e+01 1.960563e+02
      vertex   -8.144816e+01 9.993330e+01 1.959043e+02
      vertex   -8.144872e+01 9.600330e+01 1.959043e+02
    endloop
  endfacet
  facet normal -4.742646e-01 6.819722e-05 8.803824e-01
    outer loop
      vertex   -8.117372e+01 9.600326e+01 1.961811e+02
      vertex   -8.100114e+01 9.600323e+01 1.962741e+02
      vertex   -8.117316e+01 9.993326e+01 1.961811e+02
    endloop
  endfacet
  facet normal -2.933976e-01 4.218933e-05 9.559905e-01
    outer loop
      vertex   -8.100114e+01 9.600323e+01 1.962741e+02
      vertex   -8.081373e+01 9.600321e+01 1.963316e+02
      vertex   -8.100057e+01 9.993323e+01 1.962741e+02
    endloop
  endfacet
  facet normal -1.012556e-01 1.456012e-05 9.948604e-01
    outer loop
      vertex   -8.081373e+01 9.600321e+01 1.963316e+02
      vertex   -8.061870e+01 9.600318e+01 1.963514e+02
      vertex   -8.081317e+01 9.993321e+01 1.963316e+02
    endloop
  endfacet
  facet normal 4.685239e-01 -6.737173e-05 8.834508e-01
    outer loop
      vertex   -8.023577e+01 9.600312e+01 1.962766e+02
      vertex   -8.006259e+01 9.600310e+01 1.961847e+02
      vertex   -8.023521e+01 9.993312e+01 1.962766e+02
    endloop
  endfacet
  facet normal 6.318740e-01 -9.086079e-05 7.750711e-01
    outer loop
      vertex   -8.006259e+01 9.600310e+01 1.961847e+02
      vertex   -7.991065e+01 9.600308e+01 1.960609e+02
      vertex   -8.006202e+01 9.993310e+01 1.961847e+02
    endloop
  endfacet
  facet normal 7.709416e-01 -1.108581e-04 6.369058e-01
    outer loop
      vertex   -7.991065e+01 9.600308e+01 1.960609e+02
      vertex   -7.978579e+01 9.600306e+01 1.959097e+02
      vertex   -7.991008e+01 9.993308e+01 1.960609e+02
    endloop
  endfacet
  facet normal 9.948604e-01 -1.430567e-04 1.012556e-01
    outer loop
      vertex   -7.963530e+01 9.600304e+01 1.955497e+02
      vertex   -7.961545e+01 9.600303e+01 1.953547e+02
      vertex   -7.963474e+01 9.993304e+01 1.955497e+02
    endloop
  endfacet
  facet normal 8.954285e-01 -1.287588e-04 4.452054e-01
    outer loop
      vertex   -8.126344e+01 1.012033e+02 1.953919e+02
      vertex   -8.126362e+01 1.000033e+02 1.953919e+02
      vertex   -8.097406e+01 1.012032e+02 1.948098e+02
    endloop
  endfacet
  facet normal 8.954285e-01 -1.287588e-04 4.452054e-01
    outer loop
      vertex   -8.097406e+01 1.012032e+02 1.948098e+02
      vertex   -8.126362e+01 1.000033e+02 1.953919e+02
      vertex   -8.097423e+01 1.000032e+02 1.948098e+02
    endloop
  endfacet
  facet normal 6.151245e-01 -7.177505e-01 -3.262761e-01
    outer loop
      vertex   -7.978161e+01 9.993306e+01 1.947986e+02
      vertex   -7.903154e+01 1.008021e+02 1.943010e+02
      vertex   -7.968976e+01 9.993304e+01 1.949718e+02
    endloop
  endfacet
  facet normal 6.151245e-01 -7.177505e-01 -3.262761e-01
    outer loop
      vertex   -7.968976e+01 9.993304e+01 1.949718e+02
      vertex   -7.903154e+01 1.008021e+02 1.943010e+02
      vertex   -7.885703e+01 1.008020e+02 1.946301e+02
    endloop
  endfacet
  facet normal 6.669563e-01 -7.177580e-01 -1.999818e-01
    outer loop
      vertex   -7.875007e+01 1.008020e+02 1.949868e+02
      vertex   -7.968976e+01 9.993304e+01 1.949718e+02
      vertex   -7.885703e+01 1.008020e+02 1.946301e+02
    endloop
  endfacet
  facet normal 6.669563e-01 -7.177580e-01 -1.999818e-01
    outer loop
      vertex   -7.875007e+01 1.008020e+02 1.949868e+02
      vertex   -7.963347e+01 9.993304e+01 1.951596e+02
      vertex   -7.968976e+01 9.993304e+01 1.949718e+02
    endloop
  endfacet
  facet normal 6.931535e-01 -7.177618e-01 -6.600234e-02
    outer loop
      vertex   -7.875007e+01 1.008020e+02 1.949868e+02
      vertex   -7.871477e+01 1.008020e+02 1.953576e+02
      vertex   -7.963347e+01 9.993304e+01 1.951596e+02
    endloop
  endfacet
  facet normal 6.931535e-01 -7.177618e-01 -6.600234e-02
    outer loop
      vertex   -7.963347e+01 9.993304e+01 1.951596e+02
      vertex   -7.871477e+01 1.008020e+02 1.953576e+02
      vertex   -7.961489e+01 9.993303e+01 1.953547e+02
    endloop
  endfacet
  facet normal 6.927092e-01 -7.177617e-01 7.051355e-02
    outer loop
      vertex   -7.961489e+01 9.993303e+01 1.953547e+02
      vertex   -7.871477e+01 1.008020e+02 1.953576e+02
      vertex   -7.875248e+01 1.008020e+02 1.957282e+02
    endloop
  endfacet
  facet normal 6.656405e-01 -7.177578e-01 2.043196e-01
    outer loop
      vertex   -7.963474e+01 9.993304e+01 1.955497e+02
      vertex   -7.875248e+01 1.008020e+02 1.957282e+02
      vertex   -7.886176e+01 1.008020e+02 1.960843e+02
    endloop
  endfacet
  facet normal 6.129876e-01 -7.177502e-01 3.302738e-01
    outer loop
      vertex   -7.969225e+01 9.993304e+01 1.957371e+02
      vertex   -7.886176e+01 1.008020e+02 1.960843e+02
      vertex   -7.978523e+01 9.993306e+01 1.959097e+02
    endloop
  endfacet
  facet normal 6.656405e-01 -7.177578e-01 2.043196e-01
    outer loop
      vertex   -7.969225e+01 9.993304e+01 1.957371e+02
      vertex   -7.963474e+01 9.993304e+01 1.955497e+02
      vertex   -7.886176e+01 1.008020e+02 1.960843e+02
    endloop
  endfacet
  facet normal 6.129876e-01 -7.177502e-01 3.302738e-01
    outer loop
      vertex   -7.886176e+01 1.008020e+02 1.960843e+02
      vertex   -7.903841e+01 1.008021e+02 1.964122e+02
      vertex   -7.978523e+01 9.993306e+01 1.959097e+02
    endloop
  endfacet
  facet normal 5.367740e-01 -7.177393e-01 4.435358e-01
    outer loop
      vertex   -7.978523e+01 9.993306e+01 1.959097e+02
      vertex   -7.903841e+01 1.008021e+02 1.964122e+02
      vertex   -7.927564e+01 1.008021e+02 1.966993e+02
    endloop
  endfacet
  facet normal 4.399285e-01 -7.177253e-01 5.397529e-01
    outer loop
      vertex   -7.991008e+01 9.993308e+01 1.960609e+02
      vertex   -7.927564e+01 1.008021e+02 1.966993e+02
      vertex   -7.956432e+01 1.008021e+02 1.969347e+02
    endloop
  endfacet
  facet normal 3.261729e-01 -7.177090e-01 6.152277e-01
    outer loop
      vertex   -8.006202e+01 9.993310e+01 1.961847e+02
      vertex   -7.956432e+01 1.008021e+02 1.969347e+02
      vertex   -7.989338e+01 1.008022e+02 1.971092e+02
    endloop
  endfacet
  facet normal 1.998786e-01 -7.176908e-01 6.670595e-01
    outer loop
      vertex   -8.023521e+01 9.993312e+01 1.962766e+02
      vertex   -7.989338e+01 1.008022e+02 1.971092e+02
      vertex   -8.025015e+01 1.008022e+02 1.972161e+02
    endloop
  endfacet
  facet normal 6.589914e-02 -7.176716e-01 6.932567e-01
    outer loop
      vertex   -8.042299e+01 9.993315e+01 1.963329e+02
      vertex   -8.025015e+01 1.008022e+02 1.972161e+02
      vertex   -8.061814e+01 9.993318e+01 1.963514e+02
    endloop
  endfacet
  facet normal 1.998786e-01 -7.176908e-01 6.670595e-01
    outer loop
      vertex   -8.042299e+01 9.993315e+01 1.963329e+02
      vertex   -8.023521e+01 9.993312e+01 1.962766e+02
      vertex   -8.025015e+01 1.008022e+02 1.972161e+02
    endloop
  endfacet
  facet normal 6.589914e-02 -7.176716e-01 6.932567e-01
    outer loop
      vertex   -8.025015e+01 1.008022e+02 1.972161e+02
      vertex   -8.062094e+01 1.008023e+02 1.972514e+02
      vertex   -8.061814e+01 9.993318e+01 1.963514e+02
    endloop
  endfacet
  facet normal -7.061674e-02 -7.176519e-01 6.928124e-01
    outer loop
      vertex   -8.061814e+01 9.993318e+01 1.963514e+02
      vertex   -8.062094e+01 1.008023e+02 1.972514e+02
      vertex   -8.099149e+01 1.008024e+02 1.972137e+02
    endloop
  endfacet
  facet normal -2.044228e-01 -7.176327e-01 6.657437e-01
    outer loop
      vertex   -8.081317e+01 9.993321e+01 1.963316e+02
      vertex   -8.099149e+01 1.008024e+02 1.972137e+02
      vertex   -8.134757e+01 1.008024e+02 1.971044e+02
    endloop
  endfacet
  facet normal -3.303770e-01 -7.176146e-01 6.130908e-01
    outer loop
      vertex   -8.100057e+01 9.993323e+01 1.962741e+02
      vertex   -8.134757e+01 1.008024e+02 1.971044e+02
      vertex   -8.167548e+01 1.008024e+02 1.969278e+02
    endloop
  endfacet
  facet normal -4.436390e-01 -7.175983e-01 5.368772e-01
    outer loop
      vertex   -8.117316e+01 9.993326e+01 1.961811e+02
      vertex   -8.167548e+01 1.008024e+02 1.969278e+02
      vertex   -8.196263e+01 1.008025e+02 1.966906e+02
    endloop
  endfacet
  facet normal -5.398561e-01 -7.175844e-01 4.400317e-01
    outer loop
      vertex   -8.132429e+01 9.993328e+01 1.960563e+02
      vertex   -8.196263e+01 1.008025e+02 1.966906e+02
      vertex   -8.144816e+01 9.993330e+01 1.959043e+02
    endloop
  endfacet
  facet normal -4.436390e-01 -7.175983e-01 5.368772e-01
    outer loop
      vertex   -8.132429e+01 9.993328e+01 1.960563e+02
      vertex   -8.117316e+01 9.993326e+01 1.961811e+02
      vertex   -8.196263e+01 1.008025e+02 1.966906e+02
    endloop
  endfacet
  facet normal -5.398561e-01 -7.175844e-01 4.400317e-01
    outer loop
      vertex   -8.196263e+01 1.008025e+02 1.966906e+02
      vertex   -8.219798e+01 1.008025e+02 1.964019e+02
      vertex   -8.144816e+01 9.993330e+01 1.959043e+02
    endloop
  endfacet
  facet normal -3.303770e-01 -7.176146e-01 6.130908e-01
    outer loop
      vertex   -8.117316e+01 9.993326e+01 1.961811e+02
      vertex   -8.100057e+01 9.993323e+01 1.962741e+02
      vertex   -8.167548e+01 1.008024e+02 1.969278e+02
    endloop
  endfacet
  facet normal -2.044228e-01 -7.176327e-01 6.657437e-01
    outer loop
      vertex   -8.100057e+01 9.993323e+01 1.962741e+02
      vertex   -8.081317e+01 9.993321e+01 1.963316e+02
      vertex   -8.134757e+01 1.008024e+02 1.971044e+02
    endloop
  endfacet
  facet normal -7.061674e-02 -7.176519e-01 6.928124e-01
    outer loop
      vertex   -8.081317e+01 9.993321e+01 1.963316e+02
      vertex   -8.061814e+01 9.993318e+01 1.963514e+02
      vertex   -8.099149e+01 1.008024e+02 1.972137e+02
    endloop
  endfacet
  facet normal 3.261729e-01 -7.177090e-01 6.152277e-01
    outer loop
      vertex   -8.023521e+01 9.993312e+01 1.962766e+02
      vertex   -8.006202e+01 9.993310e+01 1.961847e+02
      vertex   -7.989338e+01 1.008022e+02 1.971092e+02
    endloop
  endfacet
  facet normal 4.399285e-01 -7.177253e-01 5.397529e-01
    outer loop
      vertex   -8.006202e+01 9.993310e+01 1.961847e+02
      vertex   -7.991008e+01 9.993308e+01 1.960609e+02
      vertex   -7.956432e+01 1.008021e+02 1.969347e+02
    endloop
  endfacet
  facet normal 5.367740e-01 -7.177393e-01 4.435358e-01
    outer loop
      vertex   -7.991008e+01 9.993308e+01 1.960609e+02
      vertex   -7.978523e+01 9.993306e+01 1.959097e+02
      vertex   -7.927564e+01 1.008021e+02 1.966993e+02
    endloop
  endfacet
  facet normal 6.927092e-01 -7.177617e-01 7.051355e-02
    outer loop
      vertex   -7.963474e+01 9.993304e+01 1.955497e+02
      vertex   -7.961489e+01 9.993303e+01 1.953547e+02
      vertex   -7.875248e+01 1.008020e+02 1.957282e+02
    endloop
  endfacet
  facet normal 8.332734e-01 -1.198212e-04 -5.528611e-01
    outer loop
      vertex   -8.090408e+01 1.012032e+02 1.959335e+02
      vertex   -8.090426e+01 1.000032e+02 1.959335e+02
      vertex   -8.126344e+01 1.012033e+02 1.953919e+02
    endloop
  endfacet
  facet normal 8.332734e-01 -1.198212e-04 -5.528611e-01
    outer loop
      vertex   -8.126344e+01 1.012033e+02 1.953919e+02
      vertex   -8.090426e+01 1.000032e+02 1.959335e+02
      vertex   -8.126362e+01 1.000033e+02 1.953919e+02
    endloop
  endfacet
  facet normal -7.750711e-01 1.114519e-04 6.318740e-01
    outer loop
      vertex   -8.219792e+01 1.012034e+02 1.964019e+02
      vertex   -8.219798e+01 1.008025e+02 1.964019e+02
      vertex   -8.196257e+01 1.012034e+02 1.966906e+02
    endloop
  endfacet
  facet normal -7.750711e-01 1.114519e-04 6.318740e-01
    outer loop
      vertex   -8.196257e+01 1.012034e+02 1.966906e+02
      vertex   -8.219798e+01 1.008025e+02 1.964019e+02
      vertex   -8.196263e+01 1.008025e+02 1.966906e+02
    endloop
  endfacet
  facet normal -6.369058e-01 9.158434e-05 7.709416e-01
    outer loop
      vertex   -8.167548e+01 1.008024e+02 1.969278e+02
      vertex   -8.196257e+01 1.012034e+02 1.966906e+02
      vertex   -8.196263e+01 1.008025e+02 1.966906e+02
    endloop
  endfacet
  facet normal -6.369058e-01 9.158434e-05 7.709416e-01
    outer loop
      vertex   -8.167548e+01 1.008024e+02 1.969278e+02
      vertex   -8.167542e+01 1.012033e+02 1.969278e+02
      vertex   -8.196257e+01 1.012034e+02 1.966906e+02
    endloop
  endfacet
  facet normal -4.742646e-01 6.819722e-05 8.803824e-01
    outer loop
      vertex   -8.167548e+01 1.008024e+02 1.969278e+02
      vertex   -8.134757e+01 1.008024e+02 1.971044e+02
      vertex   -8.167542e+01 1.012033e+02 1.969278e+02
    endloop
  endfacet
  facet normal -4.742646e-01 6.819722e-05 8.803824e-01
    outer loop
      vertex   -8.167542e+01 1.012033e+02 1.969278e+02
      vertex   -8.134757e+01 1.008024e+02 1.971044e+02
      vertex   -8.134751e+01 1.012033e+02 1.971044e+02
    endloop
  endfacet
  facet normal -2.933976e-01 4.218933e-05 9.559905e-01
    outer loop
      vertex   -8.134751e+01 1.012033e+02 1.971044e+02
      vertex   -8.134757e+01 1.008024e+02 1.971044e+02
      vertex   -8.099149e+01 1.008024e+02 1.972137e+02
    endloop
  endfacet
  facet normal -1.012556e-01 1.456012e-05 9.948604e-01
    outer loop
      vertex   -8.099144e+01 1.012032e+02 1.972137e+02
      vertex   -8.099149e+01 1.008024e+02 1.972137e+02
      vertex   -8.062094e+01 1.008023e+02 1.972514e+02
    endloop
  endfacet
  facet normal 9.477763e-02 -1.362862e-05 9.954985e-01
    outer loop
      vertex   -8.062089e+01 1.012032e+02 1.972514e+02
      vertex   -8.062094e+01 1.008023e+02 1.972514e+02
      vertex   -8.025010e+01 1.012031e+02 1.972161e+02
    endloop
  endfacet
  facet normal -1.012556e-01 1.456012e-05 9.948604e-01
    outer loop
      vertex   -8.062089e+01 1.012032e+02 1.972514e+02
      vertex   -8.099144e+01 1.012032e+02 1.972137e+02
      vertex   -8.062094e+01 1.008023e+02 1.972514e+02
    endloop
  endfacet
  facet normal 9.477763e-02 -1.362862e-05 9.954985e-01
    outer loop
      vertex   -8.062094e+01 1.008023e+02 1.972514e+02
      vertex   -8.025015e+01 1.008022e+02 1.972161e+02
      vertex   -8.025010e+01 1.012031e+02 1.972161e+02
    endloop
  endfacet
  facet normal 2.871686e-01 -4.129362e-05 9.578800e-01
    outer loop
      vertex   -8.025010e+01 1.012031e+02 1.972161e+02
      vertex   -8.025015e+01 1.008022e+02 1.972161e+02
      vertex   -7.989338e+01 1.008022e+02 1.971092e+02
    endloop
  endfacet
  facet normal 4.685239e-01 -6.737173e-05 8.834508e-01
    outer loop
      vertex   -7.989332e+01 1.012031e+02 1.971092e+02
      vertex   -7.989338e+01 1.008022e+02 1.971092e+02
      vertex   -7.956432e+01 1.008021e+02 1.969347e+02
    endloop
  endfacet
  facet normal 6.318740e-01 -9.086079e-05 7.750711e-01
    outer loop
      vertex   -7.956427e+01 1.012030e+02 1.969347e+02
      vertex   -7.956432e+01 1.008021e+02 1.969347e+02
      vertex   -7.927564e+01 1.008021e+02 1.966993e+02
    endloop
  endfacet
  facet normal 7.709416e-01 -1.108581e-04 6.369058e-01
    outer loop
      vertex   -7.927558e+01 1.012030e+02 1.966993e+02
      vertex   -7.927564e+01 1.008021e+02 1.966993e+02
      vertex   -7.903841e+01 1.008021e+02 1.964122e+02
    endloop
  endfacet
  facet normal 8.803823e-01 -1.265952e-04 4.742646e-01
    outer loop
      vertex   -7.903835e+01 1.012029e+02 1.964122e+02
      vertex   -7.903841e+01 1.008021e+02 1.964122e+02
      vertex   -7.886171e+01 1.012029e+02 1.960843e+02
    endloop
  endfacet
  facet normal 7.709416e-01 -1.108581e-04 6.369058e-01
    outer loop
      vertex   -7.903835e+01 1.012029e+02 1.964122e+02
      vertex   -7.927558e+01 1.012030e+02 1.966993e+02
      vertex   -7.903841e+01 1.008021e+02 1.964122e+02
    endloop
  endfacet
  facet normal 8.803823e-01 -1.265952e-04 4.742646e-01
    outer loop
      vertex   -7.903841e+01 1.008021e+02 1.964122e+02
      vertex   -7.886176e+01 1.008020e+02 1.960843e+02
      vertex   -7.886171e+01 1.012029e+02 1.960843e+02
    endloop
  endfacet
  facet normal 9.559905e-01 -1.374674e-04 2.933977e-01
    outer loop
      vertex   -7.886171e+01 1.012029e+02 1.960843e+02
      vertex   -7.886176e+01 1.008020e+02 1.960843e+02
      vertex   -7.875248e+01 1.008020e+02 1.957282e+02
    endloop
  endfacet
  facet normal 9.948604e-01 -1.430567e-04 1.012556e-01
    outer loop
      vertex   -7.875243e+01 1.012029e+02 1.957282e+02
      vertex   -7.875248e+01 1.008020e+02 1.957282e+02
      vertex   -7.871477e+01 1.008020e+02 1.953576e+02
    endloop
  endfacet
  facet normal 9.954985e-01 -1.431484e-04 -9.477764e-02
    outer loop
      vertex   -7.871471e+01 1.012029e+02 1.953576e+02
      vertex   -7.871477e+01 1.008020e+02 1.953576e+02
      vertex   -7.875007e+01 1.008020e+02 1.949868e+02
    endloop
  endfacet
  facet normal 9.578800e-01 -1.377391e-04 -2.871686e-01
    outer loop
      vertex   -7.875001e+01 1.012029e+02 1.949868e+02
      vertex   -7.875007e+01 1.008020e+02 1.949868e+02
      vertex   -7.885703e+01 1.008020e+02 1.946301e+02
    endloop
  endfacet
  facet normal 8.834508e-01 -1.270365e-04 -4.685239e-01
    outer loop
      vertex   -7.885697e+01 1.012029e+02 1.946301e+02
      vertex   -7.885703e+01 1.008020e+02 1.946301e+02
      vertex   -7.903148e+01 1.012029e+02 1.943010e+02
    endloop
  endfacet
  facet normal 9.578800e-01 -1.377391e-04 -2.871686e-01
    outer loop
      vertex   -7.885697e+01 1.012029e+02 1.946301e+02
      vertex   -7.875001e+01 1.012029e+02 1.949868e+02
      vertex   -7.885703e+01 1.008020e+02 1.946301e+02
    endloop
  endfacet
  facet normal 8.834508e-01 -1.270365e-04 -4.685239e-01
    outer loop
      vertex   -7.885703e+01 1.008020e+02 1.946301e+02
      vertex   -7.903154e+01 1.008021e+02 1.943010e+02
      vertex   -7.903148e+01 1.012029e+02 1.943010e+02
    endloop
  endfacet
  facet normal 9.954985e-01 -1.431484e-04 -9.477764e-02
    outer loop
      vertex   -7.875001e+01 1.012029e+02 1.949868e+02
      vertex   -7.871471e+01 1.012029e+02 1.953576e+02
      vertex   -7.875007e+01 1.008020e+02 1.949868e+02
    endloop
  endfacet
  facet normal 9.948604e-01 -1.430567e-04 1.012556e-01
    outer loop
      vertex   -7.871471e+01 1.012029e+02 1.953576e+02
      vertex   -7.875243e+01 1.012029e+02 1.957282e+02
      vertex   -7.871477e+01 1.008020e+02 1.953576e+02
    endloop
  endfacet
  facet normal 9.559905e-01 -1.374674e-04 2.933977e-01
    outer loop
      vertex   -7.875243e+01 1.012029e+02 1.957282e+02
      vertex   -7.886171e+01 1.012029e+02 1.960843e+02
      vertex   -7.875248e+01 1.008020e+02 1.957282e+02
    endloop
  endfacet
  facet normal 6.318740e-01 -9.086079e-05 7.750711e-01
    outer loop
      vertex   -7.927558e+01 1.012030e+02 1.966993e+02
      vertex   -7.956427e+01 1.012030e+02 1.969347e+02
      vertex   -7.927564e+01 1.008021e+02 1.966993e+02
    endloop
  endfacet
  facet normal 4.685239e-01 -6.737173e-05 8.834508e-01
    outer loop
      vertex   -7.956427e+01 1.012030e+02 1.969347e+02
      vertex   -7.989332e+01 1.012031e+02 1.971092e+02
      vertex   -7.956432e+01 1.008021e+02 1.969347e+02
    endloop
  endfacet
  facet normal 2.871686e-01 -4.129362e-05 9.578800e-01
    outer loop
      vertex   -7.989332e+01 1.012031e+02 1.971092e+02
      vertex   -8.025010e+01 1.012031e+02 1.972161e+02
      vertex   -7.989338e+01 1.008022e+02 1.971092e+02
    endloop
  endfacet
  facet normal -2.933976e-01 4.218933e-05 9.559905e-01
    outer loop
      vertex   -8.099144e+01 1.012032e+02 1.972137e+02
      vertex   -8.134751e+01 1.012033e+02 1.971044e+02
      vertex   -8.099149e+01 1.008024e+02 1.972137e+02
    endloop
  endfacet
  facet normal 1.437957e-04 1.000000e+00 2.867430e-13
    outer loop
      vertex   -7.996613e+01 1.000031e+02 1.953111e+02
      vertex   -8.032549e+01 1.000031e+02 1.947694e+02
      vertex   -8.025551e+01 1.000031e+02 1.958931e+02
    endloop
  endfacet
  facet normal 1.437957e-04 1.000000e+00 2.867444e-13
    outer loop
      vertex   -8.025551e+01 1.000031e+02 1.958931e+02
      vertex   -8.032549e+01 1.000031e+02 1.947694e+02
      vertex   -8.097423e+01 1.000032e+02 1.948098e+02
    endloop
  endfacet
  facet normal 1.437957e-04 1.000000e+00 2.867430e-13
    outer loop
      vertex   -8.090426e+01 1.000032e+02 1.959335e+02
      vertex   -8.097423e+01 1.000032e+02 1.948098e+02
      vertex   -8.126362e+01 1.000033e+02 1.953919e+02
    endloop
  endfacet
  facet normal 1.437957e-04 1.000000e+00 2.867444e-13
    outer loop
      vertex   -8.090426e+01 1.000032e+02 1.959335e+02
      vertex   -8.025551e+01 1.000031e+02 1.958931e+02
      vertex   -8.097423e+01 1.000032e+02 1.948098e+02
    endloop
  endfacet
  facet normal 1.437957e-04 1.000000e+00 3.769248e-13
    outer loop
      vertex   -8.196257e+01 1.012034e+02 1.966906e+02
      vertex   -8.090408e+01 1.012032e+02 1.959335e+02
      vertex   -8.219792e+01 1.012034e+02 1.964019e+02
    endloop
  endfacet
  facet normal 1.437957e-04 1.000000e+00 3.319341e-13
    outer loop
      vertex   -8.196257e+01 1.012034e+02 1.966906e+02
      vertex   -8.167542e+01 1.012033e+02 1.969278e+02
      vertex   -8.090408e+01 1.012032e+02 1.959335e+02
    endloop
  endfacet
  facet normal 1.437957e-04 1.000000e+00 3.120561e-13
    outer loop
      vertex   -8.090408e+01 1.012032e+02 1.959335e+02
      vertex   -8.167542e+01 1.012033e+02 1.969278e+02
      vertex   -8.134751e+01 1.012033e+02 1.971044e+02
    endloop
  endfacet
  facet normal 1.437957e-04 1.000000e+00 3.228269e-13
    outer loop
      vertex   -8.099144e+01 1.012032e+02 1.972137e+02
      vertex   -8.090408e+01 1.012032e+02 1.959335e+02
      vertex   -8.134751e+01 1.012033e+02 1.971044e+02
    endloop
  endfacet
  facet normal 1.437957e-04 1.000000e+00 3.228573e-13
    outer loop
      vertex   -8.099144e+01 1.012032e+02 1.972137e+02
      vertex   -8.062089e+01 1.012032e+02 1.972514e+02
      vertex   -8.090408e+01 1.012032e+02 1.959335e+02
    endloop
  endfacet
  facet normal 1.437957e-04 1.000000e+00 3.226495e-13
    outer loop
      vertex   -8.090408e+01 1.012032e+02 1.959335e+02
      vertex   -8.062089e+01 1.012032e+02 1.972514e+02
      vertex   -8.025534e+01 1.012031e+02 1.958931e+02
    endloop
  endfacet
  facet normal 1.437957e-04 1.000000e+00 3.221233e-13
    outer loop
      vertex   -8.025534e+01 1.012031e+02 1.958931e+02
      vertex   -8.062089e+01 1.012032e+02 1.972514e+02
      vertex   -8.025010e+01 1.012031e+02 1.972161e+02
    endloop
  endfacet
  facet normal 1.437957e-04 1.000000e+00 3.220353e-13
    outer loop
      vertex   -7.989332e+01 1.012031e+02 1.971092e+02
      vertex   -8.025534e+01 1.012031e+02 1.958931e+02
      vertex   -8.025010e+01 1.012031e+02 1.972161e+02
    endloop
  endfacet
  facet normal 1.437957e-04 1.000000e+00 3.278577e-13
    outer loop
      vertex   -7.989332e+01 1.012031e+02 1.971092e+02
      vertex   -7.956427e+01 1.012030e+02 1.969347e+02
      vertex   -8.025534e+01 1.012031e+02 1.958931e+02
    endloop
  endfacet
  facet normal 1.437957e-04 1.000000e+00 3.138252e-13
    outer loop
      vertex   -8.025534e+01 1.012031e+02 1.958931e+02
      vertex   -7.956427e+01 1.012030e+02 1.969347e+02
      vertex   -7.927558e+01 1.012030e+02 1.966993e+02
    endloop
  endfacet
  facet normal 1.437957e-04 1.000000e+00 2.921758e-13
    outer loop
      vertex   -7.903835e+01 1.012029e+02 1.964122e+02
      vertex   -8.025534e+01 1.012031e+02 1.958931e+02
      vertex   -7.927558e+01 1.012030e+02 1.966993e+02
    endloop
  endfacet
  facet normal 1.437957e-04 1.000000e+00 3.386391e-13
    outer loop
      vertex   -7.903835e+01 1.012029e+02 1.964122e+02
      vertex   -7.886171e+01 1.012029e+02 1.960843e+02
      vertex   -8.025534e+01 1.012031e+02 1.958931e+02
    endloop
  endfacet
  facet normal 1.437957e-04 1.000000e+00 3.003152e-13
    outer loop
      vertex   -8.025534e+01 1.012031e+02 1.958931e+02
      vertex   -7.886171e+01 1.012029e+02 1.960843e+02
      vertex   -7.996596e+01 1.012031e+02 1.953111e+02
    endloop
  endfacet
  facet normal 1.437957e-04 1.000000e+00 3.352303e-13
    outer loop
      vertex   -7.996596e+01 1.012031e+02 1.953111e+02
      vertex   -7.886171e+01 1.012029e+02 1.960843e+02
      vertex   -7.875243e+01 1.012029e+02 1.957282e+02
    endloop
  endfacet
  facet normal 1.437957e-04 1.000000e+00 2.948293e-13
    outer loop
      vertex   -7.871471e+01 1.012029e+02 1.953576e+02
      vertex   -7.996596e+01 1.012031e+02 1.953111e+02
      vertex   -7.875243e+01 1.012029e+02 1.957282e+02
    endloop
  endfacet
  facet normal 1.437957e-04 1.000000e+00 2.552113e-13
    outer loop
      vertex   -7.871471e+01 1.012029e+02 1.953576e+02
      vertex   -7.875001e+01 1.012029e+02 1.949868e+02
      vertex   -7.996596e+01 1.012031e+02 1.953111e+02
    endloop
  endfacet
  facet normal 1.437957e-04 1.000000e+00 3.030302e-13
    outer loop
      vertex   -7.996596e+01 1.012031e+02 1.953111e+02
      vertex   -7.875001e+01 1.012029e+02 1.949868e+02
      vertex   -7.885697e+01 1.012029e+02 1.946301e+02
    endloop
  endfacet
  facet normal 1.437957e-04 1.000000e+00 2.738544e-13
    outer loop
      vertex   -7.903148e+01 1.012029e+02 1.943010e+02
      vertex   -7.996596e+01 1.012031e+02 1.953111e+02
      vertex   -7.885697e+01 1.012029e+02 1.946301e+02
    endloop
  endfacet
  facet normal 1.437957e-04 1.000000e+00 2.763195e-13
    outer loop
      vertex   -7.903148e+01 1.012029e+02 1.943010e+02
      vertex   -8.032532e+01 1.012031e+02 1.947694e+02
      vertex   -7.996596e+01 1.012031e+02 1.953111e+02
    endloop
  endfacet
  facet normal 1.437957e-04 1.000000e+00 2.870804e-13
    outer loop
      vertex   -7.903148e+01 1.012029e+02 1.943010e+02
      vertex   -7.926683e+01 1.012030e+02 1.940123e+02
      vertex   -8.032532e+01 1.012031e+02 1.947694e+02
    endloop
  endfacet
  facet normal 1.437957e-04 1.000000e+00 2.970928e-13
    outer loop
      vertex   -8.032532e+01 1.012031e+02 1.947694e+02
      vertex   -7.926683e+01 1.012030e+02 1.940123e+02
      vertex   -7.955398e+01 1.012030e+02 1.937751e+02
    endloop
  endfacet
  facet normal 1.437957e-04 1.000000e+00 2.717356e-13
    outer loop
      vertex   -7.988189e+01 1.012031e+02 1.935985e+02
      vertex   -8.032532e+01 1.012031e+02 1.947694e+02
      vertex   -7.955398e+01 1.012030e+02 1.937751e+02
    endloop
  endfacet
  facet normal 1.437957e-04 1.000000e+00 2.793357e-13
    outer loop
      vertex   -7.988189e+01 1.012031e+02 1.935985e+02
      vertex   -8.023797e+01 1.012031e+02 1.934892e+02
      vertex   -8.032532e+01 1.012031e+02 1.947694e+02
    endloop
  endfacet
  facet normal 1.437957e-04 1.000000e+00 2.787615e-13
    outer loop
      vertex   -8.032532e+01 1.012031e+02 1.947694e+02
      vertex   -8.023797e+01 1.012031e+02 1.934892e+02
      vertex   -8.060852e+01 1.012032e+02 1.934515e+02
    endloop
  endfacet
  facet normal 1.437957e-04 1.000000e+00 2.791759e-13
    outer loop
      vertex   -8.097406e+01 1.012032e+02 1.948098e+02
      vertex   -8.060852e+01 1.012032e+02 1.934515e+02
      vertex   -8.097931e+01 1.012032e+02 1.934868e+02
    endloop
  endfacet
  facet normal 1.437957e-04 1.000000e+00 2.791227e-13
    outer loop
      vertex   -8.133608e+01 1.012033e+02 1.935937e+02
      vertex   -8.097406e+01 1.012032e+02 1.948098e+02
      vertex   -8.097931e+01 1.012032e+02 1.934868e+02
    endloop
  endfacet
  facet normal 1.437957e-04 1.000000e+00 2.874886e-13
    outer loop
      vertex   -8.133608e+01 1.012033e+02 1.935937e+02
      vertex   -8.166514e+01 1.012033e+02 1.937682e+02
      vertex   -8.097406e+01 1.012032e+02 1.948098e+02
    endloop
  endfacet
  facet normal 1.437957e-04 1.000000e+00 2.784086e-13
    outer loop
      vertex   -8.097406e+01 1.012032e+02 1.948098e+02
      vertex   -8.166514e+01 1.012033e+02 1.937682e+02
      vertex   -8.195382e+01 1.012034e+02 1.940036e+02
    endloop
  endfacet
  facet normal 1.437957e-04 1.000000e+00 2.636427e-13
    outer loop
      vertex   -8.219105e+01 1.012034e+02 1.942907e+02
      vertex   -8.097406e+01 1.012032e+02 1.948098e+02
      vertex   -8.195382e+01 1.012034e+02 1.940036e+02
    endloop
  endfacet
  facet normal 1.437957e-04 1.000000e+00 3.181786e-13
    outer loop
      vertex   -8.219105e+01 1.012034e+02 1.942907e+02
      vertex   -8.236770e+01 1.012034e+02 1.946186e+02
      vertex   -8.097406e+01 1.012032e+02 1.948098e+02
    endloop
  endfacet
  facet normal 1.437957e-04 1.000000e+00 2.813305e-13
    outer loop
      vertex   -8.097406e+01 1.012032e+02 1.948098e+02
      vertex   -8.236770e+01 1.012034e+02 1.946186e+02
      vertex   -8.126344e+01 1.012033e+02 1.953919e+02
    endloop
  endfacet
  facet normal 1.437957e-04 1.000000e+00 3.222263e-13
    outer loop
      vertex   -8.126344e+01 1.012033e+02 1.953919e+02
      vertex   -8.236770e+01 1.012034e+02 1.946186e+02
      vertex   -8.247698e+01 1.012034e+02 1.949747e+02
    endloop
  endfacet
  facet normal 1.437957e-04 1.000000e+00 2.902230e-13
    outer loop
      vertex   -8.251469e+01 1.012034e+02 1.953453e+02
      vertex   -8.126344e+01 1.012033e+02 1.953919e+02
      vertex   -8.247698e+01 1.012034e+02 1.949747e+02
    endloop
  endfacet
  facet normal 1.437957e-04 1.000000e+00 2.595519e-13
    outer loop
      vertex   -8.251469e+01 1.012034e+02 1.953453e+02
      vertex   -8.247939e+01 1.012034e+02 1.957161e+02
      vertex   -8.126344e+01 1.012033e+02 1.953919e+02
    endloop
  endfacet
  facet normal 1.437957e-04 1.000000e+00 3.160078e-13
    outer loop
      vertex   -8.126344e+01 1.012033e+02 1.953919e+02
      vertex   -8.247939e+01 1.012034e+02 1.957161e+02
      vertex   -8.237243e+01 1.012034e+02 1.960728e+02
    endloop
  endfacet
  facet normal 1.437957e-04 1.000000e+00 2.292044e-13
    outer loop
      vertex   -8.219792e+01 1.012034e+02 1.964019e+02
      vertex   -8.126344e+01 1.012033e+02 1.953919e+02
      vertex   -8.237243e+01 1.012034e+02 1.960728e+02
    endloop
  endfacet
  facet normal 1.437957e-04 1.000000e+00 2.880692e-13
    outer loop
      vertex   -8.219792e+01 1.012034e+02 1.964019e+02
      vertex   -8.090408e+01 1.012032e+02 1.959335e+02
      vertex   -8.126344e+01 1.012033e+02 1.953919e+02
    endloop
  endfacet
  facet normal 1.437957e-04 1.000000e+00 2.800884e-13
    outer loop
      vertex   -8.097406e+01 1.012032e+02 1.948098e+02
      vertex   -8.032532e+01 1.012031e+02 1.947694e+02
      vertex   -8.060852e+01 1.012032e+02 1.934515e+02
    endloop
  endfacet
  facet normal -6.215509e-02 8.937637e-06 -9.980665e-01
    outer loop
      vertex   -8.025534e+01 1.012031e+02 1.958931e+02
      vertex   -8.025551e+01 1.000031e+02 1.958931e+02
      vertex   -8.090408e+01 1.012032e+02 1.959335e+02
    endloop
  endfacet
  facet normal -6.215509e-02 8.937637e-06 -9.980665e-01
    outer loop
      vertex   -8.090408e+01 1.012032e+02 1.959335e+02
      vertex   -8.025551e+01 1.000031e+02 1.958931e+02
      vertex   -8.090426e+01 1.000032e+02 1.959335e+02
    endloop
  endfacet
  facet normal -8.954285e-01 1.287588e-04 -4.452054e-01
    outer loop
      vertex   -7.996613e+01 1.000031e+02 1.953111e+02
      vertex   -8.025551e+01 1.000031e+02 1.958931e+02
      vertex   -7.996596e+01 1.012031e+02 1.953111e+02
    endloop
  endfacet
  facet normal -8.954285e-01 1.287588e-04 -4.452054e-01
    outer loop
      vertex   -7.996596e+01 1.012031e+02 1.953111e+02
      vertex   -8.025551e+01 1.000031e+02 1.958931e+02
      vertex   -8.025534e+01 1.012031e+02 1.958931e+02
    endloop
  endfacet
  facet normal -8.332734e-01 1.198212e-04 5.528611e-01
    outer loop
      vertex   -8.032549e+01 1.000031e+02 1.947694e+02
      vertex   -7.996613e+01 1.000031e+02 1.953111e+02
      vertex   -8.032532e+01 1.012031e+02 1.947694e+02
    endloop
  endfacet
  facet normal -8.332734e-01 1.198212e-04 5.528611e-01
    outer loop
      vertex   -8.032532e+01 1.012031e+02 1.947694e+02
      vertex   -7.996613e+01 1.000031e+02 1.953111e+02
      vertex   -7.996596e+01 1.012031e+02 1.953111e+02
    endloop
  endfacet
  facet normal 6.215509e-02 -8.937637e-06 9.980665e-01
    outer loop
      vertex   -8.097406e+01 1.012032e+02 1.948098e+02
      vertex   -8.097423e+01 1.000032e+02 1.948098e+02
      vertex   -8.032532e+01 1.012031e+02 1.947694e+02
    endloop
  endfacet
  facet normal 6.215509e-02 -8.937637e-06 9.980665e-01
    outer loop
      vertex   -8.032532e+01 1.012031e+02 1.947694e+02
      vertex   -8.097423e+01 1.000032e+02 1.948098e+02
      vertex   -8.032549e+01 1.000031e+02 1.947694e+02
    endloop
  endfacet
  facet normal -6.153309e-01 -7.175736e-01 3.262761e-01
    outer loop
      vertex   -8.144816e+01 9.993330e+01 1.959043e+02
      vertex   -8.219798e+01 1.008025e+02 1.964019e+02
      vertex   -8.154000e+01 9.993331e+01 1.957311e+02
    endloop
  endfacet
  facet normal -6.153309e-01 -7.175736e-01 3.262761e-01
    outer loop
      vertex   -8.154000e+01 9.993331e+01 1.957311e+02
      vertex   -8.219798e+01 1.008025e+02 1.964019e+02
      vertex   -8.237249e+01 1.008025e+02 1.960728e+02
    endloop
  endfacet
  facet normal -6.671627e-01 -7.175661e-01 1.999818e-01
    outer loop
      vertex   -8.247945e+01 1.008026e+02 1.957161e+02
      vertex   -8.154000e+01 9.993331e+01 1.957311e+02
      vertex   -8.237249e+01 1.008025e+02 1.960728e+02
    endloop
  endfacet
  facet normal -6.671627e-01 -7.175661e-01 1.999818e-01
    outer loop
      vertex   -8.247945e+01 1.008026e+02 1.957161e+02
      vertex   -8.159630e+01 9.993332e+01 1.955433e+02
      vertex   -8.154000e+01 9.993331e+01 1.957311e+02
    endloop
  endfacet
  facet normal -6.933599e-01 -7.175624e-01 6.600234e-02
    outer loop
      vertex   -8.247945e+01 1.008026e+02 1.957161e+02
      vertex   -8.251475e+01 1.008026e+02 1.953453e+02
      vertex   -8.159630e+01 9.993332e+01 1.955433e+02
    endloop
  endfacet
  facet normal -6.933599e-01 -7.175624e-01 6.600234e-02
    outer loop
      vertex   -8.159630e+01 9.993332e+01 1.955433e+02
      vertex   -8.251475e+01 1.008026e+02 1.953453e+02
      vertex   -8.161488e+01 9.993332e+01 1.953482e+02
    endloop
  endfacet
  facet normal -6.929156e-01 -7.175624e-01 -7.051355e-02
    outer loop
      vertex   -8.161488e+01 9.993332e+01 1.953482e+02
      vertex   -8.251475e+01 1.008026e+02 1.953453e+02
      vertex   -8.247703e+01 1.008026e+02 1.949747e+02
    endloop
  endfacet
  facet normal -6.658469e-01 -7.175663e-01 -2.043196e-01
    outer loop
      vertex   -8.159503e+01 9.993332e+01 1.951532e+02
      vertex   -8.247703e+01 1.008026e+02 1.949747e+02
      vertex   -8.236775e+01 1.008025e+02 1.946186e+02
    endloop
  endfacet
  facet normal -6.131940e-01 -7.175739e-01 -3.302738e-01
    outer loop
      vertex   -8.153751e+01 9.993331e+01 1.949658e+02
      vertex   -8.236775e+01 1.008025e+02 1.946186e+02
      vertex   -8.144454e+01 9.993330e+01 1.947932e+02
    endloop
  endfacet
  facet normal -6.658469e-01 -7.175663e-01 -2.043196e-01
    outer loop
      vertex   -8.153751e+01 9.993331e+01 1.949658e+02
      vertex   -8.159503e+01 9.993332e+01 1.951532e+02
      vertex   -8.236775e+01 1.008025e+02 1.946186e+02
    endloop
  endfacet
  facet normal -6.131940e-01 -7.175739e-01 -3.302738e-01
    outer loop
      vertex   -8.236775e+01 1.008025e+02 1.946186e+02
      vertex   -8.219111e+01 1.008025e+02 1.942907e+02
      vertex   -8.144454e+01 9.993330e+01 1.947932e+02
    endloop
  endfacet
  facet normal -5.369804e-01 -7.175849e-01 -4.435358e-01
    outer loop
      vertex   -8.144454e+01 9.993330e+01 1.947932e+02
      vertex   -8.219111e+01 1.008025e+02 1.942907e+02
      vertex   -8.195388e+01 1.008025e+02 1.940036e+02
    endloop
  endfacet
  facet normal -4.401349e-01 -7.175988e-01 -5.397529e-01
    outer loop
      vertex   -8.131969e+01 9.993328e+01 1.946420e+02
      vertex   -8.195388e+01 1.008025e+02 1.940036e+02
      vertex   -8.166520e+01 1.008024e+02 1.937682e+02
    endloop
  endfacet
  facet normal -3.263793e-01 -7.176151e-01 -6.152277e-01
    outer loop
      vertex   -8.116775e+01 9.993326e+01 1.945182e+02
      vertex   -8.166520e+01 1.008024e+02 1.937682e+02
      vertex   -8.133614e+01 1.008024e+02 1.935937e+02
    endloop
  endfacet
  facet normal -2.000850e-01 -7.176333e-01 -6.670595e-01
    outer loop
      vertex   -8.099456e+01 9.993323e+01 1.944263e+02
      vertex   -8.133614e+01 1.008024e+02 1.935937e+02
      vertex   -8.097936e+01 1.008023e+02 1.934868e+02
    endloop
  endfacet
  facet normal -6.610554e-02 -7.176526e-01 -6.932567e-01
    outer loop
      vertex   -8.080678e+01 9.993320e+01 1.943700e+02
      vertex   -8.097936e+01 1.008023e+02 1.934868e+02
      vertex   -8.061163e+01 9.993318e+01 1.943515e+02
    endloop
  endfacet
  facet normal -2.000850e-01 -7.176333e-01 -6.670595e-01
    outer loop
      vertex   -8.080678e+01 9.993320e+01 1.943700e+02
      vertex   -8.099456e+01 9.993323e+01 1.944263e+02
      vertex   -8.097936e+01 1.008023e+02 1.934868e+02
    endloop
  endfacet
  facet normal -6.610554e-02 -7.176526e-01 -6.932567e-01
    outer loop
      vertex   -8.097936e+01 1.008023e+02 1.934868e+02
      vertex   -8.060858e+01 1.008023e+02 1.934515e+02
      vertex   -8.061163e+01 9.993318e+01 1.943515e+02
    endloop
  endfacet
  facet normal 7.041035e-02 -7.176722e-01 -6.928124e-01
    outer loop
      vertex   -8.061163e+01 9.993318e+01 1.943515e+02
      vertex   -8.060858e+01 1.008023e+02 1.934515e+02
      vertex   -8.023802e+01 1.008022e+02 1.934892e+02
    endloop
  endfacet
  facet normal 2.042164e-01 -7.176914e-01 -6.657437e-01
    outer loop
      vertex   -8.041660e+01 9.993315e+01 1.943713e+02
      vertex   -8.023802e+01 1.008022e+02 1.934892e+02
      vertex   -7.988195e+01 1.008022e+02 1.935985e+02
    endloop
  endfacet
  facet normal 3.301706e-01 -7.177096e-01 -6.130908e-01
    outer loop
      vertex   -8.022920e+01 9.993312e+01 1.944288e+02
      vertex   -7.988195e+01 1.008022e+02 1.935985e+02
      vertex   -7.955404e+01 1.008021e+02 1.937751e+02
    endloop
  endfacet
  facet normal 4.434326e-01 -7.177258e-01 -5.368772e-01
    outer loop
      vertex   -8.005661e+01 9.993310e+01 1.945218e+02
      vertex   -7.955404e+01 1.008021e+02 1.937751e+02
      vertex   -7.926689e+01 1.008021e+02 1.940123e+02
    endloop
  endfacet
  facet normal 5.396497e-01 -7.177397e-01 -4.400317e-01
    outer loop
      vertex   -7.990548e+01 9.993307e+01 1.946466e+02
      vertex   -7.926689e+01 1.008021e+02 1.940123e+02
      vertex   -7.978161e+01 9.993306e+01 1.947986e+02
    endloop
  endfacet
  facet normal 4.434326e-01 -7.177258e-01 -5.368772e-01
    outer loop
      vertex   -7.990548e+01 9.993307e+01 1.946466e+02
      vertex   -8.005661e+01 9.993310e+01 1.945218e+02
      vertex   -7.926689e+01 1.008021e+02 1.940123e+02
    endloop
  endfacet
  facet normal 5.396497e-01 -7.177397e-01 -4.400317e-01
    outer loop
      vertex   -7.926689e+01 1.008021e+02 1.940123e+02
      vertex   -7.903154e+01 1.008021e+02 1.943010e+02
      vertex   -7.978161e+01 9.993306e+01 1.947986e+02
    endloop
  endfacet
  facet normal 3.301706e-01 -7.177096e-01 -6.130908e-01
    outer loop
      vertex   -8.005661e+01 9.993310e+01 1.945218e+02
      vertex   -8.022920e+01 9.993312e+01 1.944288e+02
      vertex   -7.955404e+01 1.008021e+02 1.937751e+02
    endloop
  endfacet
  facet normal 2.042164e-01 -7.176914e-01 -6.657437e-01
    outer loop
      vertex   -8.022920e+01 9.993312e+01 1.944288e+02
      vertex   -8.041660e+01 9.993315e+01 1.943713e+02
      vertex   -7.988195e+01 1.008022e+02 1.935985e+02
    endloop
  endfacet
  facet normal 7.041035e-02 -7.176722e-01 -6.928124e-01
    outer loop
      vertex   -8.041660e+01 9.993315e+01 1.943713e+02
      vertex   -8.061163e+01 9.993318e+01 1.943515e+02
      vertex   -8.023802e+01 1.008022e+02 1.934892e+02
    endloop
  endfacet
  facet normal -3.263793e-01 -7.176151e-01 -6.152277e-01
    outer loop
      vertex   -8.099456e+01 9.993323e+01 1.944263e+02
      vertex   -8.116775e+01 9.993326e+01 1.945182e+02
      vertex   -8.133614e+01 1.008024e+02 1.935937e+02
    endloop
  endfacet
  facet normal -4.401349e-01 -7.175988e-01 -5.397529e-01
    outer loop
      vertex   -8.116775e+01 9.993326e+01 1.945182e+02
      vertex   -8.131969e+01 9.993328e+01 1.946420e+02
      vertex   -8.166520e+01 1.008024e+02 1.937682e+02
    endloop
  endfacet
  facet normal -5.369804e-01 -7.175849e-01 -4.435358e-01
    outer loop
      vertex   -8.131969e+01 9.993328e+01 1.946420e+02
      vertex   -8.144454e+01 9.993330e+01 1.947932e+02
      vertex   -8.195388e+01 1.008025e+02 1.940036e+02
    endloop
  endfacet
  facet normal -6.929156e-01 -7.175624e-01 -7.051355e-02
    outer loop
      vertex   -8.159503e+01 9.993332e+01 1.951532e+02
      vertex   -8.161488e+01 9.993332e+01 1.953482e+02
      vertex   -8.247703e+01 1.008026e+02 1.949747e+02
    endloop
  endfacet
  facet normal 7.750711e-01 -1.114519e-04 -6.318740e-01
    outer loop
      vertex   -7.903148e+01 1.012029e+02 1.943010e+02
      vertex   -7.903154e+01 1.008021e+02 1.943010e+02
      vertex   -7.926683e+01 1.012030e+02 1.940123e+02
    endloop
  endfacet
  facet normal 7.750711e-01 -1.114519e-04 -6.318740e-01
    outer loop
      vertex   -7.926683e+01 1.012030e+02 1.940123e+02
      vertex   -7.903154e+01 1.008021e+02 1.943010e+02
      vertex   -7.926689e+01 1.008021e+02 1.940123e+02
    endloop
  endfacet
  facet normal 6.369058e-01 -9.158434e-05 -7.709416e-01
    outer loop
      vertex   -7.955404e+01 1.008021e+02 1.937751e+02
      vertex   -7.926683e+01 1.012030e+02 1.940123e+02
      vertex   -7.926689e+01 1.008021e+02 1.940123e+02
    endloop
  endfacet
  facet normal 6.369058e-01 -9.158434e-05 -7.709416e-01
    outer loop
      vertex   -7.955404e+01 1.008021e+02 1.937751e+02
      vertex   -7.955398e+01 1.012030e+02 1.937751e+02
      vertex   -7.926683e+01 1.012030e+02 1.940123e+02
    endloop
  endfacet
  facet normal 4.742646e-01 -6.819722e-05 -8.803824e-01
    outer loop
      vertex   -7.955404e+01 1.008021e+02 1.937751e+02
      vertex   -7.988195e+01 1.008022e+02 1.935985e+02
      vertex   -7.955398e+01 1.012030e+02 1.937751e+02
    endloop
  endfacet
  facet normal 4.742646e-01 -6.819722e-05 -8.803824e-01
    outer loop
      vertex   -7.955398e+01 1.012030e+02 1.937751e+02
      vertex   -7.988195e+01 1.008022e+02 1.935985e+02
      vertex   -7.988189e+01 1.012031e+02 1.935985e+02
    endloop
  endfacet
  facet normal 2.933976e-01 -4.218933e-05 -9.559905e-01
    outer loop
      vertex   -7.988189e+01 1.012031e+02 1.935985e+02
      vertex   -7.988195e+01 1.008022e+02 1.935985e+02
      vertex   -8.023802e+01 1.008022e+02 1.934892e+02
    endloop
  endfacet
  facet normal 1.012556e-01 -1.456012e-05 -9.948604e-01
    outer loop
      vertex   -8.023797e+01 1.012031e+02 1.934892e+02
      vertex   -8.023802e+01 1.008022e+02 1.934892e+02
      vertex   -8.060858e+01 1.008023e+02 1.934515e+02
    endloop
  endfacet
  facet normal -9.477763e-02 1.362862e-05 -9.954985e-01
    outer loop
      vertex   -8.060852e+01 1.012032e+02 1.934515e+02
      vertex   -8.060858e+01 1.008023e+02 1.934515e+02
      vertex   -8.097931e+01 1.012032e+02 1.934868e+02
    endloop
  endfacet
  facet normal 1.012556e-01 -1.456012e-05 -9.948604e-01
    outer loop
      vertex   -8.060852e+01 1.012032e+02 1.934515e+02
      vertex   -8.023797e+01 1.012031e+02 1.934892e+02
      vertex   -8.060858e+01 1.008023e+02 1.934515e+02
    endloop
  endfacet
  facet normal -9.477763e-02 1.362862e-05 -9.954985e-01
    outer loop
      vertex   -8.060858e+01 1.008023e+02 1.934515e+02
      vertex   -8.097936e+01 1.008023e+02 1.934868e+02
      vertex   -8.097931e+01 1.012032e+02 1.934868e+02
    endloop
  endfacet
  facet normal -2.871686e-01 4.129362e-05 -9.578800e-01
    outer loop
      vertex   -8.097931e+01 1.012032e+02 1.934868e+02
      vertex   -8.097936e+01 1.008023e+02 1.934868e+02
      vertex   -8.133614e+01 1.008024e+02 1.935937e+02
    endloop
  endfacet
  facet normal -4.685239e-01 6.737173e-05 -8.834508e-01
    outer loop
      vertex   -8.133608e+01 1.012033e+02 1.935937e+02
      vertex   -8.133614e+01 1.008024e+02 1.935937e+02
      vertex   -8.166520e+01 1.008024e+02 1.937682e+02
    endloop
  endfacet
  facet normal -6.318740e-01 9.086079e-05 -7.750711e-01
    outer loop
      vertex   -8.166514e+01 1.012033e+02 1.937682e+02
      vertex   -8.166520e+01 1.008024e+02 1.937682e+02
      vertex   -8.195388e+01 1.008025e+02 1.940036e+02
    endloop
  endfacet
  facet normal -7.709416e-01 1.108581e-04 -6.369058e-01
    outer loop
      vertex   -8.195382e+01 1.012034e+02 1.940036e+02
      vertex   -8.195388e+01 1.008025e+02 1.940036e+02
      vertex   -8.219111e+01 1.008025e+02 1.942907e+02
    endloop
  endfacet
  facet normal -8.803823e-01 1.265952e-04 -4.742646e-01
    outer loop
      vertex   -8.219105e+01 1.012034e+02 1.942907e+02
      vertex   -8.219111e+01 1.008025e+02 1.942907e+02
      vertex   -8.236770e+01 1.012034e+02 1.946186e+02
    endloop
  endfacet
  facet normal -7.709416e-01 1.108581e-04 -6.369058e-01
    outer loop
      vertex   -8.219105e+01 1.012034e+02 1.942907e+02
      vertex   -8.195382e+01 1.012034e+02 1.940036e+02
      vertex   -8.219111e+01 1.008025e+02 1.942907e+02
    endloop
  endfacet
  facet normal -8.803823e-01 1.265952e-04 -4.742646e-01
    outer loop
      vertex   -8.219111e+01 1.008025e+02 1.942907e+02
      vertex   -8.236775e+01 1.008025e+02 1.946186e+02
      vertex   -8.236770e+01 1.012034e+02 1.946186e+02
    endloop
  endfacet
  facet normal -9.559905e-01 1.374674e-04 -2.933977e-01
    outer loop
      vertex   -8.236770e+01 1.012034e+02 1.946186e+02
      vertex   -8.236775e+01 1.008025e+02 1.946186e+02
      vertex   -8.247703e+01 1.008026e+02 1.949747e+02
    endloop
  endfacet
  facet normal -9.948604e-01 1.430567e-04 -1.012556e-01
    outer loop
      vertex   -8.247698e+01 1.012034e+02 1.949747e+02
      vertex   -8.247703e+01 1.008026e+02 1.949747e+02
      vertex   -8.251475e+01 1.008026e+02 1.953453e+02
    endloop
  endfacet
  facet normal -9.954985e-01 1.431484e-04 9.477764e-02
    outer loop
      vertex   -8.251469e+01 1.012034e+02 1.953453e+02
      vertex   -8.251475e+01 1.008026e+02 1.953453e+02
      vertex   -8.247945e+01 1.008026e+02 1.957161e+02
    endloop
  endfacet
  facet normal -9.578800e-01 1.377391e-04 2.871686e-01
    outer loop
      vertex   -8.247939e+01 1.012034e+02 1.957161e+02
      vertex   -8.247945e+01 1.008026e+02 1.957161e+02
      vertex   -8.237249e+01 1.008025e+02 1.960728e+02
    endloop
  endfacet
  facet normal -8.834508e-01 1.270365e-04 4.685239e-01
    outer loop
      vertex   -8.237243e+01 1.012034e+02 1.960728e+02
      vertex   -8.237249e+01 1.008025e+02 1.960728e+02
      vertex   -8.219792e+01 1.012034e+02 1.964019e+02
    endloop
  endfacet
  facet normal -9.578800e-01 1.377391e-04 2.871686e-01
    outer loop
      vertex   -8.237243e+01 1.012034e+02 1.960728e+02
      vertex   -8.247939e+01 1.012034e+02 1.957161e+02
      vertex   -8.237249e+01 1.008025e+02 1.960728e+02
    endloop
  endfacet
  facet normal -8.834508e-01 1.270365e-04 4.685239e-01
    outer loop
      vertex   -8.237249e+01 1.008025e+02 1.960728e+02
      vertex   -8.219798e+01 1.008025e+02 1.964019e+02
      vertex   -8.219792e+01 1.012034e+02 1.964019e+02
    endloop
  endfacet
  facet normal -9.954985e-01 1.431484e-04 9.477764e-02
    outer loop
      vertex   -8.247939e+01 1.012034e+02 1.957161e+02
      vertex   -8.251469e+01 1.012034e+02 1.953453e+02
      vertex   -8.247945e+01 1.008026e+02 1.957161e+02
    endloop
  endfacet
  facet normal -9.948604e-01 1.430567e-04 -1.012556e-01
    outer loop
      vertex   -8.251469e+01 1.012034e+02 1.953453e+02
      vertex   -8.247698e+01 1.012034e+02 1.949747e+02
      vertex   -8.251475e+01 1.008026e+02 1.953453e+02
    endloop
  endfacet
  facet normal -9.559905e-01 1.374674e-04 -2.933977e-01
    outer loop
      vertex   -8.247698e+01 1.012034e+02 1.949747e+02
      vertex   -8.236770e+01 1.012034e+02 1.946186e+02
      vertex   -8.247703e+01 1.008026e+02 1.949747e+02
    endloop
  endfacet
  facet normal -6.318740e-01 9.086079e-05 -7.750711e-01
    outer loop
      vertex   -8.195382e+01 1.012034e+02 1.940036e+02
      vertex   -8.166514e+01 1.012033e+02 1.937682e+02
      vertex   -8.195388e+01 1.008025e+02 1.940036e+02
    endloop
  endfacet
  facet normal -4.685239e-01 6.737173e-05 -8.834508e-01
    outer loop
      vertex   -8.166514e+01 1.012033e+02 1.937682e+02
      vertex   -8.133608e+01 1.012033e+02 1.935937e+02
      vertex   -8.166520e+01 1.008024e+02 1.937682e+02
    endloop
  endfacet
  facet normal -2.871686e-01 4.129362e-05 -9.578800e-01
    outer loop
      vertex   -8.133608e+01 1.012033e+02 1.935937e+02
      vertex   -8.097931e+01 1.012032e+02 1.934868e+02
      vertex   -8.133614e+01 1.008024e+02 1.935937e+02
    endloop
  endfacet
  facet normal 2.933976e-01 -4.218933e-05 -9.559905e-01
    outer loop
      vertex   -8.023797e+01 1.012031e+02 1.934892e+02
      vertex   -7.988189e+01 1.012031e+02 1.935985e+02
      vertex   -8.023802e+01 1.008022e+02 1.934892e+02
    endloop
  endfacet
  facet normal 7.750711e-01 -1.114519e-04 -6.318740e-01
    outer loop
      vertex   -7.978161e+01 9.993306e+01 1.947986e+02
      vertex   -7.978218e+01 9.600306e+01 1.947986e+02
      vertex   -7.990548e+01 9.993307e+01 1.946466e+02
    endloop
  endfacet
  facet normal 7.750711e-01 -1.114519e-04 -6.318740e-01
    outer loop
      vertex   -7.990548e+01 9.993307e+01 1.946466e+02
      vertex   -7.978218e+01 9.600306e+01 1.947986e+02
      vertex   -7.990604e+01 9.600307e+01 1.946466e+02
    endloop
  endfacet
  facet normal 6.369058e-01 -9.158434e-05 -7.709416e-01
    outer loop
      vertex   -8.005718e+01 9.600310e+01 1.945218e+02
      vertex   -7.990548e+01 9.993307e+01 1.946466e+02
      vertex   -7.990604e+01 9.600307e+01 1.946466e+02
    endloop
  endfacet
  facet normal 6.369058e-01 -9.158434e-05 -7.709416e-01
    outer loop
      vertex   -8.005718e+01 9.600310e+01 1.945218e+02
      vertex   -8.005661e+01 9.993310e+01 1.945218e+02
      vertex   -7.990548e+01 9.993307e+01 1.946466e+02
    endloop
  endfacet
  facet normal 4.742646e-01 -6.819722e-05 -8.803824e-01
    outer loop
      vertex   -8.005718e+01 9.600310e+01 1.945218e+02
      vertex   -8.022976e+01 9.600312e+01 1.944288e+02
      vertex   -8.005661e+01 9.993310e+01 1.945218e+02
    endloop
  endfacet
  facet normal 4.742646e-01 -6.819722e-05 -8.803824e-01
    outer loop
      vertex   -8.005661e+01 9.993310e+01 1.945218e+02
      vertex   -8.022976e+01 9.600312e+01 1.944288e+02
      vertex   -8.022920e+01 9.993312e+01 1.944288e+02
    endloop
  endfacet
  facet normal 2.933976e-01 -4.218933e-05 -9.559905e-01
    outer loop
      vertex   -8.022920e+01 9.993312e+01 1.944288e+02
      vertex   -8.022976e+01 9.600312e+01 1.944288e+02
      vertex   -8.041717e+01 9.600315e+01 1.943713e+02
    endloop
  endfacet
  facet normal 1.012556e-01 -1.456012e-05 -9.948604e-01
    outer loop
      vertex   -8.041660e+01 9.993315e+01 1.943713e+02
      vertex   -8.041717e+01 9.600315e+01 1.943713e+02
      vertex   -8.061219e+01 9.600318e+01 1.943515e+02
    endloop
  endfacet
  facet normal -9.477763e-02 1.362862e-05 -9.954985e-01
    outer loop
      vertex   -8.061163e+01 9.993318e+01 1.943515e+02
      vertex   -8.061219e+01 9.600318e+01 1.943515e+02
      vertex   -8.080678e+01 9.993320e+01 1.943700e+02
    endloop
  endfacet
  facet normal 1.012556e-01 -1.456012e-05 -9.948604e-01
    outer loop
      vertex   -8.061163e+01 9.993318e+01 1.943515e+02
      vertex   -8.041660e+01 9.993315e+01 1.943713e+02
      vertex   -8.061219e+01 9.600318e+01 1.943515e+02
    endloop
  endfacet
  facet normal -9.477763e-02 1.362862e-05 -9.954985e-01
    outer loop
      vertex   -8.061219e+01 9.600318e+01 1.943515e+02
      vertex   -8.080735e+01 9.600320e+01 1.943700e+02
      vertex   -8.080678e+01 9.993320e+01 1.943700e+02
    endloop
  endfacet
  facet normal -2.871686e-01 4.129362e-05 -9.578800e-01
    outer loop
      vertex   -8.080678e+01 9.993320e+01 1.943700e+02
      vertex   -8.080735e+01 9.600320e+01 1.943700e+02
      vertex   -8.099512e+01 9.600323e+01 1.944263e+02
    endloop
  endfacet
  facet normal -4.685239e-01 6.737173e-05 -8.834508e-01
    outer loop
      vertex   -8.099456e+01 9.993323e+01 1.944263e+02
      vertex   -8.099512e+01 9.600323e+01 1.944263e+02
      vertex   -8.116831e+01 9.600326e+01 1.945182e+02
    endloop
  endfacet
  facet normal -6.318740e-01 9.086079e-05 -7.750711e-01
    outer loop
      vertex   -8.116775e+01 9.993326e+01 1.945182e+02
      vertex   -8.116831e+01 9.600326e+01 1.945182e+02
      vertex   -8.132025e+01 9.600328e+01 1.946420e+02
    endloop
  endfacet
  facet normal -7.709416e-01 1.108581e-04 -6.369058e-01
    outer loop
      vertex   -8.131969e+01 9.993328e+01 1.946420e+02
      vertex   -8.132025e+01 9.600328e+01 1.946420e+02
      vertex   -8.144511e+01 9.600330e+01 1.947932e+02
    endloop
  endfacet
  facet normal -8.803823e-01 1.265952e-04 -4.742646e-01
    outer loop
      vertex   -8.144454e+01 9.993330e+01 1.947932e+02
      vertex   -8.144511e+01 9.600330e+01 1.947932e+02
      vertex   -8.153751e+01 9.993331e+01 1.949658e+02
    endloop
  endfacet
  facet normal -7.709416e-01 1.108581e-04 -6.369058e-01
    outer loop
      vertex   -8.144454e+01 9.993330e+01 1.947932e+02
      vertex   -8.131969e+01 9.993328e+01 1.946420e+02
      vertex   -8.144511e+01 9.600330e+01 1.947932e+02
    endloop
  endfacet
  facet normal -8.803823e-01 1.265952e-04 -4.742646e-01
    outer loop
      vertex   -8.144511e+01 9.600330e+01 1.947932e+02
      vertex   -8.153808e+01 9.600331e+01 1.949658e+02
      vertex   -8.153751e+01 9.993331e+01 1.949658e+02
    endloop
  endfacet
  facet normal -9.559905e-01 1.374674e-04 -2.933977e-01
    outer loop
      vertex   -8.153751e+01 9.993331e+01 1.949658e+02
      vertex   -8.153808e+01 9.600331e+01 1.949658e+02
      vertex   -8.159559e+01 9.600332e+01 1.951532e+02
    endloop
  endfacet
  facet normal -9.948604e-01 1.430567e-04 -1.012556e-01
    outer loop
      vertex   -8.159503e+01 9.993332e+01 1.951532e+02
      vertex   -8.159559e+01 9.600332e+01 1.951532e+02
      vertex   -8.161544e+01 9.600332e+01 1.953482e+02
    endloop
  endfacet
  facet normal -9.954985e-01 1.431484e-04 9.477764e-02
    outer loop
      vertex   -8.161488e+01 9.993332e+01 1.953482e+02
      vertex   -8.161544e+01 9.600332e+01 1.953482e+02
      vertex   -8.159686e+01 9.600332e+01 1.955433e+02
    endloop
  endfacet
  facet normal -9.578800e-01 1.377391e-04 2.871686e-01
    outer loop
      vertex   -8.159630e+01 9.993332e+01 1.955433e+02
      vertex   -8.159686e+01 9.600332e+01 1.955433e+02
      vertex   -8.154057e+01 9.600331e+01 1.957311e+02
    endloop
  endfacet
  facet normal -8.834508e-01 1.270365e-04 4.685239e-01
    outer loop
      vertex   -8.154000e+01 9.993331e+01 1.957311e+02
      vertex   -8.154057e+01 9.600331e+01 1.957311e+02
      vertex   -8.144816e+01 9.993330e+01 1.959043e+02
    endloop
  endfacet
  facet normal -9.578800e-01 1.377391e-04 2.871686e-01
    outer loop
      vertex   -8.154000e+01 9.993331e+01 1.957311e+02
      vertex   -8.159630e+01 9.993332e+01 1.955433e+02
      vertex   -8.154057e+01 9.600331e+01 1.957311e+02
    endloop
  endfacet
  facet normal -8.834508e-01 1.270365e-04 4.685239e-01
    outer loop
      vertex   -8.154057e+01 9.600331e+01 1.957311e+02
      vertex   -8.144872e+01 9.600330e+01 1.959043e+02
      vertex   -8.144816e+01 9.993330e+01 1.959043e+02
    endloop
  endfacet
  facet normal -9.954985e-01 1.431484e-04 9.477764e-02
    outer loop
      vertex   -8.159630e+01 9.993332e+01 1.955433e+02
      vertex   -8.161488e+01 9.993332e+01 1.953482e+02
      vertex   -8.159686e+01 9.600332e+01 1.955433e+02
    endloop
  endfacet
  facet normal -9.948604e-01 1.430567e-04 -1.012556e-01
    outer loop
      vertex   -8.161488e+01 9.993332e+01 1.953482e+02
      vertex   -8.159503e+01 9.993332e+01 1.951532e+02
      vertex   -8.161544e+01 9.600332e+01 1.953482e+02
    endloop
  endfacet
  facet normal -9.559905e-01 1.374674e-04 -2.933977e-01
    outer loop
      vertex   -8.159503e+01 9.993332e+01 1.951532e+02
      vertex   -8.153751e+01 9.993331e+01 1.949658e+02
      vertex   -8.159559e+01 9.600332e+01 1.951532e+02
    endloop
  endfacet
  facet normal -6.318740e-01 9.086079e-05 -7.750711e-01
    outer loop
      vertex   -8.131969e+01 9.993328e+01 1.946420e+02
      vertex   -8.116775e+01 9.993326e+01 1.945182e+02
      vertex   -8.132025e+01 9.600328e+01 1.946420e+02
    endloop
  endfacet
  facet normal -4.685239e-01 6.737173e-05 -8.834508e-01
    outer loop
      vertex   -8.116775e+01 9.993326e+01 1.945182e+02
      vertex   -8.099456e+01 9.993323e+01 1.944263e+02
      vertex   -8.116831e+01 9.600326e+01 1.945182e+02
    endloop
  endfacet
  facet normal -2.871686e-01 4.129362e-05 -9.578800e-01
    outer loop
      vertex   -8.099456e+01 9.993323e+01 1.944263e+02
      vertex   -8.080678e+01 9.993320e+01 1.943700e+02
      vertex   -8.099512e+01 9.600323e+01 1.944263e+02
    endloop
  endfacet
  facet normal 2.933976e-01 -4.218933e-05 -9.559905e-01
    outer loop
      vertex   -8.041660e+01 9.993315e+01 1.943713e+02
      vertex   -8.022920e+01 9.993312e+01 1.944288e+02
      vertex   -8.041717e+01 9.600315e+01 1.943713e+02
    endloop
  endfacet
endsolid
