solid ascii
  facet normal 1.437957e-04 1.000000e+00 2.603537e-13
    outer loop
      vertex   -4.190946e+01 6.639761e+01 1.708450e+02
      vertex   -4.158433e+01 6.639756e+01 1.706292e+02
      vertex   -4.209723e+01 6.639764e+01 1.709013e+02
    endloop
  endfacet
  facet normal 1.437957e-04 1.000000e+00 4.771718e-13
    outer loop
      vertex   -4.190946e+01 6.639761e+01 1.708450e+02
      vertex   -4.173627e+01 6.639759e+01 1.707531e+02
      vertex   -4.158433e+01 6.639756e+01 1.706292e+02
    endloop
  endfacet
  facet normal 1.437957e-04 1.000000e+00 3.611856e-13
    outer loop
      vertex   -4.209723e+01 6.639764e+01 1.709013e+02
      vertex   -4.145947e+01 6.639755e+01 1.704781e+02
      vertex   -4.229238e+01 6.639767e+01 1.709198e+02
    endloop
  endfacet
  facet normal 1.437957e-04 1.000000e+00 2.907874e-13
    outer loop
      vertex   -4.209723e+01 6.639764e+01 1.709013e+02
      vertex   -4.158433e+01 6.639756e+01 1.706292e+02
      vertex   -4.145947e+01 6.639755e+01 1.704781e+02
    endloop
  endfacet
  facet normal 1.437957e-04 1.000000e+00 3.664085e-13
    outer loop
      vertex   -4.229238e+01 6.639767e+01 1.709198e+02
      vertex   -4.136650e+01 6.639753e+01 1.703055e+02
      vertex   -4.248741e+01 6.639769e+01 1.709000e+02
    endloop
  endfacet
  facet normal 1.437957e-04 1.000000e+00 2.969377e-13
    outer loop
      vertex   -4.229238e+01 6.639767e+01 1.709198e+02
      vertex   -4.145947e+01 6.639755e+01 1.704781e+02
      vertex   -4.136650e+01 6.639753e+01 1.703055e+02
    endloop
  endfacet
  facet normal 1.437957e-04 1.000000e+00 2.537994e-13
    outer loop
      vertex   -4.248741e+01 6.639769e+01 1.709000e+02
      vertex   -4.130898e+01 6.639752e+01 1.701181e+02
      vertex   -4.267482e+01 6.639772e+01 1.708425e+02
    endloop
  endfacet
  facet normal 1.437957e-04 1.000000e+00 2.327919e-13
    outer loop
      vertex   -4.248741e+01 6.639769e+01 1.709000e+02
      vertex   -4.136650e+01 6.639753e+01 1.703055e+02
      vertex   -4.130898e+01 6.639752e+01 1.701181e+02
    endloop
  endfacet
  facet normal 1.437957e-04 1.000000e+00 3.501913e-13
    outer loop
      vertex   -4.130898e+01 6.639752e+01 1.701181e+02
      vertex   -4.128913e+01 6.639752e+01 1.699231e+02
      vertex   -4.267482e+01 6.639772e+01 1.708425e+02
    endloop
  endfacet
  facet normal 1.437957e-04 1.000000e+00 3.221545e-13
    outer loop
      vertex   -4.267482e+01 6.639772e+01 1.708425e+02
      vertex   -4.128913e+01 6.639752e+01 1.699231e+02
      vertex   -4.284740e+01 6.639775e+01 1.707495e+02
    endloop
  endfacet
  facet normal 1.437957e-04 1.000000e+00 2.624014e-13
    outer loop
      vertex   -4.284740e+01 6.639775e+01 1.707495e+02
      vertex   -4.128913e+01 6.639752e+01 1.699231e+02
      vertex   -4.130771e+01 6.639752e+01 1.697279e+02
    endloop
  endfacet
  facet normal 1.437957e-04 1.000000e+00 3.043085e-13
    outer loop
      vertex   -4.299853e+01 6.639777e+01 1.706246e+02
      vertex   -4.130771e+01 6.639752e+01 1.697279e+02
      vertex   -4.136401e+01 6.639753e+01 1.695402e+02
    endloop
  endfacet
  facet normal 1.437957e-04 1.000000e+00 3.322808e-13
    outer loop
      vertex   -4.312240e+01 6.639778e+01 1.704727e+02
      vertex   -4.136401e+01 6.639753e+01 1.695402e+02
      vertex   -4.145586e+01 6.639755e+01 1.693670e+02
    endloop
  endfacet
  facet normal 1.437957e-04 1.000000e+00 3.194196e-13
    outer loop
      vertex   -4.321425e+01 6.639780e+01 1.702995e+02
      vertex   -4.145586e+01 6.639755e+01 1.693670e+02
      vertex   -4.157973e+01 6.639756e+01 1.692150e+02
    endloop
  endfacet
  facet normal 1.437957e-04 1.000000e+00 2.247050e-13
    outer loop
      vertex   -4.327054e+01 6.639781e+01 1.701117e+02
      vertex   -4.157973e+01 6.639756e+01 1.692150e+02
      vertex   -4.173086e+01 6.639758e+01 1.690902e+02
    endloop
  endfacet
  facet normal 1.437957e-04 1.000000e+00 3.221544e-13
    outer loop
      vertex   -4.328912e+01 6.639781e+01 1.699166e+02
      vertex   -4.173086e+01 6.639758e+01 1.690902e+02
      vertex   -4.190344e+01 6.639761e+01 1.689972e+02
    endloop
  endfacet
  facet normal 1.437957e-04 1.000000e+00 2.537993e-13
    outer loop
      vertex   -4.326927e+01 6.639781e+01 1.697216e+02
      vertex   -4.190344e+01 6.639761e+01 1.689972e+02
      vertex   -4.209085e+01 6.639764e+01 1.689397e+02
    endloop
  endfacet
  facet normal 1.437957e-04 1.000000e+00 3.664085e-13
    outer loop
      vertex   -4.321176e+01 6.639780e+01 1.695342e+02
      vertex   -4.209085e+01 6.639764e+01 1.689397e+02
      vertex   -4.228587e+01 6.639766e+01 1.689198e+02
    endloop
  endfacet
  facet normal 1.437957e-04 1.000000e+00 3.611737e-13
    outer loop
      vertex   -4.311879e+01 6.639778e+01 1.693616e+02
      vertex   -4.228587e+01 6.639766e+01 1.689198e+02
      vertex   -4.248103e+01 6.639769e+01 1.689384e+02
    endloop
  endfacet
  facet normal 1.437957e-04 1.000000e+00 2.603687e-13
    outer loop
      vertex   -4.299393e+01 6.639777e+01 1.692104e+02
      vertex   -4.248103e+01 6.639769e+01 1.689384e+02
      vertex   -4.266880e+01 6.639772e+01 1.689947e+02
    endloop
  endfacet
  facet normal 1.437957e-04 1.000000e+00 4.771718e-13
    outer loop
      vertex   -4.284199e+01 6.639774e+01 1.690866e+02
      vertex   -4.299393e+01 6.639777e+01 1.692104e+02
      vertex   -4.266880e+01 6.639772e+01 1.689947e+02
    endloop
  endfacet
  facet normal 1.437957e-04 1.000000e+00 2.907903e-13
    outer loop
      vertex   -4.299393e+01 6.639777e+01 1.692104e+02
      vertex   -4.311879e+01 6.639778e+01 1.693616e+02
      vertex   -4.248103e+01 6.639769e+01 1.689384e+02
    endloop
  endfacet
  facet normal 1.437957e-04 1.000000e+00 2.969377e-13
    outer loop
      vertex   -4.311879e+01 6.639778e+01 1.693616e+02
      vertex   -4.321176e+01 6.639780e+01 1.695342e+02
      vertex   -4.228587e+01 6.639766e+01 1.689198e+02
    endloop
  endfacet
  facet normal 1.437957e-04 1.000000e+00 2.327919e-13
    outer loop
      vertex   -4.321176e+01 6.639780e+01 1.695342e+02
      vertex   -4.326927e+01 6.639781e+01 1.697216e+02
      vertex   -4.209085e+01 6.639764e+01 1.689397e+02
    endloop
  endfacet
  facet normal 1.437957e-04 1.000000e+00 3.501913e-13
    outer loop
      vertex   -4.326927e+01 6.639781e+01 1.697216e+02
      vertex   -4.328912e+01 6.639781e+01 1.699166e+02
      vertex   -4.190344e+01 6.639761e+01 1.689972e+02
    endloop
  endfacet
  facet normal 1.437957e-04 1.000000e+00 2.624014e-13
    outer loop
      vertex   -4.328912e+01 6.639781e+01 1.699166e+02
      vertex   -4.327054e+01 6.639781e+01 1.701117e+02
      vertex   -4.173086e+01 6.639758e+01 1.690902e+02
    endloop
  endfacet
  facet normal 1.437957e-04 1.000000e+00 3.043085e-13
    outer loop
      vertex   -4.327054e+01 6.639781e+01 1.701117e+02
      vertex   -4.321425e+01 6.639780e+01 1.702995e+02
      vertex   -4.157973e+01 6.639756e+01 1.692150e+02
    endloop
  endfacet
  facet normal 1.437957e-04 1.000000e+00 2.715831e-13
    outer loop
      vertex   -4.321425e+01 6.639780e+01 1.702995e+02
      vertex   -4.312240e+01 6.639778e+01 1.704727e+02
      vertex   -4.145586e+01 6.639755e+01 1.693670e+02
    endloop
  endfacet
  facet normal 1.437957e-04 1.000000e+00 3.801172e-13
    outer loop
      vertex   -4.136401e+01 6.639753e+01 1.695402e+02
      vertex   -4.312240e+01 6.639778e+01 1.704727e+02
      vertex   -4.299853e+01 6.639777e+01 1.706246e+02
    endloop
  endfacet
  facet normal 1.437957e-04 1.000000e+00 2.247050e-13
    outer loop
      vertex   -4.130771e+01 6.639752e+01 1.697279e+02
      vertex   -4.299853e+01 6.639777e+01 1.706246e+02
      vertex   -4.284740e+01 6.639775e+01 1.707495e+02
    endloop
  endfacet
  facet normal -7.750711e-01 1.114519e-04 6.318740e-01
    outer loop
      vertex   -4.312240e+01 6.639778e+01 1.704727e+02
      vertex   -4.312297e+01 6.246778e+01 1.704727e+02
      vertex   -4.299853e+01 6.639777e+01 1.706246e+02
    endloop
  endfacet
  facet normal -7.750711e-01 1.114519e-04 6.318740e-01
    outer loop
      vertex   -4.299853e+01 6.639777e+01 1.706246e+02
      vertex   -4.312297e+01 6.246778e+01 1.704727e+02
      vertex   -4.299910e+01 6.246777e+01 1.706246e+02
    endloop
  endfacet
  facet normal -6.369058e-01 9.158434e-05 7.709416e-01
    outer loop
      vertex   -4.284797e+01 6.246775e+01 1.707495e+02
      vertex   -4.299853e+01 6.639777e+01 1.706246e+02
      vertex   -4.299910e+01 6.246777e+01 1.706246e+02
    endloop
  endfacet
  facet normal -6.369058e-01 9.158434e-05 7.709416e-01
    outer loop
      vertex   -4.284797e+01 6.246775e+01 1.707495e+02
      vertex   -4.284740e+01 6.639775e+01 1.707495e+02
      vertex   -4.299853e+01 6.639777e+01 1.706246e+02
    endloop
  endfacet
  facet normal -4.742646e-01 6.819722e-05 8.803824e-01
    outer loop
      vertex   -4.284797e+01 6.246775e+01 1.707495e+02
      vertex   -4.267538e+01 6.246772e+01 1.708425e+02
      vertex   -4.284740e+01 6.639775e+01 1.707495e+02
    endloop
  endfacet
  facet normal -4.742646e-01 6.819722e-05 8.803824e-01
    outer loop
      vertex   -4.284740e+01 6.639775e+01 1.707495e+02
      vertex   -4.267538e+01 6.246772e+01 1.708425e+02
      vertex   -4.267482e+01 6.639772e+01 1.708425e+02
    endloop
  endfacet
  facet normal -2.933976e-01 4.218933e-05 9.559905e-01
    outer loop
      vertex   -4.267482e+01 6.639772e+01 1.708425e+02
      vertex   -4.267538e+01 6.246772e+01 1.708425e+02
      vertex   -4.248798e+01 6.246769e+01 1.709000e+02
    endloop
  endfacet
  facet normal -1.012556e-01 1.456012e-05 9.948604e-01
    outer loop
      vertex   -4.248741e+01 6.639769e+01 1.709000e+02
      vertex   -4.248798e+01 6.246769e+01 1.709000e+02
      vertex   -4.229295e+01 6.246767e+01 1.709198e+02
    endloop
  endfacet
  facet normal 9.477763e-02 -1.362862e-05 9.954985e-01
    outer loop
      vertex   -4.229238e+01 6.639767e+01 1.709198e+02
      vertex   -4.229295e+01 6.246767e+01 1.709198e+02
      vertex   -4.209723e+01 6.639764e+01 1.709013e+02
    endloop
  endfacet
  facet normal -1.012556e-01 1.456012e-05 9.948604e-01
    outer loop
      vertex   -4.229238e+01 6.639767e+01 1.709198e+02
      vertex   -4.248741e+01 6.639769e+01 1.709000e+02
      vertex   -4.229295e+01 6.246767e+01 1.709198e+02
    endloop
  endfacet
  facet normal 9.477763e-02 -1.362862e-05 9.954985e-01
    outer loop
      vertex   -4.229295e+01 6.246767e+01 1.709198e+02
      vertex   -4.209780e+01 6.246764e+01 1.709013e+02
      vertex   -4.209723e+01 6.639764e+01 1.709013e+02
    endloop
  endfacet
  facet normal 2.871686e-01 -4.129362e-05 9.578800e-01
    outer loop
      vertex   -4.209723e+01 6.639764e+01 1.709013e+02
      vertex   -4.209780e+01 6.246764e+01 1.709013e+02
      vertex   -4.191002e+01 6.246761e+01 1.708450e+02
    endloop
  endfacet
  facet normal 4.685239e-01 -6.737173e-05 8.834508e-01
    outer loop
      vertex   -4.190946e+01 6.639761e+01 1.708450e+02
      vertex   -4.191002e+01 6.246761e+01 1.708450e+02
      vertex   -4.173683e+01 6.246759e+01 1.707531e+02
    endloop
  endfacet
  facet normal 6.318740e-01 -9.086079e-05 7.750711e-01
    outer loop
      vertex   -4.173627e+01 6.639759e+01 1.707531e+02
      vertex   -4.173683e+01 6.246759e+01 1.707531e+02
      vertex   -4.158489e+01 6.246756e+01 1.706292e+02
    endloop
  endfacet
  facet normal 7.709416e-01 -1.108581e-04 6.369058e-01
    outer loop
      vertex   -4.158433e+01 6.639756e+01 1.706292e+02
      vertex   -4.158489e+01 6.246756e+01 1.706292e+02
      vertex   -4.146004e+01 6.246755e+01 1.704781e+02
    endloop
  endfacet
  facet normal 8.803823e-01 -1.265952e-04 4.742646e-01
    outer loop
      vertex   -4.145947e+01 6.639755e+01 1.704781e+02
      vertex   -4.146004e+01 6.246755e+01 1.704781e+02
      vertex   -4.136650e+01 6.639753e+01 1.703055e+02
    endloop
  endfacet
  facet normal 7.709416e-01 -1.108581e-04 6.369058e-01
    outer loop
      vertex   -4.145947e+01 6.639755e+01 1.704781e+02
      vertex   -4.158433e+01 6.639756e+01 1.706292e+02
      vertex   -4.146004e+01 6.246755e+01 1.704781e+02
    endloop
  endfacet
  facet normal 8.803823e-01 -1.265952e-04 4.742646e-01
    outer loop
      vertex   -4.146004e+01 6.246755e+01 1.704781e+02
      vertex   -4.136707e+01 6.246753e+01 1.703055e+02
      vertex   -4.136650e+01 6.639753e+01 1.703055e+02
    endloop
  endfacet
  facet normal 9.559905e-01 -1.374674e-04 2.933977e-01
    outer loop
      vertex   -4.136650e+01 6.639753e+01 1.703055e+02
      vertex   -4.136707e+01 6.246753e+01 1.703055e+02
      vertex   -4.130955e+01 6.246752e+01 1.701181e+02
    endloop
  endfacet
  facet normal 9.948604e-01 -1.430567e-04 1.012556e-01
    outer loop
      vertex   -4.130898e+01 6.639752e+01 1.701181e+02
      vertex   -4.130955e+01 6.246752e+01 1.701181e+02
      vertex   -4.128970e+01 6.246752e+01 1.699231e+02
    endloop
  endfacet
  facet normal 9.954985e-01 -1.431484e-04 -9.477764e-02
    outer loop
      vertex   -4.128913e+01 6.639752e+01 1.699231e+02
      vertex   -4.128970e+01 6.246752e+01 1.699231e+02
      vertex   -4.130828e+01 6.246752e+01 1.697279e+02
    endloop
  endfacet
  facet normal 9.578800e-01 -1.377391e-04 -2.871686e-01
    outer loop
      vertex   -4.130771e+01 6.639752e+01 1.697279e+02
      vertex   -4.130828e+01 6.246752e+01 1.697279e+02
      vertex   -4.136457e+01 6.246753e+01 1.695402e+02
    endloop
  endfacet
  facet normal 8.834508e-01 -1.270365e-04 -4.685239e-01
    outer loop
      vertex   -4.136401e+01 6.639753e+01 1.695402e+02
      vertex   -4.136457e+01 6.246753e+01 1.695402e+02
      vertex   -4.145586e+01 6.639755e+01 1.693670e+02
    endloop
  endfacet
  facet normal 9.578800e-01 -1.377391e-04 -2.871686e-01
    outer loop
      vertex   -4.136401e+01 6.639753e+01 1.695402e+02
      vertex   -4.130771e+01 6.639752e+01 1.697279e+02
      vertex   -4.136457e+01 6.246753e+01 1.695402e+02
    endloop
  endfacet
  facet normal 8.834508e-01 -1.270365e-04 -4.685239e-01
    outer loop
      vertex   -4.136457e+01 6.246753e+01 1.695402e+02
      vertex   -4.145642e+01 6.246755e+01 1.693670e+02
      vertex   -4.145586e+01 6.639755e+01 1.693670e+02
    endloop
  endfacet
  facet normal 9.954985e-01 -1.431484e-04 -9.477764e-02
    outer loop
      vertex   -4.130771e+01 6.639752e+01 1.697279e+02
      vertex   -4.128913e+01 6.639752e+01 1.699231e+02
      vertex   -4.130828e+01 6.246752e+01 1.697279e+02
    endloop
  endfacet
  facet normal 9.948604e-01 -1.430567e-04 1.012556e-01
    outer loop
      vertex   -4.128913e+01 6.639752e+01 1.699231e+02
      vertex   -4.130898e+01 6.639752e+01 1.701181e+02
      vertex   -4.128970e+01 6.246752e+01 1.699231e+02
    endloop
  endfacet
  facet normal 9.559905e-01 -1.374674e-04 2.933977e-01
    outer loop
      vertex   -4.130898e+01 6.639752e+01 1.701181e+02
      vertex   -4.136650e+01 6.639753e+01 1.703055e+02
      vertex   -4.130955e+01 6.246752e+01 1.701181e+02
    endloop
  endfacet
  facet normal 6.318740e-01 -9.086079e-05 7.750711e-01
    outer loop
      vertex   -4.158433e+01 6.639756e+01 1.706292e+02
      vertex   -4.173627e+01 6.639759e+01 1.707531e+02
      vertex   -4.158489e+01 6.246756e+01 1.706292e+02
    endloop
  endfacet
  facet normal 4.685239e-01 -6.737173e-05 8.834508e-01
    outer loop
      vertex   -4.173627e+01 6.639759e+01 1.707531e+02
      vertex   -4.190946e+01 6.639761e+01 1.708450e+02
      vertex   -4.173683e+01 6.246759e+01 1.707531e+02
    endloop
  endfacet
  facet normal 2.871686e-01 -4.129362e-05 9.578800e-01
    outer loop
      vertex   -4.190946e+01 6.639761e+01 1.708450e+02
      vertex   -4.209723e+01 6.639764e+01 1.709013e+02
      vertex   -4.191002e+01 6.246761e+01 1.708450e+02
    endloop
  endfacet
  facet normal -2.933976e-01 4.218933e-05 9.559905e-01
    outer loop
      vertex   -4.248741e+01 6.639769e+01 1.709000e+02
      vertex   -4.267482e+01 6.639772e+01 1.708425e+02
      vertex   -4.248798e+01 6.246769e+01 1.709000e+02
    endloop
  endfacet
  facet normal 6.215509e-02 -8.937637e-06 9.980665e-01
    outer loop
      vertex   -4.200049e+01 6.119762e+01 1.693378e+02
      vertex   -4.200032e+01 6.239762e+01 1.693378e+02
      vertex   -4.264924e+01 6.119772e+01 1.693782e+02
    endloop
  endfacet
  facet normal 6.215509e-02 -8.937637e-06 9.980665e-01
    outer loop
      vertex   -4.264924e+01 6.119772e+01 1.693782e+02
      vertex   -4.200032e+01 6.239762e+01 1.693378e+02
      vertex   -4.264906e+01 6.239772e+01 1.693782e+02
    endloop
  endfacet
  facet normal -5.396497e-01 7.177397e-01 4.400317e-01
    outer loop
      vertex   -4.312297e+01 6.246778e+01 1.704727e+02
      vertex   -4.387304e+01 6.159877e+01 1.709703e+02
      vertex   -4.299910e+01 6.246777e+01 1.706246e+02
    endloop
  endfacet
  facet normal -5.396497e-01 7.177397e-01 4.400317e-01
    outer loop
      vertex   -4.299910e+01 6.246777e+01 1.706246e+02
      vertex   -4.387304e+01 6.159877e+01 1.709703e+02
      vertex   -4.363769e+01 6.159874e+01 1.712590e+02
    endloop
  endfacet
  facet normal -4.434326e-01 7.177258e-01 5.368772e-01
    outer loop
      vertex   -4.335054e+01 6.159870e+01 1.714962e+02
      vertex   -4.299910e+01 6.246777e+01 1.706246e+02
      vertex   -4.363769e+01 6.159874e+01 1.712590e+02
    endloop
  endfacet
  facet normal -4.434326e-01 7.177258e-01 5.368772e-01
    outer loop
      vertex   -4.335054e+01 6.159870e+01 1.714962e+02
      vertex   -4.284797e+01 6.246775e+01 1.707495e+02
      vertex   -4.299910e+01 6.246777e+01 1.706246e+02
    endloop
  endfacet
  facet normal -3.301706e-01 7.177096e-01 6.130908e-01
    outer loop
      vertex   -4.335054e+01 6.159870e+01 1.714962e+02
      vertex   -4.302263e+01 6.159865e+01 1.716728e+02
      vertex   -4.284797e+01 6.246775e+01 1.707495e+02
    endloop
  endfacet
  facet normal -3.301706e-01 7.177096e-01 6.130908e-01
    outer loop
      vertex   -4.284797e+01 6.246775e+01 1.707495e+02
      vertex   -4.302263e+01 6.159865e+01 1.716728e+02
      vertex   -4.267538e+01 6.246772e+01 1.708425e+02
    endloop
  endfacet
  facet normal -2.042164e-01 7.176914e-01 6.657437e-01
    outer loop
      vertex   -4.267538e+01 6.246772e+01 1.708425e+02
      vertex   -4.302263e+01 6.159865e+01 1.716728e+02
      vertex   -4.266655e+01 6.159860e+01 1.717821e+02
    endloop
  endfacet
  facet normal -7.041035e-02 7.176722e-01 6.928124e-01
    outer loop
      vertex   -4.248798e+01 6.246769e+01 1.709000e+02
      vertex   -4.266655e+01 6.159860e+01 1.717821e+02
      vertex   -4.229600e+01 6.159855e+01 1.718198e+02
    endloop
  endfacet
  facet normal 6.610554e-02 7.176526e-01 6.932567e-01
    outer loop
      vertex   -4.229295e+01 6.246767e+01 1.709198e+02
      vertex   -4.229600e+01 6.159855e+01 1.718198e+02
      vertex   -4.209780e+01 6.246764e+01 1.709013e+02
    endloop
  endfacet
  facet normal -7.041035e-02 7.176722e-01 6.928124e-01
    outer loop
      vertex   -4.229295e+01 6.246767e+01 1.709198e+02
      vertex   -4.248798e+01 6.246769e+01 1.709000e+02
      vertex   -4.229600e+01 6.159855e+01 1.718198e+02
    endloop
  endfacet
  facet normal 6.610554e-02 7.176526e-01 6.932567e-01
    outer loop
      vertex   -4.229600e+01 6.159855e+01 1.718198e+02
      vertex   -4.192522e+01 6.159849e+01 1.717845e+02
      vertex   -4.209780e+01 6.246764e+01 1.709013e+02
    endloop
  endfacet
  facet normal 2.000850e-01 7.176333e-01 6.670595e-01
    outer loop
      vertex   -4.209780e+01 6.246764e+01 1.709013e+02
      vertex   -4.192522e+01 6.159849e+01 1.717845e+02
      vertex   -4.156844e+01 6.159844e+01 1.716776e+02
    endloop
  endfacet
  facet normal 3.263793e-01 7.176151e-01 6.152277e-01
    outer loop
      vertex   -4.191002e+01 6.246761e+01 1.708450e+02
      vertex   -4.156844e+01 6.159844e+01 1.716776e+02
      vertex   -4.123938e+01 6.159839e+01 1.715031e+02
    endloop
  endfacet
  facet normal 4.401349e-01 7.175988e-01 5.397529e-01
    outer loop
      vertex   -4.173683e+01 6.246759e+01 1.707531e+02
      vertex   -4.123938e+01 6.159839e+01 1.715031e+02
      vertex   -4.095070e+01 6.159835e+01 1.712677e+02
    endloop
  endfacet
  facet normal 5.369804e-01 7.175849e-01 4.435358e-01
    outer loop
      vertex   -4.158489e+01 6.246756e+01 1.706292e+02
      vertex   -4.095070e+01 6.159835e+01 1.712677e+02
      vertex   -4.071347e+01 6.159832e+01 1.709806e+02
    endloop
  endfacet
  facet normal 6.131940e-01 7.175739e-01 3.302738e-01
    outer loop
      vertex   -4.146004e+01 6.246755e+01 1.704781e+02
      vertex   -4.071347e+01 6.159832e+01 1.709806e+02
      vertex   -4.136707e+01 6.246753e+01 1.703055e+02
    endloop
  endfacet
  facet normal 5.369804e-01 7.175849e-01 4.435358e-01
    outer loop
      vertex   -4.146004e+01 6.246755e+01 1.704781e+02
      vertex   -4.158489e+01 6.246756e+01 1.706292e+02
      vertex   -4.071347e+01 6.159832e+01 1.709806e+02
    endloop
  endfacet
  facet normal 6.131940e-01 7.175739e-01 3.302738e-01
    outer loop
      vertex   -4.071347e+01 6.159832e+01 1.709806e+02
      vertex   -4.053682e+01 6.159829e+01 1.706526e+02
      vertex   -4.136707e+01 6.246753e+01 1.703055e+02
    endloop
  endfacet
  facet normal 6.658469e-01 7.175663e-01 2.043196e-01
    outer loop
      vertex   -4.136707e+01 6.246753e+01 1.703055e+02
      vertex   -4.053682e+01 6.159829e+01 1.706526e+02
      vertex   -4.042754e+01 6.159828e+01 1.702966e+02
    endloop
  endfacet
  facet normal 6.929156e-01 7.175624e-01 7.051355e-02
    outer loop
      vertex   -4.130955e+01 6.246752e+01 1.701181e+02
      vertex   -4.042754e+01 6.159828e+01 1.702966e+02
      vertex   -4.038983e+01 6.159827e+01 1.699260e+02
    endloop
  endfacet
  facet normal 6.933599e-01 7.175624e-01 -6.600234e-02
    outer loop
      vertex   -4.128970e+01 6.246752e+01 1.699231e+02
      vertex   -4.038983e+01 6.159827e+01 1.699260e+02
      vertex   -4.042513e+01 6.159828e+01 1.695552e+02
    endloop
  endfacet
  facet normal 6.671627e-01 7.175661e-01 -1.999818e-01
    outer loop
      vertex   -4.130828e+01 6.246752e+01 1.697279e+02
      vertex   -4.042513e+01 6.159828e+01 1.695552e+02
      vertex   -4.053209e+01 6.159829e+01 1.691985e+02
    endloop
  endfacet
  facet normal 6.153309e-01 7.175736e-01 -3.262761e-01
    outer loop
      vertex   -4.136457e+01 6.246753e+01 1.695402e+02
      vertex   -4.053209e+01 6.159829e+01 1.691985e+02
      vertex   -4.145642e+01 6.246755e+01 1.693670e+02
    endloop
  endfacet
  facet normal 6.671627e-01 7.175661e-01 -1.999818e-01
    outer loop
      vertex   -4.136457e+01 6.246753e+01 1.695402e+02
      vertex   -4.130828e+01 6.246752e+01 1.697279e+02
      vertex   -4.053209e+01 6.159829e+01 1.691985e+02
    endloop
  endfacet
  facet normal 6.153309e-01 7.175736e-01 -3.262761e-01
    outer loop
      vertex   -4.053209e+01 6.159829e+01 1.691985e+02
      vertex   -4.070660e+01 6.159832e+01 1.688694e+02
      vertex   -4.145642e+01 6.246755e+01 1.693670e+02
    endloop
  endfacet
  facet normal 6.933599e-01 7.175624e-01 -6.600234e-02
    outer loop
      vertex   -4.130828e+01 6.246752e+01 1.697279e+02
      vertex   -4.128970e+01 6.246752e+01 1.699231e+02
      vertex   -4.042513e+01 6.159828e+01 1.695552e+02
    endloop
  endfacet
  facet normal 6.929156e-01 7.175624e-01 7.051355e-02
    outer loop
      vertex   -4.128970e+01 6.246752e+01 1.699231e+02
      vertex   -4.130955e+01 6.246752e+01 1.701181e+02
      vertex   -4.038983e+01 6.159827e+01 1.699260e+02
    endloop
  endfacet
  facet normal 6.658469e-01 7.175663e-01 2.043196e-01
    outer loop
      vertex   -4.130955e+01 6.246752e+01 1.701181e+02
      vertex   -4.136707e+01 6.246753e+01 1.703055e+02
      vertex   -4.042754e+01 6.159828e+01 1.702966e+02
    endloop
  endfacet
  facet normal 4.401349e-01 7.175988e-01 5.397529e-01
    outer loop
      vertex   -4.158489e+01 6.246756e+01 1.706292e+02
      vertex   -4.173683e+01 6.246759e+01 1.707531e+02
      vertex   -4.095070e+01 6.159835e+01 1.712677e+02
    endloop
  endfacet
  facet normal 3.263793e-01 7.176151e-01 6.152277e-01
    outer loop
      vertex   -4.173683e+01 6.246759e+01 1.707531e+02
      vertex   -4.191002e+01 6.246761e+01 1.708450e+02
      vertex   -4.123938e+01 6.159839e+01 1.715031e+02
    endloop
  endfacet
  facet normal 2.000850e-01 7.176333e-01 6.670595e-01
    outer loop
      vertex   -4.191002e+01 6.246761e+01 1.708450e+02
      vertex   -4.209780e+01 6.246764e+01 1.709013e+02
      vertex   -4.156844e+01 6.159844e+01 1.716776e+02
    endloop
  endfacet
  facet normal -2.042164e-01 7.176914e-01 6.657437e-01
    outer loop
      vertex   -4.248798e+01 6.246769e+01 1.709000e+02
      vertex   -4.267538e+01 6.246772e+01 1.708425e+02
      vertex   -4.266655e+01 6.159860e+01 1.717821e+02
    endloop
  endfacet
  facet normal -8.332734e-01 1.198212e-04 5.528611e-01
    outer loop
      vertex   -4.164113e+01 6.119757e+01 1.698794e+02
      vertex   -4.164096e+01 6.239757e+01 1.698794e+02
      vertex   -4.200049e+01 6.119762e+01 1.693378e+02
    endloop
  endfacet
  facet normal -8.332734e-01 1.198212e-04 5.528611e-01
    outer loop
      vertex   -4.200049e+01 6.119762e+01 1.693378e+02
      vertex   -4.164096e+01 6.239757e+01 1.698794e+02
      vertex   -4.200032e+01 6.239762e+01 1.693378e+02
    endloop
  endfacet
  facet normal 8.834508e-01 -1.270365e-04 -4.685239e-01
    outer loop
      vertex   -4.070666e+01 6.119744e+01 1.688694e+02
      vertex   -4.070660e+01 6.159832e+01 1.688694e+02
      vertex   -4.053215e+01 6.119741e+01 1.691985e+02
    endloop
  endfacet
  facet normal 8.834508e-01 -1.270365e-04 -4.685239e-01
    outer loop
      vertex   -4.053215e+01 6.119741e+01 1.691985e+02
      vertex   -4.070660e+01 6.159832e+01 1.688694e+02
      vertex   -4.053209e+01 6.159829e+01 1.691985e+02
    endloop
  endfacet
  facet normal 9.578800e-01 -1.377391e-04 -2.871686e-01
    outer loop
      vertex   -4.042513e+01 6.159828e+01 1.695552e+02
      vertex   -4.053215e+01 6.119741e+01 1.691985e+02
      vertex   -4.053209e+01 6.159829e+01 1.691985e+02
    endloop
  endfacet
  facet normal 9.578800e-01 -1.377391e-04 -2.871686e-01
    outer loop
      vertex   -4.042513e+01 6.159828e+01 1.695552e+02
      vertex   -4.042519e+01 6.119740e+01 1.695552e+02
      vertex   -4.053215e+01 6.119741e+01 1.691985e+02
    endloop
  endfacet
  facet normal 9.954985e-01 -1.431484e-04 -9.477764e-02
    outer loop
      vertex   -4.042513e+01 6.159828e+01 1.695552e+02
      vertex   -4.038983e+01 6.159827e+01 1.699260e+02
      vertex   -4.042519e+01 6.119740e+01 1.695552e+02
    endloop
  endfacet
  facet normal 9.954985e-01 -1.431484e-04 -9.477764e-02
    outer loop
      vertex   -4.042519e+01 6.119740e+01 1.695552e+02
      vertex   -4.038983e+01 6.159827e+01 1.699260e+02
      vertex   -4.038989e+01 6.119739e+01 1.699260e+02
    endloop
  endfacet
  facet normal 9.948604e-01 -1.430567e-04 1.012556e-01
    outer loop
      vertex   -4.038989e+01 6.119739e+01 1.699260e+02
      vertex   -4.038983e+01 6.159827e+01 1.699260e+02
      vertex   -4.042754e+01 6.159828e+01 1.702966e+02
    endloop
  endfacet
  facet normal 9.559905e-01 -1.374674e-04 2.933977e-01
    outer loop
      vertex   -4.042760e+01 6.119740e+01 1.702966e+02
      vertex   -4.042754e+01 6.159828e+01 1.702966e+02
      vertex   -4.053682e+01 6.159829e+01 1.706526e+02
    endloop
  endfacet
  facet normal 8.803823e-01 -1.265952e-04 4.742646e-01
    outer loop
      vertex   -4.053688e+01 6.119741e+01 1.706526e+02
      vertex   -4.053682e+01 6.159829e+01 1.706526e+02
      vertex   -4.071353e+01 6.119744e+01 1.709806e+02
    endloop
  endfacet
  facet normal 9.559905e-01 -1.374674e-04 2.933977e-01
    outer loop
      vertex   -4.053688e+01 6.119741e+01 1.706526e+02
      vertex   -4.042760e+01 6.119740e+01 1.702966e+02
      vertex   -4.053682e+01 6.159829e+01 1.706526e+02
    endloop
  endfacet
  facet normal 8.803823e-01 -1.265952e-04 4.742646e-01
    outer loop
      vertex   -4.053682e+01 6.159829e+01 1.706526e+02
      vertex   -4.071347e+01 6.159832e+01 1.709806e+02
      vertex   -4.071353e+01 6.119744e+01 1.709806e+02
    endloop
  endfacet
  facet normal 7.709416e-01 -1.108581e-04 6.369058e-01
    outer loop
      vertex   -4.071353e+01 6.119744e+01 1.709806e+02
      vertex   -4.071347e+01 6.159832e+01 1.709806e+02
      vertex   -4.095070e+01 6.159835e+01 1.712677e+02
    endloop
  endfacet
  facet normal 6.318740e-01 -9.086079e-05 7.750711e-01
    outer loop
      vertex   -4.095075e+01 6.119747e+01 1.712677e+02
      vertex   -4.095070e+01 6.159835e+01 1.712677e+02
      vertex   -4.123938e+01 6.159839e+01 1.715031e+02
    endloop
  endfacet
  facet normal 4.685239e-01 -6.737173e-05 8.834508e-01
    outer loop
      vertex   -4.123944e+01 6.119751e+01 1.715031e+02
      vertex   -4.123938e+01 6.159839e+01 1.715031e+02
      vertex   -4.156844e+01 6.159844e+01 1.716776e+02
    endloop
  endfacet
  facet normal 2.871686e-01 -4.129362e-05 9.578800e-01
    outer loop
      vertex   -4.156850e+01 6.119756e+01 1.716776e+02
      vertex   -4.156844e+01 6.159844e+01 1.716776e+02
      vertex   -4.192522e+01 6.159849e+01 1.717845e+02
    endloop
  endfacet
  facet normal 9.477763e-02 -1.362862e-05 9.954985e-01
    outer loop
      vertex   -4.192527e+01 6.119761e+01 1.717845e+02
      vertex   -4.192522e+01 6.159849e+01 1.717845e+02
      vertex   -4.229606e+01 6.119767e+01 1.718198e+02
    endloop
  endfacet
  facet normal 2.871686e-01 -4.129362e-05 9.578800e-01
    outer loop
      vertex   -4.192527e+01 6.119761e+01 1.717845e+02
      vertex   -4.156850e+01 6.119756e+01 1.716776e+02
      vertex   -4.192522e+01 6.159849e+01 1.717845e+02
    endloop
  endfacet
  facet normal 9.477763e-02 -1.362862e-05 9.954985e-01
    outer loop
      vertex   -4.192522e+01 6.159849e+01 1.717845e+02
      vertex   -4.229600e+01 6.159855e+01 1.718198e+02
      vertex   -4.229606e+01 6.119767e+01 1.718198e+02
    endloop
  endfacet
  facet normal -1.012556e-01 1.456012e-05 9.948604e-01
    outer loop
      vertex   -4.229606e+01 6.119767e+01 1.718198e+02
      vertex   -4.229600e+01 6.159855e+01 1.718198e+02
      vertex   -4.266655e+01 6.159860e+01 1.717821e+02
    endloop
  endfacet
  facet normal -2.933976e-01 4.218933e-05 9.559905e-01
    outer loop
      vertex   -4.266661e+01 6.119772e+01 1.717821e+02
      vertex   -4.266655e+01 6.159860e+01 1.717821e+02
      vertex   -4.302263e+01 6.159865e+01 1.716728e+02
    endloop
  endfacet
  facet normal -4.742646e-01 6.819722e-05 8.803824e-01
    outer loop
      vertex   -4.302269e+01 6.119777e+01 1.716728e+02
      vertex   -4.302263e+01 6.159865e+01 1.716728e+02
      vertex   -4.335054e+01 6.159870e+01 1.714962e+02
    endloop
  endfacet
  facet normal -6.369058e-01 9.158434e-05 7.709416e-01
    outer loop
      vertex   -4.335060e+01 6.119782e+01 1.714962e+02
      vertex   -4.335054e+01 6.159870e+01 1.714962e+02
      vertex   -4.363769e+01 6.159874e+01 1.712590e+02
    endloop
  endfacet
  facet normal -7.750711e-01 1.114519e-04 6.318740e-01
    outer loop
      vertex   -4.363775e+01 6.119786e+01 1.712590e+02
      vertex   -4.363769e+01 6.159874e+01 1.712590e+02
      vertex   -4.387310e+01 6.119789e+01 1.709703e+02
    endloop
  endfacet
  facet normal -6.369058e-01 9.158434e-05 7.709416e-01
    outer loop
      vertex   -4.363775e+01 6.119786e+01 1.712590e+02
      vertex   -4.335060e+01 6.119782e+01 1.714962e+02
      vertex   -4.363769e+01 6.159874e+01 1.712590e+02
    endloop
  endfacet
  facet normal -7.750711e-01 1.114519e-04 6.318740e-01
    outer loop
      vertex   -4.363769e+01 6.159874e+01 1.712590e+02
      vertex   -4.387304e+01 6.159877e+01 1.709703e+02
      vertex   -4.387310e+01 6.119789e+01 1.709703e+02
    endloop
  endfacet
  facet normal -4.742646e-01 6.819722e-05 8.803824e-01
    outer loop
      vertex   -4.335060e+01 6.119782e+01 1.714962e+02
      vertex   -4.302269e+01 6.119777e+01 1.716728e+02
      vertex   -4.335054e+01 6.159870e+01 1.714962e+02
    endloop
  endfacet
  facet normal -2.933976e-01 4.218933e-05 9.559905e-01
    outer loop
      vertex   -4.302269e+01 6.119777e+01 1.716728e+02
      vertex   -4.266661e+01 6.119772e+01 1.717821e+02
      vertex   -4.302263e+01 6.159865e+01 1.716728e+02
    endloop
  endfacet
  facet normal -1.012556e-01 1.456012e-05 9.948604e-01
    outer loop
      vertex   -4.266661e+01 6.119772e+01 1.717821e+02
      vertex   -4.229606e+01 6.119767e+01 1.718198e+02
      vertex   -4.266655e+01 6.159860e+01 1.717821e+02
    endloop
  endfacet
  facet normal 4.685239e-01 -6.737173e-05 8.834508e-01
    outer loop
      vertex   -4.156850e+01 6.119756e+01 1.716776e+02
      vertex   -4.123944e+01 6.119751e+01 1.715031e+02
      vertex   -4.156844e+01 6.159844e+01 1.716776e+02
    endloop
  endfacet
  facet normal 6.318740e-01 -9.086079e-05 7.750711e-01
    outer loop
      vertex   -4.123944e+01 6.119751e+01 1.715031e+02
      vertex   -4.095075e+01 6.119747e+01 1.712677e+02
      vertex   -4.123938e+01 6.159839e+01 1.715031e+02
    endloop
  endfacet
  facet normal 7.709416e-01 -1.108581e-04 6.369058e-01
    outer loop
      vertex   -4.095075e+01 6.119747e+01 1.712677e+02
      vertex   -4.071353e+01 6.119744e+01 1.709806e+02
      vertex   -4.095070e+01 6.159835e+01 1.712677e+02
    endloop
  endfacet
  facet normal 9.948604e-01 -1.430567e-04 1.012556e-01
    outer loop
      vertex   -4.042760e+01 6.119740e+01 1.702966e+02
      vertex   -4.038989e+01 6.119739e+01 1.699260e+02
      vertex   -4.042754e+01 6.159828e+01 1.702966e+02
    endloop
  endfacet
  facet normal -1.437957e-04 -1.000000e+00 -2.867551e-13
    outer loop
      vertex   -4.257909e+01 6.239771e+01 1.705019e+02
      vertex   -4.293845e+01 6.239776e+01 1.699602e+02
      vertex   -4.193035e+01 6.239761e+01 1.704615e+02
    endloop
  endfacet
  facet normal -1.437957e-04 -1.000000e+00 -2.965335e-13
    outer loop
      vertex   -4.193035e+01 6.239761e+01 1.704615e+02
      vertex   -4.293845e+01 6.239776e+01 1.699602e+02
      vertex   -4.264906e+01 6.239772e+01 1.693782e+02
    endloop
  endfacet
  facet normal -1.437957e-04 -1.000000e+00 -2.993504e-13
    outer loop
      vertex   -4.164096e+01 6.239757e+01 1.698794e+02
      vertex   -4.264906e+01 6.239772e+01 1.693782e+02
      vertex   -4.200032e+01 6.239762e+01 1.693378e+02
    endloop
  endfacet
  facet normal -1.437957e-04 -1.000000e+00 -2.895550e-13
    outer loop
      vertex   -4.164096e+01 6.239757e+01 1.698794e+02
      vertex   -4.193035e+01 6.239761e+01 1.704615e+02
      vertex   -4.264906e+01 6.239772e+01 1.693782e+02
    endloop
  endfacet
  facet normal -1.437957e-04 -1.000000e+00 -2.454953e-13
    outer loop
      vertex   -4.053215e+01 6.119741e+01 1.691985e+02
      vertex   -4.164113e+01 6.119757e+01 1.698794e+02
      vertex   -4.070666e+01 6.119744e+01 1.688694e+02
    endloop
  endfacet
  facet normal -1.437957e-04 -1.000000e+00 -2.991834e-13
    outer loop
      vertex   -4.053215e+01 6.119741e+01 1.691985e+02
      vertex   -4.042519e+01 6.119740e+01 1.695552e+02
      vertex   -4.164113e+01 6.119757e+01 1.698794e+02
    endloop
  endfacet
  facet normal -1.437957e-04 -1.000000e+00 -3.161577e-13
    outer loop
      vertex   -4.164113e+01 6.119757e+01 1.698794e+02
      vertex   -4.042519e+01 6.119740e+01 1.695552e+02
      vertex   -4.038989e+01 6.119739e+01 1.699260e+02
    endloop
  endfacet
  facet normal -1.437957e-04 -1.000000e+00 -2.913743e-13
    outer loop
      vertex   -4.042760e+01 6.119740e+01 1.702966e+02
      vertex   -4.164113e+01 6.119757e+01 1.698794e+02
      vertex   -4.038989e+01 6.119739e+01 1.699260e+02
    endloop
  endfacet
  facet normal -1.437957e-04 -1.000000e+00 -2.893806e-13
    outer loop
      vertex   -4.042760e+01 6.119740e+01 1.702966e+02
      vertex   -4.053688e+01 6.119741e+01 1.706526e+02
      vertex   -4.164113e+01 6.119757e+01 1.698794e+02
    endloop
  endfacet
  facet normal -1.437957e-04 -1.000000e+00 -2.903950e-13
    outer loop
      vertex   -4.164113e+01 6.119757e+01 1.698794e+02
      vertex   -4.053688e+01 6.119741e+01 1.706526e+02
      vertex   -4.193052e+01 6.119761e+01 1.704615e+02
    endloop
  endfacet
  facet normal -1.437957e-04 -1.000000e+00 -2.752633e-13
    outer loop
      vertex   -4.193052e+01 6.119761e+01 1.704615e+02
      vertex   -4.053688e+01 6.119741e+01 1.706526e+02
      vertex   -4.071353e+01 6.119744e+01 1.709806e+02
    endloop
  endfacet
  facet normal -1.437957e-04 -1.000000e+00 -2.712337e-13
    outer loop
      vertex   -4.095075e+01 6.119747e+01 1.712677e+02
      vertex   -4.193052e+01 6.119761e+01 1.704615e+02
      vertex   -4.071353e+01 6.119744e+01 1.709806e+02
    endloop
  endfacet
  facet normal -1.437957e-04 -1.000000e+00 -2.845742e-13
    outer loop
      vertex   -4.095075e+01 6.119747e+01 1.712677e+02
      vertex   -4.123944e+01 6.119751e+01 1.715031e+02
      vertex   -4.193052e+01 6.119761e+01 1.704615e+02
    endloop
  endfacet
  facet normal -1.437957e-04 -1.000000e+00 -2.718419e-13
    outer loop
      vertex   -4.193052e+01 6.119761e+01 1.704615e+02
      vertex   -4.123944e+01 6.119751e+01 1.715031e+02
      vertex   -4.156850e+01 6.119756e+01 1.716776e+02
    endloop
  endfacet
  facet normal -1.437957e-04 -1.000000e+00 -2.738321e-13
    outer loop
      vertex   -4.192527e+01 6.119761e+01 1.717845e+02
      vertex   -4.193052e+01 6.119761e+01 1.704615e+02
      vertex   -4.156850e+01 6.119756e+01 1.716776e+02
    endloop
  endfacet
  facet normal -1.437957e-04 -1.000000e+00 -2.738021e-13
    outer loop
      vertex   -4.192527e+01 6.119761e+01 1.717845e+02
      vertex   -4.229606e+01 6.119767e+01 1.718198e+02
      vertex   -4.193052e+01 6.119761e+01 1.704615e+02
    endloop
  endfacet
  facet normal -1.437957e-04 -1.000000e+00 -2.747664e-13
    outer loop
      vertex   -4.193052e+01 6.119761e+01 1.704615e+02
      vertex   -4.229606e+01 6.119767e+01 1.718198e+02
      vertex   -4.257926e+01 6.119771e+01 1.705019e+02
    endloop
  endfacet
  facet normal -1.437957e-04 -1.000000e+00 -2.732506e-13
    outer loop
      vertex   -4.257926e+01 6.119771e+01 1.705019e+02
      vertex   -4.229606e+01 6.119767e+01 1.718198e+02
      vertex   -4.266661e+01 6.119772e+01 1.717821e+02
    endloop
  endfacet
  facet normal -1.437957e-04 -1.000000e+00 -2.739002e-13
    outer loop
      vertex   -4.302269e+01 6.119777e+01 1.716728e+02
      vertex   -4.257926e+01 6.119771e+01 1.705019e+02
      vertex   -4.266661e+01 6.119772e+01 1.717821e+02
    endloop
  endfacet
  facet normal -1.437957e-04 -1.000000e+00 -2.735108e-13
    outer loop
      vertex   -4.302269e+01 6.119777e+01 1.716728e+02
      vertex   -4.335060e+01 6.119782e+01 1.714962e+02
      vertex   -4.257926e+01 6.119771e+01 1.705019e+02
    endloop
  endfacet
  facet normal -1.437957e-04 -1.000000e+00 -2.766856e-13
    outer loop
      vertex   -4.257926e+01 6.119771e+01 1.705019e+02
      vertex   -4.335060e+01 6.119782e+01 1.714962e+02
      vertex   -4.363775e+01 6.119786e+01 1.712590e+02
    endloop
  endfacet
  facet normal -1.437957e-04 -1.000000e+00 -2.680796e-13
    outer loop
      vertex   -4.387310e+01 6.119789e+01 1.709703e+02
      vertex   -4.257926e+01 6.119771e+01 1.705019e+02
      vertex   -4.363775e+01 6.119786e+01 1.712590e+02
    endloop
  endfacet
  facet normal -1.437957e-04 -1.000000e+00 -2.868947e-13
    outer loop
      vertex   -4.387310e+01 6.119789e+01 1.709703e+02
      vertex   -4.293862e+01 6.119776e+01 1.699602e+02
      vertex   -4.257926e+01 6.119771e+01 1.705019e+02
    endloop
  endfacet
  facet normal -1.437957e-04 -1.000000e+00 -2.901449e-13
    outer loop
      vertex   -4.387310e+01 6.119789e+01 1.709703e+02
      vertex   -4.404761e+01 6.119792e+01 1.706412e+02
      vertex   -4.293862e+01 6.119776e+01 1.699602e+02
    endloop
  endfacet
  facet normal -1.437957e-04 -1.000000e+00 -2.862055e-13
    outer loop
      vertex   -4.293862e+01 6.119776e+01 1.699602e+02
      vertex   -4.404761e+01 6.119792e+01 1.706412e+02
      vertex   -4.415457e+01 6.119793e+01 1.702844e+02
    endloop
  endfacet
  facet normal -1.437957e-04 -1.000000e+00 -3.118171e-13
    outer loop
      vertex   -4.418987e+01 6.119794e+01 1.699137e+02
      vertex   -4.293862e+01 6.119776e+01 1.699602e+02
      vertex   -4.415457e+01 6.119793e+01 1.702844e+02
    endloop
  endfacet
  facet normal -1.437957e-04 -1.000000e+00 -2.959807e-13
    outer loop
      vertex   -4.418987e+01 6.119794e+01 1.699137e+02
      vertex   -4.415215e+01 6.119793e+01 1.695431e+02
      vertex   -4.293862e+01 6.119776e+01 1.699602e+02
    endloop
  endfacet
  facet normal -1.437957e-04 -1.000000e+00 -3.023848e-13
    outer loop
      vertex   -4.293862e+01 6.119776e+01 1.699602e+02
      vertex   -4.415215e+01 6.119793e+01 1.695431e+02
      vertex   -4.404287e+01 6.119792e+01 1.691870e+02
    endloop
  endfacet
  facet normal -1.437957e-04 -1.000000e+00 -2.957238e-13
    outer loop
      vertex   -4.264924e+01 6.119772e+01 1.693782e+02
      vertex   -4.404287e+01 6.119792e+01 1.691870e+02
      vertex   -4.386623e+01 6.119789e+01 1.688591e+02
    endloop
  endfacet
  facet normal -1.437957e-04 -1.000000e+00 -2.997668e-13
    outer loop
      vertex   -4.362900e+01 6.119786e+01 1.685720e+02
      vertex   -4.264924e+01 6.119772e+01 1.693782e+02
      vertex   -4.386623e+01 6.119789e+01 1.688591e+02
    endloop
  endfacet
  facet normal -1.437957e-04 -1.000000e+00 -3.199909e-13
    outer loop
      vertex   -4.362900e+01 6.119786e+01 1.685720e+02
      vertex   -4.334031e+01 6.119782e+01 1.683366e+02
      vertex   -4.264924e+01 6.119772e+01 1.693782e+02
    endloop
  endfacet
  facet normal -1.437957e-04 -1.000000e+00 -3.122110e-13
    outer loop
      vertex   -4.264924e+01 6.119772e+01 1.693782e+02
      vertex   -4.334031e+01 6.119782e+01 1.683366e+02
      vertex   -4.301126e+01 6.119777e+01 1.681621e+02
    endloop
  endfacet
  facet normal -1.437957e-04 -1.000000e+00 -3.167447e-13
    outer loop
      vertex   -4.265448e+01 6.119772e+01 1.680552e+02
      vertex   -4.264924e+01 6.119772e+01 1.693782e+02
      vertex   -4.301126e+01 6.119777e+01 1.681621e+02
    endloop
  endfacet
  facet normal -1.437957e-04 -1.000000e+00 -3.167495e-13
    outer loop
      vertex   -4.265448e+01 6.119772e+01 1.680552e+02
      vertex   -4.228369e+01 6.119766e+01 1.680198e+02
      vertex   -4.264924e+01 6.119772e+01 1.693782e+02
    endloop
  endfacet
  facet normal -1.437957e-04 -1.000000e+00 -3.173267e-13
    outer loop
      vertex   -4.264924e+01 6.119772e+01 1.693782e+02
      vertex   -4.228369e+01 6.119766e+01 1.680198e+02
      vertex   -4.200049e+01 6.119762e+01 1.693378e+02
    endloop
  endfacet
  facet normal -1.437957e-04 -1.000000e+00 -3.173447e-13
    outer loop
      vertex   -4.200049e+01 6.119762e+01 1.693378e+02
      vertex   -4.228369e+01 6.119766e+01 1.680198e+02
      vertex   -4.191314e+01 6.119761e+01 1.680576e+02
    endloop
  endfacet
  facet normal -1.437957e-04 -1.000000e+00 -3.173899e-13
    outer loop
      vertex   -4.155707e+01 6.119756e+01 1.681668e+02
      vertex   -4.200049e+01 6.119762e+01 1.693378e+02
      vertex   -4.191314e+01 6.119761e+01 1.680576e+02
    endloop
  endfacet
  facet normal -1.437957e-04 -1.000000e+00 -3.138298e-13
    outer loop
      vertex   -4.155707e+01 6.119756e+01 1.681668e+02
      vertex   -4.122916e+01 6.119751e+01 1.683435e+02
      vertex   -4.200049e+01 6.119762e+01 1.693378e+02
    endloop
  endfacet
  facet normal -1.437957e-04 -1.000000e+00 -3.115257e-13
    outer loop
      vertex   -4.200049e+01 6.119762e+01 1.693378e+02
      vertex   -4.122916e+01 6.119751e+01 1.683435e+02
      vertex   -4.094201e+01 6.119747e+01 1.685807e+02
    endloop
  endfacet
  facet normal -1.437957e-04 -1.000000e+00 -3.579231e-13
    outer loop
      vertex   -4.070666e+01 6.119744e+01 1.688694e+02
      vertex   -4.200049e+01 6.119762e+01 1.693378e+02
      vertex   -4.094201e+01 6.119747e+01 1.685807e+02
    endloop
  endfacet
  facet normal -1.437957e-04 -1.000000e+00 -2.986481e-13
    outer loop
      vertex   -4.070666e+01 6.119744e+01 1.688694e+02
      vertex   -4.164113e+01 6.119757e+01 1.698794e+02
      vertex   -4.200049e+01 6.119762e+01 1.693378e+02
    endloop
  endfacet
  facet normal -1.437957e-04 -1.000000e+00 -3.093814e-13
    outer loop
      vertex   -4.264924e+01 6.119772e+01 1.693782e+02
      vertex   -4.293862e+01 6.119776e+01 1.699602e+02
      vertex   -4.404287e+01 6.119792e+01 1.691870e+02
    endloop
  endfacet
  facet normal -8.954285e-01 1.287588e-04 -4.452054e-01
    outer loop
      vertex   -4.193052e+01 6.119761e+01 1.704615e+02
      vertex   -4.193035e+01 6.239761e+01 1.704615e+02
      vertex   -4.164113e+01 6.119757e+01 1.698794e+02
    endloop
  endfacet
  facet normal -8.954285e-01 1.287588e-04 -4.452054e-01
    outer loop
      vertex   -4.164113e+01 6.119757e+01 1.698794e+02
      vertex   -4.193035e+01 6.239761e+01 1.704615e+02
      vertex   -4.164096e+01 6.239757e+01 1.698794e+02
    endloop
  endfacet
  facet normal -6.215509e-02 8.937637e-06 -9.980665e-01
    outer loop
      vertex   -4.257909e+01 6.239771e+01 1.705019e+02
      vertex   -4.193035e+01 6.239761e+01 1.704615e+02
      vertex   -4.257926e+01 6.119771e+01 1.705019e+02
    endloop
  endfacet
  facet normal -6.215509e-02 8.937637e-06 -9.980665e-01
    outer loop
      vertex   -4.257926e+01 6.119771e+01 1.705019e+02
      vertex   -4.193035e+01 6.239761e+01 1.704615e+02
      vertex   -4.193052e+01 6.119761e+01 1.704615e+02
    endloop
  endfacet
  facet normal 8.332734e-01 -1.198212e-04 -5.528611e-01
    outer loop
      vertex   -4.293845e+01 6.239776e+01 1.699602e+02
      vertex   -4.257909e+01 6.239771e+01 1.705019e+02
      vertex   -4.293862e+01 6.119776e+01 1.699602e+02
    endloop
  endfacet
  facet normal 8.332734e-01 -1.198212e-04 -5.528611e-01
    outer loop
      vertex   -4.293862e+01 6.119776e+01 1.699602e+02
      vertex   -4.257909e+01 6.239771e+01 1.705019e+02
      vertex   -4.257926e+01 6.119771e+01 1.705019e+02
    endloop
  endfacet
  facet normal 8.954285e-01 -1.287588e-04 4.452054e-01
    outer loop
      vertex   -4.264924e+01 6.119772e+01 1.693782e+02
      vertex   -4.264906e+01 6.239772e+01 1.693782e+02
      vertex   -4.293862e+01 6.119776e+01 1.699602e+02
    endloop
  endfacet
  facet normal 8.954285e-01 -1.287588e-04 4.452054e-01
    outer loop
      vertex   -4.293862e+01 6.119776e+01 1.699602e+02
      vertex   -4.264906e+01 6.239772e+01 1.693782e+02
      vertex   -4.293845e+01 6.239776e+01 1.699602e+02
    endloop
  endfacet
  facet normal 5.398561e-01 7.175844e-01 -4.400317e-01
    outer loop
      vertex   -4.145642e+01 6.246755e+01 1.693670e+02
      vertex   -4.070660e+01 6.159832e+01 1.688694e+02
      vertex   -4.158029e+01 6.246756e+01 1.692150e+02
    endloop
  endfacet
  facet normal 5.398561e-01 7.175844e-01 -4.400317e-01
    outer loop
      vertex   -4.158029e+01 6.246756e+01 1.692150e+02
      vertex   -4.070660e+01 6.159832e+01 1.688694e+02
      vertex   -4.094195e+01 6.159835e+01 1.685807e+02
    endloop
  endfacet
  facet normal 4.436390e-01 7.175983e-01 -5.368772e-01
    outer loop
      vertex   -4.122910e+01 6.159839e+01 1.683435e+02
      vertex   -4.158029e+01 6.246756e+01 1.692150e+02
      vertex   -4.094195e+01 6.159835e+01 1.685807e+02
    endloop
  endfacet
  facet normal 4.436390e-01 7.175983e-01 -5.368772e-01
    outer loop
      vertex   -4.122910e+01 6.159839e+01 1.683435e+02
      vertex   -4.173142e+01 6.246758e+01 1.690902e+02
      vertex   -4.158029e+01 6.246756e+01 1.692150e+02
    endloop
  endfacet
  facet normal 3.303770e-01 7.176146e-01 -6.130908e-01
    outer loop
      vertex   -4.122910e+01 6.159839e+01 1.683435e+02
      vertex   -4.155701e+01 6.159844e+01 1.681668e+02
      vertex   -4.173142e+01 6.246758e+01 1.690902e+02
    endloop
  endfacet
  facet normal 3.303770e-01 7.176146e-01 -6.130908e-01
    outer loop
      vertex   -4.173142e+01 6.246758e+01 1.690902e+02
      vertex   -4.155701e+01 6.159844e+01 1.681668e+02
      vertex   -4.190401e+01 6.246761e+01 1.689972e+02
    endloop
  endfacet
  facet normal 2.044228e-01 7.176327e-01 -6.657437e-01
    outer loop
      vertex   -4.190401e+01 6.246761e+01 1.689972e+02
      vertex   -4.155701e+01 6.159844e+01 1.681668e+02
      vertex   -4.191308e+01 6.159849e+01 1.680576e+02
    endloop
  endfacet
  facet normal 7.061674e-02 7.176519e-01 -6.928124e-01
    outer loop
      vertex   -4.209141e+01 6.246764e+01 1.689397e+02
      vertex   -4.191308e+01 6.159849e+01 1.680576e+02
      vertex   -4.228364e+01 6.159854e+01 1.680198e+02
    endloop
  endfacet
  facet normal -6.589914e-02 7.176716e-01 -6.932567e-01
    outer loop
      vertex   -4.228644e+01 6.246766e+01 1.689198e+02
      vertex   -4.228364e+01 6.159854e+01 1.680198e+02
      vertex   -4.248159e+01 6.246769e+01 1.689384e+02
    endloop
  endfacet
  facet normal 7.061674e-02 7.176519e-01 -6.928124e-01
    outer loop
      vertex   -4.228644e+01 6.246766e+01 1.689198e+02
      vertex   -4.209141e+01 6.246764e+01 1.689397e+02
      vertex   -4.228364e+01 6.159854e+01 1.680198e+02
    endloop
  endfacet
  facet normal -6.589914e-02 7.176716e-01 -6.932567e-01
    outer loop
      vertex   -4.228364e+01 6.159854e+01 1.680198e+02
      vertex   -4.265442e+01 6.159860e+01 1.680552e+02
      vertex   -4.248159e+01 6.246769e+01 1.689384e+02
    endloop
  endfacet
  facet normal -1.998786e-01 7.176908e-01 -6.670595e-01
    outer loop
      vertex   -4.248159e+01 6.246769e+01 1.689384e+02
      vertex   -4.265442e+01 6.159860e+01 1.680552e+02
      vertex   -4.301120e+01 6.159865e+01 1.681621e+02
    endloop
  endfacet
  facet normal -3.261729e-01 7.177090e-01 -6.152277e-01
    outer loop
      vertex   -4.266937e+01 6.246772e+01 1.689947e+02
      vertex   -4.301120e+01 6.159865e+01 1.681621e+02
      vertex   -4.334026e+01 6.159870e+01 1.683366e+02
    endloop
  endfacet
  facet normal -4.399285e-01 7.177253e-01 -5.397529e-01
    outer loop
      vertex   -4.284256e+01 6.246774e+01 1.690866e+02
      vertex   -4.334026e+01 6.159870e+01 1.683366e+02
      vertex   -4.362894e+01 6.159874e+01 1.685720e+02
    endloop
  endfacet
  facet normal -5.367740e-01 7.177393e-01 -4.435358e-01
    outer loop
      vertex   -4.299450e+01 6.246777e+01 1.692104e+02
      vertex   -4.362894e+01 6.159874e+01 1.685720e+02
      vertex   -4.386617e+01 6.159877e+01 1.688591e+02
    endloop
  endfacet
  facet normal -6.129876e-01 7.177502e-01 -3.302738e-01
    outer loop
      vertex   -4.311935e+01 6.246778e+01 1.693616e+02
      vertex   -4.386617e+01 6.159877e+01 1.688591e+02
      vertex   -4.321232e+01 6.246780e+01 1.695342e+02
    endloop
  endfacet
  facet normal -5.367740e-01 7.177393e-01 -4.435358e-01
    outer loop
      vertex   -4.311935e+01 6.246778e+01 1.693616e+02
      vertex   -4.299450e+01 6.246777e+01 1.692104e+02
      vertex   -4.386617e+01 6.159877e+01 1.688591e+02
    endloop
  endfacet
  facet normal -6.129876e-01 7.177502e-01 -3.302738e-01
    outer loop
      vertex   -4.386617e+01 6.159877e+01 1.688591e+02
      vertex   -4.404281e+01 6.159880e+01 1.691870e+02
      vertex   -4.321232e+01 6.246780e+01 1.695342e+02
    endloop
  endfacet
  facet normal -6.656405e-01 7.177578e-01 -2.043196e-01
    outer loop
      vertex   -4.321232e+01 6.246780e+01 1.695342e+02
      vertex   -4.404281e+01 6.159880e+01 1.691870e+02
      vertex   -4.415210e+01 6.159881e+01 1.695431e+02
    endloop
  endfacet
  facet normal -6.927092e-01 7.177617e-01 -7.051355e-02
    outer loop
      vertex   -4.326984e+01 6.246781e+01 1.697216e+02
      vertex   -4.415210e+01 6.159881e+01 1.695431e+02
      vertex   -4.418981e+01 6.159882e+01 1.699137e+02
    endloop
  endfacet
  facet normal -6.931535e-01 7.177618e-01 6.600234e-02
    outer loop
      vertex   -4.328969e+01 6.246781e+01 1.699166e+02
      vertex   -4.418981e+01 6.159882e+01 1.699137e+02
      vertex   -4.415451e+01 6.159881e+01 1.702844e+02
    endloop
  endfacet
  facet normal -6.669563e-01 7.177580e-01 1.999818e-01
    outer loop
      vertex   -4.327111e+01 6.246781e+01 1.701117e+02
      vertex   -4.415451e+01 6.159881e+01 1.702844e+02
      vertex   -4.404755e+01 6.159880e+01 1.706412e+02
    endloop
  endfacet
  facet normal -6.151245e-01 7.177505e-01 3.262761e-01
    outer loop
      vertex   -4.321481e+01 6.246780e+01 1.702995e+02
      vertex   -4.404755e+01 6.159880e+01 1.706412e+02
      vertex   -4.312297e+01 6.246778e+01 1.704727e+02
    endloop
  endfacet
  facet normal -6.669563e-01 7.177580e-01 1.999818e-01
    outer loop
      vertex   -4.321481e+01 6.246780e+01 1.702995e+02
      vertex   -4.327111e+01 6.246781e+01 1.701117e+02
      vertex   -4.404755e+01 6.159880e+01 1.706412e+02
    endloop
  endfacet
  facet normal -6.151245e-01 7.177505e-01 3.262761e-01
    outer loop
      vertex   -4.404755e+01 6.159880e+01 1.706412e+02
      vertex   -4.387304e+01 6.159877e+01 1.709703e+02
      vertex   -4.312297e+01 6.246778e+01 1.704727e+02
    endloop
  endfacet
  facet normal -6.931535e-01 7.177618e-01 6.600234e-02
    outer loop
      vertex   -4.327111e+01 6.246781e+01 1.701117e+02
      vertex   -4.328969e+01 6.246781e+01 1.699166e+02
      vertex   -4.415451e+01 6.159881e+01 1.702844e+02
    endloop
  endfacet
  facet normal -6.927092e-01 7.177617e-01 -7.051355e-02
    outer loop
      vertex   -4.328969e+01 6.246781e+01 1.699166e+02
      vertex   -4.326984e+01 6.246781e+01 1.697216e+02
      vertex   -4.418981e+01 6.159882e+01 1.699137e+02
    endloop
  endfacet
  facet normal -6.656405e-01 7.177578e-01 -2.043196e-01
    outer loop
      vertex   -4.326984e+01 6.246781e+01 1.697216e+02
      vertex   -4.321232e+01 6.246780e+01 1.695342e+02
      vertex   -4.415210e+01 6.159881e+01 1.695431e+02
    endloop
  endfacet
  facet normal -4.399285e-01 7.177253e-01 -5.397529e-01
    outer loop
      vertex   -4.299450e+01 6.246777e+01 1.692104e+02
      vertex   -4.284256e+01 6.246774e+01 1.690866e+02
      vertex   -4.362894e+01 6.159874e+01 1.685720e+02
    endloop
  endfacet
  facet normal -3.261729e-01 7.177090e-01 -6.152277e-01
    outer loop
      vertex   -4.284256e+01 6.246774e+01 1.690866e+02
      vertex   -4.266937e+01 6.246772e+01 1.689947e+02
      vertex   -4.334026e+01 6.159870e+01 1.683366e+02
    endloop
  endfacet
  facet normal -1.998786e-01 7.176908e-01 -6.670595e-01
    outer loop
      vertex   -4.266937e+01 6.246772e+01 1.689947e+02
      vertex   -4.248159e+01 6.246769e+01 1.689384e+02
      vertex   -4.301120e+01 6.159865e+01 1.681621e+02
    endloop
  endfacet
  facet normal 2.044228e-01 7.176327e-01 -6.657437e-01
    outer loop
      vertex   -4.209141e+01 6.246764e+01 1.689397e+02
      vertex   -4.190401e+01 6.246761e+01 1.689972e+02
      vertex   -4.191308e+01 6.159849e+01 1.680576e+02
    endloop
  endfacet
  facet normal -8.834508e-01 1.270365e-04 4.685239e-01
    outer loop
      vertex   -4.387310e+01 6.119789e+01 1.709703e+02
      vertex   -4.387304e+01 6.159877e+01 1.709703e+02
      vertex   -4.404761e+01 6.119792e+01 1.706412e+02
    endloop
  endfacet
  facet normal -8.834508e-01 1.270365e-04 4.685239e-01
    outer loop
      vertex   -4.404761e+01 6.119792e+01 1.706412e+02
      vertex   -4.387304e+01 6.159877e+01 1.709703e+02
      vertex   -4.404755e+01 6.159880e+01 1.706412e+02
    endloop
  endfacet
  facet normal -9.578800e-01 1.377391e-04 2.871686e-01
    outer loop
      vertex   -4.415451e+01 6.159881e+01 1.702844e+02
      vertex   -4.404761e+01 6.119792e+01 1.706412e+02
      vertex   -4.404755e+01 6.159880e+01 1.706412e+02
    endloop
  endfacet
  facet normal -9.578800e-01 1.377391e-04 2.871686e-01
    outer loop
      vertex   -4.415451e+01 6.159881e+01 1.702844e+02
      vertex   -4.415457e+01 6.119793e+01 1.702844e+02
      vertex   -4.404761e+01 6.119792e+01 1.706412e+02
    endloop
  endfacet
  facet normal -9.954985e-01 1.431484e-04 9.477764e-02
    outer loop
      vertex   -4.415451e+01 6.159881e+01 1.702844e+02
      vertex   -4.418981e+01 6.159882e+01 1.699137e+02
      vertex   -4.415457e+01 6.119793e+01 1.702844e+02
    endloop
  endfacet
  facet normal -9.954985e-01 1.431484e-04 9.477764e-02
    outer loop
      vertex   -4.415457e+01 6.119793e+01 1.702844e+02
      vertex   -4.418981e+01 6.159882e+01 1.699137e+02
      vertex   -4.418987e+01 6.119794e+01 1.699137e+02
    endloop
  endfacet
  facet normal -9.948604e-01 1.430567e-04 -1.012556e-01
    outer loop
      vertex   -4.418987e+01 6.119794e+01 1.699137e+02
      vertex   -4.418981e+01 6.159882e+01 1.699137e+02
      vertex   -4.415210e+01 6.159881e+01 1.695431e+02
    endloop
  endfacet
  facet normal -9.559905e-01 1.374674e-04 -2.933977e-01
    outer loop
      vertex   -4.415215e+01 6.119793e+01 1.695431e+02
      vertex   -4.415210e+01 6.159881e+01 1.695431e+02
      vertex   -4.404281e+01 6.159880e+01 1.691870e+02
    endloop
  endfacet
  facet normal -8.803823e-01 1.265952e-04 -4.742646e-01
    outer loop
      vertex   -4.404287e+01 6.119792e+01 1.691870e+02
      vertex   -4.404281e+01 6.159880e+01 1.691870e+02
      vertex   -4.386623e+01 6.119789e+01 1.688591e+02
    endloop
  endfacet
  facet normal -9.559905e-01 1.374674e-04 -2.933977e-01
    outer loop
      vertex   -4.404287e+01 6.119792e+01 1.691870e+02
      vertex   -4.415215e+01 6.119793e+01 1.695431e+02
      vertex   -4.404281e+01 6.159880e+01 1.691870e+02
    endloop
  endfacet
  facet normal -8.803823e-01 1.265952e-04 -4.742646e-01
    outer loop
      vertex   -4.404281e+01 6.159880e+01 1.691870e+02
      vertex   -4.386617e+01 6.159877e+01 1.688591e+02
      vertex   -4.386623e+01 6.119789e+01 1.688591e+02
    endloop
  endfacet
  facet normal -7.709416e-01 1.108581e-04 -6.369058e-01
    outer loop
      vertex   -4.386623e+01 6.119789e+01 1.688591e+02
      vertex   -4.386617e+01 6.159877e+01 1.688591e+02
      vertex   -4.362894e+01 6.159874e+01 1.685720e+02
    endloop
  endfacet
  facet normal -6.318740e-01 9.086079e-05 -7.750711e-01
    outer loop
      vertex   -4.362900e+01 6.119786e+01 1.685720e+02
      vertex   -4.362894e+01 6.159874e+01 1.685720e+02
      vertex   -4.334026e+01 6.159870e+01 1.683366e+02
    endloop
  endfacet
  facet normal -4.685239e-01 6.737173e-05 -8.834508e-01
    outer loop
      vertex   -4.334031e+01 6.119782e+01 1.683366e+02
      vertex   -4.334026e+01 6.159870e+01 1.683366e+02
      vertex   -4.301120e+01 6.159865e+01 1.681621e+02
    endloop
  endfacet
  facet normal -2.871686e-01 4.129362e-05 -9.578800e-01
    outer loop
      vertex   -4.301126e+01 6.119777e+01 1.681621e+02
      vertex   -4.301120e+01 6.159865e+01 1.681621e+02
      vertex   -4.265442e+01 6.159860e+01 1.680552e+02
    endloop
  endfacet
  facet normal -9.477763e-02 1.362862e-05 -9.954985e-01
    outer loop
      vertex   -4.265448e+01 6.119772e+01 1.680552e+02
      vertex   -4.265442e+01 6.159860e+01 1.680552e+02
      vertex   -4.228369e+01 6.119766e+01 1.680198e+02
    endloop
  endfacet
  facet normal -2.871686e-01 4.129362e-05 -9.578800e-01
    outer loop
      vertex   -4.265448e+01 6.119772e+01 1.680552e+02
      vertex   -4.301126e+01 6.119777e+01 1.681621e+02
      vertex   -4.265442e+01 6.159860e+01 1.680552e+02
    endloop
  endfacet
  facet normal -9.477763e-02 1.362862e-05 -9.954985e-01
    outer loop
      vertex   -4.265442e+01 6.159860e+01 1.680552e+02
      vertex   -4.228364e+01 6.159854e+01 1.680198e+02
      vertex   -4.228369e+01 6.119766e+01 1.680198e+02
    endloop
  endfacet
  facet normal 1.012556e-01 -1.456012e-05 -9.948604e-01
    outer loop
      vertex   -4.228369e+01 6.119766e+01 1.680198e+02
      vertex   -4.228364e+01 6.159854e+01 1.680198e+02
      vertex   -4.191308e+01 6.159849e+01 1.680576e+02
    endloop
  endfacet
  facet normal 2.933976e-01 -4.218933e-05 -9.559905e-01
    outer loop
      vertex   -4.191314e+01 6.119761e+01 1.680576e+02
      vertex   -4.191308e+01 6.159849e+01 1.680576e+02
      vertex   -4.155701e+01 6.159844e+01 1.681668e+02
    endloop
  endfacet
  facet normal 4.742646e-01 -6.819722e-05 -8.803824e-01
    outer loop
      vertex   -4.155707e+01 6.119756e+01 1.681668e+02
      vertex   -4.155701e+01 6.159844e+01 1.681668e+02
      vertex   -4.122910e+01 6.159839e+01 1.683435e+02
    endloop
  endfacet
  facet normal 6.369058e-01 -9.158434e-05 -7.709416e-01
    outer loop
      vertex   -4.122916e+01 6.119751e+01 1.683435e+02
      vertex   -4.122910e+01 6.159839e+01 1.683435e+02
      vertex   -4.094195e+01 6.159835e+01 1.685807e+02
    endloop
  endfacet
  facet normal 7.750711e-01 -1.114519e-04 -6.318740e-01
    outer loop
      vertex   -4.094201e+01 6.119747e+01 1.685807e+02
      vertex   -4.094195e+01 6.159835e+01 1.685807e+02
      vertex   -4.070666e+01 6.119744e+01 1.688694e+02
    endloop
  endfacet
  facet normal 6.369058e-01 -9.158434e-05 -7.709416e-01
    outer loop
      vertex   -4.094201e+01 6.119747e+01 1.685807e+02
      vertex   -4.122916e+01 6.119751e+01 1.683435e+02
      vertex   -4.094195e+01 6.159835e+01 1.685807e+02
    endloop
  endfacet
  facet normal 7.750711e-01 -1.114519e-04 -6.318740e-01
    outer loop
      vertex   -4.094195e+01 6.159835e+01 1.685807e+02
      vertex   -4.070660e+01 6.159832e+01 1.688694e+02
      vertex   -4.070666e+01 6.119744e+01 1.688694e+02
    endloop
  endfacet
  facet normal 4.742646e-01 -6.819722e-05 -8.803824e-01
    outer loop
      vertex   -4.122916e+01 6.119751e+01 1.683435e+02
      vertex   -4.155707e+01 6.119756e+01 1.681668e+02
      vertex   -4.122910e+01 6.159839e+01 1.683435e+02
    endloop
  endfacet
  facet normal 2.933976e-01 -4.218933e-05 -9.559905e-01
    outer loop
      vertex   -4.155707e+01 6.119756e+01 1.681668e+02
      vertex   -4.191314e+01 6.119761e+01 1.680576e+02
      vertex   -4.155701e+01 6.159844e+01 1.681668e+02
    endloop
  endfacet
  facet normal 1.012556e-01 -1.456012e-05 -9.948604e-01
    outer loop
      vertex   -4.191314e+01 6.119761e+01 1.680576e+02
      vertex   -4.228369e+01 6.119766e+01 1.680198e+02
      vertex   -4.191308e+01 6.159849e+01 1.680576e+02
    endloop
  endfacet
  facet normal -4.685239e-01 6.737173e-05 -8.834508e-01
    outer loop
      vertex   -4.301126e+01 6.119777e+01 1.681621e+02
      vertex   -4.334031e+01 6.119782e+01 1.683366e+02
      vertex   -4.301120e+01 6.159865e+01 1.681621e+02
    endloop
  endfacet
  facet normal -6.318740e-01 9.086079e-05 -7.750711e-01
    outer loop
      vertex   -4.334031e+01 6.119782e+01 1.683366e+02
      vertex   -4.362900e+01 6.119786e+01 1.685720e+02
      vertex   -4.334026e+01 6.159870e+01 1.683366e+02
    endloop
  endfacet
  facet normal -7.709416e-01 1.108581e-04 -6.369058e-01
    outer loop
      vertex   -4.362900e+01 6.119786e+01 1.685720e+02
      vertex   -4.386623e+01 6.119789e+01 1.688591e+02
      vertex   -4.362894e+01 6.159874e+01 1.685720e+02
    endloop
  endfacet
  facet normal -9.948604e-01 1.430567e-04 -1.012556e-01
    outer loop
      vertex   -4.415215e+01 6.119793e+01 1.695431e+02
      vertex   -4.418987e+01 6.119794e+01 1.699137e+02
      vertex   -4.415210e+01 6.159881e+01 1.695431e+02
    endloop
  endfacet
  facet normal -8.834508e-01 1.270365e-04 4.685239e-01
    outer loop
      vertex   -4.312297e+01 6.246778e+01 1.704727e+02
      vertex   -4.312240e+01 6.639778e+01 1.704727e+02
      vertex   -4.321481e+01 6.246780e+01 1.702995e+02
    endloop
  endfacet
  facet normal -8.834508e-01 1.270365e-04 4.685239e-01
    outer loop
      vertex   -4.321481e+01 6.246780e+01 1.702995e+02
      vertex   -4.312240e+01 6.639778e+01 1.704727e+02
      vertex   -4.321425e+01 6.639780e+01 1.702995e+02
    endloop
  endfacet
  facet normal -9.578800e-01 1.377391e-04 2.871686e-01
    outer loop
      vertex   -4.327054e+01 6.639781e+01 1.701117e+02
      vertex   -4.321481e+01 6.246780e+01 1.702995e+02
      vertex   -4.321425e+01 6.639780e+01 1.702995e+02
    endloop
  endfacet
  facet normal -9.578800e-01 1.377391e-04 2.871686e-01
    outer loop
      vertex   -4.327054e+01 6.639781e+01 1.701117e+02
      vertex   -4.327111e+01 6.246781e+01 1.701117e+02
      vertex   -4.321481e+01 6.246780e+01 1.702995e+02
    endloop
  endfacet
  facet normal -9.954985e-01 1.431484e-04 9.477764e-02
    outer loop
      vertex   -4.327054e+01 6.639781e+01 1.701117e+02
      vertex   -4.328912e+01 6.639781e+01 1.699166e+02
      vertex   -4.327111e+01 6.246781e+01 1.701117e+02
    endloop
  endfacet
  facet normal -9.954985e-01 1.431484e-04 9.477764e-02
    outer loop
      vertex   -4.327111e+01 6.246781e+01 1.701117e+02
      vertex   -4.328912e+01 6.639781e+01 1.699166e+02
      vertex   -4.328969e+01 6.246781e+01 1.699166e+02
    endloop
  endfacet
  facet normal -9.948604e-01 1.430567e-04 -1.012556e-01
    outer loop
      vertex   -4.328969e+01 6.246781e+01 1.699166e+02
      vertex   -4.328912e+01 6.639781e+01 1.699166e+02
      vertex   -4.326927e+01 6.639781e+01 1.697216e+02
    endloop
  endfacet
  facet normal -9.559905e-01 1.374674e-04 -2.933977e-01
    outer loop
      vertex   -4.326984e+01 6.246781e+01 1.697216e+02
      vertex   -4.326927e+01 6.639781e+01 1.697216e+02
      vertex   -4.321176e+01 6.639780e+01 1.695342e+02
    endloop
  endfacet
  facet normal -8.803823e-01 1.265952e-04 -4.742646e-01
    outer loop
      vertex   -4.321232e+01 6.246780e+01 1.695342e+02
      vertex   -4.321176e+01 6.639780e+01 1.695342e+02
      vertex   -4.311935e+01 6.246778e+01 1.693616e+02
    endloop
  endfacet
  facet normal -9.559905e-01 1.374674e-04 -2.933977e-01
    outer loop
      vertex   -4.321232e+01 6.246780e+01 1.695342e+02
      vertex   -4.326984e+01 6.246781e+01 1.697216e+02
      vertex   -4.321176e+01 6.639780e+01 1.695342e+02
    endloop
  endfacet
  facet normal -8.803823e-01 1.265952e-04 -4.742646e-01
    outer loop
      vertex   -4.321176e+01 6.639780e+01 1.695342e+02
      vertex   -4.311879e+01 6.639778e+01 1.693616e+02
      vertex   -4.311935e+01 6.246778e+01 1.693616e+02
    endloop
  endfacet
  facet normal -7.709416e-01 1.108581e-04 -6.369058e-01
    outer loop
      vertex   -4.311935e+01 6.246778e+01 1.693616e+02
      vertex   -4.311879e+01 6.639778e+01 1.693616e+02
      vertex   -4.299393e+01 6.639777e+01 1.692104e+02
    endloop
  endfacet
  facet normal -6.318740e-01 9.086079e-05 -7.750711e-01
    outer loop
      vertex   -4.299450e+01 6.246777e+01 1.692104e+02
      vertex   -4.299393e+01 6.639777e+01 1.692104e+02
      vertex   -4.284199e+01 6.639774e+01 1.690866e+02
    endloop
  endfacet
  facet normal -4.685239e-01 6.737173e-05 -8.834508e-01
    outer loop
      vertex   -4.284256e+01 6.246774e+01 1.690866e+02
      vertex   -4.284199e+01 6.639774e+01 1.690866e+02
      vertex   -4.266880e+01 6.639772e+01 1.689947e+02
    endloop
  endfacet
  facet normal -2.871686e-01 4.129362e-05 -9.578800e-01
    outer loop
      vertex   -4.266937e+01 6.246772e+01 1.689947e+02
      vertex   -4.266880e+01 6.639772e+01 1.689947e+02
      vertex   -4.248103e+01 6.639769e+01 1.689384e+02
    endloop
  endfacet
  facet normal -9.477763e-02 1.362862e-05 -9.954985e-01
    outer loop
      vertex   -4.248159e+01 6.246769e+01 1.689384e+02
      vertex   -4.248103e+01 6.639769e+01 1.689384e+02
      vertex   -4.228644e+01 6.246766e+01 1.689198e+02
    endloop
  endfacet
  facet normal -2.871686e-01 4.129362e-05 -9.578800e-01
    outer loop
      vertex   -4.248159e+01 6.246769e+01 1.689384e+02
      vertex   -4.266937e+01 6.246772e+01 1.689947e+02
      vertex   -4.248103e+01 6.639769e+01 1.689384e+02
    endloop
  endfacet
  facet normal -9.477763e-02 1.362862e-05 -9.954985e-01
    outer loop
      vertex   -4.248103e+01 6.639769e+01 1.689384e+02
      vertex   -4.228587e+01 6.639766e+01 1.689198e+02
      vertex   -4.228644e+01 6.246766e+01 1.689198e+02
    endloop
  endfacet
  facet normal 1.012556e-01 -1.456012e-05 -9.948604e-01
    outer loop
      vertex   -4.228644e+01 6.246766e+01 1.689198e+02
      vertex   -4.228587e+01 6.639766e+01 1.689198e+02
      vertex   -4.209085e+01 6.639764e+01 1.689397e+02
    endloop
  endfacet
  facet normal 2.933976e-01 -4.218933e-05 -9.559905e-01
    outer loop
      vertex   -4.209141e+01 6.246764e+01 1.689397e+02
      vertex   -4.209085e+01 6.639764e+01 1.689397e+02
      vertex   -4.190344e+01 6.639761e+01 1.689972e+02
    endloop
  endfacet
  facet normal 4.742646e-01 -6.819722e-05 -8.803824e-01
    outer loop
      vertex   -4.190401e+01 6.246761e+01 1.689972e+02
      vertex   -4.190344e+01 6.639761e+01 1.689972e+02
      vertex   -4.173086e+01 6.639758e+01 1.690902e+02
    endloop
  endfacet
  facet normal 6.369058e-01 -9.158434e-05 -7.709416e-01
    outer loop
      vertex   -4.173142e+01 6.246758e+01 1.690902e+02
      vertex   -4.173086e+01 6.639758e+01 1.690902e+02
      vertex   -4.157973e+01 6.639756e+01 1.692150e+02
    endloop
  endfacet
  facet normal 7.750711e-01 -1.114519e-04 -6.318740e-01
    outer loop
      vertex   -4.158029e+01 6.246756e+01 1.692150e+02
      vertex   -4.157973e+01 6.639756e+01 1.692150e+02
      vertex   -4.145642e+01 6.246755e+01 1.693670e+02
    endloop
  endfacet
  facet normal 6.369058e-01 -9.158434e-05 -7.709416e-01
    outer loop
      vertex   -4.158029e+01 6.246756e+01 1.692150e+02
      vertex   -4.173142e+01 6.246758e+01 1.690902e+02
      vertex   -4.157973e+01 6.639756e+01 1.692150e+02
    endloop
  endfacet
  facet normal 7.750711e-01 -1.114519e-04 -6.318740e-01
    outer loop
      vertex   -4.157973e+01 6.639756e+01 1.692150e+02
      vertex   -4.145586e+01 6.639755e+01 1.693670e+02
      vertex   -4.145642e+01 6.246755e+01 1.693670e+02
    endloop
  endfacet
  facet normal 4.742646e-01 -6.819722e-05 -8.803824e-01
    outer loop
      vertex   -4.173142e+01 6.246758e+01 1.690902e+02
      vertex   -4.190401e+01 6.246761e+01 1.689972e+02
      vertex   -4.173086e+01 6.639758e+01 1.690902e+02
    endloop
  endfacet
  facet normal 2.933976e-01 -4.218933e-05 -9.559905e-01
    outer loop
      vertex   -4.190401e+01 6.246761e+01 1.689972e+02
      vertex   -4.209141e+01 6.246764e+01 1.689397e+02
      vertex   -4.190344e+01 6.639761e+01 1.689972e+02
    endloop
  endfacet
  facet normal 1.012556e-01 -1.456012e-05 -9.948604e-01
    outer loop
      vertex   -4.209141e+01 6.246764e+01 1.689397e+02
      vertex   -4.228644e+01 6.246766e+01 1.689198e+02
      vertex   -4.209085e+01 6.639764e+01 1.689397e+02
    endloop
  endfacet
  facet normal -4.685239e-01 6.737173e-05 -8.834508e-01
    outer loop
      vertex   -4.266937e+01 6.246772e+01 1.689947e+02
      vertex   -4.284256e+01 6.246774e+01 1.690866e+02
      vertex   -4.266880e+01 6.639772e+01 1.689947e+02
    endloop
  endfacet
  facet normal -6.318740e-01 9.086079e-05 -7.750711e-01
    outer loop
      vertex   -4.284256e+01 6.246774e+01 1.690866e+02
      vertex   -4.299450e+01 6.246777e+01 1.692104e+02
      vertex   -4.284199e+01 6.639774e+01 1.690866e+02
    endloop
  endfacet
  facet normal -7.709416e-01 1.108581e-04 -6.369058e-01
    outer loop
      vertex   -4.299450e+01 6.246777e+01 1.692104e+02
      vertex   -4.311935e+01 6.246778e+01 1.693616e+02
      vertex   -4.299393e+01 6.639777e+01 1.692104e+02
    endloop
  endfacet
  facet normal -9.948604e-01 1.430567e-04 -1.012556e-01
    outer loop
      vertex   -4.326984e+01 6.246781e+01 1.697216e+02
      vertex   -4.328969e+01 6.246781e+01 1.699166e+02
      vertex   -4.326927e+01 6.639781e+01 1.697216e+02
    endloop
  endfacet
endsolid
