solid ascii
  facet normal -1.437957e-04 -1.000000e+00 -2.981957e-13
    outer loop
      vertex   -4.158007e+01 9.599756e+01 1.706292e+02
      vertex   -4.190520e+01 9.599761e+01 1.708450e+02
      vertex   -4.145522e+01 9.599755e+01 1.704781e+02
    endloop
  endfacet
  facet normal -1.437957e-04 -1.000000e+00 -4.771718e-13
    outer loop
      vertex   -4.158007e+01 9.599756e+01 1.706292e+02
      vertex   -4.173201e+01 9.599759e+01 1.707531e+02
      vertex   -4.190520e+01 9.599761e+01 1.708450e+02
    endloop
  endfacet
  facet normal -1.437957e-04 -1.000000e+00 -2.897661e-13
    outer loop
      vertex   -4.145522e+01 9.599755e+01 1.704781e+02
      vertex   -4.209298e+01 9.599764e+01 1.709013e+02
      vertex   -4.136224e+01 9.599753e+01 1.703055e+02
    endloop
  endfacet
  facet normal -1.437957e-04 -1.000000e+00 -2.714956e-13
    outer loop
      vertex   -4.145522e+01 9.599755e+01 1.704781e+02
      vertex   -4.190520e+01 9.599761e+01 1.708450e+02
      vertex   -4.209298e+01 9.599764e+01 1.709013e+02
    endloop
  endfacet
  facet normal -1.437957e-04 -1.000000e+00 -2.259358e-13
    outer loop
      vertex   -4.136224e+01 9.599753e+01 1.703055e+02
      vertex   -4.228813e+01 9.599767e+01 1.709198e+02
      vertex   -4.130473e+01 9.599752e+01 1.701181e+02
    endloop
  endfacet
  facet normal -1.437957e-04 -1.000000e+00 -3.461324e-13
    outer loop
      vertex   -4.136224e+01 9.599753e+01 1.703055e+02
      vertex   -4.209298e+01 9.599764e+01 1.709013e+02
      vertex   -4.228813e+01 9.599767e+01 1.709198e+02
    endloop
  endfacet
  facet normal -1.437957e-04 -1.000000e+00 -3.515922e-13
    outer loop
      vertex   -4.130473e+01 9.599752e+01 1.701181e+02
      vertex   -4.248315e+01 9.599769e+01 1.709000e+02
      vertex   -4.128488e+01 9.599752e+01 1.699231e+02
    endloop
  endfacet
  facet normal -1.437957e-04 -1.000000e+00 -3.431606e-13
    outer loop
      vertex   -4.130473e+01 9.599752e+01 1.701181e+02
      vertex   -4.228813e+01 9.599767e+01 1.709198e+02
      vertex   -4.248315e+01 9.599769e+01 1.709000e+02
    endloop
  endfacet
  facet normal -1.437957e-04 -1.000000e+00 -2.670254e-13
    outer loop
      vertex   -4.248315e+01 9.599769e+01 1.709000e+02
      vertex   -4.267056e+01 9.599772e+01 1.708425e+02
      vertex   -4.128488e+01 9.599752e+01 1.699231e+02
    endloop
  endfacet
  facet normal -1.437957e-04 -1.000000e+00 -2.631138e-13
    outer loop
      vertex   -4.128488e+01 9.599752e+01 1.699231e+02
      vertex   -4.267056e+01 9.599772e+01 1.708425e+02
      vertex   -4.130346e+01 9.599752e+01 1.697279e+02
    endloop
  endfacet
  facet normal -1.437957e-04 -1.000000e+00 -3.155365e-13
    outer loop
      vertex   -4.130346e+01 9.599752e+01 1.697279e+02
      vertex   -4.267056e+01 9.599772e+01 1.708425e+02
      vertex   -4.284315e+01 9.599775e+01 1.707495e+02
    endloop
  endfacet
  facet normal -1.437957e-04 -1.000000e+00 -2.318202e-13
    outer loop
      vertex   -4.135975e+01 9.599753e+01 1.695402e+02
      vertex   -4.284315e+01 9.599775e+01 1.707495e+02
      vertex   -4.299428e+01 9.599777e+01 1.706246e+02
    endloop
  endfacet
  facet normal -1.437957e-04 -1.000000e+00 -3.160497e-13
    outer loop
      vertex   -4.145160e+01 9.599754e+01 1.693670e+02
      vertex   -4.299428e+01 9.599777e+01 1.706246e+02
      vertex   -4.311815e+01 9.599778e+01 1.704727e+02
    endloop
  endfacet
  facet normal -1.437957e-04 -1.000000e+00 -3.347795e-13
    outer loop
      vertex   -4.157547e+01 9.599756e+01 1.692150e+02
      vertex   -4.311815e+01 9.599778e+01 1.704727e+02
      vertex   -4.320999e+01 9.599780e+01 1.702995e+02
    endloop
  endfacet
  facet normal -1.437957e-04 -1.000000e+00 -3.016581e-13
    outer loop
      vertex   -4.172660e+01 9.599758e+01 1.690902e+02
      vertex   -4.320999e+01 9.599780e+01 1.702995e+02
      vertex   -4.326629e+01 9.599781e+01 1.701117e+02
    endloop
  endfacet
  facet normal -1.437957e-04 -1.000000e+00 -2.631138e-13
    outer loop
      vertex   -4.189918e+01 9.599761e+01 1.689972e+02
      vertex   -4.326629e+01 9.599781e+01 1.701117e+02
      vertex   -4.328487e+01 9.599781e+01 1.699166e+02
    endloop
  endfacet
  facet normal -1.437957e-04 -1.000000e+00 -3.515922e-13
    outer loop
      vertex   -4.208659e+01 9.599764e+01 1.689397e+02
      vertex   -4.328487e+01 9.599781e+01 1.699166e+02
      vertex   -4.326502e+01 9.599781e+01 1.697216e+02
    endloop
  endfacet
  facet normal -1.437957e-04 -1.000000e+00 -2.259358e-13
    outer loop
      vertex   -4.228162e+01 9.599766e+01 1.689198e+02
      vertex   -4.326502e+01 9.599781e+01 1.697216e+02
      vertex   -4.320750e+01 9.599780e+01 1.695342e+02
    endloop
  endfacet
  facet normal -1.437957e-04 -1.000000e+00 -2.897767e-13
    outer loop
      vertex   -4.247677e+01 9.599769e+01 1.689384e+02
      vertex   -4.320750e+01 9.599780e+01 1.695342e+02
      vertex   -4.311453e+01 9.599778e+01 1.693616e+02
    endloop
  endfacet
  facet normal -1.437957e-04 -1.000000e+00 -2.981809e-13
    outer loop
      vertex   -4.266455e+01 9.599772e+01 1.689947e+02
      vertex   -4.311453e+01 9.599778e+01 1.693616e+02
      vertex   -4.298967e+01 9.599777e+01 1.692104e+02
    endloop
  endfacet
  facet normal -1.437957e-04 -1.000000e+00 -4.771719e-13
    outer loop
      vertex   -4.283773e+01 9.599774e+01 1.690866e+02
      vertex   -4.266455e+01 9.599772e+01 1.689947e+02
      vertex   -4.298967e+01 9.599777e+01 1.692104e+02
    endloop
  endfacet
  facet normal -1.437957e-04 -1.000000e+00 -2.714912e-13
    outer loop
      vertex   -4.266455e+01 9.599772e+01 1.689947e+02
      vertex   -4.247677e+01 9.599769e+01 1.689384e+02
      vertex   -4.311453e+01 9.599778e+01 1.693616e+02
    endloop
  endfacet
  facet normal -1.437957e-04 -1.000000e+00 -3.461324e-13
    outer loop
      vertex   -4.247677e+01 9.599769e+01 1.689384e+02
      vertex   -4.228162e+01 9.599766e+01 1.689198e+02
      vertex   -4.320750e+01 9.599780e+01 1.695342e+02
    endloop
  endfacet
  facet normal -1.437957e-04 -1.000000e+00 -3.431606e-13
    outer loop
      vertex   -4.228162e+01 9.599766e+01 1.689198e+02
      vertex   -4.208659e+01 9.599764e+01 1.689397e+02
      vertex   -4.326502e+01 9.599781e+01 1.697216e+02
    endloop
  endfacet
  facet normal -1.437957e-04 -1.000000e+00 -2.670254e-13
    outer loop
      vertex   -4.208659e+01 9.599764e+01 1.689397e+02
      vertex   -4.189918e+01 9.599761e+01 1.689972e+02
      vertex   -4.328487e+01 9.599781e+01 1.699166e+02
    endloop
  endfacet
  facet normal -1.437957e-04 -1.000000e+00 -3.155365e-13
    outer loop
      vertex   -4.189918e+01 9.599761e+01 1.689972e+02
      vertex   -4.172660e+01 9.599758e+01 1.690902e+02
      vertex   -4.326629e+01 9.599781e+01 1.701117e+02
    endloop
  endfacet
  facet normal -1.437957e-04 -1.000000e+00 -2.318202e-13
    outer loop
      vertex   -4.172660e+01 9.599758e+01 1.690902e+02
      vertex   -4.157547e+01 9.599756e+01 1.692150e+02
      vertex   -4.320999e+01 9.599780e+01 1.702995e+02
    endloop
  endfacet
  facet normal -1.437957e-04 -1.000000e+00 -3.767474e-13
    outer loop
      vertex   -4.157547e+01 9.599756e+01 1.692150e+02
      vertex   -4.145160e+01 9.599754e+01 1.693670e+02
      vertex   -4.311815e+01 9.599778e+01 1.704727e+02
    endloop
  endfacet
  facet normal -1.437957e-04 -1.000000e+00 -2.740818e-13
    outer loop
      vertex   -4.299428e+01 9.599777e+01 1.706246e+02
      vertex   -4.145160e+01 9.599754e+01 1.693670e+02
      vertex   -4.135975e+01 9.599753e+01 1.695402e+02
    endloop
  endfacet
  facet normal -1.437957e-04 -1.000000e+00 -3.016581e-13
    outer loop
      vertex   -4.284315e+01 9.599775e+01 1.707495e+02
      vertex   -4.135975e+01 9.599753e+01 1.695402e+02
      vertex   -4.130346e+01 9.599752e+01 1.697279e+02
    endloop
  endfacet
  facet normal 8.834508e-01 -1.270365e-04 -4.685239e-01
    outer loop
      vertex   -4.145160e+01 9.599754e+01 1.693670e+02
      vertex   -4.145103e+01 9.992754e+01 1.693670e+02
      vertex   -4.135975e+01 9.599753e+01 1.695402e+02
    endloop
  endfacet
  facet normal 8.834508e-01 -1.270365e-04 -4.685239e-01
    outer loop
      vertex   -4.135975e+01 9.599753e+01 1.695402e+02
      vertex   -4.145103e+01 9.992754e+01 1.693670e+02
      vertex   -4.135919e+01 9.992753e+01 1.695402e+02
    endloop
  endfacet
  facet normal 9.578800e-01 -1.377391e-04 -2.871686e-01
    outer loop
      vertex   -4.130289e+01 9.992752e+01 1.697279e+02
      vertex   -4.135975e+01 9.599753e+01 1.695402e+02
      vertex   -4.135919e+01 9.992753e+01 1.695402e+02
    endloop
  endfacet
  facet normal 9.578800e-01 -1.377391e-04 -2.871686e-01
    outer loop
      vertex   -4.130289e+01 9.992752e+01 1.697279e+02
      vertex   -4.130346e+01 9.599752e+01 1.697279e+02
      vertex   -4.135975e+01 9.599753e+01 1.695402e+02
    endloop
  endfacet
  facet normal 9.954985e-01 -1.431484e-04 -9.477764e-02
    outer loop
      vertex   -4.130289e+01 9.992752e+01 1.697279e+02
      vertex   -4.128431e+01 9.992752e+01 1.699231e+02
      vertex   -4.130346e+01 9.599752e+01 1.697279e+02
    endloop
  endfacet
  facet normal 9.954985e-01 -1.431484e-04 -9.477764e-02
    outer loop
      vertex   -4.130346e+01 9.599752e+01 1.697279e+02
      vertex   -4.128431e+01 9.992752e+01 1.699231e+02
      vertex   -4.128488e+01 9.599752e+01 1.699231e+02
    endloop
  endfacet
  facet normal 9.948604e-01 -1.430567e-04 1.012556e-01
    outer loop
      vertex   -4.128488e+01 9.599752e+01 1.699231e+02
      vertex   -4.128431e+01 9.992752e+01 1.699231e+02
      vertex   -4.130416e+01 9.992752e+01 1.701181e+02
    endloop
  endfacet
  facet normal 9.559905e-01 -1.374674e-04 2.933977e-01
    outer loop
      vertex   -4.130473e+01 9.599752e+01 1.701181e+02
      vertex   -4.130416e+01 9.992752e+01 1.701181e+02
      vertex   -4.136168e+01 9.992753e+01 1.703055e+02
    endloop
  endfacet
  facet normal 8.803823e-01 -1.265952e-04 4.742646e-01
    outer loop
      vertex   -4.136224e+01 9.599753e+01 1.703055e+02
      vertex   -4.136168e+01 9.992753e+01 1.703055e+02
      vertex   -4.145522e+01 9.599755e+01 1.704781e+02
    endloop
  endfacet
  facet normal 9.559905e-01 -1.374674e-04 2.933977e-01
    outer loop
      vertex   -4.136224e+01 9.599753e+01 1.703055e+02
      vertex   -4.130473e+01 9.599752e+01 1.701181e+02
      vertex   -4.136168e+01 9.992753e+01 1.703055e+02
    endloop
  endfacet
  facet normal 8.803823e-01 -1.265952e-04 4.742646e-01
    outer loop
      vertex   -4.136168e+01 9.992753e+01 1.703055e+02
      vertex   -4.145465e+01 9.992755e+01 1.704781e+02
      vertex   -4.145522e+01 9.599755e+01 1.704781e+02
    endloop
  endfacet
  facet normal 7.709416e-01 -1.108581e-04 6.369058e-01
    outer loop
      vertex   -4.145522e+01 9.599755e+01 1.704781e+02
      vertex   -4.145465e+01 9.992755e+01 1.704781e+02
      vertex   -4.157951e+01 9.992756e+01 1.706292e+02
    endloop
  endfacet
  facet normal 6.318740e-01 -9.086079e-05 7.750711e-01
    outer loop
      vertex   -4.158007e+01 9.599756e+01 1.706292e+02
      vertex   -4.157951e+01 9.992756e+01 1.706292e+02
      vertex   -4.173145e+01 9.992759e+01 1.707531e+02
    endloop
  endfacet
  facet normal 4.685239e-01 -6.737173e-05 8.834508e-01
    outer loop
      vertex   -4.173201e+01 9.599759e+01 1.707531e+02
      vertex   -4.173145e+01 9.992759e+01 1.707531e+02
      vertex   -4.190463e+01 9.992761e+01 1.708450e+02
    endloop
  endfacet
  facet normal 2.871686e-01 -4.129362e-05 9.578800e-01
    outer loop
      vertex   -4.190520e+01 9.599761e+01 1.708450e+02
      vertex   -4.190463e+01 9.992761e+01 1.708450e+02
      vertex   -4.209241e+01 9.992764e+01 1.709013e+02
    endloop
  endfacet
  facet normal 9.477763e-02 -1.362862e-05 9.954985e-01
    outer loop
      vertex   -4.209298e+01 9.599764e+01 1.709013e+02
      vertex   -4.209241e+01 9.992764e+01 1.709013e+02
      vertex   -4.228813e+01 9.599767e+01 1.709198e+02
    endloop
  endfacet
  facet normal 2.871686e-01 -4.129362e-05 9.578800e-01
    outer loop
      vertex   -4.209298e+01 9.599764e+01 1.709013e+02
      vertex   -4.190520e+01 9.599761e+01 1.708450e+02
      vertex   -4.209241e+01 9.992764e+01 1.709013e+02
    endloop
  endfacet
  facet normal 9.477763e-02 -1.362862e-05 9.954985e-01
    outer loop
      vertex   -4.209241e+01 9.992764e+01 1.709013e+02
      vertex   -4.228756e+01 9.992767e+01 1.709198e+02
      vertex   -4.228813e+01 9.599767e+01 1.709198e+02
    endloop
  endfacet
  facet normal -1.012556e-01 1.456012e-05 9.948604e-01
    outer loop
      vertex   -4.228813e+01 9.599767e+01 1.709198e+02
      vertex   -4.228756e+01 9.992767e+01 1.709198e+02
      vertex   -4.248259e+01 9.992769e+01 1.709000e+02
    endloop
  endfacet
  facet normal -2.933976e-01 4.218933e-05 9.559905e-01
    outer loop
      vertex   -4.248315e+01 9.599769e+01 1.709000e+02
      vertex   -4.248259e+01 9.992769e+01 1.709000e+02
      vertex   -4.267000e+01 9.992772e+01 1.708425e+02
    endloop
  endfacet
  facet normal -4.742646e-01 6.819722e-05 8.803824e-01
    outer loop
      vertex   -4.267056e+01 9.599772e+01 1.708425e+02
      vertex   -4.267000e+01 9.992772e+01 1.708425e+02
      vertex   -4.284258e+01 9.992775e+01 1.707495e+02
    endloop
  endfacet
  facet normal -6.369058e-01 9.158434e-05 7.709416e-01
    outer loop
      vertex   -4.284315e+01 9.599775e+01 1.707495e+02
      vertex   -4.284258e+01 9.992775e+01 1.707495e+02
      vertex   -4.299371e+01 9.992777e+01 1.706246e+02
    endloop
  endfacet
  facet normal -7.750711e-01 1.114519e-04 6.318740e-01
    outer loop
      vertex   -4.299428e+01 9.599777e+01 1.706246e+02
      vertex   -4.299371e+01 9.992777e+01 1.706246e+02
      vertex   -4.311815e+01 9.599778e+01 1.704727e+02
    endloop
  endfacet
  facet normal -6.369058e-01 9.158434e-05 7.709416e-01
    outer loop
      vertex   -4.299428e+01 9.599777e+01 1.706246e+02
      vertex   -4.284315e+01 9.599775e+01 1.707495e+02
      vertex   -4.299371e+01 9.992777e+01 1.706246e+02
    endloop
  endfacet
  facet normal -7.750711e-01 1.114519e-04 6.318740e-01
    outer loop
      vertex   -4.299371e+01 9.992777e+01 1.706246e+02
      vertex   -4.311758e+01 9.992778e+01 1.704727e+02
      vertex   -4.311815e+01 9.599778e+01 1.704727e+02
    endloop
  endfacet
  facet normal -4.742646e-01 6.819722e-05 8.803824e-01
    outer loop
      vertex   -4.284315e+01 9.599775e+01 1.707495e+02
      vertex   -4.267056e+01 9.599772e+01 1.708425e+02
      vertex   -4.284258e+01 9.992775e+01 1.707495e+02
    endloop
  endfacet
  facet normal -2.933976e-01 4.218933e-05 9.559905e-01
    outer loop
      vertex   -4.267056e+01 9.599772e+01 1.708425e+02
      vertex   -4.248315e+01 9.599769e+01 1.709000e+02
      vertex   -4.267000e+01 9.992772e+01 1.708425e+02
    endloop
  endfacet
  facet normal -1.012556e-01 1.456012e-05 9.948604e-01
    outer loop
      vertex   -4.248315e+01 9.599769e+01 1.709000e+02
      vertex   -4.228813e+01 9.599767e+01 1.709198e+02
      vertex   -4.248259e+01 9.992769e+01 1.709000e+02
    endloop
  endfacet
  facet normal 4.685239e-01 -6.737173e-05 8.834508e-01
    outer loop
      vertex   -4.190520e+01 9.599761e+01 1.708450e+02
      vertex   -4.173201e+01 9.599759e+01 1.707531e+02
      vertex   -4.190463e+01 9.992761e+01 1.708450e+02
    endloop
  endfacet
  facet normal 6.318740e-01 -9.086079e-05 7.750711e-01
    outer loop
      vertex   -4.173201e+01 9.599759e+01 1.707531e+02
      vertex   -4.158007e+01 9.599756e+01 1.706292e+02
      vertex   -4.173145e+01 9.992759e+01 1.707531e+02
    endloop
  endfacet
  facet normal 7.709416e-01 -1.108581e-04 6.369058e-01
    outer loop
      vertex   -4.158007e+01 9.599756e+01 1.706292e+02
      vertex   -4.145522e+01 9.599755e+01 1.704781e+02
      vertex   -4.157951e+01 9.992756e+01 1.706292e+02
    endloop
  endfacet
  facet normal 9.948604e-01 -1.430567e-04 1.012556e-01
    outer loop
      vertex   -4.130473e+01 9.599752e+01 1.701181e+02
      vertex   -4.128488e+01 9.599752e+01 1.699231e+02
      vertex   -4.130416e+01 9.992752e+01 1.701181e+02
    endloop
  endfacet
  facet normal 8.954285e-01 -1.287588e-04 4.452054e-01
    outer loop
      vertex   -4.293287e+01 1.011978e+02 1.699602e+02
      vertex   -4.293304e+01 9.999776e+01 1.699602e+02
      vertex   -4.264349e+01 1.011977e+02 1.693782e+02
    endloop
  endfacet
  facet normal 8.954285e-01 -1.287588e-04 4.452054e-01
    outer loop
      vertex   -4.264349e+01 1.011977e+02 1.693782e+02
      vertex   -4.293304e+01 9.999776e+01 1.699602e+02
      vertex   -4.264366e+01 9.999772e+01 1.693782e+02
    endloop
  endfacet
  facet normal 6.151245e-01 -7.177505e-01 -3.262761e-01
    outer loop
      vertex   -4.145103e+01 9.992754e+01 1.693670e+02
      vertex   -4.070096e+01 1.007966e+02 1.688694e+02
      vertex   -4.135919e+01 9.992753e+01 1.695402e+02
    endloop
  endfacet
  facet normal 6.151245e-01 -7.177505e-01 -3.262761e-01
    outer loop
      vertex   -4.135919e+01 9.992753e+01 1.695402e+02
      vertex   -4.070096e+01 1.007966e+02 1.688694e+02
      vertex   -4.052645e+01 1.007965e+02 1.691985e+02
    endloop
  endfacet
  facet normal 6.669563e-01 -7.177580e-01 -1.999818e-01
    outer loop
      vertex   -4.041949e+01 1.007965e+02 1.695552e+02
      vertex   -4.135919e+01 9.992753e+01 1.695402e+02
      vertex   -4.052645e+01 1.007965e+02 1.691985e+02
    endloop
  endfacet
  facet normal 6.669563e-01 -7.177580e-01 -1.999818e-01
    outer loop
      vertex   -4.041949e+01 1.007965e+02 1.695552e+02
      vertex   -4.130289e+01 9.992752e+01 1.697279e+02
      vertex   -4.135919e+01 9.992753e+01 1.695402e+02
    endloop
  endfacet
  facet normal 6.931535e-01 -7.177618e-01 -6.600234e-02
    outer loop
      vertex   -4.041949e+01 1.007965e+02 1.695552e+02
      vertex   -4.038419e+01 1.007965e+02 1.699260e+02
      vertex   -4.130289e+01 9.992752e+01 1.697279e+02
    endloop
  endfacet
  facet normal 6.931535e-01 -7.177618e-01 -6.600234e-02
    outer loop
      vertex   -4.130289e+01 9.992752e+01 1.697279e+02
      vertex   -4.038419e+01 1.007965e+02 1.699260e+02
      vertex   -4.128431e+01 9.992752e+01 1.699231e+02
    endloop
  endfacet
  facet normal 6.927092e-01 -7.177617e-01 7.051355e-02
    outer loop
      vertex   -4.128431e+01 9.992752e+01 1.699231e+02
      vertex   -4.038419e+01 1.007965e+02 1.699260e+02
      vertex   -4.042191e+01 1.007965e+02 1.702966e+02
    endloop
  endfacet
  facet normal 6.656405e-01 -7.177578e-01 2.043196e-01
    outer loop
      vertex   -4.130416e+01 9.992752e+01 1.701181e+02
      vertex   -4.042191e+01 1.007965e+02 1.702966e+02
      vertex   -4.053119e+01 1.007965e+02 1.706526e+02
    endloop
  endfacet
  facet normal 6.129876e-01 -7.177502e-01 3.302738e-01
    outer loop
      vertex   -4.136168e+01 9.992753e+01 1.703055e+02
      vertex   -4.053119e+01 1.007965e+02 1.706526e+02
      vertex   -4.145465e+01 9.992755e+01 1.704781e+02
    endloop
  endfacet
  facet normal 6.656405e-01 -7.177578e-01 2.043196e-01
    outer loop
      vertex   -4.136168e+01 9.992753e+01 1.703055e+02
      vertex   -4.130416e+01 9.992752e+01 1.701181e+02
      vertex   -4.053119e+01 1.007965e+02 1.706526e+02
    endloop
  endfacet
  facet normal 6.129876e-01 -7.177502e-01 3.302738e-01
    outer loop
      vertex   -4.053119e+01 1.007965e+02 1.706526e+02
      vertex   -4.070783e+01 1.007966e+02 1.709806e+02
      vertex   -4.145465e+01 9.992755e+01 1.704781e+02
    endloop
  endfacet
  facet normal 5.367740e-01 -7.177393e-01 4.435358e-01
    outer loop
      vertex   -4.145465e+01 9.992755e+01 1.704781e+02
      vertex   -4.070783e+01 1.007966e+02 1.709806e+02
      vertex   -4.094506e+01 1.007966e+02 1.712677e+02
    endloop
  endfacet
  facet normal 4.399285e-01 -7.177253e-01 5.397529e-01
    outer loop
      vertex   -4.157951e+01 9.992756e+01 1.706292e+02
      vertex   -4.094506e+01 1.007966e+02 1.712677e+02
      vertex   -4.123375e+01 1.007966e+02 1.715031e+02
    endloop
  endfacet
  facet normal 3.261729e-01 -7.177090e-01 6.152277e-01
    outer loop
      vertex   -4.173145e+01 9.992759e+01 1.707531e+02
      vertex   -4.123375e+01 1.007966e+02 1.715031e+02
      vertex   -4.156280e+01 1.007967e+02 1.716776e+02
    endloop
  endfacet
  facet normal 1.998786e-01 -7.176908e-01 6.670595e-01
    outer loop
      vertex   -4.190463e+01 9.992761e+01 1.708450e+02
      vertex   -4.156280e+01 1.007967e+02 1.716776e+02
      vertex   -4.191958e+01 1.007967e+02 1.717845e+02
    endloop
  endfacet
  facet normal 6.589914e-02 -7.176716e-01 6.932567e-01
    outer loop
      vertex   -4.209241e+01 9.992764e+01 1.709013e+02
      vertex   -4.191958e+01 1.007967e+02 1.717845e+02
      vertex   -4.228756e+01 9.992767e+01 1.709198e+02
    endloop
  endfacet
  facet normal 1.998786e-01 -7.176908e-01 6.670595e-01
    outer loop
      vertex   -4.209241e+01 9.992764e+01 1.709013e+02
      vertex   -4.190463e+01 9.992761e+01 1.708450e+02
      vertex   -4.191958e+01 1.007967e+02 1.717845e+02
    endloop
  endfacet
  facet normal 6.589914e-02 -7.176716e-01 6.932567e-01
    outer loop
      vertex   -4.191958e+01 1.007967e+02 1.717845e+02
      vertex   -4.229037e+01 1.007968e+02 1.718198e+02
      vertex   -4.228756e+01 9.992767e+01 1.709198e+02
    endloop
  endfacet
  facet normal -7.061674e-02 -7.176519e-01 6.928124e-01
    outer loop
      vertex   -4.228756e+01 9.992767e+01 1.709198e+02
      vertex   -4.229037e+01 1.007968e+02 1.718198e+02
      vertex   -4.266092e+01 1.007968e+02 1.717821e+02
    endloop
  endfacet
  facet normal -2.044228e-01 -7.176327e-01 6.657437e-01
    outer loop
      vertex   -4.248259e+01 9.992769e+01 1.709000e+02
      vertex   -4.266092e+01 1.007968e+02 1.717821e+02
      vertex   -4.301699e+01 1.007969e+02 1.716728e+02
    endloop
  endfacet
  facet normal -3.303770e-01 -7.176146e-01 6.130908e-01
    outer loop
      vertex   -4.267000e+01 9.992772e+01 1.708425e+02
      vertex   -4.301699e+01 1.007969e+02 1.716728e+02
      vertex   -4.334490e+01 1.007969e+02 1.714962e+02
    endloop
  endfacet
  facet normal -4.436390e-01 -7.175983e-01 5.368772e-01
    outer loop
      vertex   -4.284258e+01 9.992775e+01 1.707495e+02
      vertex   -4.334490e+01 1.007969e+02 1.714962e+02
      vertex   -4.363205e+01 1.007970e+02 1.712590e+02
    endloop
  endfacet
  facet normal -5.398561e-01 -7.175844e-01 4.400317e-01
    outer loop
      vertex   -4.299371e+01 9.992777e+01 1.706246e+02
      vertex   -4.363205e+01 1.007970e+02 1.712590e+02
      vertex   -4.311758e+01 9.992778e+01 1.704727e+02
    endloop
  endfacet
  facet normal -4.436390e-01 -7.175983e-01 5.368772e-01
    outer loop
      vertex   -4.299371e+01 9.992777e+01 1.706246e+02
      vertex   -4.284258e+01 9.992775e+01 1.707495e+02
      vertex   -4.363205e+01 1.007970e+02 1.712590e+02
    endloop
  endfacet
  facet normal -5.398561e-01 -7.175844e-01 4.400317e-01
    outer loop
      vertex   -4.363205e+01 1.007970e+02 1.712590e+02
      vertex   -4.386740e+01 1.007970e+02 1.709703e+02
      vertex   -4.311758e+01 9.992778e+01 1.704727e+02
    endloop
  endfacet
  facet normal -3.303770e-01 -7.176146e-01 6.130908e-01
    outer loop
      vertex   -4.284258e+01 9.992775e+01 1.707495e+02
      vertex   -4.267000e+01 9.992772e+01 1.708425e+02
      vertex   -4.334490e+01 1.007969e+02 1.714962e+02
    endloop
  endfacet
  facet normal -2.044228e-01 -7.176327e-01 6.657437e-01
    outer loop
      vertex   -4.267000e+01 9.992772e+01 1.708425e+02
      vertex   -4.248259e+01 9.992769e+01 1.709000e+02
      vertex   -4.301699e+01 1.007969e+02 1.716728e+02
    endloop
  endfacet
  facet normal -7.061674e-02 -7.176519e-01 6.928124e-01
    outer loop
      vertex   -4.248259e+01 9.992769e+01 1.709000e+02
      vertex   -4.228756e+01 9.992767e+01 1.709198e+02
      vertex   -4.266092e+01 1.007968e+02 1.717821e+02
    endloop
  endfacet
  facet normal 3.261729e-01 -7.177090e-01 6.152277e-01
    outer loop
      vertex   -4.190463e+01 9.992761e+01 1.708450e+02
      vertex   -4.173145e+01 9.992759e+01 1.707531e+02
      vertex   -4.156280e+01 1.007967e+02 1.716776e+02
    endloop
  endfacet
  facet normal 4.399285e-01 -7.177253e-01 5.397529e-01
    outer loop
      vertex   -4.173145e+01 9.992759e+01 1.707531e+02
      vertex   -4.157951e+01 9.992756e+01 1.706292e+02
      vertex   -4.123375e+01 1.007966e+02 1.715031e+02
    endloop
  endfacet
  facet normal 5.367740e-01 -7.177393e-01 4.435358e-01
    outer loop
      vertex   -4.157951e+01 9.992756e+01 1.706292e+02
      vertex   -4.145465e+01 9.992755e+01 1.704781e+02
      vertex   -4.094506e+01 1.007966e+02 1.712677e+02
    endloop
  endfacet
  facet normal 6.927092e-01 -7.177617e-01 7.051355e-02
    outer loop
      vertex   -4.130416e+01 9.992752e+01 1.701181e+02
      vertex   -4.128431e+01 9.992752e+01 1.699231e+02
      vertex   -4.042191e+01 1.007965e+02 1.702966e+02
    endloop
  endfacet
  facet normal 8.332734e-01 -1.198212e-04 -5.528611e-01
    outer loop
      vertex   -4.257351e+01 1.011977e+02 1.705019e+02
      vertex   -4.257368e+01 9.999771e+01 1.705019e+02
      vertex   -4.293287e+01 1.011978e+02 1.699602e+02
    endloop
  endfacet
  facet normal 8.332734e-01 -1.198212e-04 -5.528611e-01
    outer loop
      vertex   -4.293287e+01 1.011978e+02 1.699602e+02
      vertex   -4.257368e+01 9.999771e+01 1.705019e+02
      vertex   -4.293304e+01 9.999776e+01 1.699602e+02
    endloop
  endfacet
  facet normal -7.750711e-01 1.114519e-04 6.318740e-01
    outer loop
      vertex   -4.386734e+01 1.011979e+02 1.709703e+02
      vertex   -4.386740e+01 1.007970e+02 1.709703e+02
      vertex   -4.363199e+01 1.011979e+02 1.712590e+02
    endloop
  endfacet
  facet normal -7.750711e-01 1.114519e-04 6.318740e-01
    outer loop
      vertex   -4.363199e+01 1.011979e+02 1.712590e+02
      vertex   -4.386740e+01 1.007970e+02 1.709703e+02
      vertex   -4.363205e+01 1.007970e+02 1.712590e+02
    endloop
  endfacet
  facet normal -6.369058e-01 9.158434e-05 7.709416e-01
    outer loop
      vertex   -4.334490e+01 1.007969e+02 1.714962e+02
      vertex   -4.363199e+01 1.011979e+02 1.712590e+02
      vertex   -4.363205e+01 1.007970e+02 1.712590e+02
    endloop
  endfacet
  facet normal -6.369058e-01 9.158434e-05 7.709416e-01
    outer loop
      vertex   -4.334490e+01 1.007969e+02 1.714962e+02
      vertex   -4.334484e+01 1.011978e+02 1.714962e+02
      vertex   -4.363199e+01 1.011979e+02 1.712590e+02
    endloop
  endfacet
  facet normal -4.742646e-01 6.819722e-05 8.803824e-01
    outer loop
      vertex   -4.334490e+01 1.007969e+02 1.714962e+02
      vertex   -4.301699e+01 1.007969e+02 1.716728e+02
      vertex   -4.334484e+01 1.011978e+02 1.714962e+02
    endloop
  endfacet
  facet normal -4.742646e-01 6.819722e-05 8.803824e-01
    outer loop
      vertex   -4.334484e+01 1.011978e+02 1.714962e+02
      vertex   -4.301699e+01 1.007969e+02 1.716728e+02
      vertex   -4.301693e+01 1.011978e+02 1.716728e+02
    endloop
  endfacet
  facet normal -2.933976e-01 4.218933e-05 9.559905e-01
    outer loop
      vertex   -4.301693e+01 1.011978e+02 1.716728e+02
      vertex   -4.301699e+01 1.007969e+02 1.716728e+02
      vertex   -4.266092e+01 1.007968e+02 1.717821e+02
    endloop
  endfacet
  facet normal -1.012556e-01 1.456012e-05 9.948604e-01
    outer loop
      vertex   -4.266086e+01 1.011977e+02 1.717821e+02
      vertex   -4.266092e+01 1.007968e+02 1.717821e+02
      vertex   -4.229037e+01 1.007968e+02 1.718198e+02
    endloop
  endfacet
  facet normal 9.477763e-02 -1.362862e-05 9.954985e-01
    outer loop
      vertex   -4.229031e+01 1.011977e+02 1.718198e+02
      vertex   -4.229037e+01 1.007968e+02 1.718198e+02
      vertex   -4.191952e+01 1.011976e+02 1.717845e+02
    endloop
  endfacet
  facet normal -1.012556e-01 1.456012e-05 9.948604e-01
    outer loop
      vertex   -4.229031e+01 1.011977e+02 1.718198e+02
      vertex   -4.266086e+01 1.011977e+02 1.717821e+02
      vertex   -4.229037e+01 1.007968e+02 1.718198e+02
    endloop
  endfacet
  facet normal 9.477763e-02 -1.362862e-05 9.954985e-01
    outer loop
      vertex   -4.229037e+01 1.007968e+02 1.718198e+02
      vertex   -4.191958e+01 1.007967e+02 1.717845e+02
      vertex   -4.191952e+01 1.011976e+02 1.717845e+02
    endloop
  endfacet
  facet normal 2.871686e-01 -4.129362e-05 9.578800e-01
    outer loop
      vertex   -4.191952e+01 1.011976e+02 1.717845e+02
      vertex   -4.191958e+01 1.007967e+02 1.717845e+02
      vertex   -4.156280e+01 1.007967e+02 1.716776e+02
    endloop
  endfacet
  facet normal 4.685239e-01 -6.737173e-05 8.834508e-01
    outer loop
      vertex   -4.156274e+01 1.011976e+02 1.716776e+02
      vertex   -4.156280e+01 1.007967e+02 1.716776e+02
      vertex   -4.123375e+01 1.007966e+02 1.715031e+02
    endloop
  endfacet
  facet normal 6.318740e-01 -9.086079e-05 7.750711e-01
    outer loop
      vertex   -4.123369e+01 1.011975e+02 1.715031e+02
      vertex   -4.123375e+01 1.007966e+02 1.715031e+02
      vertex   -4.094506e+01 1.007966e+02 1.712677e+02
    endloop
  endfacet
  facet normal 7.709416e-01 -1.108581e-04 6.369058e-01
    outer loop
      vertex   -4.094500e+01 1.011975e+02 1.712677e+02
      vertex   -4.094506e+01 1.007966e+02 1.712677e+02
      vertex   -4.070783e+01 1.007966e+02 1.709806e+02
    endloop
  endfacet
  facet normal 8.803823e-01 -1.265952e-04 4.742646e-01
    outer loop
      vertex   -4.070778e+01 1.011974e+02 1.709806e+02
      vertex   -4.070783e+01 1.007966e+02 1.709806e+02
      vertex   -4.053113e+01 1.011974e+02 1.706526e+02
    endloop
  endfacet
  facet normal 7.709416e-01 -1.108581e-04 6.369058e-01
    outer loop
      vertex   -4.070778e+01 1.011974e+02 1.709806e+02
      vertex   -4.094500e+01 1.011975e+02 1.712677e+02
      vertex   -4.070783e+01 1.007966e+02 1.709806e+02
    endloop
  endfacet
  facet normal 8.803823e-01 -1.265952e-04 4.742646e-01
    outer loop
      vertex   -4.070783e+01 1.007966e+02 1.709806e+02
      vertex   -4.053119e+01 1.007965e+02 1.706526e+02
      vertex   -4.053113e+01 1.011974e+02 1.706526e+02
    endloop
  endfacet
  facet normal 9.559905e-01 -1.374674e-04 2.933977e-01
    outer loop
      vertex   -4.053113e+01 1.011974e+02 1.706526e+02
      vertex   -4.053119e+01 1.007965e+02 1.706526e+02
      vertex   -4.042191e+01 1.007965e+02 1.702966e+02
    endloop
  endfacet
  facet normal 9.948604e-01 -1.430567e-04 1.012556e-01
    outer loop
      vertex   -4.042185e+01 1.011974e+02 1.702966e+02
      vertex   -4.042191e+01 1.007965e+02 1.702966e+02
      vertex   -4.038419e+01 1.007965e+02 1.699260e+02
    endloop
  endfacet
  facet normal 9.954985e-01 -1.431484e-04 -9.477764e-02
    outer loop
      vertex   -4.038414e+01 1.011974e+02 1.699260e+02
      vertex   -4.038419e+01 1.007965e+02 1.699260e+02
      vertex   -4.041949e+01 1.007965e+02 1.695552e+02
    endloop
  endfacet
  facet normal 9.578800e-01 -1.377391e-04 -2.871686e-01
    outer loop
      vertex   -4.041944e+01 1.011974e+02 1.695552e+02
      vertex   -4.041949e+01 1.007965e+02 1.695552e+02
      vertex   -4.052645e+01 1.007965e+02 1.691985e+02
    endloop
  endfacet
  facet normal 8.834508e-01 -1.270365e-04 -4.685239e-01
    outer loop
      vertex   -4.052640e+01 1.011974e+02 1.691985e+02
      vertex   -4.052645e+01 1.007965e+02 1.691985e+02
      vertex   -4.070091e+01 1.011974e+02 1.688694e+02
    endloop
  endfacet
  facet normal 9.578800e-01 -1.377391e-04 -2.871686e-01
    outer loop
      vertex   -4.052640e+01 1.011974e+02 1.691985e+02
      vertex   -4.041944e+01 1.011974e+02 1.695552e+02
      vertex   -4.052645e+01 1.007965e+02 1.691985e+02
    endloop
  endfacet
  facet normal 8.834508e-01 -1.270365e-04 -4.685239e-01
    outer loop
      vertex   -4.052645e+01 1.007965e+02 1.691985e+02
      vertex   -4.070096e+01 1.007966e+02 1.688694e+02
      vertex   -4.070091e+01 1.011974e+02 1.688694e+02
    endloop
  endfacet
  facet normal 9.954985e-01 -1.431484e-04 -9.477764e-02
    outer loop
      vertex   -4.041944e+01 1.011974e+02 1.695552e+02
      vertex   -4.038414e+01 1.011974e+02 1.699260e+02
      vertex   -4.041949e+01 1.007965e+02 1.695552e+02
    endloop
  endfacet
  facet normal 9.948604e-01 -1.430567e-04 1.012556e-01
    outer loop
      vertex   -4.038414e+01 1.011974e+02 1.699260e+02
      vertex   -4.042185e+01 1.011974e+02 1.702966e+02
      vertex   -4.038419e+01 1.007965e+02 1.699260e+02
    endloop
  endfacet
  facet normal 9.559905e-01 -1.374674e-04 2.933977e-01
    outer loop
      vertex   -4.042185e+01 1.011974e+02 1.702966e+02
      vertex   -4.053113e+01 1.011974e+02 1.706526e+02
      vertex   -4.042191e+01 1.007965e+02 1.702966e+02
    endloop
  endfacet
  facet normal 6.318740e-01 -9.086079e-05 7.750711e-01
    outer loop
      vertex   -4.094500e+01 1.011975e+02 1.712677e+02
      vertex   -4.123369e+01 1.011975e+02 1.715031e+02
      vertex   -4.094506e+01 1.007966e+02 1.712677e+02
    endloop
  endfacet
  facet normal 4.685239e-01 -6.737173e-05 8.834508e-01
    outer loop
      vertex   -4.123369e+01 1.011975e+02 1.715031e+02
      vertex   -4.156274e+01 1.011976e+02 1.716776e+02
      vertex   -4.123375e+01 1.007966e+02 1.715031e+02
    endloop
  endfacet
  facet normal 2.871686e-01 -4.129362e-05 9.578800e-01
    outer loop
      vertex   -4.156274e+01 1.011976e+02 1.716776e+02
      vertex   -4.191952e+01 1.011976e+02 1.717845e+02
      vertex   -4.156280e+01 1.007967e+02 1.716776e+02
    endloop
  endfacet
  facet normal -2.933976e-01 4.218933e-05 9.559905e-01
    outer loop
      vertex   -4.266086e+01 1.011977e+02 1.717821e+02
      vertex   -4.301693e+01 1.011978e+02 1.716728e+02
      vertex   -4.266092e+01 1.007968e+02 1.717821e+02
    endloop
  endfacet
  facet normal 1.437957e-04 1.000000e+00 2.867430e-13
    outer loop
      vertex   -4.163555e+01 9.999757e+01 1.698794e+02
      vertex   -4.199491e+01 9.999762e+01 1.693378e+02
      vertex   -4.192494e+01 9.999761e+01 1.704615e+02
    endloop
  endfacet
  facet normal 1.437957e-04 1.000000e+00 2.867445e-13
    outer loop
      vertex   -4.192494e+01 9.999761e+01 1.704615e+02
      vertex   -4.199491e+01 9.999762e+01 1.693378e+02
      vertex   -4.264366e+01 9.999772e+01 1.693782e+02
    endloop
  endfacet
  facet normal 1.437957e-04 1.000000e+00 2.867420e-13
    outer loop
      vertex   -4.257368e+01 9.999771e+01 1.705019e+02
      vertex   -4.264366e+01 9.999772e+01 1.693782e+02
      vertex   -4.293304e+01 9.999776e+01 1.699602e+02
    endloop
  endfacet
  facet normal 1.437957e-04 1.000000e+00 2.867435e-13
    outer loop
      vertex   -4.257368e+01 9.999771e+01 1.705019e+02
      vertex   -4.192494e+01 9.999761e+01 1.704615e+02
      vertex   -4.264366e+01 9.999772e+01 1.693782e+02
    endloop
  endfacet
  facet normal 1.437957e-04 1.000000e+00 3.769276e-13
    outer loop
      vertex   -4.363199e+01 1.011979e+02 1.712590e+02
      vertex   -4.257351e+01 1.011977e+02 1.705019e+02
      vertex   -4.386734e+01 1.011979e+02 1.709703e+02
    endloop
  endfacet
  facet normal 1.437957e-04 1.000000e+00 3.319348e-13
    outer loop
      vertex   -4.363199e+01 1.011979e+02 1.712590e+02
      vertex   -4.334484e+01 1.011978e+02 1.714962e+02
      vertex   -4.257351e+01 1.011977e+02 1.705019e+02
    endloop
  endfacet
  facet normal 1.437957e-04 1.000000e+00 3.120551e-13
    outer loop
      vertex   -4.257351e+01 1.011977e+02 1.705019e+02
      vertex   -4.334484e+01 1.011978e+02 1.714962e+02
      vertex   -4.301693e+01 1.011978e+02 1.716728e+02
    endloop
  endfacet
  facet normal 1.437957e-04 1.000000e+00 3.228269e-13
    outer loop
      vertex   -4.266086e+01 1.011977e+02 1.717821e+02
      vertex   -4.257351e+01 1.011977e+02 1.705019e+02
      vertex   -4.301693e+01 1.011978e+02 1.716728e+02
    endloop
  endfacet
  facet normal 1.437957e-04 1.000000e+00 3.228573e-13
    outer loop
      vertex   -4.266086e+01 1.011977e+02 1.717821e+02
      vertex   -4.229031e+01 1.011977e+02 1.718198e+02
      vertex   -4.257351e+01 1.011977e+02 1.705019e+02
    endloop
  endfacet
  facet normal 1.437957e-04 1.000000e+00 3.226495e-13
    outer loop
      vertex   -4.257351e+01 1.011977e+02 1.705019e+02
      vertex   -4.229031e+01 1.011977e+02 1.718198e+02
      vertex   -4.192477e+01 1.011976e+02 1.704615e+02
    endloop
  endfacet
  facet normal 1.437957e-04 1.000000e+00 3.221233e-13
    outer loop
      vertex   -4.192477e+01 1.011976e+02 1.704615e+02
      vertex   -4.229031e+01 1.011977e+02 1.718198e+02
      vertex   -4.191952e+01 1.011976e+02 1.717845e+02
    endloop
  endfacet
  facet normal 1.437957e-04 1.000000e+00 3.220353e-13
    outer loop
      vertex   -4.156274e+01 1.011976e+02 1.716776e+02
      vertex   -4.192477e+01 1.011976e+02 1.704615e+02
      vertex   -4.191952e+01 1.011976e+02 1.717845e+02
    endloop
  endfacet
  facet normal 1.437957e-04 1.000000e+00 3.278600e-13
    outer loop
      vertex   -4.156274e+01 1.011976e+02 1.716776e+02
      vertex   -4.123369e+01 1.011975e+02 1.715031e+02
      vertex   -4.192477e+01 1.011976e+02 1.704615e+02
    endloop
  endfacet
  facet normal 1.437957e-04 1.000000e+00 3.138246e-13
    outer loop
      vertex   -4.192477e+01 1.011976e+02 1.704615e+02
      vertex   -4.123369e+01 1.011975e+02 1.715031e+02
      vertex   -4.094500e+01 1.011975e+02 1.712677e+02
    endloop
  endfacet
  facet normal 1.437957e-04 1.000000e+00 2.921731e-13
    outer loop
      vertex   -4.070778e+01 1.011974e+02 1.709806e+02
      vertex   -4.192477e+01 1.011976e+02 1.704615e+02
      vertex   -4.094500e+01 1.011975e+02 1.712677e+02
    endloop
  endfacet
  facet normal 1.437957e-04 1.000000e+00 3.386391e-13
    outer loop
      vertex   -4.070778e+01 1.011974e+02 1.709806e+02
      vertex   -4.053113e+01 1.011974e+02 1.706526e+02
      vertex   -4.192477e+01 1.011976e+02 1.704615e+02
    endloop
  endfacet
  facet normal 1.437957e-04 1.000000e+00 3.003152e-13
    outer loop
      vertex   -4.192477e+01 1.011976e+02 1.704615e+02
      vertex   -4.053113e+01 1.011974e+02 1.706526e+02
      vertex   -4.163538e+01 1.011976e+02 1.698794e+02
    endloop
  endfacet
  facet normal 1.437957e-04 1.000000e+00 3.352350e-13
    outer loop
      vertex   -4.163538e+01 1.011976e+02 1.698794e+02
      vertex   -4.053113e+01 1.011974e+02 1.706526e+02
      vertex   -4.042185e+01 1.011974e+02 1.702966e+02
    endloop
  endfacet
  facet normal 1.437957e-04 1.000000e+00 2.948291e-13
    outer loop
      vertex   -4.038414e+01 1.011974e+02 1.699260e+02
      vertex   -4.163538e+01 1.011976e+02 1.698794e+02
      vertex   -4.042185e+01 1.011974e+02 1.702966e+02
    endloop
  endfacet
  facet normal 1.437957e-04 1.000000e+00 2.552087e-13
    outer loop
      vertex   -4.038414e+01 1.011974e+02 1.699260e+02
      vertex   -4.041944e+01 1.011974e+02 1.695552e+02
      vertex   -4.163538e+01 1.011976e+02 1.698794e+02
    endloop
  endfacet
  facet normal 1.437957e-04 1.000000e+00 3.030251e-13
    outer loop
      vertex   -4.163538e+01 1.011976e+02 1.698794e+02
      vertex   -4.041944e+01 1.011974e+02 1.695552e+02
      vertex   -4.052640e+01 1.011974e+02 1.691985e+02
    endloop
  endfacet
  facet normal 1.437957e-04 1.000000e+00 2.738563e-13
    outer loop
      vertex   -4.070091e+01 1.011974e+02 1.688694e+02
      vertex   -4.163538e+01 1.011976e+02 1.698794e+02
      vertex   -4.052640e+01 1.011974e+02 1.691985e+02
    endloop
  endfacet
  facet normal 1.437957e-04 1.000000e+00 2.763195e-13
    outer loop
      vertex   -4.070091e+01 1.011974e+02 1.688694e+02
      vertex   -4.199474e+01 1.011976e+02 1.693378e+02
      vertex   -4.163538e+01 1.011976e+02 1.698794e+02
    endloop
  endfacet
  facet normal 1.437957e-04 1.000000e+00 2.870832e-13
    outer loop
      vertex   -4.070091e+01 1.011974e+02 1.688694e+02
      vertex   -4.093626e+01 1.011975e+02 1.685807e+02
      vertex   -4.199474e+01 1.011976e+02 1.693378e+02
    endloop
  endfacet
  facet normal 1.437957e-04 1.000000e+00 2.970934e-13
    outer loop
      vertex   -4.199474e+01 1.011976e+02 1.693378e+02
      vertex   -4.093626e+01 1.011975e+02 1.685807e+02
      vertex   -4.122341e+01 1.011975e+02 1.683435e+02
    endloop
  endfacet
  facet normal 1.437957e-04 1.000000e+00 2.717347e-13
    outer loop
      vertex   -4.155132e+01 1.011976e+02 1.681668e+02
      vertex   -4.199474e+01 1.011976e+02 1.693378e+02
      vertex   -4.122341e+01 1.011975e+02 1.683435e+02
    endloop
  endfacet
  facet normal 1.437957e-04 1.000000e+00 2.793357e-13
    outer loop
      vertex   -4.155132e+01 1.011976e+02 1.681668e+02
      vertex   -4.190739e+01 1.011976e+02 1.680576e+02
      vertex   -4.199474e+01 1.011976e+02 1.693378e+02
    endloop
  endfacet
  facet normal 1.437957e-04 1.000000e+00 2.787615e-13
    outer loop
      vertex   -4.199474e+01 1.011976e+02 1.693378e+02
      vertex   -4.190739e+01 1.011976e+02 1.680576e+02
      vertex   -4.227794e+01 1.011977e+02 1.680198e+02
    endloop
  endfacet
  facet normal 1.437957e-04 1.000000e+00 2.791759e-13
    outer loop
      vertex   -4.264349e+01 1.011977e+02 1.693782e+02
      vertex   -4.227794e+01 1.011977e+02 1.680198e+02
      vertex   -4.264873e+01 1.011977e+02 1.680552e+02
    endloop
  endfacet
  facet normal 1.437957e-04 1.000000e+00 2.791227e-13
    outer loop
      vertex   -4.300551e+01 1.011978e+02 1.681621e+02
      vertex   -4.264349e+01 1.011977e+02 1.693782e+02
      vertex   -4.264873e+01 1.011977e+02 1.680552e+02
    endloop
  endfacet
  facet normal 1.437957e-04 1.000000e+00 2.874910e-13
    outer loop
      vertex   -4.300551e+01 1.011978e+02 1.681621e+02
      vertex   -4.333456e+01 1.011978e+02 1.683366e+02
      vertex   -4.264349e+01 1.011977e+02 1.693782e+02
    endloop
  endfacet
  facet normal 1.437957e-04 1.000000e+00 2.784079e-13
    outer loop
      vertex   -4.264349e+01 1.011977e+02 1.693782e+02
      vertex   -4.333456e+01 1.011978e+02 1.683366e+02
      vertex   -4.362325e+01 1.011979e+02 1.685720e+02
    endloop
  endfacet
  facet normal 1.437957e-04 1.000000e+00 2.636401e-13
    outer loop
      vertex   -4.386047e+01 1.011979e+02 1.688591e+02
      vertex   -4.264349e+01 1.011977e+02 1.693782e+02
      vertex   -4.362325e+01 1.011979e+02 1.685720e+02
    endloop
  endfacet
  facet normal 1.437957e-04 1.000000e+00 3.181786e-13
    outer loop
      vertex   -4.386047e+01 1.011979e+02 1.688591e+02
      vertex   -4.403712e+01 1.011979e+02 1.691870e+02
      vertex   -4.264349e+01 1.011977e+02 1.693782e+02
    endloop
  endfacet
  facet normal 1.437957e-04 1.000000e+00 2.813305e-13
    outer loop
      vertex   -4.264349e+01 1.011977e+02 1.693782e+02
      vertex   -4.403712e+01 1.011979e+02 1.691870e+02
      vertex   -4.293287e+01 1.011978e+02 1.699602e+02
    endloop
  endfacet
  facet normal 1.437957e-04 1.000000e+00 3.222310e-13
    outer loop
      vertex   -4.293287e+01 1.011978e+02 1.699602e+02
      vertex   -4.403712e+01 1.011979e+02 1.691870e+02
      vertex   -4.414640e+01 1.011979e+02 1.695431e+02
    endloop
  endfacet
  facet normal 1.437957e-04 1.000000e+00 2.902228e-13
    outer loop
      vertex   -4.418412e+01 1.011979e+02 1.699137e+02
      vertex   -4.293287e+01 1.011978e+02 1.699602e+02
      vertex   -4.414640e+01 1.011979e+02 1.695431e+02
    endloop
  endfacet
  facet normal 1.437957e-04 1.000000e+00 2.595493e-13
    outer loop
      vertex   -4.418412e+01 1.011979e+02 1.699137e+02
      vertex   -4.414881e+01 1.011979e+02 1.702844e+02
      vertex   -4.293287e+01 1.011978e+02 1.699602e+02
    endloop
  endfacet
  facet normal 1.437957e-04 1.000000e+00 3.160027e-13
    outer loop
      vertex   -4.293287e+01 1.011978e+02 1.699602e+02
      vertex   -4.414881e+01 1.011979e+02 1.702844e+02
      vertex   -4.404185e+01 1.011979e+02 1.706412e+02
    endloop
  endfacet
  facet normal 1.437957e-04 1.000000e+00 2.292064e-13
    outer loop
      vertex   -4.386734e+01 1.011979e+02 1.709703e+02
      vertex   -4.293287e+01 1.011978e+02 1.699602e+02
      vertex   -4.404185e+01 1.011979e+02 1.706412e+02
    endloop
  endfacet
  facet normal 1.437957e-04 1.000000e+00 2.880692e-13
    outer loop
      vertex   -4.386734e+01 1.011979e+02 1.709703e+02
      vertex   -4.257351e+01 1.011977e+02 1.705019e+02
      vertex   -4.293287e+01 1.011978e+02 1.699602e+02
    endloop
  endfacet
  facet normal 1.437957e-04 1.000000e+00 2.800884e-13
    outer loop
      vertex   -4.264349e+01 1.011977e+02 1.693782e+02
      vertex   -4.199474e+01 1.011976e+02 1.693378e+02
      vertex   -4.227794e+01 1.011977e+02 1.680198e+02
    endloop
  endfacet
  facet normal -6.215509e-02 8.937637e-06 -9.980665e-01
    outer loop
      vertex   -4.192477e+01 1.011976e+02 1.704615e+02
      vertex   -4.192494e+01 9.999761e+01 1.704615e+02
      vertex   -4.257351e+01 1.011977e+02 1.705019e+02
    endloop
  endfacet
  facet normal -6.215509e-02 8.937637e-06 -9.980665e-01
    outer loop
      vertex   -4.257351e+01 1.011977e+02 1.705019e+02
      vertex   -4.192494e+01 9.999761e+01 1.704615e+02
      vertex   -4.257368e+01 9.999771e+01 1.705019e+02
    endloop
  endfacet
  facet normal -8.954285e-01 1.287588e-04 -4.452054e-01
    outer loop
      vertex   -4.163555e+01 9.999757e+01 1.698794e+02
      vertex   -4.192494e+01 9.999761e+01 1.704615e+02
      vertex   -4.163538e+01 1.011976e+02 1.698794e+02
    endloop
  endfacet
  facet normal -8.954285e-01 1.287588e-04 -4.452054e-01
    outer loop
      vertex   -4.163538e+01 1.011976e+02 1.698794e+02
      vertex   -4.192494e+01 9.999761e+01 1.704615e+02
      vertex   -4.192477e+01 1.011976e+02 1.704615e+02
    endloop
  endfacet
  facet normal -8.332734e-01 1.198212e-04 5.528611e-01
    outer loop
      vertex   -4.199491e+01 9.999762e+01 1.693378e+02
      vertex   -4.163555e+01 9.999757e+01 1.698794e+02
      vertex   -4.199474e+01 1.011976e+02 1.693378e+02
    endloop
  endfacet
  facet normal -8.332734e-01 1.198212e-04 5.528611e-01
    outer loop
      vertex   -4.199474e+01 1.011976e+02 1.693378e+02
      vertex   -4.163555e+01 9.999757e+01 1.698794e+02
      vertex   -4.163538e+01 1.011976e+02 1.698794e+02
    endloop
  endfacet
  facet normal 6.215509e-02 -8.937637e-06 9.980665e-01
    outer loop
      vertex   -4.264349e+01 1.011977e+02 1.693782e+02
      vertex   -4.264366e+01 9.999772e+01 1.693782e+02
      vertex   -4.199474e+01 1.011976e+02 1.693378e+02
    endloop
  endfacet
  facet normal 6.215509e-02 -8.937637e-06 9.980665e-01
    outer loop
      vertex   -4.199474e+01 1.011976e+02 1.693378e+02
      vertex   -4.264366e+01 9.999772e+01 1.693782e+02
      vertex   -4.199491e+01 9.999762e+01 1.693378e+02
    endloop
  endfacet
  facet normal -6.153309e-01 -7.175736e-01 3.262761e-01
    outer loop
      vertex   -4.311758e+01 9.992778e+01 1.704727e+02
      vertex   -4.386740e+01 1.007970e+02 1.709703e+02
      vertex   -4.320943e+01 9.992780e+01 1.702995e+02
    endloop
  endfacet
  facet normal -6.153309e-01 -7.175736e-01 3.262761e-01
    outer loop
      vertex   -4.320943e+01 9.992780e+01 1.702995e+02
      vertex   -4.386740e+01 1.007970e+02 1.709703e+02
      vertex   -4.404191e+01 1.007970e+02 1.706412e+02
    endloop
  endfacet
  facet normal -6.671627e-01 -7.175661e-01 1.999818e-01
    outer loop
      vertex   -4.414887e+01 1.007971e+02 1.702844e+02
      vertex   -4.320943e+01 9.992780e+01 1.702995e+02
      vertex   -4.404191e+01 1.007970e+02 1.706412e+02
    endloop
  endfacet
  facet normal -6.671627e-01 -7.175661e-01 1.999818e-01
    outer loop
      vertex   -4.414887e+01 1.007971e+02 1.702844e+02
      vertex   -4.326572e+01 9.992781e+01 1.701117e+02
      vertex   -4.320943e+01 9.992780e+01 1.702995e+02
    endloop
  endfacet
  facet normal -6.933599e-01 -7.175624e-01 6.600234e-02
    outer loop
      vertex   -4.414887e+01 1.007971e+02 1.702844e+02
      vertex   -4.418417e+01 1.007971e+02 1.699137e+02
      vertex   -4.326572e+01 9.992781e+01 1.701117e+02
    endloop
  endfacet
  facet normal -6.933599e-01 -7.175624e-01 6.600234e-02
    outer loop
      vertex   -4.326572e+01 9.992781e+01 1.701117e+02
      vertex   -4.418417e+01 1.007971e+02 1.699137e+02
      vertex   -4.328430e+01 9.992781e+01 1.699166e+02
    endloop
  endfacet
  facet normal -6.929156e-01 -7.175624e-01 -7.051355e-02
    outer loop
      vertex   -4.328430e+01 9.992781e+01 1.699166e+02
      vertex   -4.418417e+01 1.007971e+02 1.699137e+02
      vertex   -4.414646e+01 1.007971e+02 1.695431e+02
    endloop
  endfacet
  facet normal -6.658469e-01 -7.175663e-01 -2.043196e-01
    outer loop
      vertex   -4.326445e+01 9.992781e+01 1.697216e+02
      vertex   -4.414646e+01 1.007971e+02 1.695431e+02
      vertex   -4.403718e+01 1.007970e+02 1.691870e+02
    endloop
  endfacet
  facet normal -6.131940e-01 -7.175739e-01 -3.302738e-01
    outer loop
      vertex   -4.320694e+01 9.992780e+01 1.695342e+02
      vertex   -4.403718e+01 1.007970e+02 1.691870e+02
      vertex   -4.311397e+01 9.992778e+01 1.693616e+02
    endloop
  endfacet
  facet normal -6.658469e-01 -7.175663e-01 -2.043196e-01
    outer loop
      vertex   -4.320694e+01 9.992780e+01 1.695342e+02
      vertex   -4.326445e+01 9.992781e+01 1.697216e+02
      vertex   -4.403718e+01 1.007970e+02 1.691870e+02
    endloop
  endfacet
  facet normal -6.131940e-01 -7.175739e-01 -3.302738e-01
    outer loop
      vertex   -4.403718e+01 1.007970e+02 1.691870e+02
      vertex   -4.386053e+01 1.007970e+02 1.688591e+02
      vertex   -4.311397e+01 9.992778e+01 1.693616e+02
    endloop
  endfacet
  facet normal -5.369804e-01 -7.175849e-01 -4.435358e-01
    outer loop
      vertex   -4.311397e+01 9.992778e+01 1.693616e+02
      vertex   -4.386053e+01 1.007970e+02 1.688591e+02
      vertex   -4.362331e+01 1.007970e+02 1.685720e+02
    endloop
  endfacet
  facet normal -4.401349e-01 -7.175988e-01 -5.397529e-01
    outer loop
      vertex   -4.298911e+01 9.992777e+01 1.692104e+02
      vertex   -4.362331e+01 1.007970e+02 1.685720e+02
      vertex   -4.333462e+01 1.007969e+02 1.683366e+02
    endloop
  endfacet
  facet normal -3.263793e-01 -7.176151e-01 -6.152277e-01
    outer loop
      vertex   -4.283717e+01 9.992774e+01 1.690866e+02
      vertex   -4.333462e+01 1.007969e+02 1.683366e+02
      vertex   -4.300556e+01 1.007969e+02 1.681621e+02
    endloop
  endfacet
  facet normal -2.000850e-01 -7.176333e-01 -6.670595e-01
    outer loop
      vertex   -4.266398e+01 9.992772e+01 1.689947e+02
      vertex   -4.300556e+01 1.007969e+02 1.681621e+02
      vertex   -4.264879e+01 1.007968e+02 1.680552e+02
    endloop
  endfacet
  facet normal -6.610554e-02 -7.176526e-01 -6.932567e-01
    outer loop
      vertex   -4.247621e+01 9.992769e+01 1.689384e+02
      vertex   -4.264879e+01 1.007968e+02 1.680552e+02
      vertex   -4.228105e+01 9.992766e+01 1.689198e+02
    endloop
  endfacet
  facet normal -2.000850e-01 -7.176333e-01 -6.670595e-01
    outer loop
      vertex   -4.247621e+01 9.992769e+01 1.689384e+02
      vertex   -4.266398e+01 9.992772e+01 1.689947e+02
      vertex   -4.264879e+01 1.007968e+02 1.680552e+02
    endloop
  endfacet
  facet normal -6.610554e-02 -7.176526e-01 -6.932567e-01
    outer loop
      vertex   -4.264879e+01 1.007968e+02 1.680552e+02
      vertex   -4.227800e+01 1.007968e+02 1.680198e+02
      vertex   -4.228105e+01 9.992766e+01 1.689198e+02
    endloop
  endfacet
  facet normal 7.041035e-02 -7.176722e-01 -6.928124e-01
    outer loop
      vertex   -4.228105e+01 9.992766e+01 1.689198e+02
      vertex   -4.227800e+01 1.007968e+02 1.680198e+02
      vertex   -4.190745e+01 1.007967e+02 1.680576e+02
    endloop
  endfacet
  facet normal 2.042164e-01 -7.176914e-01 -6.657437e-01
    outer loop
      vertex   -4.208603e+01 9.992764e+01 1.689397e+02
      vertex   -4.190745e+01 1.007967e+02 1.680576e+02
      vertex   -4.155138e+01 1.007967e+02 1.681668e+02
    endloop
  endfacet
  facet normal 3.301706e-01 -7.177096e-01 -6.130908e-01
    outer loop
      vertex   -4.189862e+01 9.992761e+01 1.689972e+02
      vertex   -4.155138e+01 1.007967e+02 1.681668e+02
      vertex   -4.122346e+01 1.007966e+02 1.683435e+02
    endloop
  endfacet
  facet normal 4.434326e-01 -7.177258e-01 -5.368772e-01
    outer loop
      vertex   -4.172603e+01 9.992758e+01 1.690902e+02
      vertex   -4.122346e+01 1.007966e+02 1.683435e+02
      vertex   -4.093631e+01 1.007966e+02 1.685807e+02
    endloop
  endfacet
  facet normal 5.396497e-01 -7.177397e-01 -4.400317e-01
    outer loop
      vertex   -4.157490e+01 9.992756e+01 1.692150e+02
      vertex   -4.093631e+01 1.007966e+02 1.685807e+02
      vertex   -4.145103e+01 9.992754e+01 1.693670e+02
    endloop
  endfacet
  facet normal 4.434326e-01 -7.177258e-01 -5.368772e-01
    outer loop
      vertex   -4.157490e+01 9.992756e+01 1.692150e+02
      vertex   -4.172603e+01 9.992758e+01 1.690902e+02
      vertex   -4.093631e+01 1.007966e+02 1.685807e+02
    endloop
  endfacet
  facet normal 5.396497e-01 -7.177397e-01 -4.400317e-01
    outer loop
      vertex   -4.093631e+01 1.007966e+02 1.685807e+02
      vertex   -4.070096e+01 1.007966e+02 1.688694e+02
      vertex   -4.145103e+01 9.992754e+01 1.693670e+02
    endloop
  endfacet
  facet normal 3.301706e-01 -7.177096e-01 -6.130908e-01
    outer loop
      vertex   -4.172603e+01 9.992758e+01 1.690902e+02
      vertex   -4.189862e+01 9.992761e+01 1.689972e+02
      vertex   -4.122346e+01 1.007966e+02 1.683435e+02
    endloop
  endfacet
  facet normal 2.042164e-01 -7.176914e-01 -6.657437e-01
    outer loop
      vertex   -4.189862e+01 9.992761e+01 1.689972e+02
      vertex   -4.208603e+01 9.992764e+01 1.689397e+02
      vertex   -4.155138e+01 1.007967e+02 1.681668e+02
    endloop
  endfacet
  facet normal 7.041035e-02 -7.176722e-01 -6.928124e-01
    outer loop
      vertex   -4.208603e+01 9.992764e+01 1.689397e+02
      vertex   -4.228105e+01 9.992766e+01 1.689198e+02
      vertex   -4.190745e+01 1.007967e+02 1.680576e+02
    endloop
  endfacet
  facet normal -3.263793e-01 -7.176151e-01 -6.152277e-01
    outer loop
      vertex   -4.266398e+01 9.992772e+01 1.689947e+02
      vertex   -4.283717e+01 9.992774e+01 1.690866e+02
      vertex   -4.300556e+01 1.007969e+02 1.681621e+02
    endloop
  endfacet
  facet normal -4.401349e-01 -7.175988e-01 -5.397529e-01
    outer loop
      vertex   -4.283717e+01 9.992774e+01 1.690866e+02
      vertex   -4.298911e+01 9.992777e+01 1.692104e+02
      vertex   -4.333462e+01 1.007969e+02 1.683366e+02
    endloop
  endfacet
  facet normal -5.369804e-01 -7.175849e-01 -4.435358e-01
    outer loop
      vertex   -4.298911e+01 9.992777e+01 1.692104e+02
      vertex   -4.311397e+01 9.992778e+01 1.693616e+02
      vertex   -4.362331e+01 1.007970e+02 1.685720e+02
    endloop
  endfacet
  facet normal -6.929156e-01 -7.175624e-01 -7.051355e-02
    outer loop
      vertex   -4.326445e+01 9.992781e+01 1.697216e+02
      vertex   -4.328430e+01 9.992781e+01 1.699166e+02
      vertex   -4.414646e+01 1.007971e+02 1.695431e+02
    endloop
  endfacet
  facet normal 7.750711e-01 -1.114519e-04 -6.318740e-01
    outer loop
      vertex   -4.070091e+01 1.011974e+02 1.688694e+02
      vertex   -4.070096e+01 1.007966e+02 1.688694e+02
      vertex   -4.093626e+01 1.011975e+02 1.685807e+02
    endloop
  endfacet
  facet normal 7.750711e-01 -1.114519e-04 -6.318740e-01
    outer loop
      vertex   -4.093626e+01 1.011975e+02 1.685807e+02
      vertex   -4.070096e+01 1.007966e+02 1.688694e+02
      vertex   -4.093631e+01 1.007966e+02 1.685807e+02
    endloop
  endfacet
  facet normal 6.369058e-01 -9.158434e-05 -7.709416e-01
    outer loop
      vertex   -4.122346e+01 1.007966e+02 1.683435e+02
      vertex   -4.093626e+01 1.011975e+02 1.685807e+02
      vertex   -4.093631e+01 1.007966e+02 1.685807e+02
    endloop
  endfacet
  facet normal 6.369058e-01 -9.158434e-05 -7.709416e-01
    outer loop
      vertex   -4.122346e+01 1.007966e+02 1.683435e+02
      vertex   -4.122341e+01 1.011975e+02 1.683435e+02
      vertex   -4.093626e+01 1.011975e+02 1.685807e+02
    endloop
  endfacet
  facet normal 4.742646e-01 -6.819722e-05 -8.803824e-01
    outer loop
      vertex   -4.122346e+01 1.007966e+02 1.683435e+02
      vertex   -4.155138e+01 1.007967e+02 1.681668e+02
      vertex   -4.122341e+01 1.011975e+02 1.683435e+02
    endloop
  endfacet
  facet normal 4.742646e-01 -6.819722e-05 -8.803824e-01
    outer loop
      vertex   -4.122341e+01 1.011975e+02 1.683435e+02
      vertex   -4.155138e+01 1.007967e+02 1.681668e+02
      vertex   -4.155132e+01 1.011976e+02 1.681668e+02
    endloop
  endfacet
  facet normal 2.933976e-01 -4.218933e-05 -9.559905e-01
    outer loop
      vertex   -4.155132e+01 1.011976e+02 1.681668e+02
      vertex   -4.155138e+01 1.007967e+02 1.681668e+02
      vertex   -4.190745e+01 1.007967e+02 1.680576e+02
    endloop
  endfacet
  facet normal 1.012556e-01 -1.456012e-05 -9.948604e-01
    outer loop
      vertex   -4.190739e+01 1.011976e+02 1.680576e+02
      vertex   -4.190745e+01 1.007967e+02 1.680576e+02
      vertex   -4.227800e+01 1.007968e+02 1.680198e+02
    endloop
  endfacet
  facet normal -9.477763e-02 1.362862e-05 -9.954985e-01
    outer loop
      vertex   -4.227794e+01 1.011977e+02 1.680198e+02
      vertex   -4.227800e+01 1.007968e+02 1.680198e+02
      vertex   -4.264873e+01 1.011977e+02 1.680552e+02
    endloop
  endfacet
  facet normal 1.012556e-01 -1.456012e-05 -9.948604e-01
    outer loop
      vertex   -4.227794e+01 1.011977e+02 1.680198e+02
      vertex   -4.190739e+01 1.011976e+02 1.680576e+02
      vertex   -4.227800e+01 1.007968e+02 1.680198e+02
    endloop
  endfacet
  facet normal -9.477763e-02 1.362862e-05 -9.954985e-01
    outer loop
      vertex   -4.227800e+01 1.007968e+02 1.680198e+02
      vertex   -4.264879e+01 1.007968e+02 1.680552e+02
      vertex   -4.264873e+01 1.011977e+02 1.680552e+02
    endloop
  endfacet
  facet normal -2.871686e-01 4.129362e-05 -9.578800e-01
    outer loop
      vertex   -4.264873e+01 1.011977e+02 1.680552e+02
      vertex   -4.264879e+01 1.007968e+02 1.680552e+02
      vertex   -4.300556e+01 1.007969e+02 1.681621e+02
    endloop
  endfacet
  facet normal -4.685239e-01 6.737173e-05 -8.834508e-01
    outer loop
      vertex   -4.300551e+01 1.011978e+02 1.681621e+02
      vertex   -4.300556e+01 1.007969e+02 1.681621e+02
      vertex   -4.333462e+01 1.007969e+02 1.683366e+02
    endloop
  endfacet
  facet normal -6.318740e-01 9.086079e-05 -7.750711e-01
    outer loop
      vertex   -4.333456e+01 1.011978e+02 1.683366e+02
      vertex   -4.333462e+01 1.007969e+02 1.683366e+02
      vertex   -4.362331e+01 1.007970e+02 1.685720e+02
    endloop
  endfacet
  facet normal -7.709416e-01 1.108581e-04 -6.369058e-01
    outer loop
      vertex   -4.362325e+01 1.011979e+02 1.685720e+02
      vertex   -4.362331e+01 1.007970e+02 1.685720e+02
      vertex   -4.386053e+01 1.007970e+02 1.688591e+02
    endloop
  endfacet
  facet normal -8.803823e-01 1.265952e-04 -4.742646e-01
    outer loop
      vertex   -4.386047e+01 1.011979e+02 1.688591e+02
      vertex   -4.386053e+01 1.007970e+02 1.688591e+02
      vertex   -4.403712e+01 1.011979e+02 1.691870e+02
    endloop
  endfacet
  facet normal -7.709416e-01 1.108581e-04 -6.369058e-01
    outer loop
      vertex   -4.386047e+01 1.011979e+02 1.688591e+02
      vertex   -4.362325e+01 1.011979e+02 1.685720e+02
      vertex   -4.386053e+01 1.007970e+02 1.688591e+02
    endloop
  endfacet
  facet normal -8.803823e-01 1.265952e-04 -4.742646e-01
    outer loop
      vertex   -4.386053e+01 1.007970e+02 1.688591e+02
      vertex   -4.403718e+01 1.007970e+02 1.691870e+02
      vertex   -4.403712e+01 1.011979e+02 1.691870e+02
    endloop
  endfacet
  facet normal -9.559905e-01 1.374674e-04 -2.933977e-01
    outer loop
      vertex   -4.403712e+01 1.011979e+02 1.691870e+02
      vertex   -4.403718e+01 1.007970e+02 1.691870e+02
      vertex   -4.414646e+01 1.007971e+02 1.695431e+02
    endloop
  endfacet
  facet normal -9.948604e-01 1.430567e-04 -1.012556e-01
    outer loop
      vertex   -4.414640e+01 1.011979e+02 1.695431e+02
      vertex   -4.414646e+01 1.007971e+02 1.695431e+02
      vertex   -4.418417e+01 1.007971e+02 1.699137e+02
    endloop
  endfacet
  facet normal -9.954985e-01 1.431484e-04 9.477764e-02
    outer loop
      vertex   -4.418412e+01 1.011979e+02 1.699137e+02
      vertex   -4.418417e+01 1.007971e+02 1.699137e+02
      vertex   -4.414887e+01 1.007971e+02 1.702844e+02
    endloop
  endfacet
  facet normal -9.578800e-01 1.377391e-04 2.871686e-01
    outer loop
      vertex   -4.414881e+01 1.011979e+02 1.702844e+02
      vertex   -4.414887e+01 1.007971e+02 1.702844e+02
      vertex   -4.404191e+01 1.007970e+02 1.706412e+02
    endloop
  endfacet
  facet normal -8.834508e-01 1.270365e-04 4.685239e-01
    outer loop
      vertex   -4.404185e+01 1.011979e+02 1.706412e+02
      vertex   -4.404191e+01 1.007970e+02 1.706412e+02
      vertex   -4.386734e+01 1.011979e+02 1.709703e+02
    endloop
  endfacet
  facet normal -9.578800e-01 1.377391e-04 2.871686e-01
    outer loop
      vertex   -4.404185e+01 1.011979e+02 1.706412e+02
      vertex   -4.414881e+01 1.011979e+02 1.702844e+02
      vertex   -4.404191e+01 1.007970e+02 1.706412e+02
    endloop
  endfacet
  facet normal -8.834508e-01 1.270365e-04 4.685239e-01
    outer loop
      vertex   -4.404191e+01 1.007970e+02 1.706412e+02
      vertex   -4.386740e+01 1.007970e+02 1.709703e+02
      vertex   -4.386734e+01 1.011979e+02 1.709703e+02
    endloop
  endfacet
  facet normal -9.954985e-01 1.431484e-04 9.477764e-02
    outer loop
      vertex   -4.414881e+01 1.011979e+02 1.702844e+02
      vertex   -4.418412e+01 1.011979e+02 1.699137e+02
      vertex   -4.414887e+01 1.007971e+02 1.702844e+02
    endloop
  endfacet
  facet normal -9.948604e-01 1.430567e-04 -1.012556e-01
    outer loop
      vertex   -4.418412e+01 1.011979e+02 1.699137e+02
      vertex   -4.414640e+01 1.011979e+02 1.695431e+02
      vertex   -4.418417e+01 1.007971e+02 1.699137e+02
    endloop
  endfacet
  facet normal -9.559905e-01 1.374674e-04 -2.933977e-01
    outer loop
      vertex   -4.414640e+01 1.011979e+02 1.695431e+02
      vertex   -4.403712e+01 1.011979e+02 1.691870e+02
      vertex   -4.414646e+01 1.007971e+02 1.695431e+02
    endloop
  endfacet
  facet normal -6.318740e-01 9.086079e-05 -7.750711e-01
    outer loop
      vertex   -4.362325e+01 1.011979e+02 1.685720e+02
      vertex   -4.333456e+01 1.011978e+02 1.683366e+02
      vertex   -4.362331e+01 1.007970e+02 1.685720e+02
    endloop
  endfacet
  facet normal -4.685239e-01 6.737173e-05 -8.834508e-01
    outer loop
      vertex   -4.333456e+01 1.011978e+02 1.683366e+02
      vertex   -4.300551e+01 1.011978e+02 1.681621e+02
      vertex   -4.333462e+01 1.007969e+02 1.683366e+02
    endloop
  endfacet
  facet normal -2.871686e-01 4.129362e-05 -9.578800e-01
    outer loop
      vertex   -4.300551e+01 1.011978e+02 1.681621e+02
      vertex   -4.264873e+01 1.011977e+02 1.680552e+02
      vertex   -4.300556e+01 1.007969e+02 1.681621e+02
    endloop
  endfacet
  facet normal 2.933976e-01 -4.218933e-05 -9.559905e-01
    outer loop
      vertex   -4.190739e+01 1.011976e+02 1.680576e+02
      vertex   -4.155132e+01 1.011976e+02 1.681668e+02
      vertex   -4.190745e+01 1.007967e+02 1.680576e+02
    endloop
  endfacet
  facet normal 7.750711e-01 -1.114519e-04 -6.318740e-01
    outer loop
      vertex   -4.145103e+01 9.992754e+01 1.693670e+02
      vertex   -4.145160e+01 9.599754e+01 1.693670e+02
      vertex   -4.157490e+01 9.992756e+01 1.692150e+02
    endloop
  endfacet
  facet normal 7.750711e-01 -1.114519e-04 -6.318740e-01
    outer loop
      vertex   -4.157490e+01 9.992756e+01 1.692150e+02
      vertex   -4.145160e+01 9.599754e+01 1.693670e+02
      vertex   -4.157547e+01 9.599756e+01 1.692150e+02
    endloop
  endfacet
  facet normal 6.369058e-01 -9.158434e-05 -7.709416e-01
    outer loop
      vertex   -4.172660e+01 9.599758e+01 1.690902e+02
      vertex   -4.157490e+01 9.992756e+01 1.692150e+02
      vertex   -4.157547e+01 9.599756e+01 1.692150e+02
    endloop
  endfacet
  facet normal 6.369058e-01 -9.158434e-05 -7.709416e-01
    outer loop
      vertex   -4.172660e+01 9.599758e+01 1.690902e+02
      vertex   -4.172603e+01 9.992758e+01 1.690902e+02
      vertex   -4.157490e+01 9.992756e+01 1.692150e+02
    endloop
  endfacet
  facet normal 4.742646e-01 -6.819722e-05 -8.803824e-01
    outer loop
      vertex   -4.172660e+01 9.599758e+01 1.690902e+02
      vertex   -4.189918e+01 9.599761e+01 1.689972e+02
      vertex   -4.172603e+01 9.992758e+01 1.690902e+02
    endloop
  endfacet
  facet normal 4.742646e-01 -6.819722e-05 -8.803824e-01
    outer loop
      vertex   -4.172603e+01 9.992758e+01 1.690902e+02
      vertex   -4.189918e+01 9.599761e+01 1.689972e+02
      vertex   -4.189862e+01 9.992761e+01 1.689972e+02
    endloop
  endfacet
  facet normal 2.933976e-01 -4.218933e-05 -9.559905e-01
    outer loop
      vertex   -4.189862e+01 9.992761e+01 1.689972e+02
      vertex   -4.189918e+01 9.599761e+01 1.689972e+02
      vertex   -4.208659e+01 9.599764e+01 1.689397e+02
    endloop
  endfacet
  facet normal 1.012556e-01 -1.456012e-05 -9.948604e-01
    outer loop
      vertex   -4.208603e+01 9.992764e+01 1.689397e+02
      vertex   -4.208659e+01 9.599764e+01 1.689397e+02
      vertex   -4.228162e+01 9.599766e+01 1.689198e+02
    endloop
  endfacet
  facet normal -9.477763e-02 1.362862e-05 -9.954985e-01
    outer loop
      vertex   -4.228105e+01 9.992766e+01 1.689198e+02
      vertex   -4.228162e+01 9.599766e+01 1.689198e+02
      vertex   -4.247621e+01 9.992769e+01 1.689384e+02
    endloop
  endfacet
  facet normal 1.012556e-01 -1.456012e-05 -9.948604e-01
    outer loop
      vertex   -4.228105e+01 9.992766e+01 1.689198e+02
      vertex   -4.208603e+01 9.992764e+01 1.689397e+02
      vertex   -4.228162e+01 9.599766e+01 1.689198e+02
    endloop
  endfacet
  facet normal -9.477763e-02 1.362862e-05 -9.954985e-01
    outer loop
      vertex   -4.228162e+01 9.599766e+01 1.689198e+02
      vertex   -4.247677e+01 9.599769e+01 1.689384e+02
      vertex   -4.247621e+01 9.992769e+01 1.689384e+02
    endloop
  endfacet
  facet normal -2.871686e-01 4.129362e-05 -9.578800e-01
    outer loop
      vertex   -4.247621e+01 9.992769e+01 1.689384e+02
      vertex   -4.247677e+01 9.599769e+01 1.689384e+02
      vertex   -4.266455e+01 9.599772e+01 1.689947e+02
    endloop
  endfacet
  facet normal -4.685239e-01 6.737173e-05 -8.834508e-01
    outer loop
      vertex   -4.266398e+01 9.992772e+01 1.689947e+02
      vertex   -4.266455e+01 9.599772e+01 1.689947e+02
      vertex   -4.283773e+01 9.599774e+01 1.690866e+02
    endloop
  endfacet
  facet normal -6.318740e-01 9.086079e-05 -7.750711e-01
    outer loop
      vertex   -4.283717e+01 9.992774e+01 1.690866e+02
      vertex   -4.283773e+01 9.599774e+01 1.690866e+02
      vertex   -4.298967e+01 9.599777e+01 1.692104e+02
    endloop
  endfacet
  facet normal -7.709416e-01 1.108581e-04 -6.369058e-01
    outer loop
      vertex   -4.298911e+01 9.992777e+01 1.692104e+02
      vertex   -4.298967e+01 9.599777e+01 1.692104e+02
      vertex   -4.311453e+01 9.599778e+01 1.693616e+02
    endloop
  endfacet
  facet normal -8.803823e-01 1.265952e-04 -4.742646e-01
    outer loop
      vertex   -4.311397e+01 9.992778e+01 1.693616e+02
      vertex   -4.311453e+01 9.599778e+01 1.693616e+02
      vertex   -4.320694e+01 9.992780e+01 1.695342e+02
    endloop
  endfacet
  facet normal -7.709416e-01 1.108581e-04 -6.369058e-01
    outer loop
      vertex   -4.311397e+01 9.992778e+01 1.693616e+02
      vertex   -4.298911e+01 9.992777e+01 1.692104e+02
      vertex   -4.311453e+01 9.599778e+01 1.693616e+02
    endloop
  endfacet
  facet normal -8.803823e-01 1.265952e-04 -4.742646e-01
    outer loop
      vertex   -4.311453e+01 9.599778e+01 1.693616e+02
      vertex   -4.320750e+01 9.599780e+01 1.695342e+02
      vertex   -4.320694e+01 9.992780e+01 1.695342e+02
    endloop
  endfacet
  facet normal -9.559905e-01 1.374674e-04 -2.933977e-01
    outer loop
      vertex   -4.320694e+01 9.992780e+01 1.695342e+02
      vertex   -4.320750e+01 9.599780e+01 1.695342e+02
      vertex   -4.326502e+01 9.599781e+01 1.697216e+02
    endloop
  endfacet
  facet normal -9.948604e-01 1.430567e-04 -1.012556e-01
    outer loop
      vertex   -4.326445e+01 9.992781e+01 1.697216e+02
      vertex   -4.326502e+01 9.599781e+01 1.697216e+02
      vertex   -4.328487e+01 9.599781e+01 1.699166e+02
    endloop
  endfacet
  facet normal -9.954985e-01 1.431484e-04 9.477764e-02
    outer loop
      vertex   -4.328430e+01 9.992781e+01 1.699166e+02
      vertex   -4.328487e+01 9.599781e+01 1.699166e+02
      vertex   -4.326629e+01 9.599781e+01 1.701117e+02
    endloop
  endfacet
  facet normal -9.578800e-01 1.377391e-04 2.871686e-01
    outer loop
      vertex   -4.326572e+01 9.992781e+01 1.701117e+02
      vertex   -4.326629e+01 9.599781e+01 1.701117e+02
      vertex   -4.320999e+01 9.599780e+01 1.702995e+02
    endloop
  endfacet
  facet normal -8.834508e-01 1.270365e-04 4.685239e-01
    outer loop
      vertex   -4.320943e+01 9.992780e+01 1.702995e+02
      vertex   -4.320999e+01 9.599780e+01 1.702995e+02
      vertex   -4.311758e+01 9.992778e+01 1.704727e+02
    endloop
  endfacet
  facet normal -9.578800e-01 1.377391e-04 2.871686e-01
    outer loop
      vertex   -4.320943e+01 9.992780e+01 1.702995e+02
      vertex   -4.326572e+01 9.992781e+01 1.701117e+02
      vertex   -4.320999e+01 9.599780e+01 1.702995e+02
    endloop
  endfacet
  facet normal -8.834508e-01 1.270365e-04 4.685239e-01
    outer loop
      vertex   -4.320999e+01 9.599780e+01 1.702995e+02
      vertex   -4.311815e+01 9.599778e+01 1.704727e+02
      vertex   -4.311758e+01 9.992778e+01 1.704727e+02
    endloop
  endfacet
  facet normal -9.954985e-01 1.431484e-04 9.477764e-02
    outer loop
      vertex   -4.326572e+01 9.992781e+01 1.701117e+02
      vertex   -4.328430e+01 9.992781e+01 1.699166e+02
      vertex   -4.326629e+01 9.599781e+01 1.701117e+02
    endloop
  endfacet
  facet normal -9.948604e-01 1.430567e-04 -1.012556e-01
    outer loop
      vertex   -4.328430e+01 9.992781e+01 1.699166e+02
      vertex   -4.326445e+01 9.992781e+01 1.697216e+02
      vertex   -4.328487e+01 9.599781e+01 1.699166e+02
    endloop
  endfacet
  facet normal -9.559905e-01 1.374674e-04 -2.933977e-01
    outer loop
      vertex   -4.326445e+01 9.992781e+01 1.697216e+02
      vertex   -4.320694e+01 9.992780e+01 1.695342e+02
      vertex   -4.326502e+01 9.599781e+01 1.697216e+02
    endloop
  endfacet
  facet normal -6.318740e-01 9.086079e-05 -7.750711e-01
    outer loop
      vertex   -4.298911e+01 9.992777e+01 1.692104e+02
      vertex   -4.283717e+01 9.992774e+01 1.690866e+02
      vertex   -4.298967e+01 9.599777e+01 1.692104e+02
    endloop
  endfacet
  facet normal -4.685239e-01 6.737173e-05 -8.834508e-01
    outer loop
      vertex   -4.283717e+01 9.992774e+01 1.690866e+02
      vertex   -4.266398e+01 9.992772e+01 1.689947e+02
      vertex   -4.283773e+01 9.599774e+01 1.690866e+02
    endloop
  endfacet
  facet normal -2.871686e-01 4.129362e-05 -9.578800e-01
    outer loop
      vertex   -4.266398e+01 9.992772e+01 1.689947e+02
      vertex   -4.247621e+01 9.992769e+01 1.689384e+02
      vertex   -4.266455e+01 9.599772e+01 1.689947e+02
    endloop
  endfacet
  facet normal 2.933976e-01 -4.218933e-05 -9.559905e-01
    outer loop
      vertex   -4.208603e+01 9.992764e+01 1.689397e+02
      vertex   -4.189862e+01 9.992761e+01 1.689972e+02
      vertex   -4.208659e+01 9.599764e+01 1.689397e+02
    endloop
  endfacet
endsolid
