solid ascii
  facet normal 1.437957e-04 1.000000e+00 2.936311e-13
    outer loop
      vertex   -3.445647e+01 5.719654e+01 1.502650e+02
      vertex   -1.138879e+01 5.719322e+01 1.446078e+02
      vertex   -3.453833e+01 5.719655e+01 1.485987e+02
    endloop
  endfacet
  facet normal 1.437957e-04 1.000000e+00 2.960777e-13
    outer loop
      vertex   -3.445647e+01 5.719654e+01 1.502650e+02
      vertex   -3.421168e+01 5.719650e+01 1.519153e+02
      vertex   -1.138879e+01 5.719322e+01 1.446078e+02
    endloop
  endfacet
  facet normal 1.437957e-04 1.000000e+00 2.989370e-13
    outer loop
      vertex   -1.138879e+01 5.719322e+01 1.446078e+02
      vertex   -3.421168e+01 5.719650e+01 1.519153e+02
      vertex   -3.380631e+01 5.719645e+01 1.535336e+02
    endloop
  endfacet
  facet normal 1.437957e-04 1.000000e+00 2.954054e-13
    outer loop
      vertex   -3.324428e+01 5.719636e+01 1.551043e+02
      vertex   -1.138879e+01 5.719322e+01 1.446078e+02
      vertex   -3.380631e+01 5.719645e+01 1.535336e+02
    endloop
  endfacet
  facet normal 1.437957e-04 1.000000e+00 2.955353e-13
    outer loop
      vertex   -3.324428e+01 5.719636e+01 1.551043e+02
      vertex   -3.253099e+01 5.719626e+01 1.566125e+02
      vertex   -1.138879e+01 5.719322e+01 1.446078e+02
    endloop
  endfacet
  facet normal 1.437957e-04 1.000000e+00 2.901986e-13
    outer loop
      vertex   -1.138879e+01 5.719322e+01 1.446078e+02
      vertex   -3.253099e+01 5.719626e+01 1.566125e+02
      vertex   -1.090363e+01 5.719315e+01 1.455155e+02
    endloop
  endfacet
  facet normal 1.437957e-04 1.000000e+00 2.931741e-13
    outer loop
      vertex   -1.090363e+01 5.719315e+01 1.455155e+02
      vertex   -3.253099e+01 5.719626e+01 1.566125e+02
      vertex   -3.167331e+01 5.719614e+01 1.580434e+02
    endloop
  endfacet
  facet normal 1.437957e-04 1.000000e+00 2.969472e-13
    outer loop
      vertex   -3.067951e+01 5.719600e+01 1.593834e+02
      vertex   -1.090363e+01 5.719315e+01 1.455155e+02
      vertex   -3.167331e+01 5.719614e+01 1.580434e+02
    endloop
  endfacet
  facet normal 1.437957e-04 1.000000e+00 2.998700e-13
    outer loop
      vertex   -3.067951e+01 5.719600e+01 1.593834e+02
      vertex   -2.955914e+01 5.719583e+01 1.606195e+02
      vertex   -1.090363e+01 5.719315e+01 1.455155e+02
    endloop
  endfacet
  facet normal 1.437957e-04 1.000000e+00 2.925831e-13
    outer loop
      vertex   -1.090363e+01 5.719315e+01 1.455155e+02
      vertex   -2.955914e+01 5.719583e+01 1.606195e+02
      vertex   -2.832301e+01 5.719566e+01 1.617399e+02
    endloop
  endfacet
  facet normal 1.437957e-04 1.000000e+00 2.978719e-13
    outer loop
      vertex   -2.698302e+01 5.719546e+01 1.627337e+02
      vertex   -1.090363e+01 5.719315e+01 1.455155e+02
      vertex   -2.832301e+01 5.719566e+01 1.617399e+02
    endloop
  endfacet
  facet normal 1.437957e-04 1.000000e+00 2.972753e-13
    outer loop
      vertex   -2.698302e+01 5.719546e+01 1.627337e+02
      vertex   -2.555207e+01 5.719526e+01 1.635914e+02
      vertex   -1.090363e+01 5.719315e+01 1.455155e+02
    endloop
  endfacet
  facet normal 1.437957e-04 1.000000e+00 2.935721e-13
    outer loop
      vertex   -1.090363e+01 5.719315e+01 1.455155e+02
      vertex   -2.555207e+01 5.719526e+01 1.635914e+02
      vertex   -2.404395e+01 5.719504e+01 1.643047e+02
    endloop
  endfacet
  facet normal 1.437957e-04 1.000000e+00 2.987494e-13
    outer loop
      vertex   -1.025071e+01 5.719306e+01 1.463111e+02
      vertex   -2.404395e+01 5.719504e+01 1.643047e+02
      vertex   -2.247317e+01 5.719482e+01 1.648667e+02
    endloop
  endfacet
  facet normal 1.437957e-04 1.000000e+00 2.968445e-13
    outer loop
      vertex   -2.085486e+01 5.719458e+01 1.652721e+02
      vertex   -1.025071e+01 5.719306e+01 1.463111e+02
      vertex   -2.247317e+01 5.719482e+01 1.648667e+02
    endloop
  endfacet
  facet normal 1.437957e-04 1.000000e+00 2.949138e-13
    outer loop
      vertex   -2.085486e+01 5.719458e+01 1.652721e+02
      vertex   -1.920462e+01 5.719435e+01 1.655169e+02
      vertex   -1.025071e+01 5.719306e+01 1.463111e+02
    endloop
  endfacet
  facet normal 1.437957e-04 1.000000e+00 2.955201e-13
    outer loop
      vertex   -1.025071e+01 5.719306e+01 1.463111e+02
      vertex   -1.920462e+01 5.719435e+01 1.655169e+02
      vertex   -1.753833e+01 5.719411e+01 1.655987e+02
    endloop
  endfacet
  facet normal 1.437957e-04 1.000000e+00 2.950038e-13
    outer loop
      vertex   -9.455127e+00 5.719294e+01 1.469640e+02
      vertex   -1.753833e+01 5.719411e+01 1.655987e+02
      vertex   -8.547454e+00 5.719281e+01 1.474492e+02
    endloop
  endfacet
  facet normal 1.437957e-04 1.000000e+00 2.965430e-13
    outer loop
      vertex   -9.455127e+00 5.719294e+01 1.469640e+02
      vertex   -1.025071e+01 5.719306e+01 1.463111e+02
      vertex   -1.753833e+01 5.719411e+01 1.655987e+02
    endloop
  endfacet
  facet normal 1.437957e-04 1.000000e+00 2.930389e-13
    outer loop
      vertex   -4.529203e+00 5.719224e+01 1.474492e+02
      vertex   -5.514085e+00 5.719238e+01 1.477479e+02
      vertex   4.461671e+00 5.719094e+01 1.655987e+02
    endloop
  endfacet
  facet normal 1.437957e-04 1.000000e+00 2.942398e-13
    outer loop
      vertex   -3.621530e+00 5.719210e+01 1.469640e+02
      vertex   4.461671e+00 5.719094e+01 1.655987e+02
      vertex   -2.825949e+00 5.719199e+01 1.463111e+02
    endloop
  endfacet
  facet normal 1.437957e-04 1.000000e+00 2.957384e-13
    outer loop
      vertex   -3.621530e+00 5.719210e+01 1.469640e+02
      vertex   -4.529203e+00 5.719224e+01 1.474492e+02
      vertex   4.461671e+00 5.719094e+01 1.655987e+02
    endloop
  endfacet
  facet normal 1.437957e-04 1.000000e+00 2.964953e-13
    outer loop
      vertex   4.461671e+00 5.719094e+01 1.655987e+02
      vertex   6.127963e+00 5.719070e+01 1.655169e+02
      vertex   -2.825949e+00 5.719199e+01 1.463111e+02
    endloop
  endfacet
  facet normal 1.437957e-04 1.000000e+00 2.979061e-13
    outer loop
      vertex   -2.825949e+00 5.719199e+01 1.463111e+02
      vertex   6.127963e+00 5.719070e+01 1.655169e+02
      vertex   7.778207e+00 5.719047e+01 1.652721e+02
    endloop
  endfacet
  facet normal 1.437957e-04 1.000000e+00 2.929949e-13
    outer loop
      vertex   9.396511e+00 5.719023e+01 1.648667e+02
      vertex   -2.825949e+00 5.719199e+01 1.463111e+02
      vertex   7.778207e+00 5.719047e+01 1.652721e+02
    endloop
  endfacet
  facet normal 1.437957e-04 1.000000e+00 2.958579e-13
    outer loop
      vertex   9.396511e+00 5.719023e+01 1.648667e+02
      vertex   1.096729e+01 5.719001e+01 1.643047e+02
      vertex   -2.825949e+00 5.719199e+01 1.463111e+02
    endloop
  endfacet
  facet normal 1.437957e-04 1.000000e+00 3.014627e-13
    outer loop
      vertex   -2.825949e+00 5.719199e+01 1.463111e+02
      vertex   1.096729e+01 5.719001e+01 1.643047e+02
      vertex   -2.173032e+00 5.719190e+01 1.455155e+02
    endloop
  endfacet
  facet normal 1.437957e-04 1.000000e+00 2.973239e-13
    outer loop
      vertex   -2.173032e+00 5.719190e+01 1.455155e+02
      vertex   1.096729e+01 5.719001e+01 1.643047e+02
      vertex   1.247542e+01 5.718979e+01 1.635914e+02
    endloop
  endfacet
  facet normal 1.437957e-04 1.000000e+00 2.935617e-13
    outer loop
      vertex   1.390637e+01 5.718958e+01 1.627337e+02
      vertex   -2.173032e+00 5.719190e+01 1.455155e+02
      vertex   1.247542e+01 5.718979e+01 1.635914e+02
    endloop
  endfacet
  facet normal 1.437957e-04 1.000000e+00 2.978300e-13
    outer loop
      vertex   1.390637e+01 5.718958e+01 1.627337e+02
      vertex   1.524636e+01 5.718939e+01 1.617399e+02
      vertex   -2.173032e+00 5.719190e+01 1.455155e+02
    endloop
  endfacet
  facet normal 1.437957e-04 1.000000e+00 2.951270e-13
    outer loop
      vertex   -2.173032e+00 5.719190e+01 1.455155e+02
      vertex   1.524636e+01 5.718939e+01 1.617399e+02
      vertex   1.648249e+01 5.718921e+01 1.606195e+02
    endloop
  endfacet
  facet normal 1.437957e-04 1.000000e+00 2.956796e-13
    outer loop
      vertex   1.760285e+01 5.718905e+01 1.593834e+02
      vertex   -2.173032e+00 5.719190e+01 1.455155e+02
      vertex   1.648249e+01 5.718921e+01 1.606195e+02
    endloop
  endfacet
  facet normal 1.437957e-04 1.000000e+00 2.963068e-13
    outer loop
      vertex   1.760285e+01 5.718905e+01 1.593834e+02
      vertex   1.859665e+01 5.718891e+01 1.580434e+02
      vertex   -2.173032e+00 5.719190e+01 1.455155e+02
    endloop
  endfacet
  facet normal 1.437957e-04 1.000000e+00 2.943375e-13
    outer loop
      vertex   -2.173032e+00 5.719190e+01 1.455155e+02
      vertex   1.859665e+01 5.718891e+01 1.580434e+02
      vertex   1.945433e+01 5.718879e+01 1.566125e+02
    endloop
  endfacet
  facet normal 1.437957e-04 1.000000e+00 2.976943e-13
    outer loop
      vertex   -1.687870e+00 5.719183e+01 1.446078e+02
      vertex   1.945433e+01 5.718879e+01 1.566125e+02
      vertex   2.016762e+01 5.718868e+01 1.551043e+02
    endloop
  endfacet
  facet normal 1.437957e-04 1.000000e+00 2.931614e-13
    outer loop
      vertex   2.072966e+01 5.718860e+01 1.535336e+02
      vertex   -1.687870e+00 5.719183e+01 1.446078e+02
      vertex   2.016762e+01 5.718868e+01 1.551043e+02
    endloop
  endfacet
  facet normal 1.437957e-04 1.000000e+00 2.977652e-13
    outer loop
      vertex   2.072966e+01 5.718860e+01 1.535336e+02
      vertex   2.113502e+01 5.718854e+01 1.519153e+02
      vertex   -1.687870e+00 5.719183e+01 1.446078e+02
    endloop
  endfacet
  facet normal 1.437957e-04 1.000000e+00 2.980126e-13
    outer loop
      vertex   -1.687870e+00 5.719183e+01 1.446078e+02
      vertex   2.113502e+01 5.718854e+01 1.519153e+02
      vertex   2.137981e+01 5.718851e+01 1.502650e+02
    endloop
  endfacet
  facet normal 1.437957e-04 1.000000e+00 2.949225e-13
    outer loop
      vertex   2.146167e+01 5.718850e+01 1.485987e+02
      vertex   -1.687870e+00 5.719183e+01 1.446078e+02
      vertex   2.137981e+01 5.718851e+01 1.502650e+02
    endloop
  endfacet
  facet normal 1.437957e-04 1.000000e+00 2.956556e-13
    outer loop
      vertex   2.146167e+01 5.718850e+01 1.485987e+02
      vertex   -1.389110e+00 5.719178e+01 1.436230e+02
      vertex   -1.687870e+00 5.719183e+01 1.446078e+02
    endloop
  endfacet
  facet normal 1.437957e-04 1.000000e+00 2.991122e-13
    outer loop
      vertex   2.146167e+01 5.718850e+01 1.485987e+02
      vertex   -1.288230e+00 5.719177e+01 1.425987e+02
      vertex   -1.389110e+00 5.719178e+01 1.436230e+02
    endloop
  endfacet
  facet normal 1.437957e-04 1.000000e+00 2.975351e-13
    outer loop
      vertex   2.146167e+01 5.718850e+01 1.485987e+02
      vertex   -1.389110e+00 5.719178e+01 1.415745e+02
      vertex   -1.288230e+00 5.719177e+01 1.425987e+02
    endloop
  endfacet
  facet normal 1.437957e-04 1.000000e+00 2.959747e-13
    outer loop
      vertex   2.146167e+01 5.718850e+01 1.485987e+02
      vertex   -1.687870e+00 5.719183e+01 1.405896e+02
      vertex   -1.389110e+00 5.719178e+01 1.415745e+02
    endloop
  endfacet
  facet normal 1.437957e-04 1.000000e+00 2.869067e-13
    outer loop
      vertex   2.146167e+01 5.718850e+01 1.485987e+02
      vertex   -2.173032e+00 5.719190e+01 1.396819e+02
      vertex   -1.687870e+00 5.719183e+01 1.405896e+02
    endloop
  endfacet
  facet normal 1.437957e-04 1.000000e+00 3.014579e-13
    outer loop
      vertex   2.146167e+01 5.718850e+01 1.485987e+02
      vertex   -2.825949e+00 5.719199e+01 1.388863e+02
      vertex   -2.173032e+00 5.719190e+01 1.396819e+02
    endloop
  endfacet
  facet normal 1.437957e-04 1.000000e+00 2.960482e-13
    outer loop
      vertex   2.146167e+01 5.718850e+01 1.485987e+02
      vertex   2.146167e+01 5.718850e+01 6.059873e+01
      vertex   -2.825949e+00 5.719199e+01 1.388863e+02
    endloop
  endfacet
  facet normal 1.437957e-04 1.000000e+00 2.965832e-13
    outer loop
      vertex   -2.825949e+00 5.719199e+01 1.388863e+02
      vertex   2.146167e+01 5.718850e+01 6.059873e+01
      vertex   -3.621530e+00 5.719210e+01 1.382334e+02
    endloop
  endfacet
  facet normal 1.437957e-04 1.000000e+00 2.953823e-13
    outer loop
      vertex   -3.621530e+00 5.719210e+01 1.382334e+02
      vertex   2.146167e+01 5.718850e+01 6.059873e+01
      vertex   -4.529203e+00 5.719224e+01 1.377483e+02
    endloop
  endfacet
  facet normal 1.437957e-04 1.000000e+00 2.962730e-13
    outer loop
      vertex   -4.529203e+00 5.719224e+01 1.377483e+02
      vertex   2.146167e+01 5.718850e+01 6.059873e+01
      vertex   -5.514085e+00 5.719238e+01 1.374495e+02
    endloop
  endfacet
  facet normal 1.437957e-04 1.000000e+00 2.971854e-13
    outer loop
      vertex   -5.514085e+00 5.719238e+01 1.374495e+02
      vertex   2.146167e+01 5.718850e+01 6.059873e+01
      vertex   -6.538329e+00 5.719252e+01 1.373486e+02
    endloop
  endfacet
  facet normal 1.437957e-04 1.000000e+00 2.960639e-13
    outer loop
      vertex   -6.538329e+00 5.719252e+01 1.373486e+02
      vertex   2.146167e+01 5.718850e+01 6.059873e+01
      vertex   -3.453833e+01 5.719655e+01 6.059873e+01
    endloop
  endfacet
  facet normal 1.437957e-04 1.000000e+00 2.939428e-13
    outer loop
      vertex   -7.562572e+00 5.719267e+01 1.374495e+02
      vertex   -3.453833e+01 5.719655e+01 6.059873e+01
      vertex   -8.547454e+00 5.719281e+01 1.377483e+02
    endloop
  endfacet
  facet normal 1.437957e-04 1.000000e+00 2.988378e-13
    outer loop
      vertex   -7.562572e+00 5.719267e+01 1.374495e+02
      vertex   -6.538329e+00 5.719252e+01 1.373486e+02
      vertex   -3.453833e+01 5.719655e+01 6.059873e+01
    endloop
  endfacet
  facet normal 1.437957e-04 1.000000e+00 2.896384e-13
    outer loop
      vertex   -1.138879e+01 5.719322e+01 1.405896e+02
      vertex   -1.090363e+01 5.719315e+01 1.396819e+02
      vertex   -3.453833e+01 5.719655e+01 1.485987e+02
    endloop
  endfacet
  facet normal 1.437957e-04 1.000000e+00 2.921512e-13
    outer loop
      vertex   -1.168755e+01 5.719326e+01 1.415745e+02
      vertex   -3.453833e+01 5.719655e+01 1.485987e+02
      vertex   -1.178843e+01 5.719328e+01 1.425987e+02
    endloop
  endfacet
  facet normal 1.437957e-04 1.000000e+00 2.956811e-13
    outer loop
      vertex   -1.168755e+01 5.719326e+01 1.415745e+02
      vertex   -1.138879e+01 5.719322e+01 1.405896e+02
      vertex   -3.453833e+01 5.719655e+01 1.485987e+02
    endloop
  endfacet
  facet normal 1.437957e-04 1.000000e+00 3.134968e-13
    outer loop
      vertex   -1.090363e+01 5.719315e+01 1.396819e+02
      vertex   -1.025071e+01 5.719306e+01 1.388863e+02
      vertex   -3.453833e+01 5.719655e+01 1.485987e+02
    endloop
  endfacet
  facet normal 1.437957e-04 1.000000e+00 2.960482e-13
    outer loop
      vertex   -3.453833e+01 5.719655e+01 1.485987e+02
      vertex   -1.025071e+01 5.719306e+01 1.388863e+02
      vertex   -3.453833e+01 5.719655e+01 6.059873e+01
    endloop
  endfacet
  facet normal 1.437957e-04 1.000000e+00 2.946462e-13
    outer loop
      vertex   -3.453833e+01 5.719655e+01 6.059873e+01
      vertex   -1.025071e+01 5.719306e+01 1.388863e+02
      vertex   -9.455127e+00 5.719294e+01 1.382334e+02
    endloop
  endfacet
  facet normal 1.437957e-04 1.000000e+00 2.958505e-13
    outer loop
      vertex   -8.547454e+00 5.719281e+01 1.377483e+02
      vertex   -3.453833e+01 5.719655e+01 6.059873e+01
      vertex   -9.455127e+00 5.719294e+01 1.382334e+02
    endloop
  endfacet
  facet normal 1.437957e-04 1.000000e+00 2.919691e-13
    outer loop
      vertex   -1.687870e+00 5.719183e+01 1.446078e+02
      vertex   -2.173032e+00 5.719190e+01 1.455155e+02
      vertex   1.945433e+01 5.718879e+01 1.566125e+02
    endloop
  endfacet
  facet normal 1.437957e-04 1.000000e+00 3.005830e-13
    outer loop
      vertex   -5.514085e+00 5.719238e+01 1.477479e+02
      vertex   -6.538329e+00 5.719252e+01 1.478488e+02
      vertex   4.461671e+00 5.719094e+01 1.655987e+02
    endloop
  endfacet
  facet normal 1.437957e-04 1.000000e+00 2.958702e-13
    outer loop
      vertex   4.461671e+00 5.719094e+01 1.655987e+02
      vertex   -6.538329e+00 5.719252e+01 1.478488e+02
      vertex   -1.753833e+01 5.719411e+01 1.655987e+02
    endloop
  endfacet
  facet normal 1.437957e-04 1.000000e+00 2.976404e-13
    outer loop
      vertex   -1.753833e+01 5.719411e+01 1.655987e+02
      vertex   -6.538329e+00 5.719252e+01 1.478488e+02
      vertex   -7.562572e+00 5.719267e+01 1.477479e+02
    endloop
  endfacet
  facet normal 1.437957e-04 1.000000e+00 2.962219e-13
    outer loop
      vertex   -8.547454e+00 5.719281e+01 1.474492e+02
      vertex   -1.753833e+01 5.719411e+01 1.655987e+02
      vertex   -7.562572e+00 5.719267e+01 1.477479e+02
    endloop
  endfacet
  facet normal 1.437957e-04 1.000000e+00 2.975776e-13
    outer loop
      vertex   -1.025071e+01 5.719306e+01 1.463111e+02
      vertex   -1.090363e+01 5.719315e+01 1.455155e+02
      vertex   -2.404395e+01 5.719504e+01 1.643047e+02
    endloop
  endfacet
  facet normal 1.437957e-04 1.000000e+00 2.959052e-13
    outer loop
      vertex   -1.138879e+01 5.719322e+01 1.446078e+02
      vertex   -1.168755e+01 5.719326e+01 1.436230e+02
      vertex   -3.453833e+01 5.719655e+01 1.485987e+02
    endloop
  endfacet
  facet normal 1.437957e-04 1.000000e+00 3.042242e-13
    outer loop
      vertex   -3.453833e+01 5.719655e+01 1.485987e+02
      vertex   -1.168755e+01 5.719326e+01 1.436230e+02
      vertex   -1.178843e+01 5.719328e+01 1.425987e+02
    endloop
  endfacet
  facet normal -9.987954e-01 1.436225e-04 4.906767e-02
    outer loop
      vertex   -3.453833e+01 5.719655e+01 1.485987e+02
      vertex   -3.453905e+01 5.219655e+01 1.485987e+02
      vertex   -3.445647e+01 5.719654e+01 1.502650e+02
    endloop
  endfacet
  facet normal -9.987954e-01 1.436225e-04 4.906767e-02
    outer loop
      vertex   -3.445647e+01 5.719654e+01 1.502650e+02
      vertex   -3.453905e+01 5.219655e+01 1.485987e+02
      vertex   -3.445719e+01 5.219654e+01 1.502650e+02
    endloop
  endfacet
  facet normal -9.891765e-01 1.422394e-04 1.467305e-01
    outer loop
      vertex   -3.421240e+01 5.219650e+01 1.519153e+02
      vertex   -3.445647e+01 5.719654e+01 1.502650e+02
      vertex   -3.445719e+01 5.219654e+01 1.502650e+02
    endloop
  endfacet
  facet normal -9.891765e-01 1.422394e-04 1.467305e-01
    outer loop
      vertex   -3.421240e+01 5.219650e+01 1.519153e+02
      vertex   -3.421168e+01 5.719650e+01 1.519153e+02
      vertex   -3.445647e+01 5.719654e+01 1.502650e+02
    endloop
  endfacet
  facet normal -9.700312e-01 1.394864e-04 2.429802e-01
    outer loop
      vertex   -3.421240e+01 5.219650e+01 1.519153e+02
      vertex   -3.380703e+01 5.219645e+01 1.535336e+02
      vertex   -3.421168e+01 5.719650e+01 1.519153e+02
    endloop
  endfacet
  facet normal -9.700312e-01 1.394864e-04 2.429802e-01
    outer loop
      vertex   -3.421168e+01 5.719650e+01 1.519153e+02
      vertex   -3.380703e+01 5.219645e+01 1.535336e+02
      vertex   -3.380631e+01 5.719645e+01 1.535336e+02
    endloop
  endfacet
  facet normal -9.415441e-01 1.353900e-04 3.368899e-01
    outer loop
      vertex   -3.380631e+01 5.719645e+01 1.535336e+02
      vertex   -3.380703e+01 5.219645e+01 1.535336e+02
      vertex   -3.324428e+01 5.719636e+01 1.551043e+02
    endloop
  endfacet
  facet normal -9.415441e-01 1.353900e-04 3.368899e-01
    outer loop
      vertex   -3.324428e+01 5.719636e+01 1.551043e+02
      vertex   -3.380703e+01 5.219645e+01 1.535336e+02
      vertex   -3.324500e+01 5.219636e+01 1.551043e+02
    endloop
  endfacet
  facet normal -9.039893e-01 1.299898e-04 4.275551e-01
    outer loop
      vertex   -3.253099e+01 5.719626e+01 1.566125e+02
      vertex   -3.324500e+01 5.219636e+01 1.551043e+02
      vertex   -3.253171e+01 5.219626e+01 1.566125e+02
    endloop
  endfacet
  facet normal -8.577286e-01 1.233377e-04 5.141027e-01
    outer loop
      vertex   -3.167403e+01 5.219614e+01 1.580434e+02
      vertex   -3.253099e+01 5.719626e+01 1.566125e+02
      vertex   -3.253171e+01 5.219626e+01 1.566125e+02
    endloop
  endfacet
  facet normal -8.577286e-01 1.233377e-04 5.141027e-01
    outer loop
      vertex   -3.167403e+01 5.219614e+01 1.580434e+02
      vertex   -3.167331e+01 5.719614e+01 1.580434e+02
      vertex   -3.253099e+01 5.719626e+01 1.566125e+02
    endloop
  endfacet
  facet normal -8.032075e-01 1.154978e-04 5.956993e-01
    outer loop
      vertex   -3.167403e+01 5.219614e+01 1.580434e+02
      vertex   -3.068023e+01 5.219600e+01 1.593834e+02
      vertex   -3.167331e+01 5.719614e+01 1.580434e+02
    endloop
  endfacet
  facet normal -8.032075e-01 1.154978e-04 5.956993e-01
    outer loop
      vertex   -3.167331e+01 5.719614e+01 1.580434e+02
      vertex   -3.068023e+01 5.219600e+01 1.593834e+02
      vertex   -3.067951e+01 5.719600e+01 1.593834e+02
    endloop
  endfacet
  facet normal -7.409511e-01 1.065456e-04 6.715590e-01
    outer loop
      vertex   -3.067951e+01 5.719600e+01 1.593834e+02
      vertex   -3.068023e+01 5.219600e+01 1.593834e+02
      vertex   -2.955914e+01 5.719583e+01 1.606195e+02
    endloop
  endfacet
  facet normal -7.409511e-01 1.065456e-04 6.715590e-01
    outer loop
      vertex   -2.955914e+01 5.719583e+01 1.606195e+02
      vertex   -3.068023e+01 5.219600e+01 1.593834e+02
      vertex   -2.955986e+01 5.219583e+01 1.606195e+02
    endloop
  endfacet
  facet normal -6.715589e-01 9.656731e-05 7.409511e-01
    outer loop
      vertex   -2.832301e+01 5.719566e+01 1.617399e+02
      vertex   -2.955986e+01 5.219583e+01 1.606195e+02
      vertex   -2.832373e+01 5.219566e+01 1.617399e+02
    endloop
  endfacet
  facet normal -5.956993e-01 8.565902e-05 8.032075e-01
    outer loop
      vertex   -2.698374e+01 5.219546e+01 1.627337e+02
      vertex   -2.832301e+01 5.719566e+01 1.617399e+02
      vertex   -2.832373e+01 5.219566e+01 1.617399e+02
    endloop
  endfacet
  facet normal -5.956993e-01 8.565902e-05 8.032075e-01
    outer loop
      vertex   -2.698374e+01 5.219546e+01 1.627337e+02
      vertex   -2.698302e+01 5.719546e+01 1.627337e+02
      vertex   -2.832301e+01 5.719566e+01 1.617399e+02
    endloop
  endfacet
  facet normal -5.141027e-01 7.392578e-05 8.577286e-01
    outer loop
      vertex   -2.698374e+01 5.219546e+01 1.627337e+02
      vertex   -2.555279e+01 5.219526e+01 1.635914e+02
      vertex   -2.698302e+01 5.719546e+01 1.627337e+02
    endloop
  endfacet
  facet normal -5.141027e-01 7.392578e-05 8.577286e-01
    outer loop
      vertex   -2.698302e+01 5.719546e+01 1.627337e+02
      vertex   -2.555279e+01 5.219526e+01 1.635914e+02
      vertex   -2.555207e+01 5.719526e+01 1.635914e+02
    endloop
  endfacet
  facet normal -4.275551e-01 6.148060e-05 9.039893e-01
    outer loop
      vertex   -2.555207e+01 5.719526e+01 1.635914e+02
      vertex   -2.555279e+01 5.219526e+01 1.635914e+02
      vertex   -2.404395e+01 5.719504e+01 1.643047e+02
    endloop
  endfacet
  facet normal -4.275551e-01 6.148060e-05 9.039893e-01
    outer loop
      vertex   -2.404395e+01 5.719504e+01 1.643047e+02
      vertex   -2.555279e+01 5.219526e+01 1.635914e+02
      vertex   -2.404467e+01 5.219504e+01 1.643047e+02
    endloop
  endfacet
  facet normal -3.368898e-01 4.844332e-05 9.415441e-01
    outer loop
      vertex   -2.247317e+01 5.719482e+01 1.648667e+02
      vertex   -2.404467e+01 5.219504e+01 1.643047e+02
      vertex   -2.247389e+01 5.219482e+01 1.648667e+02
    endloop
  endfacet
  facet normal -2.429802e-01 3.493951e-05 9.700313e-01
    outer loop
      vertex   -2.085558e+01 5.219458e+01 1.652721e+02
      vertex   -2.247317e+01 5.719482e+01 1.648667e+02
      vertex   -2.247389e+01 5.219482e+01 1.648667e+02
    endloop
  endfacet
  facet normal -2.429802e-01 3.493951e-05 9.700313e-01
    outer loop
      vertex   -2.085558e+01 5.219458e+01 1.652721e+02
      vertex   -2.085486e+01 5.719458e+01 1.652721e+02
      vertex   -2.247317e+01 5.719482e+01 1.648667e+02
    endloop
  endfacet
  facet normal -1.467305e-01 2.109922e-05 9.891765e-01
    outer loop
      vertex   -2.085558e+01 5.219458e+01 1.652721e+02
      vertex   -1.920534e+01 5.219435e+01 1.655169e+02
      vertex   -2.085486e+01 5.719458e+01 1.652721e+02
    endloop
  endfacet
  facet normal -1.467305e-01 2.109922e-05 9.891765e-01
    outer loop
      vertex   -2.085486e+01 5.719458e+01 1.652721e+02
      vertex   -1.920534e+01 5.219435e+01 1.655169e+02
      vertex   -1.920462e+01 5.719435e+01 1.655169e+02
    endloop
  endfacet
  facet normal -4.906767e-02 7.055722e-06 9.987955e-01
    outer loop
      vertex   -1.920462e+01 5.719435e+01 1.655169e+02
      vertex   -1.920534e+01 5.219435e+01 1.655169e+02
      vertex   -1.753833e+01 5.719411e+01 1.655987e+02
    endloop
  endfacet
  facet normal -4.906767e-02 7.055722e-06 9.987955e-01
    outer loop
      vertex   -1.753833e+01 5.719411e+01 1.655987e+02
      vertex   -1.920534e+01 5.219435e+01 1.655169e+02
      vertex   -1.753905e+01 5.219411e+01 1.655987e+02
    endloop
  endfacet
  facet normal -3.368898e-01 4.844332e-05 9.415441e-01
    outer loop
      vertex   -2.247317e+01 5.719482e+01 1.648667e+02
      vertex   -2.404395e+01 5.719504e+01 1.643047e+02
      vertex   -2.404467e+01 5.219504e+01 1.643047e+02
    endloop
  endfacet
  facet normal -6.715589e-01 9.656731e-05 7.409511e-01
    outer loop
      vertex   -2.832301e+01 5.719566e+01 1.617399e+02
      vertex   -2.955914e+01 5.719583e+01 1.606195e+02
      vertex   -2.955986e+01 5.219583e+01 1.606195e+02
    endloop
  endfacet
  facet normal -9.039893e-01 1.299898e-04 4.275551e-01
    outer loop
      vertex   -3.253099e+01 5.719626e+01 1.566125e+02
      vertex   -3.324428e+01 5.719636e+01 1.551043e+02
      vertex   -3.324500e+01 5.219636e+01 1.551043e+02
    endloop
  endfacet
  facet normal -1.437957e-04 -1.000000e+00 -2.961671e-13
    outer loop
      vertex   -4.529922e+00 5.219224e+01 1.377483e+02
      vertex   -5.514804e+00 5.219238e+01 1.374495e+02
      vertex   2.146095e+01 5.218850e+01 6.759873e+01
    endloop
  endfacet
  facet normal -1.437957e-04 -1.000000e+00 -2.965160e-13
    outer loop
      vertex   -3.622249e+00 5.219210e+01 1.382334e+02
      vertex   2.146095e+01 5.218850e+01 6.759873e+01
      vertex   -2.826668e+00 5.219199e+01 1.388863e+02
    endloop
  endfacet
  facet normal -1.437957e-04 -1.000000e+00 -2.952097e-13
    outer loop
      vertex   -3.622249e+00 5.219210e+01 1.382334e+02
      vertex   -4.529922e+00 5.219224e+01 1.377483e+02
      vertex   2.146095e+01 5.218850e+01 6.759873e+01
    endloop
  endfacet
  facet normal -1.437957e-04 -1.000000e+00 -2.960144e-13
    outer loop
      vertex   2.146095e+01 5.218850e+01 6.759873e+01
      vertex   2.146095e+01 5.218850e+01 1.485987e+02
      vertex   -2.826668e+00 5.219199e+01 1.388863e+02
    endloop
  endfacet
  facet normal -1.437957e-04 -1.000000e+00 -3.011003e-13
    outer loop
      vertex   -2.826668e+00 5.219199e+01 1.388863e+02
      vertex   2.146095e+01 5.218850e+01 1.485987e+02
      vertex   -2.173750e+00 5.219190e+01 1.396819e+02
    endloop
  endfacet
  facet normal -1.437957e-04 -1.000000e+00 -2.867051e-13
    outer loop
      vertex   -2.173750e+00 5.219190e+01 1.396819e+02
      vertex   2.146095e+01 5.218850e+01 1.485987e+02
      vertex   -1.688589e+00 5.219183e+01 1.405896e+02
    endloop
  endfacet
  facet normal -1.437957e-04 -1.000000e+00 -2.958703e-13
    outer loop
      vertex   -1.688589e+00 5.219183e+01 1.405896e+02
      vertex   2.146095e+01 5.218850e+01 1.485987e+02
      vertex   -1.389829e+00 5.219178e+01 1.415745e+02
    endloop
  endfacet
  facet normal -1.437957e-04 -1.000000e+00 -3.046573e-13
    outer loop
      vertex   -1.389829e+00 5.219178e+01 1.415745e+02
      vertex   2.146095e+01 5.218850e+01 1.485987e+02
      vertex   -1.288949e+00 5.219177e+01 1.425987e+02
    endloop
  endfacet
  facet normal -1.437957e-04 -1.000000e+00 -2.923508e-13
    outer loop
      vertex   -1.288949e+00 5.219177e+01 1.425987e+02
      vertex   2.146095e+01 5.218850e+01 1.485987e+02
      vertex   -1.389829e+00 5.219178e+01 1.436230e+02
    endloop
  endfacet
  facet normal -1.437957e-04 -1.000000e+00 -2.957442e-13
    outer loop
      vertex   -1.389829e+00 5.219178e+01 1.436230e+02
      vertex   2.146095e+01 5.218850e+01 1.485987e+02
      vertex   -1.688589e+00 5.219183e+01 1.446078e+02
    endloop
  endfacet
  facet normal -1.437957e-04 -1.000000e+00 -2.949372e-13
    outer loop
      vertex   -1.688589e+00 5.219183e+01 1.446078e+02
      vertex   2.146095e+01 5.218850e+01 1.485987e+02
      vertex   2.137909e+01 5.218851e+01 1.502650e+02
    endloop
  endfacet
  facet normal -1.437957e-04 -1.000000e+00 -2.980567e-13
    outer loop
      vertex   2.113430e+01 5.218854e+01 1.519153e+02
      vertex   -1.688589e+00 5.219183e+01 1.446078e+02
      vertex   2.137909e+01 5.218851e+01 1.502650e+02
    endloop
  endfacet
  facet normal -1.437957e-04 -1.000000e+00 -2.978374e-13
    outer loop
      vertex   2.113430e+01 5.218854e+01 1.519153e+02
      vertex   2.072894e+01 5.218860e+01 1.535336e+02
      vertex   -1.688589e+00 5.219183e+01 1.446078e+02
    endloop
  endfacet
  facet normal -1.437957e-04 -1.000000e+00 -2.932608e-13
    outer loop
      vertex   -1.688589e+00 5.219183e+01 1.446078e+02
      vertex   2.072894e+01 5.218860e+01 1.535336e+02
      vertex   2.016690e+01 5.218868e+01 1.551043e+02
    endloop
  endfacet
  facet normal -1.437957e-04 -1.000000e+00 -2.978195e-13
    outer loop
      vertex   1.945361e+01 5.218879e+01 1.566125e+02
      vertex   -1.688589e+00 5.219183e+01 1.446078e+02
      vertex   2.016690e+01 5.218868e+01 1.551043e+02
    endloop
  endfacet
  facet normal -1.437957e-04 -1.000000e+00 -2.921071e-13
    outer loop
      vertex   1.945361e+01 5.218879e+01 1.566125e+02
      vertex   -2.173750e+00 5.219190e+01 1.455155e+02
      vertex   -1.688589e+00 5.219183e+01 1.446078e+02
    endloop
  endfacet
  facet normal -1.437957e-04 -1.000000e+00 -2.944881e-13
    outer loop
      vertex   1.945361e+01 5.218879e+01 1.566125e+02
      vertex   1.859594e+01 5.218891e+01 1.580434e+02
      vertex   -2.173750e+00 5.219190e+01 1.455155e+02
    endloop
  endfacet
  facet normal -1.437957e-04 -1.000000e+00 -2.964818e-13
    outer loop
      vertex   -2.173750e+00 5.219190e+01 1.455155e+02
      vertex   1.859594e+01 5.218891e+01 1.580434e+02
      vertex   1.760213e+01 5.218905e+01 1.593834e+02
    endloop
  endfacet
  facet normal -1.437957e-04 -1.000000e+00 -2.958787e-13
    outer loop
      vertex   1.648177e+01 5.218921e+01 1.606195e+02
      vertex   -2.173750e+00 5.219190e+01 1.455155e+02
      vertex   1.760213e+01 5.218905e+01 1.593834e+02
    endloop
  endfacet
  facet normal -1.437957e-04 -1.000000e+00 -2.953491e-13
    outer loop
      vertex   1.648177e+01 5.218921e+01 1.606195e+02
      vertex   1.524564e+01 5.218939e+01 1.617399e+02
      vertex   -2.173750e+00 5.219190e+01 1.455155e+02
    endloop
  endfacet
  facet normal -1.437957e-04 -1.000000e+00 -2.980738e-13
    outer loop
      vertex   -2.173750e+00 5.219190e+01 1.455155e+02
      vertex   1.524564e+01 5.218939e+01 1.617399e+02
      vertex   1.390565e+01 5.218958e+01 1.627337e+02
    endloop
  endfacet
  facet normal -1.437957e-04 -1.000000e+00 -2.967996e-13
    outer loop
      vertex   1.247470e+01 5.218979e+01 1.635914e+02
      vertex   -2.173750e+00 5.219190e+01 1.455155e+02
      vertex   1.390565e+01 5.218958e+01 1.627337e+02
    endloop
  endfacet
  facet normal -1.437957e-04 -1.000000e+00 -2.951320e-13
    outer loop
      vertex   1.247470e+01 5.218979e+01 1.635914e+02
      vertex   1.096657e+01 5.219001e+01 1.643047e+02
      vertex   -2.173750e+00 5.219190e+01 1.455155e+02
    endloop
  endfacet
  facet normal -1.437957e-04 -1.000000e+00 -3.016668e-13
    outer loop
      vertex   -2.173750e+00 5.219190e+01 1.455155e+02
      vertex   1.096657e+01 5.219001e+01 1.643047e+02
      vertex   -2.826668e+00 5.219199e+01 1.463111e+02
    endloop
  endfacet
  facet normal -1.437957e-04 -1.000000e+00 -2.961679e-13
    outer loop
      vertex   -2.826668e+00 5.219199e+01 1.463111e+02
      vertex   1.096657e+01 5.219001e+01 1.643047e+02
      vertex   9.395792e+00 5.219023e+01 1.648667e+02
    endloop
  endfacet
  facet normal -1.437957e-04 -1.000000e+00 -2.958060e-13
    outer loop
      vertex   7.777488e+00 5.219047e+01 1.652721e+02
      vertex   -2.826668e+00 5.219199e+01 1.463111e+02
      vertex   9.395792e+00 5.219023e+01 1.648667e+02
    endloop
  endfacet
  facet normal -1.437957e-04 -1.000000e+00 -2.963747e-13
    outer loop
      vertex   7.777488e+00 5.219047e+01 1.652721e+02
      vertex   6.127244e+00 5.219070e+01 1.655169e+02
      vertex   -2.826668e+00 5.219199e+01 1.463111e+02
    endloop
  endfacet
  facet normal -1.437957e-04 -1.000000e+00 -2.949134e-13
    outer loop
      vertex   -2.826668e+00 5.219199e+01 1.463111e+02
      vertex   6.127244e+00 5.219070e+01 1.655169e+02
      vertex   4.460952e+00 5.219094e+01 1.655987e+02
    endloop
  endfacet
  facet normal -1.437957e-04 -1.000000e+00 -2.957385e-13
    outer loop
      vertex   -3.622249e+00 5.219210e+01 1.469640e+02
      vertex   4.460952e+00 5.219094e+01 1.655987e+02
      vertex   -4.529922e+00 5.219224e+01 1.474492e+02
    endloop
  endfacet
  facet normal -1.437957e-04 -1.000000e+00 -2.942397e-13
    outer loop
      vertex   -3.622249e+00 5.219210e+01 1.469640e+02
      vertex   -2.826668e+00 5.219199e+01 1.463111e+02
      vertex   4.460952e+00 5.219094e+01 1.655987e+02
    endloop
  endfacet
  facet normal -1.437957e-04 -1.000000e+00 -2.965622e-13
    outer loop
      vertex   -8.548173e+00 5.219281e+01 1.474492e+02
      vertex   -7.563291e+00 5.219267e+01 1.477479e+02
      vertex   -1.753905e+01 5.219411e+01 1.655987e+02
    endloop
  endfacet
  facet normal -1.437957e-04 -1.000000e+00 -2.968240e-13
    outer loop
      vertex   -9.455846e+00 5.219294e+01 1.469640e+02
      vertex   -1.753905e+01 5.219411e+01 1.655987e+02
      vertex   -1.025143e+01 5.219306e+01 1.463111e+02
    endloop
  endfacet
  facet normal -1.437957e-04 -1.000000e+00 -2.953135e-13
    outer loop
      vertex   -9.455846e+00 5.219294e+01 1.469640e+02
      vertex   -8.548173e+00 5.219281e+01 1.474492e+02
      vertex   -1.753905e+01 5.219411e+01 1.655987e+02
    endloop
  endfacet
  facet normal -1.437957e-04 -1.000000e+00 -2.958817e-13
    outer loop
      vertex   -1.753905e+01 5.219411e+01 1.655987e+02
      vertex   -1.920534e+01 5.219435e+01 1.655169e+02
      vertex   -1.025143e+01 5.219306e+01 1.463111e+02
    endloop
  endfacet
  facet normal -1.437957e-04 -1.000000e+00 -2.971375e-13
    outer loop
      vertex   -1.025143e+01 5.219306e+01 1.463111e+02
      vertex   -1.920534e+01 5.219435e+01 1.655169e+02
      vertex   -2.085558e+01 5.219458e+01 1.652721e+02
    endloop
  endfacet
  facet normal -1.437957e-04 -1.000000e+00 -2.946905e-13
    outer loop
      vertex   -2.247389e+01 5.219482e+01 1.648667e+02
      vertex   -1.025143e+01 5.219306e+01 1.463111e+02
      vertex   -2.085558e+01 5.219458e+01 1.652721e+02
    endloop
  endfacet
  facet normal -1.437957e-04 -1.000000e+00 -2.990595e-13
    outer loop
      vertex   -2.247389e+01 5.219482e+01 1.648667e+02
      vertex   -2.404467e+01 5.219504e+01 1.643047e+02
      vertex   -1.025143e+01 5.219306e+01 1.463111e+02
    endloop
  endfacet
  facet normal -1.437957e-04 -1.000000e+00 -2.977816e-13
    outer loop
      vertex   -1.025143e+01 5.219306e+01 1.463111e+02
      vertex   -2.404467e+01 5.219504e+01 1.643047e+02
      vertex   -1.090434e+01 5.219315e+01 1.455155e+02
    endloop
  endfacet
  facet normal -1.437957e-04 -1.000000e+00 -2.963321e-13
    outer loop
      vertex   -1.090434e+01 5.219315e+01 1.455155e+02
      vertex   -2.404467e+01 5.219504e+01 1.643047e+02
      vertex   -2.555279e+01 5.219526e+01 1.635914e+02
    endloop
  endfacet
  facet normal -1.437957e-04 -1.000000e+00 -2.945673e-13
    outer loop
      vertex   -2.698374e+01 5.219546e+01 1.627337e+02
      vertex   -1.090434e+01 5.219315e+01 1.455155e+02
      vertex   -2.555279e+01 5.219526e+01 1.635914e+02
    endloop
  endfacet
  facet normal -1.437957e-04 -1.000000e+00 -2.981152e-13
    outer loop
      vertex   -2.698374e+01 5.219546e+01 1.627337e+02
      vertex   -2.832373e+01 5.219566e+01 1.617399e+02
      vertex   -1.090434e+01 5.219315e+01 1.455155e+02
    endloop
  endfacet
  facet normal -1.437957e-04 -1.000000e+00 -2.928051e-13
    outer loop
      vertex   -1.090434e+01 5.219315e+01 1.455155e+02
      vertex   -2.832373e+01 5.219566e+01 1.617399e+02
      vertex   -2.955986e+01 5.219583e+01 1.606195e+02
    endloop
  endfacet
  facet normal -1.437957e-04 -1.000000e+00 -3.000692e-13
    outer loop
      vertex   -3.068023e+01 5.219600e+01 1.593834e+02
      vertex   -1.090434e+01 5.219315e+01 1.455155e+02
      vertex   -2.955986e+01 5.219583e+01 1.606195e+02
    endloop
  endfacet
  facet normal -1.437957e-04 -1.000000e+00 -2.971227e-13
    outer loop
      vertex   -3.068023e+01 5.219600e+01 1.593834e+02
      vertex   -3.167403e+01 5.219614e+01 1.580434e+02
      vertex   -1.090434e+01 5.219315e+01 1.455155e+02
    endloop
  endfacet
  facet normal -1.437957e-04 -1.000000e+00 -2.933244e-13
    outer loop
      vertex   -1.090434e+01 5.219315e+01 1.455155e+02
      vertex   -3.167403e+01 5.219614e+01 1.580434e+02
      vertex   -3.253171e+01 5.219626e+01 1.566125e+02
    endloop
  endfacet
  facet normal -1.437957e-04 -1.000000e+00 -2.956606e-13
    outer loop
      vertex   -1.138951e+01 5.219322e+01 1.446078e+02
      vertex   -3.253171e+01 5.219626e+01 1.566125e+02
      vertex   -3.324500e+01 5.219636e+01 1.551043e+02
    endloop
  endfacet
  facet normal -1.437957e-04 -1.000000e+00 -2.955048e-13
    outer loop
      vertex   -3.380703e+01 5.219645e+01 1.535336e+02
      vertex   -1.138951e+01 5.219322e+01 1.446078e+02
      vertex   -3.324500e+01 5.219636e+01 1.551043e+02
    endloop
  endfacet
  facet normal -1.437957e-04 -1.000000e+00 -2.990097e-13
    outer loop
      vertex   -3.380703e+01 5.219645e+01 1.535336e+02
      vertex   -3.421240e+01 5.219650e+01 1.519153e+02
      vertex   -1.138951e+01 5.219322e+01 1.446078e+02
    endloop
  endfacet
  facet normal -1.437957e-04 -1.000000e+00 -2.961212e-13
    outer loop
      vertex   -1.138951e+01 5.219322e+01 1.446078e+02
      vertex   -3.421240e+01 5.219650e+01 1.519153e+02
      vertex   -3.445719e+01 5.219654e+01 1.502650e+02
    endloop
  endfacet
  facet normal -1.437957e-04 -1.000000e+00 -2.936465e-13
    outer loop
      vertex   -3.453905e+01 5.219655e+01 1.485987e+02
      vertex   -1.138951e+01 5.219322e+01 1.446078e+02
      vertex   -3.445719e+01 5.219654e+01 1.502650e+02
    endloop
  endfacet
  facet normal -1.437957e-04 -1.000000e+00 -2.959937e-13
    outer loop
      vertex   -3.453905e+01 5.219655e+01 1.485987e+02
      vertex   -1.168827e+01 5.219326e+01 1.436230e+02
      vertex   -1.138951e+01 5.219322e+01 1.446078e+02
    endloop
  endfacet
  facet normal -1.437957e-04 -1.000000e+00 -2.974626e-13
    outer loop
      vertex   -3.453905e+01 5.219655e+01 1.485987e+02
      vertex   -1.178915e+01 5.219328e+01 1.425987e+02
      vertex   -1.168827e+01 5.219326e+01 1.436230e+02
    endloop
  endfacet
  facet normal -1.437957e-04 -1.000000e+00 -2.992728e-13
    outer loop
      vertex   -3.453905e+01 5.219655e+01 1.485987e+02
      vertex   -1.168827e+01 5.219326e+01 1.415745e+02
      vertex   -1.178915e+01 5.219328e+01 1.425987e+02
    endloop
  endfacet
  facet normal -1.437957e-04 -1.000000e+00 -2.955771e-13
    outer loop
      vertex   -3.453905e+01 5.219655e+01 1.485987e+02
      vertex   -1.138951e+01 5.219322e+01 1.405896e+02
      vertex   -1.168827e+01 5.219326e+01 1.415745e+02
    endloop
  endfacet
  facet normal -1.437957e-04 -1.000000e+00 -2.894367e-13
    outer loop
      vertex   -3.453905e+01 5.219655e+01 1.485987e+02
      vertex   -1.090434e+01 5.219315e+01 1.396819e+02
      vertex   -1.138951e+01 5.219322e+01 1.405896e+02
    endloop
  endfacet
  facet normal -1.437957e-04 -1.000000e+00 -3.131394e-13
    outer loop
      vertex   -3.453905e+01 5.219655e+01 1.485987e+02
      vertex   -1.025143e+01 5.219306e+01 1.388863e+02
      vertex   -1.090434e+01 5.219315e+01 1.396819e+02
    endloop
  endfacet
  facet normal -1.437957e-04 -1.000000e+00 -2.961021e-13
    outer loop
      vertex   -3.453905e+01 5.219655e+01 1.485987e+02
      vertex   -3.453905e+01 5.219655e+01 6.759873e+01
      vertex   -1.025143e+01 5.219306e+01 1.388863e+02
    endloop
  endfacet
  facet normal -1.437957e-04 -1.000000e+00 -2.945082e-13
    outer loop
      vertex   -1.025143e+01 5.219306e+01 1.388863e+02
      vertex   -3.453905e+01 5.219655e+01 6.759873e+01
      vertex   -9.455846e+00 5.219294e+01 1.382334e+02
    endloop
  endfacet
  facet normal -1.437957e-04 -1.000000e+00 -2.958016e-13
    outer loop
      vertex   -9.455846e+00 5.219294e+01 1.382334e+02
      vertex   -3.453905e+01 5.219655e+01 6.759873e+01
      vertex   -8.548173e+00 5.219281e+01 1.377483e+02
    endloop
  endfacet
  facet normal -1.437957e-04 -1.000000e+00 -2.937187e-13
    outer loop
      vertex   -8.548173e+00 5.219281e+01 1.377483e+02
      vertex   -3.453905e+01 5.219655e+01 6.759873e+01
      vertex   -7.563291e+00 5.219267e+01 1.374495e+02
    endloop
  endfacet
  facet normal -1.437957e-04 -1.000000e+00 -2.990695e-13
    outer loop
      vertex   -7.563291e+00 5.219267e+01 1.374495e+02
      vertex   -3.453905e+01 5.219655e+01 6.759873e+01
      vertex   -6.539048e+00 5.219252e+01 1.373486e+02
    endloop
  endfacet
  facet normal -1.437957e-04 -1.000000e+00 -2.959752e-13
    outer loop
      vertex   -6.539048e+00 5.219252e+01 1.373486e+02
      vertex   -3.453905e+01 5.219655e+01 6.759873e+01
      vertex   2.146095e+01 5.218850e+01 6.759873e+01
    endloop
  endfacet
  facet normal -1.437957e-04 -1.000000e+00 -2.971593e-13
    outer loop
      vertex   -5.514804e+00 5.219238e+01 1.374495e+02
      vertex   -6.539048e+00 5.219252e+01 1.373486e+02
      vertex   2.146095e+01 5.218850e+01 6.759873e+01
    endloop
  endfacet
  facet normal -1.437957e-04 -1.000000e+00 -2.903365e-13
    outer loop
      vertex   -1.138951e+01 5.219322e+01 1.446078e+02
      vertex   -1.090434e+01 5.219315e+01 1.455155e+02
      vertex   -3.253171e+01 5.219626e+01 1.566125e+02
    endloop
  endfacet
  facet normal -1.437957e-04 -1.000000e+00 -2.980176e-13
    outer loop
      vertex   -7.563291e+00 5.219267e+01 1.477479e+02
      vertex   -6.539048e+00 5.219252e+01 1.478488e+02
      vertex   -1.753905e+01 5.219411e+01 1.655987e+02
    endloop
  endfacet
  facet normal -1.437957e-04 -1.000000e+00 -2.960703e-13
    outer loop
      vertex   -1.753905e+01 5.219411e+01 1.655987e+02
      vertex   -6.539048e+00 5.219252e+01 1.478488e+02
      vertex   4.460952e+00 5.219094e+01 1.655987e+02
    endloop
  endfacet
  facet normal -1.437957e-04 -1.000000e+00 -3.005829e-13
    outer loop
      vertex   4.460952e+00 5.219094e+01 1.655987e+02
      vertex   -6.539048e+00 5.219252e+01 1.478488e+02
      vertex   -5.514804e+00 5.219238e+01 1.477479e+02
    endloop
  endfacet
  facet normal -1.437957e-04 -1.000000e+00 -2.930390e-13
    outer loop
      vertex   -4.529922e+00 5.219224e+01 1.474492e+02
      vertex   4.460952e+00 5.219094e+01 1.655987e+02
      vertex   -5.514804e+00 5.219238e+01 1.477479e+02
    endloop
  endfacet
  facet normal -1.409445e-05 -9.801714e-02 9.951847e-01
    outer loop
      vertex   -3.453933e+01 5.019655e+01 6.559873e+01
      vertex   2.146066e+01 5.018850e+01 6.559873e+01
      vertex   -3.453928e+01 5.058673e+01 6.563716e+01
    endloop
  endfacet
  facet normal -1.409445e-05 -9.801714e-02 9.951847e-01
    outer loop
      vertex   -3.453928e+01 5.058673e+01 6.563716e+01
      vertex   2.146066e+01 5.018850e+01 6.559873e+01
      vertex   2.146072e+01 5.057868e+01 6.563716e+01
    endloop
  endfacet
  facet normal -4.174170e-05 -2.902847e-01 9.569403e-01
    outer loop
      vertex   2.146077e+01 5.095386e+01 6.575097e+01
      vertex   -3.453928e+01 5.058673e+01 6.563716e+01
      vertex   2.146072e+01 5.057868e+01 6.563716e+01
    endloop
  endfacet
  facet normal -4.174170e-05 -2.902847e-01 9.569403e-01
    outer loop
      vertex   2.146077e+01 5.095386e+01 6.575097e+01
      vertex   -3.453922e+01 5.096192e+01 6.575097e+01
      vertex   -3.453928e+01 5.058673e+01 6.563716e+01
    endloop
  endfacet
  facet normal -6.778484e-05 -4.713967e-01 8.819213e-01
    outer loop
      vertex   2.146077e+01 5.095386e+01 6.575097e+01
      vertex   2.146082e+01 5.129964e+01 6.593579e+01
      vertex   -3.453922e+01 5.096192e+01 6.575097e+01
    endloop
  endfacet
  facet normal -6.778484e-05 -4.713967e-01 8.819213e-01
    outer loop
      vertex   -3.453922e+01 5.096192e+01 6.575097e+01
      vertex   2.146082e+01 5.129964e+01 6.593579e+01
      vertex   -3.453918e+01 5.130769e+01 6.593579e+01
    endloop
  endfacet
  facet normal -9.122304e-05 -6.343933e-01 7.730105e-01
    outer loop
      vertex   -3.453918e+01 5.130769e+01 6.593579e+01
      vertex   2.146082e+01 5.129964e+01 6.593579e+01
      vertex   2.146087e+01 5.160271e+01 6.618452e+01
    endloop
  endfacet
  facet normal -1.111556e-04 -7.730104e-01 6.343933e-01
    outer loop
      vertex   -3.453913e+01 5.161076e+01 6.618452e+01
      vertex   2.146087e+01 5.160271e+01 6.618452e+01
      vertex   2.146090e+01 5.185144e+01 6.648759e+01
    endloop
  endfacet
  facet normal -1.268165e-04 -8.819213e-01 4.713967e-01
    outer loop
      vertex   -3.453910e+01 5.185949e+01 6.648759e+01
      vertex   2.146090e+01 5.185144e+01 6.648759e+01
      vertex   -3.453907e+01 5.204431e+01 6.683337e+01
    endloop
  endfacet
  facet normal -1.111556e-04 -7.730104e-01 6.343933e-01
    outer loop
      vertex   -3.453910e+01 5.185949e+01 6.648759e+01
      vertex   -3.453913e+01 5.161076e+01 6.618452e+01
      vertex   2.146090e+01 5.185144e+01 6.648759e+01
    endloop
  endfacet
  facet normal -1.268165e-04 -8.819213e-01 4.713967e-01
    outer loop
      vertex   2.146090e+01 5.185144e+01 6.648759e+01
      vertex   2.146093e+01 5.203626e+01 6.683337e+01
      vertex   -3.453907e+01 5.204431e+01 6.683337e+01
    endloop
  endfacet
  facet normal -1.376039e-04 -9.569403e-01 2.902847e-01
    outer loop
      vertex   -3.453907e+01 5.204431e+01 6.683337e+01
      vertex   2.146093e+01 5.203626e+01 6.683337e+01
      vertex   2.146095e+01 5.215007e+01 6.720855e+01
    endloop
  endfacet
  facet normal -1.431033e-04 -9.951847e-01 9.801714e-02
    outer loop
      vertex   -3.453905e+01 5.215812e+01 6.720855e+01
      vertex   2.146095e+01 5.215007e+01 6.720855e+01
      vertex   2.146095e+01 5.218850e+01 6.759873e+01
    endloop
  endfacet
  facet normal -1.431033e-04 -9.951847e-01 9.801714e-02
    outer loop
      vertex   -3.453905e+01 5.219655e+01 6.759873e+01
      vertex   -3.453905e+01 5.215812e+01 6.720855e+01
      vertex   2.146095e+01 5.218850e+01 6.759873e+01
    endloop
  endfacet
  facet normal -1.376039e-04 -9.569403e-01 2.902847e-01
    outer loop
      vertex   -3.453905e+01 5.215812e+01 6.720855e+01
      vertex   -3.453907e+01 5.204431e+01 6.683337e+01
      vertex   2.146095e+01 5.215007e+01 6.720855e+01
    endloop
  endfacet
  facet normal -9.122305e-05 -6.343933e-01 7.730105e-01
    outer loop
      vertex   -3.453913e+01 5.161076e+01 6.618452e+01
      vertex   -3.453918e+01 5.130769e+01 6.593579e+01
      vertex   2.146087e+01 5.160271e+01 6.618452e+01
    endloop
  endfacet
  facet normal 1.000000e+00 -1.437957e-04 2.962538e-13
    outer loop
      vertex   2.145894e+01 3.818850e+01 6.559873e+01
      vertex   2.145894e+01 3.818850e+01 6.059873e+01
      vertex   2.146066e+01 5.018850e+01 6.559873e+01
    endloop
  endfacet
  facet normal 1.000000e+00 -1.437957e-04 2.964035e-13
    outer loop
      vertex   2.146066e+01 5.018850e+01 6.559873e+01
      vertex   2.145894e+01 3.818850e+01 6.059873e+01
      vertex   2.146167e+01 5.718850e+01 6.059873e+01
    endloop
  endfacet
  facet normal 1.000000e+00 -1.437957e-04 2.954817e-13
    outer loop
      vertex   2.146072e+01 5.057868e+01 6.563716e+01
      vertex   2.146167e+01 5.718850e+01 6.059873e+01
      vertex   2.146077e+01 5.095386e+01 6.575097e+01
    endloop
  endfacet
  facet normal 1.000000e+00 -1.437957e-04 2.933645e-13
    outer loop
      vertex   2.146072e+01 5.057868e+01 6.563716e+01
      vertex   2.146066e+01 5.018850e+01 6.559873e+01
      vertex   2.146167e+01 5.718850e+01 6.059873e+01
    endloop
  endfacet
  facet normal 1.000000e+00 -1.437957e-04 2.959631e-13
    outer loop
      vertex   2.146167e+01 5.718850e+01 1.485987e+02
      vertex   2.146095e+01 5.218850e+01 6.759873e+01
      vertex   2.146167e+01 5.718850e+01 6.059873e+01
    endloop
  endfacet
  facet normal 1.000000e+00 -1.437957e-04 2.959731e-13
    outer loop
      vertex   2.146167e+01 5.718850e+01 1.485987e+02
      vertex   2.146095e+01 5.218850e+01 1.485987e+02
      vertex   2.146095e+01 5.218850e+01 6.759873e+01
    endloop
  endfacet
  facet normal 1.000000e+00 -1.437957e-04 2.963006e-13
    outer loop
      vertex   2.146095e+01 5.218850e+01 6.759873e+01
      vertex   2.146095e+01 5.215007e+01 6.720855e+01
      vertex   2.146167e+01 5.718850e+01 6.059873e+01
    endloop
  endfacet
  facet normal 1.000000e+00 -1.437957e-04 3.001249e-13
    outer loop
      vertex   2.146167e+01 5.718850e+01 6.059873e+01
      vertex   2.146095e+01 5.215007e+01 6.720855e+01
      vertex   2.146093e+01 5.203626e+01 6.683337e+01
    endloop
  endfacet
  facet normal 1.000000e+00 -1.437957e-04 2.932159e-13
    outer loop
      vertex   2.146090e+01 5.185144e+01 6.648759e+01
      vertex   2.146167e+01 5.718850e+01 6.059873e+01
      vertex   2.146093e+01 5.203626e+01 6.683337e+01
    endloop
  endfacet
  facet normal 1.000000e+00 -1.437957e-04 2.937101e-13
    outer loop
      vertex   2.146090e+01 5.185144e+01 6.648759e+01
      vertex   2.146087e+01 5.160271e+01 6.618452e+01
      vertex   2.146167e+01 5.718850e+01 6.059873e+01
    endloop
  endfacet
  facet normal 1.000000e+00 -1.437957e-04 3.031721e-13
    outer loop
      vertex   2.146167e+01 5.718850e+01 6.059873e+01
      vertex   2.146087e+01 5.160271e+01 6.618452e+01
      vertex   2.146082e+01 5.129964e+01 6.593579e+01
    endloop
  endfacet
  facet normal 1.000000e+00 -1.437957e-04 2.895543e-13
    outer loop
      vertex   2.146077e+01 5.095386e+01 6.575097e+01
      vertex   2.146167e+01 5.718850e+01 6.059873e+01
      vertex   2.146082e+01 5.129964e+01 6.593579e+01
    endloop
  endfacet
  facet normal 9.951706e-01 -9.816024e-02 2.658595e-13
    outer loop
      vertex   2.145894e+01 3.818850e+01 6.559873e+01
      vertex   2.122803e+01 3.584745e+01 6.559873e+01
      vertex   2.145894e+01 3.818850e+01 6.059873e+01
    endloop
  endfacet
  facet normal 9.951706e-01 -9.816024e-02 2.657111e-13
    outer loop
      vertex   2.145894e+01 3.818850e+01 6.059873e+01
      vertex   2.122803e+01 3.584745e+01 6.559873e+01
      vertex   2.122803e+01 3.584745e+01 6.059873e+01
    endloop
  endfacet
  facet normal 9.568986e-01 -2.904223e-01 1.972681e-13
    outer loop
      vertex   2.122803e+01 3.584745e+01 6.059873e+01
      vertex   2.122803e+01 3.584745e+01 6.559873e+01
      vertex   2.054483e+01 3.359643e+01 6.559873e+01
    endloop
  endfacet
  facet normal 8.818535e-01 -4.715235e-01 1.212442e-13
    outer loop
      vertex   2.054483e+01 3.359643e+01 6.059873e+01
      vertex   2.054483e+01 3.359643e+01 6.559873e+01
      vertex   1.943562e+01 3.152195e+01 6.559873e+01
    endloop
  endfacet
  facet normal 7.729192e-01 -6.345044e-01 4.101179e-14
    outer loop
      vertex   1.943562e+01 3.152195e+01 6.059873e+01
      vertex   1.943562e+01 3.152195e+01 6.559873e+01
      vertex   1.794300e+01 2.970372e+01 6.559873e+01
    endloop
  endfacet
  facet normal 6.342821e-01 -7.731017e-01 -4.223036e-14
    outer loop
      vertex   1.794300e+01 2.970372e+01 6.059873e+01
      vertex   1.794300e+01 2.970372e+01 6.559873e+01
      vertex   1.612435e+01 2.821163e+01 6.559873e+01
    endloop
  endfacet
  facet normal 4.712699e-01 -8.819890e-01 -1.229479e-13
    outer loop
      vertex   1.612435e+01 2.821163e+01 6.059873e+01
      vertex   1.612435e+01 2.821163e+01 6.559873e+01
      vertex   1.404955e+01 2.710301e+01 6.559873e+01
    endloop
  endfacet
  facet normal 2.901471e-01 -9.569821e-01 -1.983638e-13
    outer loop
      vertex   1.404955e+01 2.710301e+01 6.059873e+01
      vertex   1.404955e+01 2.710301e+01 6.559873e+01
      vertex   1.179833e+01 2.642046e+01 6.559873e+01
    endloop
  endfacet
  facet normal 9.787404e-02 -9.951988e-01 -2.665812e-13
    outer loop
      vertex   1.179833e+01 2.642046e+01 6.059873e+01
      vertex   1.179833e+01 2.642046e+01 6.559873e+01
      vertex   9.457213e+00 2.619022e+01 6.559873e+01
    endloop
  endfacet
  facet normal 9.787404e-02 -9.951988e-01 -2.659444e-13
    outer loop
      vertex   9.457213e+00 2.619022e+01 6.059873e+01
      vertex   1.179833e+01 2.642046e+01 6.059873e+01
      vertex   9.457213e+00 2.619022e+01 6.559873e+01
    endloop
  endfacet
  facet normal 2.901471e-01 -9.569821e-01 -1.982572e-13
    outer loop
      vertex   1.179833e+01 2.642046e+01 6.059873e+01
      vertex   1.404955e+01 2.710301e+01 6.059873e+01
      vertex   1.179833e+01 2.642046e+01 6.559873e+01
    endloop
  endfacet
  facet normal 4.712699e-01 -8.819890e-01 -1.224807e-13
    outer loop
      vertex   1.404955e+01 2.710301e+01 6.059873e+01
      vertex   1.612435e+01 2.821163e+01 6.059873e+01
      vertex   1.404955e+01 2.710301e+01 6.559873e+01
    endloop
  endfacet
  facet normal 6.342821e-01 -7.731017e-01 -4.221130e-14
    outer loop
      vertex   1.612435e+01 2.821163e+01 6.059873e+01
      vertex   1.794300e+01 2.970372e+01 6.059873e+01
      vertex   1.612435e+01 2.821163e+01 6.559873e+01
    endloop
  endfacet
  facet normal 7.729192e-01 -6.345044e-01 4.009696e-14
    outer loop
      vertex   1.794300e+01 2.970372e+01 6.059873e+01
      vertex   1.943562e+01 3.152195e+01 6.059873e+01
      vertex   1.794300e+01 2.970372e+01 6.559873e+01
    endloop
  endfacet
  facet normal 8.818535e-01 -4.715235e-01 1.215746e-13
    outer loop
      vertex   1.943562e+01 3.152195e+01 6.059873e+01
      vertex   2.054483e+01 3.359643e+01 6.059873e+01
      vertex   1.943562e+01 3.152195e+01 6.559873e+01
    endloop
  endfacet
  facet normal 9.568986e-01 -2.904223e-01 1.972567e-13
    outer loop
      vertex   2.054483e+01 3.359643e+01 6.059873e+01
      vertex   2.122803e+01 3.584745e+01 6.059873e+01
      vertex   2.054483e+01 3.359643e+01 6.559873e+01
    endloop
  endfacet
  facet normal 2.959329e-13 2.961588e-13 -1.000000e+00
    outer loop
      vertex   -3.453833e+01 5.719655e+01 6.059873e+01
      vertex   2.146167e+01 5.718850e+01 6.059873e+01
      vertex   9.457213e+00 2.619022e+01 6.059873e+01
    endloop
  endfacet
  facet normal 2.958060e-13 2.959787e-13 -1.000000e+00
    outer loop
      vertex   -2.254279e+01 2.619483e+01 6.059873e+01
      vertex   -3.453833e+01 5.719655e+01 6.059873e+01
      vertex   9.457213e+00 2.619022e+01 6.059873e+01
    endloop
  endfacet
  facet normal 2.962267e-13 2.961415e-13 -1.000000e+00
    outer loop
      vertex   -2.254279e+01 2.619483e+01 6.059873e+01
      vertex   -3.454106e+01 3.819655e+01 6.059873e+01
      vertex   -3.453833e+01 5.719655e+01 6.059873e+01
    endloop
  endfacet
  facet normal 2.963115e-13 2.962263e-13 -1.000000e+00
    outer loop
      vertex   -2.254279e+01 2.619483e+01 6.059873e+01
      vertex   -2.488384e+01 2.642574e+01 6.059873e+01
      vertex   -3.454106e+01 3.819655e+01 6.059873e+01
    endloop
  endfacet
  facet normal 2.946727e-13 2.948817e-13 -1.000000e+00
    outer loop
      vertex   -3.454106e+01 3.819655e+01 6.059873e+01
      vertex   -2.488384e+01 2.642574e+01 6.059873e+01
      vertex   -2.713486e+01 2.710893e+01 6.059873e+01
    endloop
  endfacet
  facet normal 3.000097e-13 2.984467e-13 -1.000000e+00
    outer loop
      vertex   -2.920934e+01 2.821815e+01 6.059873e+01
      vertex   -3.454106e+01 3.819655e+01 6.059873e+01
      vertex   -2.713486e+01 2.710893e+01 6.059873e+01
    endloop
  endfacet
  facet normal 2.925166e-13 2.944429e-13 -1.000000e+00
    outer loop
      vertex   -2.920934e+01 2.821815e+01 6.059873e+01
      vertex   -3.102756e+01 2.971076e+01 6.059873e+01
      vertex   -3.454106e+01 3.819655e+01 6.059873e+01
    endloop
  endfacet
  facet normal 3.015240e-13 2.981724e-13 -1.000000e+00
    outer loop
      vertex   -3.454106e+01 3.819655e+01 6.059873e+01
      vertex   -3.102756e+01 2.971076e+01 6.059873e+01
      vertex   -3.251965e+01 3.152942e+01 6.059873e+01
    endloop
  endfacet
  facet normal 2.870320e-13 2.937786e-13 -1.000000e+00
    outer loop
      vertex   -3.362828e+01 3.360422e+01 6.059873e+01
      vertex   -3.454106e+01 3.819655e+01 6.059873e+01
      vertex   -3.251965e+01 3.152942e+01 6.059873e+01
    endloop
  endfacet
  facet normal 3.023191e-13 2.968171e-13 -1.000000e+00
    outer loop
      vertex   -3.362828e+01 3.360422e+01 6.059873e+01
      vertex   -3.431082e+01 3.585543e+01 6.059873e+01
      vertex   -3.454106e+01 3.819655e+01 6.059873e+01
    endloop
  endfacet
  facet normal 2.959774e-13 2.961416e-13 -1.000000e+00
    outer loop
      vertex   2.146167e+01 5.718850e+01 6.059873e+01
      vertex   2.145894e+01 3.818850e+01 6.059873e+01
      vertex   9.457213e+00 2.619022e+01 6.059873e+01
    endloop
  endfacet
  facet normal 2.932493e-13 2.988705e-13 -1.000000e+00
    outer loop
      vertex   9.457213e+00 2.619022e+01 6.059873e+01
      vertex   2.145894e+01 3.818850e+01 6.059873e+01
      vertex   2.122803e+01 3.584745e+01 6.059873e+01
    endloop
  endfacet
  facet normal 2.997294e-13 2.909721e-13 -1.000000e+00
    outer loop
      vertex   2.054483e+01 3.359643e+01 6.059873e+01
      vertex   9.457213e+00 2.619022e+01 6.059873e+01
      vertex   2.122803e+01 3.584745e+01 6.059873e+01
    endloop
  endfacet
  facet normal 2.952512e-13 2.976762e-13 -1.000000e+00
    outer loop
      vertex   2.054483e+01 3.359643e+01 6.059873e+01
      vertex   1.943562e+01 3.152195e+01 6.059873e+01
      vertex   9.457213e+00 2.619022e+01 6.059873e+01
    endloop
  endfacet
  facet normal 2.959787e-13 2.963147e-13 -1.000000e+00
    outer loop
      vertex   9.457213e+00 2.619022e+01 6.059873e+01
      vertex   1.943562e+01 3.152195e+01 6.059873e+01
      vertex   1.794300e+01 2.970372e+01 6.059873e+01
    endloop
  endfacet
  facet normal 2.959018e-13 2.965006e-13 -1.000000e+00
    outer loop
      vertex   1.612435e+01 2.821163e+01 6.059873e+01
      vertex   9.457213e+00 2.619022e+01 6.059873e+01
      vertex   1.794300e+01 2.970372e+01 6.059873e+01
    endloop
  endfacet
  facet normal 2.943985e-13 3.014589e-13 -1.000000e+00
    outer loop
      vertex   1.612435e+01 2.821163e+01 6.059873e+01
      vertex   1.404955e+01 2.710301e+01 6.059873e+01
      vertex   9.457213e+00 2.619022e+01 6.059873e+01
    endloop
  endfacet
  facet normal 3.018024e-13 2.642088e-13 -1.000000e+00
    outer loop
      vertex   9.457213e+00 2.619022e+01 6.059873e+01
      vertex   1.404955e+01 2.710301e+01 6.059873e+01
      vertex   1.179833e+01 2.642046e+01 6.059873e+01
    endloop
  endfacet
  facet normal -1.000000e+00 1.437957e-04 -2.960169e-13
    outer loop
      vertex   -3.453905e+01 5.219655e+01 1.485987e+02
      vertex   -3.453833e+01 5.719655e+01 1.485987e+02
      vertex   -3.453905e+01 5.219655e+01 6.759873e+01
    endloop
  endfacet
  facet normal -1.000000e+00 1.437957e-04 -2.959631e-13
    outer loop
      vertex   -3.453905e+01 5.219655e+01 6.759873e+01
      vertex   -3.453833e+01 5.719655e+01 1.485987e+02
      vertex   -3.453833e+01 5.719655e+01 6.059873e+01
    endloop
  endfacet
  facet normal -1.000000e+00 1.437957e-04 -2.942558e-13
    outer loop
      vertex   -3.453905e+01 5.215812e+01 6.720855e+01
      vertex   -3.453833e+01 5.719655e+01 6.059873e+01
      vertex   -3.453907e+01 5.204431e+01 6.683337e+01
    endloop
  endfacet
  facet normal -1.000000e+00 1.437957e-04 -2.933207e-13
    outer loop
      vertex   -3.453905e+01 5.215812e+01 6.720855e+01
      vertex   -3.453905e+01 5.219655e+01 6.759873e+01
      vertex   -3.453833e+01 5.719655e+01 6.059873e+01
    endloop
  endfacet
  facet normal -1.000000e+00 1.437957e-04 -2.966650e-13
    outer loop
      vertex   -3.454106e+01 3.819655e+01 6.059873e+01
      vertex   -3.453933e+01 5.019655e+01 6.559873e+01
      vertex   -3.453833e+01 5.719655e+01 6.059873e+01
    endloop
  endfacet
  facet normal -1.000000e+00 1.437957e-04 -2.969644e-13
    outer loop
      vertex   -3.454106e+01 3.819655e+01 6.059873e+01
      vertex   -3.454106e+01 3.819655e+01 6.559873e+01
      vertex   -3.453933e+01 5.019655e+01 6.559873e+01
    endloop
  endfacet
  facet normal -1.000000e+00 1.437957e-04 -2.807148e-13
    outer loop
      vertex   -3.453933e+01 5.019655e+01 6.559873e+01
      vertex   -3.453928e+01 5.058673e+01 6.563716e+01
      vertex   -3.453833e+01 5.719655e+01 6.059873e+01
    endloop
  endfacet
  facet normal -1.000000e+00 1.437957e-04 -3.046050e-13
    outer loop
      vertex   -3.453833e+01 5.719655e+01 6.059873e+01
      vertex   -3.453928e+01 5.058673e+01 6.563716e+01
      vertex   -3.453922e+01 5.096192e+01 6.575097e+01
    endloop
  endfacet
  facet normal -1.000000e+00 1.437957e-04 -2.924673e-13
    outer loop
      vertex   -3.453918e+01 5.130769e+01 6.593579e+01
      vertex   -3.453833e+01 5.719655e+01 6.059873e+01
      vertex   -3.453922e+01 5.096192e+01 6.575097e+01
    endloop
  endfacet
  facet normal -1.000000e+00 1.437957e-04 -2.862262e-13
    outer loop
      vertex   -3.453918e+01 5.130769e+01 6.593579e+01
      vertex   -3.453913e+01 5.161076e+01 6.618452e+01
      vertex   -3.453833e+01 5.719655e+01 6.059873e+01
    endloop
  endfacet
  facet normal -1.000000e+00 1.437957e-04 -3.058807e-13
    outer loop
      vertex   -3.453833e+01 5.719655e+01 6.059873e+01
      vertex   -3.453913e+01 5.161076e+01 6.618452e+01
      vertex   -3.453910e+01 5.185949e+01 6.648759e+01
    endloop
  endfacet
  facet normal -1.000000e+00 1.437957e-04 -2.957327e-13
    outer loop
      vertex   -3.453907e+01 5.204431e+01 6.683337e+01
      vertex   -3.453833e+01 5.719655e+01 6.059873e+01
      vertex   -3.453910e+01 5.185949e+01 6.648759e+01
    endloop
  endfacet
  facet normal -2.961020e-13 -2.960169e-13 1.000000e+00
    outer loop
      vertex   2.145894e+01 3.818850e+01 6.559873e+01
      vertex   2.146066e+01 5.018850e+01 6.559873e+01
      vertex   9.457213e+00 2.619022e+01 6.559873e+01
    endloop
  endfacet
  facet normal -2.962810e-13 -2.951753e-13 1.000000e+00
    outer loop
      vertex   2.122803e+01 3.584745e+01 6.559873e+01
      vertex   9.457213e+00 2.619022e+01 6.559873e+01
      vertex   2.054483e+01 3.359643e+01 6.559873e+01
    endloop
  endfacet
  facet normal -2.932493e-13 -2.988705e-13 1.000000e+00
    outer loop
      vertex   2.122803e+01 3.584745e+01 6.559873e+01
      vertex   2.145894e+01 3.818850e+01 6.559873e+01
      vertex   9.457213e+00 2.619022e+01 6.559873e+01
    endloop
  endfacet
  facet normal -2.961020e-13 -2.960169e-13 1.000000e+00
    outer loop
      vertex   -3.454106e+01 3.819655e+01 6.559873e+01
      vertex   -2.254279e+01 2.619483e+01 6.559873e+01
      vertex   -3.453933e+01 5.019655e+01 6.559873e+01
    endloop
  endfacet
  facet normal -2.963115e-13 -2.962263e-13 1.000000e+00
    outer loop
      vertex   -3.454106e+01 3.819655e+01 6.559873e+01
      vertex   -3.431082e+01 3.585543e+01 6.559873e+01
      vertex   -2.254279e+01 2.619483e+01 6.559873e+01
    endloop
  endfacet
  facet normal -2.984161e-13 -2.987900e-13 1.000000e+00
    outer loop
      vertex   -2.254279e+01 2.619483e+01 6.559873e+01
      vertex   -3.431082e+01 3.585543e+01 6.559873e+01
      vertex   -3.362828e+01 3.360422e+01 6.559873e+01
    endloop
  endfacet
  facet normal -2.959695e-13 -2.951295e-13 1.000000e+00
    outer loop
      vertex   -3.251965e+01 3.152942e+01 6.559873e+01
      vertex   -2.254279e+01 2.619483e+01 6.559873e+01
      vertex   -3.362828e+01 3.360422e+01 6.559873e+01
    endloop
  endfacet
  facet normal -2.982487e-13 -2.993923e-13 1.000000e+00
    outer loop
      vertex   -3.251965e+01 3.152942e+01 6.559873e+01
      vertex   -3.102756e+01 2.971076e+01 6.559873e+01
      vertex   -2.254279e+01 2.619483e+01 6.559873e+01
    endloop
  endfacet
  facet normal -2.959668e-13 -2.938855e-13 1.000000e+00
    outer loop
      vertex   -2.254279e+01 2.619483e+01 6.559873e+01
      vertex   -3.102756e+01 2.971076e+01 6.559873e+01
      vertex   -2.920934e+01 2.821815e+01 6.559873e+01
    endloop
  endfacet
  facet normal -2.983576e-13 -3.017627e-13 1.000000e+00
    outer loop
      vertex   -2.713486e+01 2.710893e+01 6.559873e+01
      vertex   -2.254279e+01 2.619483e+01 6.559873e+01
      vertex   -2.920934e+01 2.821815e+01 6.559873e+01
    endloop
  endfacet
  facet normal -2.953843e-13 -2.868260e-13 1.000000e+00
    outer loop
      vertex   -2.713486e+01 2.710893e+01 6.559873e+01
      vertex   -2.488384e+01 2.642574e+01 6.559873e+01
      vertex   -2.254279e+01 2.619483e+01 6.559873e+01
    endloop
  endfacet
  facet normal -2.958060e-13 -2.958689e-13 1.000000e+00
    outer loop
      vertex   -2.254279e+01 2.619483e+01 6.559873e+01
      vertex   9.457213e+00 2.619022e+01 6.559873e+01
      vertex   -3.453933e+01 5.019655e+01 6.559873e+01
    endloop
  endfacet
  facet normal -2.959329e-13 -2.961015e-13 1.000000e+00
    outer loop
      vertex   -3.453933e+01 5.019655e+01 6.559873e+01
      vertex   9.457213e+00 2.619022e+01 6.559873e+01
      vertex   2.146066e+01 5.018850e+01 6.559873e+01
    endloop
  endfacet
  facet normal -3.002871e-13 -2.796170e-13 1.000000e+00
    outer loop
      vertex   1.179833e+01 2.642046e+01 6.559873e+01
      vertex   1.404955e+01 2.710301e+01 6.559873e+01
      vertex   9.457213e+00 2.619022e+01 6.559873e+01
    endloop
  endfacet
  facet normal -2.988907e-13 -2.866425e-13 1.000000e+00
    outer loop
      vertex   9.457213e+00 2.619022e+01 6.559873e+01
      vertex   1.404955e+01 2.710301e+01 6.559873e+01
      vertex   1.612435e+01 2.821163e+01 6.559873e+01
    endloop
  endfacet
  facet normal -2.959018e-13 -2.965006e-13 1.000000e+00
    outer loop
      vertex   1.794300e+01 2.970372e+01 6.559873e+01
      vertex   9.457213e+00 2.619022e+01 6.559873e+01
      vertex   1.612435e+01 2.821163e+01 6.559873e+01
    endloop
  endfacet
  facet normal -2.959787e-13 -2.963147e-13 1.000000e+00
    outer loop
      vertex   1.794300e+01 2.970372e+01 6.559873e+01
      vertex   1.943562e+01 3.152195e+01 6.559873e+01
      vertex   9.457213e+00 2.619022e+01 6.559873e+01
    endloop
  endfacet
  facet normal -2.978134e-13 -2.928811e-13 1.000000e+00
    outer loop
      vertex   9.457213e+00 2.619022e+01 6.559873e+01
      vertex   1.943562e+01 3.152195e+01 6.559873e+01
      vertex   2.054483e+01 3.359643e+01 6.559873e+01
    endloop
  endfacet
  facet normal -1.437957e-04 -1.000000e+00 -2.963388e-13
    outer loop
      vertex   9.457213e+00 2.619022e+01 6.559873e+01
      vertex   -2.254279e+01 2.619483e+01 6.559873e+01
      vertex   9.457213e+00 2.619022e+01 6.059873e+01
    endloop
  endfacet
  facet normal -1.437957e-04 -1.000000e+00 -2.956283e-13
    outer loop
      vertex   9.457213e+00 2.619022e+01 6.059873e+01
      vertex   -2.254279e+01 2.619483e+01 6.559873e+01
      vertex   -2.254279e+01 2.619483e+01 6.059873e+01
    endloop
  endfacet
  facet normal -9.816024e-02 -9.951706e-01 -3.231732e-13
    outer loop
      vertex   -2.254279e+01 2.619483e+01 6.559873e+01
      vertex   -2.488384e+01 2.642574e+01 6.559873e+01
      vertex   -2.254279e+01 2.619483e+01 6.059873e+01
    endloop
  endfacet
  facet normal -9.816024e-02 -9.951706e-01 -3.232428e-13
    outer loop
      vertex   -2.254279e+01 2.619483e+01 6.059873e+01
      vertex   -2.488384e+01 2.642574e+01 6.559873e+01
      vertex   -2.488384e+01 2.642574e+01 6.059873e+01
    endloop
  endfacet
  facet normal -2.904223e-01 -9.568986e-01 -3.688967e-13
    outer loop
      vertex   -2.488384e+01 2.642574e+01 6.059873e+01
      vertex   -2.488384e+01 2.642574e+01 6.559873e+01
      vertex   -2.713486e+01 2.710893e+01 6.559873e+01
    endloop
  endfacet
  facet normal -4.715235e-01 -8.818535e-01 -4.003740e-13
    outer loop
      vertex   -2.713486e+01 2.710893e+01 6.059873e+01
      vertex   -2.713486e+01 2.710893e+01 6.559873e+01
      vertex   -2.920934e+01 2.821815e+01 6.559873e+01
    endloop
  endfacet
  facet normal -6.345044e-01 -7.729192e-01 -4.170145e-13
    outer loop
      vertex   -2.920934e+01 2.821815e+01 6.059873e+01
      vertex   -2.920934e+01 2.821815e+01 6.559873e+01
      vertex   -3.102756e+01 2.971076e+01 6.559873e+01
    endloop
  endfacet
  facet normal -7.731017e-01 -6.342821e-01 -4.170026e-13
    outer loop
      vertex   -3.102756e+01 2.971076e+01 6.059873e+01
      vertex   -3.102756e+01 2.971076e+01 6.559873e+01
      vertex   -3.251965e+01 3.152942e+01 6.559873e+01
    endloop
  endfacet
  facet normal -8.819890e-01 -4.712699e-01 -3.996692e-13
    outer loop
      vertex   -3.251965e+01 3.152942e+01 6.059873e+01
      vertex   -3.251965e+01 3.152942e+01 6.559873e+01
      vertex   -3.362828e+01 3.360422e+01 6.559873e+01
    endloop
  endfacet
  facet normal -9.569821e-01 -2.901471e-01 -3.690460e-13
    outer loop
      vertex   -3.362828e+01 3.360422e+01 6.059873e+01
      vertex   -3.362828e+01 3.360422e+01 6.559873e+01
      vertex   -3.431082e+01 3.585543e+01 6.559873e+01
    endloop
  endfacet
  facet normal -9.951988e-01 -9.787404e-02 -3.230968e-13
    outer loop
      vertex   -3.431082e+01 3.585543e+01 6.059873e+01
      vertex   -3.431082e+01 3.585543e+01 6.559873e+01
      vertex   -3.454106e+01 3.819655e+01 6.559873e+01
    endloop
  endfacet
  facet normal -9.951988e-01 -9.787404e-02 -3.245041e-13
    outer loop
      vertex   -3.454106e+01 3.819655e+01 6.059873e+01
      vertex   -3.431082e+01 3.585543e+01 6.059873e+01
      vertex   -3.454106e+01 3.819655e+01 6.559873e+01
    endloop
  endfacet
  facet normal -9.569821e-01 -2.901471e-01 -3.686315e-13
    outer loop
      vertex   -3.431082e+01 3.585543e+01 6.059873e+01
      vertex   -3.362828e+01 3.360422e+01 6.059873e+01
      vertex   -3.431082e+01 3.585543e+01 6.559873e+01
    endloop
  endfacet
  facet normal -8.819890e-01 -4.712699e-01 -4.006676e-13
    outer loop
      vertex   -3.362828e+01 3.360422e+01 6.059873e+01
      vertex   -3.251965e+01 3.152942e+01 6.059873e+01
      vertex   -3.362828e+01 3.360422e+01 6.559873e+01
    endloop
  endfacet
  facet normal -7.731017e-01 -6.342821e-01 -4.155812e-13
    outer loop
      vertex   -3.251965e+01 3.152942e+01 6.059873e+01
      vertex   -3.102756e+01 2.971076e+01 6.059873e+01
      vertex   -3.251965e+01 3.152942e+01 6.559873e+01
    endloop
  endfacet
  facet normal -6.345044e-01 -7.729192e-01 -4.170160e-13
    outer loop
      vertex   -3.102756e+01 2.971076e+01 6.059873e+01
      vertex   -2.920934e+01 2.821815e+01 6.059873e+01
      vertex   -3.102756e+01 2.971076e+01 6.559873e+01
    endloop
  endfacet
  facet normal -4.715235e-01 -8.818535e-01 -4.010074e-13
    outer loop
      vertex   -2.920934e+01 2.821815e+01 6.059873e+01
      vertex   -2.713486e+01 2.710893e+01 6.059873e+01
      vertex   -2.920934e+01 2.821815e+01 6.559873e+01
    endloop
  endfacet
  facet normal -2.904223e-01 -9.568986e-01 -3.688958e-13
    outer loop
      vertex   -2.713486e+01 2.710893e+01 6.059873e+01
      vertex   -2.488384e+01 2.642574e+01 6.059873e+01
      vertex   -2.713486e+01 2.710893e+01 6.559873e+01
    endloop
  endfacet
  facet normal 4.906767e-02 -7.055722e-06 9.987955e-01
    outer loop
      vertex   4.461671e+00 5.719094e+01 1.655987e+02
      vertex   4.460952e+00 5.219094e+01 1.655987e+02
      vertex   6.127963e+00 5.719070e+01 1.655169e+02
    endloop
  endfacet
  facet normal 4.906767e-02 -7.055722e-06 9.987955e-01
    outer loop
      vertex   6.127963e+00 5.719070e+01 1.655169e+02
      vertex   4.460952e+00 5.219094e+01 1.655987e+02
      vertex   6.127244e+00 5.219070e+01 1.655169e+02
    endloop
  endfacet
  facet normal 1.467305e-01 -2.109922e-05 9.891765e-01
    outer loop
      vertex   7.777488e+00 5.219047e+01 1.652721e+02
      vertex   6.127963e+00 5.719070e+01 1.655169e+02
      vertex   6.127244e+00 5.219070e+01 1.655169e+02
    endloop
  endfacet
  facet normal 1.467305e-01 -2.109922e-05 9.891765e-01
    outer loop
      vertex   7.777488e+00 5.219047e+01 1.652721e+02
      vertex   7.778207e+00 5.719047e+01 1.652721e+02
      vertex   6.127963e+00 5.719070e+01 1.655169e+02
    endloop
  endfacet
  facet normal 2.429802e-01 -3.493951e-05 9.700313e-01
    outer loop
      vertex   7.777488e+00 5.219047e+01 1.652721e+02
      vertex   9.395792e+00 5.219023e+01 1.648667e+02
      vertex   7.778207e+00 5.719047e+01 1.652721e+02
    endloop
  endfacet
  facet normal 2.429802e-01 -3.493951e-05 9.700313e-01
    outer loop
      vertex   7.778207e+00 5.719047e+01 1.652721e+02
      vertex   9.395792e+00 5.219023e+01 1.648667e+02
      vertex   9.396511e+00 5.719023e+01 1.648667e+02
    endloop
  endfacet
  facet normal 3.368898e-01 -4.844332e-05 9.415441e-01
    outer loop
      vertex   9.396511e+00 5.719023e+01 1.648667e+02
      vertex   9.395792e+00 5.219023e+01 1.648667e+02
      vertex   1.096729e+01 5.719001e+01 1.643047e+02
    endloop
  endfacet
  facet normal 3.368898e-01 -4.844332e-05 9.415441e-01
    outer loop
      vertex   1.096729e+01 5.719001e+01 1.643047e+02
      vertex   9.395792e+00 5.219023e+01 1.648667e+02
      vertex   1.096657e+01 5.219001e+01 1.643047e+02
    endloop
  endfacet
  facet normal 4.275551e-01 -6.148060e-05 9.039893e-01
    outer loop
      vertex   1.247542e+01 5.718979e+01 1.635914e+02
      vertex   1.096657e+01 5.219001e+01 1.643047e+02
      vertex   1.247470e+01 5.218979e+01 1.635914e+02
    endloop
  endfacet
  facet normal 5.141027e-01 -7.392578e-05 8.577286e-01
    outer loop
      vertex   1.390565e+01 5.218958e+01 1.627337e+02
      vertex   1.247542e+01 5.718979e+01 1.635914e+02
      vertex   1.247470e+01 5.218979e+01 1.635914e+02
    endloop
  endfacet
  facet normal 5.141027e-01 -7.392578e-05 8.577286e-01
    outer loop
      vertex   1.390565e+01 5.218958e+01 1.627337e+02
      vertex   1.390637e+01 5.718958e+01 1.627337e+02
      vertex   1.247542e+01 5.718979e+01 1.635914e+02
    endloop
  endfacet
  facet normal 5.956993e-01 -8.565902e-05 8.032075e-01
    outer loop
      vertex   1.390565e+01 5.218958e+01 1.627337e+02
      vertex   1.524564e+01 5.218939e+01 1.617399e+02
      vertex   1.390637e+01 5.718958e+01 1.627337e+02
    endloop
  endfacet
  facet normal 5.956993e-01 -8.565902e-05 8.032075e-01
    outer loop
      vertex   1.390637e+01 5.718958e+01 1.627337e+02
      vertex   1.524564e+01 5.218939e+01 1.617399e+02
      vertex   1.524636e+01 5.718939e+01 1.617399e+02
    endloop
  endfacet
  facet normal 6.715589e-01 -9.656731e-05 7.409511e-01
    outer loop
      vertex   1.524636e+01 5.718939e+01 1.617399e+02
      vertex   1.524564e+01 5.218939e+01 1.617399e+02
      vertex   1.648249e+01 5.718921e+01 1.606195e+02
    endloop
  endfacet
  facet normal 6.715589e-01 -9.656731e-05 7.409511e-01
    outer loop
      vertex   1.648249e+01 5.718921e+01 1.606195e+02
      vertex   1.524564e+01 5.218939e+01 1.617399e+02
      vertex   1.648177e+01 5.218921e+01 1.606195e+02
    endloop
  endfacet
  facet normal 7.409511e-01 -1.065456e-04 6.715590e-01
    outer loop
      vertex   1.760285e+01 5.718905e+01 1.593834e+02
      vertex   1.648177e+01 5.218921e+01 1.606195e+02
      vertex   1.760213e+01 5.218905e+01 1.593834e+02
    endloop
  endfacet
  facet normal 8.032075e-01 -1.154978e-04 5.956993e-01
    outer loop
      vertex   1.859594e+01 5.218891e+01 1.580434e+02
      vertex   1.760285e+01 5.718905e+01 1.593834e+02
      vertex   1.760213e+01 5.218905e+01 1.593834e+02
    endloop
  endfacet
  facet normal 8.032075e-01 -1.154978e-04 5.956993e-01
    outer loop
      vertex   1.859594e+01 5.218891e+01 1.580434e+02
      vertex   1.859665e+01 5.718891e+01 1.580434e+02
      vertex   1.760285e+01 5.718905e+01 1.593834e+02
    endloop
  endfacet
  facet normal 8.577286e-01 -1.233377e-04 5.141027e-01
    outer loop
      vertex   1.859594e+01 5.218891e+01 1.580434e+02
      vertex   1.945361e+01 5.218879e+01 1.566125e+02
      vertex   1.859665e+01 5.718891e+01 1.580434e+02
    endloop
  endfacet
  facet normal 8.577286e-01 -1.233377e-04 5.141027e-01
    outer loop
      vertex   1.859665e+01 5.718891e+01 1.580434e+02
      vertex   1.945361e+01 5.218879e+01 1.566125e+02
      vertex   1.945433e+01 5.718879e+01 1.566125e+02
    endloop
  endfacet
  facet normal 9.039893e-01 -1.299898e-04 4.275551e-01
    outer loop
      vertex   1.945433e+01 5.718879e+01 1.566125e+02
      vertex   1.945361e+01 5.218879e+01 1.566125e+02
      vertex   2.016762e+01 5.718868e+01 1.551043e+02
    endloop
  endfacet
  facet normal 9.039893e-01 -1.299898e-04 4.275551e-01
    outer loop
      vertex   2.016762e+01 5.718868e+01 1.551043e+02
      vertex   1.945361e+01 5.218879e+01 1.566125e+02
      vertex   2.016690e+01 5.218868e+01 1.551043e+02
    endloop
  endfacet
  facet normal 9.415441e-01 -1.353900e-04 3.368899e-01
    outer loop
      vertex   2.072966e+01 5.718860e+01 1.535336e+02
      vertex   2.016690e+01 5.218868e+01 1.551043e+02
      vertex   2.072894e+01 5.218860e+01 1.535336e+02
    endloop
  endfacet
  facet normal 9.700312e-01 -1.394864e-04 2.429802e-01
    outer loop
      vertex   2.113430e+01 5.218854e+01 1.519153e+02
      vertex   2.072966e+01 5.718860e+01 1.535336e+02
      vertex   2.072894e+01 5.218860e+01 1.535336e+02
    endloop
  endfacet
  facet normal 9.700312e-01 -1.394864e-04 2.429802e-01
    outer loop
      vertex   2.113430e+01 5.218854e+01 1.519153e+02
      vertex   2.113502e+01 5.718854e+01 1.519153e+02
      vertex   2.072966e+01 5.718860e+01 1.535336e+02
    endloop
  endfacet
  facet normal 9.891765e-01 -1.422394e-04 1.467305e-01
    outer loop
      vertex   2.113430e+01 5.218854e+01 1.519153e+02
      vertex   2.137909e+01 5.218851e+01 1.502650e+02
      vertex   2.113502e+01 5.718854e+01 1.519153e+02
    endloop
  endfacet
  facet normal 9.891765e-01 -1.422394e-04 1.467305e-01
    outer loop
      vertex   2.113502e+01 5.718854e+01 1.519153e+02
      vertex   2.137909e+01 5.218851e+01 1.502650e+02
      vertex   2.137981e+01 5.718851e+01 1.502650e+02
    endloop
  endfacet
  facet normal 9.987954e-01 -1.436225e-04 4.906767e-02
    outer loop
      vertex   2.137981e+01 5.718851e+01 1.502650e+02
      vertex   2.137909e+01 5.218851e+01 1.502650e+02
      vertex   2.146167e+01 5.718850e+01 1.485987e+02
    endloop
  endfacet
  facet normal 9.987954e-01 -1.436225e-04 4.906767e-02
    outer loop
      vertex   2.146167e+01 5.718850e+01 1.485987e+02
      vertex   2.137909e+01 5.218851e+01 1.502650e+02
      vertex   2.146095e+01 5.218850e+01 1.485987e+02
    endloop
  endfacet
  facet normal 9.415441e-01 -1.353900e-04 3.368899e-01
    outer loop
      vertex   2.072966e+01 5.718860e+01 1.535336e+02
      vertex   2.016762e+01 5.718868e+01 1.551043e+02
      vertex   2.016690e+01 5.218868e+01 1.551043e+02
    endloop
  endfacet
  facet normal 7.409511e-01 -1.065456e-04 6.715590e-01
    outer loop
      vertex   1.760285e+01 5.718905e+01 1.593834e+02
      vertex   1.648249e+01 5.718921e+01 1.606195e+02
      vertex   1.648177e+01 5.218921e+01 1.606195e+02
    endloop
  endfacet
  facet normal 4.275551e-01 -6.148060e-05 9.039893e-01
    outer loop
      vertex   1.247542e+01 5.718979e+01 1.635914e+02
      vertex   1.096729e+01 5.719001e+01 1.643047e+02
      vertex   1.096657e+01 5.219001e+01 1.643047e+02
    endloop
  endfacet
  facet normal -2.945948e-13 -2.955434e-13 1.000000e+00
    outer loop
      vertex   4.461671e+00 5.719094e+01 1.655987e+02
      vertex   -1.753833e+01 5.719411e+01 1.655987e+02
      vertex   4.460952e+00 5.219094e+01 1.655987e+02
    endloop
  endfacet
  facet normal -2.945948e-13 -2.955434e-13 1.000000e+00
    outer loop
      vertex   4.460952e+00 5.219094e+01 1.655987e+02
      vertex   -1.753833e+01 5.719411e+01 1.655987e+02
      vertex   -1.753905e+01 5.219411e+01 1.655987e+02
    endloop
  endfacet
  facet normal -9.951847e-01 1.431033e-04 9.801714e-02
    outer loop
      vertex   -1.288230e+00 5.719177e+01 1.425987e+02
      vertex   -1.389110e+00 5.719178e+01 1.415745e+02
      vertex   -1.288949e+00 5.219177e+01 1.425987e+02
    endloop
  endfacet
  facet normal -9.951847e-01 1.431033e-04 9.801714e-02
    outer loop
      vertex   -1.288949e+00 5.219177e+01 1.425987e+02
      vertex   -1.389110e+00 5.719178e+01 1.415745e+02
      vertex   -1.389829e+00 5.219178e+01 1.415745e+02
    endloop
  endfacet
  facet normal -9.569403e-01 1.376039e-04 2.902847e-01
    outer loop
      vertex   -1.389829e+00 5.219178e+01 1.415745e+02
      vertex   -1.389110e+00 5.719178e+01 1.415745e+02
      vertex   -1.687870e+00 5.719183e+01 1.405896e+02
    endloop
  endfacet
  facet normal -8.819213e-01 1.268165e-04 4.713967e-01
    outer loop
      vertex   -1.688589e+00 5.219183e+01 1.405896e+02
      vertex   -1.687870e+00 5.719183e+01 1.405896e+02
      vertex   -2.173032e+00 5.719190e+01 1.396819e+02
    endloop
  endfacet
  facet normal -7.730104e-01 1.111556e-04 6.343933e-01
    outer loop
      vertex   -2.173750e+00 5.219190e+01 1.396819e+02
      vertex   -2.173032e+00 5.719190e+01 1.396819e+02
      vertex   -2.826668e+00 5.219199e+01 1.388863e+02
    endloop
  endfacet
  facet normal -8.819213e-01 1.268165e-04 4.713967e-01
    outer loop
      vertex   -2.173750e+00 5.219190e+01 1.396819e+02
      vertex   -1.688589e+00 5.219183e+01 1.405896e+02
      vertex   -2.173032e+00 5.719190e+01 1.396819e+02
    endloop
  endfacet
  facet normal -7.730104e-01 1.111556e-04 6.343933e-01
    outer loop
      vertex   -2.173032e+00 5.719190e+01 1.396819e+02
      vertex   -2.825949e+00 5.719199e+01 1.388863e+02
      vertex   -2.826668e+00 5.219199e+01 1.388863e+02
    endloop
  endfacet
  facet normal -6.343933e-01 9.122304e-05 7.730105e-01
    outer loop
      vertex   -2.826668e+00 5.219199e+01 1.388863e+02
      vertex   -2.825949e+00 5.719199e+01 1.388863e+02
      vertex   -3.621530e+00 5.719210e+01 1.382334e+02
    endloop
  endfacet
  facet normal -4.713967e-01 6.778484e-05 8.819213e-01
    outer loop
      vertex   -3.622249e+00 5.219210e+01 1.382334e+02
      vertex   -3.621530e+00 5.719210e+01 1.382334e+02
      vertex   -4.529203e+00 5.719224e+01 1.377483e+02
    endloop
  endfacet
  facet normal -2.902847e-01 4.174170e-05 9.569403e-01
    outer loop
      vertex   -4.529922e+00 5.219224e+01 1.377483e+02
      vertex   -4.529203e+00 5.719224e+01 1.377483e+02
      vertex   -5.514085e+00 5.719238e+01 1.374495e+02
    endloop
  endfacet
  facet normal -9.801714e-02 1.409445e-05 9.951847e-01
    outer loop
      vertex   -5.514804e+00 5.219238e+01 1.374495e+02
      vertex   -5.514085e+00 5.719238e+01 1.374495e+02
      vertex   -6.538329e+00 5.719252e+01 1.373486e+02
    endloop
  endfacet
  facet normal 9.801714e-02 -1.409445e-05 9.951847e-01
    outer loop
      vertex   -6.539048e+00 5.219252e+01 1.373486e+02
      vertex   -6.538329e+00 5.719252e+01 1.373486e+02
      vertex   -7.562572e+00 5.719267e+01 1.374495e+02
    endloop
  endfacet
  facet normal 2.902847e-01 -4.174170e-05 9.569403e-01
    outer loop
      vertex   -7.563291e+00 5.219267e+01 1.374495e+02
      vertex   -7.562572e+00 5.719267e+01 1.374495e+02
      vertex   -8.548173e+00 5.219281e+01 1.377483e+02
    endloop
  endfacet
  facet normal 9.801714e-02 -1.409445e-05 9.951847e-01
    outer loop
      vertex   -7.563291e+00 5.219267e+01 1.374495e+02
      vertex   -6.539048e+00 5.219252e+01 1.373486e+02
      vertex   -7.562572e+00 5.719267e+01 1.374495e+02
    endloop
  endfacet
  facet normal 2.902847e-01 -4.174170e-05 9.569403e-01
    outer loop
      vertex   -7.562572e+00 5.719267e+01 1.374495e+02
      vertex   -8.547454e+00 5.719281e+01 1.377483e+02
      vertex   -8.548173e+00 5.219281e+01 1.377483e+02
    endloop
  endfacet
  facet normal 4.713967e-01 -6.778484e-05 8.819213e-01
    outer loop
      vertex   -8.548173e+00 5.219281e+01 1.377483e+02
      vertex   -8.547454e+00 5.719281e+01 1.377483e+02
      vertex   -9.455127e+00 5.719294e+01 1.382334e+02
    endloop
  endfacet
  facet normal 6.343933e-01 -9.122305e-05 7.730105e-01
    outer loop
      vertex   -9.455846e+00 5.219294e+01 1.382334e+02
      vertex   -9.455127e+00 5.719294e+01 1.382334e+02
      vertex   -1.025071e+01 5.719306e+01 1.388863e+02
    endloop
  endfacet
  facet normal 7.730104e-01 -1.111556e-04 6.343933e-01
    outer loop
      vertex   -1.025143e+01 5.219306e+01 1.388863e+02
      vertex   -1.025071e+01 5.719306e+01 1.388863e+02
      vertex   -1.090363e+01 5.719315e+01 1.396819e+02
    endloop
  endfacet
  facet normal 8.819213e-01 -1.268165e-04 4.713967e-01
    outer loop
      vertex   -1.090434e+01 5.219315e+01 1.396819e+02
      vertex   -1.090363e+01 5.719315e+01 1.396819e+02
      vertex   -1.138879e+01 5.719322e+01 1.405896e+02
    endloop
  endfacet
  facet normal 9.569403e-01 -1.376039e-04 2.902847e-01
    outer loop
      vertex   -1.138951e+01 5.219322e+01 1.405896e+02
      vertex   -1.138879e+01 5.719322e+01 1.405896e+02
      vertex   -1.168755e+01 5.719326e+01 1.415745e+02
    endloop
  endfacet
  facet normal 9.951847e-01 -1.431033e-04 9.801714e-02
    outer loop
      vertex   -1.168827e+01 5.219326e+01 1.415745e+02
      vertex   -1.168755e+01 5.719326e+01 1.415745e+02
      vertex   -1.178869e+01 5.533487e+01 1.425987e+02
    endloop
  endfacet
  facet normal 9.951847e-01 -1.431033e-04 9.801714e-02
    outer loop
      vertex   -1.178915e+01 5.219328e+01 1.425987e+02
      vertex   -1.168827e+01 5.219326e+01 1.415745e+02
      vertex   -1.178869e+01 5.533487e+01 1.425987e+02
    endloop
  endfacet
  facet normal 9.951847e-01 -1.431033e-04 9.801714e-02
    outer loop
      vertex   -1.168755e+01 5.719326e+01 1.415745e+02
      vertex   -1.178843e+01 5.719328e+01 1.425987e+02
      vertex   -1.178869e+01 5.533487e+01 1.425987e+02
    endloop
  endfacet
  facet normal 9.569403e-01 -1.376039e-04 2.902847e-01
    outer loop
      vertex   -1.168827e+01 5.219326e+01 1.415745e+02
      vertex   -1.138951e+01 5.219322e+01 1.405896e+02
      vertex   -1.168755e+01 5.719326e+01 1.415745e+02
    endloop
  endfacet
  facet normal 8.819213e-01 -1.268165e-04 4.713967e-01
    outer loop
      vertex   -1.138951e+01 5.219322e+01 1.405896e+02
      vertex   -1.090434e+01 5.219315e+01 1.396819e+02
      vertex   -1.138879e+01 5.719322e+01 1.405896e+02
    endloop
  endfacet
  facet normal 7.730104e-01 -1.111556e-04 6.343933e-01
    outer loop
      vertex   -1.090434e+01 5.219315e+01 1.396819e+02
      vertex   -1.025143e+01 5.219306e+01 1.388863e+02
      vertex   -1.090363e+01 5.719315e+01 1.396819e+02
    endloop
  endfacet
  facet normal 6.343933e-01 -9.122305e-05 7.730105e-01
    outer loop
      vertex   -1.025143e+01 5.219306e+01 1.388863e+02
      vertex   -9.455846e+00 5.219294e+01 1.382334e+02
      vertex   -1.025071e+01 5.719306e+01 1.388863e+02
    endloop
  endfacet
  facet normal 4.713967e-01 -6.778484e-05 8.819213e-01
    outer loop
      vertex   -9.455846e+00 5.219294e+01 1.382334e+02
      vertex   -8.548173e+00 5.219281e+01 1.377483e+02
      vertex   -9.455127e+00 5.719294e+01 1.382334e+02
    endloop
  endfacet
  facet normal -9.801714e-02 1.409445e-05 9.951847e-01
    outer loop
      vertex   -6.539048e+00 5.219252e+01 1.373486e+02
      vertex   -5.514804e+00 5.219238e+01 1.374495e+02
      vertex   -6.538329e+00 5.719252e+01 1.373486e+02
    endloop
  endfacet
  facet normal -2.902847e-01 4.174170e-05 9.569403e-01
    outer loop
      vertex   -5.514804e+00 5.219238e+01 1.374495e+02
      vertex   -4.529922e+00 5.219224e+01 1.377483e+02
      vertex   -5.514085e+00 5.719238e+01 1.374495e+02
    endloop
  endfacet
  facet normal -4.713967e-01 6.778484e-05 8.819213e-01
    outer loop
      vertex   -4.529922e+00 5.219224e+01 1.377483e+02
      vertex   -3.622249e+00 5.219210e+01 1.382334e+02
      vertex   -4.529203e+00 5.719224e+01 1.377483e+02
    endloop
  endfacet
  facet normal -6.343933e-01 9.122304e-05 7.730105e-01
    outer loop
      vertex   -3.622249e+00 5.219210e+01 1.382334e+02
      vertex   -2.826668e+00 5.219199e+01 1.388863e+02
      vertex   -3.621530e+00 5.719210e+01 1.382334e+02
    endloop
  endfacet
  facet normal -9.569403e-01 1.376039e-04 2.902847e-01
    outer loop
      vertex   -1.688589e+00 5.219183e+01 1.405896e+02
      vertex   -1.389829e+00 5.219178e+01 1.415745e+02
      vertex   -1.687870e+00 5.719183e+01 1.405896e+02
    endloop
  endfacet
  facet normal -9.951847e-01 1.431033e-04 -9.801714e-02
    outer loop
      vertex   -1.288949e+00 5.219177e+01 1.425987e+02
      vertex   -1.389829e+00 5.219178e+01 1.436230e+02
      vertex   -1.288230e+00 5.719177e+01 1.425987e+02
    endloop
  endfacet
  facet normal -9.951847e-01 1.431033e-04 -9.801714e-02
    outer loop
      vertex   -1.288230e+00 5.719177e+01 1.425987e+02
      vertex   -1.389829e+00 5.219178e+01 1.436230e+02
      vertex   -1.389110e+00 5.719178e+01 1.436230e+02
    endloop
  endfacet
  facet normal -9.569403e-01 1.376039e-04 -2.902847e-01
    outer loop
      vertex   -1.389110e+00 5.719178e+01 1.436230e+02
      vertex   -1.389829e+00 5.219178e+01 1.436230e+02
      vertex   -1.688589e+00 5.219183e+01 1.446078e+02
    endloop
  endfacet
  facet normal -8.819213e-01 1.268165e-04 -4.713967e-01
    outer loop
      vertex   -1.687870e+00 5.719183e+01 1.446078e+02
      vertex   -1.688589e+00 5.219183e+01 1.446078e+02
      vertex   -2.173750e+00 5.219190e+01 1.455155e+02
    endloop
  endfacet
  facet normal -7.730104e-01 1.111556e-04 -6.343933e-01
    outer loop
      vertex   -2.173032e+00 5.719190e+01 1.455155e+02
      vertex   -2.173750e+00 5.219190e+01 1.455155e+02
      vertex   -2.825949e+00 5.719199e+01 1.463111e+02
    endloop
  endfacet
  facet normal -8.819213e-01 1.268165e-04 -4.713967e-01
    outer loop
      vertex   -2.173032e+00 5.719190e+01 1.455155e+02
      vertex   -1.687870e+00 5.719183e+01 1.446078e+02
      vertex   -2.173750e+00 5.219190e+01 1.455155e+02
    endloop
  endfacet
  facet normal -7.730104e-01 1.111556e-04 -6.343933e-01
    outer loop
      vertex   -2.173750e+00 5.219190e+01 1.455155e+02
      vertex   -2.826668e+00 5.219199e+01 1.463111e+02
      vertex   -2.825949e+00 5.719199e+01 1.463111e+02
    endloop
  endfacet
  facet normal -6.343933e-01 9.122305e-05 -7.730105e-01
    outer loop
      vertex   -2.825949e+00 5.719199e+01 1.463111e+02
      vertex   -2.826668e+00 5.219199e+01 1.463111e+02
      vertex   -3.622249e+00 5.219210e+01 1.469640e+02
    endloop
  endfacet
  facet normal -4.713967e-01 6.778484e-05 -8.819213e-01
    outer loop
      vertex   -3.621530e+00 5.719210e+01 1.469640e+02
      vertex   -3.622249e+00 5.219210e+01 1.469640e+02
      vertex   -4.529922e+00 5.219224e+01 1.474492e+02
    endloop
  endfacet
  facet normal -2.902847e-01 4.174170e-05 -9.569403e-01
    outer loop
      vertex   -4.529203e+00 5.719224e+01 1.474492e+02
      vertex   -4.529922e+00 5.219224e+01 1.474492e+02
      vertex   -5.514804e+00 5.219238e+01 1.477479e+02
    endloop
  endfacet
  facet normal -9.801714e-02 1.409445e-05 -9.951847e-01
    outer loop
      vertex   -5.514085e+00 5.719238e+01 1.477479e+02
      vertex   -5.514804e+00 5.219238e+01 1.477479e+02
      vertex   -6.539048e+00 5.219252e+01 1.478488e+02
    endloop
  endfacet
  facet normal 9.801714e-02 -1.409445e-05 -9.951847e-01
    outer loop
      vertex   -6.538329e+00 5.719252e+01 1.478488e+02
      vertex   -6.539048e+00 5.219252e+01 1.478488e+02
      vertex   -7.563291e+00 5.219267e+01 1.477479e+02
    endloop
  endfacet
  facet normal 2.902847e-01 -4.174170e-05 -9.569403e-01
    outer loop
      vertex   -7.562572e+00 5.719267e+01 1.477479e+02
      vertex   -7.563291e+00 5.219267e+01 1.477479e+02
      vertex   -8.547454e+00 5.719281e+01 1.474492e+02
    endloop
  endfacet
  facet normal 9.801714e-02 -1.409445e-05 -9.951847e-01
    outer loop
      vertex   -7.562572e+00 5.719267e+01 1.477479e+02
      vertex   -6.538329e+00 5.719252e+01 1.478488e+02
      vertex   -7.563291e+00 5.219267e+01 1.477479e+02
    endloop
  endfacet
  facet normal 2.902847e-01 -4.174170e-05 -9.569403e-01
    outer loop
      vertex   -7.563291e+00 5.219267e+01 1.477479e+02
      vertex   -8.548173e+00 5.219281e+01 1.474492e+02
      vertex   -8.547454e+00 5.719281e+01 1.474492e+02
    endloop
  endfacet
  facet normal 4.713967e-01 -6.778484e-05 -8.819213e-01
    outer loop
      vertex   -8.547454e+00 5.719281e+01 1.474492e+02
      vertex   -8.548173e+00 5.219281e+01 1.474492e+02
      vertex   -9.455846e+00 5.219294e+01 1.469640e+02
    endloop
  endfacet
  facet normal 6.343933e-01 -9.122304e-05 -7.730105e-01
    outer loop
      vertex   -9.455127e+00 5.719294e+01 1.469640e+02
      vertex   -9.455846e+00 5.219294e+01 1.469640e+02
      vertex   -1.025143e+01 5.219306e+01 1.463111e+02
    endloop
  endfacet
  facet normal 7.730104e-01 -1.111556e-04 -6.343933e-01
    outer loop
      vertex   -1.025071e+01 5.719306e+01 1.463111e+02
      vertex   -1.025143e+01 5.219306e+01 1.463111e+02
      vertex   -1.090434e+01 5.219315e+01 1.455155e+02
    endloop
  endfacet
  facet normal 8.819213e-01 -1.268165e-04 -4.713967e-01
    outer loop
      vertex   -1.090363e+01 5.719315e+01 1.455155e+02
      vertex   -1.090434e+01 5.219315e+01 1.455155e+02
      vertex   -1.138951e+01 5.219322e+01 1.446078e+02
    endloop
  endfacet
  facet normal 9.569403e-01 -1.376039e-04 -2.902847e-01
    outer loop
      vertex   -1.138879e+01 5.719322e+01 1.446078e+02
      vertex   -1.138951e+01 5.219322e+01 1.446078e+02
      vertex   -1.168827e+01 5.219326e+01 1.436230e+02
    endloop
  endfacet
  facet normal 9.951847e-01 -1.431033e-04 -9.801714e-02
    outer loop
      vertex   -1.168755e+01 5.719326e+01 1.436230e+02
      vertex   -1.168827e+01 5.219326e+01 1.436230e+02
      vertex   -1.178869e+01 5.533487e+01 1.425987e+02
    endloop
  endfacet
  facet normal 9.951847e-01 -1.431033e-04 -9.801714e-02
    outer loop
      vertex   -1.178843e+01 5.719328e+01 1.425987e+02
      vertex   -1.168755e+01 5.719326e+01 1.436230e+02
      vertex   -1.178869e+01 5.533487e+01 1.425987e+02
    endloop
  endfacet
  facet normal 9.951847e-01 -1.431033e-04 -9.801714e-02
    outer loop
      vertex   -1.168827e+01 5.219326e+01 1.436230e+02
      vertex   -1.178915e+01 5.219328e+01 1.425987e+02
      vertex   -1.178869e+01 5.533487e+01 1.425987e+02
    endloop
  endfacet
  facet normal 9.569403e-01 -1.376039e-04 -2.902847e-01
    outer loop
      vertex   -1.168755e+01 5.719326e+01 1.436230e+02
      vertex   -1.138879e+01 5.719322e+01 1.446078e+02
      vertex   -1.168827e+01 5.219326e+01 1.436230e+02
    endloop
  endfacet
  facet normal 8.819213e-01 -1.268165e-04 -4.713967e-01
    outer loop
      vertex   -1.138879e+01 5.719322e+01 1.446078e+02
      vertex   -1.090363e+01 5.719315e+01 1.455155e+02
      vertex   -1.138951e+01 5.219322e+01 1.446078e+02
    endloop
  endfacet
  facet normal 7.730104e-01 -1.111556e-04 -6.343933e-01
    outer loop
      vertex   -1.090363e+01 5.719315e+01 1.455155e+02
      vertex   -1.025071e+01 5.719306e+01 1.463111e+02
      vertex   -1.090434e+01 5.219315e+01 1.455155e+02
    endloop
  endfacet
  facet normal 6.343933e-01 -9.122304e-05 -7.730105e-01
    outer loop
      vertex   -1.025071e+01 5.719306e+01 1.463111e+02
      vertex   -9.455127e+00 5.719294e+01 1.469640e+02
      vertex   -1.025143e+01 5.219306e+01 1.463111e+02
    endloop
  endfacet
  facet normal 4.713967e-01 -6.778484e-05 -8.819213e-01
    outer loop
      vertex   -9.455127e+00 5.719294e+01 1.469640e+02
      vertex   -8.547454e+00 5.719281e+01 1.474492e+02
      vertex   -9.455846e+00 5.219294e+01 1.469640e+02
    endloop
  endfacet
  facet normal -9.801714e-02 1.409445e-05 -9.951847e-01
    outer loop
      vertex   -6.538329e+00 5.719252e+01 1.478488e+02
      vertex   -5.514085e+00 5.719238e+01 1.477479e+02
      vertex   -6.539048e+00 5.219252e+01 1.478488e+02
    endloop
  endfacet
  facet normal -2.902847e-01 4.174170e-05 -9.569403e-01
    outer loop
      vertex   -5.514085e+00 5.719238e+01 1.477479e+02
      vertex   -4.529203e+00 5.719224e+01 1.474492e+02
      vertex   -5.514804e+00 5.219238e+01 1.477479e+02
    endloop
  endfacet
  facet normal -4.713967e-01 6.778484e-05 -8.819213e-01
    outer loop
      vertex   -4.529203e+00 5.719224e+01 1.474492e+02
      vertex   -3.621530e+00 5.719210e+01 1.469640e+02
      vertex   -4.529922e+00 5.219224e+01 1.474492e+02
    endloop
  endfacet
  facet normal -6.343933e-01 9.122305e-05 -7.730105e-01
    outer loop
      vertex   -3.621530e+00 5.719210e+01 1.469640e+02
      vertex   -2.825949e+00 5.719199e+01 1.463111e+02
      vertex   -3.622249e+00 5.219210e+01 1.469640e+02
    endloop
  endfacet
  facet normal -9.569403e-01 1.376039e-04 -2.902847e-01
    outer loop
      vertex   -1.687870e+00 5.719183e+01 1.446078e+02
      vertex   -1.389110e+00 5.719178e+01 1.436230e+02
      vertex   -1.688589e+00 5.219183e+01 1.446078e+02
    endloop
  endfacet
endsolid
