solid ascii
  facet normal -1.437957e-04 -1.000000e+00 -2.955180e-13
    outer loop
      vertex   -1.405591e+01 7.969361e+01 1.532024e+02
      vertex   -7.478193e+00 7.969266e+01 1.439284e+02
      vertex   -1.184273e+01 7.969329e+01 1.544659e+02
    endloop
  endfacet
  facet normal -1.437957e-04 -1.000000e+00 -2.964310e-13
    outer loop
      vertex   -1.405591e+01 7.969361e+01 1.532024e+02
      vertex   -1.598007e+01 7.969388e+01 1.515314e+02
      vertex   -7.478193e+00 7.969266e+01 1.439284e+02
    endloop
  endfacet
  facet normal -1.437957e-04 -1.000000e+00 -2.901912e-13
    outer loop
      vertex   -7.478193e+00 7.969266e+01 1.439284e+02
      vertex   -1.598007e+01 7.969388e+01 1.515314e+02
      vertex   -7.719480e+00 7.969269e+01 1.437189e+02
    endloop
  endfacet
  facet normal -1.437957e-04 -1.000000e+00 -2.953042e-13
    outer loop
      vertex   -7.719480e+00 7.969269e+01 1.437189e+02
      vertex   -1.598007e+01 7.969388e+01 1.515314e+02
      vertex   -1.754126e+01 7.969411e+01 1.495171e+02
    endloop
  endfacet
  facet normal -1.437957e-04 -1.000000e+00 -2.968780e-13
    outer loop
      vertex   -7.915252e+00 7.969272e+01 1.434663e+02
      vertex   -1.754126e+01 7.969411e+01 1.495171e+02
      vertex   -1.867949e+01 7.969427e+01 1.472370e+02
    endloop
  endfacet
  facet normal -1.437957e-04 -1.000000e+00 -2.929020e-13
    outer loop
      vertex   -8.057984e+00 7.969274e+01 1.431804e+02
      vertex   -1.867949e+01 7.969427e+01 1.472370e+02
      vertex   -1.935102e+01 7.969437e+01 1.447786e+02
    endloop
  endfacet
  facet normal -1.437957e-04 -1.000000e+00 -2.989853e-13
    outer loop
      vertex   -8.142193e+00 7.969276e+01 1.428721e+02
      vertex   -1.935102e+01 7.969437e+01 1.447786e+02
      vertex   -1.953004e+01 7.969439e+01 1.422365e+02
    endloop
  endfacet
  facet normal -1.437957e-04 -1.000000e+00 -2.960607e-13
    outer loop
      vertex   -8.164642e+00 7.969276e+01 1.425533e+02
      vertex   -1.953004e+01 7.969439e+01 1.422365e+02
      vertex   -1.920968e+01 7.969435e+01 1.397082e+02
    endloop
  endfacet
  facet normal -1.437957e-04 -1.000000e+00 -2.956751e-13
    outer loop
      vertex   -8.124469e+00 7.969275e+01 1.422363e+02
      vertex   -1.920968e+01 7.969435e+01 1.397082e+02
      vertex   -1.840223e+01 7.969423e+01 1.372911e+02
    endloop
  endfacet
  facet normal -1.437957e-04 -1.000000e+00 -2.942898e-13
    outer loop
      vertex   -8.023216e+00 7.969274e+01 1.419332e+02
      vertex   -1.840223e+01 7.969423e+01 1.372911e+02
      vertex   -1.713874e+01 7.969405e+01 1.350779e+02
    endloop
  endfacet
  facet normal -1.437957e-04 -1.000000e+00 -3.015024e-13
    outer loop
      vertex   -7.864776e+00 7.969272e+01 1.416556e+02
      vertex   -1.713874e+01 7.969405e+01 1.350779e+02
      vertex   -7.655237e+00 7.969269e+01 1.414143e+02
    endloop
  endfacet
  facet normal -1.437957e-04 -1.000000e+00 -3.191402e-13
    outer loop
      vertex   -7.864776e+00 7.969272e+01 1.416556e+02
      vertex   -8.023216e+00 7.969274e+01 1.419332e+02
      vertex   -1.713874e+01 7.969405e+01 1.350779e+02
    endloop
  endfacet
  facet normal -1.437957e-04 -1.000000e+00 -2.954781e-13
    outer loop
      vertex   -1.184273e+01 7.969329e+01 1.544659e+02
      vertex   -7.200664e+00 7.969262e+01 1.440868e+02
      vertex   -9.425582e+00 7.969294e+01 1.552733e+02
    endloop
  endfacet
  facet normal -1.437957e-04 -1.000000e+00 -3.025433e-13
    outer loop
      vertex   -1.184273e+01 7.969329e+01 1.544659e+02
      vertex   -7.478193e+00 7.969266e+01 1.439284e+02
      vertex   -7.200664e+00 7.969262e+01 1.440868e+02
    endloop
  endfacet
  facet normal -1.437957e-04 -1.000000e+00 -2.949154e-13
    outer loop
      vertex   -9.425582e+00 7.969294e+01 1.552733e+02
      vertex   -6.897557e+00 7.969258e+01 1.441881e+02
      vertex   -6.897353e+00 7.969258e+01 1.555937e+02
    endloop
  endfacet
  facet normal -1.437957e-04 -1.000000e+00 -2.879386e-13
    outer loop
      vertex   -9.425582e+00 7.969294e+01 1.552733e+02
      vertex   -7.200664e+00 7.969262e+01 1.440868e+02
      vertex   -6.897557e+00 7.969258e+01 1.441881e+02
    endloop
  endfacet
  facet normal -1.437957e-04 -1.000000e+00 -2.953755e-13
    outer loop
      vertex   -6.897353e+00 7.969258e+01 1.555937e+02
      vertex   -6.580520e+00 7.969253e+01 1.442283e+02
      vertex   -4.355203e+00 7.969221e+01 1.554147e+02
    endloop
  endfacet
  facet normal -1.437957e-04 -1.000000e+00 -2.949155e-13
    outer loop
      vertex   -6.897353e+00 7.969258e+01 1.555937e+02
      vertex   -6.897557e+00 7.969258e+01 1.441881e+02
      vertex   -6.580520e+00 7.969253e+01 1.442283e+02
    endloop
  endfacet
  facet normal -1.437957e-04 -1.000000e+00 -2.966436e-13
    outer loop
      vertex   -1.713874e+01 7.969405e+01 1.350779e+02
      vertex   -1.546776e+01 7.969381e+01 1.331537e+02
      vertex   -7.655237e+00 7.969269e+01 1.414143e+02
    endloop
  endfacet
  facet normal -1.437957e-04 -1.000000e+00 -2.953973e-13
    outer loop
      vertex   -7.655237e+00 7.969269e+01 1.414143e+02
      vertex   -1.546776e+01 7.969381e+01 1.331537e+02
      vertex   -7.402651e+00 7.969265e+01 1.412186e+02
    endloop
  endfacet
  facet normal -1.437957e-04 -1.000000e+00 -2.917870e-13
    outer loop
      vertex   -7.402651e+00 7.969265e+01 1.412186e+02
      vertex   -1.546776e+01 7.969381e+01 1.331537e+02
      vertex   -1.345349e+01 7.969352e+01 1.315926e+02
    endloop
  endfacet
  facet normal -1.437957e-04 -1.000000e+00 -2.965625e-13
    outer loop
      vertex   -7.116726e+00 7.969261e+01 1.410758e+02
      vertex   -1.345349e+01 7.969352e+01 1.315926e+02
      vertex   -1.117336e+01 7.969319e+01 1.304543e+02
    endloop
  endfacet
  facet normal -1.437957e-04 -1.000000e+00 -2.943805e-13
    outer loop
      vertex   -6.808449e+00 7.969256e+01 1.409916e+02
      vertex   -1.117336e+01 7.969319e+01 1.304543e+02
      vertex   -8.714983e+00 7.969284e+01 1.297828e+02
    endloop
  endfacet
  facet normal -1.437957e-04 -1.000000e+00 -2.953755e-13
    outer loop
      vertex   -6.489666e+00 7.969252e+01 1.409692e+02
      vertex   -8.714983e+00 7.969284e+01 1.297828e+02
      vertex   -6.172833e+00 7.969247e+01 1.296038e+02
    endloop
  endfacet
  facet normal -1.437957e-04 -1.000000e+00 -2.949155e-13
    outer loop
      vertex   -6.172630e+00 7.969247e+01 1.410093e+02
      vertex   -6.172833e+00 7.969247e+01 1.296038e+02
      vertex   -3.644605e+00 7.969211e+01 1.299241e+02
    endloop
  endfacet
  facet normal -1.437957e-04 -1.000000e+00 -2.954782e-13
    outer loop
      vertex   -5.869523e+00 7.969243e+01 1.411106e+02
      vertex   -3.644605e+00 7.969211e+01 1.299241e+02
      vertex   -1.227456e+00 7.969176e+01 1.307316e+02
    endloop
  endfacet
  facet normal -1.437957e-04 -1.000000e+00 -2.955180e-13
    outer loop
      vertex   -5.591993e+00 7.969239e+01 1.412690e+02
      vertex   -1.227456e+00 7.969176e+01 1.307316e+02
      vertex   9.857230e-01 7.969144e+01 1.319951e+02
    endloop
  endfacet
  facet normal -1.437957e-04 -1.000000e+00 -2.964311e-13
    outer loop
      vertex   2.909881e+00 7.969117e+01 1.336661e+02
      vertex   -5.591993e+00 7.969239e+01 1.412690e+02
      vertex   9.857230e-01 7.969144e+01 1.319951e+02
    endloop
  endfacet
  facet normal -1.437957e-04 -1.000000e+00 -2.901912e-13
    outer loop
      vertex   2.909881e+00 7.969117e+01 1.336661e+02
      vertex   -5.350706e+00 7.969235e+01 1.414786e+02
      vertex   -5.591993e+00 7.969239e+01 1.412690e+02
    endloop
  endfacet
  facet normal -1.437957e-04 -1.000000e+00 -2.953041e-13
    outer loop
      vertex   2.909881e+00 7.969117e+01 1.336661e+02
      vertex   4.471075e+00 7.969094e+01 1.356803e+02
      vertex   -5.350706e+00 7.969235e+01 1.414786e+02
    endloop
  endfacet
  facet normal -1.437957e-04 -1.000000e+00 -2.976972e-13
    outer loop
      vertex   -5.350706e+00 7.969235e+01 1.414786e+02
      vertex   4.471075e+00 7.969094e+01 1.356803e+02
      vertex   -5.154935e+00 7.969233e+01 1.417312e+02
    endloop
  endfacet
  facet normal -1.437957e-04 -1.000000e+00 -2.968782e-13
    outer loop
      vertex   -5.154935e+00 7.969233e+01 1.417312e+02
      vertex   4.471075e+00 7.969094e+01 1.356803e+02
      vertex   5.609307e+00 7.969078e+01 1.379605e+02
    endloop
  endfacet
  facet normal -1.437957e-04 -1.000000e+00 -2.929021e-13
    outer loop
      vertex   -5.012202e+00 7.969230e+01 1.420171e+02
      vertex   5.609307e+00 7.969078e+01 1.379605e+02
      vertex   6.280837e+00 7.969068e+01 1.404188e+02
    endloop
  endfacet
  facet normal -1.437957e-04 -1.000000e+00 -2.989853e-13
    outer loop
      vertex   -4.927993e+00 7.969229e+01 1.423254e+02
      vertex   6.280837e+00 7.969068e+01 1.404188e+02
      vertex   6.459858e+00 7.969066e+01 1.429610e+02
    endloop
  endfacet
  facet normal -1.437957e-04 -1.000000e+00 -2.960607e-13
    outer loop
      vertex   -4.905544e+00 7.969229e+01 1.426441e+02
      vertex   6.459858e+00 7.969066e+01 1.429610e+02
      vertex   6.139490e+00 7.969070e+01 1.454892e+02
    endloop
  endfacet
  facet normal -1.437957e-04 -1.000000e+00 -2.956752e-13
    outer loop
      vertex   -4.945718e+00 7.969230e+01 1.429612e+02
      vertex   6.139490e+00 7.969070e+01 1.454892e+02
      vertex   5.332046e+00 7.969082e+01 1.479064e+02
    endloop
  endfacet
  facet normal -1.437957e-04 -1.000000e+00 -3.225850e-13
    outer loop
      vertex   -5.046970e+00 7.969231e+01 1.432643e+02
      vertex   5.332046e+00 7.969082e+01 1.479064e+02
      vertex   -5.205411e+00 7.969233e+01 1.435418e+02
    endloop
  endfacet
  facet normal -1.437957e-04 -1.000000e+00 -2.860524e-13
    outer loop
      vertex   -5.046970e+00 7.969231e+01 1.432643e+02
      vertex   -4.945718e+00 7.969230e+01 1.429612e+02
      vertex   5.332046e+00 7.969082e+01 1.479064e+02
    endloop
  endfacet
  facet normal -1.437957e-04 -1.000000e+00 -2.938578e-13
    outer loop
      vertex   5.332046e+00 7.969082e+01 1.479064e+02
      vertex   4.068553e+00 7.969100e+01 1.501195e+02
      vertex   -5.205411e+00 7.969233e+01 1.435418e+02
    endloop
  endfacet
  facet normal -1.437957e-04 -1.000000e+00 -3.015034e-13
    outer loop
      vertex   -5.205411e+00 7.969233e+01 1.435418e+02
      vertex   4.068553e+00 7.969100e+01 1.501195e+02
      vertex   -5.414950e+00 7.969236e+01 1.437831e+02
    endloop
  endfacet
  facet normal -1.437957e-04 -1.000000e+00 -2.966435e-13
    outer loop
      vertex   -5.414950e+00 7.969236e+01 1.437831e+02
      vertex   4.068553e+00 7.969100e+01 1.501195e+02
      vertex   2.397569e+00 7.969124e+01 1.520437e+02
    endloop
  endfacet
  facet normal -1.437957e-04 -1.000000e+00 -2.917870e-13
    outer loop
      vertex   -5.667535e+00 7.969240e+01 1.439789e+02
      vertex   2.397569e+00 7.969124e+01 1.520437e+02
      vertex   3.833069e-01 7.969153e+01 1.536049e+02
    endloop
  endfacet
  facet normal -1.437957e-04 -1.000000e+00 -2.965626e-13
    outer loop
      vertex   -5.953461e+00 7.969244e+01 1.441216e+02
      vertex   3.833069e-01 7.969153e+01 1.536049e+02
      vertex   -1.896825e+00 7.969186e+01 1.547431e+02
    endloop
  endfacet
  facet normal -1.437957e-04 -1.000000e+00 -2.943805e-13
    outer loop
      vertex   -6.261738e+00 7.969248e+01 1.442058e+02
      vertex   -1.896825e+00 7.969186e+01 1.547431e+02
      vertex   -4.355203e+00 7.969221e+01 1.554147e+02
    endloop
  endfacet
  facet normal -1.437957e-04 -1.000000e+00 -2.855722e-13
    outer loop
      vertex   -6.580520e+00 7.969253e+01 1.442283e+02
      vertex   -6.261738e+00 7.969248e+01 1.442058e+02
      vertex   -4.355203e+00 7.969221e+01 1.554147e+02
    endloop
  endfacet
  facet normal -1.437957e-04 -1.000000e+00 -3.025433e-13
    outer loop
      vertex   -5.591993e+00 7.969239e+01 1.412690e+02
      vertex   -5.869523e+00 7.969243e+01 1.411106e+02
      vertex   -1.227456e+00 7.969176e+01 1.307316e+02
    endloop
  endfacet
  facet normal -1.437957e-04 -1.000000e+00 -2.879385e-13
    outer loop
      vertex   -5.869523e+00 7.969243e+01 1.411106e+02
      vertex   -6.172630e+00 7.969247e+01 1.410093e+02
      vertex   -3.644605e+00 7.969211e+01 1.299241e+02
    endloop
  endfacet
  facet normal -1.437957e-04 -1.000000e+00 -2.949156e-13
    outer loop
      vertex   -6.172630e+00 7.969247e+01 1.410093e+02
      vertex   -6.489666e+00 7.969252e+01 1.409692e+02
      vertex   -6.172833e+00 7.969247e+01 1.296038e+02
    endloop
  endfacet
  facet normal -1.437957e-04 -1.000000e+00 -2.855722e-13
    outer loop
      vertex   -6.489666e+00 7.969252e+01 1.409692e+02
      vertex   -6.808449e+00 7.969256e+01 1.409916e+02
      vertex   -8.714983e+00 7.969284e+01 1.297828e+02
    endloop
  endfacet
  facet normal -1.437957e-04 -1.000000e+00 -3.013049e-13
    outer loop
      vertex   -6.808449e+00 7.969256e+01 1.409916e+02
      vertex   -7.116726e+00 7.969261e+01 1.410758e+02
      vertex   -1.117336e+01 7.969319e+01 1.304543e+02
    endloop
  endfacet
  facet normal -1.437957e-04 -1.000000e+00 -2.833239e-13
    outer loop
      vertex   -7.116726e+00 7.969261e+01 1.410758e+02
      vertex   -7.402651e+00 7.969265e+01 1.412186e+02
      vertex   -1.345349e+01 7.969352e+01 1.315926e+02
    endloop
  endfacet
  facet normal -1.437957e-04 -1.000000e+00 -2.860524e-13
    outer loop
      vertex   -8.023216e+00 7.969274e+01 1.419332e+02
      vertex   -8.124469e+00 7.969275e+01 1.422363e+02
      vertex   -1.840223e+01 7.969423e+01 1.372911e+02
    endloop
  endfacet
  facet normal -1.437957e-04 -1.000000e+00 -2.727953e-13
    outer loop
      vertex   -8.124469e+00 7.969275e+01 1.422363e+02
      vertex   -8.164642e+00 7.969276e+01 1.425533e+02
      vertex   -1.920968e+01 7.969435e+01 1.397082e+02
    endloop
  endfacet
  facet normal -1.437957e-04 -1.000000e+00 -3.212632e-13
    outer loop
      vertex   -8.164642e+00 7.969276e+01 1.425533e+02
      vertex   -8.142193e+00 7.969276e+01 1.428721e+02
      vertex   -1.953004e+01 7.969439e+01 1.422365e+02
    endloop
  endfacet
  facet normal -1.437957e-04 -1.000000e+00 -3.068910e-13
    outer loop
      vertex   -8.142193e+00 7.969276e+01 1.428721e+02
      vertex   -8.057984e+00 7.969274e+01 1.431804e+02
      vertex   -1.935102e+01 7.969437e+01 1.447786e+02
    endloop
  endfacet
  facet normal -1.437957e-04 -1.000000e+00 -3.007825e-13
    outer loop
      vertex   -8.057984e+00 7.969274e+01 1.431804e+02
      vertex   -7.915252e+00 7.969272e+01 1.434663e+02
      vertex   -1.867949e+01 7.969427e+01 1.472370e+02
    endloop
  endfacet
  facet normal -1.437957e-04 -1.000000e+00 -2.976968e-13
    outer loop
      vertex   -7.915252e+00 7.969272e+01 1.434663e+02
      vertex   -7.719480e+00 7.969269e+01 1.437189e+02
      vertex   -1.754126e+01 7.969411e+01 1.495171e+02
    endloop
  endfacet
  facet normal -1.437957e-04 -1.000000e+00 -3.013048e-13
    outer loop
      vertex   -6.261738e+00 7.969248e+01 1.442058e+02
      vertex   -5.953461e+00 7.969244e+01 1.441216e+02
      vertex   -1.896825e+00 7.969186e+01 1.547431e+02
    endloop
  endfacet
  facet normal -1.437957e-04 -1.000000e+00 -2.833246e-13
    outer loop
      vertex   -5.953461e+00 7.969244e+01 1.441216e+02
      vertex   -5.667535e+00 7.969240e+01 1.439789e+02
      vertex   3.833069e-01 7.969153e+01 1.536049e+02
    endloop
  endfacet
  facet normal -1.437957e-04 -1.000000e+00 -2.953966e-13
    outer loop
      vertex   -5.667535e+00 7.969240e+01 1.439789e+02
      vertex   -5.414950e+00 7.969236e+01 1.437831e+02
      vertex   2.397569e+00 7.969124e+01 1.520437e+02
    endloop
  endfacet
  facet normal -1.437957e-04 -1.000000e+00 -2.727953e-13
    outer loop
      vertex   -4.945718e+00 7.969230e+01 1.429612e+02
      vertex   -4.905544e+00 7.969229e+01 1.426441e+02
      vertex   6.139490e+00 7.969070e+01 1.454892e+02
    endloop
  endfacet
  facet normal -1.437957e-04 -1.000000e+00 -3.212628e-13
    outer loop
      vertex   -4.905544e+00 7.969229e+01 1.426441e+02
      vertex   -4.927993e+00 7.969229e+01 1.423254e+02
      vertex   6.459858e+00 7.969066e+01 1.429610e+02
    endloop
  endfacet
  facet normal -1.437957e-04 -1.000000e+00 -3.068910e-13
    outer loop
      vertex   -4.927993e+00 7.969229e+01 1.423254e+02
      vertex   -5.012202e+00 7.969230e+01 1.420171e+02
      vertex   6.280837e+00 7.969068e+01 1.404188e+02
    endloop
  endfacet
  facet normal -1.437957e-04 -1.000000e+00 -3.007829e-13
    outer loop
      vertex   -5.012202e+00 7.969230e+01 1.420171e+02
      vertex   -5.154935e+00 7.969233e+01 1.417312e+02
      vertex   5.609307e+00 7.969078e+01 1.379605e+02
    endloop
  endfacet
  facet normal -7.550322e-01 1.085704e-04 -6.556877e-01
    outer loop
      vertex   -1.713694e+01 9.219405e+01 1.350779e+02
      vertex   -1.546596e+01 9.219381e+01 1.331537e+02
      vertex   -1.713874e+01 7.969405e+01 1.350779e+02
    endloop
  endfacet
  facet normal -7.550322e-01 1.085704e-04 -6.556877e-01
    outer loop
      vertex   -1.713874e+01 7.969405e+01 1.350779e+02
      vertex   -1.546596e+01 9.219381e+01 1.331537e+02
      vertex   -1.546776e+01 7.969381e+01 1.331537e+02
    endloop
  endfacet
  facet normal -6.126061e-01 8.809014e-05 -7.903884e-01
    outer loop
      vertex   -1.546776e+01 7.969381e+01 1.331537e+02
      vertex   -1.546596e+01 9.219381e+01 1.331537e+02
      vertex   -1.345170e+01 9.219352e+01 1.315926e+02
    endloop
  endfacet
  facet normal -4.466379e-01 6.422463e-05 -8.947148e-01
    outer loop
      vertex   -1.345349e+01 7.969352e+01 1.315926e+02
      vertex   -1.345170e+01 9.219352e+01 1.315926e+02
      vertex   -1.117156e+01 9.219319e+01 1.304543e+02
    endloop
  endfacet
  facet normal -2.635057e-01 3.789100e-05 -9.646578e-01
    outer loop
      vertex   -1.117336e+01 7.969319e+01 1.304543e+02
      vertex   -1.117156e+01 9.219319e+01 1.304543e+02
      vertex   -8.713186e+00 9.219284e+01 1.297828e+02
    endloop
  endfacet
  facet normal -7.024712e-02 1.010124e-05 -9.975296e-01
    outer loop
      vertex   -8.714983e+00 7.969284e+01 1.297828e+02
      vertex   -8.713186e+00 9.219284e+01 1.297828e+02
      vertex   -6.171036e+00 9.219247e+01 1.296038e+02
    endloop
  endfacet
  facet normal 1.257110e-01 -1.807671e-05 -9.920669e-01
    outer loop
      vertex   -6.172833e+00 7.969247e+01 1.296038e+02
      vertex   -6.171036e+00 9.219247e+01 1.296038e+02
      vertex   -3.642807e+00 9.219211e+01 1.299241e+02
    endloop
  endfacet
  facet normal 3.168382e-01 -4.555998e-05 -9.484796e-01
    outer loop
      vertex   -3.644605e+00 7.969211e+01 1.299241e+02
      vertex   -3.642807e+00 9.219211e+01 1.299241e+02
      vertex   -1.225659e+00 9.219176e+01 1.307316e+02
    endloop
  endfacet
  facet normal 4.957894e-01 -7.129240e-05 -8.684428e-01
    outer loop
      vertex   -1.227456e+00 7.969176e+01 1.307316e+02
      vertex   -1.225659e+00 9.219176e+01 1.307316e+02
      vertex   9.875204e-01 9.219144e+01 1.319951e+02
    endloop
  endfacet
  facet normal 6.556877e-01 -9.428510e-05 -7.550322e-01
    outer loop
      vertex   9.857230e-01 7.969144e+01 1.319951e+02
      vertex   9.875204e-01 9.219144e+01 1.319951e+02
      vertex   2.911679e+00 9.219117e+01 1.336661e+02
    endloop
  endfacet
  facet normal 7.903883e-01 -1.136545e-04 -6.126061e-01
    outer loop
      vertex   2.909881e+00 7.969117e+01 1.336661e+02
      vertex   2.911679e+00 9.219117e+01 1.336661e+02
      vertex   4.472872e+00 9.219094e+01 1.356803e+02
    endloop
  endfacet
  facet normal 8.947148e-01 -1.286562e-04 -4.466379e-01
    outer loop
      vertex   4.471075e+00 7.969094e+01 1.356803e+02
      vertex   4.472872e+00 9.219094e+01 1.356803e+02
      vertex   5.611105e+00 9.219078e+01 1.379605e+02
    endloop
  endfacet
  facet normal 9.646578e-01 -1.387137e-04 -2.635057e-01
    outer loop
      vertex   5.609307e+00 7.969078e+01 1.379605e+02
      vertex   5.611105e+00 9.219078e+01 1.379605e+02
      vertex   6.282635e+00 9.219068e+01 1.404188e+02
    endloop
  endfacet
  facet normal 9.975296e-01 -1.434405e-04 -7.024712e-02
    outer loop
      vertex   6.280837e+00 7.969068e+01 1.404188e+02
      vertex   6.282635e+00 9.219068e+01 1.404188e+02
      vertex   6.461656e+00 9.219066e+01 1.429610e+02
    endloop
  endfacet
  facet normal 9.920669e-01 -1.426550e-04 1.257110e-01
    outer loop
      vertex   6.459858e+00 7.969066e+01 1.429610e+02
      vertex   6.461656e+00 9.219066e+01 1.429610e+02
      vertex   6.141288e+00 9.219070e+01 1.454892e+02
    endloop
  endfacet
  facet normal 9.484796e-01 -1.363873e-04 3.168382e-01
    outer loop
      vertex   6.139490e+00 7.969070e+01 1.454892e+02
      vertex   6.141288e+00 9.219070e+01 1.454892e+02
      vertex   5.333843e+00 9.219082e+01 1.479064e+02
    endloop
  endfacet
  facet normal 8.684428e-01 -1.248784e-04 4.957894e-01
    outer loop
      vertex   5.332046e+00 7.969082e+01 1.479064e+02
      vertex   5.333843e+00 9.219082e+01 1.479064e+02
      vertex   4.069000e+00 8.279941e+01 1.501195e+02
    endloop
  endfacet
  facet normal 8.684428e-01 -1.248784e-04 4.957894e-01
    outer loop
      vertex   4.068553e+00 7.969100e+01 1.501195e+02
      vertex   5.332046e+00 7.969082e+01 1.479064e+02
      vertex   4.069000e+00 8.279941e+01 1.501195e+02
    endloop
  endfacet
  facet normal 8.684428e-01 -1.248784e-04 4.957894e-01
    outer loop
      vertex   5.333843e+00 9.219082e+01 1.479064e+02
      vertex   4.070351e+00 9.219100e+01 1.501195e+02
      vertex   4.069000e+00 8.279941e+01 1.501195e+02
    endloop
  endfacet
  facet normal 9.484796e-01 -1.363873e-04 3.168382e-01
    outer loop
      vertex   5.332046e+00 7.969082e+01 1.479064e+02
      vertex   6.139490e+00 7.969070e+01 1.454892e+02
      vertex   5.333843e+00 9.219082e+01 1.479064e+02
    endloop
  endfacet
  facet normal 9.920669e-01 -1.426550e-04 1.257110e-01
    outer loop
      vertex   6.139490e+00 7.969070e+01 1.454892e+02
      vertex   6.459858e+00 7.969066e+01 1.429610e+02
      vertex   6.141288e+00 9.219070e+01 1.454892e+02
    endloop
  endfacet
  facet normal 9.975296e-01 -1.434405e-04 -7.024712e-02
    outer loop
      vertex   6.459858e+00 7.969066e+01 1.429610e+02
      vertex   6.280837e+00 7.969068e+01 1.404188e+02
      vertex   6.461656e+00 9.219066e+01 1.429610e+02
    endloop
  endfacet
  facet normal 9.646578e-01 -1.387137e-04 -2.635057e-01
    outer loop
      vertex   6.280837e+00 7.969068e+01 1.404188e+02
      vertex   5.609307e+00 7.969078e+01 1.379605e+02
      vertex   6.282635e+00 9.219068e+01 1.404188e+02
    endloop
  endfacet
  facet normal 8.947148e-01 -1.286562e-04 -4.466379e-01
    outer loop
      vertex   5.609307e+00 7.969078e+01 1.379605e+02
      vertex   4.471075e+00 7.969094e+01 1.356803e+02
      vertex   5.611105e+00 9.219078e+01 1.379605e+02
    endloop
  endfacet
  facet normal 7.903883e-01 -1.136545e-04 -6.126061e-01
    outer loop
      vertex   4.471075e+00 7.969094e+01 1.356803e+02
      vertex   2.909881e+00 7.969117e+01 1.336661e+02
      vertex   4.472872e+00 9.219094e+01 1.356803e+02
    endloop
  endfacet
  facet normal 6.556877e-01 -9.428510e-05 -7.550322e-01
    outer loop
      vertex   2.909881e+00 7.969117e+01 1.336661e+02
      vertex   9.857230e-01 7.969144e+01 1.319951e+02
      vertex   2.911679e+00 9.219117e+01 1.336661e+02
    endloop
  endfacet
  facet normal 4.957894e-01 -7.129240e-05 -8.684428e-01
    outer loop
      vertex   9.857230e-01 7.969144e+01 1.319951e+02
      vertex   -1.227456e+00 7.969176e+01 1.307316e+02
      vertex   9.875204e-01 9.219144e+01 1.319951e+02
    endloop
  endfacet
  facet normal 3.168382e-01 -4.555998e-05 -9.484796e-01
    outer loop
      vertex   -1.227456e+00 7.969176e+01 1.307316e+02
      vertex   -3.644605e+00 7.969211e+01 1.299241e+02
      vertex   -1.225659e+00 9.219176e+01 1.307316e+02
    endloop
  endfacet
  facet normal 1.257110e-01 -1.807671e-05 -9.920669e-01
    outer loop
      vertex   -3.644605e+00 7.969211e+01 1.299241e+02
      vertex   -6.172833e+00 7.969247e+01 1.296038e+02
      vertex   -3.642807e+00 9.219211e+01 1.299241e+02
    endloop
  endfacet
  facet normal -7.024712e-02 1.010124e-05 -9.975296e-01
    outer loop
      vertex   -6.172833e+00 7.969247e+01 1.296038e+02
      vertex   -8.714983e+00 7.969284e+01 1.297828e+02
      vertex   -6.171036e+00 9.219247e+01 1.296038e+02
    endloop
  endfacet
  facet normal -2.635057e-01 3.789100e-05 -9.646578e-01
    outer loop
      vertex   -8.714983e+00 7.969284e+01 1.297828e+02
      vertex   -1.117336e+01 7.969319e+01 1.304543e+02
      vertex   -8.713186e+00 9.219284e+01 1.297828e+02
    endloop
  endfacet
  facet normal -4.466379e-01 6.422463e-05 -8.947148e-01
    outer loop
      vertex   -1.117336e+01 7.969319e+01 1.304543e+02
      vertex   -1.345349e+01 7.969352e+01 1.315926e+02
      vertex   -1.117156e+01 9.219319e+01 1.304543e+02
    endloop
  endfacet
  facet normal -6.126061e-01 8.809014e-05 -7.903884e-01
    outer loop
      vertex   -1.345349e+01 7.969352e+01 1.315926e+02
      vertex   -1.546776e+01 7.969381e+01 1.331537e+02
      vertex   -1.345170e+01 9.219352e+01 1.315926e+02
    endloop
  endfacet
  facet normal 6.556877e-01 -9.428510e-05 -7.550322e-01
    outer loop
      vertex   -7.476396e+00 9.219266e+01 1.439284e+02
      vertex   -7.478193e+00 7.969266e+01 1.439284e+02
      vertex   -7.717683e+00 9.219269e+01 1.437189e+02
    endloop
  endfacet
  facet normal 6.556877e-01 -9.428510e-05 -7.550322e-01
    outer loop
      vertex   -7.717683e+00 9.219269e+01 1.437189e+02
      vertex   -7.478193e+00 7.969266e+01 1.439284e+02
      vertex   -7.719480e+00 7.969269e+01 1.437189e+02
    endloop
  endfacet
  facet normal 7.903883e-01 -1.136545e-04 -6.126061e-01
    outer loop
      vertex   -7.915252e+00 7.969272e+01 1.434663e+02
      vertex   -7.717683e+00 9.219269e+01 1.437189e+02
      vertex   -7.719480e+00 7.969269e+01 1.437189e+02
    endloop
  endfacet
  facet normal 7.903883e-01 -1.136545e-04 -6.126061e-01
    outer loop
      vertex   -7.915252e+00 7.969272e+01 1.434663e+02
      vertex   -7.913454e+00 9.219272e+01 1.434663e+02
      vertex   -7.717683e+00 9.219269e+01 1.437189e+02
    endloop
  endfacet
  facet normal 8.947148e-01 -1.286562e-04 -4.466379e-01
    outer loop
      vertex   -7.915252e+00 7.969272e+01 1.434663e+02
      vertex   -8.057984e+00 7.969274e+01 1.431804e+02
      vertex   -7.913454e+00 9.219272e+01 1.434663e+02
    endloop
  endfacet
  facet normal 8.947148e-01 -1.286562e-04 -4.466379e-01
    outer loop
      vertex   -7.913454e+00 9.219272e+01 1.434663e+02
      vertex   -8.057984e+00 7.969274e+01 1.431804e+02
      vertex   -8.056187e+00 9.219274e+01 1.431804e+02
    endloop
  endfacet
  facet normal 9.646578e-01 -1.387137e-04 -2.635057e-01
    outer loop
      vertex   -8.056187e+00 9.219274e+01 1.431804e+02
      vertex   -8.057984e+00 7.969274e+01 1.431804e+02
      vertex   -8.142193e+00 7.969276e+01 1.428721e+02
    endloop
  endfacet
  facet normal 9.975296e-01 -1.434405e-04 -7.024712e-02
    outer loop
      vertex   -8.140396e+00 9.219275e+01 1.428721e+02
      vertex   -8.142193e+00 7.969276e+01 1.428721e+02
      vertex   -8.164642e+00 7.969276e+01 1.425533e+02
    endloop
  endfacet
  facet normal 9.920669e-01 -1.426550e-04 1.257110e-01
    outer loop
      vertex   -8.162845e+00 9.219276e+01 1.425533e+02
      vertex   -8.164642e+00 7.969276e+01 1.425533e+02
      vertex   -8.122671e+00 9.219275e+01 1.422363e+02
    endloop
  endfacet
  facet normal 9.975296e-01 -1.434405e-04 -7.024712e-02
    outer loop
      vertex   -8.162845e+00 9.219276e+01 1.425533e+02
      vertex   -8.140396e+00 9.219275e+01 1.428721e+02
      vertex   -8.164642e+00 7.969276e+01 1.425533e+02
    endloop
  endfacet
  facet normal 9.920669e-01 -1.426550e-04 1.257110e-01
    outer loop
      vertex   -8.164642e+00 7.969276e+01 1.425533e+02
      vertex   -8.124469e+00 7.969275e+01 1.422363e+02
      vertex   -8.122671e+00 9.219275e+01 1.422363e+02
    endloop
  endfacet
  facet normal 9.484796e-01 -1.363873e-04 3.168382e-01
    outer loop
      vertex   -8.122671e+00 9.219275e+01 1.422363e+02
      vertex   -8.124469e+00 7.969275e+01 1.422363e+02
      vertex   -8.023216e+00 7.969274e+01 1.419332e+02
    endloop
  endfacet
  facet normal 8.684428e-01 -1.248784e-04 4.957894e-01
    outer loop
      vertex   -8.021419e+00 9.219274e+01 1.419332e+02
      vertex   -8.023216e+00 7.969274e+01 1.419332e+02
      vertex   -7.864776e+00 7.969272e+01 1.416556e+02
    endloop
  endfacet
  facet normal 7.550322e-01 -1.085704e-04 6.556877e-01
    outer loop
      vertex   -7.862979e+00 9.219272e+01 1.416556e+02
      vertex   -7.864776e+00 7.969272e+01 1.416556e+02
      vertex   -7.655237e+00 7.969269e+01 1.414143e+02
    endloop
  endfacet
  facet normal 6.126061e-01 -8.809014e-05 7.903884e-01
    outer loop
      vertex   -7.653439e+00 9.219268e+01 1.414143e+02
      vertex   -7.655237e+00 7.969269e+01 1.414143e+02
      vertex   -7.402651e+00 7.969265e+01 1.412186e+02
    endloop
  endfacet
  facet normal 4.466379e-01 -6.422463e-05 8.947148e-01
    outer loop
      vertex   -7.400854e+00 9.219265e+01 1.412186e+02
      vertex   -7.402651e+00 7.969265e+01 1.412186e+02
      vertex   -7.114928e+00 9.219261e+01 1.410758e+02
    endloop
  endfacet
  facet normal 6.126061e-01 -8.809014e-05 7.903884e-01
    outer loop
      vertex   -7.400854e+00 9.219265e+01 1.412186e+02
      vertex   -7.653439e+00 9.219268e+01 1.414143e+02
      vertex   -7.402651e+00 7.969265e+01 1.412186e+02
    endloop
  endfacet
  facet normal 4.466379e-01 -6.422463e-05 8.947148e-01
    outer loop
      vertex   -7.402651e+00 7.969265e+01 1.412186e+02
      vertex   -7.116726e+00 7.969261e+01 1.410758e+02
      vertex   -7.114928e+00 9.219261e+01 1.410758e+02
    endloop
  endfacet
  facet normal 2.635057e-01 -3.789100e-05 9.646578e-01
    outer loop
      vertex   -7.114928e+00 9.219261e+01 1.410758e+02
      vertex   -7.116726e+00 7.969261e+01 1.410758e+02
      vertex   -6.808449e+00 7.969256e+01 1.409916e+02
    endloop
  endfacet
  facet normal 7.024712e-02 -1.010124e-05 9.975296e-01
    outer loop
      vertex   -6.806651e+00 9.219256e+01 1.409916e+02
      vertex   -6.808449e+00 7.969256e+01 1.409916e+02
      vertex   -6.489666e+00 7.969252e+01 1.409692e+02
    endloop
  endfacet
  facet normal -1.257110e-01 1.807671e-05 9.920669e-01
    outer loop
      vertex   -6.487869e+00 9.219252e+01 1.409692e+02
      vertex   -6.489666e+00 7.969252e+01 1.409692e+02
      vertex   -6.172630e+00 7.969247e+01 1.410093e+02
    endloop
  endfacet
  facet normal -3.168382e-01 4.555998e-05 9.484796e-01
    outer loop
      vertex   -6.170833e+00 9.219247e+01 1.410093e+02
      vertex   -6.172630e+00 7.969247e+01 1.410093e+02
      vertex   -5.869523e+00 7.969243e+01 1.411106e+02
    endloop
  endfacet
  facet normal -4.957894e-01 7.129240e-05 8.684428e-01
    outer loop
      vertex   -5.867725e+00 9.219243e+01 1.411106e+02
      vertex   -5.869523e+00 7.969243e+01 1.411106e+02
      vertex   -5.590648e+00 8.905080e+01 1.412690e+02
    endloop
  endfacet
  facet normal -4.957894e-01 7.129240e-05 8.684428e-01
    outer loop
      vertex   -5.590196e+00 9.219239e+01 1.412690e+02
      vertex   -5.867725e+00 9.219243e+01 1.411106e+02
      vertex   -5.590648e+00 8.905080e+01 1.412690e+02
    endloop
  endfacet
  facet normal -4.957894e-01 7.129240e-05 8.684428e-01
    outer loop
      vertex   -5.869523e+00 7.969243e+01 1.411106e+02
      vertex   -5.591993e+00 7.969239e+01 1.412690e+02
      vertex   -5.590648e+00 8.905080e+01 1.412690e+02
    endloop
  endfacet
  facet normal -3.168382e-01 4.555998e-05 9.484796e-01
    outer loop
      vertex   -5.867725e+00 9.219243e+01 1.411106e+02
      vertex   -6.170833e+00 9.219247e+01 1.410093e+02
      vertex   -5.869523e+00 7.969243e+01 1.411106e+02
    endloop
  endfacet
  facet normal -1.257110e-01 1.807671e-05 9.920669e-01
    outer loop
      vertex   -6.170833e+00 9.219247e+01 1.410093e+02
      vertex   -6.487869e+00 9.219252e+01 1.409692e+02
      vertex   -6.172630e+00 7.969247e+01 1.410093e+02
    endloop
  endfacet
  facet normal 7.024712e-02 -1.010124e-05 9.975296e-01
    outer loop
      vertex   -6.487869e+00 9.219252e+01 1.409692e+02
      vertex   -6.806651e+00 9.219256e+01 1.409916e+02
      vertex   -6.489666e+00 7.969252e+01 1.409692e+02
    endloop
  endfacet
  facet normal 2.635057e-01 -3.789100e-05 9.646578e-01
    outer loop
      vertex   -6.806651e+00 9.219256e+01 1.409916e+02
      vertex   -7.114928e+00 9.219261e+01 1.410758e+02
      vertex   -6.808449e+00 7.969256e+01 1.409916e+02
    endloop
  endfacet
  facet normal 7.550322e-01 -1.085704e-04 6.556877e-01
    outer loop
      vertex   -7.653439e+00 9.219268e+01 1.414143e+02
      vertex   -7.862979e+00 9.219272e+01 1.416556e+02
      vertex   -7.655237e+00 7.969269e+01 1.414143e+02
    endloop
  endfacet
  facet normal 8.684428e-01 -1.248784e-04 4.957894e-01
    outer loop
      vertex   -7.862979e+00 9.219272e+01 1.416556e+02
      vertex   -8.021419e+00 9.219274e+01 1.419332e+02
      vertex   -7.864776e+00 7.969272e+01 1.416556e+02
    endloop
  endfacet
  facet normal 9.484796e-01 -1.363873e-04 3.168382e-01
    outer loop
      vertex   -8.021419e+00 9.219274e+01 1.419332e+02
      vertex   -8.122671e+00 9.219275e+01 1.422363e+02
      vertex   -8.023216e+00 7.969274e+01 1.419332e+02
    endloop
  endfacet
  facet normal 9.646578e-01 -1.387137e-04 -2.635057e-01
    outer loop
      vertex   -8.140396e+00 9.219275e+01 1.428721e+02
      vertex   -8.056187e+00 9.219274e+01 1.431804e+02
      vertex   -8.142193e+00 7.969276e+01 1.428721e+02
    endloop
  endfacet
  facet normal 1.437957e-04 1.000000e+00 2.967511e-13
    outer loop
      vertex   2.399366e+00 9.219124e+01 1.520437e+02
      vertex   4.070351e+00 9.219100e+01 1.501195e+02
      vertex   -5.203613e+00 9.219233e+01 1.435418e+02
    endloop
  endfacet
  facet normal 1.437957e-04 1.000000e+00 3.006461e-13
    outer loop
      vertex   -5.413152e+00 9.219236e+01 1.437831e+02
      vertex   2.399366e+00 9.219124e+01 1.520437e+02
      vertex   -5.203613e+00 9.219233e+01 1.435418e+02
    endloop
  endfacet
  facet normal 1.437957e-04 1.000000e+00 2.957501e-13
    outer loop
      vertex   -5.413152e+00 9.219236e+01 1.437831e+02
      vertex   3.851044e-01 9.219153e+01 1.536049e+02
      vertex   2.399366e+00 9.219124e+01 1.520437e+02
    endloop
  endfacet
  facet normal 1.437957e-04 1.000000e+00 2.954880e-13
    outer loop
      vertex   -5.413152e+00 9.219236e+01 1.437831e+02
      vertex   -5.665738e+00 9.219240e+01 1.439789e+02
      vertex   3.851044e-01 9.219153e+01 1.536049e+02
    endloop
  endfacet
  facet normal 1.437957e-04 1.000000e+00 2.941069e-13
    outer loop
      vertex   3.851044e-01 9.219153e+01 1.536049e+02
      vertex   -5.665738e+00 9.219240e+01 1.439789e+02
      vertex   -1.895028e+00 9.219186e+01 1.547431e+02
    endloop
  endfacet
  facet normal 1.437957e-04 1.000000e+00 2.880878e-13
    outer loop
      vertex   -1.895028e+00 9.219186e+01 1.547431e+02
      vertex   -5.665738e+00 9.219240e+01 1.439789e+02
      vertex   -5.951663e+00 9.219244e+01 1.441216e+02
    endloop
  endfacet
  facet normal 1.437957e-04 1.000000e+00 2.986165e-13
    outer loop
      vertex   -4.353406e+00 9.219221e+01 1.554147e+02
      vertex   -5.951663e+00 9.219244e+01 1.441216e+02
      vertex   -6.259941e+00 9.219248e+01 1.442058e+02
    endloop
  endfacet
  facet normal 1.437957e-04 1.000000e+00 2.980241e-13
    outer loop
      vertex   -6.895556e+00 9.219258e+01 1.555937e+02
      vertex   -6.259941e+00 9.219248e+01 1.442058e+02
      vertex   -6.578723e+00 9.219253e+01 1.442283e+02
    endloop
  endfacet
  facet normal 1.437957e-04 1.000000e+00 2.922766e-13
    outer loop
      vertex   -9.423784e+00 9.219294e+01 1.552733e+02
      vertex   -6.578723e+00 9.219253e+01 1.442283e+02
      vertex   -6.895759e+00 9.219258e+01 1.441881e+02
    endloop
  endfacet
  facet normal 1.437957e-04 1.000000e+00 2.797476e-13
    outer loop
      vertex   -1.184093e+01 9.219329e+01 1.544659e+02
      vertex   -6.895759e+00 9.219258e+01 1.441881e+02
      vertex   -7.198866e+00 9.219262e+01 1.440868e+02
    endloop
  endfacet
  facet normal 1.437957e-04 1.000000e+00 3.050150e-13
    outer loop
      vertex   -1.405411e+01 9.219361e+01 1.532024e+02
      vertex   -7.198866e+00 9.219262e+01 1.440868e+02
      vertex   -7.476396e+00 9.219266e+01 1.439284e+02
    endloop
  endfacet
  facet normal 1.437957e-04 1.000000e+00 2.901912e-13
    outer loop
      vertex   -1.597827e+01 9.219388e+01 1.515314e+02
      vertex   -7.476396e+00 9.219266e+01 1.439284e+02
      vertex   -7.717683e+00 9.219269e+01 1.437189e+02
    endloop
  endfacet
  facet normal 1.437957e-04 1.000000e+00 2.973162e-13
    outer loop
      vertex   -7.913454e+00 9.219272e+01 1.434663e+02
      vertex   -1.597827e+01 9.219388e+01 1.515314e+02
      vertex   -7.717683e+00 9.219269e+01 1.437189e+02
    endloop
  endfacet
  facet normal 1.437957e-04 1.000000e+00 2.993265e-13
    outer loop
      vertex   -7.913454e+00 9.219272e+01 1.434663e+02
      vertex   -1.753946e+01 9.219411e+01 1.495171e+02
      vertex   -1.597827e+01 9.219388e+01 1.515314e+02
    endloop
  endfacet
  facet normal 1.437957e-04 1.000000e+00 2.998093e-13
    outer loop
      vertex   -7.913454e+00 9.219272e+01 1.434663e+02
      vertex   -8.056187e+00 9.219274e+01 1.431804e+02
      vertex   -1.753946e+01 9.219411e+01 1.495171e+02
    endloop
  endfacet
  facet normal 1.437957e-04 1.000000e+00 2.963689e-13
    outer loop
      vertex   -1.753946e+01 9.219411e+01 1.495171e+02
      vertex   -8.056187e+00 9.219274e+01 1.431804e+02
      vertex   -1.867770e+01 9.219427e+01 1.472370e+02
    endloop
  endfacet
  facet normal 1.437957e-04 1.000000e+00 3.057282e-13
    outer loop
      vertex   -1.867770e+01 9.219427e+01 1.472370e+02
      vertex   -8.056187e+00 9.219274e+01 1.431804e+02
      vertex   -8.140396e+00 9.219275e+01 1.428721e+02
    endloop
  endfacet
  facet normal 1.437957e-04 1.000000e+00 3.208248e-13
    outer loop
      vertex   -1.934923e+01 9.219437e+01 1.447786e+02
      vertex   -8.140396e+00 9.219275e+01 1.428721e+02
      vertex   -8.162845e+00 9.219276e+01 1.425533e+02
    endloop
  endfacet
  facet normal 1.437957e-04 1.000000e+00 2.721197e-13
    outer loop
      vertex   -1.952825e+01 9.219439e+01 1.422365e+02
      vertex   -8.162845e+00 9.219276e+01 1.425533e+02
      vertex   -8.122671e+00 9.219275e+01 1.422363e+02
    endloop
  endfacet
  facet normal 1.437957e-04 1.000000e+00 2.856951e-13
    outer loop
      vertex   -1.920788e+01 9.219435e+01 1.397082e+02
      vertex   -8.122671e+00 9.219275e+01 1.422363e+02
      vertex   -8.021419e+00 9.219274e+01 1.419332e+02
    endloop
  endfacet
  facet normal 1.437957e-04 1.000000e+00 3.225848e-13
    outer loop
      vertex   -1.840043e+01 9.219423e+01 1.372911e+02
      vertex   -8.021419e+00 9.219274e+01 1.419332e+02
      vertex   -7.862979e+00 9.219272e+01 1.416556e+02
    endloop
  endfacet
  facet normal 1.437957e-04 1.000000e+00 2.967511e-13
    outer loop
      vertex   -1.713694e+01 9.219405e+01 1.350779e+02
      vertex   -7.862979e+00 9.219272e+01 1.416556e+02
      vertex   -1.546596e+01 9.219381e+01 1.331537e+02
    endloop
  endfacet
  facet normal 1.437957e-04 1.000000e+00 2.938576e-13
    outer loop
      vertex   -1.713694e+01 9.219405e+01 1.350779e+02
      vertex   -1.840043e+01 9.219423e+01 1.372911e+02
      vertex   -7.862979e+00 9.219272e+01 1.416556e+02
    endloop
  endfacet
  facet normal 1.437957e-04 1.000000e+00 3.050150e-13
    outer loop
      vertex   -5.867725e+00 9.219243e+01 1.411106e+02
      vertex   -5.590196e+00 9.219239e+01 1.412690e+02
      vertex   9.875204e-01 9.219144e+01 1.319951e+02
    endloop
  endfacet
  facet normal 1.437957e-04 1.000000e+00 2.973588e-13
    outer loop
      vertex   -1.225659e+00 9.219176e+01 1.307316e+02
      vertex   -5.867725e+00 9.219243e+01 1.411106e+02
      vertex   9.875204e-01 9.219144e+01 1.319951e+02
    endloop
  endfacet
  facet normal 1.437957e-04 1.000000e+00 2.797476e-13
    outer loop
      vertex   -1.225659e+00 9.219176e+01 1.307316e+02
      vertex   -6.170833e+00 9.219247e+01 1.410093e+02
      vertex   -5.867725e+00 9.219243e+01 1.411106e+02
    endloop
  endfacet
  facet normal 1.437957e-04 1.000000e+00 2.940681e-13
    outer loop
      vertex   -1.225659e+00 9.219176e+01 1.307316e+02
      vertex   -3.642807e+00 9.219211e+01 1.299241e+02
      vertex   -6.170833e+00 9.219247e+01 1.410093e+02
    endloop
  endfacet
  facet normal 1.437957e-04 1.000000e+00 2.922765e-13
    outer loop
      vertex   -6.170833e+00 9.219247e+01 1.410093e+02
      vertex   -3.642807e+00 9.219211e+01 1.299241e+02
      vertex   -6.487869e+00 9.219252e+01 1.409692e+02
    endloop
  endfacet
  facet normal 1.437957e-04 1.000000e+00 2.966483e-13
    outer loop
      vertex   -6.487869e+00 9.219252e+01 1.409692e+02
      vertex   -3.642807e+00 9.219211e+01 1.299241e+02
      vertex   -6.171036e+00 9.219247e+01 1.296038e+02
    endloop
  endfacet
  facet normal 1.437957e-04 1.000000e+00 2.952239e-13
    outer loop
      vertex   -6.806651e+00 9.219256e+01 1.409916e+02
      vertex   -6.171036e+00 9.219247e+01 1.296038e+02
      vertex   -8.713186e+00 9.219284e+01 1.297828e+02
    endloop
  endfacet
  facet normal 1.437957e-04 1.000000e+00 2.968687e-13
    outer loop
      vertex   -7.114928e+00 9.219261e+01 1.410758e+02
      vertex   -8.713186e+00 9.219284e+01 1.297828e+02
      vertex   -1.117156e+01 9.219319e+01 1.304543e+02
    endloop
  endfacet
  facet normal 1.437957e-04 1.000000e+00 2.941067e-13
    outer loop
      vertex   -7.400854e+00 9.219265e+01 1.412186e+02
      vertex   -1.117156e+01 9.219319e+01 1.304543e+02
      vertex   -1.345170e+01 9.219352e+01 1.315926e+02
    endloop
  endfacet
  facet normal 1.437957e-04 1.000000e+00 2.957503e-13
    outer loop
      vertex   -7.653439e+00 9.219268e+01 1.414143e+02
      vertex   -1.345170e+01 9.219352e+01 1.315926e+02
      vertex   -1.546596e+01 9.219381e+01 1.331537e+02
    endloop
  endfacet
  facet normal 1.437957e-04 1.000000e+00 3.006464e-13
    outer loop
      vertex   -7.862979e+00 9.219272e+01 1.416556e+02
      vertex   -7.653439e+00 9.219268e+01 1.414143e+02
      vertex   -1.546596e+01 9.219381e+01 1.331537e+02
    endloop
  endfacet
  facet normal 1.437957e-04 1.000000e+00 2.921830e-13
    outer loop
      vertex   9.875204e-01 9.219144e+01 1.319951e+02
      vertex   -5.348909e+00 9.219235e+01 1.414786e+02
      vertex   2.911679e+00 9.219117e+01 1.336661e+02
    endloop
  endfacet
  facet normal 1.437957e-04 1.000000e+00 2.906551e-13
    outer loop
      vertex   9.875204e-01 9.219144e+01 1.319951e+02
      vertex   -5.590196e+00 9.219239e+01 1.412690e+02
      vertex   -5.348909e+00 9.219235e+01 1.414786e+02
    endloop
  endfacet
  facet normal 1.437957e-04 1.000000e+00 2.993262e-13
    outer loop
      vertex   2.911679e+00 9.219117e+01 1.336661e+02
      vertex   -5.153138e+00 9.219233e+01 1.417312e+02
      vertex   4.472872e+00 9.219094e+01 1.356803e+02
    endloop
  endfacet
  facet normal 1.437957e-04 1.000000e+00 2.973165e-13
    outer loop
      vertex   2.911679e+00 9.219117e+01 1.336661e+02
      vertex   -5.348909e+00 9.219235e+01 1.414786e+02
      vertex   -5.153138e+00 9.219233e+01 1.417312e+02
    endloop
  endfacet
  facet normal 1.437957e-04 1.000000e+00 2.963691e-13
    outer loop
      vertex   4.472872e+00 9.219094e+01 1.356803e+02
      vertex   -5.010405e+00 9.219230e+01 1.420171e+02
      vertex   5.611105e+00 9.219078e+01 1.379605e+02
    endloop
  endfacet
  facet normal 1.437957e-04 1.000000e+00 2.998090e-13
    outer loop
      vertex   4.472872e+00 9.219094e+01 1.356803e+02
      vertex   -5.153138e+00 9.219233e+01 1.417312e+02
      vertex   -5.010405e+00 9.219230e+01 1.420171e+02
    endloop
  endfacet
  facet normal 1.437957e-04 1.000000e+00 2.906552e-13
    outer loop
      vertex   -1.840043e+01 9.219423e+01 1.372911e+02
      vertex   -1.920788e+01 9.219435e+01 1.397082e+02
      vertex   -8.021419e+00 9.219274e+01 1.419332e+02
    endloop
  endfacet
  facet normal 1.437957e-04 1.000000e+00 3.017660e-13
    outer loop
      vertex   -1.920788e+01 9.219435e+01 1.397082e+02
      vertex   -1.952825e+01 9.219439e+01 1.422365e+02
      vertex   -8.122671e+00 9.219275e+01 1.422363e+02
    endloop
  endfacet
  facet normal 1.437957e-04 1.000000e+00 2.934281e-13
    outer loop
      vertex   -1.952825e+01 9.219439e+01 1.422365e+02
      vertex   -1.934923e+01 9.219437e+01 1.447786e+02
      vertex   -8.162845e+00 9.219276e+01 1.425533e+02
    endloop
  endfacet
  facet normal 1.437957e-04 1.000000e+00 2.926755e-13
    outer loop
      vertex   -1.934923e+01 9.219437e+01 1.447786e+02
      vertex   -1.867770e+01 9.219427e+01 1.472370e+02
      vertex   -8.140396e+00 9.219275e+01 1.428721e+02
    endloop
  endfacet
  facet normal 1.437957e-04 1.000000e+00 2.922411e-13
    outer loop
      vertex   -1.597827e+01 9.219388e+01 1.515314e+02
      vertex   -1.405411e+01 9.219361e+01 1.532024e+02
      vertex   -7.476396e+00 9.219266e+01 1.439284e+02
    endloop
  endfacet
  facet normal 1.437957e-04 1.000000e+00 2.973589e-13
    outer loop
      vertex   -1.405411e+01 9.219361e+01 1.532024e+02
      vertex   -1.184093e+01 9.219329e+01 1.544659e+02
      vertex   -7.198866e+00 9.219262e+01 1.440868e+02
    endloop
  endfacet
  facet normal 1.437957e-04 1.000000e+00 2.940682e-13
    outer loop
      vertex   -1.184093e+01 9.219329e+01 1.544659e+02
      vertex   -9.423784e+00 9.219294e+01 1.552733e+02
      vertex   -6.895759e+00 9.219258e+01 1.441881e+02
    endloop
  endfacet
  facet normal 1.437957e-04 1.000000e+00 2.966484e-13
    outer loop
      vertex   -9.423784e+00 9.219294e+01 1.552733e+02
      vertex   -6.895556e+00 9.219258e+01 1.555937e+02
      vertex   -6.578723e+00 9.219253e+01 1.442283e+02
    endloop
  endfacet
  facet normal 1.437957e-04 1.000000e+00 2.952240e-13
    outer loop
      vertex   -6.895556e+00 9.219258e+01 1.555937e+02
      vertex   -4.353406e+00 9.219221e+01 1.554147e+02
      vertex   -6.259941e+00 9.219248e+01 1.442058e+02
    endloop
  endfacet
  facet normal 1.437957e-04 1.000000e+00 2.968687e-13
    outer loop
      vertex   -4.353406e+00 9.219221e+01 1.554147e+02
      vertex   -1.895028e+00 9.219186e+01 1.547431e+02
      vertex   -5.951663e+00 9.219244e+01 1.441216e+02
    endloop
  endfacet
  facet normal 1.437957e-04 1.000000e+00 2.954880e-13
    outer loop
      vertex   -7.653439e+00 9.219268e+01 1.414143e+02
      vertex   -7.400854e+00 9.219265e+01 1.412186e+02
      vertex   -1.345170e+01 9.219352e+01 1.315926e+02
    endloop
  endfacet
  facet normal 1.437957e-04 1.000000e+00 2.880876e-13
    outer loop
      vertex   -7.400854e+00 9.219265e+01 1.412186e+02
      vertex   -7.114928e+00 9.219261e+01 1.410758e+02
      vertex   -1.117156e+01 9.219319e+01 1.304543e+02
    endloop
  endfacet
  facet normal 1.437957e-04 1.000000e+00 2.986164e-13
    outer loop
      vertex   -7.114928e+00 9.219261e+01 1.410758e+02
      vertex   -6.806651e+00 9.219256e+01 1.409916e+02
      vertex   -8.713186e+00 9.219284e+01 1.297828e+02
    endloop
  endfacet
  facet normal 1.437957e-04 1.000000e+00 2.980241e-13
    outer loop
      vertex   -6.806651e+00 9.219256e+01 1.409916e+02
      vertex   -6.487869e+00 9.219252e+01 1.409692e+02
      vertex   -6.171036e+00 9.219247e+01 1.296038e+02
    endloop
  endfacet
  facet normal 1.437957e-04 1.000000e+00 3.057282e-13
    outer loop
      vertex   -5.010405e+00 9.219230e+01 1.420171e+02
      vertex   -4.926196e+00 9.219229e+01 1.423254e+02
      vertex   5.611105e+00 9.219078e+01 1.379605e+02
    endloop
  endfacet
  facet normal 1.437957e-04 1.000000e+00 2.926754e-13
    outer loop
      vertex   5.611105e+00 9.219078e+01 1.379605e+02
      vertex   -4.926196e+00 9.219229e+01 1.423254e+02
      vertex   6.282635e+00 9.219068e+01 1.404188e+02
    endloop
  endfacet
  facet normal 1.437957e-04 1.000000e+00 3.208244e-13
    outer loop
      vertex   6.282635e+00 9.219068e+01 1.404188e+02
      vertex   -4.926196e+00 9.219229e+01 1.423254e+02
      vertex   -4.903747e+00 9.219229e+01 1.426441e+02
    endloop
  endfacet
  facet normal 1.437957e-04 1.000000e+00 2.721209e-13
    outer loop
      vertex   6.461656e+00 9.219066e+01 1.429610e+02
      vertex   -4.903747e+00 9.219229e+01 1.426441e+02
      vertex   -4.943920e+00 9.219230e+01 1.429612e+02
    endloop
  endfacet
  facet normal 1.437957e-04 1.000000e+00 2.856939e-13
    outer loop
      vertex   6.141288e+00 9.219070e+01 1.454892e+02
      vertex   -4.943920e+00 9.219230e+01 1.429612e+02
      vertex   -5.045173e+00 9.219231e+01 1.432643e+02
    endloop
  endfacet
  facet normal 1.437957e-04 1.000000e+00 3.225851e-13
    outer loop
      vertex   5.333843e+00 9.219082e+01 1.479064e+02
      vertex   -5.045173e+00 9.219231e+01 1.432643e+02
      vertex   -5.203613e+00 9.219233e+01 1.435418e+02
    endloop
  endfacet
  facet normal 1.437957e-04 1.000000e+00 2.938577e-13
    outer loop
      vertex   4.070351e+00 9.219100e+01 1.501195e+02
      vertex   5.333843e+00 9.219082e+01 1.479064e+02
      vertex   -5.203613e+00 9.219233e+01 1.435418e+02
    endloop
  endfacet
  facet normal 1.437957e-04 1.000000e+00 2.934281e-13
    outer loop
      vertex   6.282635e+00 9.219068e+01 1.404188e+02
      vertex   -4.903747e+00 9.219229e+01 1.426441e+02
      vertex   6.461656e+00 9.219066e+01 1.429610e+02
    endloop
  endfacet
  facet normal 1.437957e-04 1.000000e+00 3.017661e-13
    outer loop
      vertex   6.461656e+00 9.219066e+01 1.429610e+02
      vertex   -4.943920e+00 9.219230e+01 1.429612e+02
      vertex   6.141288e+00 9.219070e+01 1.454892e+02
    endloop
  endfacet
  facet normal 1.437957e-04 1.000000e+00 2.906552e-13
    outer loop
      vertex   6.141288e+00 9.219070e+01 1.454892e+02
      vertex   -5.045173e+00 9.219231e+01 1.432643e+02
      vertex   5.333843e+00 9.219082e+01 1.479064e+02
    endloop
  endfacet
  facet normal -8.684428e-01 1.248784e-04 -4.957894e-01
    outer loop
      vertex   -1.713874e+01 7.969405e+01 1.350779e+02
      vertex   -1.840223e+01 7.969423e+01 1.372911e+02
      vertex   -1.713694e+01 9.219405e+01 1.350779e+02
    endloop
  endfacet
  facet normal -8.684428e-01 1.248784e-04 -4.957894e-01
    outer loop
      vertex   -1.713694e+01 9.219405e+01 1.350779e+02
      vertex   -1.840223e+01 7.969423e+01 1.372911e+02
      vertex   -1.840043e+01 9.219423e+01 1.372911e+02
    endloop
  endfacet
  facet normal -9.484796e-01 1.363873e-04 -3.168382e-01
    outer loop
      vertex   -1.840043e+01 9.219423e+01 1.372911e+02
      vertex   -1.840223e+01 7.969423e+01 1.372911e+02
      vertex   -1.920968e+01 7.969435e+01 1.397082e+02
    endloop
  endfacet
  facet normal -9.920669e-01 1.426550e-04 -1.257110e-01
    outer loop
      vertex   -1.920788e+01 9.219435e+01 1.397082e+02
      vertex   -1.920968e+01 7.969435e+01 1.397082e+02
      vertex   -1.953004e+01 7.969439e+01 1.422365e+02
    endloop
  endfacet
  facet normal -9.975296e-01 1.434405e-04 7.024712e-02
    outer loop
      vertex   -1.952825e+01 9.219439e+01 1.422365e+02
      vertex   -1.953004e+01 7.969439e+01 1.422365e+02
      vertex   -1.935102e+01 7.969437e+01 1.447786e+02
    endloop
  endfacet
  facet normal -9.646578e-01 1.387137e-04 2.635057e-01
    outer loop
      vertex   -1.934923e+01 9.219437e+01 1.447786e+02
      vertex   -1.935102e+01 7.969437e+01 1.447786e+02
      vertex   -1.867949e+01 7.969427e+01 1.472370e+02
    endloop
  endfacet
  facet normal -8.947148e-01 1.286562e-04 4.466379e-01
    outer loop
      vertex   -1.867770e+01 9.219427e+01 1.472370e+02
      vertex   -1.867949e+01 7.969427e+01 1.472370e+02
      vertex   -1.754126e+01 7.969411e+01 1.495171e+02
    endloop
  endfacet
  facet normal -7.903883e-01 1.136545e-04 6.126061e-01
    outer loop
      vertex   -1.753946e+01 9.219411e+01 1.495171e+02
      vertex   -1.754126e+01 7.969411e+01 1.495171e+02
      vertex   -1.598007e+01 7.969388e+01 1.515314e+02
    endloop
  endfacet
  facet normal -6.556877e-01 9.428510e-05 7.550322e-01
    outer loop
      vertex   -1.597827e+01 9.219388e+01 1.515314e+02
      vertex   -1.598007e+01 7.969388e+01 1.515314e+02
      vertex   -1.405591e+01 7.969361e+01 1.532024e+02
    endloop
  endfacet
  facet normal -4.957894e-01 7.129240e-05 8.684428e-01
    outer loop
      vertex   -1.405411e+01 9.219361e+01 1.532024e+02
      vertex   -1.405591e+01 7.969361e+01 1.532024e+02
      vertex   -1.184273e+01 7.969329e+01 1.544659e+02
    endloop
  endfacet
  facet normal -3.168382e-01 4.555998e-05 9.484796e-01
    outer loop
      vertex   -1.184093e+01 9.219329e+01 1.544659e+02
      vertex   -1.184273e+01 7.969329e+01 1.544659e+02
      vertex   -9.425582e+00 7.969294e+01 1.552733e+02
    endloop
  endfacet
  facet normal -1.257110e-01 1.807671e-05 9.920669e-01
    outer loop
      vertex   -9.423784e+00 9.219294e+01 1.552733e+02
      vertex   -9.425582e+00 7.969294e+01 1.552733e+02
      vertex   -6.897353e+00 7.969258e+01 1.555937e+02
    endloop
  endfacet
  facet normal 7.024712e-02 -1.010124e-05 9.975296e-01
    outer loop
      vertex   -6.895556e+00 9.219258e+01 1.555937e+02
      vertex   -6.897353e+00 7.969258e+01 1.555937e+02
      vertex   -4.355203e+00 7.969221e+01 1.554147e+02
    endloop
  endfacet
  facet normal 2.635057e-01 -3.789100e-05 9.646578e-01
    outer loop
      vertex   -4.353406e+00 9.219221e+01 1.554147e+02
      vertex   -4.355203e+00 7.969221e+01 1.554147e+02
      vertex   -1.896825e+00 7.969186e+01 1.547431e+02
    endloop
  endfacet
  facet normal 4.466379e-01 -6.422463e-05 8.947148e-01
    outer loop
      vertex   -1.895028e+00 9.219186e+01 1.547431e+02
      vertex   -1.896825e+00 7.969186e+01 1.547431e+02
      vertex   3.833069e-01 7.969153e+01 1.536049e+02
    endloop
  endfacet
  facet normal 6.126061e-01 -8.809014e-05 7.903884e-01
    outer loop
      vertex   3.851044e-01 9.219153e+01 1.536049e+02
      vertex   3.833069e-01 7.969153e+01 1.536049e+02
      vertex   2.397569e+00 7.969124e+01 1.520437e+02
    endloop
  endfacet
  facet normal 7.550322e-01 -1.085704e-04 6.556877e-01
    outer loop
      vertex   2.399366e+00 9.219124e+01 1.520437e+02
      vertex   2.397569e+00 7.969124e+01 1.520437e+02
      vertex   4.069000e+00 8.279941e+01 1.501195e+02
    endloop
  endfacet
  facet normal 7.550322e-01 -1.085704e-04 6.556877e-01
    outer loop
      vertex   4.070351e+00 9.219100e+01 1.501195e+02
      vertex   2.399366e+00 9.219124e+01 1.520437e+02
      vertex   4.069000e+00 8.279941e+01 1.501195e+02
    endloop
  endfacet
  facet normal 7.550322e-01 -1.085704e-04 6.556877e-01
    outer loop
      vertex   2.397569e+00 7.969124e+01 1.520437e+02
      vertex   4.068553e+00 7.969100e+01 1.501195e+02
      vertex   4.069000e+00 8.279941e+01 1.501195e+02
    endloop
  endfacet
  facet normal 6.126061e-01 -8.809014e-05 7.903884e-01
    outer loop
      vertex   2.399366e+00 9.219124e+01 1.520437e+02
      vertex   3.851044e-01 9.219153e+01 1.536049e+02
      vertex   2.397569e+00 7.969124e+01 1.520437e+02
    endloop
  endfacet
  facet normal 4.466379e-01 -6.422463e-05 8.947148e-01
    outer loop
      vertex   3.851044e-01 9.219153e+01 1.536049e+02
      vertex   -1.895028e+00 9.219186e+01 1.547431e+02
      vertex   3.833069e-01 7.969153e+01 1.536049e+02
    endloop
  endfacet
  facet normal 2.635057e-01 -3.789100e-05 9.646578e-01
    outer loop
      vertex   -1.895028e+00 9.219186e+01 1.547431e+02
      vertex   -4.353406e+00 9.219221e+01 1.554147e+02
      vertex   -1.896825e+00 7.969186e+01 1.547431e+02
    endloop
  endfacet
  facet normal 7.024712e-02 -1.010124e-05 9.975296e-01
    outer loop
      vertex   -4.353406e+00 9.219221e+01 1.554147e+02
      vertex   -6.895556e+00 9.219258e+01 1.555937e+02
      vertex   -4.355203e+00 7.969221e+01 1.554147e+02
    endloop
  endfacet
  facet normal -1.257110e-01 1.807671e-05 9.920669e-01
    outer loop
      vertex   -6.895556e+00 9.219258e+01 1.555937e+02
      vertex   -9.423784e+00 9.219294e+01 1.552733e+02
      vertex   -6.897353e+00 7.969258e+01 1.555937e+02
    endloop
  endfacet
  facet normal -3.168382e-01 4.555998e-05 9.484796e-01
    outer loop
      vertex   -9.423784e+00 9.219294e+01 1.552733e+02
      vertex   -1.184093e+01 9.219329e+01 1.544659e+02
      vertex   -9.425582e+00 7.969294e+01 1.552733e+02
    endloop
  endfacet
  facet normal -4.957894e-01 7.129240e-05 8.684428e-01
    outer loop
      vertex   -1.184093e+01 9.219329e+01 1.544659e+02
      vertex   -1.405411e+01 9.219361e+01 1.532024e+02
      vertex   -1.184273e+01 7.969329e+01 1.544659e+02
    endloop
  endfacet
  facet normal -6.556877e-01 9.428510e-05 7.550322e-01
    outer loop
      vertex   -1.405411e+01 9.219361e+01 1.532024e+02
      vertex   -1.597827e+01 9.219388e+01 1.515314e+02
      vertex   -1.405591e+01 7.969361e+01 1.532024e+02
    endloop
  endfacet
  facet normal -7.903883e-01 1.136545e-04 6.126061e-01
    outer loop
      vertex   -1.597827e+01 9.219388e+01 1.515314e+02
      vertex   -1.753946e+01 9.219411e+01 1.495171e+02
      vertex   -1.598007e+01 7.969388e+01 1.515314e+02
    endloop
  endfacet
  facet normal -8.947148e-01 1.286562e-04 4.466379e-01
    outer loop
      vertex   -1.753946e+01 9.219411e+01 1.495171e+02
      vertex   -1.867770e+01 9.219427e+01 1.472370e+02
      vertex   -1.754126e+01 7.969411e+01 1.495171e+02
    endloop
  endfacet
  facet normal -9.646578e-01 1.387137e-04 2.635057e-01
    outer loop
      vertex   -1.867770e+01 9.219427e+01 1.472370e+02
      vertex   -1.934923e+01 9.219437e+01 1.447786e+02
      vertex   -1.867949e+01 7.969427e+01 1.472370e+02
    endloop
  endfacet
  facet normal -9.975296e-01 1.434405e-04 7.024712e-02
    outer loop
      vertex   -1.934923e+01 9.219437e+01 1.447786e+02
      vertex   -1.952825e+01 9.219439e+01 1.422365e+02
      vertex   -1.935102e+01 7.969437e+01 1.447786e+02
    endloop
  endfacet
  facet normal -9.920669e-01 1.426550e-04 -1.257110e-01
    outer loop
      vertex   -1.952825e+01 9.219439e+01 1.422365e+02
      vertex   -1.920788e+01 9.219435e+01 1.397082e+02
      vertex   -1.953004e+01 7.969439e+01 1.422365e+02
    endloop
  endfacet
  facet normal -9.484796e-01 1.363873e-04 -3.168382e-01
    outer loop
      vertex   -1.920788e+01 9.219435e+01 1.397082e+02
      vertex   -1.840043e+01 9.219423e+01 1.372911e+02
      vertex   -1.920968e+01 7.969435e+01 1.397082e+02
    endloop
  endfacet
  facet normal 4.957894e-01 -7.129240e-05 -8.684428e-01
    outer loop
      vertex   -7.478193e+00 7.969266e+01 1.439284e+02
      vertex   -7.476396e+00 9.219266e+01 1.439284e+02
      vertex   -7.200664e+00 7.969262e+01 1.440868e+02
    endloop
  endfacet
  facet normal 4.957894e-01 -7.129240e-05 -8.684428e-01
    outer loop
      vertex   -7.200664e+00 7.969262e+01 1.440868e+02
      vertex   -7.476396e+00 9.219266e+01 1.439284e+02
      vertex   -7.198866e+00 9.219262e+01 1.440868e+02
    endloop
  endfacet
  facet normal 3.168382e-01 -4.555998e-05 -9.484796e-01
    outer loop
      vertex   -6.895759e+00 9.219258e+01 1.441881e+02
      vertex   -7.200664e+00 7.969262e+01 1.440868e+02
      vertex   -7.198866e+00 9.219262e+01 1.440868e+02
    endloop
  endfacet
  facet normal 3.168382e-01 -4.555998e-05 -9.484796e-01
    outer loop
      vertex   -6.895759e+00 9.219258e+01 1.441881e+02
      vertex   -6.897557e+00 7.969258e+01 1.441881e+02
      vertex   -7.200664e+00 7.969262e+01 1.440868e+02
    endloop
  endfacet
  facet normal 1.257110e-01 -1.807671e-05 -9.920669e-01
    outer loop
      vertex   -6.895759e+00 9.219258e+01 1.441881e+02
      vertex   -6.578723e+00 9.219253e+01 1.442283e+02
      vertex   -6.897557e+00 7.969258e+01 1.441881e+02
    endloop
  endfacet
  facet normal 1.257110e-01 -1.807671e-05 -9.920669e-01
    outer loop
      vertex   -6.897557e+00 7.969258e+01 1.441881e+02
      vertex   -6.578723e+00 9.219253e+01 1.442283e+02
      vertex   -6.580520e+00 7.969253e+01 1.442283e+02
    endloop
  endfacet
  facet normal -7.024712e-02 1.010124e-05 -9.975296e-01
    outer loop
      vertex   -6.580520e+00 7.969253e+01 1.442283e+02
      vertex   -6.578723e+00 9.219253e+01 1.442283e+02
      vertex   -6.259941e+00 9.219248e+01 1.442058e+02
    endloop
  endfacet
  facet normal -2.635057e-01 3.789100e-05 -9.646578e-01
    outer loop
      vertex   -6.261738e+00 7.969248e+01 1.442058e+02
      vertex   -6.259941e+00 9.219248e+01 1.442058e+02
      vertex   -5.951663e+00 9.219244e+01 1.441216e+02
    endloop
  endfacet
  facet normal -4.466379e-01 6.422463e-05 -8.947148e-01
    outer loop
      vertex   -5.953461e+00 7.969244e+01 1.441216e+02
      vertex   -5.951663e+00 9.219244e+01 1.441216e+02
      vertex   -5.667535e+00 7.969240e+01 1.439789e+02
    endloop
  endfacet
  facet normal -2.635057e-01 3.789100e-05 -9.646578e-01
    outer loop
      vertex   -5.953461e+00 7.969244e+01 1.441216e+02
      vertex   -6.261738e+00 7.969248e+01 1.442058e+02
      vertex   -5.951663e+00 9.219244e+01 1.441216e+02
    endloop
  endfacet
  facet normal -4.466379e-01 6.422463e-05 -8.947148e-01
    outer loop
      vertex   -5.951663e+00 9.219244e+01 1.441216e+02
      vertex   -5.665738e+00 9.219240e+01 1.439789e+02
      vertex   -5.667535e+00 7.969240e+01 1.439789e+02
    endloop
  endfacet
  facet normal -6.126061e-01 8.809014e-05 -7.903884e-01
    outer loop
      vertex   -5.667535e+00 7.969240e+01 1.439789e+02
      vertex   -5.665738e+00 9.219240e+01 1.439789e+02
      vertex   -5.413152e+00 9.219236e+01 1.437831e+02
    endloop
  endfacet
  facet normal -7.550322e-01 1.085704e-04 -6.556877e-01
    outer loop
      vertex   -5.414950e+00 7.969236e+01 1.437831e+02
      vertex   -5.413152e+00 9.219236e+01 1.437831e+02
      vertex   -5.203613e+00 9.219233e+01 1.435418e+02
    endloop
  endfacet
  facet normal -8.684428e-01 1.248784e-04 -4.957894e-01
    outer loop
      vertex   -5.205411e+00 7.969233e+01 1.435418e+02
      vertex   -5.203613e+00 9.219233e+01 1.435418e+02
      vertex   -5.045173e+00 9.219231e+01 1.432643e+02
    endloop
  endfacet
  facet normal -9.484796e-01 1.363873e-04 -3.168382e-01
    outer loop
      vertex   -5.046970e+00 7.969231e+01 1.432643e+02
      vertex   -5.045173e+00 9.219231e+01 1.432643e+02
      vertex   -4.943920e+00 9.219230e+01 1.429612e+02
    endloop
  endfacet
  facet normal -9.920669e-01 1.426550e-04 -1.257110e-01
    outer loop
      vertex   -4.945718e+00 7.969230e+01 1.429612e+02
      vertex   -4.943920e+00 9.219230e+01 1.429612e+02
      vertex   -4.905544e+00 7.969229e+01 1.426441e+02
    endloop
  endfacet
  facet normal -9.484796e-01 1.363873e-04 -3.168382e-01
    outer loop
      vertex   -4.945718e+00 7.969230e+01 1.429612e+02
      vertex   -5.046970e+00 7.969231e+01 1.432643e+02
      vertex   -4.943920e+00 9.219230e+01 1.429612e+02
    endloop
  endfacet
  facet normal -9.920669e-01 1.426550e-04 -1.257110e-01
    outer loop
      vertex   -4.943920e+00 9.219230e+01 1.429612e+02
      vertex   -4.903747e+00 9.219229e+01 1.426441e+02
      vertex   -4.905544e+00 7.969229e+01 1.426441e+02
    endloop
  endfacet
  facet normal -9.975296e-01 1.434405e-04 7.024712e-02
    outer loop
      vertex   -4.905544e+00 7.969229e+01 1.426441e+02
      vertex   -4.903747e+00 9.219229e+01 1.426441e+02
      vertex   -4.926196e+00 9.219229e+01 1.423254e+02
    endloop
  endfacet
  facet normal -9.646578e-01 1.387137e-04 2.635057e-01
    outer loop
      vertex   -4.927993e+00 7.969229e+01 1.423254e+02
      vertex   -4.926196e+00 9.219229e+01 1.423254e+02
      vertex   -5.010405e+00 9.219230e+01 1.420171e+02
    endloop
  endfacet
  facet normal -8.947148e-01 1.286562e-04 4.466379e-01
    outer loop
      vertex   -5.012202e+00 7.969230e+01 1.420171e+02
      vertex   -5.010405e+00 9.219230e+01 1.420171e+02
      vertex   -5.153138e+00 9.219233e+01 1.417312e+02
    endloop
  endfacet
  facet normal -7.903883e-01 1.136545e-04 6.126061e-01
    outer loop
      vertex   -5.154935e+00 7.969233e+01 1.417312e+02
      vertex   -5.153138e+00 9.219233e+01 1.417312e+02
      vertex   -5.348909e+00 9.219235e+01 1.414786e+02
    endloop
  endfacet
  facet normal -6.556877e-01 9.428510e-05 7.550322e-01
    outer loop
      vertex   -5.350706e+00 7.969235e+01 1.414786e+02
      vertex   -5.348909e+00 9.219235e+01 1.414786e+02
      vertex   -5.590648e+00 8.905080e+01 1.412690e+02
    endloop
  endfacet
  facet normal -6.556877e-01 9.428510e-05 7.550322e-01
    outer loop
      vertex   -5.591993e+00 7.969239e+01 1.412690e+02
      vertex   -5.350706e+00 7.969235e+01 1.414786e+02
      vertex   -5.590648e+00 8.905080e+01 1.412690e+02
    endloop
  endfacet
  facet normal -6.556877e-01 9.428510e-05 7.550322e-01
    outer loop
      vertex   -5.348909e+00 9.219235e+01 1.414786e+02
      vertex   -5.590196e+00 9.219239e+01 1.412690e+02
      vertex   -5.590648e+00 8.905080e+01 1.412690e+02
    endloop
  endfacet
  facet normal -7.903883e-01 1.136545e-04 6.126061e-01
    outer loop
      vertex   -5.350706e+00 7.969235e+01 1.414786e+02
      vertex   -5.154935e+00 7.969233e+01 1.417312e+02
      vertex   -5.348909e+00 9.219235e+01 1.414786e+02
    endloop
  endfacet
  facet normal -8.947148e-01 1.286562e-04 4.466379e-01
    outer loop
      vertex   -5.154935e+00 7.969233e+01 1.417312e+02
      vertex   -5.012202e+00 7.969230e+01 1.420171e+02
      vertex   -5.153138e+00 9.219233e+01 1.417312e+02
    endloop
  endfacet
  facet normal -9.646578e-01 1.387137e-04 2.635057e-01
    outer loop
      vertex   -5.012202e+00 7.969230e+01 1.420171e+02
      vertex   -4.927993e+00 7.969229e+01 1.423254e+02
      vertex   -5.010405e+00 9.219230e+01 1.420171e+02
    endloop
  endfacet
  facet normal -9.975296e-01 1.434405e-04 7.024712e-02
    outer loop
      vertex   -4.927993e+00 7.969229e+01 1.423254e+02
      vertex   -4.905544e+00 7.969229e+01 1.426441e+02
      vertex   -4.926196e+00 9.219229e+01 1.423254e+02
    endloop
  endfacet
  facet normal -8.684428e-01 1.248784e-04 -4.957894e-01
    outer loop
      vertex   -5.046970e+00 7.969231e+01 1.432643e+02
      vertex   -5.205411e+00 7.969233e+01 1.435418e+02
      vertex   -5.045173e+00 9.219231e+01 1.432643e+02
    endloop
  endfacet
  facet normal -7.550322e-01 1.085704e-04 -6.556877e-01
    outer loop
      vertex   -5.205411e+00 7.969233e+01 1.435418e+02
      vertex   -5.414950e+00 7.969236e+01 1.437831e+02
      vertex   -5.203613e+00 9.219233e+01 1.435418e+02
    endloop
  endfacet
  facet normal -6.126061e-01 8.809014e-05 -7.903884e-01
    outer loop
      vertex   -5.414950e+00 7.969236e+01 1.437831e+02
      vertex   -5.667535e+00 7.969240e+01 1.439789e+02
      vertex   -5.413152e+00 9.219236e+01 1.437831e+02
    endloop
  endfacet
  facet normal -7.024712e-02 1.010124e-05 -9.975296e-01
    outer loop
      vertex   -6.261738e+00 7.969248e+01 1.442058e+02
      vertex   -6.580520e+00 7.969253e+01 1.442283e+02
      vertex   -6.259941e+00 9.219248e+01 1.442058e+02
    endloop
  endfacet
endsolid
