solid ascii
  facet normal 0.000000e+00 -0.000000e+00 1.000000e+00
    outer loop
      vertex   -8.303488e+01 1.276925e+02 5.598732e+00
      vertex   -6.553488e+01 1.276925e+02 5.598732e+00
      vertex   -8.303488e+01 1.451925e+02 5.598732e+00
    endloop
  endfacet
  facet normal -0.000000e+00 0.000000e+00 1.000000e+00
    outer loop
      vertex   -8.303488e+01 1.451925e+02 5.598732e+00
      vertex   -6.553488e+01 1.276925e+02 5.598732e+00
      vertex   -5.303488e+01 1.401925e+02 5.598732e+00
    endloop
  endfacet
  facet normal -0.000000e+00 0.000000e+00 1.000000e+00
    outer loop
      vertex   -7.053488e+01 1.576925e+02 5.598732e+00
      vertex   -5.303488e+01 1.401925e+02 5.598732e+00
      vertex   -5.303488e+01 1.576925e+02 5.598732e+00
    endloop
  endfacet
  facet normal 0.000000e+00 0.000000e+00 1.000000e+00
    outer loop
      vertex   -7.053488e+01 1.576925e+02 5.598732e+00
      vertex   -8.303488e+01 1.451925e+02 5.598732e+00
      vertex   -5.303488e+01 1.401925e+02 5.598732e+00
    endloop
  endfacet
  facet normal 0.000000e+00 0.000000e+00 1.000000e+00
    outer loop
      vertex   -7.053488e+01 1.576925e+02 5.598732e+00
      vertex   -7.297351e+01 1.574523e+02 5.598732e+00
      vertex   -8.303488e+01 1.451925e+02 5.598732e+00
    endloop
  endfacet
  facet normal 0.000000e+00 -0.000000e+00 1.000000e+00
    outer loop
      vertex   -8.303488e+01 1.451925e+02 5.598732e+00
      vertex   -7.297351e+01 1.574523e+02 5.598732e+00
      vertex   -7.531842e+01 1.567410e+02 5.598732e+00
    endloop
  endfacet
  facet normal -0.000000e+00 0.000000e+00 1.000000e+00
    outer loop
      vertex   -7.747951e+01 1.555859e+02 5.598732e+00
      vertex   -8.303488e+01 1.451925e+02 5.598732e+00
      vertex   -7.531842e+01 1.567410e+02 5.598732e+00
    endloop
  endfacet
  facet normal 0.000000e+00 0.000000e+00 1.000000e+00
    outer loop
      vertex   -7.747951e+01 1.555859e+02 5.598732e+00
      vertex   -7.937371e+01 1.540314e+02 5.598732e+00
      vertex   -8.303488e+01 1.451925e+02 5.598732e+00
    endloop
  endfacet
  facet normal 0.000000e+00 -0.000000e+00 1.000000e+00
    outer loop
      vertex   -8.303488e+01 1.451925e+02 5.598732e+00
      vertex   -7.937371e+01 1.540314e+02 5.598732e+00
      vertex   -8.092825e+01 1.521372e+02 5.598732e+00
    endloop
  endfacet
  facet normal -0.000000e+00 0.000000e+00 1.000000e+00
    outer loop
      vertex   -8.208337e+01 1.499761e+02 5.598732e+00
      vertex   -8.303488e+01 1.451925e+02 5.598732e+00
      vertex   -8.092825e+01 1.521372e+02 5.598732e+00
    endloop
  endfacet
  facet normal 0.000000e+00 0.000000e+00 1.000000e+00
    outer loop
      vertex   -8.208337e+01 1.499761e+02 5.598732e+00
      vertex   -8.279469e+01 1.476312e+02 5.598732e+00
      vertex   -8.303488e+01 1.451925e+02 5.598732e+00
    endloop
  endfacet
  facet normal 0.000000e+00 -0.000000e+00 1.000000e+00
    outer loop
      vertex   -6.309625e+01 1.279327e+02 5.598732e+00
      vertex   -6.075133e+01 1.286440e+02 5.598732e+00
      vertex   -6.553488e+01 1.276925e+02 5.598732e+00
    endloop
  endfacet
  facet normal 0.000000e+00 0.000000e+00 1.000000e+00
    outer loop
      vertex   -6.553488e+01 1.276925e+02 5.598732e+00
      vertex   -6.075133e+01 1.286440e+02 5.598732e+00
      vertex   -5.859025e+01 1.297992e+02 5.598732e+00
    endloop
  endfacet
  facet normal -0.000000e+00 0.000000e+00 1.000000e+00
    outer loop
      vertex   -5.669604e+01 1.313537e+02 5.598732e+00
      vertex   -6.553488e+01 1.276925e+02 5.598732e+00
      vertex   -5.859025e+01 1.297992e+02 5.598732e+00
    endloop
  endfacet
  facet normal 0.000000e+00 -0.000000e+00 1.000000e+00
    outer loop
      vertex   -5.669604e+01 1.313537e+02 5.598732e+00
      vertex   -5.514151e+01 1.332479e+02 5.598732e+00
      vertex   -6.553488e+01 1.276925e+02 5.598732e+00
    endloop
  endfacet
  facet normal 0.000000e+00 0.000000e+00 1.000000e+00
    outer loop
      vertex   -6.553488e+01 1.276925e+02 5.598732e+00
      vertex   -5.514151e+01 1.332479e+02 5.598732e+00
      vertex   -5.398638e+01 1.354090e+02 5.598732e+00
    endloop
  endfacet
  facet normal -0.000000e+00 0.000000e+00 1.000000e+00
    outer loop
      vertex   -5.327506e+01 1.377539e+02 5.598732e+00
      vertex   -6.553488e+01 1.276925e+02 5.598732e+00
      vertex   -5.398638e+01 1.354090e+02 5.598732e+00
    endloop
  endfacet
  facet normal 0.000000e+00 -0.000000e+00 1.000000e+00
    outer loop
      vertex   -5.327506e+01 1.377539e+02 5.598732e+00
      vertex   -5.303488e+01 1.401925e+02 5.598732e+00
      vertex   -6.553488e+01 1.276925e+02 5.598732e+00
    endloop
  endfacet
  facet normal -1.000000e+00 0.000000e+00 -0.000000e+00
    outer loop
      vertex   -8.303488e+01 1.276925e+02 5.598732e+00
      vertex   -8.303488e+01 1.451925e+02 5.598732e+00
      vertex   -8.303488e+01 1.276925e+02 3.598732e+00
    endloop
  endfacet
  facet normal -1.000000e+00 0.000000e+00 0.000000e+00
    outer loop
      vertex   -8.303488e+01 1.276925e+02 3.598732e+00
      vertex   -8.303488e+01 1.451925e+02 5.598732e+00
      vertex   -8.303488e+01 1.451925e+02 3.598732e+00
    endloop
  endfacet
  facet normal -0.000000e+00 -1.000000e+00 -0.000000e+00
    outer loop
      vertex   -6.553488e+01 1.276925e+02 5.598732e+00
      vertex   -8.303488e+01 1.276925e+02 5.598732e+00
      vertex   -6.553488e+01 1.276925e+02 3.598732e+00
    endloop
  endfacet
  facet normal -0.000000e+00 -1.000000e+00 -0.000000e+00
    outer loop
      vertex   -6.553488e+01 1.276925e+02 3.598732e+00
      vertex   -8.303488e+01 1.276925e+02 5.598732e+00
      vertex   -8.303488e+01 1.276925e+02 3.598732e+00
    endloop
  endfacet
  facet normal 9.951847e-01 -9.801714e-02 0.000000e+00
    outer loop
      vertex   -5.303488e+01 1.401925e+02 5.598732e+00
      vertex   -5.327506e+01 1.377539e+02 5.598732e+00
      vertex   -5.303488e+01 1.401925e+02 3.598732e+00
    endloop
  endfacet
  facet normal 9.951847e-01 -9.801714e-02 0.000000e+00
    outer loop
      vertex   -5.303488e+01 1.401925e+02 3.598732e+00
      vertex   -5.327506e+01 1.377539e+02 5.598732e+00
      vertex   -5.327506e+01 1.377539e+02 3.598732e+00
    endloop
  endfacet
  facet normal 9.569403e-01 -2.902847e-01 0.000000e+00
    outer loop
      vertex   -5.327506e+01 1.377539e+02 3.598732e+00
      vertex   -5.327506e+01 1.377539e+02 5.598732e+00
      vertex   -5.398638e+01 1.354090e+02 5.598732e+00
    endloop
  endfacet
  facet normal 8.819213e-01 -4.713967e-01 0.000000e+00
    outer loop
      vertex   -5.398638e+01 1.354090e+02 3.598732e+00
      vertex   -5.398638e+01 1.354090e+02 5.598732e+00
      vertex   -5.514151e+01 1.332479e+02 5.598732e+00
    endloop
  endfacet
  facet normal 7.730105e-01 -6.343933e-01 0.000000e+00
    outer loop
      vertex   -5.514151e+01 1.332479e+02 3.598732e+00
      vertex   -5.514151e+01 1.332479e+02 5.598732e+00
      vertex   -5.669604e+01 1.313537e+02 5.598732e+00
    endloop
  endfacet
  facet normal 6.343933e-01 -7.730105e-01 0.000000e+00
    outer loop
      vertex   -5.669604e+01 1.313537e+02 3.598732e+00
      vertex   -5.669604e+01 1.313537e+02 5.598732e+00
      vertex   -5.859025e+01 1.297992e+02 5.598732e+00
    endloop
  endfacet
  facet normal 4.713967e-01 -8.819213e-01 0.000000e+00
    outer loop
      vertex   -5.859025e+01 1.297992e+02 3.598732e+00
      vertex   -5.859025e+01 1.297992e+02 5.598732e+00
      vertex   -6.075133e+01 1.286440e+02 5.598732e+00
    endloop
  endfacet
  facet normal 2.902847e-01 -9.569403e-01 0.000000e+00
    outer loop
      vertex   -6.075133e+01 1.286440e+02 3.598732e+00
      vertex   -6.075133e+01 1.286440e+02 5.598732e+00
      vertex   -6.309625e+01 1.279327e+02 5.598732e+00
    endloop
  endfacet
  facet normal 9.801714e-02 -9.951847e-01 0.000000e+00
    outer loop
      vertex   -6.309625e+01 1.279327e+02 3.598732e+00
      vertex   -6.309625e+01 1.279327e+02 5.598732e+00
      vertex   -6.553488e+01 1.276925e+02 5.598732e+00
    endloop
  endfacet
  facet normal 9.801714e-02 -9.951847e-01 0.000000e+00
    outer loop
      vertex   -6.553488e+01 1.276925e+02 3.598732e+00
      vertex   -6.309625e+01 1.279327e+02 3.598732e+00
      vertex   -6.553488e+01 1.276925e+02 5.598732e+00
    endloop
  endfacet
  facet normal 2.902847e-01 -9.569403e-01 0.000000e+00
    outer loop
      vertex   -6.309625e+01 1.279327e+02 3.598732e+00
      vertex   -6.075133e+01 1.286440e+02 3.598732e+00
      vertex   -6.309625e+01 1.279327e+02 5.598732e+00
    endloop
  endfacet
  facet normal 4.713967e-01 -8.819213e-01 0.000000e+00
    outer loop
      vertex   -6.075133e+01 1.286440e+02 3.598732e+00
      vertex   -5.859025e+01 1.297992e+02 3.598732e+00
      vertex   -6.075133e+01 1.286440e+02 5.598732e+00
    endloop
  endfacet
  facet normal 6.343933e-01 -7.730105e-01 0.000000e+00
    outer loop
      vertex   -5.859025e+01 1.297992e+02 3.598732e+00
      vertex   -5.669604e+01 1.313537e+02 3.598732e+00
      vertex   -5.859025e+01 1.297992e+02 5.598732e+00
    endloop
  endfacet
  facet normal 7.730105e-01 -6.343933e-01 0.000000e+00
    outer loop
      vertex   -5.669604e+01 1.313537e+02 3.598732e+00
      vertex   -5.514151e+01 1.332479e+02 3.598732e+00
      vertex   -5.669604e+01 1.313537e+02 5.598732e+00
    endloop
  endfacet
  facet normal 8.819213e-01 -4.713967e-01 0.000000e+00
    outer loop
      vertex   -5.514151e+01 1.332479e+02 3.598732e+00
      vertex   -5.398638e+01 1.354090e+02 3.598732e+00
      vertex   -5.514151e+01 1.332479e+02 5.598732e+00
    endloop
  endfacet
  facet normal 9.569403e-01 -2.902847e-01 0.000000e+00
    outer loop
      vertex   -5.398638e+01 1.354090e+02 3.598732e+00
      vertex   -5.327506e+01 1.377539e+02 3.598732e+00
      vertex   -5.398638e+01 1.354090e+02 5.598732e+00
    endloop
  endfacet
  facet normal 1.000000e+00 -0.000000e+00 0.000000e+00
    outer loop
      vertex   -5.303488e+01 1.401925e+02 5.598732e+00
      vertex   -5.303488e+01 1.401925e+02 3.598732e+00
      vertex   -5.303488e+01 1.576925e+02 5.598732e+00
    endloop
  endfacet
  facet normal 1.000000e+00 -0.000000e+00 0.000000e+00
    outer loop
      vertex   -5.303488e+01 1.576925e+02 5.598732e+00
      vertex   -5.303488e+01 1.401925e+02 3.598732e+00
      vertex   -5.303488e+01 1.576925e+02 3.598732e+00
    endloop
  endfacet
  facet normal 0.000000e+00 1.000000e+00 0.000000e+00
    outer loop
      vertex   -5.303488e+01 1.576925e+02 5.598732e+00
      vertex   -5.303488e+01 1.576925e+02 3.598732e+00
      vertex   -7.053488e+01 1.576925e+02 5.598732e+00
    endloop
  endfacet
  facet normal 0.000000e+00 1.000000e+00 0.000000e+00
    outer loop
      vertex   -7.053488e+01 1.576925e+02 5.598732e+00
      vertex   -5.303488e+01 1.576925e+02 3.598732e+00
      vertex   -7.053488e+01 1.576925e+02 3.598732e+00
    endloop
  endfacet
  facet normal -9.951847e-01 9.801714e-02 0.000000e+00
    outer loop
      vertex   -8.303488e+01 1.451925e+02 5.598732e+00
      vertex   -8.279469e+01 1.476312e+02 5.598732e+00
      vertex   -8.303488e+01 1.451925e+02 3.598732e+00
    endloop
  endfacet
  facet normal -9.951847e-01 9.801714e-02 0.000000e+00
    outer loop
      vertex   -8.303488e+01 1.451925e+02 3.598732e+00
      vertex   -8.279469e+01 1.476312e+02 5.598732e+00
      vertex   -8.279469e+01 1.476312e+02 3.598732e+00
    endloop
  endfacet
  facet normal -9.569403e-01 2.902847e-01 0.000000e+00
    outer loop
      vertex   -8.279469e+01 1.476312e+02 3.598732e+00
      vertex   -8.279469e+01 1.476312e+02 5.598732e+00
      vertex   -8.208337e+01 1.499761e+02 5.598732e+00
    endloop
  endfacet
  facet normal -8.819213e-01 4.713967e-01 0.000000e+00
    outer loop
      vertex   -8.208337e+01 1.499761e+02 3.598732e+00
      vertex   -8.208337e+01 1.499761e+02 5.598732e+00
      vertex   -8.092825e+01 1.521372e+02 5.598732e+00
    endloop
  endfacet
  facet normal -7.730105e-01 6.343933e-01 0.000000e+00
    outer loop
      vertex   -8.092825e+01 1.521372e+02 3.598732e+00
      vertex   -8.092825e+01 1.521372e+02 5.598732e+00
      vertex   -7.937371e+01 1.540314e+02 5.598732e+00
    endloop
  endfacet
  facet normal -6.343933e-01 7.730105e-01 0.000000e+00
    outer loop
      vertex   -7.937371e+01 1.540314e+02 3.598732e+00
      vertex   -7.937371e+01 1.540314e+02 5.598732e+00
      vertex   -7.747951e+01 1.555859e+02 5.598732e+00
    endloop
  endfacet
  facet normal -4.713967e-01 8.819213e-01 0.000000e+00
    outer loop
      vertex   -7.747951e+01 1.555859e+02 3.598732e+00
      vertex   -7.747951e+01 1.555859e+02 5.598732e+00
      vertex   -7.531842e+01 1.567410e+02 5.598732e+00
    endloop
  endfacet
  facet normal -2.902847e-01 9.569403e-01 0.000000e+00
    outer loop
      vertex   -7.531842e+01 1.567410e+02 3.598732e+00
      vertex   -7.531842e+01 1.567410e+02 5.598732e+00
      vertex   -7.297351e+01 1.574523e+02 5.598732e+00
    endloop
  endfacet
  facet normal -9.801714e-02 9.951847e-01 0.000000e+00
    outer loop
      vertex   -7.297351e+01 1.574523e+02 3.598732e+00
      vertex   -7.297351e+01 1.574523e+02 5.598732e+00
      vertex   -7.053488e+01 1.576925e+02 5.598732e+00
    endloop
  endfacet
  facet normal -9.801714e-02 9.951847e-01 0.000000e+00
    outer loop
      vertex   -7.053488e+01 1.576925e+02 3.598732e+00
      vertex   -7.297351e+01 1.574523e+02 3.598732e+00
      vertex   -7.053488e+01 1.576925e+02 5.598732e+00
    endloop
  endfacet
  facet normal -2.902847e-01 9.569403e-01 0.000000e+00
    outer loop
      vertex   -7.297351e+01 1.574523e+02 3.598732e+00
      vertex   -7.531842e+01 1.567410e+02 3.598732e+00
      vertex   -7.297351e+01 1.574523e+02 5.598732e+00
    endloop
  endfacet
  facet normal -4.713967e-01 8.819213e-01 0.000000e+00
    outer loop
      vertex   -7.531842e+01 1.567410e+02 3.598732e+00
      vertex   -7.747951e+01 1.555859e+02 3.598732e+00
      vertex   -7.531842e+01 1.567410e+02 5.598732e+00
    endloop
  endfacet
  facet normal -6.343933e-01 7.730105e-01 0.000000e+00
    outer loop
      vertex   -7.747951e+01 1.555859e+02 3.598732e+00
      vertex   -7.937371e+01 1.540314e+02 3.598732e+00
      vertex   -7.747951e+01 1.555859e+02 5.598732e+00
    endloop
  endfacet
  facet normal -7.730105e-01 6.343933e-01 0.000000e+00
    outer loop
      vertex   -7.937371e+01 1.540314e+02 3.598732e+00
      vertex   -8.092825e+01 1.521372e+02 3.598732e+00
      vertex   -7.937371e+01 1.540314e+02 5.598732e+00
    endloop
  endfacet
  facet normal -8.819213e-01 4.713967e-01 0.000000e+00
    outer loop
      vertex   -8.092825e+01 1.521372e+02 3.598732e+00
      vertex   -8.208337e+01 1.499761e+02 3.598732e+00
      vertex   -8.092825e+01 1.521372e+02 5.598732e+00
    endloop
  endfacet
  facet normal -9.569403e-01 2.902847e-01 0.000000e+00
    outer loop
      vertex   -8.208337e+01 1.499761e+02 3.598732e+00
      vertex   -8.279469e+01 1.476312e+02 3.598732e+00
      vertex   -8.208337e+01 1.499761e+02 5.598732e+00
    endloop
  endfacet
  facet normal 0.000000e+00 -0.000000e+00 -1.000000e+00
    outer loop
      vertex   -8.279469e+01 1.476312e+02 3.598732e+00
      vertex   -7.053488e+01 1.576925e+02 3.598732e+00
      vertex   -8.303488e+01 1.451925e+02 3.598732e+00
    endloop
  endfacet
  facet normal 0.000000e+00 0.000000e+00 -1.000000e+00
    outer loop
      vertex   -8.279469e+01 1.476312e+02 3.598732e+00
      vertex   -8.208337e+01 1.499761e+02 3.598732e+00
      vertex   -7.053488e+01 1.576925e+02 3.598732e+00
    endloop
  endfacet
  facet normal -0.000000e+00 0.000000e+00 -1.000000e+00
    outer loop
      vertex   -7.053488e+01 1.576925e+02 3.598732e+00
      vertex   -8.208337e+01 1.499761e+02 3.598732e+00
      vertex   -8.092825e+01 1.521372e+02 3.598732e+00
    endloop
  endfacet
  facet normal 0.000000e+00 -0.000000e+00 -1.000000e+00
    outer loop
      vertex   -7.937371e+01 1.540314e+02 3.598732e+00
      vertex   -7.053488e+01 1.576925e+02 3.598732e+00
      vertex   -8.092825e+01 1.521372e+02 3.598732e+00
    endloop
  endfacet
  facet normal 0.000000e+00 0.000000e+00 -1.000000e+00
    outer loop
      vertex   -7.937371e+01 1.540314e+02 3.598732e+00
      vertex   -7.747951e+01 1.555859e+02 3.598732e+00
      vertex   -7.053488e+01 1.576925e+02 3.598732e+00
    endloop
  endfacet
  facet normal -0.000000e+00 0.000000e+00 -1.000000e+00
    outer loop
      vertex   -7.053488e+01 1.576925e+02 3.598732e+00
      vertex   -7.747951e+01 1.555859e+02 3.598732e+00
      vertex   -7.531842e+01 1.567410e+02 3.598732e+00
    endloop
  endfacet
  facet normal 0.000000e+00 -0.000000e+00 -1.000000e+00
    outer loop
      vertex   -7.297351e+01 1.574523e+02 3.598732e+00
      vertex   -7.053488e+01 1.576925e+02 3.598732e+00
      vertex   -7.531842e+01 1.567410e+02 3.598732e+00
    endloop
  endfacet
  facet normal -0.000000e+00 -0.000000e+00 -1.000000e+00
    outer loop
      vertex   -5.303488e+01 1.576925e+02 3.598732e+00
      vertex   -5.303488e+01 1.401925e+02 3.598732e+00
      vertex   -7.053488e+01 1.576925e+02 3.598732e+00
    endloop
  endfacet
  facet normal 0.000000e+00 -0.000000e+00 -1.000000e+00
    outer loop
      vertex   -7.053488e+01 1.576925e+02 3.598732e+00
      vertex   -5.303488e+01 1.401925e+02 3.598732e+00
      vertex   -6.553488e+01 1.276925e+02 3.598732e+00
    endloop
  endfacet
  facet normal -0.000000e+00 -0.000000e+00 -1.000000e+00
    outer loop
      vertex   -8.303488e+01 1.451925e+02 3.598732e+00
      vertex   -6.553488e+01 1.276925e+02 3.598732e+00
      vertex   -8.303488e+01 1.276925e+02 3.598732e+00
    endloop
  endfacet
  facet normal 0.000000e+00 0.000000e+00 -1.000000e+00
    outer loop
      vertex   -8.303488e+01 1.451925e+02 3.598732e+00
      vertex   -7.053488e+01 1.576925e+02 3.598732e+00
      vertex   -6.553488e+01 1.276925e+02 3.598732e+00
    endloop
  endfacet
  facet normal -0.000000e+00 0.000000e+00 -1.000000e+00
    outer loop
      vertex   -5.327506e+01 1.377539e+02 3.598732e+00
      vertex   -5.398638e+01 1.354090e+02 3.598732e+00
      vertex   -5.303488e+01 1.401925e+02 3.598732e+00
    endloop
  endfacet
  facet normal 0.000000e+00 0.000000e+00 -1.000000e+00
    outer loop
      vertex   -5.303488e+01 1.401925e+02 3.598732e+00
      vertex   -5.398638e+01 1.354090e+02 3.598732e+00
      vertex   -5.514151e+01 1.332479e+02 3.598732e+00
    endloop
  endfacet
  facet normal 0.000000e+00 -0.000000e+00 -1.000000e+00
    outer loop
      vertex   -5.669604e+01 1.313537e+02 3.598732e+00
      vertex   -5.303488e+01 1.401925e+02 3.598732e+00
      vertex   -5.514151e+01 1.332479e+02 3.598732e+00
    endloop
  endfacet
  facet normal -0.000000e+00 0.000000e+00 -1.000000e+00
    outer loop
      vertex   -5.669604e+01 1.313537e+02 3.598732e+00
      vertex   -5.859025e+01 1.297992e+02 3.598732e+00
      vertex   -5.303488e+01 1.401925e+02 3.598732e+00
    endloop
  endfacet
  facet normal 0.000000e+00 0.000000e+00 -1.000000e+00
    outer loop
      vertex   -5.303488e+01 1.401925e+02 3.598732e+00
      vertex   -5.859025e+01 1.297992e+02 3.598732e+00
      vertex   -6.075133e+01 1.286440e+02 3.598732e+00
    endloop
  endfacet
  facet normal 0.000000e+00 -0.000000e+00 -1.000000e+00
    outer loop
      vertex   -6.309625e+01 1.279327e+02 3.598732e+00
      vertex   -5.303488e+01 1.401925e+02 3.598732e+00
      vertex   -6.075133e+01 1.286440e+02 3.598732e+00
    endloop
  endfacet
  facet normal -0.000000e+00 0.000000e+00 -1.000000e+00
    outer loop
      vertex   -6.309625e+01 1.279327e+02 3.598732e+00
      vertex   -6.553488e+01 1.276925e+02 3.598732e+00
      vertex   -5.303488e+01 1.401925e+02 3.598732e+00
    endloop
  endfacet
endsolid
