solid ascii
  facet normal 9.801714e-02 -9.951847e-01 0.000000e+00
    outer loop
      vertex   5.629355e+01 9.864097e+00 5.949873e+01
      vertex   5.795182e+01 1.002742e+01 5.949873e+01
      vertex   5.629355e+01 9.864097e+00 5.999873e+01
    endloop
  endfacet
  facet normal 9.801714e-02 -9.951847e-01 5.678305e-15
    outer loop
      vertex   5.629355e+01 9.864097e+00 5.999873e+01
      vertex   5.795182e+01 1.002742e+01 5.949873e+01
      vertex   5.795182e+01 1.002742e+01 5.999873e+01
    endloop
  endfacet
  facet normal 2.902847e-01 -9.569403e-01 2.674277e-15
    outer loop
      vertex   5.795182e+01 1.002742e+01 5.999873e+01
      vertex   5.795182e+01 1.002742e+01 5.949873e+01
      vertex   5.954636e+01 1.051112e+01 5.949873e+01
    endloop
  endfacet
  facet normal 4.713967e-01 -8.819213e-01 -4.325231e-16
    outer loop
      vertex   5.954636e+01 1.051112e+01 5.999873e+01
      vertex   5.954636e+01 1.051112e+01 5.949873e+01
      vertex   6.101590e+01 1.129661e+01 5.949873e+01
    endloop
  endfacet
  facet normal 6.343933e-01 -7.730105e-01 0.000000e+00
    outer loop
      vertex   6.101590e+01 1.129661e+01 5.999873e+01
      vertex   6.101590e+01 1.129661e+01 5.949873e+01
      vertex   6.230396e+01 1.235369e+01 5.949873e+01
    endloop
  endfacet
  facet normal 7.730105e-01 -6.343933e-01 2.253818e-15
    outer loop
      vertex   6.230396e+01 1.235369e+01 5.999873e+01
      vertex   6.230396e+01 1.235369e+01 5.949873e+01
      vertex   6.336104e+01 1.364175e+01 5.949873e+01
    endloop
  endfacet
  facet normal 8.819213e-01 -4.713967e-01 -9.183380e-15
    outer loop
      vertex   6.336104e+01 1.364175e+01 5.999873e+01
      vertex   6.336104e+01 1.364175e+01 5.949873e+01
      vertex   6.414653e+01 1.511129e+01 5.949873e+01
    endloop
  endfacet
  facet normal 9.569403e-01 -2.902847e-01 0.000000e+00
    outer loop
      vertex   6.414653e+01 1.511129e+01 5.999873e+01
      vertex   6.414653e+01 1.511129e+01 5.949873e+01
      vertex   6.463022e+01 1.670583e+01 5.949873e+01
    endloop
  endfacet
  facet normal 9.951847e-01 -9.801714e-02 -6.964537e-16
    outer loop
      vertex   6.463022e+01 1.670583e+01 5.999873e+01
      vertex   6.463022e+01 1.670583e+01 5.949873e+01
      vertex   6.479355e+01 1.836410e+01 5.949873e+01
    endloop
  endfacet
  facet normal 9.951847e-01 9.801714e-02 0.000000e+00
    outer loop
      vertex   6.479355e+01 1.836410e+01 5.999873e+01
      vertex   6.479355e+01 1.836410e+01 5.949873e+01
      vertex   6.463022e+01 2.002236e+01 5.949873e+01
    endloop
  endfacet
  facet normal 9.569403e-01 2.902847e-01 2.719788e-14
    outer loop
      vertex   6.463022e+01 2.002236e+01 5.999873e+01
      vertex   6.463022e+01 2.002236e+01 5.949873e+01
      vertex   6.414653e+01 2.161691e+01 5.949873e+01
    endloop
  endfacet
  facet normal 8.819213e-01 4.713967e-01 3.349475e-15
    outer loop
      vertex   6.414653e+01 2.161691e+01 5.999873e+01
      vertex   6.414653e+01 2.161691e+01 5.949873e+01
      vertex   6.336104e+01 2.308644e+01 5.949873e+01
    endloop
  endfacet
  facet normal 7.730105e-01 6.343933e-01 0.000000e+00
    outer loop
      vertex   6.336104e+01 2.308644e+01 5.999873e+01
      vertex   6.336104e+01 2.308644e+01 5.949873e+01
      vertex   6.230396e+01 2.437450e+01 5.949873e+01
    endloop
  endfacet
  facet normal 6.343933e-01 7.730105e-01 5.492570e-15
    outer loop
      vertex   6.230396e+01 2.437450e+01 5.999873e+01
      vertex   6.230396e+01 2.437450e+01 5.949873e+01
      vertex   6.101590e+01 2.543159e+01 5.949873e+01
    endloop
  endfacet
  facet normal 4.713967e-01 8.819213e-01 0.000000e+00
    outer loop
      vertex   6.101590e+01 2.543159e+01 5.999873e+01
      vertex   6.101590e+01 2.543159e+01 5.949873e+01
      vertex   5.954636e+01 2.621707e+01 5.949873e+01
    endloop
  endfacet
  facet normal 2.902847e-01 9.569403e-01 1.092466e-14
    outer loop
      vertex   5.954636e+01 2.621707e+01 5.999873e+01
      vertex   5.954636e+01 2.621707e+01 5.949873e+01
      vertex   5.795182e+01 2.670077e+01 5.949873e+01
    endloop
  endfacet
  facet normal 9.801714e-02 9.951847e-01 1.392907e-15
    outer loop
      vertex   5.795182e+01 2.670077e+01 5.999873e+01
      vertex   5.795182e+01 2.670077e+01 5.949873e+01
      vertex   5.629355e+01 2.686410e+01 5.949873e+01
    endloop
  endfacet
  facet normal 9.801714e-02 9.951847e-01 0.000000e+00
    outer loop
      vertex   5.629355e+01 2.686410e+01 5.999873e+01
      vertex   5.795182e+01 2.670077e+01 5.999873e+01
      vertex   5.629355e+01 2.686410e+01 5.949873e+01
    endloop
  endfacet
  facet normal 2.902847e-01 9.569403e-01 4.130960e-15
    outer loop
      vertex   5.795182e+01 2.670077e+01 5.999873e+01
      vertex   5.954636e+01 2.621707e+01 5.999873e+01
      vertex   5.795182e+01 2.670077e+01 5.949873e+01
    endloop
  endfacet
  facet normal 4.713967e-01 8.819213e-01 1.279265e-14
    outer loop
      vertex   5.954636e+01 2.621707e+01 5.999873e+01
      vertex   6.101590e+01 2.543159e+01 5.999873e+01
      vertex   5.954636e+01 2.621707e+01 5.949873e+01
    endloop
  endfacet
  facet normal 6.343933e-01 7.730105e-01 0.000000e+00
    outer loop
      vertex   6.101590e+01 2.543159e+01 5.999873e+01
      vertex   6.230396e+01 2.437450e+01 5.999873e+01
      vertex   6.101590e+01 2.543159e+01 5.949873e+01
    endloop
  endfacet
  facet normal 7.730105e-01 6.343933e-01 4.530730e-15
    outer loop
      vertex   6.230396e+01 2.437450e+01 5.999873e+01
      vertex   6.336104e+01 2.308644e+01 5.999873e+01
      vertex   6.230396e+01 2.437450e+01 5.949873e+01
    endloop
  endfacet
  facet normal 8.819213e-01 4.713967e-01 0.000000e+00
    outer loop
      vertex   6.336104e+01 2.308644e+01 5.999873e+01
      vertex   6.414653e+01 2.161691e+01 5.999873e+01
      vertex   6.336104e+01 2.308644e+01 5.949873e+01
    endloop
  endfacet
  facet normal 9.569403e-01 2.902847e-01 2.132108e-15
    outer loop
      vertex   6.414653e+01 2.161691e+01 5.999873e+01
      vertex   6.463022e+01 2.002236e+01 5.999873e+01
      vertex   6.414653e+01 2.161691e+01 5.949873e+01
    endloop
  endfacet
  facet normal 9.951847e-01 9.801714e-02 2.831706e-14
    outer loop
      vertex   6.463022e+01 2.002236e+01 5.999873e+01
      vertex   6.479355e+01 1.836410e+01 5.999873e+01
      vertex   6.463022e+01 2.002236e+01 5.949873e+01
    endloop
  endfacet
  facet normal 9.951847e-01 -9.801714e-02 0.000000e+00
    outer loop
      vertex   6.479355e+01 1.836410e+01 5.999873e+01
      vertex   6.463022e+01 1.670583e+01 5.999873e+01
      vertex   6.479355e+01 1.836410e+01 5.949873e+01
    endloop
  endfacet
  facet normal 9.569403e-01 -2.902847e-01 -2.132108e-15
    outer loop
      vertex   6.463022e+01 1.670583e+01 5.999873e+01
      vertex   6.414653e+01 1.511129e+01 5.999873e+01
      vertex   6.463022e+01 1.670583e+01 5.949873e+01
    endloop
  endfacet
  facet normal 8.819213e-01 -4.713967e-01 0.000000e+00
    outer loop
      vertex   6.414653e+01 1.511129e+01 5.999873e+01
      vertex   6.336104e+01 1.364175e+01 5.999873e+01
      vertex   6.414653e+01 1.511129e+01 5.949873e+01
    endloop
  endfacet
  facet normal 7.730105e-01 -6.343933e-01 -6.396325e-15
    outer loop
      vertex   6.336104e+01 1.364175e+01 5.999873e+01
      vertex   6.230396e+01 1.235369e+01 5.999873e+01
      vertex   6.336104e+01 1.364175e+01 5.949873e+01
    endloop
  endfacet
  facet normal 6.343933e-01 -7.730105e-01 2.665135e-15
    outer loop
      vertex   6.230396e+01 1.235369e+01 5.999873e+01
      vertex   6.101590e+01 1.129661e+01 5.999873e+01
      vertex   6.230396e+01 1.235369e+01 5.949873e+01
    endloop
  endfacet
  facet normal 4.713967e-01 -8.819213e-01 0.000000e+00
    outer loop
      vertex   6.101590e+01 1.129661e+01 5.999873e+01
      vertex   5.954636e+01 1.051112e+01 5.999873e+01
      vertex   6.101590e+01 1.129661e+01 5.949873e+01
    endloop
  endfacet
  facet normal 2.902847e-01 -9.569403e-01 2.665135e-15
    outer loop
      vertex   5.954636e+01 1.051112e+01 5.999873e+01
      vertex   5.795182e+01 1.002742e+01 5.999873e+01
      vertex   5.954636e+01 1.051112e+01 5.949873e+01
    endloop
  endfacet
  facet normal -0.000000e+00 0.000000e+00 1.000000e+00
    outer loop
      vertex   5.463528e+01 1.002742e+01 5.999873e+01
      vertex   5.629355e+01 9.864097e+00 5.999873e+01
      vertex   5.629355e+01 1.106410e+01 5.999873e+01
    endloop
  endfacet
  facet normal -0.000000e+00 0.000000e+00 1.000000e+00
    outer loop
      vertex   5.486939e+01 1.120436e+01 5.999873e+01
      vertex   5.463528e+01 1.002742e+01 5.999873e+01
      vertex   5.629355e+01 1.106410e+01 5.999873e+01
    endloop
  endfacet
  facet normal 0.000000e+00 0.000000e+00 1.000000e+00
    outer loop
      vertex   5.486939e+01 1.120436e+01 5.999873e+01
      vertex   5.304074e+01 1.051112e+01 5.999873e+01
      vertex   5.463528e+01 1.002742e+01 5.999873e+01
    endloop
  endfacet
  facet normal 0.000000e+00 0.000000e+00 1.000000e+00
    outer loop
      vertex   5.486939e+01 1.120436e+01 5.999873e+01
      vertex   5.349996e+01 1.161978e+01 5.999873e+01
      vertex   5.304074e+01 1.051112e+01 5.999873e+01
    endloop
  endfacet
  facet normal 0.000000e+00 -0.000000e+00 1.000000e+00
    outer loop
      vertex   5.304074e+01 1.051112e+01 5.999873e+01
      vertex   5.349996e+01 1.161978e+01 5.999873e+01
      vertex   5.157120e+01 1.129661e+01 5.999873e+01
    endloop
  endfacet
  facet normal 0.000000e+00 -0.000000e+00 1.000000e+00
    outer loop
      vertex   5.157120e+01 1.129661e+01 5.999873e+01
      vertex   5.349996e+01 1.161978e+01 5.999873e+01
      vertex   5.223789e+01 1.229437e+01 5.999873e+01
    endloop
  endfacet
  facet normal -0.000000e+00 -0.000000e+00 1.000000e+00
    outer loop
      vertex   5.028314e+01 1.235369e+01 5.999873e+01
      vertex   5.223789e+01 1.229437e+01 5.999873e+01
      vertex   5.113167e+01 1.320222e+01 5.999873e+01
    endloop
  endfacet
  facet normal -0.000000e+00 -0.000000e+00 1.000000e+00
    outer loop
      vertex   4.922606e+01 1.364175e+01 5.999873e+01
      vertex   5.113167e+01 1.320222e+01 5.999873e+01
      vertex   5.022382e+01 1.430843e+01 5.999873e+01
    endloop
  endfacet
  facet normal -0.000000e+00 -0.000000e+00 1.000000e+00
    outer loop
      vertex   4.844057e+01 1.511129e+01 5.999873e+01
      vertex   5.022382e+01 1.430843e+01 5.999873e+01
      vertex   4.954923e+01 1.557051e+01 5.999873e+01
    endloop
  endfacet
  facet normal -0.000000e+00 -0.000000e+00 1.000000e+00
    outer loop
      vertex   4.795687e+01 1.670583e+01 5.999873e+01
      vertex   4.954923e+01 1.557051e+01 5.999873e+01
      vertex   4.913382e+01 1.693994e+01 5.999873e+01
    endloop
  endfacet
  facet normal -0.000000e+00 -0.000000e+00 1.000000e+00
    outer loop
      vertex   4.779355e+01 1.836410e+01 5.999873e+01
      vertex   4.913382e+01 1.693994e+01 5.999873e+01
      vertex   4.899355e+01 1.836410e+01 5.999873e+01
    endloop
  endfacet
  facet normal -0.000000e+00 0.000000e+00 1.000000e+00
    outer loop
      vertex   4.913382e+01 1.978826e+01 5.999873e+01
      vertex   4.779355e+01 1.836410e+01 5.999873e+01
      vertex   4.899355e+01 1.836410e+01 5.999873e+01
    endloop
  endfacet
  facet normal 0.000000e+00 0.000000e+00 1.000000e+00
    outer loop
      vertex   4.913382e+01 1.978826e+01 5.999873e+01
      vertex   4.795687e+01 2.002236e+01 5.999873e+01
      vertex   4.779355e+01 1.836410e+01 5.999873e+01
    endloop
  endfacet
  facet normal 0.000000e+00 -0.000000e+00 1.000000e+00
    outer loop
      vertex   4.913382e+01 1.978826e+01 5.999873e+01
      vertex   4.954923e+01 2.115769e+01 5.999873e+01
      vertex   4.795687e+01 2.002236e+01 5.999873e+01
    endloop
  endfacet
  facet normal 0.000000e+00 -0.000000e+00 1.000000e+00
    outer loop
      vertex   4.795687e+01 2.002236e+01 5.999873e+01
      vertex   4.954923e+01 2.115769e+01 5.999873e+01
      vertex   4.844057e+01 2.161691e+01 5.999873e+01
    endloop
  endfacet
  facet normal -0.000000e+00 0.000000e+00 1.000000e+00
    outer loop
      vertex   4.844057e+01 2.161691e+01 5.999873e+01
      vertex   4.954923e+01 2.115769e+01 5.999873e+01
      vertex   5.022382e+01 2.241976e+01 5.999873e+01
    endloop
  endfacet
  facet normal -0.000000e+00 0.000000e+00 1.000000e+00
    outer loop
      vertex   4.922606e+01 2.308644e+01 5.999873e+01
      vertex   5.022382e+01 2.241976e+01 5.999873e+01
      vertex   5.113167e+01 2.352598e+01 5.999873e+01
    endloop
  endfacet
  facet normal -0.000000e+00 0.000000e+00 1.000000e+00
    outer loop
      vertex   5.028314e+01 2.437450e+01 5.999873e+01
      vertex   5.113167e+01 2.352598e+01 5.999873e+01
      vertex   5.223789e+01 2.443382e+01 5.999873e+01
    endloop
  endfacet
  facet normal -0.000000e+00 0.000000e+00 1.000000e+00
    outer loop
      vertex   5.157120e+01 2.543159e+01 5.999873e+01
      vertex   5.223789e+01 2.443382e+01 5.999873e+01
      vertex   5.349996e+01 2.510842e+01 5.999873e+01
    endloop
  endfacet
  facet normal -0.000000e+00 0.000000e+00 1.000000e+00
    outer loop
      vertex   5.304074e+01 2.621707e+01 5.999873e+01
      vertex   5.349996e+01 2.510842e+01 5.999873e+01
      vertex   5.486939e+01 2.552383e+01 5.999873e+01
    endloop
  endfacet
  facet normal -0.000000e+00 0.000000e+00 1.000000e+00
    outer loop
      vertex   5.463528e+01 2.670077e+01 5.999873e+01
      vertex   5.486939e+01 2.552383e+01 5.999873e+01
      vertex   5.629355e+01 2.566410e+01 5.999873e+01
    endloop
  endfacet
  facet normal -0.000000e+00 0.000000e+00 1.000000e+00
    outer loop
      vertex   5.629355e+01 2.686410e+01 5.999873e+01
      vertex   5.629355e+01 2.566410e+01 5.999873e+01
      vertex   5.795182e+01 2.670077e+01 5.999873e+01
    endloop
  endfacet
  facet normal 0.000000e+00 0.000000e+00 1.000000e+00
    outer loop
      vertex   5.629355e+01 2.686410e+01 5.999873e+01
      vertex   5.463528e+01 2.670077e+01 5.999873e+01
      vertex   5.629355e+01 2.566410e+01 5.999873e+01
    endloop
  endfacet
  facet normal 0.000000e+00 0.000000e+00 1.000000e+00
    outer loop
      vertex   6.359355e+01 1.836410e+01 5.999873e+01
      vertex   6.345328e+01 1.693994e+01 5.999873e+01
      vertex   6.463022e+01 1.670583e+01 5.999873e+01
    endloop
  endfacet
  facet normal 0.000000e+00 0.000000e+00 1.000000e+00
    outer loop
      vertex   6.479355e+01 1.836410e+01 5.999873e+01
      vertex   6.359355e+01 1.836410e+01 5.999873e+01
      vertex   6.463022e+01 1.670583e+01 5.999873e+01
    endloop
  endfacet
  facet normal 0.000000e+00 0.000000e+00 1.000000e+00
    outer loop
      vertex   6.479355e+01 1.836410e+01 5.999873e+01
      vertex   6.345328e+01 1.978826e+01 5.999873e+01
      vertex   6.359355e+01 1.836410e+01 5.999873e+01
    endloop
  endfacet
  facet normal 0.000000e+00 0.000000e+00 1.000000e+00
    outer loop
      vertex   6.479355e+01 1.836410e+01 5.999873e+01
      vertex   6.463022e+01 2.002236e+01 5.999873e+01
      vertex   6.345328e+01 1.978826e+01 5.999873e+01
    endloop
  endfacet
  facet normal 0.000000e+00 -0.000000e+00 1.000000e+00
    outer loop
      vertex   6.345328e+01 1.978826e+01 5.999873e+01
      vertex   6.463022e+01 2.002236e+01 5.999873e+01
      vertex   6.303787e+01 2.115769e+01 5.999873e+01
    endloop
  endfacet
  facet normal -0.000000e+00 -0.000000e+00 1.000000e+00
    outer loop
      vertex   6.303787e+01 2.115769e+01 5.999873e+01
      vertex   6.463022e+01 2.002236e+01 5.999873e+01
      vertex   6.414653e+01 2.161691e+01 5.999873e+01
    endloop
  endfacet
  facet normal -0.000000e+00 -0.000000e+00 1.000000e+00
    outer loop
      vertex   6.236328e+01 2.241976e+01 5.999873e+01
      vertex   6.414653e+01 2.161691e+01 5.999873e+01
      vertex   6.336104e+01 2.308644e+01 5.999873e+01
    endloop
  endfacet
  facet normal -0.000000e+00 -0.000000e+00 1.000000e+00
    outer loop
      vertex   6.145543e+01 2.352598e+01 5.999873e+01
      vertex   6.336104e+01 2.308644e+01 5.999873e+01
      vertex   6.230396e+01 2.437450e+01 5.999873e+01
    endloop
  endfacet
  facet normal -0.000000e+00 -0.000000e+00 1.000000e+00
    outer loop
      vertex   6.034921e+01 2.443382e+01 5.999873e+01
      vertex   6.230396e+01 2.437450e+01 5.999873e+01
      vertex   6.101590e+01 2.543159e+01 5.999873e+01
    endloop
  endfacet
  facet normal 0.000000e+00 -0.000000e+00 1.000000e+00
    outer loop
      vertex   5.908714e+01 2.510842e+01 5.999873e+01
      vertex   6.101590e+01 2.543159e+01 5.999873e+01
      vertex   5.954636e+01 2.621707e+01 5.999873e+01
    endloop
  endfacet
  facet normal 0.000000e+00 -0.000000e+00 1.000000e+00
    outer loop
      vertex   5.771771e+01 2.552383e+01 5.999873e+01
      vertex   5.954636e+01 2.621707e+01 5.999873e+01
      vertex   5.795182e+01 2.670077e+01 5.999873e+01
    endloop
  endfacet
  facet normal -0.000000e+00 0.000000e+00 1.000000e+00
    outer loop
      vertex   5.629355e+01 2.566410e+01 5.999873e+01
      vertex   5.771771e+01 2.552383e+01 5.999873e+01
      vertex   5.795182e+01 2.670077e+01 5.999873e+01
    endloop
  endfacet
  facet normal 0.000000e+00 0.000000e+00 1.000000e+00
    outer loop
      vertex   6.463022e+01 1.670583e+01 5.999873e+01
      vertex   6.303787e+01 1.557051e+01 5.999873e+01
      vertex   6.414653e+01 1.511129e+01 5.999873e+01
    endloop
  endfacet
  facet normal 0.000000e+00 0.000000e+00 1.000000e+00
    outer loop
      vertex   6.463022e+01 1.670583e+01 5.999873e+01
      vertex   6.345328e+01 1.693994e+01 5.999873e+01
      vertex   6.303787e+01 1.557051e+01 5.999873e+01
    endloop
  endfacet
  facet normal 0.000000e+00 0.000000e+00 1.000000e+00
    outer loop
      vertex   6.414653e+01 1.511129e+01 5.999873e+01
      vertex   6.236328e+01 1.430843e+01 5.999873e+01
      vertex   6.336104e+01 1.364175e+01 5.999873e+01
    endloop
  endfacet
  facet normal 0.000000e+00 0.000000e+00 1.000000e+00
    outer loop
      vertex   6.414653e+01 1.511129e+01 5.999873e+01
      vertex   6.303787e+01 1.557051e+01 5.999873e+01
      vertex   6.236328e+01 1.430843e+01 5.999873e+01
    endloop
  endfacet
  facet normal 0.000000e+00 0.000000e+00 1.000000e+00
    outer loop
      vertex   6.336104e+01 1.364175e+01 5.999873e+01
      vertex   6.145543e+01 1.320222e+01 5.999873e+01
      vertex   6.230396e+01 1.235369e+01 5.999873e+01
    endloop
  endfacet
  facet normal 0.000000e+00 0.000000e+00 1.000000e+00
    outer loop
      vertex   6.336104e+01 1.364175e+01 5.999873e+01
      vertex   6.236328e+01 1.430843e+01 5.999873e+01
      vertex   6.145543e+01 1.320222e+01 5.999873e+01
    endloop
  endfacet
  facet normal 0.000000e+00 0.000000e+00 1.000000e+00
    outer loop
      vertex   5.463528e+01 2.670077e+01 5.999873e+01
      vertex   5.304074e+01 2.621707e+01 5.999873e+01
      vertex   5.486939e+01 2.552383e+01 5.999873e+01
    endloop
  endfacet
  facet normal 0.000000e+00 0.000000e+00 1.000000e+00
    outer loop
      vertex   5.304074e+01 2.621707e+01 5.999873e+01
      vertex   5.157120e+01 2.543159e+01 5.999873e+01
      vertex   5.349996e+01 2.510842e+01 5.999873e+01
    endloop
  endfacet
  facet normal -0.000000e+00 0.000000e+00 1.000000e+00
    outer loop
      vertex   5.157120e+01 2.543159e+01 5.999873e+01
      vertex   5.028314e+01 2.437450e+01 5.999873e+01
      vertex   5.223789e+01 2.443382e+01 5.999873e+01
    endloop
  endfacet
  facet normal -0.000000e+00 0.000000e+00 1.000000e+00
    outer loop
      vertex   5.028314e+01 2.437450e+01 5.999873e+01
      vertex   4.922606e+01 2.308644e+01 5.999873e+01
      vertex   5.113167e+01 2.352598e+01 5.999873e+01
    endloop
  endfacet
  facet normal -0.000000e+00 0.000000e+00 1.000000e+00
    outer loop
      vertex   4.922606e+01 2.308644e+01 5.999873e+01
      vertex   4.844057e+01 2.161691e+01 5.999873e+01
      vertex   5.022382e+01 2.241976e+01 5.999873e+01
    endloop
  endfacet
  facet normal -0.000000e+00 0.000000e+00 1.000000e+00
    outer loop
      vertex   4.779355e+01 1.836410e+01 5.999873e+01
      vertex   4.795687e+01 1.670583e+01 5.999873e+01
      vertex   4.913382e+01 1.693994e+01 5.999873e+01
    endloop
  endfacet
  facet normal -0.000000e+00 0.000000e+00 1.000000e+00
    outer loop
      vertex   4.795687e+01 1.670583e+01 5.999873e+01
      vertex   4.844057e+01 1.511129e+01 5.999873e+01
      vertex   4.954923e+01 1.557051e+01 5.999873e+01
    endloop
  endfacet
  facet normal -0.000000e+00 0.000000e+00 1.000000e+00
    outer loop
      vertex   4.844057e+01 1.511129e+01 5.999873e+01
      vertex   4.922606e+01 1.364175e+01 5.999873e+01
      vertex   5.022382e+01 1.430843e+01 5.999873e+01
    endloop
  endfacet
  facet normal -0.000000e+00 0.000000e+00 1.000000e+00
    outer loop
      vertex   4.922606e+01 1.364175e+01 5.999873e+01
      vertex   5.028314e+01 1.235369e+01 5.999873e+01
      vertex   5.113167e+01 1.320222e+01 5.999873e+01
    endloop
  endfacet
  facet normal -0.000000e+00 0.000000e+00 1.000000e+00
    outer loop
      vertex   5.028314e+01 1.235369e+01 5.999873e+01
      vertex   5.157120e+01 1.129661e+01 5.999873e+01
      vertex   5.223789e+01 1.229437e+01 5.999873e+01
    endloop
  endfacet
  facet normal -0.000000e+00 0.000000e+00 1.000000e+00
    outer loop
      vertex   6.145543e+01 1.320222e+01 5.999873e+01
      vertex   6.034921e+01 1.229437e+01 5.999873e+01
      vertex   6.230396e+01 1.235369e+01 5.999873e+01
    endloop
  endfacet
  facet normal 0.000000e+00 0.000000e+00 1.000000e+00
    outer loop
      vertex   6.230396e+01 1.235369e+01 5.999873e+01
      vertex   6.034921e+01 1.229437e+01 5.999873e+01
      vertex   6.101590e+01 1.129661e+01 5.999873e+01
    endloop
  endfacet
  facet normal 0.000000e+00 0.000000e+00 1.000000e+00
    outer loop
      vertex   6.101590e+01 1.129661e+01 5.999873e+01
      vertex   6.034921e+01 1.229437e+01 5.999873e+01
      vertex   5.908714e+01 1.161978e+01 5.999873e+01
    endloop
  endfacet
  facet normal 0.000000e+00 0.000000e+00 1.000000e+00
    outer loop
      vertex   5.954636e+01 1.051112e+01 5.999873e+01
      vertex   5.908714e+01 1.161978e+01 5.999873e+01
      vertex   5.771771e+01 1.120436e+01 5.999873e+01
    endloop
  endfacet
  facet normal 0.000000e+00 0.000000e+00 1.000000e+00
    outer loop
      vertex   5.795182e+01 1.002742e+01 5.999873e+01
      vertex   5.771771e+01 1.120436e+01 5.999873e+01
      vertex   5.629355e+01 1.106410e+01 5.999873e+01
    endloop
  endfacet
  facet normal 0.000000e+00 -0.000000e+00 1.000000e+00
    outer loop
      vertex   5.629355e+01 9.864097e+00 5.999873e+01
      vertex   5.795182e+01 1.002742e+01 5.999873e+01
      vertex   5.629355e+01 1.106410e+01 5.999873e+01
    endloop
  endfacet
  facet normal -0.000000e+00 0.000000e+00 1.000000e+00
    outer loop
      vertex   5.771771e+01 2.552383e+01 5.999873e+01
      vertex   5.908714e+01 2.510842e+01 5.999873e+01
      vertex   5.954636e+01 2.621707e+01 5.999873e+01
    endloop
  endfacet
  facet normal -0.000000e+00 0.000000e+00 1.000000e+00
    outer loop
      vertex   5.908714e+01 2.510842e+01 5.999873e+01
      vertex   6.034921e+01 2.443382e+01 5.999873e+01
      vertex   6.101590e+01 2.543159e+01 5.999873e+01
    endloop
  endfacet
  facet normal -0.000000e+00 0.000000e+00 1.000000e+00
    outer loop
      vertex   6.034921e+01 2.443382e+01 5.999873e+01
      vertex   6.145543e+01 2.352598e+01 5.999873e+01
      vertex   6.230396e+01 2.437450e+01 5.999873e+01
    endloop
  endfacet
  facet normal -0.000000e+00 0.000000e+00 1.000000e+00
    outer loop
      vertex   6.145543e+01 2.352598e+01 5.999873e+01
      vertex   6.236328e+01 2.241976e+01 5.999873e+01
      vertex   6.336104e+01 2.308644e+01 5.999873e+01
    endloop
  endfacet
  facet normal -0.000000e+00 0.000000e+00 1.000000e+00
    outer loop
      vertex   6.236328e+01 2.241976e+01 5.999873e+01
      vertex   6.303787e+01 2.115769e+01 5.999873e+01
      vertex   6.414653e+01 2.161691e+01 5.999873e+01
    endloop
  endfacet
  facet normal -0.000000e+00 0.000000e+00 1.000000e+00
    outer loop
      vertex   5.771771e+01 1.120436e+01 5.999873e+01
      vertex   5.795182e+01 1.002742e+01 5.999873e+01
      vertex   5.954636e+01 1.051112e+01 5.999873e+01
    endloop
  endfacet
  facet normal -0.000000e+00 0.000000e+00 1.000000e+00
    outer loop
      vertex   5.908714e+01 1.161978e+01 5.999873e+01
      vertex   5.954636e+01 1.051112e+01 5.999873e+01
      vertex   6.101590e+01 1.129661e+01 5.999873e+01
    endloop
  endfacet
  facet normal 9.951847e-01 9.801714e-02 0.000000e+00
    outer loop
      vertex   4.899355e+01 1.836410e+01 5.999873e+01
      vertex   4.913382e+01 1.693994e+01 5.999873e+01
      vertex   4.899355e+01 1.836410e+01 5.949873e+01
    endloop
  endfacet
  facet normal 9.951847e-01 9.801714e-02 -6.964537e-16
    outer loop
      vertex   4.899355e+01 1.836410e+01 5.949873e+01
      vertex   4.913382e+01 1.693994e+01 5.999873e+01
      vertex   4.913382e+01 1.693994e+01 5.949873e+01
    endloop
  endfacet
  facet normal 9.569403e-01 2.902847e-01 -2.062597e-15
    outer loop
      vertex   4.913382e+01 1.693994e+01 5.949873e+01
      vertex   4.913382e+01 1.693994e+01 5.999873e+01
      vertex   4.954923e+01 1.557051e+01 5.999873e+01
    endloop
  endfacet
  facet normal 8.819213e-01 4.713967e-01 -5.024213e-15
    outer loop
      vertex   4.954923e+01 1.557051e+01 5.949873e+01
      vertex   4.954923e+01 1.557051e+01 5.999873e+01
      vertex   5.022382e+01 1.430843e+01 5.999873e+01
    endloop
  endfacet
  facet normal 7.730105e-01 6.343933e-01 -2.253818e-15
    outer loop
      vertex   5.022382e+01 1.430843e+01 5.949873e+01
      vertex   5.022382e+01 1.430843e+01 5.999873e+01
      vertex   5.113167e+01 1.320222e+01 5.999873e+01
    endloop
  endfacet
  facet normal 6.343933e-01 7.730105e-01 -0.000000e+00
    outer loop
      vertex   5.113167e+01 1.320222e+01 5.949873e+01
      vertex   5.113167e+01 1.320222e+01 5.999873e+01
      vertex   5.223789e+01 1.229437e+01 5.999873e+01
    endloop
  endfacet
  facet normal 4.713967e-01 8.819213e-01 3.565737e-15
    outer loop
      vertex   5.223789e+01 1.229437e+01 5.949873e+01
      vertex   5.223789e+01 1.229437e+01 5.999873e+01
      vertex   5.349996e+01 1.161978e+01 5.999873e+01
    endloop
  endfacet
  facet normal 2.902847e-01 9.569403e-01 4.125193e-15
    outer loop
      vertex   5.349996e+01 1.161978e+01 5.949873e+01
      vertex   5.349996e+01 1.161978e+01 5.999873e+01
      vertex   5.486939e+01 1.120436e+01 5.999873e+01
    endloop
  endfacet
  facet normal 9.801714e-02 9.951847e-01 -3.535606e-15
    outer loop
      vertex   5.486939e+01 1.120436e+01 5.949873e+01
      vertex   5.486939e+01 1.120436e+01 5.999873e+01
      vertex   5.629355e+01 1.106410e+01 5.999873e+01
    endloop
  endfacet
  facet normal -9.801714e-02 9.951847e-01 0.000000e+00
    outer loop
      vertex   5.629355e+01 1.106410e+01 5.949873e+01
      vertex   5.629355e+01 1.106410e+01 5.999873e+01
      vertex   5.771771e+01 1.120436e+01 5.999873e+01
    endloop
  endfacet
  facet normal -2.902847e-01 9.569403e-01 3.399735e-15
    outer loop
      vertex   5.771771e+01 1.120436e+01 5.949873e+01
      vertex   5.771771e+01 1.120436e+01 5.999873e+01
      vertex   5.908714e+01 1.161978e+01 5.999873e+01
    endloop
  endfacet
  facet normal -4.713967e-01 8.819213e-01 -6.698951e-15
    outer loop
      vertex   5.908714e+01 1.161978e+01 5.949873e+01
      vertex   5.908714e+01 1.161978e+01 5.999873e+01
      vertex   6.034921e+01 1.229437e+01 5.999873e+01
    endloop
  endfacet
  facet normal -6.343933e-01 7.730105e-01 -6.268986e-15
    outer loop
      vertex   6.034921e+01 1.229437e+01 5.949873e+01
      vertex   6.034921e+01 1.229437e+01 5.999873e+01
      vertex   6.145543e+01 1.320222e+01 5.999873e+01
    endloop
  endfacet
  facet normal -7.730105e-01 6.343933e-01 0.000000e+00
    outer loop
      vertex   6.145543e+01 1.320222e+01 5.949873e+01
      vertex   6.145543e+01 1.320222e+01 5.999873e+01
      vertex   6.236328e+01 1.430843e+01 5.999873e+01
    endloop
  endfacet
  facet normal -8.819213e-01 4.713967e-01 1.674738e-15
    outer loop
      vertex   6.236328e+01 1.430843e+01 5.949873e+01
      vertex   6.236328e+01 1.430843e+01 5.999873e+01
      vertex   6.303787e+01 1.557051e+01 5.999873e+01
    endloop
  endfacet
  facet normal -9.569403e-01 2.902847e-01 3.093895e-15
    outer loop
      vertex   6.303787e+01 1.557051e+01 5.949873e+01
      vertex   6.303787e+01 1.557051e+01 5.999873e+01
      vertex   6.345328e+01 1.693994e+01 5.999873e+01
    endloop
  endfacet
  facet normal -9.951847e-01 9.801714e-02 6.964537e-16
    outer loop
      vertex   6.345328e+01 1.693994e+01 5.949873e+01
      vertex   6.345328e+01 1.693994e+01 5.999873e+01
      vertex   6.359355e+01 1.836410e+01 5.949873e+01
    endloop
  endfacet
  facet normal -9.569403e-01 2.902847e-01 2.017106e-15
    outer loop
      vertex   6.345328e+01 1.693994e+01 5.949873e+01
      vertex   6.303787e+01 1.557051e+01 5.949873e+01
      vertex   6.345328e+01 1.693994e+01 5.999873e+01
    endloop
  endfacet
  facet normal -9.951847e-01 9.801714e-02 0.000000e+00
    outer loop
      vertex   6.345328e+01 1.693994e+01 5.999873e+01
      vertex   6.359355e+01 1.836410e+01 5.999873e+01
      vertex   6.359355e+01 1.836410e+01 5.949873e+01
    endloop
  endfacet
  facet normal -8.819213e-01 4.713967e-01 5.120346e-15
    outer loop
      vertex   6.303787e+01 1.557051e+01 5.949873e+01
      vertex   6.236328e+01 1.430843e+01 5.949873e+01
      vertex   6.303787e+01 1.557051e+01 5.999873e+01
    endloop
  endfacet
  facet normal -7.730105e-01 6.343933e-01 2.482592e-15
    outer loop
      vertex   6.236328e+01 1.430843e+01 5.949873e+01
      vertex   6.145543e+01 1.320222e+01 5.949873e+01
      vertex   6.236328e+01 1.430843e+01 5.999873e+01
    endloop
  endfacet
  facet normal -6.343933e-01 7.730105e-01 0.000000e+00
    outer loop
      vertex   6.145543e+01 1.320222e+01 5.949873e+01
      vertex   6.034921e+01 1.229437e+01 5.949873e+01
      vertex   6.145543e+01 1.320222e+01 5.999873e+01
    endloop
  endfacet
  facet normal -4.713967e-01 8.819213e-01 -3.568726e-15
    outer loop
      vertex   6.034921e+01 1.229437e+01 5.949873e+01
      vertex   5.908714e+01 1.161978e+01 5.949873e+01
      vertex   6.034921e+01 1.229437e+01 5.999873e+01
    endloop
  endfacet
  facet normal -2.902847e-01 9.569403e-01 -4.189374e-15
    outer loop
      vertex   5.908714e+01 1.161978e+01 5.949873e+01
      vertex   5.771771e+01 1.120436e+01 5.949873e+01
      vertex   5.908714e+01 1.161978e+01 5.999873e+01
    endloop
  endfacet
  facet normal -9.801714e-02 9.951847e-01 3.568726e-15
    outer loop
      vertex   5.771771e+01 1.120436e+01 5.949873e+01
      vertex   5.629355e+01 1.106410e+01 5.949873e+01
      vertex   5.771771e+01 1.120436e+01 5.999873e+01
    endloop
  endfacet
  facet normal 9.801714e-02 9.951847e-01 0.000000e+00
    outer loop
      vertex   5.629355e+01 1.106410e+01 5.949873e+01
      vertex   5.486939e+01 1.120436e+01 5.949873e+01
      vertex   5.629355e+01 1.106410e+01 5.999873e+01
    endloop
  endfacet
  facet normal 2.902847e-01 9.569403e-01 -3.413564e-15
    outer loop
      vertex   5.486939e+01 1.120436e+01 5.949873e+01
      vertex   5.349996e+01 1.161978e+01 5.949873e+01
      vertex   5.486939e+01 1.120436e+01 5.999873e+01
    endloop
  endfacet
  facet normal 4.713967e-01 8.819213e-01 6.671966e-15
    outer loop
      vertex   5.349996e+01 1.161978e+01 5.949873e+01
      vertex   5.223789e+01 1.229437e+01 5.949873e+01
      vertex   5.349996e+01 1.161978e+01 5.999873e+01
    endloop
  endfacet
  facet normal 6.343933e-01 7.730105e-01 6.206480e-15
    outer loop
      vertex   5.223789e+01 1.229437e+01 5.949873e+01
      vertex   5.113167e+01 1.320222e+01 5.949873e+01
      vertex   5.223789e+01 1.229437e+01 5.999873e+01
    endloop
  endfacet
  facet normal 7.730105e-01 6.343933e-01 0.000000e+00
    outer loop
      vertex   5.113167e+01 1.320222e+01 5.949873e+01
      vertex   5.022382e+01 1.430843e+01 5.949873e+01
      vertex   5.113167e+01 1.320222e+01 5.999873e+01
    endloop
  endfacet
  facet normal 8.819213e-01 4.713967e-01 -1.706782e-15
    outer loop
      vertex   5.022382e+01 1.430843e+01 5.949873e+01
      vertex   4.954923e+01 1.557051e+01 5.949873e+01
      vertex   5.022382e+01 1.430843e+01 5.999873e+01
    endloop
  endfacet
  facet normal 9.569403e-01 2.902847e-01 -3.103240e-15
    outer loop
      vertex   4.954923e+01 1.557051e+01 5.949873e+01
      vertex   4.913382e+01 1.693994e+01 5.949873e+01
      vertex   4.954923e+01 1.557051e+01 5.999873e+01
    endloop
  endfacet
  facet normal 0.000000e+00 0.000000e+00 -1.000000e+00
    outer loop
      vertex   6.479355e+01 1.836410e+01 5.949873e+01
      vertex   6.359355e+01 1.836410e+01 5.949873e+01
      vertex   6.463022e+01 2.002236e+01 5.949873e+01
    endloop
  endfacet
  facet normal -0.000000e+00 0.000000e+00 -1.000000e+00
    outer loop
      vertex   6.479355e+01 1.836410e+01 5.949873e+01
      vertex   6.463022e+01 1.670583e+01 5.949873e+01
      vertex   6.359355e+01 1.836410e+01 5.949873e+01
    endloop
  endfacet
  facet normal -0.000000e+00 -0.000000e+00 -1.000000e+00
    outer loop
      vertex   6.359355e+01 1.836410e+01 5.949873e+01
      vertex   6.463022e+01 1.670583e+01 5.949873e+01
      vertex   6.345328e+01 1.693994e+01 5.949873e+01
    endloop
  endfacet
  facet normal 0.000000e+00 -0.000000e+00 -1.000000e+00
    outer loop
      vertex   6.345328e+01 1.693994e+01 5.949873e+01
      vertex   6.463022e+01 1.670583e+01 5.949873e+01
      vertex   6.414653e+01 1.511129e+01 5.949873e+01
    endloop
  endfacet
  facet normal 0.000000e+00 -0.000000e+00 -1.000000e+00
    outer loop
      vertex   6.303787e+01 1.557051e+01 5.949873e+01
      vertex   6.414653e+01 1.511129e+01 5.949873e+01
      vertex   6.336104e+01 1.364175e+01 5.949873e+01
    endloop
  endfacet
  facet normal 0.000000e+00 -0.000000e+00 -1.000000e+00
    outer loop
      vertex   6.236328e+01 1.430843e+01 5.949873e+01
      vertex   6.336104e+01 1.364175e+01 5.949873e+01
      vertex   6.230396e+01 1.235369e+01 5.949873e+01
    endloop
  endfacet
  facet normal 0.000000e+00 -0.000000e+00 -1.000000e+00
    outer loop
      vertex   6.145543e+01 1.320222e+01 5.949873e+01
      vertex   6.230396e+01 1.235369e+01 5.949873e+01
      vertex   6.101590e+01 1.129661e+01 5.949873e+01
    endloop
  endfacet
  facet normal 0.000000e+00 -0.000000e+00 -1.000000e+00
    outer loop
      vertex   6.034921e+01 1.229437e+01 5.949873e+01
      vertex   6.101590e+01 1.129661e+01 5.949873e+01
      vertex   5.954636e+01 1.051112e+01 5.949873e+01
    endloop
  endfacet
  facet normal 0.000000e+00 -0.000000e+00 -1.000000e+00
    outer loop
      vertex   5.908714e+01 1.161978e+01 5.949873e+01
      vertex   5.954636e+01 1.051112e+01 5.949873e+01
      vertex   5.795182e+01 1.002742e+01 5.949873e+01
    endloop
  endfacet
  facet normal -0.000000e+00 -0.000000e+00 -1.000000e+00
    outer loop
      vertex   5.771771e+01 1.120436e+01 5.949873e+01
      vertex   5.795182e+01 1.002742e+01 5.949873e+01
      vertex   5.629355e+01 1.106410e+01 5.949873e+01
    endloop
  endfacet
  facet normal 0.000000e+00 -0.000000e+00 -1.000000e+00
    outer loop
      vertex   5.771771e+01 1.120436e+01 5.949873e+01
      vertex   5.908714e+01 1.161978e+01 5.949873e+01
      vertex   5.795182e+01 1.002742e+01 5.949873e+01
    endloop
  endfacet
  facet normal -0.000000e+00 0.000000e+00 -1.000000e+00
    outer loop
      vertex   6.463022e+01 2.002236e+01 5.949873e+01
      vertex   6.345328e+01 1.978826e+01 5.949873e+01
      vertex   6.414653e+01 2.161691e+01 5.949873e+01
    endloop
  endfacet
  facet normal -0.000000e+00 0.000000e+00 -1.000000e+00
    outer loop
      vertex   6.463022e+01 2.002236e+01 5.949873e+01
      vertex   6.359355e+01 1.836410e+01 5.949873e+01
      vertex   6.345328e+01 1.978826e+01 5.949873e+01
    endloop
  endfacet
  facet normal -0.000000e+00 0.000000e+00 -1.000000e+00
    outer loop
      vertex   6.414653e+01 2.161691e+01 5.949873e+01
      vertex   6.303787e+01 2.115769e+01 5.949873e+01
      vertex   6.336104e+01 2.308644e+01 5.949873e+01
    endloop
  endfacet
  facet normal -0.000000e+00 0.000000e+00 -1.000000e+00
    outer loop
      vertex   6.414653e+01 2.161691e+01 5.949873e+01
      vertex   6.345328e+01 1.978826e+01 5.949873e+01
      vertex   6.303787e+01 2.115769e+01 5.949873e+01
    endloop
  endfacet
  facet normal -0.000000e+00 0.000000e+00 -1.000000e+00
    outer loop
      vertex   6.336104e+01 2.308644e+01 5.949873e+01
      vertex   6.236328e+01 2.241976e+01 5.949873e+01
      vertex   6.230396e+01 2.437450e+01 5.949873e+01
    endloop
  endfacet
  facet normal -0.000000e+00 0.000000e+00 -1.000000e+00
    outer loop
      vertex   6.336104e+01 2.308644e+01 5.949873e+01
      vertex   6.303787e+01 2.115769e+01 5.949873e+01
      vertex   6.236328e+01 2.241976e+01 5.949873e+01
    endloop
  endfacet
  facet normal -0.000000e+00 0.000000e+00 -1.000000e+00
    outer loop
      vertex   5.795182e+01 1.002742e+01 5.949873e+01
      vertex   5.629355e+01 9.864097e+00 5.949873e+01
      vertex   5.629355e+01 1.106410e+01 5.949873e+01
    endloop
  endfacet
  facet normal -0.000000e+00 -0.000000e+00 -1.000000e+00
    outer loop
      vertex   5.629355e+01 1.106410e+01 5.949873e+01
      vertex   5.629355e+01 9.864097e+00 5.949873e+01
      vertex   5.486939e+01 1.120436e+01 5.949873e+01
    endloop
  endfacet
  facet normal -0.000000e+00 -0.000000e+00 -1.000000e+00
    outer loop
      vertex   5.486939e+01 1.120436e+01 5.949873e+01
      vertex   5.629355e+01 9.864097e+00 5.949873e+01
      vertex   5.463528e+01 1.002742e+01 5.949873e+01
    endloop
  endfacet
  facet normal -0.000000e+00 -0.000000e+00 -1.000000e+00
    outer loop
      vertex   5.349996e+01 1.161978e+01 5.949873e+01
      vertex   5.463528e+01 1.002742e+01 5.949873e+01
      vertex   5.304074e+01 1.051112e+01 5.949873e+01
    endloop
  endfacet
  facet normal -0.000000e+00 -0.000000e+00 -1.000000e+00
    outer loop
      vertex   5.223789e+01 1.229437e+01 5.949873e+01
      vertex   5.304074e+01 1.051112e+01 5.949873e+01
      vertex   5.157120e+01 1.129661e+01 5.949873e+01
    endloop
  endfacet
  facet normal -0.000000e+00 -0.000000e+00 -1.000000e+00
    outer loop
      vertex   5.113167e+01 1.320222e+01 5.949873e+01
      vertex   5.157120e+01 1.129661e+01 5.949873e+01
      vertex   5.028314e+01 1.235369e+01 5.949873e+01
    endloop
  endfacet
  facet normal -0.000000e+00 -0.000000e+00 -1.000000e+00
    outer loop
      vertex   5.022382e+01 1.430843e+01 5.949873e+01
      vertex   5.028314e+01 1.235369e+01 5.949873e+01
      vertex   4.922606e+01 1.364175e+01 5.949873e+01
    endloop
  endfacet
  facet normal -0.000000e+00 0.000000e+00 -1.000000e+00
    outer loop
      vertex   4.954923e+01 1.557051e+01 5.949873e+01
      vertex   4.922606e+01 1.364175e+01 5.949873e+01
      vertex   4.844057e+01 1.511129e+01 5.949873e+01
    endloop
  endfacet
  facet normal -0.000000e+00 0.000000e+00 -1.000000e+00
    outer loop
      vertex   4.913382e+01 1.693994e+01 5.949873e+01
      vertex   4.844057e+01 1.511129e+01 5.949873e+01
      vertex   4.795687e+01 1.670583e+01 5.949873e+01
    endloop
  endfacet
  facet normal -0.000000e+00 0.000000e+00 -1.000000e+00
    outer loop
      vertex   4.899355e+01 1.836410e+01 5.949873e+01
      vertex   4.795687e+01 1.670583e+01 5.949873e+01
      vertex   4.779355e+01 1.836410e+01 5.949873e+01
    endloop
  endfacet
  facet normal 0.000000e+00 -0.000000e+00 -1.000000e+00
    outer loop
      vertex   4.795687e+01 2.002236e+01 5.949873e+01
      vertex   4.899355e+01 1.836410e+01 5.949873e+01
      vertex   4.779355e+01 1.836410e+01 5.949873e+01
    endloop
  endfacet
  facet normal 0.000000e+00 -0.000000e+00 -1.000000e+00
    outer loop
      vertex   4.795687e+01 2.002236e+01 5.949873e+01
      vertex   4.913382e+01 1.978826e+01 5.949873e+01
      vertex   4.899355e+01 1.836410e+01 5.949873e+01
    endloop
  endfacet
  facet normal 0.000000e+00 0.000000e+00 -1.000000e+00
    outer loop
      vertex   4.795687e+01 2.002236e+01 5.949873e+01
      vertex   4.844057e+01 2.161691e+01 5.949873e+01
      vertex   4.913382e+01 1.978826e+01 5.949873e+01
    endloop
  endfacet
  facet normal 0.000000e+00 0.000000e+00 -1.000000e+00
    outer loop
      vertex   4.913382e+01 1.978826e+01 5.949873e+01
      vertex   4.844057e+01 2.161691e+01 5.949873e+01
      vertex   4.954923e+01 2.115769e+01 5.949873e+01
    endloop
  endfacet
  facet normal 0.000000e+00 0.000000e+00 -1.000000e+00
    outer loop
      vertex   4.954923e+01 2.115769e+01 5.949873e+01
      vertex   4.844057e+01 2.161691e+01 5.949873e+01
      vertex   4.922606e+01 2.308644e+01 5.949873e+01
    endloop
  endfacet
  facet normal 0.000000e+00 0.000000e+00 -1.000000e+00
    outer loop
      vertex   5.022382e+01 2.241976e+01 5.949873e+01
      vertex   4.922606e+01 2.308644e+01 5.949873e+01
      vertex   5.028314e+01 2.437450e+01 5.949873e+01
    endloop
  endfacet
  facet normal 0.000000e+00 0.000000e+00 -1.000000e+00
    outer loop
      vertex   5.113167e+01 2.352598e+01 5.949873e+01
      vertex   5.028314e+01 2.437450e+01 5.949873e+01
      vertex   5.157120e+01 2.543159e+01 5.949873e+01
    endloop
  endfacet
  facet normal 0.000000e+00 0.000000e+00 -1.000000e+00
    outer loop
      vertex   5.223789e+01 2.443382e+01 5.949873e+01
      vertex   5.157120e+01 2.543159e+01 5.949873e+01
      vertex   5.304074e+01 2.621707e+01 5.949873e+01
    endloop
  endfacet
  facet normal 0.000000e+00 0.000000e+00 -1.000000e+00
    outer loop
      vertex   5.349996e+01 2.510842e+01 5.949873e+01
      vertex   5.304074e+01 2.621707e+01 5.949873e+01
      vertex   5.463528e+01 2.670077e+01 5.949873e+01
    endloop
  endfacet
  facet normal 0.000000e+00 0.000000e+00 -1.000000e+00
    outer loop
      vertex   5.486939e+01 2.552383e+01 5.949873e+01
      vertex   5.463528e+01 2.670077e+01 5.949873e+01
      vertex   5.629355e+01 2.686410e+01 5.949873e+01
    endloop
  endfacet
  facet normal 0.000000e+00 0.000000e+00 -1.000000e+00
    outer loop
      vertex   5.629355e+01 2.566410e+01 5.949873e+01
      vertex   5.629355e+01 2.686410e+01 5.949873e+01
      vertex   5.771771e+01 2.552383e+01 5.949873e+01
    endloop
  endfacet
  facet normal -0.000000e+00 0.000000e+00 -1.000000e+00
    outer loop
      vertex   5.629355e+01 2.566410e+01 5.949873e+01
      vertex   5.486939e+01 2.552383e+01 5.949873e+01
      vertex   5.629355e+01 2.686410e+01 5.949873e+01
    endloop
  endfacet
  facet normal 0.000000e+00 0.000000e+00 -1.000000e+00
    outer loop
      vertex   6.236328e+01 2.241976e+01 5.949873e+01
      vertex   6.145543e+01 2.352598e+01 5.949873e+01
      vertex   6.230396e+01 2.437450e+01 5.949873e+01
    endloop
  endfacet
  facet normal -0.000000e+00 0.000000e+00 -1.000000e+00
    outer loop
      vertex   6.230396e+01 2.437450e+01 5.949873e+01
      vertex   6.145543e+01 2.352598e+01 5.949873e+01
      vertex   6.101590e+01 2.543159e+01 5.949873e+01
    endloop
  endfacet
  facet normal -0.000000e+00 -0.000000e+00 -1.000000e+00
    outer loop
      vertex   6.101590e+01 2.543159e+01 5.949873e+01
      vertex   6.145543e+01 2.352598e+01 5.949873e+01
      vertex   6.034921e+01 2.443382e+01 5.949873e+01
    endloop
  endfacet
  facet normal -0.000000e+00 -0.000000e+00 -1.000000e+00
    outer loop
      vertex   5.954636e+01 2.621707e+01 5.949873e+01
      vertex   6.034921e+01 2.443382e+01 5.949873e+01
      vertex   5.908714e+01 2.510842e+01 5.949873e+01
    endloop
  endfacet
  facet normal -0.000000e+00 -0.000000e+00 -1.000000e+00
    outer loop
      vertex   5.795182e+01 2.670077e+01 5.949873e+01
      vertex   5.908714e+01 2.510842e+01 5.949873e+01
      vertex   5.771771e+01 2.552383e+01 5.949873e+01
    endloop
  endfacet
  facet normal 0.000000e+00 -0.000000e+00 -1.000000e+00
    outer loop
      vertex   5.629355e+01 2.686410e+01 5.949873e+01
      vertex   5.795182e+01 2.670077e+01 5.949873e+01
      vertex   5.771771e+01 2.552383e+01 5.949873e+01
    endloop
  endfacet
  facet normal -0.000000e+00 0.000000e+00 -1.000000e+00
    outer loop
      vertex   5.486939e+01 2.552383e+01 5.949873e+01
      vertex   5.349996e+01 2.510842e+01 5.949873e+01
      vertex   5.463528e+01 2.670077e+01 5.949873e+01
    endloop
  endfacet
  facet normal -0.000000e+00 0.000000e+00 -1.000000e+00
    outer loop
      vertex   5.349996e+01 2.510842e+01 5.949873e+01
      vertex   5.223789e+01 2.443382e+01 5.949873e+01
      vertex   5.304074e+01 2.621707e+01 5.949873e+01
    endloop
  endfacet
  facet normal -0.000000e+00 0.000000e+00 -1.000000e+00
    outer loop
      vertex   5.223789e+01 2.443382e+01 5.949873e+01
      vertex   5.113167e+01 2.352598e+01 5.949873e+01
      vertex   5.157120e+01 2.543159e+01 5.949873e+01
    endloop
  endfacet
  facet normal -0.000000e+00 0.000000e+00 -1.000000e+00
    outer loop
      vertex   5.113167e+01 2.352598e+01 5.949873e+01
      vertex   5.022382e+01 2.241976e+01 5.949873e+01
      vertex   5.028314e+01 2.437450e+01 5.949873e+01
    endloop
  endfacet
  facet normal -0.000000e+00 0.000000e+00 -1.000000e+00
    outer loop
      vertex   5.022382e+01 2.241976e+01 5.949873e+01
      vertex   4.954923e+01 2.115769e+01 5.949873e+01
      vertex   4.922606e+01 2.308644e+01 5.949873e+01
    endloop
  endfacet
  facet normal 0.000000e+00 -0.000000e+00 -1.000000e+00
    outer loop
      vertex   4.899355e+01 1.836410e+01 5.949873e+01
      vertex   4.913382e+01 1.693994e+01 5.949873e+01
      vertex   4.795687e+01 1.670583e+01 5.949873e+01
    endloop
  endfacet
  facet normal 0.000000e+00 -0.000000e+00 -1.000000e+00
    outer loop
      vertex   4.913382e+01 1.693994e+01 5.949873e+01
      vertex   4.954923e+01 1.557051e+01 5.949873e+01
      vertex   4.844057e+01 1.511129e+01 5.949873e+01
    endloop
  endfacet
  facet normal 0.000000e+00 -0.000000e+00 -1.000000e+00
    outer loop
      vertex   4.954923e+01 1.557051e+01 5.949873e+01
      vertex   5.022382e+01 1.430843e+01 5.949873e+01
      vertex   4.922606e+01 1.364175e+01 5.949873e+01
    endloop
  endfacet
  facet normal 0.000000e+00 -0.000000e+00 -1.000000e+00
    outer loop
      vertex   5.022382e+01 1.430843e+01 5.949873e+01
      vertex   5.113167e+01 1.320222e+01 5.949873e+01
      vertex   5.028314e+01 1.235369e+01 5.949873e+01
    endloop
  endfacet
  facet normal 0.000000e+00 -0.000000e+00 -1.000000e+00
    outer loop
      vertex   5.113167e+01 1.320222e+01 5.949873e+01
      vertex   5.223789e+01 1.229437e+01 5.949873e+01
      vertex   5.157120e+01 1.129661e+01 5.949873e+01
    endloop
  endfacet
  facet normal 0.000000e+00 -0.000000e+00 -1.000000e+00
    outer loop
      vertex   5.223789e+01 1.229437e+01 5.949873e+01
      vertex   5.349996e+01 1.161978e+01 5.949873e+01
      vertex   5.304074e+01 1.051112e+01 5.949873e+01
    endloop
  endfacet
  facet normal 0.000000e+00 -0.000000e+00 -1.000000e+00
    outer loop
      vertex   5.349996e+01 1.161978e+01 5.949873e+01
      vertex   5.486939e+01 1.120436e+01 5.949873e+01
      vertex   5.463528e+01 1.002742e+01 5.949873e+01
    endloop
  endfacet
  facet normal 0.000000e+00 -0.000000e+00 -1.000000e+00
    outer loop
      vertex   5.908714e+01 1.161978e+01 5.949873e+01
      vertex   6.034921e+01 1.229437e+01 5.949873e+01
      vertex   5.954636e+01 1.051112e+01 5.949873e+01
    endloop
  endfacet
  facet normal 0.000000e+00 -0.000000e+00 -1.000000e+00
    outer loop
      vertex   6.034921e+01 1.229437e+01 5.949873e+01
      vertex   6.145543e+01 1.320222e+01 5.949873e+01
      vertex   6.101590e+01 1.129661e+01 5.949873e+01
    endloop
  endfacet
  facet normal 0.000000e+00 -0.000000e+00 -1.000000e+00
    outer loop
      vertex   6.145543e+01 1.320222e+01 5.949873e+01
      vertex   6.236328e+01 1.430843e+01 5.949873e+01
      vertex   6.230396e+01 1.235369e+01 5.949873e+01
    endloop
  endfacet
  facet normal 0.000000e+00 0.000000e+00 -1.000000e+00
    outer loop
      vertex   6.236328e+01 1.430843e+01 5.949873e+01
      vertex   6.303787e+01 1.557051e+01 5.949873e+01
      vertex   6.336104e+01 1.364175e+01 5.949873e+01
    endloop
  endfacet
  facet normal 0.000000e+00 0.000000e+00 -1.000000e+00
    outer loop
      vertex   6.303787e+01 1.557051e+01 5.949873e+01
      vertex   6.345328e+01 1.693994e+01 5.949873e+01
      vertex   6.414653e+01 1.511129e+01 5.949873e+01
    endloop
  endfacet
  facet normal -0.000000e+00 0.000000e+00 -1.000000e+00
    outer loop
      vertex   6.101590e+01 2.543159e+01 5.949873e+01
      vertex   6.034921e+01 2.443382e+01 5.949873e+01
      vertex   5.954636e+01 2.621707e+01 5.949873e+01
    endloop
  endfacet
  facet normal -0.000000e+00 0.000000e+00 -1.000000e+00
    outer loop
      vertex   5.954636e+01 2.621707e+01 5.949873e+01
      vertex   5.908714e+01 2.510842e+01 5.949873e+01
      vertex   5.795182e+01 2.670077e+01 5.949873e+01
    endloop
  endfacet
  facet normal 9.951847e-01 -9.801714e-02 0.000000e+00
    outer loop
      vertex   4.899355e+01 1.836410e+01 5.949873e+01
      vertex   4.913382e+01 1.978826e+01 5.949873e+01
      vertex   4.899355e+01 1.836410e+01 5.999873e+01
    endloop
  endfacet
  facet normal 9.951847e-01 -9.801714e-02 0.000000e+00
    outer loop
      vertex   4.899355e+01 1.836410e+01 5.999873e+01
      vertex   4.913382e+01 1.978826e+01 5.949873e+01
      vertex   4.913382e+01 1.978826e+01 5.999873e+01
    endloop
  endfacet
  facet normal 9.569403e-01 -2.902847e-01 0.000000e+00
    outer loop
      vertex   4.913382e+01 1.978826e+01 5.999873e+01
      vertex   4.913382e+01 1.978826e+01 5.949873e+01
      vertex   4.954923e+01 2.115769e+01 5.949873e+01
    endloop
  endfacet
  facet normal 8.819213e-01 -4.713967e-01 0.000000e+00
    outer loop
      vertex   4.954923e+01 2.115769e+01 5.999873e+01
      vertex   4.954923e+01 2.115769e+01 5.949873e+01
      vertex   5.022382e+01 2.241976e+01 5.949873e+01
    endloop
  endfacet
  facet normal 7.730105e-01 -6.343933e-01 0.000000e+00
    outer loop
      vertex   5.022382e+01 2.241976e+01 5.999873e+01
      vertex   5.022382e+01 2.241976e+01 5.949873e+01
      vertex   5.113167e+01 2.352598e+01 5.949873e+01
    endloop
  endfacet
  facet normal 6.343933e-01 -7.730105e-01 0.000000e+00
    outer loop
      vertex   5.113167e+01 2.352598e+01 5.999873e+01
      vertex   5.113167e+01 2.352598e+01 5.949873e+01
      vertex   5.223789e+01 2.443382e+01 5.949873e+01
    endloop
  endfacet
  facet normal 4.713967e-01 -8.819213e-01 6.266427e-15
    outer loop
      vertex   5.223789e+01 2.443382e+01 5.999873e+01
      vertex   5.223789e+01 2.443382e+01 5.949873e+01
      vertex   5.349996e+01 2.510842e+01 5.949873e+01
    endloop
  endfacet
  facet normal 2.902847e-01 -9.569403e-01 0.000000e+00
    outer loop
      vertex   5.349996e+01 2.510842e+01 5.999873e+01
      vertex   5.349996e+01 2.510842e+01 5.949873e+01
      vertex   5.486939e+01 2.552383e+01 5.949873e+01
    endloop
  endfacet
  facet normal 9.801714e-02 -9.951847e-01 0.000000e+00
    outer loop
      vertex   5.486939e+01 2.552383e+01 5.999873e+01
      vertex   5.486939e+01 2.552383e+01 5.949873e+01
      vertex   5.629355e+01 2.566410e+01 5.949873e+01
    endloop
  endfacet
  facet normal -9.801714e-02 -9.951847e-01 -0.000000e+00
    outer loop
      vertex   5.629355e+01 2.566410e+01 5.999873e+01
      vertex   5.629355e+01 2.566410e+01 5.949873e+01
      vertex   5.771771e+01 2.552383e+01 5.949873e+01
    endloop
  endfacet
  facet normal -2.902847e-01 -9.569403e-01 -0.000000e+00
    outer loop
      vertex   5.771771e+01 2.552383e+01 5.999873e+01
      vertex   5.771771e+01 2.552383e+01 5.949873e+01
      vertex   5.908714e+01 2.510842e+01 5.949873e+01
    endloop
  endfacet
  facet normal -4.713967e-01 -8.819213e-01 -0.000000e+00
    outer loop
      vertex   5.908714e+01 2.510842e+01 5.999873e+01
      vertex   5.908714e+01 2.510842e+01 5.949873e+01
      vertex   6.034921e+01 2.443382e+01 5.949873e+01
    endloop
  endfacet
  facet normal -6.343933e-01 -7.730105e-01 -5.492570e-15
    outer loop
      vertex   6.034921e+01 2.443382e+01 5.999873e+01
      vertex   6.034921e+01 2.443382e+01 5.949873e+01
      vertex   6.145543e+01 2.352598e+01 5.949873e+01
    endloop
  endfacet
  facet normal -7.730105e-01 -6.343933e-01 -0.000000e+00
    outer loop
      vertex   6.145543e+01 2.352598e+01 5.999873e+01
      vertex   6.145543e+01 2.352598e+01 5.949873e+01
      vertex   6.236328e+01 2.241976e+01 5.949873e+01
    endloop
  endfacet
  facet normal -8.819213e-01 -4.713967e-01 -0.000000e+00
    outer loop
      vertex   6.236328e+01 2.241976e+01 5.999873e+01
      vertex   6.236328e+01 2.241976e+01 5.949873e+01
      vertex   6.303787e+01 2.115769e+01 5.949873e+01
    endloop
  endfacet
  facet normal -9.569403e-01 -2.902847e-01 -0.000000e+00
    outer loop
      vertex   6.303787e+01 2.115769e+01 5.999873e+01
      vertex   6.303787e+01 2.115769e+01 5.949873e+01
      vertex   6.345328e+01 1.978826e+01 5.949873e+01
    endloop
  endfacet
  facet normal -9.951847e-01 -9.801714e-02 -0.000000e+00
    outer loop
      vertex   6.345328e+01 1.978826e+01 5.999873e+01
      vertex   6.345328e+01 1.978826e+01 5.949873e+01
      vertex   6.359355e+01 1.836410e+01 5.999873e+01
    endloop
  endfacet
  facet normal -9.569403e-01 -2.902847e-01 0.000000e+00
    outer loop
      vertex   6.345328e+01 1.978826e+01 5.999873e+01
      vertex   6.303787e+01 2.115769e+01 5.999873e+01
      vertex   6.345328e+01 1.978826e+01 5.949873e+01
    endloop
  endfacet
  facet normal -9.951847e-01 -9.801714e-02 0.000000e+00
    outer loop
      vertex   6.345328e+01 1.978826e+01 5.949873e+01
      vertex   6.359355e+01 1.836410e+01 5.949873e+01
      vertex   6.359355e+01 1.836410e+01 5.999873e+01
    endloop
  endfacet
  facet normal -8.819213e-01 -4.713967e-01 0.000000e+00
    outer loop
      vertex   6.303787e+01 2.115769e+01 5.999873e+01
      vertex   6.236328e+01 2.241976e+01 5.999873e+01
      vertex   6.303787e+01 2.115769e+01 5.949873e+01
    endloop
  endfacet
  facet normal -7.730105e-01 -6.343933e-01 0.000000e+00
    outer loop
      vertex   6.236328e+01 2.241976e+01 5.999873e+01
      vertex   6.145543e+01 2.352598e+01 5.999873e+01
      vertex   6.236328e+01 2.241976e+01 5.949873e+01
    endloop
  endfacet
  facet normal -6.343933e-01 -7.730105e-01 0.000000e+00
    outer loop
      vertex   6.145543e+01 2.352598e+01 5.999873e+01
      vertex   6.034921e+01 2.443382e+01 5.999873e+01
      vertex   6.145543e+01 2.352598e+01 5.949873e+01
    endloop
  endfacet
  facet normal -4.713967e-01 -8.819213e-01 -6.361642e-15
    outer loop
      vertex   6.034921e+01 2.443382e+01 5.999873e+01
      vertex   5.908714e+01 2.510842e+01 5.999873e+01
      vertex   6.034921e+01 2.443382e+01 5.949873e+01
    endloop
  endfacet
  facet normal -2.902847e-01 -9.569403e-01 0.000000e+00
    outer loop
      vertex   5.908714e+01 2.510842e+01 5.999873e+01
      vertex   5.771771e+01 2.552383e+01 5.999873e+01
      vertex   5.908714e+01 2.510842e+01 5.949873e+01
    endloop
  endfacet
  facet normal -9.801714e-02 -9.951847e-01 0.000000e+00
    outer loop
      vertex   5.771771e+01 2.552383e+01 5.999873e+01
      vertex   5.629355e+01 2.566410e+01 5.999873e+01
      vertex   5.771771e+01 2.552383e+01 5.949873e+01
    endloop
  endfacet
  facet normal 9.801714e-02 -9.951847e-01 0.000000e+00
    outer loop
      vertex   5.629355e+01 2.566410e+01 5.999873e+01
      vertex   5.486939e+01 2.552383e+01 5.999873e+01
      vertex   5.629355e+01 2.566410e+01 5.949873e+01
    endloop
  endfacet
  facet normal 2.902847e-01 -9.569403e-01 0.000000e+00
    outer loop
      vertex   5.486939e+01 2.552383e+01 5.999873e+01
      vertex   5.349996e+01 2.510842e+01 5.999873e+01
      vertex   5.486939e+01 2.552383e+01 5.949873e+01
    endloop
  endfacet
  facet normal 4.713967e-01 -8.819213e-01 0.000000e+00
    outer loop
      vertex   5.349996e+01 2.510842e+01 5.999873e+01
      vertex   5.223789e+01 2.443382e+01 5.999873e+01
      vertex   5.349996e+01 2.510842e+01 5.949873e+01
    endloop
  endfacet
  facet normal 6.343933e-01 -7.730105e-01 5.585832e-15
    outer loop
      vertex   5.223789e+01 2.443382e+01 5.999873e+01
      vertex   5.113167e+01 2.352598e+01 5.999873e+01
      vertex   5.223789e+01 2.443382e+01 5.949873e+01
    endloop
  endfacet
  facet normal 7.730105e-01 -6.343933e-01 0.000000e+00
    outer loop
      vertex   5.113167e+01 2.352598e+01 5.999873e+01
      vertex   5.022382e+01 2.241976e+01 5.999873e+01
      vertex   5.113167e+01 2.352598e+01 5.949873e+01
    endloop
  endfacet
  facet normal 8.819213e-01 -4.713967e-01 0.000000e+00
    outer loop
      vertex   5.022382e+01 2.241976e+01 5.999873e+01
      vertex   4.954923e+01 2.115769e+01 5.999873e+01
      vertex   5.022382e+01 2.241976e+01 5.949873e+01
    endloop
  endfacet
  facet normal 9.569403e-01 -2.902847e-01 0.000000e+00
    outer loop
      vertex   4.954923e+01 2.115769e+01 5.999873e+01
      vertex   4.913382e+01 1.978826e+01 5.999873e+01
      vertex   4.954923e+01 2.115769e+01 5.949873e+01
    endloop
  endfacet
  facet normal -9.801714e-02 9.951847e-01 0.000000e+00
    outer loop
      vertex   5.629355e+01 2.686410e+01 5.949873e+01
      vertex   5.463528e+01 2.670077e+01 5.949873e+01
      vertex   5.629355e+01 2.686410e+01 5.999873e+01
    endloop
  endfacet
  facet normal -9.801714e-02 9.951847e-01 5.678305e-15
    outer loop
      vertex   5.629355e+01 2.686410e+01 5.999873e+01
      vertex   5.463528e+01 2.670077e+01 5.949873e+01
      vertex   5.463528e+01 2.670077e+01 5.999873e+01
    endloop
  endfacet
  facet normal -2.902847e-01 9.569403e-01 2.674277e-15
    outer loop
      vertex   5.463528e+01 2.670077e+01 5.999873e+01
      vertex   5.463528e+01 2.670077e+01 5.949873e+01
      vertex   5.304074e+01 2.621707e+01 5.949873e+01
    endloop
  endfacet
  facet normal -4.713967e-01 8.819213e-01 0.000000e+00
    outer loop
      vertex   5.304074e+01 2.621707e+01 5.999873e+01
      vertex   5.304074e+01 2.621707e+01 5.949873e+01
      vertex   5.157120e+01 2.543159e+01 5.949873e+01
    endloop
  endfacet
  facet normal -6.343933e-01 7.730105e-01 -1.098514e-14
    outer loop
      vertex   5.157120e+01 2.543159e+01 5.999873e+01
      vertex   5.157120e+01 2.543159e+01 5.949873e+01
      vertex   5.028314e+01 2.437450e+01 5.949873e+01
    endloop
  endfacet
  facet normal -7.730105e-01 6.343933e-01 6.477504e-15
    outer loop
      vertex   5.028314e+01 2.437450e+01 5.999873e+01
      vertex   5.028314e+01 2.437450e+01 5.949873e+01
      vertex   4.922606e+01 2.308644e+01 5.949873e+01
    endloop
  endfacet
  facet normal -8.819213e-01 4.713967e-01 -1.253285e-14
    outer loop
      vertex   4.922606e+01 2.308644e+01 5.999873e+01
      vertex   4.922606e+01 2.308644e+01 5.949873e+01
      vertex   4.844057e+01 2.161691e+01 5.949873e+01
    endloop
  endfacet
  facet normal -9.569403e-01 2.902847e-01 -6.187790e-15
    outer loop
      vertex   4.844057e+01 2.161691e+01 5.999873e+01
      vertex   4.844057e+01 2.161691e+01 5.949873e+01
      vertex   4.795687e+01 2.002236e+01 5.949873e+01
    endloop
  endfacet
  facet normal -9.951847e-01 9.801714e-02 -1.392907e-15
    outer loop
      vertex   4.795687e+01 2.002236e+01 5.999873e+01
      vertex   4.795687e+01 2.002236e+01 5.949873e+01
      vertex   4.779355e+01 1.836410e+01 5.949873e+01
    endloop
  endfacet
  facet normal -9.951847e-01 -9.801714e-02 6.964537e-16
    outer loop
      vertex   4.779355e+01 1.836410e+01 5.999873e+01
      vertex   4.779355e+01 1.836410e+01 5.949873e+01
      vertex   4.795687e+01 1.670583e+01 5.949873e+01
    endloop
  endfacet
  facet normal -9.569403e-01 -2.902847e-01 1.772413e-14
    outer loop
      vertex   4.795687e+01 1.670583e+01 5.999873e+01
      vertex   4.795687e+01 1.670583e+01 5.949873e+01
      vertex   4.844057e+01 1.511129e+01 5.949873e+01
    endloop
  endfacet
  facet normal -8.819213e-01 -4.713967e-01 -1.674738e-15
    outer loop
      vertex   4.844057e+01 1.511129e+01 5.999873e+01
      vertex   4.844057e+01 1.511129e+01 5.949873e+01
      vertex   4.922606e+01 1.364175e+01 5.949873e+01
    endloop
  endfacet
  facet normal -7.730105e-01 -6.343933e-01 1.774659e-14
    outer loop
      vertex   4.922606e+01 1.364175e+01 5.999873e+01
      vertex   4.922606e+01 1.364175e+01 5.949873e+01
      vertex   5.028314e+01 1.235369e+01 5.949873e+01
    endloop
  endfacet
  facet normal -6.343933e-01 -7.730105e-01 -3.522701e-15
    outer loop
      vertex   5.028314e+01 1.235369e+01 5.999873e+01
      vertex   5.028314e+01 1.235369e+01 5.949873e+01
      vertex   5.157120e+01 1.129661e+01 5.949873e+01
    endloop
  endfacet
  facet normal -4.713967e-01 -8.819213e-01 2.700691e-15
    outer loop
      vertex   5.157120e+01 1.129661e+01 5.999873e+01
      vertex   5.157120e+01 1.129661e+01 5.949873e+01
      vertex   5.304074e+01 1.051112e+01 5.949873e+01
    endloop
  endfacet
  facet normal -2.902847e-01 -9.569403e-01 5.348553e-15
    outer loop
      vertex   5.304074e+01 1.051112e+01 5.999873e+01
      vertex   5.304074e+01 1.051112e+01 5.949873e+01
      vertex   5.463528e+01 1.002742e+01 5.949873e+01
    endloop
  endfacet
  facet normal -9.801714e-02 -9.951847e-01 -1.392907e-15
    outer loop
      vertex   5.463528e+01 1.002742e+01 5.999873e+01
      vertex   5.463528e+01 1.002742e+01 5.949873e+01
      vertex   5.629355e+01 9.864097e+00 5.949873e+01
    endloop
  endfacet
  facet normal -9.801714e-02 -9.951847e-01 0.000000e+00
    outer loop
      vertex   5.629355e+01 9.864097e+00 5.999873e+01
      vertex   5.463528e+01 1.002742e+01 5.999873e+01
      vertex   5.629355e+01 9.864097e+00 5.949873e+01
    endloop
  endfacet
  facet normal -2.902847e-01 -9.569403e-01 -4.130960e-15
    outer loop
      vertex   5.463528e+01 1.002742e+01 5.999873e+01
      vertex   5.304074e+01 1.051112e+01 5.999873e+01
      vertex   5.463528e+01 1.002742e+01 5.949873e+01
    endloop
  endfacet
  facet normal -4.713967e-01 -8.819213e-01 -1.066054e-15
    outer loop
      vertex   5.304074e+01 1.051112e+01 5.999873e+01
      vertex   5.157120e+01 1.129661e+01 5.999873e+01
      vertex   5.304074e+01 1.051112e+01 5.949873e+01
    endloop
  endfacet
  facet normal -6.343933e-01 -7.730105e-01 -7.995406e-16
    outer loop
      vertex   5.157120e+01 1.129661e+01 5.999873e+01
      vertex   5.028314e+01 1.235369e+01 5.999873e+01
      vertex   5.157120e+01 1.129661e+01 5.949873e+01
    endloop
  endfacet
  facet normal -7.730105e-01 -6.343933e-01 -6.396325e-15
    outer loop
      vertex   5.028314e+01 1.235369e+01 5.999873e+01
      vertex   4.922606e+01 1.364175e+01 5.999873e+01
      vertex   5.028314e+01 1.235369e+01 5.949873e+01
    endloop
  endfacet
  facet normal -8.819213e-01 -4.713967e-01 1.758989e-14
    outer loop
      vertex   4.922606e+01 1.364175e+01 5.999873e+01
      vertex   4.844057e+01 1.511129e+01 5.999873e+01
      vertex   4.922606e+01 1.364175e+01 5.949873e+01
    endloop
  endfacet
  facet normal -9.569403e-01 -2.902847e-01 -1.066054e-15
    outer loop
      vertex   4.844057e+01 1.511129e+01 5.999873e+01
      vertex   4.795687e+01 1.670583e+01 5.999873e+01
      vertex   4.844057e+01 1.511129e+01 5.949873e+01
    endloop
  endfacet
  facet normal -9.951847e-01 -9.801714e-02 1.552441e-14
    outer loop
      vertex   4.795687e+01 1.670583e+01 5.999873e+01
      vertex   4.779355e+01 1.836410e+01 5.999873e+01
      vertex   4.795687e+01 1.670583e+01 5.949873e+01
    endloop
  endfacet
  facet normal -9.951847e-01 9.801714e-02 -6.662838e-16
    outer loop
      vertex   4.779355e+01 1.836410e+01 5.999873e+01
      vertex   4.795687e+01 2.002236e+01 5.999873e+01
      vertex   4.779355e+01 1.836410e+01 5.949873e+01
    endloop
  endfacet
  facet normal -9.569403e-01 2.902847e-01 -4.130960e-15
    outer loop
      vertex   4.795687e+01 2.002236e+01 5.999873e+01
      vertex   4.844057e+01 2.161691e+01 5.999873e+01
      vertex   4.795687e+01 2.002236e+01 5.949873e+01
    endloop
  endfacet
  facet normal -8.819213e-01 4.713967e-01 -9.861001e-15
    outer loop
      vertex   4.844057e+01 2.161691e+01 5.999873e+01
      vertex   4.922606e+01 2.308644e+01 5.999873e+01
      vertex   4.844057e+01 2.161691e+01 5.949873e+01
    endloop
  endfacet
  facet normal -7.730105e-01 6.343933e-01 -1.092705e-14
    outer loop
      vertex   4.922606e+01 2.308644e+01 5.999873e+01
      vertex   5.028314e+01 2.437450e+01 5.999873e+01
      vertex   4.922606e+01 2.308644e+01 5.949873e+01
    endloop
  endfacet
  facet normal -6.343933e-01 7.730105e-01 3.464676e-15
    outer loop
      vertex   5.028314e+01 2.437450e+01 5.999873e+01
      vertex   5.157120e+01 2.543159e+01 5.999873e+01
      vertex   5.028314e+01 2.437450e+01 5.949873e+01
    endloop
  endfacet
  facet normal -4.713967e-01 8.819213e-01 -1.252614e-14
    outer loop
      vertex   5.157120e+01 2.543159e+01 5.999873e+01
      vertex   5.304074e+01 2.621707e+01 5.999873e+01
      vertex   5.157120e+01 2.543159e+01 5.949873e+01
    endloop
  endfacet
  facet normal -2.902847e-01 9.569403e-01 0.000000e+00
    outer loop
      vertex   5.304074e+01 2.621707e+01 5.999873e+01
      vertex   5.463528e+01 2.670077e+01 5.999873e+01
      vertex   5.304074e+01 2.621707e+01 5.949873e+01
    endloop
  endfacet
endsolid
