solid ascii
  facet normal 0.000000e+00 -0.000000e+00 1.000000e+00
    outer loop
      vertex   -5.303488e+01 4.692524e+00 5.598732e+00
      vertex   -5.303488e+01 2.219252e+01 5.598732e+00
      vertex   -7.053488e+01 4.692524e+00 5.598732e+00
    endloop
  endfacet
  facet normal 0.000000e+00 -0.000000e+00 1.000000e+00
    outer loop
      vertex   -7.053488e+01 4.692524e+00 5.598732e+00
      vertex   -5.303488e+01 2.219252e+01 5.598732e+00
      vertex   -6.553488e+01 3.469252e+01 5.598732e+00
    endloop
  endfacet
  facet normal 0.000000e+00 -0.000000e+00 1.000000e+00
    outer loop
      vertex   -8.303488e+01 1.719252e+01 5.598732e+00
      vertex   -6.553488e+01 3.469252e+01 5.598732e+00
      vertex   -8.303488e+01 3.469252e+01 5.598732e+00
    endloop
  endfacet
  facet normal -0.000000e+00 0.000000e+00 1.000000e+00
    outer loop
      vertex   -8.303488e+01 1.719252e+01 5.598732e+00
      vertex   -7.053488e+01 4.692524e+00 5.598732e+00
      vertex   -6.553488e+01 3.469252e+01 5.598732e+00
    endloop
  endfacet
  facet normal 0.000000e+00 0.000000e+00 1.000000e+00
    outer loop
      vertex   -8.303488e+01 1.719252e+01 5.598732e+00
      vertex   -8.279469e+01 1.475389e+01 5.598732e+00
      vertex   -7.053488e+01 4.692524e+00 5.598732e+00
    endloop
  endfacet
  facet normal 0.000000e+00 0.000000e+00 1.000000e+00
    outer loop
      vertex   -7.053488e+01 4.692524e+00 5.598732e+00
      vertex   -8.279469e+01 1.475389e+01 5.598732e+00
      vertex   -8.208337e+01 1.240898e+01 5.598732e+00
    endloop
  endfacet
  facet normal -0.000000e+00 -0.000000e+00 1.000000e+00
    outer loop
      vertex   -8.092825e+01 1.024790e+01 5.598732e+00
      vertex   -7.053488e+01 4.692524e+00 5.598732e+00
      vertex   -8.208337e+01 1.240898e+01 5.598732e+00
    endloop
  endfacet
  facet normal 0.000000e+00 0.000000e+00 1.000000e+00
    outer loop
      vertex   -8.092825e+01 1.024790e+01 5.598732e+00
      vertex   -7.937371e+01 8.353689e+00 5.598732e+00
      vertex   -7.053488e+01 4.692524e+00 5.598732e+00
    endloop
  endfacet
  facet normal 0.000000e+00 0.000000e+00 1.000000e+00
    outer loop
      vertex   -7.053488e+01 4.692524e+00 5.598732e+00
      vertex   -7.937371e+01 8.353689e+00 5.598732e+00
      vertex   -7.747951e+01 6.799154e+00 5.598732e+00
    endloop
  endfacet
  facet normal -0.000000e+00 -0.000000e+00 1.000000e+00
    outer loop
      vertex   -7.531842e+01 5.644030e+00 5.598732e+00
      vertex   -7.053488e+01 4.692524e+00 5.598732e+00
      vertex   -7.747951e+01 6.799154e+00 5.598732e+00
    endloop
  endfacet
  facet normal 0.000000e+00 0.000000e+00 1.000000e+00
    outer loop
      vertex   -7.531842e+01 5.644030e+00 5.598732e+00
      vertex   -7.297351e+01 4.932708e+00 5.598732e+00
      vertex   -7.053488e+01 4.692524e+00 5.598732e+00
    endloop
  endfacet
  facet normal 0.000000e+00 0.000000e+00 1.000000e+00
    outer loop
      vertex   -5.327506e+01 2.463115e+01 5.598732e+00
      vertex   -5.398638e+01 2.697607e+01 5.598732e+00
      vertex   -5.303488e+01 2.219252e+01 5.598732e+00
    endloop
  endfacet
  facet normal 0.000000e+00 0.000000e+00 1.000000e+00
    outer loop
      vertex   -5.303488e+01 2.219252e+01 5.598732e+00
      vertex   -5.398638e+01 2.697607e+01 5.598732e+00
      vertex   -5.514151e+01 2.913715e+01 5.598732e+00
    endloop
  endfacet
  facet normal -0.000000e+00 -0.000000e+00 1.000000e+00
    outer loop
      vertex   -5.669604e+01 3.103136e+01 5.598732e+00
      vertex   -5.303488e+01 2.219252e+01 5.598732e+00
      vertex   -5.514151e+01 2.913715e+01 5.598732e+00
    endloop
  endfacet
  facet normal 0.000000e+00 0.000000e+00 1.000000e+00
    outer loop
      vertex   -5.669604e+01 3.103136e+01 5.598732e+00
      vertex   -5.859025e+01 3.258589e+01 5.598732e+00
      vertex   -5.303488e+01 2.219252e+01 5.598732e+00
    endloop
  endfacet
  facet normal 0.000000e+00 0.000000e+00 1.000000e+00
    outer loop
      vertex   -5.303488e+01 2.219252e+01 5.598732e+00
      vertex   -5.859025e+01 3.258589e+01 5.598732e+00
      vertex   -6.075133e+01 3.374102e+01 5.598732e+00
    endloop
  endfacet
  facet normal -0.000000e+00 -0.000000e+00 1.000000e+00
    outer loop
      vertex   -6.309625e+01 3.445234e+01 5.598732e+00
      vertex   -5.303488e+01 2.219252e+01 5.598732e+00
      vertex   -6.075133e+01 3.374102e+01 5.598732e+00
    endloop
  endfacet
  facet normal 0.000000e+00 0.000000e+00 1.000000e+00
    outer loop
      vertex   -6.309625e+01 3.445234e+01 5.598732e+00
      vertex   -6.553488e+01 3.469252e+01 5.598732e+00
      vertex   -5.303488e+01 2.219252e+01 5.598732e+00
    endloop
  endfacet
  facet normal -0.000000e+00 -1.000000e+00 -0.000000e+00
    outer loop
      vertex   -5.303488e+01 4.692524e+00 5.598732e+00
      vertex   -7.053488e+01 4.692524e+00 5.598732e+00
      vertex   -5.303488e+01 4.692524e+00 3.598732e+00
    endloop
  endfacet
  facet normal -0.000000e+00 -1.000000e+00 -0.000000e+00
    outer loop
      vertex   -5.303488e+01 4.692524e+00 3.598732e+00
      vertex   -7.053488e+01 4.692524e+00 5.598732e+00
      vertex   -7.053488e+01 4.692524e+00 3.598732e+00
    endloop
  endfacet
  facet normal 1.000000e+00 0.000000e+00 0.000000e+00
    outer loop
      vertex   -5.303488e+01 2.219252e+01 5.598732e+00
      vertex   -5.303488e+01 4.692524e+00 5.598732e+00
      vertex   -5.303488e+01 2.219252e+01 3.598732e+00
    endloop
  endfacet
  facet normal 1.000000e+00 0.000000e+00 0.000000e+00
    outer loop
      vertex   -5.303488e+01 2.219252e+01 3.598732e+00
      vertex   -5.303488e+01 4.692524e+00 5.598732e+00
      vertex   -5.303488e+01 4.692524e+00 3.598732e+00
    endloop
  endfacet
  facet normal 9.801714e-02 9.951847e-01 0.000000e+00
    outer loop
      vertex   -6.553488e+01 3.469252e+01 5.598732e+00
      vertex   -6.309625e+01 3.445234e+01 5.598732e+00
      vertex   -6.553488e+01 3.469252e+01 3.598732e+00
    endloop
  endfacet
  facet normal 9.801714e-02 9.951847e-01 0.000000e+00
    outer loop
      vertex   -6.553488e+01 3.469252e+01 3.598732e+00
      vertex   -6.309625e+01 3.445234e+01 5.598732e+00
      vertex   -6.309625e+01 3.445234e+01 3.598732e+00
    endloop
  endfacet
  facet normal 2.902847e-01 9.569403e-01 -0.000000e+00
    outer loop
      vertex   -6.309625e+01 3.445234e+01 3.598732e+00
      vertex   -6.309625e+01 3.445234e+01 5.598732e+00
      vertex   -6.075133e+01 3.374102e+01 5.598732e+00
    endloop
  endfacet
  facet normal 4.713967e-01 8.819213e-01 -0.000000e+00
    outer loop
      vertex   -6.075133e+01 3.374102e+01 3.598732e+00
      vertex   -6.075133e+01 3.374102e+01 5.598732e+00
      vertex   -5.859025e+01 3.258589e+01 5.598732e+00
    endloop
  endfacet
  facet normal 6.343933e-01 7.730105e-01 -0.000000e+00
    outer loop
      vertex   -5.859025e+01 3.258589e+01 3.598732e+00
      vertex   -5.859025e+01 3.258589e+01 5.598732e+00
      vertex   -5.669604e+01 3.103136e+01 5.598732e+00
    endloop
  endfacet
  facet normal 7.730105e-01 6.343933e-01 -0.000000e+00
    outer loop
      vertex   -5.669604e+01 3.103136e+01 3.598732e+00
      vertex   -5.669604e+01 3.103136e+01 5.598732e+00
      vertex   -5.514151e+01 2.913715e+01 5.598732e+00
    endloop
  endfacet
  facet normal 8.819213e-01 4.713967e-01 -0.000000e+00
    outer loop
      vertex   -5.514151e+01 2.913715e+01 3.598732e+00
      vertex   -5.514151e+01 2.913715e+01 5.598732e+00
      vertex   -5.398638e+01 2.697607e+01 5.598732e+00
    endloop
  endfacet
  facet normal 9.569403e-01 2.902847e-01 -5.156492e-16
    outer loop
      vertex   -5.398638e+01 2.697607e+01 3.598732e+00
      vertex   -5.398638e+01 2.697607e+01 5.598732e+00
      vertex   -5.327506e+01 2.463115e+01 5.598732e+00
    endloop
  endfacet
  facet normal 9.951847e-01 9.801714e-02 -0.000000e+00
    outer loop
      vertex   -5.327506e+01 2.463115e+01 3.598732e+00
      vertex   -5.327506e+01 2.463115e+01 5.598732e+00
      vertex   -5.303488e+01 2.219252e+01 5.598732e+00
    endloop
  endfacet
  facet normal 9.951847e-01 9.801714e-02 0.000000e+00
    outer loop
      vertex   -5.303488e+01 2.219252e+01 3.598732e+00
      vertex   -5.327506e+01 2.463115e+01 3.598732e+00
      vertex   -5.303488e+01 2.219252e+01 5.598732e+00
    endloop
  endfacet
  facet normal 9.569403e-01 2.902847e-01 0.000000e+00
    outer loop
      vertex   -5.327506e+01 2.463115e+01 3.598732e+00
      vertex   -5.398638e+01 2.697607e+01 3.598732e+00
      vertex   -5.327506e+01 2.463115e+01 5.598732e+00
    endloop
  endfacet
  facet normal 8.819213e-01 4.713967e-01 -8.155314e-16
    outer loop
      vertex   -5.398638e+01 2.697607e+01 3.598732e+00
      vertex   -5.514151e+01 2.913715e+01 3.598732e+00
      vertex   -5.398638e+01 2.697607e+01 5.598732e+00
    endloop
  endfacet
  facet normal 7.730105e-01 6.343933e-01 0.000000e+00
    outer loop
      vertex   -5.514151e+01 2.913715e+01 3.598732e+00
      vertex   -5.669604e+01 3.103136e+01 3.598732e+00
      vertex   -5.514151e+01 2.913715e+01 5.598732e+00
    endloop
  endfacet
  facet normal 6.343933e-01 7.730105e-01 0.000000e+00
    outer loop
      vertex   -5.669604e+01 3.103136e+01 3.598732e+00
      vertex   -5.859025e+01 3.258589e+01 3.598732e+00
      vertex   -5.669604e+01 3.103136e+01 5.598732e+00
    endloop
  endfacet
  facet normal 4.713967e-01 8.819213e-01 0.000000e+00
    outer loop
      vertex   -5.859025e+01 3.258589e+01 3.598732e+00
      vertex   -6.075133e+01 3.374102e+01 3.598732e+00
      vertex   -5.859025e+01 3.258589e+01 5.598732e+00
    endloop
  endfacet
  facet normal 2.902847e-01 9.569403e-01 0.000000e+00
    outer loop
      vertex   -6.075133e+01 3.374102e+01 3.598732e+00
      vertex   -6.309625e+01 3.445234e+01 3.598732e+00
      vertex   -6.075133e+01 3.374102e+01 5.598732e+00
    endloop
  endfacet
  facet normal 0.000000e+00 1.000000e+00 0.000000e+00
    outer loop
      vertex   -6.553488e+01 3.469252e+01 5.598732e+00
      vertex   -6.553488e+01 3.469252e+01 3.598732e+00
      vertex   -8.303488e+01 3.469252e+01 5.598732e+00
    endloop
  endfacet
  facet normal 0.000000e+00 1.000000e+00 0.000000e+00
    outer loop
      vertex   -8.303488e+01 3.469252e+01 5.598732e+00
      vertex   -6.553488e+01 3.469252e+01 3.598732e+00
      vertex   -8.303488e+01 3.469252e+01 3.598732e+00
    endloop
  endfacet
  facet normal -1.000000e+00 -0.000000e+00 -0.000000e+00
    outer loop
      vertex   -8.303488e+01 3.469252e+01 5.598732e+00
      vertex   -8.303488e+01 3.469252e+01 3.598732e+00
      vertex   -8.303488e+01 1.719252e+01 5.598732e+00
    endloop
  endfacet
  facet normal -1.000000e+00 -0.000000e+00 -0.000000e+00
    outer loop
      vertex   -8.303488e+01 1.719252e+01 5.598732e+00
      vertex   -8.303488e+01 3.469252e+01 3.598732e+00
      vertex   -8.303488e+01 1.719252e+01 3.598732e+00
    endloop
  endfacet
  facet normal -9.801714e-02 -9.951847e-01 0.000000e+00
    outer loop
      vertex   -7.053488e+01 4.692524e+00 5.598732e+00
      vertex   -7.297351e+01 4.932708e+00 5.598732e+00
      vertex   -7.053488e+01 4.692524e+00 3.598732e+00
    endloop
  endfacet
  facet normal -9.801714e-02 -9.951847e-01 -0.000000e+00
    outer loop
      vertex   -7.053488e+01 4.692524e+00 3.598732e+00
      vertex   -7.297351e+01 4.932708e+00 5.598732e+00
      vertex   -7.297351e+01 4.932708e+00 3.598732e+00
    endloop
  endfacet
  facet normal -2.902847e-01 -9.569403e-01 0.000000e+00
    outer loop
      vertex   -7.297351e+01 4.932708e+00 3.598732e+00
      vertex   -7.297351e+01 4.932708e+00 5.598732e+00
      vertex   -7.531842e+01 5.644030e+00 5.598732e+00
    endloop
  endfacet
  facet normal -4.713967e-01 -8.819213e-01 0.000000e+00
    outer loop
      vertex   -7.531842e+01 5.644030e+00 3.598732e+00
      vertex   -7.531842e+01 5.644030e+00 5.598732e+00
      vertex   -7.747951e+01 6.799154e+00 5.598732e+00
    endloop
  endfacet
  facet normal -6.343933e-01 -7.730105e-01 0.000000e+00
    outer loop
      vertex   -7.747951e+01 6.799154e+00 3.598732e+00
      vertex   -7.747951e+01 6.799154e+00 5.598732e+00
      vertex   -7.937371e+01 8.353689e+00 5.598732e+00
    endloop
  endfacet
  facet normal -7.730105e-01 -6.343933e-01 0.000000e+00
    outer loop
      vertex   -7.937371e+01 8.353689e+00 3.598732e+00
      vertex   -7.937371e+01 8.353689e+00 5.598732e+00
      vertex   -8.092825e+01 1.024790e+01 5.598732e+00
    endloop
  endfacet
  facet normal -8.819213e-01 -4.713967e-01 0.000000e+00
    outer loop
      vertex   -8.092825e+01 1.024790e+01 3.598732e+00
      vertex   -8.092825e+01 1.024790e+01 5.598732e+00
      vertex   -8.208337e+01 1.240898e+01 5.598732e+00
    endloop
  endfacet
  facet normal -9.569403e-01 -2.902847e-01 -2.578246e-16
    outer loop
      vertex   -8.208337e+01 1.240898e+01 3.598732e+00
      vertex   -8.208337e+01 1.240898e+01 5.598732e+00
      vertex   -8.279469e+01 1.475389e+01 5.598732e+00
    endloop
  endfacet
  facet normal -9.951847e-01 -9.801714e-02 0.000000e+00
    outer loop
      vertex   -8.279469e+01 1.475389e+01 3.598732e+00
      vertex   -8.279469e+01 1.475389e+01 5.598732e+00
      vertex   -8.303488e+01 1.719252e+01 5.598732e+00
    endloop
  endfacet
  facet normal -9.951847e-01 -9.801714e-02 0.000000e+00
    outer loop
      vertex   -8.303488e+01 1.719252e+01 3.598732e+00
      vertex   -8.279469e+01 1.475389e+01 3.598732e+00
      vertex   -8.303488e+01 1.719252e+01 5.598732e+00
    endloop
  endfacet
  facet normal -9.569403e-01 -2.902847e-01 0.000000e+00
    outer loop
      vertex   -8.279469e+01 1.475389e+01 3.598732e+00
      vertex   -8.208337e+01 1.240898e+01 3.598732e+00
      vertex   -8.279469e+01 1.475389e+01 5.598732e+00
    endloop
  endfacet
  facet normal -8.819213e-01 -4.713967e-01 -4.530730e-16
    outer loop
      vertex   -8.208337e+01 1.240898e+01 3.598732e+00
      vertex   -8.092825e+01 1.024790e+01 3.598732e+00
      vertex   -8.208337e+01 1.240898e+01 5.598732e+00
    endloop
  endfacet
  facet normal -7.730105e-01 -6.343933e-01 0.000000e+00
    outer loop
      vertex   -8.092825e+01 1.024790e+01 3.598732e+00
      vertex   -7.937371e+01 8.353689e+00 3.598732e+00
      vertex   -8.092825e+01 1.024790e+01 5.598732e+00
    endloop
  endfacet
  facet normal -6.343933e-01 -7.730105e-01 0.000000e+00
    outer loop
      vertex   -7.937371e+01 8.353689e+00 3.598732e+00
      vertex   -7.747951e+01 6.799154e+00 3.598732e+00
      vertex   -7.937371e+01 8.353689e+00 5.598732e+00
    endloop
  endfacet
  facet normal -4.713967e-01 -8.819213e-01 0.000000e+00
    outer loop
      vertex   -7.747951e+01 6.799154e+00 3.598732e+00
      vertex   -7.531842e+01 5.644030e+00 3.598732e+00
      vertex   -7.747951e+01 6.799154e+00 5.598732e+00
    endloop
  endfacet
  facet normal -2.902847e-01 -9.569403e-01 0.000000e+00
    outer loop
      vertex   -7.531842e+01 5.644030e+00 3.598732e+00
      vertex   -7.297351e+01 4.932708e+00 3.598732e+00
      vertex   -7.531842e+01 5.644030e+00 5.598732e+00
    endloop
  endfacet
  facet normal 0.000000e+00 0.000000e+00 -1.000000e+00
    outer loop
      vertex   -7.297351e+01 4.932708e+00 3.598732e+00
      vertex   -8.303488e+01 1.719252e+01 3.598732e+00
      vertex   -7.053488e+01 4.692524e+00 3.598732e+00
    endloop
  endfacet
  facet normal 0.000000e+00 0.000000e+00 -1.000000e+00
    outer loop
      vertex   -7.297351e+01 4.932708e+00 3.598732e+00
      vertex   -7.531842e+01 5.644030e+00 3.598732e+00
      vertex   -8.303488e+01 1.719252e+01 3.598732e+00
    endloop
  endfacet
  facet normal -0.000000e+00 -0.000000e+00 -1.000000e+00
    outer loop
      vertex   -8.303488e+01 1.719252e+01 3.598732e+00
      vertex   -7.531842e+01 5.644030e+00 3.598732e+00
      vertex   -7.747951e+01 6.799154e+00 3.598732e+00
    endloop
  endfacet
  facet normal 0.000000e+00 0.000000e+00 -1.000000e+00
    outer loop
      vertex   -7.937371e+01 8.353689e+00 3.598732e+00
      vertex   -8.303488e+01 1.719252e+01 3.598732e+00
      vertex   -7.747951e+01 6.799154e+00 3.598732e+00
    endloop
  endfacet
  facet normal 0.000000e+00 0.000000e+00 -1.000000e+00
    outer loop
      vertex   -7.937371e+01 8.353689e+00 3.598732e+00
      vertex   -8.092825e+01 1.024790e+01 3.598732e+00
      vertex   -8.303488e+01 1.719252e+01 3.598732e+00
    endloop
  endfacet
  facet normal -0.000000e+00 -0.000000e+00 -1.000000e+00
    outer loop
      vertex   -8.303488e+01 1.719252e+01 3.598732e+00
      vertex   -8.092825e+01 1.024790e+01 3.598732e+00
      vertex   -8.208337e+01 1.240898e+01 3.598732e+00
    endloop
  endfacet
  facet normal 0.000000e+00 0.000000e+00 -1.000000e+00
    outer loop
      vertex   -8.279469e+01 1.475389e+01 3.598732e+00
      vertex   -8.303488e+01 1.719252e+01 3.598732e+00
      vertex   -8.208337e+01 1.240898e+01 3.598732e+00
    endloop
  endfacet
  facet normal 0.000000e+00 -0.000000e+00 -1.000000e+00
    outer loop
      vertex   -8.303488e+01 3.469252e+01 3.598732e+00
      vertex   -6.553488e+01 3.469252e+01 3.598732e+00
      vertex   -8.303488e+01 1.719252e+01 3.598732e+00
    endloop
  endfacet
  facet normal 0.000000e+00 0.000000e+00 -1.000000e+00
    outer loop
      vertex   -8.303488e+01 1.719252e+01 3.598732e+00
      vertex   -6.553488e+01 3.469252e+01 3.598732e+00
      vertex   -5.303488e+01 2.219252e+01 3.598732e+00
    endloop
  endfacet
  facet normal 0.000000e+00 0.000000e+00 -1.000000e+00
    outer loop
      vertex   -7.053488e+01 4.692524e+00 3.598732e+00
      vertex   -5.303488e+01 2.219252e+01 3.598732e+00
      vertex   -5.303488e+01 4.692524e+00 3.598732e+00
    endloop
  endfacet
  facet normal 0.000000e+00 0.000000e+00 -1.000000e+00
    outer loop
      vertex   -7.053488e+01 4.692524e+00 3.598732e+00
      vertex   -8.303488e+01 1.719252e+01 3.598732e+00
      vertex   -5.303488e+01 2.219252e+01 3.598732e+00
    endloop
  endfacet
  facet normal -0.000000e+00 -0.000000e+00 -1.000000e+00
    outer loop
      vertex   -6.309625e+01 3.445234e+01 3.598732e+00
      vertex   -6.075133e+01 3.374102e+01 3.598732e+00
      vertex   -6.553488e+01 3.469252e+01 3.598732e+00
    endloop
  endfacet
  facet normal 0.000000e+00 0.000000e+00 -1.000000e+00
    outer loop
      vertex   -6.553488e+01 3.469252e+01 3.598732e+00
      vertex   -6.075133e+01 3.374102e+01 3.598732e+00
      vertex   -5.859025e+01 3.258589e+01 3.598732e+00
    endloop
  endfacet
  facet normal 0.000000e+00 0.000000e+00 -1.000000e+00
    outer loop
      vertex   -5.669604e+01 3.103136e+01 3.598732e+00
      vertex   -6.553488e+01 3.469252e+01 3.598732e+00
      vertex   -5.859025e+01 3.258589e+01 3.598732e+00
    endloop
  endfacet
  facet normal -0.000000e+00 -0.000000e+00 -1.000000e+00
    outer loop
      vertex   -5.669604e+01 3.103136e+01 3.598732e+00
      vertex   -5.514151e+01 2.913715e+01 3.598732e+00
      vertex   -6.553488e+01 3.469252e+01 3.598732e+00
    endloop
  endfacet
  facet normal 0.000000e+00 0.000000e+00 -1.000000e+00
    outer loop
      vertex   -6.553488e+01 3.469252e+01 3.598732e+00
      vertex   -5.514151e+01 2.913715e+01 3.598732e+00
      vertex   -5.398638e+01 2.697607e+01 3.598732e+00
    endloop
  endfacet
  facet normal 0.000000e+00 0.000000e+00 -1.000000e+00
    outer loop
      vertex   -5.327506e+01 2.463115e+01 3.598732e+00
      vertex   -6.553488e+01 3.469252e+01 3.598732e+00
      vertex   -5.398638e+01 2.697607e+01 3.598732e+00
    endloop
  endfacet
  facet normal -0.000000e+00 -0.000000e+00 -1.000000e+00
    outer loop
      vertex   -5.327506e+01 2.463115e+01 3.598732e+00
      vertex   -5.303488e+01 2.219252e+01 3.598732e+00
      vertex   -6.553488e+01 3.469252e+01 3.598732e+00
    endloop
  endfacet
endsolid
