solid ascii
  facet normal 0.000000e+00 0.000000e+00 -1.000000e+00
    outer loop
      vertex   -6.296248e+01 1.409430e+02 3.759873e+01
      vertex   -6.428540e+01 1.409430e+02 3.759873e+01
      vertex   -6.302633e+01 1.415913e+02 3.759873e+01
    endloop
  endfacet
  facet normal -0.000000e+00 0.000000e+00 -1.000000e+00
    outer loop
      vertex   -6.296248e+01 1.409430e+02 3.759873e+01
      vertex   -6.302633e+01 1.402948e+02 3.759873e+01
      vertex   -6.428540e+01 1.409430e+02 3.759873e+01
    endloop
  endfacet
  facet normal -0.000000e+00 -0.000000e+00 -1.000000e+00
    outer loop
      vertex   -6.428540e+01 1.409430e+02 3.759873e+01
      vertex   -6.302633e+01 1.402948e+02 3.759873e+01
      vertex   -6.432383e+01 1.405529e+02 3.759873e+01
    endloop
  endfacet
  facet normal 0.000000e+00 -0.000000e+00 -1.000000e+00
    outer loop
      vertex   -6.432383e+01 1.405529e+02 3.759873e+01
      vertex   -6.302633e+01 1.402948e+02 3.759873e+01
      vertex   -6.321542e+01 1.396714e+02 3.759873e+01
    endloop
  endfacet
  facet normal 0.000000e+00 -0.000000e+00 -1.000000e+00
    outer loop
      vertex   -6.443764e+01 1.401777e+02 3.759873e+01
      vertex   -6.321542e+01 1.396714e+02 3.759873e+01
      vertex   -6.352249e+01 1.390969e+02 3.759873e+01
    endloop
  endfacet
  facet normal 0.000000e+00 -0.000000e+00 -1.000000e+00
    outer loop
      vertex   -6.462246e+01 1.398319e+02 3.759873e+01
      vertex   -6.352249e+01 1.390969e+02 3.759873e+01
      vertex   -6.393574e+01 1.385934e+02 3.759873e+01
    endloop
  endfacet
  facet normal 0.000000e+00 -0.000000e+00 -1.000000e+00
    outer loop
      vertex   -6.487119e+01 1.395288e+02 3.759873e+01
      vertex   -6.393574e+01 1.385934e+02 3.759873e+01
      vertex   -6.443929e+01 1.381801e+02 3.759873e+01
    endloop
  endfacet
  facet normal 0.000000e+00 -0.000000e+00 -1.000000e+00
    outer loop
      vertex   -6.517426e+01 1.392801e+02 3.759873e+01
      vertex   -6.443929e+01 1.381801e+02 3.759873e+01
      vertex   -6.501377e+01 1.378731e+02 3.759873e+01
    endloop
  endfacet
  facet normal 0.000000e+00 -0.000000e+00 -1.000000e+00
    outer loop
      vertex   -6.552003e+01 1.390953e+02 3.759873e+01
      vertex   -6.501377e+01 1.378731e+02 3.759873e+01
      vertex   -6.563713e+01 1.376840e+02 3.759873e+01
    endloop
  endfacet
  facet normal 0.000000e+00 -0.000000e+00 -1.000000e+00
    outer loop
      vertex   -6.589522e+01 1.389815e+02 3.759873e+01
      vertex   -6.563713e+01 1.376840e+02 3.759873e+01
      vertex   -6.628540e+01 1.376201e+02 3.759873e+01
    endloop
  endfacet
  facet normal -0.000000e+00 -0.000000e+00 -1.000000e+00
    outer loop
      vertex   -6.628540e+01 1.389430e+02 3.759873e+01
      vertex   -6.628540e+01 1.376201e+02 3.759873e+01
      vertex   -6.667558e+01 1.389815e+02 3.759873e+01
    endloop
  endfacet
  facet normal 0.000000e+00 -0.000000e+00 -1.000000e+00
    outer loop
      vertex   -6.628540e+01 1.389430e+02 3.759873e+01
      vertex   -6.589522e+01 1.389815e+02 3.759873e+01
      vertex   -6.628540e+01 1.376201e+02 3.759873e+01
    endloop
  endfacet
  facet normal -0.000000e+00 0.000000e+00 -1.000000e+00
    outer loop
      vertex   -6.302633e+01 1.415913e+02 3.759873e+01
      vertex   -6.432383e+01 1.413332e+02 3.759873e+01
      vertex   -6.321542e+01 1.422147e+02 3.759873e+01
    endloop
  endfacet
  facet normal -0.000000e+00 0.000000e+00 -1.000000e+00
    outer loop
      vertex   -6.302633e+01 1.415913e+02 3.759873e+01
      vertex   -6.428540e+01 1.409430e+02 3.759873e+01
      vertex   -6.432383e+01 1.413332e+02 3.759873e+01
    endloop
  endfacet
  facet normal -0.000000e+00 0.000000e+00 -1.000000e+00
    outer loop
      vertex   -6.321542e+01 1.422147e+02 3.759873e+01
      vertex   -6.443764e+01 1.417084e+02 3.759873e+01
      vertex   -6.352249e+01 1.427892e+02 3.759873e+01
    endloop
  endfacet
  facet normal -0.000000e+00 0.000000e+00 -1.000000e+00
    outer loop
      vertex   -6.321542e+01 1.422147e+02 3.759873e+01
      vertex   -6.432383e+01 1.413332e+02 3.759873e+01
      vertex   -6.443764e+01 1.417084e+02 3.759873e+01
    endloop
  endfacet
  facet normal -0.000000e+00 0.000000e+00 -1.000000e+00
    outer loop
      vertex   -6.352249e+01 1.427892e+02 3.759873e+01
      vertex   -6.462246e+01 1.420542e+02 3.759873e+01
      vertex   -6.393574e+01 1.432927e+02 3.759873e+01
    endloop
  endfacet
  facet normal -0.000000e+00 0.000000e+00 -1.000000e+00
    outer loop
      vertex   -6.352249e+01 1.427892e+02 3.759873e+01
      vertex   -6.443764e+01 1.417084e+02 3.759873e+01
      vertex   -6.462246e+01 1.420542e+02 3.759873e+01
    endloop
  endfacet
  facet normal 0.000000e+00 0.000000e+00 -1.000000e+00
    outer loop
      vertex   -6.628540e+01 1.376201e+02 3.759873e+01
      vertex   -6.693367e+01 1.376840e+02 3.759873e+01
      vertex   -6.667558e+01 1.389815e+02 3.759873e+01
    endloop
  endfacet
  facet normal -0.000000e+00 0.000000e+00 -1.000000e+00
    outer loop
      vertex   -6.667558e+01 1.389815e+02 3.759873e+01
      vertex   -6.693367e+01 1.376840e+02 3.759873e+01
      vertex   -6.705077e+01 1.390953e+02 3.759873e+01
    endloop
  endfacet
  facet normal -0.000000e+00 -0.000000e+00 -1.000000e+00
    outer loop
      vertex   -6.705077e+01 1.390953e+02 3.759873e+01
      vertex   -6.693367e+01 1.376840e+02 3.759873e+01
      vertex   -6.755703e+01 1.378731e+02 3.759873e+01
    endloop
  endfacet
  facet normal -0.000000e+00 0.000000e+00 -1.000000e+00
    outer loop
      vertex   -6.739654e+01 1.392801e+02 3.759873e+01
      vertex   -6.755703e+01 1.378731e+02 3.759873e+01
      vertex   -6.813152e+01 1.381801e+02 3.759873e+01
    endloop
  endfacet
  facet normal -0.000000e+00 0.000000e+00 -1.000000e+00
    outer loop
      vertex   -6.769961e+01 1.395288e+02 3.759873e+01
      vertex   -6.813152e+01 1.381801e+02 3.759873e+01
      vertex   -6.863506e+01 1.385934e+02 3.759873e+01
    endloop
  endfacet
  facet normal -0.000000e+00 0.000000e+00 -1.000000e+00
    outer loop
      vertex   -6.794834e+01 1.398319e+02 3.759873e+01
      vertex   -6.863506e+01 1.385934e+02 3.759873e+01
      vertex   -6.904831e+01 1.390969e+02 3.759873e+01
    endloop
  endfacet
  facet normal -0.000000e+00 0.000000e+00 -1.000000e+00
    outer loop
      vertex   -6.813316e+01 1.401777e+02 3.759873e+01
      vertex   -6.904831e+01 1.390969e+02 3.759873e+01
      vertex   -6.935538e+01 1.396714e+02 3.759873e+01
    endloop
  endfacet
  facet normal -0.000000e+00 0.000000e+00 -1.000000e+00
    outer loop
      vertex   -6.824697e+01 1.405529e+02 3.759873e+01
      vertex   -6.935538e+01 1.396714e+02 3.759873e+01
      vertex   -6.954447e+01 1.402948e+02 3.759873e+01
    endloop
  endfacet
  facet normal -0.000000e+00 0.000000e+00 -1.000000e+00
    outer loop
      vertex   -6.828540e+01 1.409430e+02 3.759873e+01
      vertex   -6.954447e+01 1.402948e+02 3.759873e+01
      vertex   -6.960832e+01 1.409430e+02 3.759873e+01
    endloop
  endfacet
  facet normal -0.000000e+00 -0.000000e+00 -1.000000e+00
    outer loop
      vertex   -6.954447e+01 1.415913e+02 3.759873e+01
      vertex   -6.828540e+01 1.409430e+02 3.759873e+01
      vertex   -6.960832e+01 1.409430e+02 3.759873e+01
    endloop
  endfacet
  facet normal 0.000000e+00 -0.000000e+00 -1.000000e+00
    outer loop
      vertex   -6.954447e+01 1.415913e+02 3.759873e+01
      vertex   -6.824697e+01 1.413332e+02 3.759873e+01
      vertex   -6.828540e+01 1.409430e+02 3.759873e+01
    endloop
  endfacet
  facet normal 0.000000e+00 0.000000e+00 -1.000000e+00
    outer loop
      vertex   -6.954447e+01 1.415913e+02 3.759873e+01
      vertex   -6.935538e+01 1.422147e+02 3.759873e+01
      vertex   -6.824697e+01 1.413332e+02 3.759873e+01
    endloop
  endfacet
  facet normal 0.000000e+00 0.000000e+00 -1.000000e+00
    outer loop
      vertex   -6.824697e+01 1.413332e+02 3.759873e+01
      vertex   -6.935538e+01 1.422147e+02 3.759873e+01
      vertex   -6.813316e+01 1.417084e+02 3.759873e+01
    endloop
  endfacet
  facet normal 0.000000e+00 0.000000e+00 -1.000000e+00
    outer loop
      vertex   -6.813316e+01 1.417084e+02 3.759873e+01
      vertex   -6.935538e+01 1.422147e+02 3.759873e+01
      vertex   -6.904831e+01 1.427892e+02 3.759873e+01
    endloop
  endfacet
  facet normal 0.000000e+00 0.000000e+00 -1.000000e+00
    outer loop
      vertex   -6.794834e+01 1.420542e+02 3.759873e+01
      vertex   -6.904831e+01 1.427892e+02 3.759873e+01
      vertex   -6.863506e+01 1.432927e+02 3.759873e+01
    endloop
  endfacet
  facet normal 0.000000e+00 0.000000e+00 -1.000000e+00
    outer loop
      vertex   -6.769961e+01 1.423573e+02 3.759873e+01
      vertex   -6.863506e+01 1.432927e+02 3.759873e+01
      vertex   -6.813152e+01 1.437060e+02 3.759873e+01
    endloop
  endfacet
  facet normal 0.000000e+00 0.000000e+00 -1.000000e+00
    outer loop
      vertex   -6.739654e+01 1.426060e+02 3.759873e+01
      vertex   -6.813152e+01 1.437060e+02 3.759873e+01
      vertex   -6.755703e+01 1.440130e+02 3.759873e+01
    endloop
  endfacet
  facet normal 0.000000e+00 0.000000e+00 -1.000000e+00
    outer loop
      vertex   -6.705077e+01 1.427908e+02 3.759873e+01
      vertex   -6.755703e+01 1.440130e+02 3.759873e+01
      vertex   -6.693367e+01 1.442021e+02 3.759873e+01
    endloop
  endfacet
  facet normal 0.000000e+00 0.000000e+00 -1.000000e+00
    outer loop
      vertex   -6.667558e+01 1.429046e+02 3.759873e+01
      vertex   -6.693367e+01 1.442021e+02 3.759873e+01
      vertex   -6.628540e+01 1.429430e+02 3.759873e+01
    endloop
  endfacet
  facet normal -0.000000e+00 0.000000e+00 -1.000000e+00
    outer loop
      vertex   -6.667558e+01 1.429046e+02 3.759873e+01
      vertex   -6.705077e+01 1.427908e+02 3.759873e+01
      vertex   -6.693367e+01 1.442021e+02 3.759873e+01
    endloop
  endfacet
  facet normal 0.000000e+00 0.000000e+00 -1.000000e+00
    outer loop
      vertex   -6.693367e+01 1.442021e+02 3.759873e+01
      vertex   -6.628540e+01 1.442660e+02 3.759873e+01
      vertex   -6.628540e+01 1.429430e+02 3.759873e+01
    endloop
  endfacet
  facet normal 0.000000e+00 0.000000e+00 -1.000000e+00
    outer loop
      vertex   -6.628540e+01 1.429430e+02 3.759873e+01
      vertex   -6.628540e+01 1.442660e+02 3.759873e+01
      vertex   -6.589522e+01 1.429046e+02 3.759873e+01
    endloop
  endfacet
  facet normal 0.000000e+00 0.000000e+00 -1.000000e+00
    outer loop
      vertex   -6.589522e+01 1.429046e+02 3.759873e+01
      vertex   -6.628540e+01 1.442660e+02 3.759873e+01
      vertex   -6.563713e+01 1.442021e+02 3.759873e+01
    endloop
  endfacet
  facet normal 0.000000e+00 0.000000e+00 -1.000000e+00
    outer loop
      vertex   -6.552003e+01 1.427908e+02 3.759873e+01
      vertex   -6.563713e+01 1.442021e+02 3.759873e+01
      vertex   -6.501377e+01 1.440130e+02 3.759873e+01
    endloop
  endfacet
  facet normal 0.000000e+00 0.000000e+00 -1.000000e+00
    outer loop
      vertex   -6.517426e+01 1.426060e+02 3.759873e+01
      vertex   -6.501377e+01 1.440130e+02 3.759873e+01
      vertex   -6.443929e+01 1.437060e+02 3.759873e+01
    endloop
  endfacet
  facet normal 0.000000e+00 0.000000e+00 -1.000000e+00
    outer loop
      vertex   -6.487119e+01 1.423573e+02 3.759873e+01
      vertex   -6.443929e+01 1.437060e+02 3.759873e+01
      vertex   -6.393574e+01 1.432927e+02 3.759873e+01
    endloop
  endfacet
  facet normal 0.000000e+00 0.000000e+00 -1.000000e+00
    outer loop
      vertex   -6.462246e+01 1.420542e+02 3.759873e+01
      vertex   -6.487119e+01 1.423573e+02 3.759873e+01
      vertex   -6.393574e+01 1.432927e+02 3.759873e+01
    endloop
  endfacet
  facet normal 0.000000e+00 -0.000000e+00 -1.000000e+00
    outer loop
      vertex   -6.589522e+01 1.389815e+02 3.759873e+01
      vertex   -6.552003e+01 1.390953e+02 3.759873e+01
      vertex   -6.563713e+01 1.376840e+02 3.759873e+01
    endloop
  endfacet
  facet normal 0.000000e+00 0.000000e+00 -1.000000e+00
    outer loop
      vertex   -6.552003e+01 1.390953e+02 3.759873e+01
      vertex   -6.517426e+01 1.392801e+02 3.759873e+01
      vertex   -6.501377e+01 1.378731e+02 3.759873e+01
    endloop
  endfacet
  facet normal 0.000000e+00 0.000000e+00 -1.000000e+00
    outer loop
      vertex   -6.517426e+01 1.392801e+02 3.759873e+01
      vertex   -6.487119e+01 1.395288e+02 3.759873e+01
      vertex   -6.443929e+01 1.381801e+02 3.759873e+01
    endloop
  endfacet
  facet normal 0.000000e+00 0.000000e+00 -1.000000e+00
    outer loop
      vertex   -6.487119e+01 1.395288e+02 3.759873e+01
      vertex   -6.462246e+01 1.398319e+02 3.759873e+01
      vertex   -6.393574e+01 1.385934e+02 3.759873e+01
    endloop
  endfacet
  facet normal 0.000000e+00 0.000000e+00 -1.000000e+00
    outer loop
      vertex   -6.462246e+01 1.398319e+02 3.759873e+01
      vertex   -6.443764e+01 1.401777e+02 3.759873e+01
      vertex   -6.352249e+01 1.390969e+02 3.759873e+01
    endloop
  endfacet
  facet normal 0.000000e+00 0.000000e+00 -1.000000e+00
    outer loop
      vertex   -6.443764e+01 1.401777e+02 3.759873e+01
      vertex   -6.432383e+01 1.405529e+02 3.759873e+01
      vertex   -6.321542e+01 1.396714e+02 3.759873e+01
    endloop
  endfacet
  facet normal 0.000000e+00 0.000000e+00 -1.000000e+00
    outer loop
      vertex   -6.487119e+01 1.423573e+02 3.759873e+01
      vertex   -6.517426e+01 1.426060e+02 3.759873e+01
      vertex   -6.443929e+01 1.437060e+02 3.759873e+01
    endloop
  endfacet
  facet normal 0.000000e+00 0.000000e+00 -1.000000e+00
    outer loop
      vertex   -6.517426e+01 1.426060e+02 3.759873e+01
      vertex   -6.552003e+01 1.427908e+02 3.759873e+01
      vertex   -6.501377e+01 1.440130e+02 3.759873e+01
    endloop
  endfacet
  facet normal 0.000000e+00 0.000000e+00 -1.000000e+00
    outer loop
      vertex   -6.552003e+01 1.427908e+02 3.759873e+01
      vertex   -6.589522e+01 1.429046e+02 3.759873e+01
      vertex   -6.563713e+01 1.442021e+02 3.759873e+01
    endloop
  endfacet
  facet normal -0.000000e+00 0.000000e+00 -1.000000e+00
    outer loop
      vertex   -6.705077e+01 1.427908e+02 3.759873e+01
      vertex   -6.739654e+01 1.426060e+02 3.759873e+01
      vertex   -6.755703e+01 1.440130e+02 3.759873e+01
    endloop
  endfacet
  facet normal -0.000000e+00 0.000000e+00 -1.000000e+00
    outer loop
      vertex   -6.739654e+01 1.426060e+02 3.759873e+01
      vertex   -6.769961e+01 1.423573e+02 3.759873e+01
      vertex   -6.813152e+01 1.437060e+02 3.759873e+01
    endloop
  endfacet
  facet normal -0.000000e+00 0.000000e+00 -1.000000e+00
    outer loop
      vertex   -6.769961e+01 1.423573e+02 3.759873e+01
      vertex   -6.794834e+01 1.420542e+02 3.759873e+01
      vertex   -6.863506e+01 1.432927e+02 3.759873e+01
    endloop
  endfacet
  facet normal -0.000000e+00 0.000000e+00 -1.000000e+00
    outer loop
      vertex   -6.794834e+01 1.420542e+02 3.759873e+01
      vertex   -6.813316e+01 1.417084e+02 3.759873e+01
      vertex   -6.904831e+01 1.427892e+02 3.759873e+01
    endloop
  endfacet
  facet normal 0.000000e+00 -0.000000e+00 -1.000000e+00
    outer loop
      vertex   -6.828540e+01 1.409430e+02 3.759873e+01
      vertex   -6.824697e+01 1.405529e+02 3.759873e+01
      vertex   -6.954447e+01 1.402948e+02 3.759873e+01
    endloop
  endfacet
  facet normal 0.000000e+00 -0.000000e+00 -1.000000e+00
    outer loop
      vertex   -6.824697e+01 1.405529e+02 3.759873e+01
      vertex   -6.813316e+01 1.401777e+02 3.759873e+01
      vertex   -6.935538e+01 1.396714e+02 3.759873e+01
    endloop
  endfacet
  facet normal 0.000000e+00 -0.000000e+00 -1.000000e+00
    outer loop
      vertex   -6.813316e+01 1.401777e+02 3.759873e+01
      vertex   -6.794834e+01 1.398319e+02 3.759873e+01
      vertex   -6.904831e+01 1.390969e+02 3.759873e+01
    endloop
  endfacet
  facet normal 0.000000e+00 -0.000000e+00 -1.000000e+00
    outer loop
      vertex   -6.794834e+01 1.398319e+02 3.759873e+01
      vertex   -6.769961e+01 1.395288e+02 3.759873e+01
      vertex   -6.863506e+01 1.385934e+02 3.759873e+01
    endloop
  endfacet
  facet normal 0.000000e+00 -0.000000e+00 -1.000000e+00
    outer loop
      vertex   -6.769961e+01 1.395288e+02 3.759873e+01
      vertex   -6.739654e+01 1.392801e+02 3.759873e+01
      vertex   -6.813152e+01 1.381801e+02 3.759873e+01
    endloop
  endfacet
  facet normal 0.000000e+00 -0.000000e+00 -1.000000e+00
    outer loop
      vertex   -6.739654e+01 1.392801e+02 3.759873e+01
      vertex   -6.705077e+01 1.390953e+02 3.759873e+01
      vertex   -6.755703e+01 1.378731e+02 3.759873e+01
    endloop
  endfacet
  facet normal 9.792124e-02 9.942111e-01 4.422459e-02
    outer loop
      vertex   -6.628540e+01 1.442660e+02 3.759873e+01
      vertex   -6.628540e+01 1.434430e+02 5.609873e+01
      vertex   -6.563713e+01 1.442021e+02 3.759873e+01
    endloop
  endfacet
  facet normal 9.792124e-02 9.942111e-01 4.422459e-02
    outer loop
      vertex   -6.563713e+01 1.442021e+02 3.759873e+01
      vertex   -6.628540e+01 1.434430e+02 5.609873e+01
      vertex   -6.579767e+01 1.433950e+02 5.609873e+01
    endloop
  endfacet
  facet normal 2.900007e-01 9.560041e-01 4.422459e-02
    outer loop
      vertex   -6.532869e+01 1.432527e+02 5.609873e+01
      vertex   -6.563713e+01 1.442021e+02 3.759873e+01
      vertex   -6.579767e+01 1.433950e+02 5.609873e+01
    endloop
  endfacet
  facet normal 2.900007e-01 9.560041e-01 4.422459e-02
    outer loop
      vertex   -6.532869e+01 1.432527e+02 5.609873e+01
      vertex   -6.501377e+01 1.440130e+02 3.759873e+01
      vertex   -6.563713e+01 1.442021e+02 3.759873e+01
    endloop
  endfacet
  facet normal 4.709355e-01 8.810584e-01 4.422459e-02
    outer loop
      vertex   -6.532869e+01 1.432527e+02 5.609873e+01
      vertex   -6.489648e+01 1.430217e+02 5.609873e+01
      vertex   -6.501377e+01 1.440130e+02 3.759873e+01
    endloop
  endfacet
  facet normal 4.709355e-01 8.810584e-01 4.422459e-02
    outer loop
      vertex   -6.501377e+01 1.440130e+02 3.759873e+01
      vertex   -6.489648e+01 1.430217e+02 5.609873e+01
      vertex   -6.443929e+01 1.437060e+02 3.759873e+01
    endloop
  endfacet
  facet normal 6.337726e-01 7.722542e-01 4.422459e-02
    outer loop
      vertex   -6.443929e+01 1.437060e+02 3.759873e+01
      vertex   -6.489648e+01 1.430217e+02 5.609873e+01
      vertex   -6.451763e+01 1.427108e+02 5.609873e+01
    endloop
  endfacet
  facet normal 7.722542e-01 6.337726e-01 4.422459e-02
    outer loop
      vertex   -6.393574e+01 1.432927e+02 3.759873e+01
      vertex   -6.451763e+01 1.427108e+02 5.609873e+01
      vertex   -6.420673e+01 1.423320e+02 5.609873e+01
    endloop
  endfacet
  facet normal 8.810584e-01 4.709355e-01 4.422459e-02
    outer loop
      vertex   -6.352249e+01 1.427892e+02 3.759873e+01
      vertex   -6.420673e+01 1.423320e+02 5.609873e+01
      vertex   -6.321542e+01 1.422147e+02 3.759873e+01
    endloop
  endfacet
  facet normal 7.722542e-01 6.337726e-01 4.422459e-02
    outer loop
      vertex   -6.352249e+01 1.427892e+02 3.759873e+01
      vertex   -6.393574e+01 1.432927e+02 3.759873e+01
      vertex   -6.420673e+01 1.423320e+02 5.609873e+01
    endloop
  endfacet
  facet normal 8.810584e-01 4.709355e-01 4.422459e-02
    outer loop
      vertex   -6.420673e+01 1.423320e+02 5.609873e+01
      vertex   -6.397570e+01 1.418998e+02 5.609873e+01
      vertex   -6.321542e+01 1.422147e+02 3.759873e+01
    endloop
  endfacet
  facet normal 9.560041e-01 2.900007e-01 4.422459e-02
    outer loop
      vertex   -6.321542e+01 1.422147e+02 3.759873e+01
      vertex   -6.397570e+01 1.418998e+02 5.609873e+01
      vertex   -6.383344e+01 1.414308e+02 5.609873e+01
    endloop
  endfacet
  facet normal 9.942111e-01 9.792124e-02 4.422459e-02
    outer loop
      vertex   -6.302633e+01 1.415913e+02 3.759873e+01
      vertex   -6.383344e+01 1.414308e+02 5.609873e+01
      vertex   -6.378540e+01 1.409430e+02 5.609873e+01
    endloop
  endfacet
  facet normal 9.942111e-01 -9.792124e-02 4.422459e-02
    outer loop
      vertex   -6.296248e+01 1.409430e+02 3.759873e+01
      vertex   -6.378540e+01 1.409430e+02 5.609873e+01
      vertex   -6.383344e+01 1.404553e+02 5.609873e+01
    endloop
  endfacet
  facet normal 9.560041e-01 -2.900007e-01 4.422459e-02
    outer loop
      vertex   -6.302633e+01 1.402948e+02 3.759873e+01
      vertex   -6.383344e+01 1.404553e+02 5.609873e+01
      vertex   -6.397570e+01 1.399863e+02 5.609873e+01
    endloop
  endfacet
  facet normal 8.810584e-01 -4.709355e-01 4.422459e-02
    outer loop
      vertex   -6.321542e+01 1.396714e+02 3.759873e+01
      vertex   -6.397570e+01 1.399863e+02 5.609873e+01
      vertex   -6.352249e+01 1.390969e+02 3.759873e+01
    endloop
  endfacet
  facet normal 9.560041e-01 -2.900007e-01 4.422459e-02
    outer loop
      vertex   -6.321542e+01 1.396714e+02 3.759873e+01
      vertex   -6.302633e+01 1.402948e+02 3.759873e+01
      vertex   -6.397570e+01 1.399863e+02 5.609873e+01
    endloop
  endfacet
  facet normal 8.810584e-01 -4.709355e-01 4.422459e-02
    outer loop
      vertex   -6.397570e+01 1.399863e+02 5.609873e+01
      vertex   -6.420673e+01 1.395541e+02 5.609873e+01
      vertex   -6.352249e+01 1.390969e+02 3.759873e+01
    endloop
  endfacet
  facet normal 7.722542e-01 -6.337726e-01 4.422459e-02
    outer loop
      vertex   -6.352249e+01 1.390969e+02 3.759873e+01
      vertex   -6.420673e+01 1.395541e+02 5.609873e+01
      vertex   -6.451763e+01 1.391753e+02 5.609873e+01
    endloop
  endfacet
  facet normal 6.337726e-01 -7.722542e-01 4.422459e-02
    outer loop
      vertex   -6.393574e+01 1.385934e+02 3.759873e+01
      vertex   -6.451763e+01 1.391753e+02 5.609873e+01
      vertex   -6.489648e+01 1.388644e+02 5.609873e+01
    endloop
  endfacet
  facet normal 4.709355e-01 -8.810584e-01 4.422459e-02
    outer loop
      vertex   -6.443929e+01 1.381801e+02 3.759873e+01
      vertex   -6.489648e+01 1.388644e+02 5.609873e+01
      vertex   -6.532869e+01 1.386333e+02 5.609873e+01
    endloop
  endfacet
  facet normal 2.900007e-01 -9.560041e-01 4.422459e-02
    outer loop
      vertex   -6.501377e+01 1.378731e+02 3.759873e+01
      vertex   -6.532869e+01 1.386333e+02 5.609873e+01
      vertex   -6.579767e+01 1.384911e+02 5.609873e+01
    endloop
  endfacet
  facet normal 9.792124e-02 -9.942111e-01 4.422459e-02
    outer loop
      vertex   -6.563713e+01 1.376840e+02 3.759873e+01
      vertex   -6.579767e+01 1.384911e+02 5.609873e+01
      vertex   -6.628540e+01 1.376201e+02 3.759873e+01
    endloop
  endfacet
  facet normal 2.900007e-01 -9.560041e-01 4.422459e-02
    outer loop
      vertex   -6.563713e+01 1.376840e+02 3.759873e+01
      vertex   -6.501377e+01 1.378731e+02 3.759873e+01
      vertex   -6.579767e+01 1.384911e+02 5.609873e+01
    endloop
  endfacet
  facet normal 9.792124e-02 -9.942111e-01 4.422459e-02
    outer loop
      vertex   -6.579767e+01 1.384911e+02 5.609873e+01
      vertex   -6.628540e+01 1.384430e+02 5.609873e+01
      vertex   -6.628540e+01 1.376201e+02 3.759873e+01
    endloop
  endfacet
  facet normal 4.709355e-01 -8.810584e-01 4.422459e-02
    outer loop
      vertex   -6.501377e+01 1.378731e+02 3.759873e+01
      vertex   -6.443929e+01 1.381801e+02 3.759873e+01
      vertex   -6.532869e+01 1.386333e+02 5.609873e+01
    endloop
  endfacet
  facet normal 6.337726e-01 -7.722542e-01 4.422459e-02
    outer loop
      vertex   -6.443929e+01 1.381801e+02 3.759873e+01
      vertex   -6.393574e+01 1.385934e+02 3.759873e+01
      vertex   -6.489648e+01 1.388644e+02 5.609873e+01
    endloop
  endfacet
  facet normal 7.722542e-01 -6.337726e-01 4.422459e-02
    outer loop
      vertex   -6.393574e+01 1.385934e+02 3.759873e+01
      vertex   -6.352249e+01 1.390969e+02 3.759873e+01
      vertex   -6.451763e+01 1.391753e+02 5.609873e+01
    endloop
  endfacet
  facet normal 9.942111e-01 -9.792124e-02 4.422459e-02
    outer loop
      vertex   -6.302633e+01 1.402948e+02 3.759873e+01
      vertex   -6.296248e+01 1.409430e+02 3.759873e+01
      vertex   -6.383344e+01 1.404553e+02 5.609873e+01
    endloop
  endfacet
  facet normal 9.942111e-01 9.792124e-02 4.422459e-02
    outer loop
      vertex   -6.296248e+01 1.409430e+02 3.759873e+01
      vertex   -6.302633e+01 1.415913e+02 3.759873e+01
      vertex   -6.378540e+01 1.409430e+02 5.609873e+01
    endloop
  endfacet
  facet normal 9.560041e-01 2.900007e-01 4.422459e-02
    outer loop
      vertex   -6.302633e+01 1.415913e+02 3.759873e+01
      vertex   -6.321542e+01 1.422147e+02 3.759873e+01
      vertex   -6.383344e+01 1.414308e+02 5.609873e+01
    endloop
  endfacet
  facet normal 6.337726e-01 7.722542e-01 4.422459e-02
    outer loop
      vertex   -6.393574e+01 1.432927e+02 3.759873e+01
      vertex   -6.443929e+01 1.437060e+02 3.759873e+01
      vertex   -6.451763e+01 1.427108e+02 5.609873e+01
    endloop
  endfacet
  facet normal 9.800236e-02 9.950346e-01 -1.736839e-02
    outer loop
      vertex   -6.628540e+01 1.426236e+02 1.929873e+01
      vertex   -6.628540e+01 1.429430e+02 3.759873e+01
      vertex   -6.595754e+01 1.425913e+02 1.929873e+01
    endloop
  endfacet
  facet normal 9.800236e-02 9.950346e-01 -1.736839e-02
    outer loop
      vertex   -6.595754e+01 1.425913e+02 1.929873e+01
      vertex   -6.628540e+01 1.429430e+02 3.759873e+01
      vertex   -6.589522e+01 1.429046e+02 3.759873e+01
    endloop
  endfacet
  facet normal 2.902409e-01 9.567960e-01 -1.736839e-02
    outer loop
      vertex   -6.552003e+01 1.427908e+02 3.759873e+01
      vertex   -6.595754e+01 1.425913e+02 1.929873e+01
      vertex   -6.589522e+01 1.429046e+02 3.759873e+01
    endloop
  endfacet
  facet normal 2.902409e-01 9.567960e-01 -1.736839e-02
    outer loop
      vertex   -6.552003e+01 1.427908e+02 3.759873e+01
      vertex   -6.564227e+01 1.424957e+02 1.929873e+01
      vertex   -6.595754e+01 1.425913e+02 1.929873e+01
    endloop
  endfacet
  facet normal 4.713256e-01 8.817882e-01 -1.736839e-02
    outer loop
      vertex   -6.552003e+01 1.427908e+02 3.759873e+01
      vertex   -6.517426e+01 1.426060e+02 3.759873e+01
      vertex   -6.564227e+01 1.424957e+02 1.929873e+01
    endloop
  endfacet
  facet normal 4.713256e-01 8.817882e-01 -1.736839e-02
    outer loop
      vertex   -6.564227e+01 1.424957e+02 1.929873e+01
      vertex   -6.517426e+01 1.426060e+02 3.759873e+01
      vertex   -6.535172e+01 1.423404e+02 1.929873e+01
    endloop
  endfacet
  facet normal 6.342976e-01 7.728939e-01 -1.736839e-02
    outer loop
      vertex   -6.535172e+01 1.423404e+02 1.929873e+01
      vertex   -6.517426e+01 1.426060e+02 3.759873e+01
      vertex   -6.487119e+01 1.423573e+02 3.759873e+01
    endloop
  endfacet
  facet normal 7.728939e-01 6.342976e-01 -1.736839e-02
    outer loop
      vertex   -6.509706e+01 1.421314e+02 1.929873e+01
      vertex   -6.487119e+01 1.423573e+02 3.759873e+01
      vertex   -6.462246e+01 1.420542e+02 3.759873e+01
    endloop
  endfacet
  facet normal 8.817882e-01 4.713256e-01 -1.736839e-02
    outer loop
      vertex   -6.488806e+01 1.418767e+02 1.929873e+01
      vertex   -6.462246e+01 1.420542e+02 3.759873e+01
      vertex   -6.473275e+01 1.415862e+02 1.929873e+01
    endloop
  endfacet
  facet normal 7.728939e-01 6.342976e-01 -1.736839e-02
    outer loop
      vertex   -6.488806e+01 1.418767e+02 1.929873e+01
      vertex   -6.509706e+01 1.421314e+02 1.929873e+01
      vertex   -6.462246e+01 1.420542e+02 3.759873e+01
    endloop
  endfacet
  facet normal 8.817882e-01 4.713256e-01 -1.736839e-02
    outer loop
      vertex   -6.462246e+01 1.420542e+02 3.759873e+01
      vertex   -6.443764e+01 1.417084e+02 3.759873e+01
      vertex   -6.473275e+01 1.415862e+02 1.929873e+01
    endloop
  endfacet
  facet normal 9.567960e-01 2.902409e-01 -1.736839e-02
    outer loop
      vertex   -6.473275e+01 1.415862e+02 1.929873e+01
      vertex   -6.443764e+01 1.417084e+02 3.759873e+01
      vertex   -6.432383e+01 1.413332e+02 3.759873e+01
    endloop
  endfacet
  facet normal 9.950346e-01 9.800236e-02 -1.736839e-02
    outer loop
      vertex   -6.463712e+01 1.412709e+02 1.929873e+01
      vertex   -6.432383e+01 1.413332e+02 3.759873e+01
      vertex   -6.428540e+01 1.409430e+02 3.759873e+01
    endloop
  endfacet
  facet normal 9.950346e-01 -9.800236e-02 -1.736839e-02
    outer loop
      vertex   -6.460483e+01 1.409430e+02 1.929873e+01
      vertex   -6.428540e+01 1.409430e+02 3.759873e+01
      vertex   -6.432383e+01 1.405529e+02 3.759873e+01
    endloop
  endfacet
  facet normal 9.567960e-01 -2.902409e-01 -1.736839e-02
    outer loop
      vertex   -6.463712e+01 1.406152e+02 1.929873e+01
      vertex   -6.432383e+01 1.405529e+02 3.759873e+01
      vertex   -6.443764e+01 1.401777e+02 3.759873e+01
    endloop
  endfacet
  facet normal 8.817882e-01 -4.713256e-01 -1.736839e-02
    outer loop
      vertex   -6.473275e+01 1.402999e+02 1.929873e+01
      vertex   -6.443764e+01 1.401777e+02 3.759873e+01
      vertex   -6.488806e+01 1.400094e+02 1.929873e+01
    endloop
  endfacet
  facet normal 9.567960e-01 -2.902409e-01 -1.736839e-02
    outer loop
      vertex   -6.473275e+01 1.402999e+02 1.929873e+01
      vertex   -6.463712e+01 1.406152e+02 1.929873e+01
      vertex   -6.443764e+01 1.401777e+02 3.759873e+01
    endloop
  endfacet
  facet normal 8.817882e-01 -4.713256e-01 -1.736839e-02
    outer loop
      vertex   -6.443764e+01 1.401777e+02 3.759873e+01
      vertex   -6.462246e+01 1.398319e+02 3.759873e+01
      vertex   -6.488806e+01 1.400094e+02 1.929873e+01
    endloop
  endfacet
  facet normal 7.728939e-01 -6.342976e-01 -1.736839e-02
    outer loop
      vertex   -6.488806e+01 1.400094e+02 1.929873e+01
      vertex   -6.462246e+01 1.398319e+02 3.759873e+01
      vertex   -6.487119e+01 1.395288e+02 3.759873e+01
    endloop
  endfacet
  facet normal 6.342976e-01 -7.728939e-01 -1.736839e-02
    outer loop
      vertex   -6.509706e+01 1.397547e+02 1.929873e+01
      vertex   -6.487119e+01 1.395288e+02 3.759873e+01
      vertex   -6.517426e+01 1.392801e+02 3.759873e+01
    endloop
  endfacet
  facet normal 4.713256e-01 -8.817882e-01 -1.736839e-02
    outer loop
      vertex   -6.535172e+01 1.395457e+02 1.929873e+01
      vertex   -6.517426e+01 1.392801e+02 3.759873e+01
      vertex   -6.552003e+01 1.390953e+02 3.759873e+01
    endloop
  endfacet
  facet normal 2.902409e-01 -9.567960e-01 -1.736839e-02
    outer loop
      vertex   -6.564227e+01 1.393904e+02 1.929873e+01
      vertex   -6.552003e+01 1.390953e+02 3.759873e+01
      vertex   -6.589522e+01 1.389815e+02 3.759873e+01
    endloop
  endfacet
  facet normal 9.800236e-02 -9.950346e-01 -1.736839e-02
    outer loop
      vertex   -6.595754e+01 1.392948e+02 1.929873e+01
      vertex   -6.589522e+01 1.389815e+02 3.759873e+01
      vertex   -6.628540e+01 1.392625e+02 1.929873e+01
    endloop
  endfacet
  facet normal 2.902409e-01 -9.567960e-01 -1.736839e-02
    outer loop
      vertex   -6.595754e+01 1.392948e+02 1.929873e+01
      vertex   -6.564227e+01 1.393904e+02 1.929873e+01
      vertex   -6.589522e+01 1.389815e+02 3.759873e+01
    endloop
  endfacet
  facet normal 9.800236e-02 -9.950346e-01 -1.736839e-02
    outer loop
      vertex   -6.589522e+01 1.389815e+02 3.759873e+01
      vertex   -6.628540e+01 1.389430e+02 3.759873e+01
      vertex   -6.628540e+01 1.392625e+02 1.929873e+01
    endloop
  endfacet
  facet normal 4.713256e-01 -8.817882e-01 -1.736839e-02
    outer loop
      vertex   -6.564227e+01 1.393904e+02 1.929873e+01
      vertex   -6.535172e+01 1.395457e+02 1.929873e+01
      vertex   -6.552003e+01 1.390953e+02 3.759873e+01
    endloop
  endfacet
  facet normal 6.342976e-01 -7.728939e-01 -1.736839e-02
    outer loop
      vertex   -6.535172e+01 1.395457e+02 1.929873e+01
      vertex   -6.509706e+01 1.397547e+02 1.929873e+01
      vertex   -6.517426e+01 1.392801e+02 3.759873e+01
    endloop
  endfacet
  facet normal 7.728939e-01 -6.342976e-01 -1.736839e-02
    outer loop
      vertex   -6.509706e+01 1.397547e+02 1.929873e+01
      vertex   -6.488806e+01 1.400094e+02 1.929873e+01
      vertex   -6.487119e+01 1.395288e+02 3.759873e+01
    endloop
  endfacet
  facet normal 9.950346e-01 -9.800236e-02 -1.736839e-02
    outer loop
      vertex   -6.463712e+01 1.406152e+02 1.929873e+01
      vertex   -6.460483e+01 1.409430e+02 1.929873e+01
      vertex   -6.432383e+01 1.405529e+02 3.759873e+01
    endloop
  endfacet
  facet normal 9.950346e-01 9.800236e-02 -1.736839e-02
    outer loop
      vertex   -6.460483e+01 1.409430e+02 1.929873e+01
      vertex   -6.463712e+01 1.412709e+02 1.929873e+01
      vertex   -6.428540e+01 1.409430e+02 3.759873e+01
    endloop
  endfacet
  facet normal 9.567960e-01 2.902409e-01 -1.736839e-02
    outer loop
      vertex   -6.463712e+01 1.412709e+02 1.929873e+01
      vertex   -6.473275e+01 1.415862e+02 1.929873e+01
      vertex   -6.432383e+01 1.413332e+02 3.759873e+01
    endloop
  endfacet
  facet normal 6.342976e-01 7.728939e-01 -1.736839e-02
    outer loop
      vertex   -6.509706e+01 1.421314e+02 1.929873e+01
      vertex   -6.535172e+01 1.423404e+02 1.929873e+01
      vertex   -6.487119e+01 1.423573e+02 3.759873e+01
    endloop
  endfacet
  facet normal -3.013672e-14 -1.015061e-14 1.000000e+00
    outer loop
      vertex   -6.677313e+01 1.384911e+02 5.609873e+01
      vertex   -6.628540e+01 1.384430e+02 5.609873e+01
      vertex   -6.628540e+01 1.391430e+02 5.609873e+01
    endloop
  endfacet
  facet normal -2.999244e-15 -3.045183e-14 1.000000e+00
    outer loop
      vertex   -6.663656e+01 1.391776e+02 5.609873e+01
      vertex   -6.677313e+01 1.384911e+02 5.609873e+01
      vertex   -6.628540e+01 1.391430e+02 5.609873e+01
    endloop
  endfacet
  facet normal -8.882472e-15 -2.928158e-14 1.000000e+00
    outer loop
      vertex   -6.663656e+01 1.391776e+02 5.609873e+01
      vertex   -6.724211e+01 1.386333e+02 5.609873e+01
      vertex   -6.677313e+01 1.384911e+02 5.609873e+01
    endloop
  endfacet
  facet normal -8.882472e-15 -2.928158e-14 1.000000e+00
    outer loop
      vertex   -6.663656e+01 1.391776e+02 5.609873e+01
      vertex   -6.697423e+01 1.392801e+02 5.609873e+01
      vertex   -6.724211e+01 1.386333e+02 5.609873e+01
    endloop
  endfacet
  facet normal -1.442435e-14 -2.698606e-14 1.000000e+00
    outer loop
      vertex   -6.724211e+01 1.386333e+02 5.609873e+01
      vertex   -6.697423e+01 1.392801e+02 5.609873e+01
      vertex   -6.767433e+01 1.388644e+02 5.609873e+01
    endloop
  endfacet
  facet normal -1.442435e-14 -2.698606e-14 1.000000e+00
    outer loop
      vertex   -6.767433e+01 1.388644e+02 5.609873e+01
      vertex   -6.697423e+01 1.392801e+02 5.609873e+01
      vertex   -6.728543e+01 1.394464e+02 5.609873e+01
    endloop
  endfacet
  facet normal -1.941191e-14 -2.365348e-14 1.000000e+00
    outer loop
      vertex   -6.805317e+01 1.391753e+02 5.609873e+01
      vertex   -6.728543e+01 1.394464e+02 5.609873e+01
      vertex   -6.755819e+01 1.396703e+02 5.609873e+01
    endloop
  endfacet
  facet normal -2.365348e-14 -1.941191e-14 1.000000e+00
    outer loop
      vertex   -6.836407e+01 1.395541e+02 5.609873e+01
      vertex   -6.755819e+01 1.396703e+02 5.609873e+01
      vertex   -6.778205e+01 1.399430e+02 5.609873e+01
    endloop
  endfacet
  facet normal -2.698606e-14 -1.442435e-14 1.000000e+00
    outer loop
      vertex   -6.859510e+01 1.399863e+02 5.609873e+01
      vertex   -6.778205e+01 1.399430e+02 5.609873e+01
      vertex   -6.794838e+01 1.402542e+02 5.609873e+01
    endloop
  endfacet
  facet normal -2.928158e-14 -8.882472e-15 1.000000e+00
    outer loop
      vertex   -6.873736e+01 1.404553e+02 5.609873e+01
      vertex   -6.794838e+01 1.402542e+02 5.609873e+01
      vertex   -6.805081e+01 1.405919e+02 5.609873e+01
    endloop
  endfacet
  facet normal -3.045183e-14 -2.999244e-15 1.000000e+00
    outer loop
      vertex   -6.878540e+01 1.409430e+02 5.609873e+01
      vertex   -6.805081e+01 1.405919e+02 5.609873e+01
      vertex   -6.808540e+01 1.409430e+02 5.609873e+01
    endloop
  endfacet
  facet normal -3.045183e-14 2.999244e-15 1.000000e+00
    outer loop
      vertex   -6.873736e+01 1.414308e+02 5.609873e+01
      vertex   -6.808540e+01 1.409430e+02 5.609873e+01
      vertex   -6.805081e+01 1.412942e+02 5.609873e+01
    endloop
  endfacet
  facet normal -2.928158e-14 8.882472e-15 1.000000e+00
    outer loop
      vertex   -6.794838e+01 1.416319e+02 5.609873e+01
      vertex   -6.873736e+01 1.414308e+02 5.609873e+01
      vertex   -6.805081e+01 1.412942e+02 5.609873e+01
    endloop
  endfacet
  facet normal -2.928158e-14 8.882472e-15 1.000000e+00
    outer loop
      vertex   -6.794838e+01 1.416319e+02 5.609873e+01
      vertex   -6.859510e+01 1.418998e+02 5.609873e+01
      vertex   -6.873736e+01 1.414308e+02 5.609873e+01
    endloop
  endfacet
  facet normal -2.698606e-14 1.442435e-14 1.000000e+00
    outer loop
      vertex   -6.794838e+01 1.416319e+02 5.609873e+01
      vertex   -6.778205e+01 1.419431e+02 5.609873e+01
      vertex   -6.859510e+01 1.418998e+02 5.609873e+01
    endloop
  endfacet
  facet normal -2.698606e-14 1.442435e-14 1.000000e+00
    outer loop
      vertex   -6.859510e+01 1.418998e+02 5.609873e+01
      vertex   -6.778205e+01 1.419431e+02 5.609873e+01
      vertex   -6.836407e+01 1.423320e+02 5.609873e+01
    endloop
  endfacet
  facet normal -2.365348e-14 1.941191e-14 1.000000e+00
    outer loop
      vertex   -6.836407e+01 1.423320e+02 5.609873e+01
      vertex   -6.778205e+01 1.419431e+02 5.609873e+01
      vertex   -6.755819e+01 1.422158e+02 5.609873e+01
    endloop
  endfacet
  facet normal -1.941191e-14 2.365348e-14 1.000000e+00
    outer loop
      vertex   -6.805317e+01 1.427108e+02 5.609873e+01
      vertex   -6.755819e+01 1.422158e+02 5.609873e+01
      vertex   -6.728543e+01 1.424397e+02 5.609873e+01
    endloop
  endfacet
  facet normal -1.442435e-14 2.698606e-14 1.000000e+00
    outer loop
      vertex   -6.767433e+01 1.430217e+02 5.609873e+01
      vertex   -6.728543e+01 1.424397e+02 5.609873e+01
      vertex   -6.697423e+01 1.426060e+02 5.609873e+01
    endloop
  endfacet
  facet normal -8.882472e-15 2.928158e-14 1.000000e+00
    outer loop
      vertex   -6.724211e+01 1.432527e+02 5.609873e+01
      vertex   -6.697423e+01 1.426060e+02 5.609873e+01
      vertex   -6.663656e+01 1.427085e+02 5.609873e+01
    endloop
  endfacet
  facet normal -2.999244e-15 3.045183e-14 1.000000e+00
    outer loop
      vertex   -6.677313e+01 1.433950e+02 5.609873e+01
      vertex   -6.663656e+01 1.427085e+02 5.609873e+01
      vertex   -6.628540e+01 1.427430e+02 5.609873e+01
    endloop
  endfacet
  facet normal -1.056950e-14 4.060244e-14 1.000000e+00
    outer loop
      vertex   -6.628540e+01 1.434430e+02 5.609873e+01
      vertex   -6.628540e+01 1.427430e+02 5.609873e+01
      vertex   -6.579767e+01 1.433950e+02 5.609873e+01
    endloop
  endfacet
  facet normal 1.056950e-14 4.060244e-14 1.000000e+00
    outer loop
      vertex   -6.628540e+01 1.434430e+02 5.609873e+01
      vertex   -6.677313e+01 1.433950e+02 5.609873e+01
      vertex   -6.628540e+01 1.427430e+02 5.609873e+01
    endloop
  endfacet
  facet normal 3.045183e-14 2.999244e-15 1.000000e+00
    outer loop
      vertex   -6.451999e+01 1.412942e+02 5.609873e+01
      vertex   -6.448540e+01 1.409430e+02 5.609873e+01
      vertex   -6.378540e+01 1.409430e+02 5.609873e+01
    endloop
  endfacet
  facet normal 3.045183e-14 2.999244e-15 1.000000e+00
    outer loop
      vertex   -6.383344e+01 1.414308e+02 5.609873e+01
      vertex   -6.451999e+01 1.412942e+02 5.609873e+01
      vertex   -6.378540e+01 1.409430e+02 5.609873e+01
    endloop
  endfacet
  facet normal 2.928158e-14 8.882472e-15 1.000000e+00
    outer loop
      vertex   -6.383344e+01 1.414308e+02 5.609873e+01
      vertex   -6.462242e+01 1.416319e+02 5.609873e+01
      vertex   -6.451999e+01 1.412942e+02 5.609873e+01
    endloop
  endfacet
  facet normal 2.928158e-14 8.882472e-15 1.000000e+00
    outer loop
      vertex   -6.383344e+01 1.414308e+02 5.609873e+01
      vertex   -6.397570e+01 1.418998e+02 5.609873e+01
      vertex   -6.462242e+01 1.416319e+02 5.609873e+01
    endloop
  endfacet
  facet normal 2.698606e-14 1.442435e-14 1.000000e+00
    outer loop
      vertex   -6.462242e+01 1.416319e+02 5.609873e+01
      vertex   -6.397570e+01 1.418998e+02 5.609873e+01
      vertex   -6.478876e+01 1.419431e+02 5.609873e+01
    endloop
  endfacet
  facet normal 2.698606e-14 1.442435e-14 1.000000e+00
    outer loop
      vertex   -6.478876e+01 1.419431e+02 5.609873e+01
      vertex   -6.397570e+01 1.418998e+02 5.609873e+01
      vertex   -6.420673e+01 1.423320e+02 5.609873e+01
    endloop
  endfacet
  facet normal 2.365348e-14 1.941191e-14 1.000000e+00
    outer loop
      vertex   -6.501261e+01 1.422158e+02 5.609873e+01
      vertex   -6.420673e+01 1.423320e+02 5.609873e+01
      vertex   -6.451763e+01 1.427108e+02 5.609873e+01
    endloop
  endfacet
  facet normal 1.941191e-14 2.365348e-14 1.000000e+00
    outer loop
      vertex   -6.528537e+01 1.424397e+02 5.609873e+01
      vertex   -6.451763e+01 1.427108e+02 5.609873e+01
      vertex   -6.489648e+01 1.430217e+02 5.609873e+01
    endloop
  endfacet
  facet normal 1.442435e-14 2.698606e-14 1.000000e+00
    outer loop
      vertex   -6.559657e+01 1.426060e+02 5.609873e+01
      vertex   -6.489648e+01 1.430217e+02 5.609873e+01
      vertex   -6.532869e+01 1.432527e+02 5.609873e+01
    endloop
  endfacet
  facet normal 8.882472e-15 2.928158e-14 1.000000e+00
    outer loop
      vertex   -6.593424e+01 1.427085e+02 5.609873e+01
      vertex   -6.532869e+01 1.432527e+02 5.609873e+01
      vertex   -6.579767e+01 1.433950e+02 5.609873e+01
    endloop
  endfacet
  facet normal 2.999244e-15 3.045183e-14 1.000000e+00
    outer loop
      vertex   -6.628540e+01 1.427430e+02 5.609873e+01
      vertex   -6.593424e+01 1.427085e+02 5.609873e+01
      vertex   -6.579767e+01 1.433950e+02 5.609873e+01
    endloop
  endfacet
  facet normal 3.045183e-14 -2.999244e-15 1.000000e+00
    outer loop
      vertex   -6.378540e+01 1.409430e+02 5.609873e+01
      vertex   -6.451999e+01 1.405919e+02 5.609873e+01
      vertex   -6.383344e+01 1.404553e+02 5.609873e+01
    endloop
  endfacet
  facet normal 3.045183e-14 -2.999244e-15 1.000000e+00
    outer loop
      vertex   -6.378540e+01 1.409430e+02 5.609873e+01
      vertex   -6.448540e+01 1.409430e+02 5.609873e+01
      vertex   -6.451999e+01 1.405919e+02 5.609873e+01
    endloop
  endfacet
  facet normal 2.928158e-14 -8.882472e-15 1.000000e+00
    outer loop
      vertex   -6.383344e+01 1.404553e+02 5.609873e+01
      vertex   -6.462242e+01 1.402542e+02 5.609873e+01
      vertex   -6.397570e+01 1.399863e+02 5.609873e+01
    endloop
  endfacet
  facet normal 2.928158e-14 -8.882472e-15 1.000000e+00
    outer loop
      vertex   -6.383344e+01 1.404553e+02 5.609873e+01
      vertex   -6.451999e+01 1.405919e+02 5.609873e+01
      vertex   -6.462242e+01 1.402542e+02 5.609873e+01
    endloop
  endfacet
  facet normal 2.698606e-14 -1.442435e-14 1.000000e+00
    outer loop
      vertex   -6.397570e+01 1.399863e+02 5.609873e+01
      vertex   -6.478876e+01 1.399430e+02 5.609873e+01
      vertex   -6.420673e+01 1.395541e+02 5.609873e+01
    endloop
  endfacet
  facet normal 2.698606e-14 -1.442435e-14 1.000000e+00
    outer loop
      vertex   -6.397570e+01 1.399863e+02 5.609873e+01
      vertex   -6.462242e+01 1.402542e+02 5.609873e+01
      vertex   -6.478876e+01 1.399430e+02 5.609873e+01
    endloop
  endfacet
  facet normal -8.882472e-15 2.928158e-14 1.000000e+00
    outer loop
      vertex   -6.677313e+01 1.433950e+02 5.609873e+01
      vertex   -6.724211e+01 1.432527e+02 5.609873e+01
      vertex   -6.663656e+01 1.427085e+02 5.609873e+01
    endloop
  endfacet
  facet normal -1.442435e-14 2.698606e-14 1.000000e+00
    outer loop
      vertex   -6.724211e+01 1.432527e+02 5.609873e+01
      vertex   -6.767433e+01 1.430217e+02 5.609873e+01
      vertex   -6.697423e+01 1.426060e+02 5.609873e+01
    endloop
  endfacet
  facet normal -1.941191e-14 2.365348e-14 1.000000e+00
    outer loop
      vertex   -6.767433e+01 1.430217e+02 5.609873e+01
      vertex   -6.805317e+01 1.427108e+02 5.609873e+01
      vertex   -6.728543e+01 1.424397e+02 5.609873e+01
    endloop
  endfacet
  facet normal -2.365348e-14 1.941191e-14 1.000000e+00
    outer loop
      vertex   -6.805317e+01 1.427108e+02 5.609873e+01
      vertex   -6.836407e+01 1.423320e+02 5.609873e+01
      vertex   -6.755819e+01 1.422158e+02 5.609873e+01
    endloop
  endfacet
  facet normal -3.045183e-14 2.999244e-15 1.000000e+00
    outer loop
      vertex   -6.873736e+01 1.414308e+02 5.609873e+01
      vertex   -6.878540e+01 1.409430e+02 5.609873e+01
      vertex   -6.808540e+01 1.409430e+02 5.609873e+01
    endloop
  endfacet
  facet normal -3.045183e-14 -2.999244e-15 1.000000e+00
    outer loop
      vertex   -6.878540e+01 1.409430e+02 5.609873e+01
      vertex   -6.873736e+01 1.404553e+02 5.609873e+01
      vertex   -6.805081e+01 1.405919e+02 5.609873e+01
    endloop
  endfacet
  facet normal -2.928158e-14 -8.882472e-15 1.000000e+00
    outer loop
      vertex   -6.873736e+01 1.404553e+02 5.609873e+01
      vertex   -6.859510e+01 1.399863e+02 5.609873e+01
      vertex   -6.794838e+01 1.402542e+02 5.609873e+01
    endloop
  endfacet
  facet normal -2.698606e-14 -1.442435e-14 1.000000e+00
    outer loop
      vertex   -6.859510e+01 1.399863e+02 5.609873e+01
      vertex   -6.836407e+01 1.395541e+02 5.609873e+01
      vertex   -6.778205e+01 1.399430e+02 5.609873e+01
    endloop
  endfacet
  facet normal -2.365348e-14 -1.941191e-14 1.000000e+00
    outer loop
      vertex   -6.836407e+01 1.395541e+02 5.609873e+01
      vertex   -6.805317e+01 1.391753e+02 5.609873e+01
      vertex   -6.755819e+01 1.396703e+02 5.609873e+01
    endloop
  endfacet
  facet normal -1.941191e-14 -2.365348e-14 1.000000e+00
    outer loop
      vertex   -6.805317e+01 1.391753e+02 5.609873e+01
      vertex   -6.767433e+01 1.388644e+02 5.609873e+01
      vertex   -6.728543e+01 1.394464e+02 5.609873e+01
    endloop
  endfacet
  facet normal 8.882472e-15 2.928158e-14 1.000000e+00
    outer loop
      vertex   -6.593424e+01 1.427085e+02 5.609873e+01
      vertex   -6.559657e+01 1.426060e+02 5.609873e+01
      vertex   -6.532869e+01 1.432527e+02 5.609873e+01
    endloop
  endfacet
  facet normal 1.442435e-14 2.698606e-14 1.000000e+00
    outer loop
      vertex   -6.559657e+01 1.426060e+02 5.609873e+01
      vertex   -6.528537e+01 1.424397e+02 5.609873e+01
      vertex   -6.489648e+01 1.430217e+02 5.609873e+01
    endloop
  endfacet
  facet normal 1.941191e-14 2.365348e-14 1.000000e+00
    outer loop
      vertex   -6.528537e+01 1.424397e+02 5.609873e+01
      vertex   -6.501261e+01 1.422158e+02 5.609873e+01
      vertex   -6.451763e+01 1.427108e+02 5.609873e+01
    endloop
  endfacet
  facet normal 2.365348e-14 1.941191e-14 1.000000e+00
    outer loop
      vertex   -6.501261e+01 1.422158e+02 5.609873e+01
      vertex   -6.478876e+01 1.419431e+02 5.609873e+01
      vertex   -6.420673e+01 1.423320e+02 5.609873e+01
    endloop
  endfacet
  facet normal 2.365348e-14 -1.941191e-14 1.000000e+00
    outer loop
      vertex   -6.478876e+01 1.399430e+02 5.609873e+01
      vertex   -6.501261e+01 1.396703e+02 5.609873e+01
      vertex   -6.420673e+01 1.395541e+02 5.609873e+01
    endloop
  endfacet
  facet normal 2.365348e-14 -1.941191e-14 1.000000e+00
    outer loop
      vertex   -6.420673e+01 1.395541e+02 5.609873e+01
      vertex   -6.501261e+01 1.396703e+02 5.609873e+01
      vertex   -6.451763e+01 1.391753e+02 5.609873e+01
    endloop
  endfacet
  facet normal 1.941191e-14 -2.365348e-14 1.000000e+00
    outer loop
      vertex   -6.451763e+01 1.391753e+02 5.609873e+01
      vertex   -6.501261e+01 1.396703e+02 5.609873e+01
      vertex   -6.528537e+01 1.394464e+02 5.609873e+01
    endloop
  endfacet
  facet normal 1.442435e-14 -2.698606e-14 1.000000e+00
    outer loop
      vertex   -6.489648e+01 1.388644e+02 5.609873e+01
      vertex   -6.528537e+01 1.394464e+02 5.609873e+01
      vertex   -6.559657e+01 1.392801e+02 5.609873e+01
    endloop
  endfacet
  facet normal 8.882472e-15 -2.928158e-14 1.000000e+00
    outer loop
      vertex   -6.532869e+01 1.386333e+02 5.609873e+01
      vertex   -6.559657e+01 1.392801e+02 5.609873e+01
      vertex   -6.593424e+01 1.391776e+02 5.609873e+01
    endloop
  endfacet
  facet normal 2.999244e-15 -3.045183e-14 1.000000e+00
    outer loop
      vertex   -6.579767e+01 1.384911e+02 5.609873e+01
      vertex   -6.593424e+01 1.391776e+02 5.609873e+01
      vertex   -6.628540e+01 1.391430e+02 5.609873e+01
    endloop
  endfacet
  facet normal 3.013672e-14 -1.015061e-14 1.000000e+00
    outer loop
      vertex   -6.628540e+01 1.384430e+02 5.609873e+01
      vertex   -6.579767e+01 1.384911e+02 5.609873e+01
      vertex   -6.628540e+01 1.391430e+02 5.609873e+01
    endloop
  endfacet
  facet normal 8.882472e-15 -2.928158e-14 1.000000e+00
    outer loop
      vertex   -6.532869e+01 1.386333e+02 5.609873e+01
      vertex   -6.593424e+01 1.391776e+02 5.609873e+01
      vertex   -6.579767e+01 1.384911e+02 5.609873e+01
    endloop
  endfacet
  facet normal 1.941191e-14 -2.365348e-14 1.000000e+00
    outer loop
      vertex   -6.451763e+01 1.391753e+02 5.609873e+01
      vertex   -6.528537e+01 1.394464e+02 5.609873e+01
      vertex   -6.489648e+01 1.388644e+02 5.609873e+01
    endloop
  endfacet
  facet normal 1.442435e-14 -2.698606e-14 1.000000e+00
    outer loop
      vertex   -6.489648e+01 1.388644e+02 5.609873e+01
      vertex   -6.559657e+01 1.392801e+02 5.609873e+01
      vertex   -6.532869e+01 1.386333e+02 5.609873e+01
    endloop
  endfacet
  facet normal -9.801714e-02 -9.951847e-01 0.000000e+00
    outer loop
      vertex   -6.628540e+01 1.391430e+02 5.609873e+01
      vertex   -6.628540e+01 1.391430e+02 5.979873e+01
      vertex   -6.663656e+01 1.391776e+02 5.609873e+01
    endloop
  endfacet
  facet normal -9.801714e-02 -9.951847e-01 0.000000e+00
    outer loop
      vertex   -6.663656e+01 1.391776e+02 5.609873e+01
      vertex   -6.628540e+01 1.391430e+02 5.979873e+01
      vertex   -6.663656e+01 1.391776e+02 5.979873e+01
    endloop
  endfacet
  facet normal -2.902847e-01 -9.569403e-01 0.000000e+00
    outer loop
      vertex   -6.697423e+01 1.392801e+02 5.979873e+01
      vertex   -6.663656e+01 1.391776e+02 5.609873e+01
      vertex   -6.663656e+01 1.391776e+02 5.979873e+01
    endloop
  endfacet
  facet normal -2.902847e-01 -9.569403e-01 -0.000000e+00
    outer loop
      vertex   -6.697423e+01 1.392801e+02 5.979873e+01
      vertex   -6.697423e+01 1.392801e+02 5.609873e+01
      vertex   -6.663656e+01 1.391776e+02 5.609873e+01
    endloop
  endfacet
  facet normal -4.713967e-01 -8.819213e-01 0.000000e+00
    outer loop
      vertex   -6.697423e+01 1.392801e+02 5.979873e+01
      vertex   -6.728543e+01 1.394464e+02 5.979873e+01
      vertex   -6.697423e+01 1.392801e+02 5.609873e+01
    endloop
  endfacet
  facet normal -4.713967e-01 -8.819213e-01 -0.000000e+00
    outer loop
      vertex   -6.697423e+01 1.392801e+02 5.609873e+01
      vertex   -6.728543e+01 1.394464e+02 5.979873e+01
      vertex   -6.728543e+01 1.394464e+02 5.609873e+01
    endloop
  endfacet
  facet normal -6.343933e-01 -7.730105e-01 0.000000e+00
    outer loop
      vertex   -6.728543e+01 1.394464e+02 5.609873e+01
      vertex   -6.728543e+01 1.394464e+02 5.979873e+01
      vertex   -6.755819e+01 1.396703e+02 5.979873e+01
    endloop
  endfacet
  facet normal -7.730105e-01 -6.343933e-01 0.000000e+00
    outer loop
      vertex   -6.755819e+01 1.396703e+02 5.609873e+01
      vertex   -6.755819e+01 1.396703e+02 5.979873e+01
      vertex   -6.778205e+01 1.399430e+02 5.979873e+01
    endloop
  endfacet
  facet normal -8.819213e-01 -4.713967e-01 0.000000e+00
    outer loop
      vertex   -6.778205e+01 1.399430e+02 5.609873e+01
      vertex   -6.778205e+01 1.399430e+02 5.979873e+01
      vertex   -6.794838e+01 1.402542e+02 5.609873e+01
    endloop
  endfacet
  facet normal -7.730105e-01 -6.343933e-01 0.000000e+00
    outer loop
      vertex   -6.778205e+01 1.399430e+02 5.609873e+01
      vertex   -6.755819e+01 1.396703e+02 5.609873e+01
      vertex   -6.778205e+01 1.399430e+02 5.979873e+01
    endloop
  endfacet
  facet normal -8.819213e-01 -4.713967e-01 -0.000000e+00
    outer loop
      vertex   -6.778205e+01 1.399430e+02 5.979873e+01
      vertex   -6.794838e+01 1.402542e+02 5.979873e+01
      vertex   -6.794838e+01 1.402542e+02 5.609873e+01
    endloop
  endfacet
  facet normal -9.569403e-01 -2.902847e-01 0.000000e+00
    outer loop
      vertex   -6.794838e+01 1.402542e+02 5.609873e+01
      vertex   -6.794838e+01 1.402542e+02 5.979873e+01
      vertex   -6.805081e+01 1.405919e+02 5.979873e+01
    endloop
  endfacet
  facet normal -9.951847e-01 -9.801714e-02 0.000000e+00
    outer loop
      vertex   -6.805081e+01 1.405919e+02 5.609873e+01
      vertex   -6.805081e+01 1.405919e+02 5.979873e+01
      vertex   -6.808540e+01 1.409430e+02 5.979873e+01
    endloop
  endfacet
  facet normal -9.951847e-01 9.801714e-02 0.000000e+00
    outer loop
      vertex   -6.808540e+01 1.409430e+02 5.609873e+01
      vertex   -6.808540e+01 1.409430e+02 5.979873e+01
      vertex   -6.805081e+01 1.412942e+02 5.979873e+01
    endloop
  endfacet
  facet normal -9.569403e-01 2.902847e-01 0.000000e+00
    outer loop
      vertex   -6.805081e+01 1.412942e+02 5.609873e+01
      vertex   -6.805081e+01 1.412942e+02 5.979873e+01
      vertex   -6.794838e+01 1.416319e+02 5.979873e+01
    endloop
  endfacet
  facet normal -8.819213e-01 4.713967e-01 0.000000e+00
    outer loop
      vertex   -6.794838e+01 1.416319e+02 5.609873e+01
      vertex   -6.794838e+01 1.416319e+02 5.979873e+01
      vertex   -6.778205e+01 1.419431e+02 5.609873e+01
    endloop
  endfacet
  facet normal -9.569403e-01 2.902847e-01 0.000000e+00
    outer loop
      vertex   -6.794838e+01 1.416319e+02 5.609873e+01
      vertex   -6.805081e+01 1.412942e+02 5.609873e+01
      vertex   -6.794838e+01 1.416319e+02 5.979873e+01
    endloop
  endfacet
  facet normal -8.819213e-01 4.713967e-01 0.000000e+00
    outer loop
      vertex   -6.794838e+01 1.416319e+02 5.979873e+01
      vertex   -6.778205e+01 1.419431e+02 5.979873e+01
      vertex   -6.778205e+01 1.419431e+02 5.609873e+01
    endloop
  endfacet
  facet normal -7.730105e-01 6.343933e-01 0.000000e+00
    outer loop
      vertex   -6.778205e+01 1.419431e+02 5.609873e+01
      vertex   -6.778205e+01 1.419431e+02 5.979873e+01
      vertex   -6.755819e+01 1.422158e+02 5.979873e+01
    endloop
  endfacet
  facet normal -6.343933e-01 7.730105e-01 0.000000e+00
    outer loop
      vertex   -6.755819e+01 1.422158e+02 5.609873e+01
      vertex   -6.755819e+01 1.422158e+02 5.979873e+01
      vertex   -6.728543e+01 1.424397e+02 5.979873e+01
    endloop
  endfacet
  facet normal -4.713967e-01 8.819213e-01 0.000000e+00
    outer loop
      vertex   -6.728543e+01 1.424397e+02 5.609873e+01
      vertex   -6.728543e+01 1.424397e+02 5.979873e+01
      vertex   -6.697423e+01 1.426060e+02 5.979873e+01
    endloop
  endfacet
  facet normal -2.902847e-01 9.569403e-01 0.000000e+00
    outer loop
      vertex   -6.697423e+01 1.426060e+02 5.609873e+01
      vertex   -6.697423e+01 1.426060e+02 5.979873e+01
      vertex   -6.663656e+01 1.427085e+02 5.979873e+01
    endloop
  endfacet
  facet normal -9.801714e-02 9.951847e-01 0.000000e+00
    outer loop
      vertex   -6.663656e+01 1.427085e+02 5.609873e+01
      vertex   -6.663656e+01 1.427085e+02 5.979873e+01
      vertex   -6.628540e+01 1.427430e+02 5.609873e+01
    endloop
  endfacet
  facet normal -2.902847e-01 9.569403e-01 0.000000e+00
    outer loop
      vertex   -6.663656e+01 1.427085e+02 5.609873e+01
      vertex   -6.697423e+01 1.426060e+02 5.609873e+01
      vertex   -6.663656e+01 1.427085e+02 5.979873e+01
    endloop
  endfacet
  facet normal -9.801714e-02 9.951847e-01 0.000000e+00
    outer loop
      vertex   -6.663656e+01 1.427085e+02 5.979873e+01
      vertex   -6.628540e+01 1.427430e+02 5.979873e+01
      vertex   -6.628540e+01 1.427430e+02 5.609873e+01
    endloop
  endfacet
  facet normal -4.713967e-01 8.819213e-01 0.000000e+00
    outer loop
      vertex   -6.697423e+01 1.426060e+02 5.609873e+01
      vertex   -6.728543e+01 1.424397e+02 5.609873e+01
      vertex   -6.697423e+01 1.426060e+02 5.979873e+01
    endloop
  endfacet
  facet normal -6.343933e-01 7.730105e-01 0.000000e+00
    outer loop
      vertex   -6.728543e+01 1.424397e+02 5.609873e+01
      vertex   -6.755819e+01 1.422158e+02 5.609873e+01
      vertex   -6.728543e+01 1.424397e+02 5.979873e+01
    endloop
  endfacet
  facet normal -7.730105e-01 6.343933e-01 0.000000e+00
    outer loop
      vertex   -6.755819e+01 1.422158e+02 5.609873e+01
      vertex   -6.778205e+01 1.419431e+02 5.609873e+01
      vertex   -6.755819e+01 1.422158e+02 5.979873e+01
    endloop
  endfacet
  facet normal -9.951847e-01 9.801714e-02 0.000000e+00
    outer loop
      vertex   -6.805081e+01 1.412942e+02 5.609873e+01
      vertex   -6.808540e+01 1.409430e+02 5.609873e+01
      vertex   -6.805081e+01 1.412942e+02 5.979873e+01
    endloop
  endfacet
  facet normal -9.951847e-01 -9.801714e-02 0.000000e+00
    outer loop
      vertex   -6.808540e+01 1.409430e+02 5.609873e+01
      vertex   -6.805081e+01 1.405919e+02 5.609873e+01
      vertex   -6.808540e+01 1.409430e+02 5.979873e+01
    endloop
  endfacet
  facet normal -9.569403e-01 -2.902847e-01 0.000000e+00
    outer loop
      vertex   -6.805081e+01 1.405919e+02 5.609873e+01
      vertex   -6.794838e+01 1.402542e+02 5.609873e+01
      vertex   -6.805081e+01 1.405919e+02 5.979873e+01
    endloop
  endfacet
  facet normal -6.343933e-01 -7.730105e-01 0.000000e+00
    outer loop
      vertex   -6.755819e+01 1.396703e+02 5.609873e+01
      vertex   -6.728543e+01 1.394464e+02 5.609873e+01
      vertex   -6.755819e+01 1.396703e+02 5.979873e+01
    endloop
  endfacet
  facet normal 0.000000e+00 0.000000e+00 -1.000000e+00
    outer loop
      vertex   -6.793368e+01 1.406152e+02 1.929873e+01
      vertex   -6.793368e+01 1.412709e+02 1.929873e+01
      vertex   -6.783805e+01 1.402999e+02 1.929873e+01
    endloop
  endfacet
  facet normal 0.000000e+00 0.000000e+00 -1.000000e+00
    outer loop
      vertex   -6.793368e+01 1.406152e+02 1.929873e+01
      vertex   -6.796597e+01 1.409430e+02 1.929873e+01
      vertex   -6.793368e+01 1.412709e+02 1.929873e+01
    endloop
  endfacet
  facet normal 0.000000e+00 0.000000e+00 -1.000000e+00
    outer loop
      vertex   -6.783805e+01 1.402999e+02 1.929873e+01
      vertex   -6.783805e+01 1.415862e+02 1.929873e+01
      vertex   -6.768275e+01 1.400094e+02 1.929873e+01
    endloop
  endfacet
  facet normal 0.000000e+00 0.000000e+00 -1.000000e+00
    outer loop
      vertex   -6.783805e+01 1.402999e+02 1.929873e+01
      vertex   -6.793368e+01 1.412709e+02 1.929873e+01
      vertex   -6.783805e+01 1.415862e+02 1.929873e+01
    endloop
  endfacet
  facet normal 0.000000e+00 0.000000e+00 -1.000000e+00
    outer loop
      vertex   -6.768275e+01 1.400094e+02 1.929873e+01
      vertex   -6.768275e+01 1.418767e+02 1.929873e+01
      vertex   -6.747374e+01 1.397547e+02 1.929873e+01
    endloop
  endfacet
  facet normal 0.000000e+00 0.000000e+00 -1.000000e+00
    outer loop
      vertex   -6.768275e+01 1.400094e+02 1.929873e+01
      vertex   -6.783805e+01 1.415862e+02 1.929873e+01
      vertex   -6.768275e+01 1.418767e+02 1.929873e+01
    endloop
  endfacet
  facet normal 0.000000e+00 0.000000e+00 -1.000000e+00
    outer loop
      vertex   -6.747374e+01 1.397547e+02 1.929873e+01
      vertex   -6.747374e+01 1.421314e+02 1.929873e+01
      vertex   -6.721908e+01 1.395457e+02 1.929873e+01
    endloop
  endfacet
  facet normal 0.000000e+00 0.000000e+00 -1.000000e+00
    outer loop
      vertex   -6.747374e+01 1.397547e+02 1.929873e+01
      vertex   -6.768275e+01 1.418767e+02 1.929873e+01
      vertex   -6.747374e+01 1.421314e+02 1.929873e+01
    endloop
  endfacet
  facet normal 0.000000e+00 0.000000e+00 -1.000000e+00
    outer loop
      vertex   -6.747374e+01 1.421314e+02 1.929873e+01
      vertex   -6.721908e+01 1.423404e+02 1.929873e+01
      vertex   -6.721908e+01 1.395457e+02 1.929873e+01
    endloop
  endfacet
  facet normal 0.000000e+00 0.000000e+00 -1.000000e+00
    outer loop
      vertex   -6.721908e+01 1.395457e+02 1.929873e+01
      vertex   -6.721908e+01 1.423404e+02 1.929873e+01
      vertex   -6.692853e+01 1.393904e+02 1.929873e+01
    endloop
  endfacet
  facet normal 0.000000e+00 0.000000e+00 -1.000000e+00
    outer loop
      vertex   -6.692853e+01 1.393904e+02 1.929873e+01
      vertex   -6.721908e+01 1.423404e+02 1.929873e+01
      vertex   -6.692853e+01 1.424957e+02 1.929873e+01
    endloop
  endfacet
  facet normal 0.000000e+00 0.000000e+00 -1.000000e+00
    outer loop
      vertex   -6.661326e+01 1.392948e+02 1.929873e+01
      vertex   -6.692853e+01 1.424957e+02 1.929873e+01
      vertex   -6.661326e+01 1.425913e+02 1.929873e+01
    endloop
  endfacet
  facet normal 0.000000e+00 0.000000e+00 -1.000000e+00
    outer loop
      vertex   -6.628540e+01 1.392625e+02 1.929873e+01
      vertex   -6.661326e+01 1.425913e+02 1.929873e+01
      vertex   -6.628540e+01 1.426236e+02 1.929873e+01
    endloop
  endfacet
  facet normal 0.000000e+00 0.000000e+00 -1.000000e+00
    outer loop
      vertex   -6.595754e+01 1.392948e+02 1.929873e+01
      vertex   -6.628540e+01 1.426236e+02 1.929873e+01
      vertex   -6.595754e+01 1.425913e+02 1.929873e+01
    endloop
  endfacet
  facet normal 0.000000e+00 0.000000e+00 -1.000000e+00
    outer loop
      vertex   -6.564227e+01 1.393904e+02 1.929873e+01
      vertex   -6.595754e+01 1.425913e+02 1.929873e+01
      vertex   -6.564227e+01 1.424957e+02 1.929873e+01
    endloop
  endfacet
  facet normal 0.000000e+00 0.000000e+00 -1.000000e+00
    outer loop
      vertex   -6.535172e+01 1.395457e+02 1.929873e+01
      vertex   -6.564227e+01 1.424957e+02 1.929873e+01
      vertex   -6.535172e+01 1.423404e+02 1.929873e+01
    endloop
  endfacet
  facet normal 0.000000e+00 0.000000e+00 -1.000000e+00
    outer loop
      vertex   -6.509706e+01 1.397547e+02 1.929873e+01
      vertex   -6.535172e+01 1.423404e+02 1.929873e+01
      vertex   -6.509706e+01 1.421314e+02 1.929873e+01
    endloop
  endfacet
  facet normal 0.000000e+00 0.000000e+00 -1.000000e+00
    outer loop
      vertex   -6.488806e+01 1.400094e+02 1.929873e+01
      vertex   -6.509706e+01 1.421314e+02 1.929873e+01
      vertex   -6.488806e+01 1.418767e+02 1.929873e+01
    endloop
  endfacet
  facet normal 0.000000e+00 0.000000e+00 -1.000000e+00
    outer loop
      vertex   -6.473275e+01 1.402999e+02 1.929873e+01
      vertex   -6.488806e+01 1.418767e+02 1.929873e+01
      vertex   -6.473275e+01 1.415862e+02 1.929873e+01
    endloop
  endfacet
  facet normal 0.000000e+00 0.000000e+00 -1.000000e+00
    outer loop
      vertex   -6.463712e+01 1.406152e+02 1.929873e+01
      vertex   -6.473275e+01 1.415862e+02 1.929873e+01
      vertex   -6.463712e+01 1.412709e+02 1.929873e+01
    endloop
  endfacet
  facet normal -0.000000e+00 0.000000e+00 -1.000000e+00
    outer loop
      vertex   -6.460483e+01 1.409430e+02 1.929873e+01
      vertex   -6.463712e+01 1.406152e+02 1.929873e+01
      vertex   -6.463712e+01 1.412709e+02 1.929873e+01
    endloop
  endfacet
  facet normal -0.000000e+00 0.000000e+00 -1.000000e+00
    outer loop
      vertex   -6.463712e+01 1.406152e+02 1.929873e+01
      vertex   -6.473275e+01 1.402999e+02 1.929873e+01
      vertex   -6.473275e+01 1.415862e+02 1.929873e+01
    endloop
  endfacet
  facet normal -0.000000e+00 0.000000e+00 -1.000000e+00
    outer loop
      vertex   -6.473275e+01 1.402999e+02 1.929873e+01
      vertex   -6.488806e+01 1.400094e+02 1.929873e+01
      vertex   -6.488806e+01 1.418767e+02 1.929873e+01
    endloop
  endfacet
  facet normal -0.000000e+00 0.000000e+00 -1.000000e+00
    outer loop
      vertex   -6.488806e+01 1.400094e+02 1.929873e+01
      vertex   -6.509706e+01 1.397547e+02 1.929873e+01
      vertex   -6.509706e+01 1.421314e+02 1.929873e+01
    endloop
  endfacet
  facet normal -0.000000e+00 0.000000e+00 -1.000000e+00
    outer loop
      vertex   -6.509706e+01 1.397547e+02 1.929873e+01
      vertex   -6.535172e+01 1.395457e+02 1.929873e+01
      vertex   -6.535172e+01 1.423404e+02 1.929873e+01
    endloop
  endfacet
  facet normal -0.000000e+00 0.000000e+00 -1.000000e+00
    outer loop
      vertex   -6.535172e+01 1.395457e+02 1.929873e+01
      vertex   -6.564227e+01 1.393904e+02 1.929873e+01
      vertex   -6.564227e+01 1.424957e+02 1.929873e+01
    endloop
  endfacet
  facet normal -0.000000e+00 0.000000e+00 -1.000000e+00
    outer loop
      vertex   -6.564227e+01 1.393904e+02 1.929873e+01
      vertex   -6.595754e+01 1.392948e+02 1.929873e+01
      vertex   -6.595754e+01 1.425913e+02 1.929873e+01
    endloop
  endfacet
  facet normal -0.000000e+00 0.000000e+00 -1.000000e+00
    outer loop
      vertex   -6.595754e+01 1.392948e+02 1.929873e+01
      vertex   -6.628540e+01 1.392625e+02 1.929873e+01
      vertex   -6.628540e+01 1.426236e+02 1.929873e+01
    endloop
  endfacet
  facet normal 0.000000e+00 0.000000e+00 -1.000000e+00
    outer loop
      vertex   -6.692853e+01 1.393904e+02 1.929873e+01
      vertex   -6.692853e+01 1.424957e+02 1.929873e+01
      vertex   -6.661326e+01 1.392948e+02 1.929873e+01
    endloop
  endfacet
  facet normal 0.000000e+00 0.000000e+00 -1.000000e+00
    outer loop
      vertex   -6.661326e+01 1.392948e+02 1.929873e+01
      vertex   -6.661326e+01 1.425913e+02 1.929873e+01
      vertex   -6.628540e+01 1.392625e+02 1.929873e+01
    endloop
  endfacet
  facet normal -0.000000e+00 0.000000e+00 1.000000e+00
    outer loop
      vertex   -6.628540e+01 1.427430e+02 5.979873e+01
      vertex   -6.663656e+01 1.427085e+02 5.979873e+01
      vertex   -6.593424e+01 1.427085e+02 5.979873e+01
    endloop
  endfacet
  facet normal 0.000000e+00 0.000000e+00 1.000000e+00
    outer loop
      vertex   -6.593424e+01 1.427085e+02 5.979873e+01
      vertex   -6.663656e+01 1.427085e+02 5.979873e+01
      vertex   -6.559657e+01 1.426060e+02 5.979873e+01
    endloop
  endfacet
  facet normal 0.000000e+00 0.000000e+00 1.000000e+00
    outer loop
      vertex   -6.559657e+01 1.426060e+02 5.979873e+01
      vertex   -6.663656e+01 1.427085e+02 5.979873e+01
      vertex   -6.697423e+01 1.426060e+02 5.979873e+01
    endloop
  endfacet
  facet normal 0.000000e+00 0.000000e+00 1.000000e+00
    outer loop
      vertex   -6.528537e+01 1.424397e+02 5.979873e+01
      vertex   -6.697423e+01 1.426060e+02 5.979873e+01
      vertex   -6.728543e+01 1.424397e+02 5.979873e+01
    endloop
  endfacet
  facet normal 0.000000e+00 0.000000e+00 1.000000e+00
    outer loop
      vertex   -6.501261e+01 1.422158e+02 5.979873e+01
      vertex   -6.728543e+01 1.424397e+02 5.979873e+01
      vertex   -6.755819e+01 1.422158e+02 5.979873e+01
    endloop
  endfacet
  facet normal 0.000000e+00 0.000000e+00 1.000000e+00
    outer loop
      vertex   -6.478876e+01 1.419431e+02 5.979873e+01
      vertex   -6.755819e+01 1.422158e+02 5.979873e+01
      vertex   -6.778205e+01 1.419431e+02 5.979873e+01
    endloop
  endfacet
  facet normal 0.000000e+00 0.000000e+00 1.000000e+00
    outer loop
      vertex   -6.462242e+01 1.416319e+02 5.979873e+01
      vertex   -6.778205e+01 1.419431e+02 5.979873e+01
      vertex   -6.794838e+01 1.416319e+02 5.979873e+01
    endloop
  endfacet
  facet normal 0.000000e+00 0.000000e+00 1.000000e+00
    outer loop
      vertex   -6.451999e+01 1.412942e+02 5.979873e+01
      vertex   -6.794838e+01 1.416319e+02 5.979873e+01
      vertex   -6.805081e+01 1.412942e+02 5.979873e+01
    endloop
  endfacet
  facet normal 0.000000e+00 0.000000e+00 1.000000e+00
    outer loop
      vertex   -6.448540e+01 1.409430e+02 5.979873e+01
      vertex   -6.805081e+01 1.412942e+02 5.979873e+01
      vertex   -6.808540e+01 1.409430e+02 5.979873e+01
    endloop
  endfacet
  facet normal 0.000000e+00 0.000000e+00 1.000000e+00
    outer loop
      vertex   -6.451999e+01 1.405919e+02 5.979873e+01
      vertex   -6.808540e+01 1.409430e+02 5.979873e+01
      vertex   -6.805081e+01 1.405919e+02 5.979873e+01
    endloop
  endfacet
  facet normal 0.000000e+00 0.000000e+00 1.000000e+00
    outer loop
      vertex   -6.462242e+01 1.402542e+02 5.979873e+01
      vertex   -6.805081e+01 1.405919e+02 5.979873e+01
      vertex   -6.794838e+01 1.402542e+02 5.979873e+01
    endloop
  endfacet
  facet normal 0.000000e+00 0.000000e+00 1.000000e+00
    outer loop
      vertex   -6.478876e+01 1.399430e+02 5.979873e+01
      vertex   -6.794838e+01 1.402542e+02 5.979873e+01
      vertex   -6.778205e+01 1.399430e+02 5.979873e+01
    endloop
  endfacet
  facet normal 0.000000e+00 0.000000e+00 1.000000e+00
    outer loop
      vertex   -6.501261e+01 1.396703e+02 5.979873e+01
      vertex   -6.778205e+01 1.399430e+02 5.979873e+01
      vertex   -6.755819e+01 1.396703e+02 5.979873e+01
    endloop
  endfacet
  facet normal 0.000000e+00 0.000000e+00 1.000000e+00
    outer loop
      vertex   -6.528537e+01 1.394464e+02 5.979873e+01
      vertex   -6.755819e+01 1.396703e+02 5.979873e+01
      vertex   -6.728543e+01 1.394464e+02 5.979873e+01
    endloop
  endfacet
  facet normal 0.000000e+00 0.000000e+00 1.000000e+00
    outer loop
      vertex   -6.559657e+01 1.392801e+02 5.979873e+01
      vertex   -6.728543e+01 1.394464e+02 5.979873e+01
      vertex   -6.697423e+01 1.392801e+02 5.979873e+01
    endloop
  endfacet
  facet normal 0.000000e+00 0.000000e+00 1.000000e+00
    outer loop
      vertex   -6.593424e+01 1.391776e+02 5.979873e+01
      vertex   -6.697423e+01 1.392801e+02 5.979873e+01
      vertex   -6.663656e+01 1.391776e+02 5.979873e+01
    endloop
  endfacet
  facet normal 0.000000e+00 -0.000000e+00 1.000000e+00
    outer loop
      vertex   -6.628540e+01 1.391430e+02 5.979873e+01
      vertex   -6.593424e+01 1.391776e+02 5.979873e+01
      vertex   -6.663656e+01 1.391776e+02 5.979873e+01
    endloop
  endfacet
  facet normal 0.000000e+00 -0.000000e+00 1.000000e+00
    outer loop
      vertex   -6.593424e+01 1.391776e+02 5.979873e+01
      vertex   -6.559657e+01 1.392801e+02 5.979873e+01
      vertex   -6.697423e+01 1.392801e+02 5.979873e+01
    endloop
  endfacet
  facet normal 0.000000e+00 -0.000000e+00 1.000000e+00
    outer loop
      vertex   -6.559657e+01 1.392801e+02 5.979873e+01
      vertex   -6.528537e+01 1.394464e+02 5.979873e+01
      vertex   -6.728543e+01 1.394464e+02 5.979873e+01
    endloop
  endfacet
  facet normal 0.000000e+00 -0.000000e+00 1.000000e+00
    outer loop
      vertex   -6.528537e+01 1.394464e+02 5.979873e+01
      vertex   -6.501261e+01 1.396703e+02 5.979873e+01
      vertex   -6.755819e+01 1.396703e+02 5.979873e+01
    endloop
  endfacet
  facet normal 0.000000e+00 -0.000000e+00 1.000000e+00
    outer loop
      vertex   -6.501261e+01 1.396703e+02 5.979873e+01
      vertex   -6.478876e+01 1.399430e+02 5.979873e+01
      vertex   -6.778205e+01 1.399430e+02 5.979873e+01
    endloop
  endfacet
  facet normal 0.000000e+00 -0.000000e+00 1.000000e+00
    outer loop
      vertex   -6.478876e+01 1.399430e+02 5.979873e+01
      vertex   -6.462242e+01 1.402542e+02 5.979873e+01
      vertex   -6.794838e+01 1.402542e+02 5.979873e+01
    endloop
  endfacet
  facet normal 0.000000e+00 -0.000000e+00 1.000000e+00
    outer loop
      vertex   -6.462242e+01 1.402542e+02 5.979873e+01
      vertex   -6.451999e+01 1.405919e+02 5.979873e+01
      vertex   -6.805081e+01 1.405919e+02 5.979873e+01
    endloop
  endfacet
  facet normal 0.000000e+00 -0.000000e+00 1.000000e+00
    outer loop
      vertex   -6.451999e+01 1.405919e+02 5.979873e+01
      vertex   -6.448540e+01 1.409430e+02 5.979873e+01
      vertex   -6.808540e+01 1.409430e+02 5.979873e+01
    endloop
  endfacet
  facet normal 0.000000e+00 0.000000e+00 1.000000e+00
    outer loop
      vertex   -6.448540e+01 1.409430e+02 5.979873e+01
      vertex   -6.451999e+01 1.412942e+02 5.979873e+01
      vertex   -6.805081e+01 1.412942e+02 5.979873e+01
    endloop
  endfacet
  facet normal 0.000000e+00 0.000000e+00 1.000000e+00
    outer loop
      vertex   -6.451999e+01 1.412942e+02 5.979873e+01
      vertex   -6.462242e+01 1.416319e+02 5.979873e+01
      vertex   -6.794838e+01 1.416319e+02 5.979873e+01
    endloop
  endfacet
  facet normal 0.000000e+00 0.000000e+00 1.000000e+00
    outer loop
      vertex   -6.462242e+01 1.416319e+02 5.979873e+01
      vertex   -6.478876e+01 1.419431e+02 5.979873e+01
      vertex   -6.778205e+01 1.419431e+02 5.979873e+01
    endloop
  endfacet
  facet normal 0.000000e+00 0.000000e+00 1.000000e+00
    outer loop
      vertex   -6.478876e+01 1.419431e+02 5.979873e+01
      vertex   -6.501261e+01 1.422158e+02 5.979873e+01
      vertex   -6.755819e+01 1.422158e+02 5.979873e+01
    endloop
  endfacet
  facet normal 0.000000e+00 0.000000e+00 1.000000e+00
    outer loop
      vertex   -6.501261e+01 1.422158e+02 5.979873e+01
      vertex   -6.528537e+01 1.424397e+02 5.979873e+01
      vertex   -6.728543e+01 1.424397e+02 5.979873e+01
    endloop
  endfacet
  facet normal 0.000000e+00 0.000000e+00 1.000000e+00
    outer loop
      vertex   -6.528537e+01 1.424397e+02 5.979873e+01
      vertex   -6.559657e+01 1.426060e+02 5.979873e+01
      vertex   -6.697423e+01 1.426060e+02 5.979873e+01
    endloop
  endfacet
  facet normal -9.792124e-02 9.942111e-01 4.422459e-02
    outer loop
      vertex   -6.628540e+01 1.434430e+02 5.609873e+01
      vertex   -6.628540e+01 1.442660e+02 3.759873e+01
      vertex   -6.677313e+01 1.433950e+02 5.609873e+01
    endloop
  endfacet
  facet normal -9.792124e-02 9.942111e-01 4.422459e-02
    outer loop
      vertex   -6.677313e+01 1.433950e+02 5.609873e+01
      vertex   -6.628540e+01 1.442660e+02 3.759873e+01
      vertex   -6.693367e+01 1.442021e+02 3.759873e+01
    endloop
  endfacet
  facet normal -2.900007e-01 9.560041e-01 4.422459e-02
    outer loop
      vertex   -6.755703e+01 1.440130e+02 3.759873e+01
      vertex   -6.677313e+01 1.433950e+02 5.609873e+01
      vertex   -6.693367e+01 1.442021e+02 3.759873e+01
    endloop
  endfacet
  facet normal -2.900007e-01 9.560041e-01 4.422459e-02
    outer loop
      vertex   -6.755703e+01 1.440130e+02 3.759873e+01
      vertex   -6.724211e+01 1.432527e+02 5.609873e+01
      vertex   -6.677313e+01 1.433950e+02 5.609873e+01
    endloop
  endfacet
  facet normal -4.709355e-01 8.810584e-01 4.422459e-02
    outer loop
      vertex   -6.755703e+01 1.440130e+02 3.759873e+01
      vertex   -6.813152e+01 1.437060e+02 3.759873e+01
      vertex   -6.724211e+01 1.432527e+02 5.609873e+01
    endloop
  endfacet
  facet normal -4.709355e-01 8.810584e-01 4.422459e-02
    outer loop
      vertex   -6.724211e+01 1.432527e+02 5.609873e+01
      vertex   -6.813152e+01 1.437060e+02 3.759873e+01
      vertex   -6.767433e+01 1.430217e+02 5.609873e+01
    endloop
  endfacet
  facet normal -6.337726e-01 7.722542e-01 4.422459e-02
    outer loop
      vertex   -6.767433e+01 1.430217e+02 5.609873e+01
      vertex   -6.813152e+01 1.437060e+02 3.759873e+01
      vertex   -6.863506e+01 1.432927e+02 3.759873e+01
    endloop
  endfacet
  facet normal -7.722542e-01 6.337726e-01 4.422459e-02
    outer loop
      vertex   -6.805317e+01 1.427108e+02 5.609873e+01
      vertex   -6.863506e+01 1.432927e+02 3.759873e+01
      vertex   -6.904831e+01 1.427892e+02 3.759873e+01
    endloop
  endfacet
  facet normal -8.810584e-01 4.709355e-01 4.422459e-02
    outer loop
      vertex   -6.836407e+01 1.423320e+02 5.609873e+01
      vertex   -6.904831e+01 1.427892e+02 3.759873e+01
      vertex   -6.859510e+01 1.418998e+02 5.609873e+01
    endloop
  endfacet
  facet normal -7.722542e-01 6.337726e-01 4.422459e-02
    outer loop
      vertex   -6.836407e+01 1.423320e+02 5.609873e+01
      vertex   -6.805317e+01 1.427108e+02 5.609873e+01
      vertex   -6.904831e+01 1.427892e+02 3.759873e+01
    endloop
  endfacet
  facet normal -8.810584e-01 4.709355e-01 4.422459e-02
    outer loop
      vertex   -6.904831e+01 1.427892e+02 3.759873e+01
      vertex   -6.935538e+01 1.422147e+02 3.759873e+01
      vertex   -6.859510e+01 1.418998e+02 5.609873e+01
    endloop
  endfacet
  facet normal -9.560041e-01 2.900007e-01 4.422459e-02
    outer loop
      vertex   -6.859510e+01 1.418998e+02 5.609873e+01
      vertex   -6.935538e+01 1.422147e+02 3.759873e+01
      vertex   -6.954447e+01 1.415913e+02 3.759873e+01
    endloop
  endfacet
  facet normal -9.942111e-01 9.792124e-02 4.422459e-02
    outer loop
      vertex   -6.873736e+01 1.414308e+02 5.609873e+01
      vertex   -6.954447e+01 1.415913e+02 3.759873e+01
      vertex   -6.960832e+01 1.409430e+02 3.759873e+01
    endloop
  endfacet
  facet normal -9.942111e-01 -9.792124e-02 4.422459e-02
    outer loop
      vertex   -6.878540e+01 1.409430e+02 5.609873e+01
      vertex   -6.960832e+01 1.409430e+02 3.759873e+01
      vertex   -6.954447e+01 1.402948e+02 3.759873e+01
    endloop
  endfacet
  facet normal -9.560041e-01 -2.900007e-01 4.422459e-02
    outer loop
      vertex   -6.873736e+01 1.404553e+02 5.609873e+01
      vertex   -6.954447e+01 1.402948e+02 3.759873e+01
      vertex   -6.935538e+01 1.396714e+02 3.759873e+01
    endloop
  endfacet
  facet normal -8.810584e-01 -4.709355e-01 4.422459e-02
    outer loop
      vertex   -6.859510e+01 1.399863e+02 5.609873e+01
      vertex   -6.935538e+01 1.396714e+02 3.759873e+01
      vertex   -6.836407e+01 1.395541e+02 5.609873e+01
    endloop
  endfacet
  facet normal -9.560041e-01 -2.900007e-01 4.422459e-02
    outer loop
      vertex   -6.859510e+01 1.399863e+02 5.609873e+01
      vertex   -6.873736e+01 1.404553e+02 5.609873e+01
      vertex   -6.935538e+01 1.396714e+02 3.759873e+01
    endloop
  endfacet
  facet normal -8.810584e-01 -4.709355e-01 4.422459e-02
    outer loop
      vertex   -6.935538e+01 1.396714e+02 3.759873e+01
      vertex   -6.904831e+01 1.390969e+02 3.759873e+01
      vertex   -6.836407e+01 1.395541e+02 5.609873e+01
    endloop
  endfacet
  facet normal -7.722542e-01 -6.337726e-01 4.422459e-02
    outer loop
      vertex   -6.836407e+01 1.395541e+02 5.609873e+01
      vertex   -6.904831e+01 1.390969e+02 3.759873e+01
      vertex   -6.863506e+01 1.385934e+02 3.759873e+01
    endloop
  endfacet
  facet normal -6.337726e-01 -7.722542e-01 4.422459e-02
    outer loop
      vertex   -6.805317e+01 1.391753e+02 5.609873e+01
      vertex   -6.863506e+01 1.385934e+02 3.759873e+01
      vertex   -6.813152e+01 1.381801e+02 3.759873e+01
    endloop
  endfacet
  facet normal -4.709355e-01 -8.810584e-01 4.422459e-02
    outer loop
      vertex   -6.767433e+01 1.388644e+02 5.609873e+01
      vertex   -6.813152e+01 1.381801e+02 3.759873e+01
      vertex   -6.755703e+01 1.378731e+02 3.759873e+01
    endloop
  endfacet
  facet normal -2.900007e-01 -9.560041e-01 4.422459e-02
    outer loop
      vertex   -6.724211e+01 1.386333e+02 5.609873e+01
      vertex   -6.755703e+01 1.378731e+02 3.759873e+01
      vertex   -6.693367e+01 1.376840e+02 3.759873e+01
    endloop
  endfacet
  facet normal -9.792124e-02 -9.942111e-01 4.422459e-02
    outer loop
      vertex   -6.677313e+01 1.384911e+02 5.609873e+01
      vertex   -6.693367e+01 1.376840e+02 3.759873e+01
      vertex   -6.628540e+01 1.384430e+02 5.609873e+01
    endloop
  endfacet
  facet normal -2.900007e-01 -9.560041e-01 4.422459e-02
    outer loop
      vertex   -6.677313e+01 1.384911e+02 5.609873e+01
      vertex   -6.724211e+01 1.386333e+02 5.609873e+01
      vertex   -6.693367e+01 1.376840e+02 3.759873e+01
    endloop
  endfacet
  facet normal -9.792124e-02 -9.942111e-01 4.422459e-02
    outer loop
      vertex   -6.693367e+01 1.376840e+02 3.759873e+01
      vertex   -6.628540e+01 1.376201e+02 3.759873e+01
      vertex   -6.628540e+01 1.384430e+02 5.609873e+01
    endloop
  endfacet
  facet normal -4.709355e-01 -8.810584e-01 4.422459e-02
    outer loop
      vertex   -6.724211e+01 1.386333e+02 5.609873e+01
      vertex   -6.767433e+01 1.388644e+02 5.609873e+01
      vertex   -6.755703e+01 1.378731e+02 3.759873e+01
    endloop
  endfacet
  facet normal -6.337726e-01 -7.722542e-01 4.422459e-02
    outer loop
      vertex   -6.767433e+01 1.388644e+02 5.609873e+01
      vertex   -6.805317e+01 1.391753e+02 5.609873e+01
      vertex   -6.813152e+01 1.381801e+02 3.759873e+01
    endloop
  endfacet
  facet normal -7.722542e-01 -6.337726e-01 4.422459e-02
    outer loop
      vertex   -6.805317e+01 1.391753e+02 5.609873e+01
      vertex   -6.836407e+01 1.395541e+02 5.609873e+01
      vertex   -6.863506e+01 1.385934e+02 3.759873e+01
    endloop
  endfacet
  facet normal -9.942111e-01 -9.792124e-02 4.422459e-02
    outer loop
      vertex   -6.873736e+01 1.404553e+02 5.609873e+01
      vertex   -6.878540e+01 1.409430e+02 5.609873e+01
      vertex   -6.954447e+01 1.402948e+02 3.759873e+01
    endloop
  endfacet
  facet normal -9.942111e-01 9.792124e-02 4.422459e-02
    outer loop
      vertex   -6.878540e+01 1.409430e+02 5.609873e+01
      vertex   -6.873736e+01 1.414308e+02 5.609873e+01
      vertex   -6.960832e+01 1.409430e+02 3.759873e+01
    endloop
  endfacet
  facet normal -9.560041e-01 2.900007e-01 4.422459e-02
    outer loop
      vertex   -6.873736e+01 1.414308e+02 5.609873e+01
      vertex   -6.859510e+01 1.418998e+02 5.609873e+01
      vertex   -6.954447e+01 1.415913e+02 3.759873e+01
    endloop
  endfacet
  facet normal -6.337726e-01 7.722542e-01 4.422459e-02
    outer loop
      vertex   -6.805317e+01 1.427108e+02 5.609873e+01
      vertex   -6.767433e+01 1.430217e+02 5.609873e+01
      vertex   -6.863506e+01 1.432927e+02 3.759873e+01
    endloop
  endfacet
  facet normal -9.800236e-02 9.950346e-01 -1.736839e-02
    outer loop
      vertex   -6.628540e+01 1.429430e+02 3.759873e+01
      vertex   -6.628540e+01 1.426236e+02 1.929873e+01
      vertex   -6.667558e+01 1.429046e+02 3.759873e+01
    endloop
  endfacet
  facet normal -9.800236e-02 9.950346e-01 -1.736839e-02
    outer loop
      vertex   -6.667558e+01 1.429046e+02 3.759873e+01
      vertex   -6.628540e+01 1.426236e+02 1.929873e+01
      vertex   -6.661326e+01 1.425913e+02 1.929873e+01
    endloop
  endfacet
  facet normal -2.902409e-01 9.567960e-01 -1.736839e-02
    outer loop
      vertex   -6.692853e+01 1.424957e+02 1.929873e+01
      vertex   -6.667558e+01 1.429046e+02 3.759873e+01
      vertex   -6.661326e+01 1.425913e+02 1.929873e+01
    endloop
  endfacet
  facet normal -2.902409e-01 9.567960e-01 -1.736839e-02
    outer loop
      vertex   -6.692853e+01 1.424957e+02 1.929873e+01
      vertex   -6.705077e+01 1.427908e+02 3.759873e+01
      vertex   -6.667558e+01 1.429046e+02 3.759873e+01
    endloop
  endfacet
  facet normal -4.713256e-01 8.817882e-01 -1.736839e-02
    outer loop
      vertex   -6.692853e+01 1.424957e+02 1.929873e+01
      vertex   -6.721908e+01 1.423404e+02 1.929873e+01
      vertex   -6.705077e+01 1.427908e+02 3.759873e+01
    endloop
  endfacet
  facet normal -4.713256e-01 8.817882e-01 -1.736839e-02
    outer loop
      vertex   -6.705077e+01 1.427908e+02 3.759873e+01
      vertex   -6.721908e+01 1.423404e+02 1.929873e+01
      vertex   -6.739654e+01 1.426060e+02 3.759873e+01
    endloop
  endfacet
  facet normal -6.342976e-01 7.728939e-01 -1.736839e-02
    outer loop
      vertex   -6.739654e+01 1.426060e+02 3.759873e+01
      vertex   -6.721908e+01 1.423404e+02 1.929873e+01
      vertex   -6.747374e+01 1.421314e+02 1.929873e+01
    endloop
  endfacet
  facet normal -7.728939e-01 6.342976e-01 -1.736839e-02
    outer loop
      vertex   -6.769961e+01 1.423573e+02 3.759873e+01
      vertex   -6.747374e+01 1.421314e+02 1.929873e+01
      vertex   -6.768275e+01 1.418767e+02 1.929873e+01
    endloop
  endfacet
  facet normal -8.817882e-01 4.713256e-01 -1.736839e-02
    outer loop
      vertex   -6.794834e+01 1.420542e+02 3.759873e+01
      vertex   -6.768275e+01 1.418767e+02 1.929873e+01
      vertex   -6.813316e+01 1.417084e+02 3.759873e+01
    endloop
  endfacet
  facet normal -7.728939e-01 6.342976e-01 -1.736839e-02
    outer loop
      vertex   -6.794834e+01 1.420542e+02 3.759873e+01
      vertex   -6.769961e+01 1.423573e+02 3.759873e+01
      vertex   -6.768275e+01 1.418767e+02 1.929873e+01
    endloop
  endfacet
  facet normal -8.817882e-01 4.713256e-01 -1.736839e-02
    outer loop
      vertex   -6.768275e+01 1.418767e+02 1.929873e+01
      vertex   -6.783805e+01 1.415862e+02 1.929873e+01
      vertex   -6.813316e+01 1.417084e+02 3.759873e+01
    endloop
  endfacet
  facet normal -9.567960e-01 2.902409e-01 -1.736839e-02
    outer loop
      vertex   -6.813316e+01 1.417084e+02 3.759873e+01
      vertex   -6.783805e+01 1.415862e+02 1.929873e+01
      vertex   -6.793368e+01 1.412709e+02 1.929873e+01
    endloop
  endfacet
  facet normal -9.950346e-01 9.800236e-02 -1.736839e-02
    outer loop
      vertex   -6.824697e+01 1.413332e+02 3.759873e+01
      vertex   -6.793368e+01 1.412709e+02 1.929873e+01
      vertex   -6.796597e+01 1.409430e+02 1.929873e+01
    endloop
  endfacet
  facet normal -9.950346e-01 -9.800236e-02 -1.736839e-02
    outer loop
      vertex   -6.828540e+01 1.409430e+02 3.759873e+01
      vertex   -6.796597e+01 1.409430e+02 1.929873e+01
      vertex   -6.793368e+01 1.406152e+02 1.929873e+01
    endloop
  endfacet
  facet normal -9.567960e-01 -2.902409e-01 -1.736839e-02
    outer loop
      vertex   -6.824697e+01 1.405529e+02 3.759873e+01
      vertex   -6.793368e+01 1.406152e+02 1.929873e+01
      vertex   -6.783805e+01 1.402999e+02 1.929873e+01
    endloop
  endfacet
  facet normal -8.817882e-01 -4.713256e-01 -1.736839e-02
    outer loop
      vertex   -6.813316e+01 1.401777e+02 3.759873e+01
      vertex   -6.783805e+01 1.402999e+02 1.929873e+01
      vertex   -6.794834e+01 1.398319e+02 3.759873e+01
    endloop
  endfacet
  facet normal -9.567960e-01 -2.902409e-01 -1.736839e-02
    outer loop
      vertex   -6.813316e+01 1.401777e+02 3.759873e+01
      vertex   -6.824697e+01 1.405529e+02 3.759873e+01
      vertex   -6.783805e+01 1.402999e+02 1.929873e+01
    endloop
  endfacet
  facet normal -8.817882e-01 -4.713256e-01 -1.736839e-02
    outer loop
      vertex   -6.783805e+01 1.402999e+02 1.929873e+01
      vertex   -6.768275e+01 1.400094e+02 1.929873e+01
      vertex   -6.794834e+01 1.398319e+02 3.759873e+01
    endloop
  endfacet
  facet normal -7.728939e-01 -6.342976e-01 -1.736839e-02
    outer loop
      vertex   -6.794834e+01 1.398319e+02 3.759873e+01
      vertex   -6.768275e+01 1.400094e+02 1.929873e+01
      vertex   -6.747374e+01 1.397547e+02 1.929873e+01
    endloop
  endfacet
  facet normal -6.342976e-01 -7.728939e-01 -1.736839e-02
    outer loop
      vertex   -6.769961e+01 1.395288e+02 3.759873e+01
      vertex   -6.747374e+01 1.397547e+02 1.929873e+01
      vertex   -6.721908e+01 1.395457e+02 1.929873e+01
    endloop
  endfacet
  facet normal -4.713256e-01 -8.817882e-01 -1.736839e-02
    outer loop
      vertex   -6.739654e+01 1.392801e+02 3.759873e+01
      vertex   -6.721908e+01 1.395457e+02 1.929873e+01
      vertex   -6.692853e+01 1.393904e+02 1.929873e+01
    endloop
  endfacet
  facet normal -2.902409e-01 -9.567960e-01 -1.736839e-02
    outer loop
      vertex   -6.705077e+01 1.390953e+02 3.759873e+01
      vertex   -6.692853e+01 1.393904e+02 1.929873e+01
      vertex   -6.661326e+01 1.392948e+02 1.929873e+01
    endloop
  endfacet
  facet normal -9.800236e-02 -9.950346e-01 -1.736839e-02
    outer loop
      vertex   -6.667558e+01 1.389815e+02 3.759873e+01
      vertex   -6.661326e+01 1.392948e+02 1.929873e+01
      vertex   -6.628540e+01 1.389430e+02 3.759873e+01
    endloop
  endfacet
  facet normal -2.902409e-01 -9.567960e-01 -1.736839e-02
    outer loop
      vertex   -6.667558e+01 1.389815e+02 3.759873e+01
      vertex   -6.705077e+01 1.390953e+02 3.759873e+01
      vertex   -6.661326e+01 1.392948e+02 1.929873e+01
    endloop
  endfacet
  facet normal -9.800236e-02 -9.950346e-01 -1.736839e-02
    outer loop
      vertex   -6.661326e+01 1.392948e+02 1.929873e+01
      vertex   -6.628540e+01 1.392625e+02 1.929873e+01
      vertex   -6.628540e+01 1.389430e+02 3.759873e+01
    endloop
  endfacet
  facet normal -4.713256e-01 -8.817882e-01 -1.736839e-02
    outer loop
      vertex   -6.705077e+01 1.390953e+02 3.759873e+01
      vertex   -6.739654e+01 1.392801e+02 3.759873e+01
      vertex   -6.692853e+01 1.393904e+02 1.929873e+01
    endloop
  endfacet
  facet normal -6.342976e-01 -7.728939e-01 -1.736839e-02
    outer loop
      vertex   -6.739654e+01 1.392801e+02 3.759873e+01
      vertex   -6.769961e+01 1.395288e+02 3.759873e+01
      vertex   -6.721908e+01 1.395457e+02 1.929873e+01
    endloop
  endfacet
  facet normal -7.728939e-01 -6.342976e-01 -1.736839e-02
    outer loop
      vertex   -6.769961e+01 1.395288e+02 3.759873e+01
      vertex   -6.794834e+01 1.398319e+02 3.759873e+01
      vertex   -6.747374e+01 1.397547e+02 1.929873e+01
    endloop
  endfacet
  facet normal -9.950346e-01 -9.800236e-02 -1.736839e-02
    outer loop
      vertex   -6.824697e+01 1.405529e+02 3.759873e+01
      vertex   -6.828540e+01 1.409430e+02 3.759873e+01
      vertex   -6.793368e+01 1.406152e+02 1.929873e+01
    endloop
  endfacet
  facet normal -9.950346e-01 9.800236e-02 -1.736839e-02
    outer loop
      vertex   -6.828540e+01 1.409430e+02 3.759873e+01
      vertex   -6.824697e+01 1.413332e+02 3.759873e+01
      vertex   -6.796597e+01 1.409430e+02 1.929873e+01
    endloop
  endfacet
  facet normal -9.567960e-01 2.902409e-01 -1.736839e-02
    outer loop
      vertex   -6.824697e+01 1.413332e+02 3.759873e+01
      vertex   -6.813316e+01 1.417084e+02 3.759873e+01
      vertex   -6.793368e+01 1.412709e+02 1.929873e+01
    endloop
  endfacet
  facet normal -6.342976e-01 7.728939e-01 -1.736839e-02
    outer loop
      vertex   -6.769961e+01 1.423573e+02 3.759873e+01
      vertex   -6.739654e+01 1.426060e+02 3.759873e+01
      vertex   -6.747374e+01 1.421314e+02 1.929873e+01
    endloop
  endfacet
  facet normal 9.801714e-02 9.951847e-01 -0.000000e+00
    outer loop
      vertex   -6.628540e+01 1.427430e+02 5.609873e+01
      vertex   -6.628540e+01 1.427430e+02 5.979873e+01
      vertex   -6.593424e+01 1.427085e+02 5.609873e+01
    endloop
  endfacet
  facet normal 9.801714e-02 9.951847e-01 0.000000e+00
    outer loop
      vertex   -6.593424e+01 1.427085e+02 5.609873e+01
      vertex   -6.628540e+01 1.427430e+02 5.979873e+01
      vertex   -6.593424e+01 1.427085e+02 5.979873e+01
    endloop
  endfacet
  facet normal 2.902847e-01 9.569403e-01 -0.000000e+00
    outer loop
      vertex   -6.559657e+01 1.426060e+02 5.979873e+01
      vertex   -6.593424e+01 1.427085e+02 5.609873e+01
      vertex   -6.593424e+01 1.427085e+02 5.979873e+01
    endloop
  endfacet
  facet normal 2.902847e-01 9.569403e-01 0.000000e+00
    outer loop
      vertex   -6.559657e+01 1.426060e+02 5.979873e+01
      vertex   -6.559657e+01 1.426060e+02 5.609873e+01
      vertex   -6.593424e+01 1.427085e+02 5.609873e+01
    endloop
  endfacet
  facet normal 4.713967e-01 8.819213e-01 0.000000e+00
    outer loop
      vertex   -6.559657e+01 1.426060e+02 5.979873e+01
      vertex   -6.528537e+01 1.424397e+02 5.979873e+01
      vertex   -6.559657e+01 1.426060e+02 5.609873e+01
    endloop
  endfacet
  facet normal 4.713967e-01 8.819213e-01 0.000000e+00
    outer loop
      vertex   -6.559657e+01 1.426060e+02 5.609873e+01
      vertex   -6.528537e+01 1.424397e+02 5.979873e+01
      vertex   -6.528537e+01 1.424397e+02 5.609873e+01
    endloop
  endfacet
  facet normal 6.343933e-01 7.730105e-01 -0.000000e+00
    outer loop
      vertex   -6.528537e+01 1.424397e+02 5.609873e+01
      vertex   -6.528537e+01 1.424397e+02 5.979873e+01
      vertex   -6.501261e+01 1.422158e+02 5.979873e+01
    endloop
  endfacet
  facet normal 7.730105e-01 6.343933e-01 -0.000000e+00
    outer loop
      vertex   -6.501261e+01 1.422158e+02 5.609873e+01
      vertex   -6.501261e+01 1.422158e+02 5.979873e+01
      vertex   -6.478876e+01 1.419431e+02 5.979873e+01
    endloop
  endfacet
  facet normal 8.819213e-01 4.713967e-01 -0.000000e+00
    outer loop
      vertex   -6.478876e+01 1.419431e+02 5.609873e+01
      vertex   -6.478876e+01 1.419431e+02 5.979873e+01
      vertex   -6.462242e+01 1.416319e+02 5.609873e+01
    endloop
  endfacet
  facet normal 7.730105e-01 6.343933e-01 0.000000e+00
    outer loop
      vertex   -6.478876e+01 1.419431e+02 5.609873e+01
      vertex   -6.501261e+01 1.422158e+02 5.609873e+01
      vertex   -6.478876e+01 1.419431e+02 5.979873e+01
    endloop
  endfacet
  facet normal 8.819213e-01 4.713967e-01 0.000000e+00
    outer loop
      vertex   -6.478876e+01 1.419431e+02 5.979873e+01
      vertex   -6.462242e+01 1.416319e+02 5.979873e+01
      vertex   -6.462242e+01 1.416319e+02 5.609873e+01
    endloop
  endfacet
  facet normal 9.569403e-01 2.902847e-01 -0.000000e+00
    outer loop
      vertex   -6.462242e+01 1.416319e+02 5.609873e+01
      vertex   -6.462242e+01 1.416319e+02 5.979873e+01
      vertex   -6.451999e+01 1.412942e+02 5.979873e+01
    endloop
  endfacet
  facet normal 9.951847e-01 9.801714e-02 -0.000000e+00
    outer loop
      vertex   -6.451999e+01 1.412942e+02 5.609873e+01
      vertex   -6.451999e+01 1.412942e+02 5.979873e+01
      vertex   -6.448540e+01 1.409430e+02 5.979873e+01
    endloop
  endfacet
  facet normal 9.951847e-01 -9.801714e-02 0.000000e+00
    outer loop
      vertex   -6.448540e+01 1.409430e+02 5.609873e+01
      vertex   -6.448540e+01 1.409430e+02 5.979873e+01
      vertex   -6.451999e+01 1.405919e+02 5.979873e+01
    endloop
  endfacet
  facet normal 9.569403e-01 -2.902847e-01 0.000000e+00
    outer loop
      vertex   -6.451999e+01 1.405919e+02 5.609873e+01
      vertex   -6.451999e+01 1.405919e+02 5.979873e+01
      vertex   -6.462242e+01 1.402542e+02 5.979873e+01
    endloop
  endfacet
  facet normal 8.819213e-01 -4.713967e-01 0.000000e+00
    outer loop
      vertex   -6.462242e+01 1.402542e+02 5.609873e+01
      vertex   -6.462242e+01 1.402542e+02 5.979873e+01
      vertex   -6.478876e+01 1.399430e+02 5.609873e+01
    endloop
  endfacet
  facet normal 9.569403e-01 -2.902847e-01 0.000000e+00
    outer loop
      vertex   -6.462242e+01 1.402542e+02 5.609873e+01
      vertex   -6.451999e+01 1.405919e+02 5.609873e+01
      vertex   -6.462242e+01 1.402542e+02 5.979873e+01
    endloop
  endfacet
  facet normal 8.819213e-01 -4.713967e-01 0.000000e+00
    outer loop
      vertex   -6.462242e+01 1.402542e+02 5.979873e+01
      vertex   -6.478876e+01 1.399430e+02 5.979873e+01
      vertex   -6.478876e+01 1.399430e+02 5.609873e+01
    endloop
  endfacet
  facet normal 7.730105e-01 -6.343933e-01 0.000000e+00
    outer loop
      vertex   -6.478876e+01 1.399430e+02 5.609873e+01
      vertex   -6.478876e+01 1.399430e+02 5.979873e+01
      vertex   -6.501261e+01 1.396703e+02 5.979873e+01
    endloop
  endfacet
  facet normal 6.343933e-01 -7.730105e-01 0.000000e+00
    outer loop
      vertex   -6.501261e+01 1.396703e+02 5.609873e+01
      vertex   -6.501261e+01 1.396703e+02 5.979873e+01
      vertex   -6.528537e+01 1.394464e+02 5.979873e+01
    endloop
  endfacet
  facet normal 4.713967e-01 -8.819213e-01 0.000000e+00
    outer loop
      vertex   -6.528537e+01 1.394464e+02 5.609873e+01
      vertex   -6.528537e+01 1.394464e+02 5.979873e+01
      vertex   -6.559657e+01 1.392801e+02 5.979873e+01
    endloop
  endfacet
  facet normal 2.902847e-01 -9.569403e-01 0.000000e+00
    outer loop
      vertex   -6.559657e+01 1.392801e+02 5.609873e+01
      vertex   -6.559657e+01 1.392801e+02 5.979873e+01
      vertex   -6.593424e+01 1.391776e+02 5.979873e+01
    endloop
  endfacet
  facet normal 9.801714e-02 -9.951847e-01 0.000000e+00
    outer loop
      vertex   -6.593424e+01 1.391776e+02 5.609873e+01
      vertex   -6.593424e+01 1.391776e+02 5.979873e+01
      vertex   -6.628540e+01 1.391430e+02 5.609873e+01
    endloop
  endfacet
  facet normal 2.902847e-01 -9.569403e-01 0.000000e+00
    outer loop
      vertex   -6.593424e+01 1.391776e+02 5.609873e+01
      vertex   -6.559657e+01 1.392801e+02 5.609873e+01
      vertex   -6.593424e+01 1.391776e+02 5.979873e+01
    endloop
  endfacet
  facet normal 9.801714e-02 -9.951847e-01 0.000000e+00
    outer loop
      vertex   -6.593424e+01 1.391776e+02 5.979873e+01
      vertex   -6.628540e+01 1.391430e+02 5.979873e+01
      vertex   -6.628540e+01 1.391430e+02 5.609873e+01
    endloop
  endfacet
  facet normal 4.713967e-01 -8.819213e-01 0.000000e+00
    outer loop
      vertex   -6.559657e+01 1.392801e+02 5.609873e+01
      vertex   -6.528537e+01 1.394464e+02 5.609873e+01
      vertex   -6.559657e+01 1.392801e+02 5.979873e+01
    endloop
  endfacet
  facet normal 6.343933e-01 -7.730105e-01 0.000000e+00
    outer loop
      vertex   -6.528537e+01 1.394464e+02 5.609873e+01
      vertex   -6.501261e+01 1.396703e+02 5.609873e+01
      vertex   -6.528537e+01 1.394464e+02 5.979873e+01
    endloop
  endfacet
  facet normal 7.730105e-01 -6.343933e-01 0.000000e+00
    outer loop
      vertex   -6.501261e+01 1.396703e+02 5.609873e+01
      vertex   -6.478876e+01 1.399430e+02 5.609873e+01
      vertex   -6.501261e+01 1.396703e+02 5.979873e+01
    endloop
  endfacet
  facet normal 9.951847e-01 -9.801714e-02 0.000000e+00
    outer loop
      vertex   -6.451999e+01 1.405919e+02 5.609873e+01
      vertex   -6.448540e+01 1.409430e+02 5.609873e+01
      vertex   -6.451999e+01 1.405919e+02 5.979873e+01
    endloop
  endfacet
  facet normal 9.951847e-01 9.801714e-02 0.000000e+00
    outer loop
      vertex   -6.448540e+01 1.409430e+02 5.609873e+01
      vertex   -6.451999e+01 1.412942e+02 5.609873e+01
      vertex   -6.448540e+01 1.409430e+02 5.979873e+01
    endloop
  endfacet
  facet normal 9.569403e-01 2.902847e-01 0.000000e+00
    outer loop
      vertex   -6.451999e+01 1.412942e+02 5.609873e+01
      vertex   -6.462242e+01 1.416319e+02 5.609873e+01
      vertex   -6.451999e+01 1.412942e+02 5.979873e+01
    endloop
  endfacet
  facet normal 6.343933e-01 7.730105e-01 0.000000e+00
    outer loop
      vertex   -6.501261e+01 1.422158e+02 5.609873e+01
      vertex   -6.528537e+01 1.424397e+02 5.609873e+01
      vertex   -6.501261e+01 1.422158e+02 5.979873e+01
    endloop
  endfacet
endsolid
