solid ascii
  facet normal -9.764907e-02 1.404152e-05 -9.952209e-01
    outer loop
      vertex   -2.389280e+02 9.122594e+01 1.261939e+02
      vertex   -2.389285e+02 8.722594e+01 1.261939e+02
      vertex   -2.400986e+02 9.122611e+01 1.263087e+02
    endloop
  endfacet
  facet normal -9.764907e-02 1.404152e-05 -9.952209e-01
    outer loop
      vertex   -2.400986e+02 9.122611e+01 1.263087e+02
      vertex   -2.389285e+02 8.722594e+01 1.261939e+02
      vertex   -2.400991e+02 8.722611e+01 1.263087e+02
    endloop
  endfacet
  facet normal -2.899307e-01 4.169080e-05 -9.570476e-01
    outer loop
      vertex   -2.412248e+02 8.722627e+01 1.266498e+02
      vertex   -2.400986e+02 9.122611e+01 1.263087e+02
      vertex   -2.400991e+02 8.722611e+01 1.263087e+02
    endloop
  endfacet
  facet normal -2.899307e-01 4.169080e-05 -9.570476e-01
    outer loop
      vertex   -2.412248e+02 8.722627e+01 1.266498e+02
      vertex   -2.412242e+02 9.122627e+01 1.266498e+02
      vertex   -2.400986e+02 9.122611e+01 1.263087e+02
    endloop
  endfacet
  facet normal -4.710705e-01 6.773793e-05 -8.820955e-01
    outer loop
      vertex   -2.412248e+02 8.722627e+01 1.266498e+02
      vertex   -2.422623e+02 8.722642e+01 1.272038e+02
      vertex   -2.412242e+02 9.122627e+01 1.266498e+02
    endloop
  endfacet
  facet normal -4.710705e-01 6.773793e-05 -8.820955e-01
    outer loop
      vertex   -2.412242e+02 9.122627e+01 1.266498e+02
      vertex   -2.422623e+02 8.722642e+01 1.272038e+02
      vertex   -2.422618e+02 9.122642e+01 1.272038e+02
    endloop
  endfacet
  facet normal -6.341073e-01 9.118193e-05 -7.732450e-01
    outer loop
      vertex   -2.422618e+02 9.122642e+01 1.272038e+02
      vertex   -2.422623e+02 8.722642e+01 1.272038e+02
      vertex   -2.431718e+02 8.722655e+01 1.279497e+02
    endloop
  endfacet
  facet normal -7.727758e-01 1.111219e-04 -6.346791e-01
    outer loop
      vertex   -2.431713e+02 9.122655e+01 1.279497e+02
      vertex   -2.431718e+02 8.722655e+01 1.279497e+02
      vertex   -2.439183e+02 8.722666e+01 1.288586e+02
    endloop
  endfacet
  facet normal -8.817469e-01 1.267914e-04 -4.717229e-01
    outer loop
      vertex   -2.439178e+02 9.122666e+01 1.288586e+02
      vertex   -2.439183e+02 8.722666e+01 1.288586e+02
      vertex   -2.444732e+02 8.722674e+01 1.298957e+02
    endloop
  endfacet
  facet normal -9.568329e-01 1.375885e-04 -2.906386e-01
    outer loop
      vertex   -2.444726e+02 9.122674e+01 1.298957e+02
      vertex   -2.444732e+02 8.722674e+01 1.298957e+02
      vertex   -2.448150e+02 8.722679e+01 1.310212e+02
    endloop
  endfacet
  facet normal -9.951484e-01 1.430981e-04 -9.838520e-02
    outer loop
      vertex   -2.448145e+02 9.122679e+01 1.310212e+02
      vertex   -2.448150e+02 8.722679e+01 1.310212e+02
      vertex   -2.449302e+02 9.122680e+01 1.321917e+02
    endloop
  endfacet
  facet normal -9.568329e-01 1.375885e-04 -2.906386e-01
    outer loop
      vertex   -2.448145e+02 9.122679e+01 1.310212e+02
      vertex   -2.444726e+02 9.122674e+01 1.298957e+02
      vertex   -2.448150e+02 8.722679e+01 1.310212e+02
    endloop
  endfacet
  facet normal -9.951484e-01 1.430981e-04 -9.838520e-02
    outer loop
      vertex   -2.448150e+02 8.722679e+01 1.310212e+02
      vertex   -2.449308e+02 8.722680e+01 1.321917e+02
      vertex   -2.449302e+02 9.122680e+01 1.321917e+02
    endloop
  endfacet
  facet normal -9.952209e-01 1.431085e-04 9.764907e-02
    outer loop
      vertex   -2.449302e+02 9.122680e+01 1.321917e+02
      vertex   -2.449308e+02 8.722680e+01 1.321917e+02
      vertex   -2.448153e+02 9.122679e+01 1.333623e+02
    endloop
  endfacet
  facet normal -9.952209e-01 1.431085e-04 9.764907e-02
    outer loop
      vertex   -2.448153e+02 9.122679e+01 1.333623e+02
      vertex   -2.449308e+02 8.722680e+01 1.321917e+02
      vertex   -2.448159e+02 8.722679e+01 1.333623e+02
    endloop
  endfacet
  facet normal -9.570476e-01 1.376194e-04 2.899307e-01
    outer loop
      vertex   -2.444749e+02 8.722674e+01 1.344879e+02
      vertex   -2.448153e+02 9.122679e+01 1.333623e+02
      vertex   -2.448159e+02 8.722679e+01 1.333623e+02
    endloop
  endfacet
  facet normal -9.570476e-01 1.376194e-04 2.899307e-01
    outer loop
      vertex   -2.444749e+02 8.722674e+01 1.344879e+02
      vertex   -2.444743e+02 9.122674e+01 1.344879e+02
      vertex   -2.448153e+02 9.122679e+01 1.333623e+02
    endloop
  endfacet
  facet normal -8.820955e-01 1.268416e-04 4.710705e-01
    outer loop
      vertex   -2.444749e+02 8.722674e+01 1.344879e+02
      vertex   -2.439208e+02 8.722666e+01 1.355255e+02
      vertex   -2.444743e+02 9.122674e+01 1.344879e+02
    endloop
  endfacet
  facet normal -8.820955e-01 1.268416e-04 4.710705e-01
    outer loop
      vertex   -2.444743e+02 9.122674e+01 1.344879e+02
      vertex   -2.439208e+02 8.722666e+01 1.355255e+02
      vertex   -2.439202e+02 9.122666e+01 1.355255e+02
    endloop
  endfacet
  facet normal -7.732450e-01 1.111893e-04 6.341073e-01
    outer loop
      vertex   -2.439202e+02 9.122666e+01 1.355255e+02
      vertex   -2.439208e+02 8.722666e+01 1.355255e+02
      vertex   -2.431750e+02 8.722655e+01 1.364350e+02
    endloop
  endfacet
  facet normal -6.346791e-01 9.126415e-05 7.727758e-01
    outer loop
      vertex   -2.431744e+02 9.122655e+01 1.364350e+02
      vertex   -2.431750e+02 8.722655e+01 1.364350e+02
      vertex   -2.422660e+02 8.722642e+01 1.371815e+02
    endloop
  endfacet
  facet normal -4.717229e-01 6.783173e-05 8.817469e-01
    outer loop
      vertex   -2.422655e+02 9.122642e+01 1.371815e+02
      vertex   -2.422660e+02 8.722642e+01 1.371815e+02
      vertex   -2.412289e+02 8.722627e+01 1.377363e+02
    endloop
  endfacet
  facet normal -2.906386e-01 4.179259e-05 9.568329e-01
    outer loop
      vertex   -2.412283e+02 9.122627e+01 1.377363e+02
      vertex   -2.412289e+02 8.722627e+01 1.377363e+02
      vertex   -2.401035e+02 8.722611e+01 1.380782e+02
    endloop
  endfacet
  facet normal -9.838519e-02 1.414737e-05 9.951484e-01
    outer loop
      vertex   -2.401029e+02 9.122611e+01 1.380782e+02
      vertex   -2.401035e+02 8.722611e+01 1.380782e+02
      vertex   -2.389324e+02 9.122594e+01 1.381939e+02
    endloop
  endfacet
  facet normal -2.906386e-01 4.179259e-05 9.568329e-01
    outer loop
      vertex   -2.401029e+02 9.122611e+01 1.380782e+02
      vertex   -2.412283e+02 9.122627e+01 1.377363e+02
      vertex   -2.401035e+02 8.722611e+01 1.380782e+02
    endloop
  endfacet
  facet normal -9.838519e-02 1.414737e-05 9.951484e-01
    outer loop
      vertex   -2.401035e+02 8.722611e+01 1.380782e+02
      vertex   -2.389330e+02 8.722594e+01 1.381939e+02
      vertex   -2.389324e+02 9.122594e+01 1.381939e+02
    endloop
  endfacet
  facet normal -4.717229e-01 6.783173e-05 8.817469e-01
    outer loop
      vertex   -2.412283e+02 9.122627e+01 1.377363e+02
      vertex   -2.422655e+02 9.122642e+01 1.371815e+02
      vertex   -2.412289e+02 8.722627e+01 1.377363e+02
    endloop
  endfacet
  facet normal -6.346791e-01 9.126415e-05 7.727758e-01
    outer loop
      vertex   -2.422655e+02 9.122642e+01 1.371815e+02
      vertex   -2.431744e+02 9.122655e+01 1.364350e+02
      vertex   -2.422660e+02 8.722642e+01 1.371815e+02
    endloop
  endfacet
  facet normal -7.732450e-01 1.111893e-04 6.341073e-01
    outer loop
      vertex   -2.431744e+02 9.122655e+01 1.364350e+02
      vertex   -2.439202e+02 9.122666e+01 1.355255e+02
      vertex   -2.431750e+02 8.722655e+01 1.364350e+02
    endloop
  endfacet
  facet normal -8.817469e-01 1.267914e-04 -4.717229e-01
    outer loop
      vertex   -2.444726e+02 9.122674e+01 1.298957e+02
      vertex   -2.439178e+02 9.122666e+01 1.288586e+02
      vertex   -2.444732e+02 8.722674e+01 1.298957e+02
    endloop
  endfacet
  facet normal -7.727758e-01 1.111219e-04 -6.346791e-01
    outer loop
      vertex   -2.439178e+02 9.122666e+01 1.288586e+02
      vertex   -2.431713e+02 9.122655e+01 1.279497e+02
      vertex   -2.439183e+02 8.722666e+01 1.288586e+02
    endloop
  endfacet
  facet normal -6.341073e-01 9.118193e-05 -7.732450e-01
    outer loop
      vertex   -2.431713e+02 9.122655e+01 1.279497e+02
      vertex   -2.422618e+02 9.122642e+01 1.272038e+02
      vertex   -2.431718e+02 8.722655e+01 1.279497e+02
    endloop
  endfacet
  facet normal -1.437957e-04 -1.000000e+00 -2.878035e-13
    outer loop
      vertex   -2.449308e+02 8.722680e+01 1.321917e+02
      vertex   -2.419308e+02 8.722637e+01 1.321928e+02
      vertex   -2.448159e+02 8.722679e+01 1.333623e+02
    endloop
  endfacet
  facet normal -1.437957e-04 -1.000000e+00 -2.971764e-13
    outer loop
      vertex   -2.449308e+02 8.722680e+01 1.321917e+02
      vertex   -2.448150e+02 8.722679e+01 1.310212e+02
      vertex   -2.419308e+02 8.722637e+01 1.321928e+02
    endloop
  endfacet
  facet normal -1.437957e-04 -1.000000e+00 -3.205173e-13
    outer loop
      vertex   -2.419308e+02 8.722637e+01 1.321928e+02
      vertex   -2.448150e+02 8.722679e+01 1.310212e+02
      vertex   -2.418729e+02 8.722636e+01 1.316075e+02
    endloop
  endfacet
  facet normal -1.437957e-04 -1.000000e+00 -2.929004e-13
    outer loop
      vertex   -2.418729e+02 8.722636e+01 1.316075e+02
      vertex   -2.448150e+02 8.722679e+01 1.310212e+02
      vertex   -2.444732e+02 8.722674e+01 1.298957e+02
    endloop
  endfacet
  facet normal -1.437957e-04 -1.000000e+00 -3.069541e-13
    outer loop
      vertex   -2.417020e+02 8.722634e+01 1.310448e+02
      vertex   -2.444732e+02 8.722674e+01 1.298957e+02
      vertex   -2.439183e+02 8.722666e+01 1.288586e+02
    endloop
  endfacet
  facet normal -1.437957e-04 -1.000000e+00 -2.962210e-13
    outer loop
      vertex   -2.414246e+02 8.722630e+01 1.305263e+02
      vertex   -2.439183e+02 8.722666e+01 1.288586e+02
      vertex   -2.431718e+02 8.722655e+01 1.279497e+02
    endloop
  endfacet
  facet normal -1.437957e-04 -1.000000e+00 -2.911539e-13
    outer loop
      vertex   -2.410513e+02 8.722625e+01 1.300718e+02
      vertex   -2.431718e+02 8.722655e+01 1.279497e+02
      vertex   -2.422623e+02 8.722642e+01 1.272038e+02
    endloop
  endfacet
  facet normal -1.437957e-04 -1.000000e+00 -2.968479e-13
    outer loop
      vertex   -2.405965e+02 8.722618e+01 1.296989e+02
      vertex   -2.422623e+02 8.722642e+01 1.272038e+02
      vertex   -2.412248e+02 8.722627e+01 1.266498e+02
    endloop
  endfacet
  facet normal -1.437957e-04 -1.000000e+00 -2.982274e-13
    outer loop
      vertex   -2.400778e+02 8.722611e+01 1.294218e+02
      vertex   -2.412248e+02 8.722627e+01 1.266498e+02
      vertex   -2.400991e+02 8.722611e+01 1.263087e+02
    endloop
  endfacet
  facet normal -1.437957e-04 -1.000000e+00 -3.064399e-13
    outer loop
      vertex   -2.395149e+02 8.722603e+01 1.292513e+02
      vertex   -2.400991e+02 8.722611e+01 1.263087e+02
      vertex   -2.389297e+02 8.722594e+01 1.291939e+02
    endloop
  endfacet
  facet normal -1.437957e-04 -1.000000e+00 -2.980547e-13
    outer loop
      vertex   -2.395149e+02 8.722603e+01 1.292513e+02
      vertex   -2.400778e+02 8.722611e+01 1.294218e+02
      vertex   -2.400991e+02 8.722611e+01 1.263087e+02
    endloop
  endfacet
  facet normal -1.437957e-04 -1.000000e+00 -3.006911e-13
    outer loop
      vertex   -2.448159e+02 8.722679e+01 1.333623e+02
      vertex   -2.418733e+02 8.722636e+01 1.327781e+02
      vertex   -2.444749e+02 8.722674e+01 1.344879e+02
    endloop
  endfacet
  facet normal -1.437957e-04 -1.000000e+00 -2.878001e-13
    outer loop
      vertex   -2.448159e+02 8.722679e+01 1.333623e+02
      vertex   -2.419308e+02 8.722637e+01 1.321928e+02
      vertex   -2.418733e+02 8.722636e+01 1.327781e+02
    endloop
  endfacet
  facet normal -1.437957e-04 -1.000000e+00 -2.908877e-13
    outer loop
      vertex   -2.444749e+02 8.722674e+01 1.344879e+02
      vertex   -2.417028e+02 8.722634e+01 1.333409e+02
      vertex   -2.439208e+02 8.722666e+01 1.355255e+02
    endloop
  endfacet
  facet normal -1.437957e-04 -1.000000e+00 -3.006941e-13
    outer loop
      vertex   -2.444749e+02 8.722674e+01 1.344879e+02
      vertex   -2.418733e+02 8.722636e+01 1.327781e+02
      vertex   -2.417028e+02 8.722634e+01 1.333409e+02
    endloop
  endfacet
  facet normal -1.437957e-04 -1.000000e+00 -3.001125e-13
    outer loop
      vertex   -2.439208e+02 8.722666e+01 1.355255e+02
      vertex   -2.414258e+02 8.722630e+01 1.338597e+02
      vertex   -2.431750e+02 8.722655e+01 1.364350e+02
    endloop
  endfacet
  facet normal -1.437957e-04 -1.000000e+00 -2.819145e-13
    outer loop
      vertex   -2.439208e+02 8.722666e+01 1.355255e+02
      vertex   -2.417028e+02 8.722634e+01 1.333409e+02
      vertex   -2.414258e+02 8.722630e+01 1.338597e+02
    endloop
  endfacet
  facet normal -1.437957e-04 -1.000000e+00 -2.922406e-13
    outer loop
      vertex   -2.400991e+02 8.722611e+01 1.263087e+02
      vertex   -2.389285e+02 8.722594e+01 1.261939e+02
      vertex   -2.389297e+02 8.722594e+01 1.291939e+02
    endloop
  endfacet
  facet normal -1.437957e-04 -1.000000e+00 -2.922383e-13
    outer loop
      vertex   -2.389297e+02 8.722594e+01 1.291939e+02
      vertex   -2.389285e+02 8.722594e+01 1.261939e+02
      vertex   -2.383444e+02 8.722586e+01 1.292518e+02
    endloop
  endfacet
  facet normal -1.437957e-04 -1.000000e+00 -2.946028e-13
    outer loop
      vertex   -2.383444e+02 8.722586e+01 1.292518e+02
      vertex   -2.389285e+02 8.722594e+01 1.261939e+02
      vertex   -2.377580e+02 8.722577e+01 1.263096e+02
    endloop
  endfacet
  facet normal -1.437957e-04 -1.000000e+00 -2.967183e-13
    outer loop
      vertex   -2.377817e+02 8.722578e+01 1.294227e+02
      vertex   -2.377580e+02 8.722577e+01 1.263096e+02
      vertex   -2.366326e+02 8.722561e+01 1.266515e+02
    endloop
  endfacet
  facet normal -1.437957e-04 -1.000000e+00 -2.962738e-13
    outer loop
      vertex   -2.372631e+02 8.722570e+01 1.297001e+02
      vertex   -2.366326e+02 8.722561e+01 1.266515e+02
      vertex   -2.355955e+02 8.722546e+01 1.272063e+02
    endloop
  endfacet
  facet normal -1.437957e-04 -1.000000e+00 -2.908566e-13
    outer loop
      vertex   -2.368087e+02 8.722564e+01 1.300734e+02
      vertex   -2.355955e+02 8.722546e+01 1.272063e+02
      vertex   -2.346866e+02 8.722533e+01 1.279528e+02
    endloop
  endfacet
  facet normal -1.437957e-04 -1.000000e+00 -3.001155e-13
    outer loop
      vertex   -2.364357e+02 8.722558e+01 1.305281e+02
      vertex   -2.346866e+02 8.722533e+01 1.279528e+02
      vertex   -2.339407e+02 8.722522e+01 1.288623e+02
    endloop
  endfacet
  facet normal -1.437957e-04 -1.000000e+00 -2.908877e-13
    outer loop
      vertex   -2.361587e+02 8.722554e+01 1.310469e+02
      vertex   -2.339407e+02 8.722522e+01 1.288623e+02
      vertex   -2.333866e+02 8.722514e+01 1.298998e+02
    endloop
  endfacet
  facet normal -1.437957e-04 -1.000000e+00 -3.006910e-13
    outer loop
      vertex   -2.359882e+02 8.722552e+01 1.316097e+02
      vertex   -2.333866e+02 8.722514e+01 1.298998e+02
      vertex   -2.330456e+02 8.722510e+01 1.310255e+02
    endloop
  endfacet
  facet normal -1.437957e-04 -1.000000e+00 -2.878035e-13
    outer loop
      vertex   -2.359308e+02 8.722551e+01 1.321950e+02
      vertex   -2.330456e+02 8.722510e+01 1.310255e+02
      vertex   -2.329308e+02 8.722508e+01 1.321961e+02
    endloop
  endfacet
  facet normal -1.437957e-04 -1.000000e+00 -2.971763e-13
    outer loop
      vertex   -2.330465e+02 8.722510e+01 1.333666e+02
      vertex   -2.359308e+02 8.722551e+01 1.321950e+02
      vertex   -2.329308e+02 8.722508e+01 1.321961e+02
    endloop
  endfacet
  facet normal -1.437957e-04 -1.000000e+00 -3.205172e-13
    outer loop
      vertex   -2.330465e+02 8.722510e+01 1.333666e+02
      vertex   -2.359886e+02 8.722552e+01 1.327803e+02
      vertex   -2.359308e+02 8.722551e+01 1.321950e+02
    endloop
  endfacet
  facet normal -1.437957e-04 -1.000000e+00 -2.929005e-13
    outer loop
      vertex   -2.330465e+02 8.722510e+01 1.333666e+02
      vertex   -2.333883e+02 8.722514e+01 1.344920e+02
      vertex   -2.359886e+02 8.722552e+01 1.327803e+02
    endloop
  endfacet
  facet normal -1.437957e-04 -1.000000e+00 -2.718517e-13
    outer loop
      vertex   -2.359886e+02 8.722552e+01 1.327803e+02
      vertex   -2.333883e+02 8.722514e+01 1.344920e+02
      vertex   -2.361595e+02 8.722554e+01 1.333430e+02
    endloop
  endfacet
  facet normal -1.437957e-04 -1.000000e+00 -3.069541e-13
    outer loop
      vertex   -2.361595e+02 8.722554e+01 1.333430e+02
      vertex   -2.333883e+02 8.722514e+01 1.344920e+02
      vertex   -2.339432e+02 8.722522e+01 1.355292e+02
    endloop
  endfacet
  facet normal -1.437957e-04 -1.000000e+00 -2.962210e-13
    outer loop
      vertex   -2.364370e+02 8.722558e+01 1.338615e+02
      vertex   -2.339432e+02 8.722522e+01 1.355292e+02
      vertex   -2.346897e+02 8.722533e+01 1.364381e+02
    endloop
  endfacet
  facet normal -1.437957e-04 -1.000000e+00 -2.911539e-13
    outer loop
      vertex   -2.368102e+02 8.722564e+01 1.343160e+02
      vertex   -2.346897e+02 8.722533e+01 1.364381e+02
      vertex   -2.355992e+02 8.722546e+01 1.371839e+02
    endloop
  endfacet
  facet normal -1.437957e-04 -1.000000e+00 -2.968479e-13
    outer loop
      vertex   -2.372650e+02 8.722570e+01 1.346889e+02
      vertex   -2.355992e+02 8.722546e+01 1.371839e+02
      vertex   -2.366367e+02 8.722561e+01 1.377380e+02
    endloop
  endfacet
  facet normal -1.437957e-04 -1.000000e+00 -2.982274e-13
    outer loop
      vertex   -2.377837e+02 8.722578e+01 1.349660e+02
      vertex   -2.366367e+02 8.722561e+01 1.377380e+02
      vertex   -2.377624e+02 8.722577e+01 1.380790e+02
    endloop
  endfacet
  facet normal -1.437957e-04 -1.000000e+00 -2.993470e-13
    outer loop
      vertex   -2.383466e+02 8.722586e+01 1.351365e+02
      vertex   -2.377624e+02 8.722577e+01 1.380790e+02
      vertex   -2.389330e+02 8.722594e+01 1.381939e+02
    endloop
  endfacet
  facet normal -1.437957e-04 -1.000000e+00 -2.922383e-13
    outer loop
      vertex   -2.389319e+02 8.722594e+01 1.351939e+02
      vertex   -2.389330e+02 8.722594e+01 1.381939e+02
      vertex   -2.395171e+02 8.722603e+01 1.351360e+02
    endloop
  endfacet
  facet normal -1.437957e-04 -1.000000e+00 -2.922271e-13
    outer loop
      vertex   -2.389319e+02 8.722594e+01 1.351939e+02
      vertex   -2.383466e+02 8.722586e+01 1.351365e+02
      vertex   -2.389330e+02 8.722594e+01 1.381939e+02
    endloop
  endfacet
  facet normal -1.437957e-04 -1.000000e+00 -3.071912e-13
    outer loop
      vertex   -2.414258e+02 8.722630e+01 1.338597e+02
      vertex   -2.410529e+02 8.722625e+01 1.343144e+02
      vertex   -2.431750e+02 8.722655e+01 1.364350e+02
    endloop
  endfacet
  facet normal -1.437957e-04 -1.000000e+00 -2.908580e-13
    outer loop
      vertex   -2.431750e+02 8.722655e+01 1.364350e+02
      vertex   -2.410529e+02 8.722625e+01 1.343144e+02
      vertex   -2.422660e+02 8.722642e+01 1.371815e+02
    endloop
  endfacet
  facet normal -1.437957e-04 -1.000000e+00 -2.957689e-13
    outer loop
      vertex   -2.422660e+02 8.722642e+01 1.371815e+02
      vertex   -2.410529e+02 8.722625e+01 1.343144e+02
      vertex   -2.405984e+02 8.722618e+01 1.346877e+02
    endloop
  endfacet
  facet normal -1.437957e-04 -1.000000e+00 -2.937207e-13
    outer loop
      vertex   -2.412289e+02 8.722627e+01 1.377363e+02
      vertex   -2.405984e+02 8.722618e+01 1.346877e+02
      vertex   -2.400798e+02 8.722611e+01 1.349651e+02
    endloop
  endfacet
  facet normal -1.437957e-04 -1.000000e+00 -2.967183e-13
    outer loop
      vertex   -2.401035e+02 8.722611e+01 1.380782e+02
      vertex   -2.400798e+02 8.722611e+01 1.349651e+02
      vertex   -2.395171e+02 8.722603e+01 1.351360e+02
    endloop
  endfacet
  facet normal -1.437957e-04 -1.000000e+00 -2.946028e-13
    outer loop
      vertex   -2.389330e+02 8.722594e+01 1.381939e+02
      vertex   -2.401035e+02 8.722611e+01 1.380782e+02
      vertex   -2.395171e+02 8.722603e+01 1.351360e+02
    endloop
  endfacet
  facet normal -1.437957e-04 -1.000000e+00 -2.980547e-13
    outer loop
      vertex   -2.383466e+02 8.722586e+01 1.351365e+02
      vertex   -2.377837e+02 8.722578e+01 1.349660e+02
      vertex   -2.377624e+02 8.722577e+01 1.380790e+02
    endloop
  endfacet
  facet normal -1.437957e-04 -1.000000e+00 -2.993882e-13
    outer loop
      vertex   -2.377837e+02 8.722578e+01 1.349660e+02
      vertex   -2.372650e+02 8.722570e+01 1.346889e+02
      vertex   -2.366367e+02 8.722561e+01 1.377380e+02
    endloop
  endfacet
  facet normal -1.437957e-04 -1.000000e+00 -2.862545e-13
    outer loop
      vertex   -2.372650e+02 8.722570e+01 1.346889e+02
      vertex   -2.368102e+02 8.722564e+01 1.343160e+02
      vertex   -2.355992e+02 8.722546e+01 1.371839e+02
    endloop
  endfacet
  facet normal -1.437957e-04 -1.000000e+00 -3.032939e-13
    outer loop
      vertex   -2.368102e+02 8.722564e+01 1.343160e+02
      vertex   -2.364370e+02 8.722558e+01 1.338615e+02
      vertex   -2.346897e+02 8.722533e+01 1.364381e+02
    endloop
  endfacet
  facet normal -1.437957e-04 -1.000000e+00 -2.979875e-13
    outer loop
      vertex   -2.364370e+02 8.722558e+01 1.338615e+02
      vertex   -2.361595e+02 8.722554e+01 1.333430e+02
      vertex   -2.339432e+02 8.722522e+01 1.355292e+02
    endloop
  endfacet
  facet normal -1.437957e-04 -1.000000e+00 -2.878001e-13
    outer loop
      vertex   -2.359308e+02 8.722551e+01 1.321950e+02
      vertex   -2.359882e+02 8.722552e+01 1.316097e+02
      vertex   -2.330456e+02 8.722510e+01 1.310255e+02
    endloop
  endfacet
  facet normal -1.437957e-04 -1.000000e+00 -3.006941e-13
    outer loop
      vertex   -2.359882e+02 8.722552e+01 1.316097e+02
      vertex   -2.361587e+02 8.722554e+01 1.310469e+02
      vertex   -2.333866e+02 8.722514e+01 1.298998e+02
    endloop
  endfacet
  facet normal -1.437957e-04 -1.000000e+00 -2.819145e-13
    outer loop
      vertex   -2.361587e+02 8.722554e+01 1.310469e+02
      vertex   -2.364357e+02 8.722558e+01 1.305281e+02
      vertex   -2.339407e+02 8.722522e+01 1.288623e+02
    endloop
  endfacet
  facet normal -1.437957e-04 -1.000000e+00 -3.071920e-13
    outer loop
      vertex   -2.364357e+02 8.722558e+01 1.305281e+02
      vertex   -2.368087e+02 8.722564e+01 1.300734e+02
      vertex   -2.346866e+02 8.722533e+01 1.279528e+02
    endloop
  endfacet
  facet normal -1.437957e-04 -1.000000e+00 -2.957689e-13
    outer loop
      vertex   -2.368087e+02 8.722564e+01 1.300734e+02
      vertex   -2.372631e+02 8.722570e+01 1.297001e+02
      vertex   -2.355955e+02 8.722546e+01 1.272063e+02
    endloop
  endfacet
  facet normal -1.437957e-04 -1.000000e+00 -2.937207e-13
    outer loop
      vertex   -2.372631e+02 8.722570e+01 1.297001e+02
      vertex   -2.377817e+02 8.722578e+01 1.294227e+02
      vertex   -2.366326e+02 8.722561e+01 1.266515e+02
    endloop
  endfacet
  facet normal -1.437957e-04 -1.000000e+00 -2.967183e-13
    outer loop
      vertex   -2.377817e+02 8.722578e+01 1.294227e+02
      vertex   -2.383444e+02 8.722586e+01 1.292518e+02
      vertex   -2.377580e+02 8.722577e+01 1.263096e+02
    endloop
  endfacet
  facet normal -1.437957e-04 -1.000000e+00 -2.993882e-13
    outer loop
      vertex   -2.400778e+02 8.722611e+01 1.294218e+02
      vertex   -2.405965e+02 8.722618e+01 1.296989e+02
      vertex   -2.412248e+02 8.722627e+01 1.266498e+02
    endloop
  endfacet
  facet normal -1.437957e-04 -1.000000e+00 -2.862545e-13
    outer loop
      vertex   -2.405965e+02 8.722618e+01 1.296989e+02
      vertex   -2.410513e+02 8.722625e+01 1.300718e+02
      vertex   -2.422623e+02 8.722642e+01 1.272038e+02
    endloop
  endfacet
  facet normal -1.437957e-04 -1.000000e+00 -3.032939e-13
    outer loop
      vertex   -2.410513e+02 8.722625e+01 1.300718e+02
      vertex   -2.414246e+02 8.722630e+01 1.305263e+02
      vertex   -2.431718e+02 8.722655e+01 1.279497e+02
    endloop
  endfacet
  facet normal -1.437957e-04 -1.000000e+00 -2.979875e-13
    outer loop
      vertex   -2.414246e+02 8.722630e+01 1.305263e+02
      vertex   -2.417020e+02 8.722634e+01 1.310448e+02
      vertex   -2.439183e+02 8.722666e+01 1.288586e+02
    endloop
  endfacet
  facet normal -1.437957e-04 -1.000000e+00 -2.718517e-13
    outer loop
      vertex   -2.417020e+02 8.722634e+01 1.310448e+02
      vertex   -2.418729e+02 8.722636e+01 1.316075e+02
      vertex   -2.444732e+02 8.722674e+01 1.298957e+02
    endloop
  endfacet
  facet normal -1.437957e-04 -1.000000e+00 -2.962738e-13
    outer loop
      vertex   -2.422660e+02 8.722642e+01 1.371815e+02
      vertex   -2.405984e+02 8.722618e+01 1.346877e+02
      vertex   -2.412289e+02 8.722627e+01 1.377363e+02
    endloop
  endfacet
  facet normal -1.437957e-04 -1.000000e+00 -2.967183e-13
    outer loop
      vertex   -2.412289e+02 8.722627e+01 1.377363e+02
      vertex   -2.400798e+02 8.722611e+01 1.349651e+02
      vertex   -2.401035e+02 8.722611e+01 1.380782e+02
    endloop
  endfacet
  facet normal 1.437957e-04 1.000000e+00 2.922338e-13
    outer loop
      vertex   -2.401029e+02 9.122611e+01 1.380782e+02
      vertex   -2.389324e+02 9.122594e+01 1.381939e+02
      vertex   -2.389313e+02 9.122594e+01 1.351939e+02
    endloop
  endfacet
  facet normal 1.437957e-04 1.000000e+00 2.969750e-13
    outer loop
      vertex   -2.395165e+02 9.122603e+01 1.351360e+02
      vertex   -2.401029e+02 9.122611e+01 1.380782e+02
      vertex   -2.389313e+02 9.122594e+01 1.351939e+02
    endloop
  endfacet
  facet normal 1.437957e-04 1.000000e+00 2.967163e-13
    outer loop
      vertex   -2.395165e+02 9.122603e+01 1.351360e+02
      vertex   -2.412283e+02 9.122627e+01 1.377363e+02
      vertex   -2.401029e+02 9.122611e+01 1.380782e+02
    endloop
  endfacet
  facet normal 1.437957e-04 1.000000e+00 2.967183e-13
    outer loop
      vertex   -2.395165e+02 9.122603e+01 1.351360e+02
      vertex   -2.400793e+02 9.122611e+01 1.349651e+02
      vertex   -2.412283e+02 9.122627e+01 1.377363e+02
    endloop
  endfacet
  facet normal 1.437957e-04 1.000000e+00 2.983735e-13
    outer loop
      vertex   -2.412283e+02 9.122627e+01 1.377363e+02
      vertex   -2.400793e+02 9.122611e+01 1.349651e+02
      vertex   -2.422655e+02 9.122642e+01 1.371815e+02
    endloop
  endfacet
  facet normal 1.437957e-04 1.000000e+00 2.895264e-13
    outer loop
      vertex   -2.422655e+02 9.122642e+01 1.371815e+02
      vertex   -2.400793e+02 9.122611e+01 1.349651e+02
      vertex   -2.405978e+02 9.122618e+01 1.346877e+02
    endloop
  endfacet
  facet normal 1.437957e-04 1.000000e+00 2.994433e-13
    outer loop
      vertex   -2.431744e+02 9.122655e+01 1.364350e+02
      vertex   -2.405978e+02 9.122618e+01 1.346877e+02
      vertex   -2.410523e+02 9.122625e+01 1.343144e+02
    endloop
  endfacet
  facet normal 1.437957e-04 1.000000e+00 3.102103e-13
    outer loop
      vertex   -2.439202e+02 9.122666e+01 1.355255e+02
      vertex   -2.410523e+02 9.122625e+01 1.343144e+02
      vertex   -2.414252e+02 9.122630e+01 1.338597e+02
    endloop
  endfacet
  facet normal 1.437957e-04 1.000000e+00 2.796658e-13
    outer loop
      vertex   -2.444743e+02 9.122674e+01 1.344879e+02
      vertex   -2.414252e+02 9.122630e+01 1.338597e+02
      vertex   -2.417022e+02 9.122634e+01 1.333409e+02
    endloop
  endfacet
  facet normal 1.437957e-04 1.000000e+00 3.007013e-13
    outer loop
      vertex   -2.448153e+02 9.122679e+01 1.333623e+02
      vertex   -2.417022e+02 9.122634e+01 1.333409e+02
      vertex   -2.418728e+02 9.122636e+01 1.327781e+02
    endloop
  endfacet
  facet normal 1.437957e-04 1.000000e+00 2.878000e-13
    outer loop
      vertex   -2.449302e+02 9.122680e+01 1.321917e+02
      vertex   -2.418728e+02 9.122636e+01 1.327781e+02
      vertex   -2.419302e+02 9.122637e+01 1.321928e+02
    endloop
  endfacet
  facet normal 1.437957e-04 1.000000e+00 3.205172e-13
    outer loop
      vertex   -2.448145e+02 9.122679e+01 1.310212e+02
      vertex   -2.419302e+02 9.122637e+01 1.321928e+02
      vertex   -2.418723e+02 9.122636e+01 1.316075e+02
    endloop
  endfacet
  facet normal 1.437957e-04 1.000000e+00 2.690846e-13
    outer loop
      vertex   -2.417014e+02 9.122634e+01 1.310448e+02
      vertex   -2.448145e+02 9.122679e+01 1.310212e+02
      vertex   -2.418723e+02 9.122636e+01 1.316075e+02
    endloop
  endfacet
  facet normal 1.437957e-04 1.000000e+00 2.942840e-13
    outer loop
      vertex   -2.417014e+02 9.122634e+01 1.310448e+02
      vertex   -2.444726e+02 9.122674e+01 1.298957e+02
      vertex   -2.448145e+02 9.122679e+01 1.310212e+02
    endloop
  endfacet
  facet normal 1.437957e-04 1.000000e+00 2.957428e-13
    outer loop
      vertex   -2.417014e+02 9.122634e+01 1.310448e+02
      vertex   -2.414240e+02 9.122630e+01 1.305263e+02
      vertex   -2.444726e+02 9.122674e+01 1.298957e+02
    endloop
  endfacet
  facet normal 1.437957e-04 1.000000e+00 3.080800e-13
    outer loop
      vertex   -2.444726e+02 9.122674e+01 1.298957e+02
      vertex   -2.414240e+02 9.122630e+01 1.305263e+02
      vertex   -2.439178e+02 9.122666e+01 1.288586e+02
    endloop
  endfacet
  facet normal 1.437957e-04 1.000000e+00 3.063167e-13
    outer loop
      vertex   -2.439178e+02 9.122666e+01 1.288586e+02
      vertex   -2.414240e+02 9.122630e+01 1.305263e+02
      vertex   -2.410507e+02 9.122625e+01 1.300718e+02
    endloop
  endfacet
  facet normal 1.437957e-04 1.000000e+00 2.825701e-13
    outer loop
      vertex   -2.431713e+02 9.122655e+01 1.279497e+02
      vertex   -2.410507e+02 9.122625e+01 1.300718e+02
      vertex   -2.405960e+02 9.122618e+01 1.296989e+02
    endloop
  endfacet
  facet normal 1.437957e-04 1.000000e+00 3.035934e-13
    outer loop
      vertex   -2.422618e+02 9.122642e+01 1.272038e+02
      vertex   -2.405960e+02 9.122618e+01 1.296989e+02
      vertex   -2.400772e+02 9.122611e+01 1.294218e+02
    endloop
  endfacet
  facet normal 1.437957e-04 1.000000e+00 2.889425e-13
    outer loop
      vertex   -2.412242e+02 9.122627e+01 1.266498e+02
      vertex   -2.400772e+02 9.122611e+01 1.294218e+02
      vertex   -2.395144e+02 9.122603e+01 1.292513e+02
    endloop
  endfacet
  facet normal 1.437957e-04 1.000000e+00 3.064371e-13
    outer loop
      vertex   -2.400986e+02 9.122611e+01 1.263087e+02
      vertex   -2.395144e+02 9.122603e+01 1.292513e+02
      vertex   -2.389291e+02 9.122594e+01 1.291939e+02
    endloop
  endfacet
  facet normal 1.437957e-04 1.000000e+00 2.969750e-13
    outer loop
      vertex   -2.389280e+02 9.122594e+01 1.261939e+02
      vertex   -2.389291e+02 9.122594e+01 1.291939e+02
      vertex   -2.377575e+02 9.122577e+01 1.263096e+02
    endloop
  endfacet
  facet normal 1.437957e-04 1.000000e+00 2.969732e-13
    outer loop
      vertex   -2.389280e+02 9.122594e+01 1.261939e+02
      vertex   -2.400986e+02 9.122611e+01 1.263087e+02
      vertex   -2.389291e+02 9.122594e+01 1.291939e+02
    endloop
  endfacet
  facet normal 1.437957e-04 1.000000e+00 2.877929e-13
    outer loop
      vertex   -2.359876e+02 9.122552e+01 1.316097e+02
      vertex   -2.359302e+02 9.122551e+01 1.321950e+02
      vertex   -2.329302e+02 9.122508e+01 1.321961e+02
    endloop
  endfacet
  facet normal 1.437957e-04 1.000000e+00 2.878035e-13
    outer loop
      vertex   -2.330450e+02 9.122510e+01 1.310255e+02
      vertex   -2.359876e+02 9.122552e+01 1.316097e+02
      vertex   -2.329302e+02 9.122508e+01 1.321961e+02
    endloop
  endfacet
  facet normal 1.437957e-04 1.000000e+00 3.007013e-13
    outer loop
      vertex   -2.330450e+02 9.122510e+01 1.310255e+02
      vertex   -2.361581e+02 9.122554e+01 1.310469e+02
      vertex   -2.359876e+02 9.122552e+01 1.316097e+02
    endloop
  endfacet
  facet normal 1.437957e-04 1.000000e+00 3.006904e-13
    outer loop
      vertex   -2.330450e+02 9.122510e+01 1.310255e+02
      vertex   -2.333861e+02 9.122514e+01 1.298998e+02
      vertex   -2.361581e+02 9.122554e+01 1.310469e+02
    endloop
  endfacet
  facet normal 1.437957e-04 1.000000e+00 2.796658e-13
    outer loop
      vertex   -2.361581e+02 9.122554e+01 1.310469e+02
      vertex   -2.333861e+02 9.122514e+01 1.298998e+02
      vertex   -2.364352e+02 9.122558e+01 1.305281e+02
    endloop
  endfacet
  facet normal 1.437957e-04 1.000000e+00 2.920120e-13
    outer loop
      vertex   -2.364352e+02 9.122558e+01 1.305281e+02
      vertex   -2.333861e+02 9.122514e+01 1.298998e+02
      vertex   -2.339401e+02 9.122522e+01 1.288623e+02
    endloop
  endfacet
  facet normal 1.437957e-04 1.000000e+00 2.986010e-13
    outer loop
      vertex   -2.368081e+02 9.122564e+01 1.300734e+02
      vertex   -2.339401e+02 9.122522e+01 1.288623e+02
      vertex   -2.346860e+02 9.122533e+01 1.279528e+02
    endloop
  endfacet
  facet normal 1.437957e-04 1.000000e+00 2.890194e-13
    outer loop
      vertex   -2.372626e+02 9.122570e+01 1.297001e+02
      vertex   -2.346860e+02 9.122533e+01 1.279528e+02
      vertex   -2.355949e+02 9.122546e+01 1.272063e+02
    endloop
  endfacet
  facet normal 1.437957e-04 1.000000e+00 2.983709e-13
    outer loop
      vertex   -2.377811e+02 9.122578e+01 1.294227e+02
      vertex   -2.355949e+02 9.122546e+01 1.272063e+02
      vertex   -2.366320e+02 9.122561e+01 1.266515e+02
    endloop
  endfacet
  facet normal 1.437957e-04 1.000000e+00 2.967170e-13
    outer loop
      vertex   -2.383438e+02 9.122586e+01 1.292518e+02
      vertex   -2.366320e+02 9.122561e+01 1.266515e+02
      vertex   -2.377575e+02 9.122577e+01 1.263096e+02
    endloop
  endfacet
  facet normal 1.437957e-04 1.000000e+00 2.969750e-13
    outer loop
      vertex   -2.389291e+02 9.122594e+01 1.291939e+02
      vertex   -2.383438e+02 9.122586e+01 1.292518e+02
      vertex   -2.377575e+02 9.122577e+01 1.263096e+02
    endloop
  endfacet
  facet normal 1.437957e-04 1.000000e+00 2.967082e-13
    outer loop
      vertex   -2.329302e+02 9.122508e+01 1.321961e+02
      vertex   -2.359880e+02 9.122552e+01 1.327803e+02
      vertex   -2.330459e+02 9.122510e+01 1.333666e+02
    endloop
  endfacet
  facet normal 1.437957e-04 1.000000e+00 3.214608e-13
    outer loop
      vertex   -2.329302e+02 9.122508e+01 1.321961e+02
      vertex   -2.359302e+02 9.122551e+01 1.321950e+02
      vertex   -2.359880e+02 9.122552e+01 1.327803e+02
    endloop
  endfacet
  facet normal 1.437957e-04 1.000000e+00 2.942841e-13
    outer loop
      vertex   -2.330459e+02 9.122510e+01 1.333666e+02
      vertex   -2.361590e+02 9.122554e+01 1.333430e+02
      vertex   -2.333878e+02 9.122514e+01 1.344920e+02
    endloop
  endfacet
  facet normal 1.437957e-04 1.000000e+00 2.690845e-13
    outer loop
      vertex   -2.330459e+02 9.122510e+01 1.333666e+02
      vertex   -2.359880e+02 9.122552e+01 1.327803e+02
      vertex   -2.361590e+02 9.122554e+01 1.333430e+02
    endloop
  endfacet
  facet normal 1.437957e-04 1.000000e+00 3.080800e-13
    outer loop
      vertex   -2.333878e+02 9.122514e+01 1.344920e+02
      vertex   -2.364364e+02 9.122558e+01 1.338615e+02
      vertex   -2.339426e+02 9.122522e+01 1.355292e+02
    endloop
  endfacet
  facet normal 1.437957e-04 1.000000e+00 2.957428e-13
    outer loop
      vertex   -2.333878e+02 9.122514e+01 1.344920e+02
      vertex   -2.361590e+02 9.122554e+01 1.333430e+02
      vertex   -2.364364e+02 9.122558e+01 1.338615e+02
    endloop
  endfacet
  facet normal 1.437957e-04 1.000000e+00 3.027815e-13
    outer loop
      vertex   -2.400986e+02 9.122611e+01 1.263087e+02
      vertex   -2.412242e+02 9.122627e+01 1.266498e+02
      vertex   -2.395144e+02 9.122603e+01 1.292513e+02
    endloop
  endfacet
  facet normal 1.437957e-04 1.000000e+00 2.947479e-13
    outer loop
      vertex   -2.412242e+02 9.122627e+01 1.266498e+02
      vertex   -2.422618e+02 9.122642e+01 1.272038e+02
      vertex   -2.400772e+02 9.122611e+01 1.294218e+02
    endloop
  endfacet
  facet normal 1.437957e-04 1.000000e+00 2.929977e-13
    outer loop
      vertex   -2.422618e+02 9.122642e+01 1.272038e+02
      vertex   -2.431713e+02 9.122655e+01 1.279497e+02
      vertex   -2.405960e+02 9.122618e+01 1.296989e+02
    endloop
  endfacet
  facet normal 1.437957e-04 1.000000e+00 2.947076e-13
    outer loop
      vertex   -2.431713e+02 9.122655e+01 1.279497e+02
      vertex   -2.439178e+02 9.122666e+01 1.288586e+02
      vertex   -2.410507e+02 9.122625e+01 1.300718e+02
    endloop
  endfacet
  facet normal 1.437957e-04 1.000000e+00 2.971764e-13
    outer loop
      vertex   -2.448145e+02 9.122679e+01 1.310212e+02
      vertex   -2.449302e+02 9.122680e+01 1.321917e+02
      vertex   -2.419302e+02 9.122637e+01 1.321928e+02
    endloop
  endfacet
  facet normal 1.437957e-04 1.000000e+00 2.878036e-13
    outer loop
      vertex   -2.449302e+02 9.122680e+01 1.321917e+02
      vertex   -2.448153e+02 9.122679e+01 1.333623e+02
      vertex   -2.418728e+02 9.122636e+01 1.327781e+02
    endloop
  endfacet
  facet normal 1.437957e-04 1.000000e+00 3.006904e-13
    outer loop
      vertex   -2.448153e+02 9.122679e+01 1.333623e+02
      vertex   -2.444743e+02 9.122674e+01 1.344879e+02
      vertex   -2.417022e+02 9.122634e+01 1.333409e+02
    endloop
  endfacet
  facet normal 1.437957e-04 1.000000e+00 2.920120e-13
    outer loop
      vertex   -2.444743e+02 9.122674e+01 1.344879e+02
      vertex   -2.439202e+02 9.122666e+01 1.355255e+02
      vertex   -2.414252e+02 9.122630e+01 1.338597e+02
    endloop
  endfacet
  facet normal 1.437957e-04 1.000000e+00 2.986009e-13
    outer loop
      vertex   -2.439202e+02 9.122666e+01 1.355255e+02
      vertex   -2.431744e+02 9.122655e+01 1.364350e+02
      vertex   -2.410523e+02 9.122625e+01 1.343144e+02
    endloop
  endfacet
  facet normal 1.437957e-04 1.000000e+00 2.890194e-13
    outer loop
      vertex   -2.431744e+02 9.122655e+01 1.364350e+02
      vertex   -2.422655e+02 9.122642e+01 1.371815e+02
      vertex   -2.405978e+02 9.122618e+01 1.346877e+02
    endloop
  endfacet
  facet normal 1.437957e-04 1.000000e+00 3.063166e-13
    outer loop
      vertex   -2.364364e+02 9.122558e+01 1.338615e+02
      vertex   -2.368096e+02 9.122564e+01 1.343160e+02
      vertex   -2.339426e+02 9.122522e+01 1.355292e+02
    endloop
  endfacet
  facet normal 1.437957e-04 1.000000e+00 2.947076e-13
    outer loop
      vertex   -2.339426e+02 9.122522e+01 1.355292e+02
      vertex   -2.368096e+02 9.122564e+01 1.343160e+02
      vertex   -2.346891e+02 9.122533e+01 1.364381e+02
    endloop
  endfacet
  facet normal 1.437957e-04 1.000000e+00 2.825701e-13
    outer loop
      vertex   -2.346891e+02 9.122533e+01 1.364381e+02
      vertex   -2.368096e+02 9.122564e+01 1.343160e+02
      vertex   -2.372644e+02 9.122570e+01 1.346889e+02
    endloop
  endfacet
  facet normal 1.437957e-04 1.000000e+00 3.035922e-13
    outer loop
      vertex   -2.355986e+02 9.122546e+01 1.371839e+02
      vertex   -2.372644e+02 9.122570e+01 1.346889e+02
      vertex   -2.377832e+02 9.122578e+01 1.349660e+02
    endloop
  endfacet
  facet normal 1.437957e-04 1.000000e+00 2.889425e-13
    outer loop
      vertex   -2.366361e+02 9.122561e+01 1.377380e+02
      vertex   -2.377832e+02 9.122578e+01 1.349660e+02
      vertex   -2.383460e+02 9.122586e+01 1.351365e+02
    endloop
  endfacet
  facet normal 1.437957e-04 1.000000e+00 3.064371e-13
    outer loop
      vertex   -2.377618e+02 9.122577e+01 1.380790e+02
      vertex   -2.383460e+02 9.122586e+01 1.351365e+02
      vertex   -2.389313e+02 9.122594e+01 1.351939e+02
    endloop
  endfacet
  facet normal 1.437957e-04 1.000000e+00 2.922406e-13
    outer loop
      vertex   -2.389324e+02 9.122594e+01 1.381939e+02
      vertex   -2.377618e+02 9.122577e+01 1.380790e+02
      vertex   -2.389313e+02 9.122594e+01 1.351939e+02
    endloop
  endfacet
  facet normal 1.437957e-04 1.000000e+00 2.967170e-13
    outer loop
      vertex   -2.383438e+02 9.122586e+01 1.292518e+02
      vertex   -2.377811e+02 9.122578e+01 1.294227e+02
      vertex   -2.366320e+02 9.122561e+01 1.266515e+02
    endloop
  endfacet
  facet normal 1.437957e-04 1.000000e+00 2.895264e-13
    outer loop
      vertex   -2.377811e+02 9.122578e+01 1.294227e+02
      vertex   -2.372626e+02 9.122570e+01 1.297001e+02
      vertex   -2.355949e+02 9.122546e+01 1.272063e+02
    endloop
  endfacet
  facet normal 1.437957e-04 1.000000e+00 2.994433e-13
    outer loop
      vertex   -2.372626e+02 9.122570e+01 1.297001e+02
      vertex   -2.368081e+02 9.122564e+01 1.300734e+02
      vertex   -2.346860e+02 9.122533e+01 1.279528e+02
    endloop
  endfacet
  facet normal 1.437957e-04 1.000000e+00 3.102103e-13
    outer loop
      vertex   -2.368081e+02 9.122564e+01 1.300734e+02
      vertex   -2.364352e+02 9.122558e+01 1.305281e+02
      vertex   -2.339401e+02 9.122522e+01 1.288623e+02
    endloop
  endfacet
  facet normal 1.437957e-04 1.000000e+00 2.947492e-13
    outer loop
      vertex   -2.355986e+02 9.122546e+01 1.371839e+02
      vertex   -2.377832e+02 9.122578e+01 1.349660e+02
      vertex   -2.366361e+02 9.122561e+01 1.377380e+02
    endloop
  endfacet
  facet normal 1.437957e-04 1.000000e+00 3.027815e-13
    outer loop
      vertex   -2.366361e+02 9.122561e+01 1.377380e+02
      vertex   -2.383460e+02 9.122586e+01 1.351365e+02
      vertex   -2.377618e+02 9.122577e+01 1.380790e+02
    endloop
  endfacet
  facet normal 1.437957e-04 1.000000e+00 2.929947e-13
    outer loop
      vertex   -2.346891e+02 9.122533e+01 1.364381e+02
      vertex   -2.372644e+02 9.122570e+01 1.346889e+02
      vertex   -2.355986e+02 9.122546e+01 1.371839e+02
    endloop
  endfacet
  facet normal 9.952209e-01 -1.431085e-04 -9.764907e-02
    outer loop
      vertex   -2.419308e+02 8.722637e+01 1.321928e+02
      vertex   -2.419302e+02 9.122637e+01 1.321928e+02
      vertex   -2.418733e+02 8.722636e+01 1.327781e+02
    endloop
  endfacet
  facet normal 9.952209e-01 -1.431085e-04 -9.764907e-02
    outer loop
      vertex   -2.418733e+02 8.722636e+01 1.327781e+02
      vertex   -2.419302e+02 9.122637e+01 1.321928e+02
      vertex   -2.418728e+02 9.122636e+01 1.327781e+02
    endloop
  endfacet
  facet normal 9.570476e-01 -1.376194e-04 -2.899307e-01
    outer loop
      vertex   -2.417022e+02 9.122634e+01 1.333409e+02
      vertex   -2.418733e+02 8.722636e+01 1.327781e+02
      vertex   -2.418728e+02 9.122636e+01 1.327781e+02
    endloop
  endfacet
  facet normal 9.570476e-01 -1.376194e-04 -2.899307e-01
    outer loop
      vertex   -2.417022e+02 9.122634e+01 1.333409e+02
      vertex   -2.417028e+02 8.722634e+01 1.333409e+02
      vertex   -2.418733e+02 8.722636e+01 1.327781e+02
    endloop
  endfacet
  facet normal 8.820955e-01 -1.268416e-04 -4.710705e-01
    outer loop
      vertex   -2.417022e+02 9.122634e+01 1.333409e+02
      vertex   -2.414252e+02 9.122630e+01 1.338597e+02
      vertex   -2.417028e+02 8.722634e+01 1.333409e+02
    endloop
  endfacet
  facet normal 8.820955e-01 -1.268416e-04 -4.710705e-01
    outer loop
      vertex   -2.417028e+02 8.722634e+01 1.333409e+02
      vertex   -2.414252e+02 9.122630e+01 1.338597e+02
      vertex   -2.414258e+02 8.722630e+01 1.338597e+02
    endloop
  endfacet
  facet normal 7.732450e-01 -1.111893e-04 -6.341073e-01
    outer loop
      vertex   -2.414258e+02 8.722630e+01 1.338597e+02
      vertex   -2.414252e+02 9.122630e+01 1.338597e+02
      vertex   -2.410523e+02 9.122625e+01 1.343144e+02
    endloop
  endfacet
  facet normal 6.346791e-01 -9.126415e-05 -7.727758e-01
    outer loop
      vertex   -2.410529e+02 8.722625e+01 1.343144e+02
      vertex   -2.410523e+02 9.122625e+01 1.343144e+02
      vertex   -2.405978e+02 9.122618e+01 1.346877e+02
    endloop
  endfacet
  facet normal 4.717229e-01 -6.783173e-05 -8.817469e-01
    outer loop
      vertex   -2.405984e+02 8.722618e+01 1.346877e+02
      vertex   -2.405978e+02 9.122618e+01 1.346877e+02
      vertex   -2.400798e+02 8.722611e+01 1.349651e+02
    endloop
  endfacet
  facet normal 6.346791e-01 -9.126415e-05 -7.727758e-01
    outer loop
      vertex   -2.405984e+02 8.722618e+01 1.346877e+02
      vertex   -2.410529e+02 8.722625e+01 1.343144e+02
      vertex   -2.405978e+02 9.122618e+01 1.346877e+02
    endloop
  endfacet
  facet normal 4.717229e-01 -6.783173e-05 -8.817469e-01
    outer loop
      vertex   -2.405978e+02 9.122618e+01 1.346877e+02
      vertex   -2.400793e+02 9.122611e+01 1.349651e+02
      vertex   -2.400798e+02 8.722611e+01 1.349651e+02
    endloop
  endfacet
  facet normal 2.906386e-01 -4.179259e-05 -9.568329e-01
    outer loop
      vertex   -2.400798e+02 8.722611e+01 1.349651e+02
      vertex   -2.400793e+02 9.122611e+01 1.349651e+02
      vertex   -2.395165e+02 9.122603e+01 1.351360e+02
    endloop
  endfacet
  facet normal 9.838519e-02 -1.414737e-05 -9.951484e-01
    outer loop
      vertex   -2.395171e+02 8.722603e+01 1.351360e+02
      vertex   -2.395165e+02 9.122603e+01 1.351360e+02
      vertex   -2.389313e+02 9.122594e+01 1.351939e+02
    endloop
  endfacet
  facet normal -9.764907e-02 1.404152e-05 -9.952209e-01
    outer loop
      vertex   -2.389319e+02 8.722594e+01 1.351939e+02
      vertex   -2.389313e+02 9.122594e+01 1.351939e+02
      vertex   -2.383460e+02 9.122586e+01 1.351365e+02
    endloop
  endfacet
  facet normal -2.899307e-01 4.169080e-05 -9.570476e-01
    outer loop
      vertex   -2.383466e+02 8.722586e+01 1.351365e+02
      vertex   -2.383460e+02 9.122586e+01 1.351365e+02
      vertex   -2.377832e+02 9.122578e+01 1.349660e+02
    endloop
  endfacet
  facet normal -4.710705e-01 6.773793e-05 -8.820955e-01
    outer loop
      vertex   -2.377837e+02 8.722578e+01 1.349660e+02
      vertex   -2.377832e+02 9.122578e+01 1.349660e+02
      vertex   -2.372650e+02 8.722570e+01 1.346889e+02
    endloop
  endfacet
  facet normal -2.899307e-01 4.169080e-05 -9.570476e-01
    outer loop
      vertex   -2.377837e+02 8.722578e+01 1.349660e+02
      vertex   -2.383466e+02 8.722586e+01 1.351365e+02
      vertex   -2.377832e+02 9.122578e+01 1.349660e+02
    endloop
  endfacet
  facet normal -4.710705e-01 6.773793e-05 -8.820955e-01
    outer loop
      vertex   -2.377832e+02 9.122578e+01 1.349660e+02
      vertex   -2.372644e+02 9.122570e+01 1.346889e+02
      vertex   -2.372650e+02 8.722570e+01 1.346889e+02
    endloop
  endfacet
  facet normal -6.341073e-01 9.118193e-05 -7.732450e-01
    outer loop
      vertex   -2.372650e+02 8.722570e+01 1.346889e+02
      vertex   -2.372644e+02 9.122570e+01 1.346889e+02
      vertex   -2.368096e+02 9.122564e+01 1.343160e+02
    endloop
  endfacet
  facet normal -7.727758e-01 1.111219e-04 -6.346791e-01
    outer loop
      vertex   -2.368102e+02 8.722564e+01 1.343160e+02
      vertex   -2.368096e+02 9.122564e+01 1.343160e+02
      vertex   -2.364364e+02 9.122558e+01 1.338615e+02
    endloop
  endfacet
  facet normal -8.817469e-01 1.267914e-04 -4.717229e-01
    outer loop
      vertex   -2.364370e+02 8.722558e+01 1.338615e+02
      vertex   -2.364364e+02 9.122558e+01 1.338615e+02
      vertex   -2.361590e+02 9.122554e+01 1.333430e+02
    endloop
  endfacet
  facet normal -9.568329e-01 1.375885e-04 -2.906386e-01
    outer loop
      vertex   -2.361595e+02 8.722554e+01 1.333430e+02
      vertex   -2.361590e+02 9.122554e+01 1.333430e+02
      vertex   -2.359880e+02 9.122552e+01 1.327803e+02
    endloop
  endfacet
  facet normal -9.951484e-01 1.430981e-04 -9.838520e-02
    outer loop
      vertex   -2.359886e+02 8.722552e+01 1.327803e+02
      vertex   -2.359880e+02 9.122552e+01 1.327803e+02
      vertex   -2.359308e+02 8.722551e+01 1.321950e+02
    endloop
  endfacet
  facet normal -9.568329e-01 1.375885e-04 -2.906386e-01
    outer loop
      vertex   -2.359886e+02 8.722552e+01 1.327803e+02
      vertex   -2.361595e+02 8.722554e+01 1.333430e+02
      vertex   -2.359880e+02 9.122552e+01 1.327803e+02
    endloop
  endfacet
  facet normal -9.951484e-01 1.430981e-04 -9.838520e-02
    outer loop
      vertex   -2.359880e+02 9.122552e+01 1.327803e+02
      vertex   -2.359302e+02 9.122551e+01 1.321950e+02
      vertex   -2.359308e+02 8.722551e+01 1.321950e+02
    endloop
  endfacet
  facet normal -8.817469e-01 1.267914e-04 -4.717229e-01
    outer loop
      vertex   -2.361595e+02 8.722554e+01 1.333430e+02
      vertex   -2.364370e+02 8.722558e+01 1.338615e+02
      vertex   -2.361590e+02 9.122554e+01 1.333430e+02
    endloop
  endfacet
  facet normal -7.727758e-01 1.111219e-04 -6.346791e-01
    outer loop
      vertex   -2.364370e+02 8.722558e+01 1.338615e+02
      vertex   -2.368102e+02 8.722564e+01 1.343160e+02
      vertex   -2.364364e+02 9.122558e+01 1.338615e+02
    endloop
  endfacet
  facet normal -6.341073e-01 9.118193e-05 -7.732450e-01
    outer loop
      vertex   -2.368102e+02 8.722564e+01 1.343160e+02
      vertex   -2.372650e+02 8.722570e+01 1.346889e+02
      vertex   -2.368096e+02 9.122564e+01 1.343160e+02
    endloop
  endfacet
  facet normal -9.764907e-02 1.404152e-05 -9.952209e-01
    outer loop
      vertex   -2.383466e+02 8.722586e+01 1.351365e+02
      vertex   -2.389319e+02 8.722594e+01 1.351939e+02
      vertex   -2.383460e+02 9.122586e+01 1.351365e+02
    endloop
  endfacet
  facet normal 9.838519e-02 -1.414737e-05 -9.951484e-01
    outer loop
      vertex   -2.389319e+02 8.722594e+01 1.351939e+02
      vertex   -2.395171e+02 8.722603e+01 1.351360e+02
      vertex   -2.389313e+02 9.122594e+01 1.351939e+02
    endloop
  endfacet
  facet normal 2.906386e-01 -4.179259e-05 -9.568329e-01
    outer loop
      vertex   -2.395171e+02 8.722603e+01 1.351360e+02
      vertex   -2.400798e+02 8.722611e+01 1.349651e+02
      vertex   -2.395165e+02 9.122603e+01 1.351360e+02
    endloop
  endfacet
  facet normal 7.732450e-01 -1.111893e-04 -6.341073e-01
    outer loop
      vertex   -2.410529e+02 8.722625e+01 1.343144e+02
      vertex   -2.414258e+02 8.722630e+01 1.338597e+02
      vertex   -2.410523e+02 9.122625e+01 1.343144e+02
    endloop
  endfacet
  facet normal 9.838519e-02 -1.414737e-05 -9.951484e-01
    outer loop
      vertex   -2.389285e+02 8.722594e+01 1.261939e+02
      vertex   -2.389280e+02 9.122594e+01 1.261939e+02
      vertex   -2.377580e+02 8.722577e+01 1.263096e+02
    endloop
  endfacet
  facet normal 9.838519e-02 -1.414737e-05 -9.951484e-01
    outer loop
      vertex   -2.377580e+02 8.722577e+01 1.263096e+02
      vertex   -2.389280e+02 9.122594e+01 1.261939e+02
      vertex   -2.377575e+02 9.122577e+01 1.263096e+02
    endloop
  endfacet
  facet normal 2.906386e-01 -4.179259e-05 -9.568329e-01
    outer loop
      vertex   -2.366320e+02 9.122561e+01 1.266515e+02
      vertex   -2.377580e+02 8.722577e+01 1.263096e+02
      vertex   -2.377575e+02 9.122577e+01 1.263096e+02
    endloop
  endfacet
  facet normal 2.906386e-01 -4.179259e-05 -9.568329e-01
    outer loop
      vertex   -2.366320e+02 9.122561e+01 1.266515e+02
      vertex   -2.366326e+02 8.722561e+01 1.266515e+02
      vertex   -2.377580e+02 8.722577e+01 1.263096e+02
    endloop
  endfacet
  facet normal 4.717229e-01 -6.783173e-05 -8.817469e-01
    outer loop
      vertex   -2.366320e+02 9.122561e+01 1.266515e+02
      vertex   -2.355949e+02 9.122546e+01 1.272063e+02
      vertex   -2.366326e+02 8.722561e+01 1.266515e+02
    endloop
  endfacet
  facet normal 4.717229e-01 -6.783173e-05 -8.817469e-01
    outer loop
      vertex   -2.366326e+02 8.722561e+01 1.266515e+02
      vertex   -2.355949e+02 9.122546e+01 1.272063e+02
      vertex   -2.355955e+02 8.722546e+01 1.272063e+02
    endloop
  endfacet
  facet normal 6.346791e-01 -9.126415e-05 -7.727758e-01
    outer loop
      vertex   -2.355955e+02 8.722546e+01 1.272063e+02
      vertex   -2.355949e+02 9.122546e+01 1.272063e+02
      vertex   -2.346860e+02 9.122533e+01 1.279528e+02
    endloop
  endfacet
  facet normal 7.732450e-01 -1.111893e-04 -6.341073e-01
    outer loop
      vertex   -2.346866e+02 8.722533e+01 1.279528e+02
      vertex   -2.346860e+02 9.122533e+01 1.279528e+02
      vertex   -2.339401e+02 9.122522e+01 1.288623e+02
    endloop
  endfacet
  facet normal 8.820955e-01 -1.268416e-04 -4.710705e-01
    outer loop
      vertex   -2.339407e+02 8.722522e+01 1.288623e+02
      vertex   -2.339401e+02 9.122522e+01 1.288623e+02
      vertex   -2.333861e+02 9.122514e+01 1.298998e+02
    endloop
  endfacet
  facet normal 9.570476e-01 -1.376194e-04 -2.899307e-01
    outer loop
      vertex   -2.333866e+02 8.722514e+01 1.298998e+02
      vertex   -2.333861e+02 9.122514e+01 1.298998e+02
      vertex   -2.330450e+02 9.122510e+01 1.310255e+02
    endloop
  endfacet
  facet normal 9.952209e-01 -1.431085e-04 -9.764907e-02
    outer loop
      vertex   -2.330456e+02 8.722510e+01 1.310255e+02
      vertex   -2.330450e+02 9.122510e+01 1.310255e+02
      vertex   -2.329308e+02 8.722508e+01 1.321961e+02
    endloop
  endfacet
  facet normal 9.570476e-01 -1.376194e-04 -2.899307e-01
    outer loop
      vertex   -2.330456e+02 8.722510e+01 1.310255e+02
      vertex   -2.333866e+02 8.722514e+01 1.298998e+02
      vertex   -2.330450e+02 9.122510e+01 1.310255e+02
    endloop
  endfacet
  facet normal 9.952209e-01 -1.431085e-04 -9.764907e-02
    outer loop
      vertex   -2.330450e+02 9.122510e+01 1.310255e+02
      vertex   -2.329302e+02 9.122508e+01 1.321961e+02
      vertex   -2.329308e+02 8.722508e+01 1.321961e+02
    endloop
  endfacet
  facet normal 9.951484e-01 -1.430981e-04 9.838520e-02
    outer loop
      vertex   -2.329308e+02 8.722508e+01 1.321961e+02
      vertex   -2.329302e+02 9.122508e+01 1.321961e+02
      vertex   -2.330465e+02 8.722510e+01 1.333666e+02
    endloop
  endfacet
  facet normal 9.951484e-01 -1.430981e-04 9.838520e-02
    outer loop
      vertex   -2.330465e+02 8.722510e+01 1.333666e+02
      vertex   -2.329302e+02 9.122508e+01 1.321961e+02
      vertex   -2.330459e+02 9.122510e+01 1.333666e+02
    endloop
  endfacet
  facet normal 9.568329e-01 -1.375885e-04 2.906386e-01
    outer loop
      vertex   -2.333878e+02 9.122514e+01 1.344920e+02
      vertex   -2.330465e+02 8.722510e+01 1.333666e+02
      vertex   -2.330459e+02 9.122510e+01 1.333666e+02
    endloop
  endfacet
  facet normal 9.568329e-01 -1.375885e-04 2.906386e-01
    outer loop
      vertex   -2.333878e+02 9.122514e+01 1.344920e+02
      vertex   -2.333883e+02 8.722514e+01 1.344920e+02
      vertex   -2.330465e+02 8.722510e+01 1.333666e+02
    endloop
  endfacet
  facet normal 8.817469e-01 -1.267914e-04 4.717229e-01
    outer loop
      vertex   -2.333878e+02 9.122514e+01 1.344920e+02
      vertex   -2.339426e+02 9.122522e+01 1.355292e+02
      vertex   -2.333883e+02 8.722514e+01 1.344920e+02
    endloop
  endfacet
  facet normal 8.817469e-01 -1.267914e-04 4.717229e-01
    outer loop
      vertex   -2.333883e+02 8.722514e+01 1.344920e+02
      vertex   -2.339426e+02 9.122522e+01 1.355292e+02
      vertex   -2.339432e+02 8.722522e+01 1.355292e+02
    endloop
  endfacet
  facet normal 7.727758e-01 -1.111219e-04 6.346791e-01
    outer loop
      vertex   -2.339432e+02 8.722522e+01 1.355292e+02
      vertex   -2.339426e+02 9.122522e+01 1.355292e+02
      vertex   -2.346891e+02 9.122533e+01 1.364381e+02
    endloop
  endfacet
  facet normal 6.341073e-01 -9.118193e-05 7.732450e-01
    outer loop
      vertex   -2.346897e+02 8.722533e+01 1.364381e+02
      vertex   -2.346891e+02 9.122533e+01 1.364381e+02
      vertex   -2.355986e+02 9.122546e+01 1.371839e+02
    endloop
  endfacet
  facet normal 4.710705e-01 -6.773793e-05 8.820955e-01
    outer loop
      vertex   -2.355992e+02 8.722546e+01 1.371839e+02
      vertex   -2.355986e+02 9.122546e+01 1.371839e+02
      vertex   -2.366361e+02 9.122561e+01 1.377380e+02
    endloop
  endfacet
  facet normal 2.899307e-01 -4.169080e-05 9.570476e-01
    outer loop
      vertex   -2.366367e+02 8.722561e+01 1.377380e+02
      vertex   -2.366361e+02 9.122561e+01 1.377380e+02
      vertex   -2.377618e+02 9.122577e+01 1.380790e+02
    endloop
  endfacet
  facet normal 9.764907e-02 -1.404152e-05 9.952209e-01
    outer loop
      vertex   -2.377624e+02 8.722577e+01 1.380790e+02
      vertex   -2.377618e+02 9.122577e+01 1.380790e+02
      vertex   -2.389330e+02 8.722594e+01 1.381939e+02
    endloop
  endfacet
  facet normal 2.899307e-01 -4.169080e-05 9.570476e-01
    outer loop
      vertex   -2.377624e+02 8.722577e+01 1.380790e+02
      vertex   -2.366367e+02 8.722561e+01 1.377380e+02
      vertex   -2.377618e+02 9.122577e+01 1.380790e+02
    endloop
  endfacet
  facet normal 9.764907e-02 -1.404152e-05 9.952209e-01
    outer loop
      vertex   -2.377618e+02 9.122577e+01 1.380790e+02
      vertex   -2.389324e+02 9.122594e+01 1.381939e+02
      vertex   -2.389330e+02 8.722594e+01 1.381939e+02
    endloop
  endfacet
  facet normal 4.710705e-01 -6.773793e-05 8.820955e-01
    outer loop
      vertex   -2.366367e+02 8.722561e+01 1.377380e+02
      vertex   -2.355992e+02 8.722546e+01 1.371839e+02
      vertex   -2.366361e+02 9.122561e+01 1.377380e+02
    endloop
  endfacet
  facet normal 6.341073e-01 -9.118193e-05 7.732450e-01
    outer loop
      vertex   -2.355992e+02 8.722546e+01 1.371839e+02
      vertex   -2.346897e+02 8.722533e+01 1.364381e+02
      vertex   -2.355986e+02 9.122546e+01 1.371839e+02
    endloop
  endfacet
  facet normal 7.727758e-01 -1.111219e-04 6.346791e-01
    outer loop
      vertex   -2.346897e+02 8.722533e+01 1.364381e+02
      vertex   -2.339432e+02 8.722522e+01 1.355292e+02
      vertex   -2.346891e+02 9.122533e+01 1.364381e+02
    endloop
  endfacet
  facet normal 8.820955e-01 -1.268416e-04 -4.710705e-01
    outer loop
      vertex   -2.333866e+02 8.722514e+01 1.298998e+02
      vertex   -2.339407e+02 8.722522e+01 1.288623e+02
      vertex   -2.333861e+02 9.122514e+01 1.298998e+02
    endloop
  endfacet
  facet normal 7.732450e-01 -1.111893e-04 -6.341073e-01
    outer loop
      vertex   -2.339407e+02 8.722522e+01 1.288623e+02
      vertex   -2.346866e+02 8.722533e+01 1.279528e+02
      vertex   -2.339401e+02 9.122522e+01 1.288623e+02
    endloop
  endfacet
  facet normal 6.346791e-01 -9.126415e-05 -7.727758e-01
    outer loop
      vertex   -2.346866e+02 8.722533e+01 1.279528e+02
      vertex   -2.355955e+02 8.722546e+01 1.272063e+02
      vertex   -2.346860e+02 9.122533e+01 1.279528e+02
    endloop
  endfacet
  facet normal -9.952209e-01 1.431085e-04 9.764907e-02
    outer loop
      vertex   -2.359308e+02 8.722551e+01 1.321950e+02
      vertex   -2.359302e+02 9.122551e+01 1.321950e+02
      vertex   -2.359882e+02 8.722552e+01 1.316097e+02
    endloop
  endfacet
  facet normal -9.952209e-01 1.431085e-04 9.764907e-02
    outer loop
      vertex   -2.359882e+02 8.722552e+01 1.316097e+02
      vertex   -2.359302e+02 9.122551e+01 1.321950e+02
      vertex   -2.359876e+02 9.122552e+01 1.316097e+02
    endloop
  endfacet
  facet normal -9.570476e-01 1.376194e-04 2.899307e-01
    outer loop
      vertex   -2.361581e+02 9.122554e+01 1.310469e+02
      vertex   -2.359882e+02 8.722552e+01 1.316097e+02
      vertex   -2.359876e+02 9.122552e+01 1.316097e+02
    endloop
  endfacet
  facet normal -9.570476e-01 1.376194e-04 2.899307e-01
    outer loop
      vertex   -2.361581e+02 9.122554e+01 1.310469e+02
      vertex   -2.361587e+02 8.722554e+01 1.310469e+02
      vertex   -2.359882e+02 8.722552e+01 1.316097e+02
    endloop
  endfacet
  facet normal -8.820955e-01 1.268416e-04 4.710705e-01
    outer loop
      vertex   -2.361581e+02 9.122554e+01 1.310469e+02
      vertex   -2.364352e+02 9.122558e+01 1.305281e+02
      vertex   -2.361587e+02 8.722554e+01 1.310469e+02
    endloop
  endfacet
  facet normal -8.820955e-01 1.268416e-04 4.710705e-01
    outer loop
      vertex   -2.361587e+02 8.722554e+01 1.310469e+02
      vertex   -2.364352e+02 9.122558e+01 1.305281e+02
      vertex   -2.364357e+02 8.722558e+01 1.305281e+02
    endloop
  endfacet
  facet normal -7.732450e-01 1.111893e-04 6.341073e-01
    outer loop
      vertex   -2.364357e+02 8.722558e+01 1.305281e+02
      vertex   -2.364352e+02 9.122558e+01 1.305281e+02
      vertex   -2.368081e+02 9.122564e+01 1.300734e+02
    endloop
  endfacet
  facet normal -6.346791e-01 9.126415e-05 7.727758e-01
    outer loop
      vertex   -2.368087e+02 8.722564e+01 1.300734e+02
      vertex   -2.368081e+02 9.122564e+01 1.300734e+02
      vertex   -2.372626e+02 9.122570e+01 1.297001e+02
    endloop
  endfacet
  facet normal -4.717229e-01 6.783173e-05 8.817469e-01
    outer loop
      vertex   -2.372631e+02 8.722570e+01 1.297001e+02
      vertex   -2.372626e+02 9.122570e+01 1.297001e+02
      vertex   -2.377817e+02 8.722578e+01 1.294227e+02
    endloop
  endfacet
  facet normal -6.346791e-01 9.126415e-05 7.727758e-01
    outer loop
      vertex   -2.372631e+02 8.722570e+01 1.297001e+02
      vertex   -2.368087e+02 8.722564e+01 1.300734e+02
      vertex   -2.372626e+02 9.122570e+01 1.297001e+02
    endloop
  endfacet
  facet normal -4.717229e-01 6.783173e-05 8.817469e-01
    outer loop
      vertex   -2.372626e+02 9.122570e+01 1.297001e+02
      vertex   -2.377811e+02 9.122578e+01 1.294227e+02
      vertex   -2.377817e+02 8.722578e+01 1.294227e+02
    endloop
  endfacet
  facet normal -2.906386e-01 4.179259e-05 9.568329e-01
    outer loop
      vertex   -2.377817e+02 8.722578e+01 1.294227e+02
      vertex   -2.377811e+02 9.122578e+01 1.294227e+02
      vertex   -2.383438e+02 9.122586e+01 1.292518e+02
    endloop
  endfacet
  facet normal -9.838519e-02 1.414737e-05 9.951484e-01
    outer loop
      vertex   -2.383444e+02 8.722586e+01 1.292518e+02
      vertex   -2.383438e+02 9.122586e+01 1.292518e+02
      vertex   -2.389291e+02 9.122594e+01 1.291939e+02
    endloop
  endfacet
  facet normal 9.764907e-02 -1.404152e-05 9.952209e-01
    outer loop
      vertex   -2.389297e+02 8.722594e+01 1.291939e+02
      vertex   -2.389291e+02 9.122594e+01 1.291939e+02
      vertex   -2.395144e+02 9.122603e+01 1.292513e+02
    endloop
  endfacet
  facet normal 2.899307e-01 -4.169080e-05 9.570476e-01
    outer loop
      vertex   -2.395149e+02 8.722603e+01 1.292513e+02
      vertex   -2.395144e+02 9.122603e+01 1.292513e+02
      vertex   -2.400772e+02 9.122611e+01 1.294218e+02
    endloop
  endfacet
  facet normal 4.710705e-01 -6.773793e-05 8.820955e-01
    outer loop
      vertex   -2.400778e+02 8.722611e+01 1.294218e+02
      vertex   -2.400772e+02 9.122611e+01 1.294218e+02
      vertex   -2.405965e+02 8.722618e+01 1.296989e+02
    endloop
  endfacet
  facet normal 2.899307e-01 -4.169080e-05 9.570476e-01
    outer loop
      vertex   -2.400778e+02 8.722611e+01 1.294218e+02
      vertex   -2.395149e+02 8.722603e+01 1.292513e+02
      vertex   -2.400772e+02 9.122611e+01 1.294218e+02
    endloop
  endfacet
  facet normal 4.710705e-01 -6.773793e-05 8.820955e-01
    outer loop
      vertex   -2.400772e+02 9.122611e+01 1.294218e+02
      vertex   -2.405960e+02 9.122618e+01 1.296989e+02
      vertex   -2.405965e+02 8.722618e+01 1.296989e+02
    endloop
  endfacet
  facet normal 6.341073e-01 -9.118193e-05 7.732450e-01
    outer loop
      vertex   -2.405965e+02 8.722618e+01 1.296989e+02
      vertex   -2.405960e+02 9.122618e+01 1.296989e+02
      vertex   -2.410507e+02 9.122625e+01 1.300718e+02
    endloop
  endfacet
  facet normal 7.727758e-01 -1.111219e-04 6.346791e-01
    outer loop
      vertex   -2.410513e+02 8.722625e+01 1.300718e+02
      vertex   -2.410507e+02 9.122625e+01 1.300718e+02
      vertex   -2.414240e+02 9.122630e+01 1.305263e+02
    endloop
  endfacet
  facet normal 8.817469e-01 -1.267914e-04 4.717229e-01
    outer loop
      vertex   -2.414246e+02 8.722630e+01 1.305263e+02
      vertex   -2.414240e+02 9.122630e+01 1.305263e+02
      vertex   -2.417014e+02 9.122634e+01 1.310448e+02
    endloop
  endfacet
  facet normal 9.568329e-01 -1.375885e-04 2.906386e-01
    outer loop
      vertex   -2.417020e+02 8.722634e+01 1.310448e+02
      vertex   -2.417014e+02 9.122634e+01 1.310448e+02
      vertex   -2.418723e+02 9.122636e+01 1.316075e+02
    endloop
  endfacet
  facet normal 9.951484e-01 -1.430981e-04 9.838520e-02
    outer loop
      vertex   -2.418729e+02 8.722636e+01 1.316075e+02
      vertex   -2.418723e+02 9.122636e+01 1.316075e+02
      vertex   -2.419308e+02 8.722637e+01 1.321928e+02
    endloop
  endfacet
  facet normal 9.568329e-01 -1.375885e-04 2.906386e-01
    outer loop
      vertex   -2.418729e+02 8.722636e+01 1.316075e+02
      vertex   -2.417020e+02 8.722634e+01 1.310448e+02
      vertex   -2.418723e+02 9.122636e+01 1.316075e+02
    endloop
  endfacet
  facet normal 9.951484e-01 -1.430981e-04 9.838520e-02
    outer loop
      vertex   -2.418723e+02 9.122636e+01 1.316075e+02
      vertex   -2.419302e+02 9.122637e+01 1.321928e+02
      vertex   -2.419308e+02 8.722637e+01 1.321928e+02
    endloop
  endfacet
  facet normal 8.817469e-01 -1.267914e-04 4.717229e-01
    outer loop
      vertex   -2.417020e+02 8.722634e+01 1.310448e+02
      vertex   -2.414246e+02 8.722630e+01 1.305263e+02
      vertex   -2.417014e+02 9.122634e+01 1.310448e+02
    endloop
  endfacet
  facet normal 7.727758e-01 -1.111219e-04 6.346791e-01
    outer loop
      vertex   -2.414246e+02 8.722630e+01 1.305263e+02
      vertex   -2.410513e+02 8.722625e+01 1.300718e+02
      vertex   -2.414240e+02 9.122630e+01 1.305263e+02
    endloop
  endfacet
  facet normal 6.341073e-01 -9.118193e-05 7.732450e-01
    outer loop
      vertex   -2.410513e+02 8.722625e+01 1.300718e+02
      vertex   -2.405965e+02 8.722618e+01 1.296989e+02
      vertex   -2.410507e+02 9.122625e+01 1.300718e+02
    endloop
  endfacet
  facet normal 9.764907e-02 -1.404152e-05 9.952209e-01
    outer loop
      vertex   -2.395149e+02 8.722603e+01 1.292513e+02
      vertex   -2.389297e+02 8.722594e+01 1.291939e+02
      vertex   -2.395144e+02 9.122603e+01 1.292513e+02
    endloop
  endfacet
  facet normal -9.838519e-02 1.414737e-05 9.951484e-01
    outer loop
      vertex   -2.389297e+02 8.722594e+01 1.291939e+02
      vertex   -2.383444e+02 8.722586e+01 1.292518e+02
      vertex   -2.389291e+02 9.122594e+01 1.291939e+02
    endloop
  endfacet
  facet normal -2.906386e-01 4.179259e-05 9.568329e-01
    outer loop
      vertex   -2.383444e+02 8.722586e+01 1.292518e+02
      vertex   -2.377817e+02 8.722578e+01 1.294227e+02
      vertex   -2.383438e+02 9.122586e+01 1.292518e+02
    endloop
  endfacet
  facet normal -7.732450e-01 1.111893e-04 6.341073e-01
    outer loop
      vertex   -2.368087e+02 8.722564e+01 1.300734e+02
      vertex   -2.364357e+02 8.722558e+01 1.305281e+02
      vertex   -2.368081e+02 9.122564e+01 1.300734e+02
    endloop
  endfacet
endsolid
