solid ascii
  facet normal 1.437957e-04 1.000000e+00 2.857352e-13
    outer loop
      vertex   -2.658640e+02 9.022981e+01 1.598436e+02
      vertex   -2.678640e+02 9.023010e+01 1.598428e+02
      vertex   -2.659797e+02 9.022983e+01 1.610141e+02
    endloop
  endfacet
  facet normal 1.437957e-04 1.000000e+00 2.992429e-13
    outer loop
      vertex   -2.658640e+02 9.022981e+01 1.598436e+02
      vertex   -2.659789e+02 9.022983e+01 1.586730e+02
      vertex   -2.678640e+02 9.023010e+01 1.598428e+02
    endloop
  endfacet
  facet normal 1.437957e-04 1.000000e+00 2.878063e-13
    outer loop
      vertex   -2.678640e+02 9.023010e+01 1.598428e+02
      vertex   -2.659789e+02 9.022983e+01 1.586730e+02
      vertex   -2.679406e+02 9.023011e+01 1.590624e+02
    endloop
  endfacet
  facet normal 1.437957e-04 1.000000e+00 3.006993e-13
    outer loop
      vertex   -2.679406e+02 9.023011e+01 1.590624e+02
      vertex   -2.659789e+02 9.022983e+01 1.586730e+02
      vertex   -2.663199e+02 9.022988e+01 1.575473e+02
    endloop
  endfacet
  facet normal 1.437957e-04 1.000000e+00 2.908844e-13
    outer loop
      vertex   -2.681679e+02 9.023015e+01 1.583120e+02
      vertex   -2.663199e+02 9.022988e+01 1.575473e+02
      vertex   -2.668740e+02 9.022996e+01 1.565098e+02
    endloop
  endfacet
  facet normal 1.437957e-04 1.000000e+00 2.955860e-13
    outer loop
      vertex   -2.685373e+02 9.023020e+01 1.576203e+02
      vertex   -2.668740e+02 9.022996e+01 1.565098e+02
      vertex   -2.676198e+02 9.023007e+01 1.556003e+02
    endloop
  endfacet
  facet normal 1.437957e-04 1.000000e+00 2.890132e-13
    outer loop
      vertex   -2.690345e+02 9.023027e+01 1.570140e+02
      vertex   -2.676198e+02 9.023007e+01 1.556003e+02
      vertex   -2.685287e+02 9.023020e+01 1.548538e+02
    endloop
  endfacet
  facet normal 1.437957e-04 1.000000e+00 2.941741e-13
    outer loop
      vertex   -2.696405e+02 9.023036e+01 1.565163e+02
      vertex   -2.685287e+02 9.023020e+01 1.548538e+02
      vertex   -2.695659e+02 9.023035e+01 1.542989e+02
    endloop
  endfacet
  facet normal 1.437957e-04 1.000000e+00 2.967183e-13
    outer loop
      vertex   -2.703319e+02 9.023046e+01 1.561464e+02
      vertex   -2.695659e+02 9.023035e+01 1.542989e+02
      vertex   -2.706913e+02 9.023051e+01 1.539571e+02
    endloop
  endfacet
  facet normal 1.437957e-04 1.000000e+00 2.969689e-13
    outer loop
      vertex   -2.710822e+02 9.023056e+01 1.559185e+02
      vertex   -2.706913e+02 9.023051e+01 1.539571e+02
      vertex   -2.718625e+02 9.023068e+01 1.558413e+02
    endloop
  endfacet
  facet normal 1.437957e-04 1.000000e+00 2.967158e-13
    outer loop
      vertex   -2.710822e+02 9.023056e+01 1.559185e+02
      vertex   -2.703319e+02 9.023046e+01 1.561464e+02
      vertex   -2.706913e+02 9.023051e+01 1.539571e+02
    endloop
  endfacet
  facet normal 1.437957e-04 1.000000e+00 2.942800e-13
    outer loop
      vertex   -2.659797e+02 9.022983e+01 1.610141e+02
      vertex   -2.679412e+02 9.023011e+01 1.606232e+02
      vertex   -2.663216e+02 9.022988e+01 1.621395e+02
    endloop
  endfacet
  facet normal 1.437957e-04 1.000000e+00 2.971797e-13
    outer loop
      vertex   -2.659797e+02 9.022983e+01 1.610141e+02
      vertex   -2.678640e+02 9.023010e+01 1.598428e+02
      vertex   -2.679412e+02 9.023011e+01 1.606232e+02
    endloop
  endfacet
  facet normal 1.437957e-04 1.000000e+00 3.069554e-13
    outer loop
      vertex   -2.663216e+02 9.022988e+01 1.621395e+02
      vertex   -2.681691e+02 9.023015e+01 1.613734e+02
      vertex   -2.668764e+02 9.022996e+01 1.631766e+02
    endloop
  endfacet
  facet normal 1.437957e-04 1.000000e+00 2.942829e-13
    outer loop
      vertex   -2.663216e+02 9.022988e+01 1.621395e+02
      vertex   -2.679412e+02 9.023011e+01 1.606232e+02
      vertex   -2.681691e+02 9.023015e+01 1.613734e+02
    endloop
  endfacet
  facet normal 1.437957e-04 1.000000e+00 2.947125e-13
    outer loop
      vertex   -2.668764e+02 9.022996e+01 1.631766e+02
      vertex   -2.685390e+02 9.023020e+01 1.620649e+02
      vertex   -2.676229e+02 9.023007e+01 1.640856e+02
    endloop
  endfacet
  facet normal 1.437957e-04 1.000000e+00 3.069532e-13
    outer loop
      vertex   -2.668764e+02 9.022996e+01 1.631766e+02
      vertex   -2.681691e+02 9.023015e+01 1.613734e+02
      vertex   -2.685390e+02 9.023020e+01 1.620649e+02
    endloop
  endfacet
  facet normal 1.437957e-04 1.000000e+00 2.898654e-13
    outer loop
      vertex   -2.706913e+02 9.023051e+01 1.539571e+02
      vertex   -2.718618e+02 9.023068e+01 1.538413e+02
      vertex   -2.718625e+02 9.023068e+01 1.558413e+02
    endloop
  endfacet
  facet normal 1.437957e-04 1.000000e+00 2.898676e-13
    outer loop
      vertex   -2.718625e+02 9.023068e+01 1.558413e+02
      vertex   -2.718618e+02 9.023068e+01 1.538413e+02
      vertex   -2.726429e+02 9.023079e+01 1.559179e+02
    endloop
  endfacet
  facet normal 1.437957e-04 1.000000e+00 2.946105e-13
    outer loop
      vertex   -2.726429e+02 9.023079e+01 1.559179e+02
      vertex   -2.718618e+02 9.023068e+01 1.538413e+02
      vertex   -2.730324e+02 9.023085e+01 1.539562e+02
    endloop
  endfacet
  facet normal 1.437957e-04 1.000000e+00 2.936720e-13
    outer loop
      vertex   -2.733934e+02 9.023090e+01 1.561453e+02
      vertex   -2.730324e+02 9.023085e+01 1.539562e+02
      vertex   -2.741581e+02 9.023101e+01 1.542972e+02
    endloop
  endfacet
  facet normal 1.437957e-04 1.000000e+00 2.947467e-13
    outer loop
      vertex   -2.740851e+02 9.023100e+01 1.565146e+02
      vertex   -2.741581e+02 9.023101e+01 1.542972e+02
      vertex   -2.751956e+02 9.023116e+01 1.548513e+02
    endloop
  endfacet
  facet normal 1.437957e-04 1.000000e+00 2.893133e-13
    outer loop
      vertex   -2.746914e+02 9.023108e+01 1.570119e+02
      vertex   -2.751956e+02 9.023116e+01 1.548513e+02
      vertex   -2.761051e+02 9.023129e+01 1.555971e+02
    endloop
  endfacet
  facet normal 1.437957e-04 1.000000e+00 2.947125e-13
    outer loop
      vertex   -2.751891e+02 9.023116e+01 1.576178e+02
      vertex   -2.761051e+02 9.023129e+01 1.555971e+02
      vertex   -2.768516e+02 9.023139e+01 1.565061e+02
    endloop
  endfacet
  facet normal 1.437957e-04 1.000000e+00 3.069554e-13
    outer loop
      vertex   -2.755590e+02 9.023121e+01 1.583092e+02
      vertex   -2.768516e+02 9.023139e+01 1.565061e+02
      vertex   -2.774064e+02 9.023147e+01 1.575432e+02
    endloop
  endfacet
  facet normal 1.437957e-04 1.000000e+00 2.942800e-13
    outer loop
      vertex   -2.757869e+02 9.023124e+01 1.590595e+02
      vertex   -2.774064e+02 9.023147e+01 1.575432e+02
      vertex   -2.777483e+02 9.023152e+01 1.586686e+02
    endloop
  endfacet
  facet normal 1.437957e-04 1.000000e+00 2.857352e-13
    outer loop
      vertex   -2.758640e+02 9.023125e+01 1.598399e+02
      vertex   -2.777483e+02 9.023152e+01 1.586686e+02
      vertex   -2.778640e+02 9.023154e+01 1.598391e+02
    endloop
  endfacet
  facet normal 1.437957e-04 1.000000e+00 2.992429e-13
    outer loop
      vertex   -2.777492e+02 9.023152e+01 1.610097e+02
      vertex   -2.758640e+02 9.023125e+01 1.598399e+02
      vertex   -2.778640e+02 9.023154e+01 1.598391e+02
    endloop
  endfacet
  facet normal 1.437957e-04 1.000000e+00 2.878063e-13
    outer loop
      vertex   -2.777492e+02 9.023152e+01 1.610097e+02
      vertex   -2.757874e+02 9.023124e+01 1.606203e+02
      vertex   -2.758640e+02 9.023125e+01 1.598399e+02
    endloop
  endfacet
  facet normal 1.437957e-04 1.000000e+00 3.006993e-13
    outer loop
      vertex   -2.777492e+02 9.023152e+01 1.610097e+02
      vertex   -2.774081e+02 9.023147e+01 1.621354e+02
      vertex   -2.757874e+02 9.023124e+01 1.606203e+02
    endloop
  endfacet
  facet normal 1.437957e-04 1.000000e+00 3.006908e-13
    outer loop
      vertex   -2.757874e+02 9.023124e+01 1.606203e+02
      vertex   -2.774081e+02 9.023147e+01 1.621354e+02
      vertex   -2.755601e+02 9.023121e+01 1.613707e+02
    endloop
  endfacet
  facet normal 1.437957e-04 1.000000e+00 2.908844e-13
    outer loop
      vertex   -2.755601e+02 9.023121e+01 1.613707e+02
      vertex   -2.774081e+02 9.023147e+01 1.621354e+02
      vertex   -2.768541e+02 9.023139e+01 1.631729e+02
    endloop
  endfacet
  facet normal 1.437957e-04 1.000000e+00 2.955860e-13
    outer loop
      vertex   -2.751907e+02 9.023116e+01 1.620624e+02
      vertex   -2.768541e+02 9.023139e+01 1.631729e+02
      vertex   -2.761082e+02 9.023129e+01 1.640824e+02
    endloop
  endfacet
  facet normal 1.437957e-04 1.000000e+00 2.890132e-13
    outer loop
      vertex   -2.746935e+02 9.023108e+01 1.626687e+02
      vertex   -2.761082e+02 9.023129e+01 1.640824e+02
      vertex   -2.751993e+02 9.023116e+01 1.648289e+02
    endloop
  endfacet
  facet normal 1.437957e-04 1.000000e+00 2.941741e-13
    outer loop
      vertex   -2.740875e+02 9.023100e+01 1.631664e+02
      vertex   -2.751993e+02 9.023116e+01 1.648289e+02
      vertex   -2.741622e+02 9.023101e+01 1.653838e+02
    endloop
  endfacet
  facet normal 1.437957e-04 1.000000e+00 2.967183e-13
    outer loop
      vertex   -2.733961e+02 9.023090e+01 1.635363e+02
      vertex   -2.741622e+02 9.023101e+01 1.653838e+02
      vertex   -2.730367e+02 9.023085e+01 1.657256e+02
    endloop
  endfacet
  facet normal 1.437957e-04 1.000000e+00 2.945981e-13
    outer loop
      vertex   -2.726458e+02 9.023079e+01 1.637642e+02
      vertex   -2.730367e+02 9.023085e+01 1.657256e+02
      vertex   -2.718662e+02 9.023068e+01 1.658413e+02
    endloop
  endfacet
  facet normal 1.437957e-04 1.000000e+00 2.898676e-13
    outer loop
      vertex   -2.718655e+02 9.023068e+01 1.638413e+02
      vertex   -2.718662e+02 9.023068e+01 1.658413e+02
      vertex   -2.710851e+02 9.023057e+01 1.637648e+02
    endloop
  endfacet
  facet normal 1.437957e-04 1.000000e+00 2.898699e-13
    outer loop
      vertex   -2.718655e+02 9.023068e+01 1.638413e+02
      vertex   -2.726458e+02 9.023079e+01 1.637642e+02
      vertex   -2.718662e+02 9.023068e+01 1.658413e+02
    endloop
  endfacet
  facet normal 1.437957e-04 1.000000e+00 2.971797e-13
    outer loop
      vertex   -2.758640e+02 9.023125e+01 1.598399e+02
      vertex   -2.757869e+02 9.023124e+01 1.590595e+02
      vertex   -2.777483e+02 9.023152e+01 1.586686e+02
    endloop
  endfacet
  facet normal 1.437957e-04 1.000000e+00 2.942829e-13
    outer loop
      vertex   -2.757869e+02 9.023124e+01 1.590595e+02
      vertex   -2.755590e+02 9.023121e+01 1.583092e+02
      vertex   -2.774064e+02 9.023147e+01 1.575432e+02
    endloop
  endfacet
  facet normal 1.437957e-04 1.000000e+00 3.069532e-13
    outer loop
      vertex   -2.755590e+02 9.023121e+01 1.583092e+02
      vertex   -2.751891e+02 9.023116e+01 1.576178e+02
      vertex   -2.768516e+02 9.023139e+01 1.565061e+02
    endloop
  endfacet
  facet normal 1.437957e-04 1.000000e+00 2.974895e-13
    outer loop
      vertex   -2.751891e+02 9.023116e+01 1.576178e+02
      vertex   -2.746914e+02 9.023108e+01 1.570119e+02
      vertex   -2.761051e+02 9.023129e+01 1.555971e+02
    endloop
  endfacet
  facet normal 1.437957e-04 1.000000e+00 2.877848e-13
    outer loop
      vertex   -2.746914e+02 9.023108e+01 1.570119e+02
      vertex   -2.740851e+02 9.023100e+01 1.565146e+02
      vertex   -2.751956e+02 9.023116e+01 1.548513e+02
    endloop
  endfacet
  facet normal 1.437957e-04 1.000000e+00 2.951898e-13
    outer loop
      vertex   -2.740851e+02 9.023100e+01 1.565146e+02
      vertex   -2.733934e+02 9.023090e+01 1.561453e+02
      vertex   -2.741581e+02 9.023101e+01 1.542972e+02
    endloop
  endfacet
  facet normal 1.437957e-04 1.000000e+00 2.958647e-13
    outer loop
      vertex   -2.733934e+02 9.023090e+01 1.561453e+02
      vertex   -2.726429e+02 9.023079e+01 1.559179e+02
      vertex   -2.730324e+02 9.023085e+01 1.539562e+02
    endloop
  endfacet
  facet normal 1.437957e-04 1.000000e+00 2.937207e-13
    outer loop
      vertex   -2.703319e+02 9.023046e+01 1.561464e+02
      vertex   -2.696405e+02 9.023036e+01 1.565163e+02
      vertex   -2.695659e+02 9.023035e+01 1.542989e+02
    endloop
  endfacet
  facet normal 1.437957e-04 1.000000e+00 2.905466e-13
    outer loop
      vertex   -2.696405e+02 9.023036e+01 1.565163e+02
      vertex   -2.690345e+02 9.023027e+01 1.570140e+02
      vertex   -2.685287e+02 9.023020e+01 1.548538e+02
    endloop
  endfacet
  facet normal 1.437957e-04 1.000000e+00 2.928077e-13
    outer loop
      vertex   -2.690345e+02 9.023027e+01 1.570140e+02
      vertex   -2.685373e+02 9.023020e+01 1.576203e+02
      vertex   -2.676198e+02 9.023007e+01 1.556003e+02
    endloop
  endfacet
  facet normal 1.437957e-04 1.000000e+00 2.987368e-13
    outer loop
      vertex   -2.685373e+02 9.023020e+01 1.576203e+02
      vertex   -2.681679e+02 9.023015e+01 1.583120e+02
      vertex   -2.668740e+02 9.022996e+01 1.565098e+02
    endloop
  endfacet
  facet normal 1.437957e-04 1.000000e+00 3.006908e-13
    outer loop
      vertex   -2.681679e+02 9.023015e+01 1.583120e+02
      vertex   -2.679406e+02 9.023011e+01 1.590624e+02
      vertex   -2.663199e+02 9.022988e+01 1.575473e+02
    endloop
  endfacet
  facet normal 1.437957e-04 1.000000e+00 2.974895e-13
    outer loop
      vertex   -2.685390e+02 9.023020e+01 1.620649e+02
      vertex   -2.690366e+02 9.023027e+01 1.626708e+02
      vertex   -2.676229e+02 9.023007e+01 1.640856e+02
    endloop
  endfacet
  facet normal 1.437957e-04 1.000000e+00 2.893133e-13
    outer loop
      vertex   -2.676229e+02 9.023007e+01 1.640856e+02
      vertex   -2.690366e+02 9.023027e+01 1.626708e+02
      vertex   -2.685324e+02 9.023020e+01 1.648314e+02
    endloop
  endfacet
  facet normal 1.437957e-04 1.000000e+00 2.877848e-13
    outer loop
      vertex   -2.685324e+02 9.023020e+01 1.648314e+02
      vertex   -2.690366e+02 9.023027e+01 1.626708e+02
      vertex   -2.696430e+02 9.023036e+01 1.631680e+02
    endloop
  endfacet
  facet normal 1.437957e-04 1.000000e+00 2.951934e-13
    outer loop
      vertex   -2.695700e+02 9.023035e+01 1.653855e+02
      vertex   -2.696430e+02 9.023036e+01 1.631680e+02
      vertex   -2.703346e+02 9.023046e+01 1.635374e+02
    endloop
  endfacet
  facet normal 1.437957e-04 1.000000e+00 2.958647e-13
    outer loop
      vertex   -2.706956e+02 9.023051e+01 1.657265e+02
      vertex   -2.703346e+02 9.023046e+01 1.635374e+02
      vertex   -2.710851e+02 9.023057e+01 1.637648e+02
    endloop
  endfacet
  facet normal 1.437957e-04 1.000000e+00 2.946105e-13
    outer loop
      vertex   -2.718662e+02 9.023068e+01 1.658413e+02
      vertex   -2.706956e+02 9.023051e+01 1.657265e+02
      vertex   -2.710851e+02 9.023057e+01 1.637648e+02
    endloop
  endfacet
  facet normal 1.437957e-04 1.000000e+00 2.967158e-13
    outer loop
      vertex   -2.726458e+02 9.023079e+01 1.637642e+02
      vertex   -2.733961e+02 9.023090e+01 1.635363e+02
      vertex   -2.730367e+02 9.023085e+01 1.657256e+02
    endloop
  endfacet
  facet normal 1.437957e-04 1.000000e+00 2.937207e-13
    outer loop
      vertex   -2.733961e+02 9.023090e+01 1.635363e+02
      vertex   -2.740875e+02 9.023100e+01 1.631664e+02
      vertex   -2.741622e+02 9.023101e+01 1.653838e+02
    endloop
  endfacet
  facet normal 1.437957e-04 1.000000e+00 2.905466e-13
    outer loop
      vertex   -2.740875e+02 9.023100e+01 1.631664e+02
      vertex   -2.746935e+02 9.023108e+01 1.626687e+02
      vertex   -2.751993e+02 9.023116e+01 1.648289e+02
    endloop
  endfacet
  facet normal 1.437957e-04 1.000000e+00 2.928077e-13
    outer loop
      vertex   -2.746935e+02 9.023108e+01 1.626687e+02
      vertex   -2.751907e+02 9.023116e+01 1.620624e+02
      vertex   -2.761082e+02 9.023129e+01 1.640824e+02
    endloop
  endfacet
  facet normal 1.437957e-04 1.000000e+00 2.987368e-13
    outer loop
      vertex   -2.751907e+02 9.023116e+01 1.620624e+02
      vertex   -2.755601e+02 9.023121e+01 1.613707e+02
      vertex   -2.768541e+02 9.023139e+01 1.631729e+02
    endloop
  endfacet
  facet normal 1.437957e-04 1.000000e+00 2.947505e-13
    outer loop
      vertex   -2.685324e+02 9.023020e+01 1.648314e+02
      vertex   -2.696430e+02 9.023036e+01 1.631680e+02
      vertex   -2.695700e+02 9.023035e+01 1.653855e+02
    endloop
  endfacet
  facet normal 1.437957e-04 1.000000e+00 2.936733e-13
    outer loop
      vertex   -2.695700e+02 9.023035e+01 1.653855e+02
      vertex   -2.703346e+02 9.023046e+01 1.635374e+02
      vertex   -2.706956e+02 9.023051e+01 1.657265e+02
    endloop
  endfacet
  facet normal 9.764907e-02 -1.404152e-05 9.952209e-01
    outer loop
      vertex   -2.718662e+02 9.023068e+01 1.658413e+02
      vertex   -2.718664e+02 8.923068e+01 1.658413e+02
      vertex   -2.706956e+02 9.023051e+01 1.657265e+02
    endloop
  endfacet
  facet normal 9.764907e-02 -1.404152e-05 9.952209e-01
    outer loop
      vertex   -2.706956e+02 9.023051e+01 1.657265e+02
      vertex   -2.718664e+02 8.923068e+01 1.658413e+02
      vertex   -2.706958e+02 8.923051e+01 1.657265e+02
    endloop
  endfacet
  facet normal 2.899307e-01 -4.169080e-05 9.570476e-01
    outer loop
      vertex   -2.695701e+02 8.923035e+01 1.653855e+02
      vertex   -2.706956e+02 9.023051e+01 1.657265e+02
      vertex   -2.706958e+02 8.923051e+01 1.657265e+02
    endloop
  endfacet
  facet normal 2.899307e-01 -4.169080e-05 9.570476e-01
    outer loop
      vertex   -2.695701e+02 8.923035e+01 1.653855e+02
      vertex   -2.695700e+02 9.023035e+01 1.653855e+02
      vertex   -2.706956e+02 9.023051e+01 1.657265e+02
    endloop
  endfacet
  facet normal 4.710705e-01 -6.773793e-05 8.820955e-01
    outer loop
      vertex   -2.695701e+02 8.923035e+01 1.653855e+02
      vertex   -2.685326e+02 8.923020e+01 1.648314e+02
      vertex   -2.695700e+02 9.023035e+01 1.653855e+02
    endloop
  endfacet
  facet normal 4.710705e-01 -6.773793e-05 8.820955e-01
    outer loop
      vertex   -2.695700e+02 9.023035e+01 1.653855e+02
      vertex   -2.685326e+02 8.923020e+01 1.648314e+02
      vertex   -2.685324e+02 9.023020e+01 1.648314e+02
    endloop
  endfacet
  facet normal 6.341073e-01 -9.118193e-05 7.732450e-01
    outer loop
      vertex   -2.685324e+02 9.023020e+01 1.648314e+02
      vertex   -2.685326e+02 8.923020e+01 1.648314e+02
      vertex   -2.676231e+02 8.923007e+01 1.640856e+02
    endloop
  endfacet
  facet normal 7.727758e-01 -1.111219e-04 6.346791e-01
    outer loop
      vertex   -2.676229e+02 9.023007e+01 1.640856e+02
      vertex   -2.676231e+02 8.923007e+01 1.640856e+02
      vertex   -2.668766e+02 8.922996e+01 1.631766e+02
    endloop
  endfacet
  facet normal 8.817469e-01 -1.267914e-04 4.717229e-01
    outer loop
      vertex   -2.668764e+02 9.022996e+01 1.631766e+02
      vertex   -2.668766e+02 8.922996e+01 1.631766e+02
      vertex   -2.663217e+02 8.922988e+01 1.621395e+02
    endloop
  endfacet
  facet normal 9.568329e-01 -1.375885e-04 2.906386e-01
    outer loop
      vertex   -2.663216e+02 9.022988e+01 1.621395e+02
      vertex   -2.663217e+02 8.922988e+01 1.621395e+02
      vertex   -2.659799e+02 8.922983e+01 1.610141e+02
    endloop
  endfacet
  facet normal 9.951484e-01 -1.430981e-04 9.838520e-02
    outer loop
      vertex   -2.659797e+02 9.022983e+01 1.610141e+02
      vertex   -2.659799e+02 8.922983e+01 1.610141e+02
      vertex   -2.658640e+02 9.022981e+01 1.598436e+02
    endloop
  endfacet
  facet normal 9.568329e-01 -1.375885e-04 2.906386e-01
    outer loop
      vertex   -2.659797e+02 9.022983e+01 1.610141e+02
      vertex   -2.663216e+02 9.022988e+01 1.621395e+02
      vertex   -2.659799e+02 8.922983e+01 1.610141e+02
    endloop
  endfacet
  facet normal 9.951484e-01 -1.430981e-04 9.838520e-02
    outer loop
      vertex   -2.659799e+02 8.922983e+01 1.610141e+02
      vertex   -2.658642e+02 8.922981e+01 1.598436e+02
      vertex   -2.658640e+02 9.022981e+01 1.598436e+02
    endloop
  endfacet
  facet normal 9.952209e-01 -1.431085e-04 -9.764907e-02
    outer loop
      vertex   -2.658640e+02 9.022981e+01 1.598436e+02
      vertex   -2.658642e+02 8.922981e+01 1.598436e+02
      vertex   -2.659789e+02 9.022983e+01 1.586730e+02
    endloop
  endfacet
  facet normal 9.952209e-01 -1.431085e-04 -9.764907e-02
    outer loop
      vertex   -2.659789e+02 9.022983e+01 1.586730e+02
      vertex   -2.658642e+02 8.922981e+01 1.598436e+02
      vertex   -2.659790e+02 8.922983e+01 1.586730e+02
    endloop
  endfacet
  facet normal 9.570476e-01 -1.376194e-04 -2.899307e-01
    outer loop
      vertex   -2.663200e+02 8.922988e+01 1.575473e+02
      vertex   -2.659789e+02 9.022983e+01 1.586730e+02
      vertex   -2.659790e+02 8.922983e+01 1.586730e+02
    endloop
  endfacet
  facet normal 9.570476e-01 -1.376194e-04 -2.899307e-01
    outer loop
      vertex   -2.663200e+02 8.922988e+01 1.575473e+02
      vertex   -2.663199e+02 9.022988e+01 1.575473e+02
      vertex   -2.659789e+02 9.022983e+01 1.586730e+02
    endloop
  endfacet
  facet normal 8.820955e-01 -1.268416e-04 -4.710705e-01
    outer loop
      vertex   -2.663200e+02 8.922988e+01 1.575473e+02
      vertex   -2.668741e+02 8.922996e+01 1.565098e+02
      vertex   -2.663199e+02 9.022988e+01 1.575473e+02
    endloop
  endfacet
  facet normal 8.820955e-01 -1.268416e-04 -4.710705e-01
    outer loop
      vertex   -2.663199e+02 9.022988e+01 1.575473e+02
      vertex   -2.668741e+02 8.922996e+01 1.565098e+02
      vertex   -2.668740e+02 9.022996e+01 1.565098e+02
    endloop
  endfacet
  facet normal 7.732450e-01 -1.111893e-04 -6.341073e-01
    outer loop
      vertex   -2.668740e+02 9.022996e+01 1.565098e+02
      vertex   -2.668741e+02 8.922996e+01 1.565098e+02
      vertex   -2.676199e+02 8.923007e+01 1.556003e+02
    endloop
  endfacet
  facet normal 6.346791e-01 -9.126415e-05 -7.727758e-01
    outer loop
      vertex   -2.676198e+02 9.023007e+01 1.556003e+02
      vertex   -2.676199e+02 8.923007e+01 1.556003e+02
      vertex   -2.685289e+02 8.923020e+01 1.548538e+02
    endloop
  endfacet
  facet normal 4.717229e-01 -6.783173e-05 -8.817469e-01
    outer loop
      vertex   -2.685287e+02 9.023020e+01 1.548538e+02
      vertex   -2.685289e+02 8.923020e+01 1.548538e+02
      vertex   -2.695660e+02 8.923035e+01 1.542989e+02
    endloop
  endfacet
  facet normal 2.906386e-01 -4.179259e-05 -9.568329e-01
    outer loop
      vertex   -2.695659e+02 9.023035e+01 1.542989e+02
      vertex   -2.695660e+02 8.923035e+01 1.542989e+02
      vertex   -2.706914e+02 8.923051e+01 1.539571e+02
    endloop
  endfacet
  facet normal 9.838519e-02 -1.414737e-05 -9.951484e-01
    outer loop
      vertex   -2.706913e+02 9.023051e+01 1.539571e+02
      vertex   -2.706914e+02 8.923051e+01 1.539571e+02
      vertex   -2.718618e+02 9.023068e+01 1.538413e+02
    endloop
  endfacet
  facet normal 2.906386e-01 -4.179259e-05 -9.568329e-01
    outer loop
      vertex   -2.706913e+02 9.023051e+01 1.539571e+02
      vertex   -2.695659e+02 9.023035e+01 1.542989e+02
      vertex   -2.706914e+02 8.923051e+01 1.539571e+02
    endloop
  endfacet
  facet normal 9.838519e-02 -1.414737e-05 -9.951484e-01
    outer loop
      vertex   -2.706914e+02 8.923051e+01 1.539571e+02
      vertex   -2.718619e+02 8.923068e+01 1.538413e+02
      vertex   -2.718618e+02 9.023068e+01 1.538413e+02
    endloop
  endfacet
  facet normal 4.717229e-01 -6.783173e-05 -8.817469e-01
    outer loop
      vertex   -2.695659e+02 9.023035e+01 1.542989e+02
      vertex   -2.685287e+02 9.023020e+01 1.548538e+02
      vertex   -2.695660e+02 8.923035e+01 1.542989e+02
    endloop
  endfacet
  facet normal 6.346791e-01 -9.126415e-05 -7.727758e-01
    outer loop
      vertex   -2.685287e+02 9.023020e+01 1.548538e+02
      vertex   -2.676198e+02 9.023007e+01 1.556003e+02
      vertex   -2.685289e+02 8.923020e+01 1.548538e+02
    endloop
  endfacet
  facet normal 7.732450e-01 -1.111893e-04 -6.341073e-01
    outer loop
      vertex   -2.676198e+02 9.023007e+01 1.556003e+02
      vertex   -2.668740e+02 9.022996e+01 1.565098e+02
      vertex   -2.676199e+02 8.923007e+01 1.556003e+02
    endloop
  endfacet
  facet normal 8.817469e-01 -1.267914e-04 4.717229e-01
    outer loop
      vertex   -2.663216e+02 9.022988e+01 1.621395e+02
      vertex   -2.668764e+02 9.022996e+01 1.631766e+02
      vertex   -2.663217e+02 8.922988e+01 1.621395e+02
    endloop
  endfacet
  facet normal 7.727758e-01 -1.111219e-04 6.346791e-01
    outer loop
      vertex   -2.668764e+02 9.022996e+01 1.631766e+02
      vertex   -2.676229e+02 9.023007e+01 1.640856e+02
      vertex   -2.668766e+02 8.922996e+01 1.631766e+02
    endloop
  endfacet
  facet normal 6.341073e-01 -9.118193e-05 7.732450e-01
    outer loop
      vertex   -2.676229e+02 9.023007e+01 1.640856e+02
      vertex   -2.685324e+02 9.023020e+01 1.648314e+02
      vertex   -2.676231e+02 8.923007e+01 1.640856e+02
    endloop
  endfacet
  facet normal -9.951484e-01 1.430981e-04 -9.838520e-02
    outer loop
      vertex   -2.678640e+02 9.023010e+01 1.598428e+02
      vertex   -2.678642e+02 8.923010e+01 1.598428e+02
      vertex   -2.679412e+02 9.023011e+01 1.606232e+02
    endloop
  endfacet
  facet normal -9.951484e-01 1.430981e-04 -9.838520e-02
    outer loop
      vertex   -2.679412e+02 9.023011e+01 1.606232e+02
      vertex   -2.678642e+02 8.923010e+01 1.598428e+02
      vertex   -2.679413e+02 8.923011e+01 1.606232e+02
    endloop
  endfacet
  facet normal -9.568329e-01 1.375885e-04 -2.906386e-01
    outer loop
      vertex   -2.681692e+02 8.923015e+01 1.613734e+02
      vertex   -2.679412e+02 9.023011e+01 1.606232e+02
      vertex   -2.679413e+02 8.923011e+01 1.606232e+02
    endloop
  endfacet
  facet normal -9.568329e-01 1.375885e-04 -2.906386e-01
    outer loop
      vertex   -2.681692e+02 8.923015e+01 1.613734e+02
      vertex   -2.681691e+02 9.023015e+01 1.613734e+02
      vertex   -2.679412e+02 9.023011e+01 1.606232e+02
    endloop
  endfacet
  facet normal -8.817469e-01 1.267914e-04 -4.717229e-01
    outer loop
      vertex   -2.681692e+02 8.923015e+01 1.613734e+02
      vertex   -2.685391e+02 8.923020e+01 1.620649e+02
      vertex   -2.681691e+02 9.023015e+01 1.613734e+02
    endloop
  endfacet
  facet normal -8.817469e-01 1.267914e-04 -4.717229e-01
    outer loop
      vertex   -2.681691e+02 9.023015e+01 1.613734e+02
      vertex   -2.685391e+02 8.923020e+01 1.620649e+02
      vertex   -2.685390e+02 9.023020e+01 1.620649e+02
    endloop
  endfacet
  facet normal -7.727758e-01 1.111219e-04 -6.346791e-01
    outer loop
      vertex   -2.685390e+02 9.023020e+01 1.620649e+02
      vertex   -2.685391e+02 8.923020e+01 1.620649e+02
      vertex   -2.690368e+02 8.923027e+01 1.626708e+02
    endloop
  endfacet
  facet normal -6.341073e-01 9.118193e-05 -7.732450e-01
    outer loop
      vertex   -2.690366e+02 9.023027e+01 1.626708e+02
      vertex   -2.690368e+02 8.923027e+01 1.626708e+02
      vertex   -2.696431e+02 8.923036e+01 1.631680e+02
    endloop
  endfacet
  facet normal -4.710705e-01 6.773793e-05 -8.820955e-01
    outer loop
      vertex   -2.696430e+02 9.023036e+01 1.631680e+02
      vertex   -2.696431e+02 8.923036e+01 1.631680e+02
      vertex   -2.703346e+02 9.023046e+01 1.635374e+02
    endloop
  endfacet
  facet normal -6.341073e-01 9.118193e-05 -7.732450e-01
    outer loop
      vertex   -2.696430e+02 9.023036e+01 1.631680e+02
      vertex   -2.690366e+02 9.023027e+01 1.626708e+02
      vertex   -2.696431e+02 8.923036e+01 1.631680e+02
    endloop
  endfacet
  facet normal -4.710705e-01 6.773793e-05 -8.820955e-01
    outer loop
      vertex   -2.696431e+02 8.923036e+01 1.631680e+02
      vertex   -2.703348e+02 8.923046e+01 1.635374e+02
      vertex   -2.703346e+02 9.023046e+01 1.635374e+02
    endloop
  endfacet
  facet normal -2.899307e-01 4.169080e-05 -9.570476e-01
    outer loop
      vertex   -2.703346e+02 9.023046e+01 1.635374e+02
      vertex   -2.703348e+02 8.923046e+01 1.635374e+02
      vertex   -2.710852e+02 8.923057e+01 1.637648e+02
    endloop
  endfacet
  facet normal -9.764907e-02 1.404152e-05 -9.952209e-01
    outer loop
      vertex   -2.710851e+02 9.023057e+01 1.637648e+02
      vertex   -2.710852e+02 8.923057e+01 1.637648e+02
      vertex   -2.718656e+02 8.923068e+01 1.638413e+02
    endloop
  endfacet
  facet normal 9.838519e-02 -1.414737e-05 -9.951484e-01
    outer loop
      vertex   -2.718655e+02 9.023068e+01 1.638413e+02
      vertex   -2.718656e+02 8.923068e+01 1.638413e+02
      vertex   -2.726460e+02 8.923079e+01 1.637642e+02
    endloop
  endfacet
  facet normal 2.906386e-01 -4.179259e-05 -9.568329e-01
    outer loop
      vertex   -2.726458e+02 9.023079e+01 1.637642e+02
      vertex   -2.726460e+02 8.923079e+01 1.637642e+02
      vertex   -2.733963e+02 8.923090e+01 1.635363e+02
    endloop
  endfacet
  facet normal 4.717229e-01 -6.783173e-05 -8.817469e-01
    outer loop
      vertex   -2.733961e+02 9.023090e+01 1.635363e+02
      vertex   -2.733963e+02 8.923090e+01 1.635363e+02
      vertex   -2.740875e+02 9.023100e+01 1.631664e+02
    endloop
  endfacet
  facet normal 2.906386e-01 -4.179259e-05 -9.568329e-01
    outer loop
      vertex   -2.733961e+02 9.023090e+01 1.635363e+02
      vertex   -2.726458e+02 9.023079e+01 1.637642e+02
      vertex   -2.733963e+02 8.923090e+01 1.635363e+02
    endloop
  endfacet
  facet normal 4.717229e-01 -6.783173e-05 -8.817469e-01
    outer loop
      vertex   -2.733963e+02 8.923090e+01 1.635363e+02
      vertex   -2.740877e+02 8.923100e+01 1.631664e+02
      vertex   -2.740875e+02 9.023100e+01 1.631664e+02
    endloop
  endfacet
  facet normal 6.346791e-01 -9.126415e-05 -7.727758e-01
    outer loop
      vertex   -2.740875e+02 9.023100e+01 1.631664e+02
      vertex   -2.740877e+02 8.923100e+01 1.631664e+02
      vertex   -2.746936e+02 8.923108e+01 1.626687e+02
    endloop
  endfacet
  facet normal 7.732450e-01 -1.111893e-04 -6.341073e-01
    outer loop
      vertex   -2.746935e+02 9.023108e+01 1.626687e+02
      vertex   -2.746936e+02 8.923108e+01 1.626687e+02
      vertex   -2.751909e+02 8.923116e+01 1.620624e+02
    endloop
  endfacet
  facet normal 8.820955e-01 -1.268416e-04 -4.710705e-01
    outer loop
      vertex   -2.751907e+02 9.023116e+01 1.620624e+02
      vertex   -2.751909e+02 8.923116e+01 1.620624e+02
      vertex   -2.755602e+02 8.923121e+01 1.613707e+02
    endloop
  endfacet
  facet normal 9.570476e-01 -1.376194e-04 -2.899307e-01
    outer loop
      vertex   -2.755601e+02 9.023121e+01 1.613707e+02
      vertex   -2.755602e+02 8.923121e+01 1.613707e+02
      vertex   -2.757876e+02 8.923124e+01 1.606203e+02
    endloop
  endfacet
  facet normal 9.952209e-01 -1.431085e-04 -9.764907e-02
    outer loop
      vertex   -2.757874e+02 9.023124e+01 1.606203e+02
      vertex   -2.757876e+02 8.923124e+01 1.606203e+02
      vertex   -2.758640e+02 9.023125e+01 1.598399e+02
    endloop
  endfacet
  facet normal 9.570476e-01 -1.376194e-04 -2.899307e-01
    outer loop
      vertex   -2.757874e+02 9.023124e+01 1.606203e+02
      vertex   -2.755601e+02 9.023121e+01 1.613707e+02
      vertex   -2.757876e+02 8.923124e+01 1.606203e+02
    endloop
  endfacet
  facet normal 9.952209e-01 -1.431085e-04 -9.764907e-02
    outer loop
      vertex   -2.757876e+02 8.923124e+01 1.606203e+02
      vertex   -2.758642e+02 8.923125e+01 1.598399e+02
      vertex   -2.758640e+02 9.023125e+01 1.598399e+02
    endloop
  endfacet
  facet normal 8.820955e-01 -1.268416e-04 -4.710705e-01
    outer loop
      vertex   -2.755601e+02 9.023121e+01 1.613707e+02
      vertex   -2.751907e+02 9.023116e+01 1.620624e+02
      vertex   -2.755602e+02 8.923121e+01 1.613707e+02
    endloop
  endfacet
  facet normal 7.732450e-01 -1.111893e-04 -6.341073e-01
    outer loop
      vertex   -2.751907e+02 9.023116e+01 1.620624e+02
      vertex   -2.746935e+02 9.023108e+01 1.626687e+02
      vertex   -2.751909e+02 8.923116e+01 1.620624e+02
    endloop
  endfacet
  facet normal 6.346791e-01 -9.126415e-05 -7.727758e-01
    outer loop
      vertex   -2.746935e+02 9.023108e+01 1.626687e+02
      vertex   -2.740875e+02 9.023100e+01 1.631664e+02
      vertex   -2.746936e+02 8.923108e+01 1.626687e+02
    endloop
  endfacet
  facet normal 9.838519e-02 -1.414737e-05 -9.951484e-01
    outer loop
      vertex   -2.726458e+02 9.023079e+01 1.637642e+02
      vertex   -2.718655e+02 9.023068e+01 1.638413e+02
      vertex   -2.726460e+02 8.923079e+01 1.637642e+02
    endloop
  endfacet
  facet normal -9.764907e-02 1.404152e-05 -9.952209e-01
    outer loop
      vertex   -2.718655e+02 9.023068e+01 1.638413e+02
      vertex   -2.710851e+02 9.023057e+01 1.637648e+02
      vertex   -2.718656e+02 8.923068e+01 1.638413e+02
    endloop
  endfacet
  facet normal -2.899307e-01 4.169080e-05 -9.570476e-01
    outer loop
      vertex   -2.710851e+02 9.023057e+01 1.637648e+02
      vertex   -2.703346e+02 9.023046e+01 1.635374e+02
      vertex   -2.710852e+02 8.923057e+01 1.637648e+02
    endloop
  endfacet
  facet normal -7.727758e-01 1.111219e-04 -6.346791e-01
    outer loop
      vertex   -2.690366e+02 9.023027e+01 1.626708e+02
      vertex   -2.685390e+02 9.023020e+01 1.620649e+02
      vertex   -2.690368e+02 8.923027e+01 1.626708e+02
    endloop
  endfacet
  facet normal -1.437957e-04 -1.000000e+00 -2.898720e-13
    outer loop
      vertex   -2.730325e+02 8.923085e+01 1.539562e+02
      vertex   -2.718619e+02 8.923068e+01 1.538413e+02
      vertex   -2.718627e+02 8.923068e+01 1.558413e+02
    endloop
  endfacet
  facet normal -1.437957e-04 -1.000000e+00 -2.969753e-13
    outer loop
      vertex   -2.726431e+02 8.923079e+01 1.559179e+02
      vertex   -2.730325e+02 8.923085e+01 1.539562e+02
      vertex   -2.718627e+02 8.923068e+01 1.558413e+02
    endloop
  endfacet
  facet normal -1.437957e-04 -1.000000e+00 -2.982287e-13
    outer loop
      vertex   -2.726431e+02 8.923079e+01 1.559179e+02
      vertex   -2.741582e+02 8.923101e+01 1.542972e+02
      vertex   -2.730325e+02 8.923085e+01 1.539562e+02
    endloop
  endfacet
  facet normal -1.437957e-04 -1.000000e+00 -2.890315e-13
    outer loop
      vertex   -2.726431e+02 8.923079e+01 1.559179e+02
      vertex   -2.733935e+02 8.923090e+01 1.561453e+02
      vertex   -2.741582e+02 8.923101e+01 1.542972e+02
    endloop
  endfacet
  facet normal -1.437957e-04 -1.000000e+00 -2.905543e-13
    outer loop
      vertex   -2.741582e+02 8.923101e+01 1.542972e+02
      vertex   -2.733935e+02 8.923090e+01 1.561453e+02
      vertex   -2.751957e+02 8.923116e+01 1.548513e+02
    endloop
  endfacet
  facet normal -1.437957e-04 -1.000000e+00 -3.014878e-13
    outer loop
      vertex   -2.751957e+02 8.923116e+01 1.548513e+02
      vertex   -2.733935e+02 8.923090e+01 1.561453e+02
      vertex   -2.740852e+02 8.923100e+01 1.565146e+02
    endloop
  endfacet
  facet normal -1.437957e-04 -1.000000e+00 -2.850275e-13
    outer loop
      vertex   -2.761052e+02 8.923129e+01 1.555971e+02
      vertex   -2.740852e+02 8.923100e+01 1.565146e+02
      vertex   -2.746915e+02 8.923108e+01 1.570119e+02
    endloop
  endfacet
  facet normal -1.437957e-04 -1.000000e+00 -2.997527e-13
    outer loop
      vertex   -2.768517e+02 8.923139e+01 1.565061e+02
      vertex   -2.746915e+02 8.923108e+01 1.570119e+02
      vertex   -2.751892e+02 8.923116e+01 1.576178e+02
    endloop
  endfacet
  facet normal -1.437957e-04 -1.000000e+00 -3.069522e-13
    outer loop
      vertex   -2.774066e+02 8.923147e+01 1.575432e+02
      vertex   -2.751892e+02 8.923116e+01 1.576178e+02
      vertex   -2.755591e+02 8.923121e+01 1.583092e+02
    endloop
  endfacet
  facet normal -1.437957e-04 -1.000000e+00 -2.942835e-13
    outer loop
      vertex   -2.777484e+02 8.923152e+01 1.586686e+02
      vertex   -2.755591e+02 8.923121e+01 1.583092e+02
      vertex   -2.757870e+02 8.923124e+01 1.590595e+02
    endloop
  endfacet
  facet normal -1.437957e-04 -1.000000e+00 -2.978826e-13
    outer loop
      vertex   -2.778642e+02 8.923154e+01 1.598391e+02
      vertex   -2.757870e+02 8.923124e+01 1.590595e+02
      vertex   -2.758642e+02 8.923125e+01 1.598399e+02
    endloop
  endfacet
  facet normal -1.437957e-04 -1.000000e+00 -2.878063e-13
    outer loop
      vertex   -2.777493e+02 8.923152e+01 1.610097e+02
      vertex   -2.758642e+02 8.923125e+01 1.598399e+02
      vertex   -2.757876e+02 8.923124e+01 1.606203e+02
    endloop
  endfacet
  facet normal -1.437957e-04 -1.000000e+00 -3.006890e-13
    outer loop
      vertex   -2.755602e+02 8.923121e+01 1.613707e+02
      vertex   -2.777493e+02 8.923152e+01 1.610097e+02
      vertex   -2.757876e+02 8.923124e+01 1.606203e+02
    endloop
  endfacet
  facet normal -1.437957e-04 -1.000000e+00 -3.007005e-13
    outer loop
      vertex   -2.755602e+02 8.923121e+01 1.613707e+02
      vertex   -2.774083e+02 8.923147e+01 1.621354e+02
      vertex   -2.777493e+02 8.923152e+01 1.610097e+02
    endloop
  endfacet
  facet normal -1.437957e-04 -1.000000e+00 -3.020992e-13
    outer loop
      vertex   -2.755602e+02 8.923121e+01 1.613707e+02
      vertex   -2.751909e+02 8.923116e+01 1.620624e+02
      vertex   -2.774083e+02 8.923147e+01 1.621354e+02
    endloop
  endfacet
  facet normal -1.437957e-04 -1.000000e+00 -2.886429e-13
    outer loop
      vertex   -2.774083e+02 8.923147e+01 1.621354e+02
      vertex   -2.751909e+02 8.923116e+01 1.620624e+02
      vertex   -2.768542e+02 8.923139e+01 1.631729e+02
    endloop
  endfacet
  facet normal -1.437957e-04 -1.000000e+00 -2.905492e-13
    outer loop
      vertex   -2.768542e+02 8.923139e+01 1.631729e+02
      vertex   -2.751909e+02 8.923116e+01 1.620624e+02
      vertex   -2.746936e+02 8.923108e+01 1.626687e+02
    endloop
  endfacet
  facet normal -1.437957e-04 -1.000000e+00 -2.933022e-13
    outer loop
      vertex   -2.761084e+02 8.923129e+01 1.640824e+02
      vertex   -2.746936e+02 8.923108e+01 1.626687e+02
      vertex   -2.740877e+02 8.923100e+01 1.631664e+02
    endloop
  endfacet
  facet normal -1.437957e-04 -1.000000e+00 -2.874216e-13
    outer loop
      vertex   -2.751994e+02 8.923116e+01 1.648289e+02
      vertex   -2.740877e+02 8.923100e+01 1.631664e+02
      vertex   -2.733963e+02 8.923090e+01 1.635363e+02
    endloop
  endfacet
  facet normal -1.437957e-04 -1.000000e+00 -2.967276e-13
    outer loop
      vertex   -2.741623e+02 8.923101e+01 1.653838e+02
      vertex   -2.733963e+02 8.923090e+01 1.635363e+02
      vertex   -2.726460e+02 8.923079e+01 1.637642e+02
    endloop
  endfacet
  facet normal -1.437957e-04 -1.000000e+00 -2.969689e-13
    outer loop
      vertex   -2.730369e+02 8.923085e+01 1.657256e+02
      vertex   -2.726460e+02 8.923079e+01 1.637642e+02
      vertex   -2.718656e+02 8.923068e+01 1.638413e+02
    endloop
  endfacet
  facet normal -1.437957e-04 -1.000000e+00 -2.969732e-13
    outer loop
      vertex   -2.718664e+02 8.923068e+01 1.658413e+02
      vertex   -2.718656e+02 8.923068e+01 1.638413e+02
      vertex   -2.706958e+02 8.923051e+01 1.657265e+02
    endloop
  endfacet
  facet normal -1.437957e-04 -1.000000e+00 -2.969750e-13
    outer loop
      vertex   -2.718664e+02 8.923068e+01 1.658413e+02
      vertex   -2.730369e+02 8.923085e+01 1.657256e+02
      vertex   -2.718656e+02 8.923068e+01 1.638413e+02
    endloop
  endfacet
  facet normal -1.437957e-04 -1.000000e+00 -2.789695e-13
    outer loop
      vertex   -2.679413e+02 8.923011e+01 1.606232e+02
      vertex   -2.678642e+02 8.923010e+01 1.598428e+02
      vertex   -2.658642e+02 8.922981e+01 1.598436e+02
    endloop
  endfacet
  facet normal -1.437957e-04 -1.000000e+00 -2.852666e-13
    outer loop
      vertex   -2.659799e+02 8.922983e+01 1.610141e+02
      vertex   -2.679413e+02 8.923011e+01 1.606232e+02
      vertex   -2.658642e+02 8.922981e+01 1.598436e+02
    endloop
  endfacet
  facet normal -1.437957e-04 -1.000000e+00 -2.942835e-13
    outer loop
      vertex   -2.659799e+02 8.922983e+01 1.610141e+02
      vertex   -2.681692e+02 8.923015e+01 1.613734e+02
      vertex   -2.679413e+02 8.923011e+01 1.606232e+02
    endloop
  endfacet
  facet normal -1.437957e-04 -1.000000e+00 -2.942873e-13
    outer loop
      vertex   -2.659799e+02 8.922983e+01 1.610141e+02
      vertex   -2.663217e+02 8.922988e+01 1.621395e+02
      vertex   -2.681692e+02 8.923015e+01 1.613734e+02
    endloop
  endfacet
  facet normal -1.437957e-04 -1.000000e+00 -3.069541e-13
    outer loop
      vertex   -2.681692e+02 8.923015e+01 1.613734e+02
      vertex   -2.663217e+02 8.922988e+01 1.621395e+02
      vertex   -2.685391e+02 8.923020e+01 1.620649e+02
    endloop
  endfacet
  facet normal -1.437957e-04 -1.000000e+00 -3.069502e-13
    outer loop
      vertex   -2.685391e+02 8.923020e+01 1.620649e+02
      vertex   -2.663217e+02 8.922988e+01 1.621395e+02
      vertex   -2.668766e+02 8.922996e+01 1.631766e+02
    endloop
  endfacet
  facet normal -1.437957e-04 -1.000000e+00 -2.932038e-13
    outer loop
      vertex   -2.690368e+02 8.923027e+01 1.626708e+02
      vertex   -2.668766e+02 8.922996e+01 1.631766e+02
      vertex   -2.676231e+02 8.923007e+01 1.640856e+02
    endloop
  endfacet
  facet normal -1.437957e-04 -1.000000e+00 -2.911515e-13
    outer loop
      vertex   -2.696431e+02 8.923036e+01 1.631680e+02
      vertex   -2.676231e+02 8.923007e+01 1.640856e+02
      vertex   -2.685326e+02 8.923020e+01 1.648314e+02
    endloop
  endfacet
  facet normal -1.437957e-04 -1.000000e+00 -2.905543e-13
    outer loop
      vertex   -2.703348e+02 8.923046e+01 1.635374e+02
      vertex   -2.685326e+02 8.923020e+01 1.648314e+02
      vertex   -2.695701e+02 8.923035e+01 1.653855e+02
    endloop
  endfacet
  facet normal -1.437957e-04 -1.000000e+00 -2.982287e-13
    outer loop
      vertex   -2.710852e+02 8.923057e+01 1.637648e+02
      vertex   -2.695701e+02 8.923035e+01 1.653855e+02
      vertex   -2.706958e+02 8.923051e+01 1.657265e+02
    endloop
  endfacet
  facet normal -1.437957e-04 -1.000000e+00 -2.969753e-13
    outer loop
      vertex   -2.718656e+02 8.923068e+01 1.638413e+02
      vertex   -2.710852e+02 8.923057e+01 1.637648e+02
      vertex   -2.706958e+02 8.923051e+01 1.657265e+02
    endloop
  endfacet
  facet normal -1.437957e-04 -1.000000e+00 -2.997074e-13
    outer loop
      vertex   -2.658642e+02 8.922981e+01 1.598436e+02
      vertex   -2.679407e+02 8.923011e+01 1.590624e+02
      vertex   -2.659790e+02 8.922983e+01 1.586730e+02
    endloop
  endfacet
  facet normal -1.437957e-04 -1.000000e+00 -3.060173e-13
    outer loop
      vertex   -2.658642e+02 8.922981e+01 1.598436e+02
      vertex   -2.678642e+02 8.923010e+01 1.598428e+02
      vertex   -2.679407e+02 8.923011e+01 1.590624e+02
    endloop
  endfacet
  facet normal -1.437957e-04 -1.000000e+00 -3.007006e-13
    outer loop
      vertex   -2.659790e+02 8.922983e+01 1.586730e+02
      vertex   -2.681681e+02 8.923015e+01 1.583120e+02
      vertex   -2.663200e+02 8.922988e+01 1.575473e+02
    endloop
  endfacet
  facet normal -1.437957e-04 -1.000000e+00 -3.006891e-13
    outer loop
      vertex   -2.659790e+02 8.922983e+01 1.586730e+02
      vertex   -2.679407e+02 8.923011e+01 1.590624e+02
      vertex   -2.681681e+02 8.923015e+01 1.583120e+02
    endloop
  endfacet
  facet normal -1.437957e-04 -1.000000e+00 -2.886429e-13
    outer loop
      vertex   -2.663200e+02 8.922988e+01 1.575473e+02
      vertex   -2.685375e+02 8.923020e+01 1.576203e+02
      vertex   -2.668741e+02 8.922996e+01 1.565098e+02
    endloop
  endfacet
  facet normal -1.437957e-04 -1.000000e+00 -3.020992e-13
    outer loop
      vertex   -2.663200e+02 8.922988e+01 1.575473e+02
      vertex   -2.681681e+02 8.923015e+01 1.583120e+02
      vertex   -2.685375e+02 8.923020e+01 1.576203e+02
    endloop
  endfacet
  facet normal -1.437957e-04 -1.000000e+00 -2.967117e-13
    outer loop
      vertex   -2.730369e+02 8.923085e+01 1.657256e+02
      vertex   -2.741623e+02 8.923101e+01 1.653838e+02
      vertex   -2.726460e+02 8.923079e+01 1.637642e+02
    endloop
  endfacet
  facet normal -1.437957e-04 -1.000000e+00 -2.983798e-13
    outer loop
      vertex   -2.741623e+02 8.923101e+01 1.653838e+02
      vertex   -2.751994e+02 8.923116e+01 1.648289e+02
      vertex   -2.733963e+02 8.923090e+01 1.635363e+02
    endloop
  endfacet
  facet normal -1.437957e-04 -1.000000e+00 -2.871762e-13
    outer loop
      vertex   -2.751994e+02 8.923116e+01 1.648289e+02
      vertex   -2.761084e+02 8.923129e+01 1.640824e+02
      vertex   -2.740877e+02 8.923100e+01 1.631664e+02
    endloop
  endfacet
  facet normal -1.437957e-04 -1.000000e+00 -2.970917e-13
    outer loop
      vertex   -2.761084e+02 8.923129e+01 1.640824e+02
      vertex   -2.768542e+02 8.923139e+01 1.631729e+02
      vertex   -2.746936e+02 8.923108e+01 1.626687e+02
    endloop
  endfacet
  facet normal -1.437957e-04 -1.000000e+00 -2.992429e-13
    outer loop
      vertex   -2.777493e+02 8.923152e+01 1.610097e+02
      vertex   -2.778642e+02 8.923154e+01 1.598391e+02
      vertex   -2.758642e+02 8.923125e+01 1.598399e+02
    endloop
  endfacet
  facet normal -1.437957e-04 -1.000000e+00 -2.852666e-13
    outer loop
      vertex   -2.778642e+02 8.923154e+01 1.598391e+02
      vertex   -2.777484e+02 8.923152e+01 1.586686e+02
      vertex   -2.757870e+02 8.923124e+01 1.590595e+02
    endloop
  endfacet
  facet normal -1.437957e-04 -1.000000e+00 -2.942796e-13
    outer loop
      vertex   -2.777484e+02 8.923152e+01 1.586686e+02
      vertex   -2.774066e+02 8.923147e+01 1.575432e+02
      vertex   -2.755591e+02 8.923121e+01 1.583092e+02
    endloop
  endfacet
  facet normal -1.437957e-04 -1.000000e+00 -3.069561e-13
    outer loop
      vertex   -2.774066e+02 8.923147e+01 1.575432e+02
      vertex   -2.768517e+02 8.923139e+01 1.565061e+02
      vertex   -2.751892e+02 8.923116e+01 1.576178e+02
    endloop
  endfacet
  facet normal -1.437957e-04 -1.000000e+00 -2.932038e-13
    outer loop
      vertex   -2.768517e+02 8.923139e+01 1.565061e+02
      vertex   -2.761052e+02 8.923129e+01 1.555971e+02
      vertex   -2.746915e+02 8.923108e+01 1.570119e+02
    endloop
  endfacet
  facet normal -1.437957e-04 -1.000000e+00 -2.911515e-13
    outer loop
      vertex   -2.761052e+02 8.923129e+01 1.555971e+02
      vertex   -2.751957e+02 8.923116e+01 1.548513e+02
      vertex   -2.740852e+02 8.923100e+01 1.565146e+02
    endloop
  endfacet
  facet normal -1.437957e-04 -1.000000e+00 -2.890315e-13
    outer loop
      vertex   -2.710852e+02 8.923057e+01 1.637648e+02
      vertex   -2.703348e+02 8.923046e+01 1.635374e+02
      vertex   -2.695701e+02 8.923035e+01 1.653855e+02
    endloop
  endfacet
  facet normal -1.437957e-04 -1.000000e+00 -3.014878e-13
    outer loop
      vertex   -2.703348e+02 8.923046e+01 1.635374e+02
      vertex   -2.696431e+02 8.923036e+01 1.631680e+02
      vertex   -2.685326e+02 8.923020e+01 1.648314e+02
    endloop
  endfacet
  facet normal -1.437957e-04 -1.000000e+00 -2.850276e-13
    outer loop
      vertex   -2.696431e+02 8.923036e+01 1.631680e+02
      vertex   -2.690368e+02 8.923027e+01 1.626708e+02
      vertex   -2.676231e+02 8.923007e+01 1.640856e+02
    endloop
  endfacet
  facet normal -1.437957e-04 -1.000000e+00 -2.997527e-13
    outer loop
      vertex   -2.690368e+02 8.923027e+01 1.626708e+02
      vertex   -2.685391e+02 8.923020e+01 1.620649e+02
      vertex   -2.668766e+02 8.922996e+01 1.631766e+02
    endloop
  endfacet
  facet normal -1.437957e-04 -1.000000e+00 -2.905492e-13
    outer loop
      vertex   -2.685375e+02 8.923020e+01 1.576203e+02
      vertex   -2.690347e+02 8.923027e+01 1.570140e+02
      vertex   -2.668741e+02 8.922996e+01 1.565098e+02
    endloop
  endfacet
  facet normal -1.437957e-04 -1.000000e+00 -2.970917e-13
    outer loop
      vertex   -2.668741e+02 8.922996e+01 1.565098e+02
      vertex   -2.690347e+02 8.923027e+01 1.570140e+02
      vertex   -2.676199e+02 8.923007e+01 1.556003e+02
    endloop
  endfacet
  facet normal -1.437957e-04 -1.000000e+00 -2.933022e-13
    outer loop
      vertex   -2.676199e+02 8.923007e+01 1.556003e+02
      vertex   -2.690347e+02 8.923027e+01 1.570140e+02
      vertex   -2.696406e+02 8.923036e+01 1.565163e+02
    endloop
  endfacet
  facet normal -1.437957e-04 -1.000000e+00 -2.874216e-13
    outer loop
      vertex   -2.685289e+02 8.923020e+01 1.548538e+02
      vertex   -2.696406e+02 8.923036e+01 1.565163e+02
      vertex   -2.703321e+02 8.923046e+01 1.561464e+02
    endloop
  endfacet
  facet normal -1.437957e-04 -1.000000e+00 -2.967276e-13
    outer loop
      vertex   -2.695660e+02 8.923035e+01 1.542989e+02
      vertex   -2.703321e+02 8.923046e+01 1.561464e+02
      vertex   -2.710823e+02 8.923056e+01 1.559185e+02
    endloop
  endfacet
  facet normal -1.437957e-04 -1.000000e+00 -2.969689e-13
    outer loop
      vertex   -2.706914e+02 8.923051e+01 1.539571e+02
      vertex   -2.710823e+02 8.923056e+01 1.559185e+02
      vertex   -2.718627e+02 8.923068e+01 1.558413e+02
    endloop
  endfacet
  facet normal -1.437957e-04 -1.000000e+00 -2.898654e-13
    outer loop
      vertex   -2.718619e+02 8.923068e+01 1.538413e+02
      vertex   -2.706914e+02 8.923051e+01 1.539571e+02
      vertex   -2.718627e+02 8.923068e+01 1.558413e+02
    endloop
  endfacet
  facet normal -1.437957e-04 -1.000000e+00 -2.983798e-13
    outer loop
      vertex   -2.703321e+02 8.923046e+01 1.561464e+02
      vertex   -2.695660e+02 8.923035e+01 1.542989e+02
      vertex   -2.685289e+02 8.923020e+01 1.548538e+02
    endloop
  endfacet
  facet normal -1.437957e-04 -1.000000e+00 -2.967117e-13
    outer loop
      vertex   -2.695660e+02 8.923035e+01 1.542989e+02
      vertex   -2.710823e+02 8.923056e+01 1.559185e+02
      vertex   -2.706914e+02 8.923051e+01 1.539571e+02
    endloop
  endfacet
  facet normal -1.437957e-04 -1.000000e+00 -2.871762e-13
    outer loop
      vertex   -2.676199e+02 8.923007e+01 1.556003e+02
      vertex   -2.696406e+02 8.923036e+01 1.565163e+02
      vertex   -2.685289e+02 8.923020e+01 1.548538e+02
    endloop
  endfacet
  facet normal -9.952209e-01 1.431085e-04 9.764907e-02
    outer loop
      vertex   -2.678642e+02 8.923010e+01 1.598428e+02
      vertex   -2.678640e+02 9.023010e+01 1.598428e+02
      vertex   -2.679407e+02 8.923011e+01 1.590624e+02
    endloop
  endfacet
  facet normal -9.952209e-01 1.431085e-04 9.764907e-02
    outer loop
      vertex   -2.679407e+02 8.923011e+01 1.590624e+02
      vertex   -2.678640e+02 9.023010e+01 1.598428e+02
      vertex   -2.679406e+02 9.023011e+01 1.590624e+02
    endloop
  endfacet
  facet normal -9.570476e-01 1.376194e-04 2.899307e-01
    outer loop
      vertex   -2.681679e+02 9.023015e+01 1.583120e+02
      vertex   -2.679407e+02 8.923011e+01 1.590624e+02
      vertex   -2.679406e+02 9.023011e+01 1.590624e+02
    endloop
  endfacet
  facet normal -9.570476e-01 1.376194e-04 2.899307e-01
    outer loop
      vertex   -2.681679e+02 9.023015e+01 1.583120e+02
      vertex   -2.681681e+02 8.923015e+01 1.583120e+02
      vertex   -2.679407e+02 8.923011e+01 1.590624e+02
    endloop
  endfacet
  facet normal -8.820955e-01 1.268416e-04 4.710705e-01
    outer loop
      vertex   -2.681679e+02 9.023015e+01 1.583120e+02
      vertex   -2.685373e+02 9.023020e+01 1.576203e+02
      vertex   -2.681681e+02 8.923015e+01 1.583120e+02
    endloop
  endfacet
  facet normal -8.820955e-01 1.268416e-04 4.710705e-01
    outer loop
      vertex   -2.681681e+02 8.923015e+01 1.583120e+02
      vertex   -2.685373e+02 9.023020e+01 1.576203e+02
      vertex   -2.685375e+02 8.923020e+01 1.576203e+02
    endloop
  endfacet
  facet normal -7.732450e-01 1.111893e-04 6.341073e-01
    outer loop
      vertex   -2.685375e+02 8.923020e+01 1.576203e+02
      vertex   -2.685373e+02 9.023020e+01 1.576203e+02
      vertex   -2.690345e+02 9.023027e+01 1.570140e+02
    endloop
  endfacet
  facet normal -6.346791e-01 9.126415e-05 7.727758e-01
    outer loop
      vertex   -2.690347e+02 8.923027e+01 1.570140e+02
      vertex   -2.690345e+02 9.023027e+01 1.570140e+02
      vertex   -2.696405e+02 9.023036e+01 1.565163e+02
    endloop
  endfacet
  facet normal -4.717229e-01 6.783173e-05 8.817469e-01
    outer loop
      vertex   -2.696406e+02 8.923036e+01 1.565163e+02
      vertex   -2.696405e+02 9.023036e+01 1.565163e+02
      vertex   -2.703321e+02 8.923046e+01 1.561464e+02
    endloop
  endfacet
  facet normal -6.346791e-01 9.126415e-05 7.727758e-01
    outer loop
      vertex   -2.696406e+02 8.923036e+01 1.565163e+02
      vertex   -2.690347e+02 8.923027e+01 1.570140e+02
      vertex   -2.696405e+02 9.023036e+01 1.565163e+02
    endloop
  endfacet
  facet normal -4.717229e-01 6.783173e-05 8.817469e-01
    outer loop
      vertex   -2.696405e+02 9.023036e+01 1.565163e+02
      vertex   -2.703319e+02 9.023046e+01 1.561464e+02
      vertex   -2.703321e+02 8.923046e+01 1.561464e+02
    endloop
  endfacet
  facet normal -2.906386e-01 4.179259e-05 9.568329e-01
    outer loop
      vertex   -2.703321e+02 8.923046e+01 1.561464e+02
      vertex   -2.703319e+02 9.023046e+01 1.561464e+02
      vertex   -2.710822e+02 9.023056e+01 1.559185e+02
    endloop
  endfacet
  facet normal -9.838519e-02 1.414737e-05 9.951484e-01
    outer loop
      vertex   -2.710823e+02 8.923056e+01 1.559185e+02
      vertex   -2.710822e+02 9.023056e+01 1.559185e+02
      vertex   -2.718625e+02 9.023068e+01 1.558413e+02
    endloop
  endfacet
  facet normal 9.764907e-02 -1.404152e-05 9.952209e-01
    outer loop
      vertex   -2.718627e+02 8.923068e+01 1.558413e+02
      vertex   -2.718625e+02 9.023068e+01 1.558413e+02
      vertex   -2.726429e+02 9.023079e+01 1.559179e+02
    endloop
  endfacet
  facet normal 2.899307e-01 -4.169080e-05 9.570476e-01
    outer loop
      vertex   -2.726431e+02 8.923079e+01 1.559179e+02
      vertex   -2.726429e+02 9.023079e+01 1.559179e+02
      vertex   -2.733934e+02 9.023090e+01 1.561453e+02
    endloop
  endfacet
  facet normal 4.710705e-01 -6.773793e-05 8.820955e-01
    outer loop
      vertex   -2.733935e+02 8.923090e+01 1.561453e+02
      vertex   -2.733934e+02 9.023090e+01 1.561453e+02
      vertex   -2.740852e+02 8.923100e+01 1.565146e+02
    endloop
  endfacet
  facet normal 2.899307e-01 -4.169080e-05 9.570476e-01
    outer loop
      vertex   -2.733935e+02 8.923090e+01 1.561453e+02
      vertex   -2.726431e+02 8.923079e+01 1.559179e+02
      vertex   -2.733934e+02 9.023090e+01 1.561453e+02
    endloop
  endfacet
  facet normal 4.710705e-01 -6.773793e-05 8.820955e-01
    outer loop
      vertex   -2.733934e+02 9.023090e+01 1.561453e+02
      vertex   -2.740851e+02 9.023100e+01 1.565146e+02
      vertex   -2.740852e+02 8.923100e+01 1.565146e+02
    endloop
  endfacet
  facet normal 6.341073e-01 -9.118193e-05 7.732450e-01
    outer loop
      vertex   -2.740852e+02 8.923100e+01 1.565146e+02
      vertex   -2.740851e+02 9.023100e+01 1.565146e+02
      vertex   -2.746914e+02 9.023108e+01 1.570119e+02
    endloop
  endfacet
  facet normal 7.727758e-01 -1.111219e-04 6.346791e-01
    outer loop
      vertex   -2.746915e+02 8.923108e+01 1.570119e+02
      vertex   -2.746914e+02 9.023108e+01 1.570119e+02
      vertex   -2.751891e+02 9.023116e+01 1.576178e+02
    endloop
  endfacet
  facet normal 8.817469e-01 -1.267914e-04 4.717229e-01
    outer loop
      vertex   -2.751892e+02 8.923116e+01 1.576178e+02
      vertex   -2.751891e+02 9.023116e+01 1.576178e+02
      vertex   -2.755590e+02 9.023121e+01 1.583092e+02
    endloop
  endfacet
  facet normal 9.568329e-01 -1.375885e-04 2.906386e-01
    outer loop
      vertex   -2.755591e+02 8.923121e+01 1.583092e+02
      vertex   -2.755590e+02 9.023121e+01 1.583092e+02
      vertex   -2.757869e+02 9.023124e+01 1.590595e+02
    endloop
  endfacet
  facet normal 9.951484e-01 -1.430981e-04 9.838520e-02
    outer loop
      vertex   -2.757870e+02 8.923124e+01 1.590595e+02
      vertex   -2.757869e+02 9.023124e+01 1.590595e+02
      vertex   -2.758642e+02 8.923125e+01 1.598399e+02
    endloop
  endfacet
  facet normal 9.568329e-01 -1.375885e-04 2.906386e-01
    outer loop
      vertex   -2.757870e+02 8.923124e+01 1.590595e+02
      vertex   -2.755591e+02 8.923121e+01 1.583092e+02
      vertex   -2.757869e+02 9.023124e+01 1.590595e+02
    endloop
  endfacet
  facet normal 9.951484e-01 -1.430981e-04 9.838520e-02
    outer loop
      vertex   -2.757869e+02 9.023124e+01 1.590595e+02
      vertex   -2.758640e+02 9.023125e+01 1.598399e+02
      vertex   -2.758642e+02 8.923125e+01 1.598399e+02
    endloop
  endfacet
  facet normal 8.817469e-01 -1.267914e-04 4.717229e-01
    outer loop
      vertex   -2.755591e+02 8.923121e+01 1.583092e+02
      vertex   -2.751892e+02 8.923116e+01 1.576178e+02
      vertex   -2.755590e+02 9.023121e+01 1.583092e+02
    endloop
  endfacet
  facet normal 7.727758e-01 -1.111219e-04 6.346791e-01
    outer loop
      vertex   -2.751892e+02 8.923116e+01 1.576178e+02
      vertex   -2.746915e+02 8.923108e+01 1.570119e+02
      vertex   -2.751891e+02 9.023116e+01 1.576178e+02
    endloop
  endfacet
  facet normal 6.341073e-01 -9.118193e-05 7.732450e-01
    outer loop
      vertex   -2.746915e+02 8.923108e+01 1.570119e+02
      vertex   -2.740852e+02 8.923100e+01 1.565146e+02
      vertex   -2.746914e+02 9.023108e+01 1.570119e+02
    endloop
  endfacet
  facet normal 9.764907e-02 -1.404152e-05 9.952209e-01
    outer loop
      vertex   -2.726431e+02 8.923079e+01 1.559179e+02
      vertex   -2.718627e+02 8.923068e+01 1.558413e+02
      vertex   -2.726429e+02 9.023079e+01 1.559179e+02
    endloop
  endfacet
  facet normal -9.838519e-02 1.414737e-05 9.951484e-01
    outer loop
      vertex   -2.718627e+02 8.923068e+01 1.558413e+02
      vertex   -2.710823e+02 8.923056e+01 1.559185e+02
      vertex   -2.718625e+02 9.023068e+01 1.558413e+02
    endloop
  endfacet
  facet normal -2.906386e-01 4.179259e-05 9.568329e-01
    outer loop
      vertex   -2.710823e+02 8.923056e+01 1.559185e+02
      vertex   -2.703321e+02 8.923046e+01 1.561464e+02
      vertex   -2.710822e+02 9.023056e+01 1.559185e+02
    endloop
  endfacet
  facet normal -7.732450e-01 1.111893e-04 6.341073e-01
    outer loop
      vertex   -2.690347e+02 8.923027e+01 1.570140e+02
      vertex   -2.685375e+02 8.923020e+01 1.576203e+02
      vertex   -2.690345e+02 9.023027e+01 1.570140e+02
    endloop
  endfacet
  facet normal -9.838519e-02 1.414737e-05 9.951484e-01
    outer loop
      vertex   -2.718664e+02 8.923068e+01 1.658413e+02
      vertex   -2.718662e+02 9.023068e+01 1.658413e+02
      vertex   -2.730369e+02 8.923085e+01 1.657256e+02
    endloop
  endfacet
  facet normal -9.838519e-02 1.414737e-05 9.951484e-01
    outer loop
      vertex   -2.730369e+02 8.923085e+01 1.657256e+02
      vertex   -2.718662e+02 9.023068e+01 1.658413e+02
      vertex   -2.730367e+02 9.023085e+01 1.657256e+02
    endloop
  endfacet
  facet normal -2.906386e-01 4.179259e-05 9.568329e-01
    outer loop
      vertex   -2.741622e+02 9.023101e+01 1.653838e+02
      vertex   -2.730369e+02 8.923085e+01 1.657256e+02
      vertex   -2.730367e+02 9.023085e+01 1.657256e+02
    endloop
  endfacet
  facet normal -2.906386e-01 4.179259e-05 9.568329e-01
    outer loop
      vertex   -2.741622e+02 9.023101e+01 1.653838e+02
      vertex   -2.741623e+02 8.923101e+01 1.653838e+02
      vertex   -2.730369e+02 8.923085e+01 1.657256e+02
    endloop
  endfacet
  facet normal -4.717229e-01 6.783174e-05 8.817469e-01
    outer loop
      vertex   -2.741622e+02 9.023101e+01 1.653838e+02
      vertex   -2.751993e+02 9.023116e+01 1.648289e+02
      vertex   -2.741623e+02 8.923101e+01 1.653838e+02
    endloop
  endfacet
  facet normal -4.717229e-01 6.783173e-05 8.817469e-01
    outer loop
      vertex   -2.741623e+02 8.923101e+01 1.653838e+02
      vertex   -2.751993e+02 9.023116e+01 1.648289e+02
      vertex   -2.751994e+02 8.923116e+01 1.648289e+02
    endloop
  endfacet
  facet normal -6.346791e-01 9.126415e-05 7.727758e-01
    outer loop
      vertex   -2.751994e+02 8.923116e+01 1.648289e+02
      vertex   -2.751993e+02 9.023116e+01 1.648289e+02
      vertex   -2.761082e+02 9.023129e+01 1.640824e+02
    endloop
  endfacet
  facet normal -7.732450e-01 1.111893e-04 6.341073e-01
    outer loop
      vertex   -2.761084e+02 8.923129e+01 1.640824e+02
      vertex   -2.761082e+02 9.023129e+01 1.640824e+02
      vertex   -2.768541e+02 9.023139e+01 1.631729e+02
    endloop
  endfacet
  facet normal -8.820955e-01 1.268416e-04 4.710705e-01
    outer loop
      vertex   -2.768542e+02 8.923139e+01 1.631729e+02
      vertex   -2.768541e+02 9.023139e+01 1.631729e+02
      vertex   -2.774081e+02 9.023147e+01 1.621354e+02
    endloop
  endfacet
  facet normal -9.570476e-01 1.376194e-04 2.899307e-01
    outer loop
      vertex   -2.774083e+02 8.923147e+01 1.621354e+02
      vertex   -2.774081e+02 9.023147e+01 1.621354e+02
      vertex   -2.777492e+02 9.023152e+01 1.610097e+02
    endloop
  endfacet
  facet normal -9.952209e-01 1.431085e-04 9.764907e-02
    outer loop
      vertex   -2.777493e+02 8.923152e+01 1.610097e+02
      vertex   -2.777492e+02 9.023152e+01 1.610097e+02
      vertex   -2.778642e+02 8.923154e+01 1.598391e+02
    endloop
  endfacet
  facet normal -9.570476e-01 1.376194e-04 2.899307e-01
    outer loop
      vertex   -2.777493e+02 8.923152e+01 1.610097e+02
      vertex   -2.774083e+02 8.923147e+01 1.621354e+02
      vertex   -2.777492e+02 9.023152e+01 1.610097e+02
    endloop
  endfacet
  facet normal -9.952209e-01 1.431085e-04 9.764907e-02
    outer loop
      vertex   -2.777492e+02 9.023152e+01 1.610097e+02
      vertex   -2.778640e+02 9.023154e+01 1.598391e+02
      vertex   -2.778642e+02 8.923154e+01 1.598391e+02
    endloop
  endfacet
  facet normal -9.951484e-01 1.430981e-04 -9.838520e-02
    outer loop
      vertex   -2.778642e+02 8.923154e+01 1.598391e+02
      vertex   -2.778640e+02 9.023154e+01 1.598391e+02
      vertex   -2.777484e+02 8.923152e+01 1.586686e+02
    endloop
  endfacet
  facet normal -9.951484e-01 1.430981e-04 -9.838520e-02
    outer loop
      vertex   -2.777484e+02 8.923152e+01 1.586686e+02
      vertex   -2.778640e+02 9.023154e+01 1.598391e+02
      vertex   -2.777483e+02 9.023152e+01 1.586686e+02
    endloop
  endfacet
  facet normal -9.568329e-01 1.375885e-04 -2.906386e-01
    outer loop
      vertex   -2.774064e+02 9.023147e+01 1.575432e+02
      vertex   -2.777484e+02 8.923152e+01 1.586686e+02
      vertex   -2.777483e+02 9.023152e+01 1.586686e+02
    endloop
  endfacet
  facet normal -9.568329e-01 1.375885e-04 -2.906386e-01
    outer loop
      vertex   -2.774064e+02 9.023147e+01 1.575432e+02
      vertex   -2.774066e+02 8.923147e+01 1.575432e+02
      vertex   -2.777484e+02 8.923152e+01 1.586686e+02
    endloop
  endfacet
  facet normal -8.817469e-01 1.267914e-04 -4.717229e-01
    outer loop
      vertex   -2.774064e+02 9.023147e+01 1.575432e+02
      vertex   -2.768516e+02 9.023139e+01 1.565061e+02
      vertex   -2.774066e+02 8.923147e+01 1.575432e+02
    endloop
  endfacet
  facet normal -8.817469e-01 1.267914e-04 -4.717229e-01
    outer loop
      vertex   -2.774066e+02 8.923147e+01 1.575432e+02
      vertex   -2.768516e+02 9.023139e+01 1.565061e+02
      vertex   -2.768517e+02 8.923139e+01 1.565061e+02
    endloop
  endfacet
  facet normal -7.727758e-01 1.111219e-04 -6.346791e-01
    outer loop
      vertex   -2.768517e+02 8.923139e+01 1.565061e+02
      vertex   -2.768516e+02 9.023139e+01 1.565061e+02
      vertex   -2.761051e+02 9.023129e+01 1.555971e+02
    endloop
  endfacet
  facet normal -6.341073e-01 9.118193e-05 -7.732450e-01
    outer loop
      vertex   -2.761052e+02 8.923129e+01 1.555971e+02
      vertex   -2.761051e+02 9.023129e+01 1.555971e+02
      vertex   -2.751956e+02 9.023116e+01 1.548513e+02
    endloop
  endfacet
  facet normal -4.710705e-01 6.773793e-05 -8.820955e-01
    outer loop
      vertex   -2.751957e+02 8.923116e+01 1.548513e+02
      vertex   -2.751956e+02 9.023116e+01 1.548513e+02
      vertex   -2.741581e+02 9.023101e+01 1.542972e+02
    endloop
  endfacet
  facet normal -2.899307e-01 4.169080e-05 -9.570476e-01
    outer loop
      vertex   -2.741582e+02 8.923101e+01 1.542972e+02
      vertex   -2.741581e+02 9.023101e+01 1.542972e+02
      vertex   -2.730324e+02 9.023085e+01 1.539562e+02
    endloop
  endfacet
  facet normal -9.764907e-02 1.404152e-05 -9.952209e-01
    outer loop
      vertex   -2.730325e+02 8.923085e+01 1.539562e+02
      vertex   -2.730324e+02 9.023085e+01 1.539562e+02
      vertex   -2.718619e+02 8.923068e+01 1.538413e+02
    endloop
  endfacet
  facet normal -2.899307e-01 4.169080e-05 -9.570476e-01
    outer loop
      vertex   -2.730325e+02 8.923085e+01 1.539562e+02
      vertex   -2.741582e+02 8.923101e+01 1.542972e+02
      vertex   -2.730324e+02 9.023085e+01 1.539562e+02
    endloop
  endfacet
  facet normal -9.764907e-02 1.404152e-05 -9.952209e-01
    outer loop
      vertex   -2.730324e+02 9.023085e+01 1.539562e+02
      vertex   -2.718618e+02 9.023068e+01 1.538413e+02
      vertex   -2.718619e+02 8.923068e+01 1.538413e+02
    endloop
  endfacet
  facet normal -4.710705e-01 6.773793e-05 -8.820955e-01
    outer loop
      vertex   -2.741582e+02 8.923101e+01 1.542972e+02
      vertex   -2.751957e+02 8.923116e+01 1.548513e+02
      vertex   -2.741581e+02 9.023101e+01 1.542972e+02
    endloop
  endfacet
  facet normal -6.341073e-01 9.118193e-05 -7.732450e-01
    outer loop
      vertex   -2.751957e+02 8.923116e+01 1.548513e+02
      vertex   -2.761052e+02 8.923129e+01 1.555971e+02
      vertex   -2.751956e+02 9.023116e+01 1.548513e+02
    endloop
  endfacet
  facet normal -7.727758e-01 1.111219e-04 -6.346791e-01
    outer loop
      vertex   -2.761052e+02 8.923129e+01 1.555971e+02
      vertex   -2.768517e+02 8.923139e+01 1.565061e+02
      vertex   -2.761051e+02 9.023129e+01 1.555971e+02
    endloop
  endfacet
  facet normal -8.820955e-01 1.268416e-04 4.710705e-01
    outer loop
      vertex   -2.774083e+02 8.923147e+01 1.621354e+02
      vertex   -2.768542e+02 8.923139e+01 1.631729e+02
      vertex   -2.774081e+02 9.023147e+01 1.621354e+02
    endloop
  endfacet
  facet normal -7.732450e-01 1.111893e-04 6.341073e-01
    outer loop
      vertex   -2.768542e+02 8.923139e+01 1.631729e+02
      vertex   -2.761084e+02 8.923129e+01 1.640824e+02
      vertex   -2.768541e+02 9.023139e+01 1.631729e+02
    endloop
  endfacet
  facet normal -6.346791e-01 9.126415e-05 7.727758e-01
    outer loop
      vertex   -2.761084e+02 8.923129e+01 1.640824e+02
      vertex   -2.751994e+02 8.923116e+01 1.648289e+02
      vertex   -2.761082e+02 9.023129e+01 1.640824e+02
    endloop
  endfacet
endsolid
