solid ascii
  facet normal -9.838519e-02 1.414737e-05 9.951484e-01
    outer loop
      vertex   -2.718681e+02 7.723068e+01 1.658413e+02
      vertex   -2.718675e+02 8.123068e+01 1.658413e+02
      vertex   -2.730386e+02 7.723085e+01 1.657256e+02
    endloop
  endfacet
  facet normal -9.838519e-02 1.414737e-05 9.951484e-01
    outer loop
      vertex   -2.730386e+02 7.723085e+01 1.657256e+02
      vertex   -2.718675e+02 8.123068e+01 1.658413e+02
      vertex   -2.730380e+02 8.123085e+01 1.657256e+02
    endloop
  endfacet
  facet normal -2.906386e-01 4.179259e-05 9.568329e-01
    outer loop
      vertex   -2.741635e+02 8.123101e+01 1.653838e+02
      vertex   -2.730386e+02 7.723085e+01 1.657256e+02
      vertex   -2.730380e+02 8.123085e+01 1.657256e+02
    endloop
  endfacet
  facet normal -2.906386e-01 4.179259e-05 9.568329e-01
    outer loop
      vertex   -2.741635e+02 8.123101e+01 1.653838e+02
      vertex   -2.741640e+02 7.723101e+01 1.653838e+02
      vertex   -2.730386e+02 7.723085e+01 1.657256e+02
    endloop
  endfacet
  facet normal -4.717229e-01 6.783173e-05 8.817469e-01
    outer loop
      vertex   -2.741635e+02 8.123101e+01 1.653838e+02
      vertex   -2.752006e+02 8.123116e+01 1.648289e+02
      vertex   -2.741640e+02 7.723101e+01 1.653838e+02
    endloop
  endfacet
  facet normal -4.717229e-01 6.783173e-05 8.817469e-01
    outer loop
      vertex   -2.741640e+02 7.723101e+01 1.653838e+02
      vertex   -2.752006e+02 8.123116e+01 1.648289e+02
      vertex   -2.752011e+02 7.723116e+01 1.648289e+02
    endloop
  endfacet
  facet normal -6.346791e-01 9.126415e-05 7.727758e-01
    outer loop
      vertex   -2.752011e+02 7.723116e+01 1.648289e+02
      vertex   -2.752006e+02 8.123116e+01 1.648289e+02
      vertex   -2.761095e+02 8.123129e+01 1.640824e+02
    endloop
  endfacet
  facet normal -7.732450e-01 1.111893e-04 6.341073e-01
    outer loop
      vertex   -2.761101e+02 7.723129e+01 1.640824e+02
      vertex   -2.761095e+02 8.123129e+01 1.640824e+02
      vertex   -2.768554e+02 8.123139e+01 1.631729e+02
    endloop
  endfacet
  facet normal -8.820955e-01 1.268416e-04 4.710705e-01
    outer loop
      vertex   -2.768559e+02 7.723139e+01 1.631729e+02
      vertex   -2.768554e+02 8.123139e+01 1.631729e+02
      vertex   -2.774094e+02 8.123147e+01 1.621354e+02
    endloop
  endfacet
  facet normal -9.570476e-01 1.376194e-04 2.899307e-01
    outer loop
      vertex   -2.774100e+02 7.723147e+01 1.621354e+02
      vertex   -2.774094e+02 8.123147e+01 1.621354e+02
      vertex   -2.777504e+02 8.123152e+01 1.610097e+02
    endloop
  endfacet
  facet normal -9.952209e-01 1.431085e-04 9.764907e-02
    outer loop
      vertex   -2.777510e+02 7.723152e+01 1.610097e+02
      vertex   -2.777504e+02 8.123152e+01 1.610097e+02
      vertex   -2.778659e+02 7.723154e+01 1.598391e+02
    endloop
  endfacet
  facet normal -9.570476e-01 1.376194e-04 2.899307e-01
    outer loop
      vertex   -2.777510e+02 7.723152e+01 1.610097e+02
      vertex   -2.774100e+02 7.723147e+01 1.621354e+02
      vertex   -2.777504e+02 8.123152e+01 1.610097e+02
    endloop
  endfacet
  facet normal -9.952209e-01 1.431085e-04 9.764907e-02
    outer loop
      vertex   -2.777504e+02 8.123152e+01 1.610097e+02
      vertex   -2.778653e+02 8.123154e+01 1.598391e+02
      vertex   -2.778659e+02 7.723154e+01 1.598391e+02
    endloop
  endfacet
  facet normal -9.951484e-01 1.430981e-04 -9.838520e-02
    outer loop
      vertex   -2.778659e+02 7.723154e+01 1.598391e+02
      vertex   -2.778653e+02 8.123154e+01 1.598391e+02
      vertex   -2.777502e+02 7.723152e+01 1.586686e+02
    endloop
  endfacet
  facet normal -9.951484e-01 1.430981e-04 -9.838520e-02
    outer loop
      vertex   -2.777502e+02 7.723152e+01 1.586686e+02
      vertex   -2.778653e+02 8.123154e+01 1.598391e+02
      vertex   -2.777496e+02 8.123152e+01 1.586686e+02
    endloop
  endfacet
  facet normal -9.568329e-01 1.375885e-04 -2.906386e-01
    outer loop
      vertex   -2.774077e+02 8.123147e+01 1.575432e+02
      vertex   -2.777502e+02 7.723152e+01 1.586686e+02
      vertex   -2.777496e+02 8.123152e+01 1.586686e+02
    endloop
  endfacet
  facet normal -9.568329e-01 1.375885e-04 -2.906386e-01
    outer loop
      vertex   -2.774077e+02 8.123147e+01 1.575432e+02
      vertex   -2.774083e+02 7.723147e+01 1.575432e+02
      vertex   -2.777502e+02 7.723152e+01 1.586686e+02
    endloop
  endfacet
  facet normal -8.817469e-01 1.267914e-04 -4.717229e-01
    outer loop
      vertex   -2.774077e+02 8.123147e+01 1.575432e+02
      vertex   -2.768529e+02 8.123139e+01 1.565061e+02
      vertex   -2.774083e+02 7.723147e+01 1.575432e+02
    endloop
  endfacet
  facet normal -8.817469e-01 1.267914e-04 -4.717229e-01
    outer loop
      vertex   -2.774083e+02 7.723147e+01 1.575432e+02
      vertex   -2.768529e+02 8.123139e+01 1.565061e+02
      vertex   -2.768535e+02 7.723139e+01 1.565061e+02
    endloop
  endfacet
  facet normal -7.727758e-01 1.111219e-04 -6.346791e-01
    outer loop
      vertex   -2.768535e+02 7.723139e+01 1.565061e+02
      vertex   -2.768529e+02 8.123139e+01 1.565061e+02
      vertex   -2.761064e+02 8.123129e+01 1.555971e+02
    endloop
  endfacet
  facet normal -6.341073e-01 9.118193e-05 -7.732450e-01
    outer loop
      vertex   -2.761070e+02 7.723129e+01 1.555971e+02
      vertex   -2.761064e+02 8.123129e+01 1.555971e+02
      vertex   -2.751969e+02 8.123116e+01 1.548513e+02
    endloop
  endfacet
  facet normal -4.710705e-01 6.773793e-05 -8.820955e-01
    outer loop
      vertex   -2.751975e+02 7.723116e+01 1.548513e+02
      vertex   -2.751969e+02 8.123116e+01 1.548513e+02
      vertex   -2.741594e+02 8.123101e+01 1.542972e+02
    endloop
  endfacet
  facet normal -2.899307e-01 4.169080e-05 -9.570476e-01
    outer loop
      vertex   -2.741599e+02 7.723101e+01 1.542972e+02
      vertex   -2.741594e+02 8.123101e+01 1.542972e+02
      vertex   -2.730337e+02 8.123085e+01 1.539562e+02
    endloop
  endfacet
  facet normal -9.764907e-02 1.404152e-05 -9.952209e-01
    outer loop
      vertex   -2.730342e+02 7.723085e+01 1.539562e+02
      vertex   -2.730337e+02 8.123085e+01 1.539562e+02
      vertex   -2.718637e+02 7.723068e+01 1.538413e+02
    endloop
  endfacet
  facet normal -2.899307e-01 4.169080e-05 -9.570476e-01
    outer loop
      vertex   -2.730342e+02 7.723085e+01 1.539562e+02
      vertex   -2.741599e+02 7.723101e+01 1.542972e+02
      vertex   -2.730337e+02 8.123085e+01 1.539562e+02
    endloop
  endfacet
  facet normal -9.764907e-02 1.404152e-05 -9.952209e-01
    outer loop
      vertex   -2.730337e+02 8.123085e+01 1.539562e+02
      vertex   -2.718631e+02 8.123068e+01 1.538413e+02
      vertex   -2.718637e+02 7.723068e+01 1.538413e+02
    endloop
  endfacet
  facet normal -4.710705e-01 6.773793e-05 -8.820955e-01
    outer loop
      vertex   -2.741599e+02 7.723101e+01 1.542972e+02
      vertex   -2.751975e+02 7.723116e+01 1.548513e+02
      vertex   -2.741594e+02 8.123101e+01 1.542972e+02
    endloop
  endfacet
  facet normal -6.341073e-01 9.118193e-05 -7.732450e-01
    outer loop
      vertex   -2.751975e+02 7.723116e+01 1.548513e+02
      vertex   -2.761070e+02 7.723129e+01 1.555971e+02
      vertex   -2.751969e+02 8.123116e+01 1.548513e+02
    endloop
  endfacet
  facet normal -7.727758e-01 1.111219e-04 -6.346791e-01
    outer loop
      vertex   -2.761070e+02 7.723129e+01 1.555971e+02
      vertex   -2.768535e+02 7.723139e+01 1.565061e+02
      vertex   -2.761064e+02 8.123129e+01 1.555971e+02
    endloop
  endfacet
  facet normal -8.820955e-01 1.268416e-04 4.710705e-01
    outer loop
      vertex   -2.774100e+02 7.723147e+01 1.621354e+02
      vertex   -2.768559e+02 7.723139e+01 1.631729e+02
      vertex   -2.774094e+02 8.123147e+01 1.621354e+02
    endloop
  endfacet
  facet normal -7.732450e-01 1.111893e-04 6.341073e-01
    outer loop
      vertex   -2.768559e+02 7.723139e+01 1.631729e+02
      vertex   -2.761101e+02 7.723129e+01 1.640824e+02
      vertex   -2.768554e+02 8.123139e+01 1.631729e+02
    endloop
  endfacet
  facet normal -6.346791e-01 9.126415e-05 7.727758e-01
    outer loop
      vertex   -2.761101e+02 7.723129e+01 1.640824e+02
      vertex   -2.752011e+02 7.723116e+01 1.648289e+02
      vertex   -2.761095e+02 8.123129e+01 1.640824e+02
    endloop
  endfacet
  facet normal 1.437957e-04 1.000000e+00 2.971731e-13
    outer loop
      vertex   -2.778653e+02 8.123154e+01 1.598391e+02
      vertex   -2.748653e+02 8.123111e+01 1.598402e+02
      vertex   -2.777496e+02 8.123152e+01 1.586686e+02
    endloop
  endfacet
  facet normal 1.437957e-04 1.000000e+00 2.877997e-13
    outer loop
      vertex   -2.778653e+02 8.123154e+01 1.598391e+02
      vertex   -2.777504e+02 8.123152e+01 1.610097e+02
      vertex   -2.748653e+02 8.123111e+01 1.598402e+02
    endloop
  endfacet
  facet normal 1.437957e-04 1.000000e+00 2.877930e-13
    outer loop
      vertex   -2.748653e+02 8.123111e+01 1.598402e+02
      vertex   -2.777504e+02 8.123152e+01 1.610097e+02
      vertex   -2.748079e+02 8.123110e+01 1.604255e+02
    endloop
  endfacet
  facet normal 1.437957e-04 1.000000e+00 3.007005e-13
    outer loop
      vertex   -2.748079e+02 8.123110e+01 1.604255e+02
      vertex   -2.777504e+02 8.123152e+01 1.610097e+02
      vertex   -2.774094e+02 8.123147e+01 1.621354e+02
    endloop
  endfacet
  facet normal 1.437957e-04 1.000000e+00 2.908851e-13
    outer loop
      vertex   -2.746374e+02 8.123108e+01 1.609884e+02
      vertex   -2.774094e+02 8.123147e+01 1.621354e+02
      vertex   -2.768554e+02 8.123139e+01 1.631729e+02
    endloop
  endfacet
  facet normal 1.437957e-04 1.000000e+00 3.001125e-13
    outer loop
      vertex   -2.743603e+02 8.123104e+01 1.615071e+02
      vertex   -2.768554e+02 8.123139e+01 1.631729e+02
      vertex   -2.761095e+02 8.123129e+01 1.640824e+02
    endloop
  endfacet
  facet normal 1.437957e-04 1.000000e+00 2.908556e-13
    outer loop
      vertex   -2.739874e+02 8.123098e+01 1.619619e+02
      vertex   -2.761095e+02 8.123129e+01 1.640824e+02
      vertex   -2.752006e+02 8.123116e+01 1.648289e+02
    endloop
  endfacet
  facet normal 1.437957e-04 1.000000e+00 2.962714e-13
    outer loop
      vertex   -2.735329e+02 8.123092e+01 1.623351e+02
      vertex   -2.752006e+02 8.123116e+01 1.648289e+02
      vertex   -2.741635e+02 8.123101e+01 1.653838e+02
    endloop
  endfacet
  facet normal 1.437957e-04 1.000000e+00 2.967184e-13
    outer loop
      vertex   -2.730144e+02 8.123084e+01 1.626126e+02
      vertex   -2.741635e+02 8.123101e+01 1.653838e+02
      vertex   -2.730380e+02 8.123085e+01 1.657256e+02
    endloop
  endfacet
  facet normal 1.437957e-04 1.000000e+00 2.969750e-13
    outer loop
      vertex   -2.724517e+02 8.123076e+01 1.627835e+02
      vertex   -2.730380e+02 8.123085e+01 1.657256e+02
      vertex   -2.718664e+02 8.123068e+01 1.628413e+02
    endloop
  endfacet
  facet normal 1.437957e-04 1.000000e+00 2.967183e-13
    outer loop
      vertex   -2.724517e+02 8.123076e+01 1.627835e+02
      vertex   -2.730144e+02 8.123084e+01 1.626126e+02
      vertex   -2.730380e+02 8.123085e+01 1.657256e+02
    endloop
  endfacet
  facet normal 1.437957e-04 1.000000e+00 2.929039e-13
    outer loop
      vertex   -2.777496e+02 8.123152e+01 1.586686e+02
      vertex   -2.748074e+02 8.123110e+01 1.592550e+02
      vertex   -2.774077e+02 8.123147e+01 1.575432e+02
    endloop
  endfacet
  facet normal 1.437957e-04 1.000000e+00 3.205241e-13
    outer loop
      vertex   -2.777496e+02 8.123152e+01 1.586686e+02
      vertex   -2.748653e+02 8.123111e+01 1.598402e+02
      vertex   -2.748074e+02 8.123110e+01 1.592550e+02
    endloop
  endfacet
  facet normal 1.437957e-04 1.000000e+00 3.069509e-13
    outer loop
      vertex   -2.774077e+02 8.123147e+01 1.575432e+02
      vertex   -2.746365e+02 8.123108e+01 1.586923e+02
      vertex   -2.768529e+02 8.123139e+01 1.565061e+02
    endloop
  endfacet
  facet normal 1.437957e-04 1.000000e+00 2.718582e-13
    outer loop
      vertex   -2.774077e+02 8.123147e+01 1.575432e+02
      vertex   -2.748074e+02 8.123110e+01 1.592550e+02
      vertex   -2.746365e+02 8.123108e+01 1.586923e+02
    endloop
  endfacet
  facet normal 1.437957e-04 1.000000e+00 2.962239e-13
    outer loop
      vertex   -2.768529e+02 8.123139e+01 1.565061e+02
      vertex   -2.743591e+02 8.123104e+01 1.581737e+02
      vertex   -2.761064e+02 8.123129e+01 1.555971e+02
    endloop
  endfacet
  facet normal 1.437957e-04 1.000000e+00 2.979817e-13
    outer loop
      vertex   -2.768529e+02 8.123139e+01 1.565061e+02
      vertex   -2.746365e+02 8.123108e+01 1.586923e+02
      vertex   -2.743591e+02 8.123104e+01 1.581737e+02
    endloop
  endfacet
  facet normal 1.437957e-04 1.000000e+00 2.922338e-13
    outer loop
      vertex   -2.730380e+02 8.123085e+01 1.657256e+02
      vertex   -2.718675e+02 8.123068e+01 1.658413e+02
      vertex   -2.718664e+02 8.123068e+01 1.628413e+02
    endloop
  endfacet
  facet normal 1.437957e-04 1.000000e+00 2.922271e-13
    outer loop
      vertex   -2.718664e+02 8.123068e+01 1.628413e+02
      vertex   -2.718675e+02 8.123068e+01 1.658413e+02
      vertex   -2.712811e+02 8.123059e+01 1.627839e+02
    endloop
  endfacet
  facet normal 1.437957e-04 1.000000e+00 2.993477e-13
    outer loop
      vertex   -2.712811e+02 8.123059e+01 1.627839e+02
      vertex   -2.718675e+02 8.123068e+01 1.658413e+02
      vertex   -2.706969e+02 8.123051e+01 1.657265e+02
    endloop
  endfacet
  facet normal 1.437957e-04 1.000000e+00 2.982288e-13
    outer loop
      vertex   -2.707183e+02 8.123051e+01 1.626134e+02
      vertex   -2.706969e+02 8.123051e+01 1.657265e+02
      vertex   -2.695713e+02 8.123035e+01 1.653855e+02
    endloop
  endfacet
  facet normal 1.437957e-04 1.000000e+00 2.968448e-13
    outer loop
      vertex   -2.701995e+02 8.123044e+01 1.623364e+02
      vertex   -2.695713e+02 8.123035e+01 1.653855e+02
      vertex   -2.685337e+02 8.123020e+01 1.648314e+02
    endloop
  endfacet
  facet normal 1.437957e-04 1.000000e+00 2.911546e-13
    outer loop
      vertex   -2.697448e+02 8.123037e+01 1.619634e+02
      vertex   -2.685337e+02 8.123020e+01 1.648314e+02
      vertex   -2.676242e+02 8.123007e+01 1.640856e+02
    endloop
  endfacet
  facet normal 1.437957e-04 1.000000e+00 2.962239e-13
    outer loop
      vertex   -2.693715e+02 8.123032e+01 1.615090e+02
      vertex   -2.676242e+02 8.123007e+01 1.640856e+02
      vertex   -2.668777e+02 8.122996e+01 1.631766e+02
    endloop
  endfacet
  facet normal 1.437957e-04 1.000000e+00 3.069509e-13
    outer loop
      vertex   -2.690941e+02 8.123028e+01 1.609904e+02
      vertex   -2.668777e+02 8.122996e+01 1.631766e+02
      vertex   -2.663229e+02 8.122988e+01 1.621395e+02
    endloop
  endfacet
  facet normal 1.437957e-04 1.000000e+00 2.929039e-13
    outer loop
      vertex   -2.689232e+02 8.123025e+01 1.604277e+02
      vertex   -2.663229e+02 8.122988e+01 1.621395e+02
      vertex   -2.659810e+02 8.122983e+01 1.610141e+02
    endloop
  endfacet
  facet normal 1.437957e-04 1.000000e+00 2.971731e-13
    outer loop
      vertex   -2.688653e+02 8.123025e+01 1.598425e+02
      vertex   -2.659810e+02 8.122983e+01 1.610141e+02
      vertex   -2.658653e+02 8.122981e+01 1.598436e+02
    endloop
  endfacet
  facet normal 1.437957e-04 1.000000e+00 2.877997e-13
    outer loop
      vertex   -2.659802e+02 8.122983e+01 1.586730e+02
      vertex   -2.688653e+02 8.123025e+01 1.598425e+02
      vertex   -2.658653e+02 8.122981e+01 1.598436e+02
    endloop
  endfacet
  facet normal 1.437957e-04 1.000000e+00 2.877930e-13
    outer loop
      vertex   -2.659802e+02 8.122983e+01 1.586730e+02
      vertex   -2.689227e+02 8.123025e+01 1.592572e+02
      vertex   -2.688653e+02 8.123025e+01 1.598425e+02
    endloop
  endfacet
  facet normal 1.437957e-04 1.000000e+00 3.007005e-13
    outer loop
      vertex   -2.659802e+02 8.122983e+01 1.586730e+02
      vertex   -2.663212e+02 8.122988e+01 1.575473e+02
      vertex   -2.689227e+02 8.123025e+01 1.592572e+02
    endloop
  endfacet
  facet normal 1.437957e-04 1.000000e+00 3.006945e-13
    outer loop
      vertex   -2.689227e+02 8.123025e+01 1.592572e+02
      vertex   -2.663212e+02 8.122988e+01 1.575473e+02
      vertex   -2.690932e+02 8.123028e+01 1.586943e+02
    endloop
  endfacet
  facet normal 1.437957e-04 1.000000e+00 2.908851e-13
    outer loop
      vertex   -2.690932e+02 8.123028e+01 1.586943e+02
      vertex   -2.663212e+02 8.122988e+01 1.575473e+02
      vertex   -2.668753e+02 8.122996e+01 1.565098e+02
    endloop
  endfacet
  facet normal 1.437957e-04 1.000000e+00 3.001125e-13
    outer loop
      vertex   -2.693703e+02 8.123032e+01 1.581756e+02
      vertex   -2.668753e+02 8.122996e+01 1.565098e+02
      vertex   -2.676211e+02 8.123007e+01 1.556003e+02
    endloop
  endfacet
  facet normal 1.437957e-04 1.000000e+00 2.908556e-13
    outer loop
      vertex   -2.697432e+02 8.123037e+01 1.577208e+02
      vertex   -2.676211e+02 8.123007e+01 1.556003e+02
      vertex   -2.685300e+02 8.123020e+01 1.548538e+02
    endloop
  endfacet
  facet normal 1.437957e-04 1.000000e+00 2.962714e-13
    outer loop
      vertex   -2.701977e+02 8.123044e+01 1.573476e+02
      vertex   -2.685300e+02 8.123020e+01 1.548538e+02
      vertex   -2.695672e+02 8.123035e+01 1.542989e+02
    endloop
  endfacet
  facet normal 1.437957e-04 1.000000e+00 2.967184e-13
    outer loop
      vertex   -2.707162e+02 8.123051e+01 1.570701e+02
      vertex   -2.695672e+02 8.123035e+01 1.542989e+02
      vertex   -2.706926e+02 8.123051e+01 1.539571e+02
    endloop
  endfacet
  facet normal 1.437957e-04 1.000000e+00 2.946022e-13
    outer loop
      vertex   -2.712789e+02 8.123059e+01 1.568992e+02
      vertex   -2.706926e+02 8.123051e+01 1.539571e+02
      vertex   -2.718631e+02 8.123068e+01 1.538413e+02
    endloop
  endfacet
  facet normal 1.437957e-04 1.000000e+00 2.922271e-13
    outer loop
      vertex   -2.718642e+02 8.123068e+01 1.568413e+02
      vertex   -2.718631e+02 8.123068e+01 1.538413e+02
      vertex   -2.724495e+02 8.123076e+01 1.568988e+02
    endloop
  endfacet
  facet normal 1.437957e-04 1.000000e+00 2.922383e-13
    outer loop
      vertex   -2.718642e+02 8.123068e+01 1.568413e+02
      vertex   -2.712789e+02 8.123059e+01 1.568992e+02
      vertex   -2.718631e+02 8.123068e+01 1.538413e+02
    endloop
  endfacet
  facet normal 1.437957e-04 1.000000e+00 3.032867e-13
    outer loop
      vertex   -2.743591e+02 8.123104e+01 1.581737e+02
      vertex   -2.739858e+02 8.123098e+01 1.577192e+02
      vertex   -2.761064e+02 8.123129e+01 1.555971e+02
    endloop
  endfacet
  facet normal 1.437957e-04 1.000000e+00 2.911546e-13
    outer loop
      vertex   -2.761064e+02 8.123129e+01 1.555971e+02
      vertex   -2.739858e+02 8.123098e+01 1.577192e+02
      vertex   -2.751969e+02 8.123116e+01 1.548513e+02
    endloop
  endfacet
  facet normal 1.437957e-04 1.000000e+00 2.862651e-13
    outer loop
      vertex   -2.751969e+02 8.123116e+01 1.548513e+02
      vertex   -2.739858e+02 8.123098e+01 1.577192e+02
      vertex   -2.735311e+02 8.123092e+01 1.573463e+02
    endloop
  endfacet
  facet normal 1.437957e-04 1.000000e+00 2.993843e-13
    outer loop
      vertex   -2.741594e+02 8.123101e+01 1.542972e+02
      vertex   -2.735311e+02 8.123092e+01 1.573463e+02
      vertex   -2.730123e+02 8.123084e+01 1.570693e+02
    endloop
  endfacet
  facet normal 1.437957e-04 1.000000e+00 2.980560e-13
    outer loop
      vertex   -2.730337e+02 8.123085e+01 1.539562e+02
      vertex   -2.730123e+02 8.123084e+01 1.570693e+02
      vertex   -2.724495e+02 8.123076e+01 1.568988e+02
    endloop
  endfacet
  facet normal 1.437957e-04 1.000000e+00 2.993477e-13
    outer loop
      vertex   -2.718631e+02 8.123068e+01 1.538413e+02
      vertex   -2.730337e+02 8.123085e+01 1.539562e+02
      vertex   -2.724495e+02 8.123076e+01 1.568988e+02
    endloop
  endfacet
  facet normal 1.437957e-04 1.000000e+00 2.967183e-13
    outer loop
      vertex   -2.712789e+02 8.123059e+01 1.568992e+02
      vertex   -2.707162e+02 8.123051e+01 1.570701e+02
      vertex   -2.706926e+02 8.123051e+01 1.539571e+02
    endloop
  endfacet
  facet normal 1.437957e-04 1.000000e+00 2.937183e-13
    outer loop
      vertex   -2.707162e+02 8.123051e+01 1.570701e+02
      vertex   -2.701977e+02 8.123044e+01 1.573476e+02
      vertex   -2.695672e+02 8.123035e+01 1.542989e+02
    endloop
  endfacet
  facet normal 1.437957e-04 1.000000e+00 2.957706e-13
    outer loop
      vertex   -2.701977e+02 8.123044e+01 1.573476e+02
      vertex   -2.697432e+02 8.123037e+01 1.577208e+02
      vertex   -2.685300e+02 8.123020e+01 1.548538e+02
    endloop
  endfacet
  facet normal 1.437957e-04 1.000000e+00 3.071912e-13
    outer loop
      vertex   -2.697432e+02 8.123037e+01 1.577208e+02
      vertex   -2.693703e+02 8.123032e+01 1.581756e+02
      vertex   -2.676211e+02 8.123007e+01 1.556003e+02
    endloop
  endfacet
  facet normal 1.437957e-04 1.000000e+00 2.819145e-13
    outer loop
      vertex   -2.693703e+02 8.123032e+01 1.581756e+02
      vertex   -2.690932e+02 8.123028e+01 1.586943e+02
      vertex   -2.668753e+02 8.122996e+01 1.565098e+02
    endloop
  endfacet
  facet normal 1.437957e-04 1.000000e+00 3.205241e-13
    outer loop
      vertex   -2.688653e+02 8.123025e+01 1.598425e+02
      vertex   -2.689232e+02 8.123025e+01 1.604277e+02
      vertex   -2.659810e+02 8.122983e+01 1.610141e+02
    endloop
  endfacet
  facet normal 1.437957e-04 1.000000e+00 2.718582e-13
    outer loop
      vertex   -2.689232e+02 8.123025e+01 1.604277e+02
      vertex   -2.690941e+02 8.123028e+01 1.609904e+02
      vertex   -2.663229e+02 8.122988e+01 1.621395e+02
    endloop
  endfacet
  facet normal 1.437957e-04 1.000000e+00 2.979817e-13
    outer loop
      vertex   -2.690941e+02 8.123028e+01 1.609904e+02
      vertex   -2.693715e+02 8.123032e+01 1.615090e+02
      vertex   -2.668777e+02 8.122996e+01 1.631766e+02
    endloop
  endfacet
  facet normal 1.437957e-04 1.000000e+00 3.032867e-13
    outer loop
      vertex   -2.693715e+02 8.123032e+01 1.615090e+02
      vertex   -2.697448e+02 8.123037e+01 1.619634e+02
      vertex   -2.676242e+02 8.123007e+01 1.640856e+02
    endloop
  endfacet
  facet normal 1.437957e-04 1.000000e+00 2.862651e-13
    outer loop
      vertex   -2.697448e+02 8.123037e+01 1.619634e+02
      vertex   -2.701995e+02 8.123044e+01 1.623364e+02
      vertex   -2.685337e+02 8.123020e+01 1.648314e+02
    endloop
  endfacet
  facet normal 1.437957e-04 1.000000e+00 2.993843e-13
    outer loop
      vertex   -2.701995e+02 8.123044e+01 1.623364e+02
      vertex   -2.707183e+02 8.123051e+01 1.626134e+02
      vertex   -2.695713e+02 8.123035e+01 1.653855e+02
    endloop
  endfacet
  facet normal 1.437957e-04 1.000000e+00 2.980560e-13
    outer loop
      vertex   -2.707183e+02 8.123051e+01 1.626134e+02
      vertex   -2.712811e+02 8.123059e+01 1.627839e+02
      vertex   -2.706969e+02 8.123051e+01 1.657265e+02
    endloop
  endfacet
  facet normal 1.437957e-04 1.000000e+00 2.937183e-13
    outer loop
      vertex   -2.730144e+02 8.123084e+01 1.626126e+02
      vertex   -2.735329e+02 8.123092e+01 1.623351e+02
      vertex   -2.741635e+02 8.123101e+01 1.653838e+02
    endloop
  endfacet
  facet normal 1.437957e-04 1.000000e+00 2.957706e-13
    outer loop
      vertex   -2.735329e+02 8.123092e+01 1.623351e+02
      vertex   -2.739874e+02 8.123098e+01 1.619619e+02
      vertex   -2.752006e+02 8.123116e+01 1.648289e+02
    endloop
  endfacet
  facet normal 1.437957e-04 1.000000e+00 3.071912e-13
    outer loop
      vertex   -2.739874e+02 8.123098e+01 1.619619e+02
      vertex   -2.743603e+02 8.123104e+01 1.615071e+02
      vertex   -2.761095e+02 8.123129e+01 1.640824e+02
    endloop
  endfacet
  facet normal 1.437957e-04 1.000000e+00 2.819145e-13
    outer loop
      vertex   -2.743603e+02 8.123104e+01 1.615071e+02
      vertex   -2.746374e+02 8.123108e+01 1.609884e+02
      vertex   -2.768554e+02 8.123139e+01 1.631729e+02
    endloop
  endfacet
  facet normal 1.437957e-04 1.000000e+00 3.006945e-13
    outer loop
      vertex   -2.746374e+02 8.123108e+01 1.609884e+02
      vertex   -2.748079e+02 8.123110e+01 1.604255e+02
      vertex   -2.774094e+02 8.123147e+01 1.621354e+02
    endloop
  endfacet
  facet normal 1.437957e-04 1.000000e+00 2.968448e-13
    outer loop
      vertex   -2.751969e+02 8.123116e+01 1.548513e+02
      vertex   -2.735311e+02 8.123092e+01 1.573463e+02
      vertex   -2.741594e+02 8.123101e+01 1.542972e+02
    endloop
  endfacet
  facet normal 1.437957e-04 1.000000e+00 2.982288e-13
    outer loop
      vertex   -2.741594e+02 8.123101e+01 1.542972e+02
      vertex   -2.730123e+02 8.123084e+01 1.570693e+02
      vertex   -2.730337e+02 8.123085e+01 1.539562e+02
    endloop
  endfacet
  facet normal -1.437957e-04 -1.000000e+00 -2.922406e-13
    outer loop
      vertex   -2.730342e+02 7.723085e+01 1.539562e+02
      vertex   -2.718637e+02 7.723068e+01 1.538413e+02
      vertex   -2.718648e+02 7.723068e+01 1.568413e+02
    endloop
  endfacet
  facet normal -1.437957e-04 -1.000000e+00 -3.064412e-13
    outer loop
      vertex   -2.724501e+02 7.723076e+01 1.568988e+02
      vertex   -2.730342e+02 7.723085e+01 1.539562e+02
      vertex   -2.718648e+02 7.723068e+01 1.568413e+02
    endloop
  endfacet
  facet normal -1.437957e-04 -1.000000e+00 -3.027855e-13
    outer loop
      vertex   -2.724501e+02 7.723076e+01 1.568988e+02
      vertex   -2.741599e+02 7.723101e+01 1.542972e+02
      vertex   -2.730342e+02 7.723085e+01 1.539562e+02
    endloop
  endfacet
  facet normal -1.437957e-04 -1.000000e+00 -2.889425e-13
    outer loop
      vertex   -2.724501e+02 7.723076e+01 1.568988e+02
      vertex   -2.730129e+02 7.723084e+01 1.570693e+02
      vertex   -2.741599e+02 7.723101e+01 1.542972e+02
    endloop
  endfacet
  facet normal -1.437957e-04 -1.000000e+00 -2.947479e-13
    outer loop
      vertex   -2.741599e+02 7.723101e+01 1.542972e+02
      vertex   -2.730129e+02 7.723084e+01 1.570693e+02
      vertex   -2.751975e+02 7.723116e+01 1.548513e+02
    endloop
  endfacet
  facet normal -1.437957e-04 -1.000000e+00 -3.035883e-13
    outer loop
      vertex   -2.751975e+02 7.723116e+01 1.548513e+02
      vertex   -2.730129e+02 7.723084e+01 1.570693e+02
      vertex   -2.735317e+02 7.723092e+01 1.573463e+02
    endloop
  endfacet
  facet normal -1.437957e-04 -1.000000e+00 -2.825831e-13
    outer loop
      vertex   -2.761070e+02 7.723129e+01 1.555971e+02
      vertex   -2.735317e+02 7.723092e+01 1.573463e+02
      vertex   -2.739864e+02 7.723098e+01 1.577192e+02
    endloop
  endfacet
  facet normal -1.437957e-04 -1.000000e+00 -3.063042e-13
    outer loop
      vertex   -2.768535e+02 7.723139e+01 1.565061e+02
      vertex   -2.739864e+02 7.723098e+01 1.577192e+02
      vertex   -2.743597e+02 7.723104e+01 1.581737e+02
    endloop
  endfacet
  facet normal -1.437957e-04 -1.000000e+00 -2.957363e-13
    outer loop
      vertex   -2.774083e+02 7.723147e+01 1.575432e+02
      vertex   -2.743597e+02 7.723104e+01 1.581737e+02
      vertex   -2.746371e+02 7.723108e+01 1.586923e+02
    endloop
  endfacet
  facet normal -1.437957e-04 -1.000000e+00 -2.690914e-13
    outer loop
      vertex   -2.777502e+02 7.723152e+01 1.586686e+02
      vertex   -2.746371e+02 7.723108e+01 1.586923e+02
      vertex   -2.748080e+02 7.723110e+01 1.592550e+02
    endloop
  endfacet
  facet normal -1.437957e-04 -1.000000e+00 -3.214609e-13
    outer loop
      vertex   -2.778659e+02 7.723154e+01 1.598391e+02
      vertex   -2.748080e+02 7.723110e+01 1.592550e+02
      vertex   -2.748659e+02 7.723111e+01 1.598402e+02
    endloop
  endfacet
  facet normal -1.437957e-04 -1.000000e+00 -2.877930e-13
    outer loop
      vertex   -2.777510e+02 7.723152e+01 1.610097e+02
      vertex   -2.748659e+02 7.723111e+01 1.598402e+02
      vertex   -2.748085e+02 7.723110e+01 1.604255e+02
    endloop
  endfacet
  facet normal -1.437957e-04 -1.000000e+00 -3.006936e-13
    outer loop
      vertex   -2.746379e+02 7.723108e+01 1.609884e+02
      vertex   -2.777510e+02 7.723152e+01 1.610097e+02
      vertex   -2.748085e+02 7.723110e+01 1.604255e+02
    endloop
  endfacet
  facet normal -1.437957e-04 -1.000000e+00 -3.007009e-13
    outer loop
      vertex   -2.746379e+02 7.723108e+01 1.609884e+02
      vertex   -2.774100e+02 7.723147e+01 1.621354e+02
      vertex   -2.777510e+02 7.723152e+01 1.610097e+02
    endloop
  endfacet
  facet normal -1.437957e-04 -1.000000e+00 -2.796736e-13
    outer loop
      vertex   -2.746379e+02 7.723108e+01 1.609884e+02
      vertex   -2.743609e+02 7.723104e+01 1.615071e+02
      vertex   -2.774100e+02 7.723147e+01 1.621354e+02
    endloop
  endfacet
  facet normal -1.437957e-04 -1.000000e+00 -2.920056e-13
    outer loop
      vertex   -2.774100e+02 7.723147e+01 1.621354e+02
      vertex   -2.743609e+02 7.723104e+01 1.615071e+02
      vertex   -2.768559e+02 7.723139e+01 1.631729e+02
    endloop
  endfacet
  facet normal -1.437957e-04 -1.000000e+00 -3.102094e-13
    outer loop
      vertex   -2.768559e+02 7.723139e+01 1.631729e+02
      vertex   -2.743609e+02 7.723104e+01 1.615071e+02
      vertex   -2.739880e+02 7.723098e+01 1.619619e+02
    endloop
  endfacet
  facet normal -1.437957e-04 -1.000000e+00 -2.994532e-13
    outer loop
      vertex   -2.761101e+02 7.723129e+01 1.640824e+02
      vertex   -2.739880e+02 7.723098e+01 1.619619e+02
      vertex   -2.735335e+02 7.723092e+01 1.623351e+02
    endloop
  endfacet
  facet normal -1.437957e-04 -1.000000e+00 -2.895189e-13
    outer loop
      vertex   -2.752011e+02 7.723116e+01 1.648289e+02
      vertex   -2.735335e+02 7.723092e+01 1.623351e+02
      vertex   -2.730150e+02 7.723084e+01 1.626126e+02
    endloop
  endfacet
  facet normal -1.437957e-04 -1.000000e+00 -2.967157e-13
    outer loop
      vertex   -2.741640e+02 7.723101e+01 1.653838e+02
      vertex   -2.730150e+02 7.723084e+01 1.626126e+02
      vertex   -2.724522e+02 7.723076e+01 1.627835e+02
    endloop
  endfacet
  facet normal -1.437957e-04 -1.000000e+00 -2.969723e-13
    outer loop
      vertex   -2.730386e+02 7.723085e+01 1.657256e+02
      vertex   -2.724522e+02 7.723076e+01 1.627835e+02
      vertex   -2.718670e+02 7.723068e+01 1.628413e+02
    endloop
  endfacet
  facet normal -1.437957e-04 -1.000000e+00 -2.969732e-13
    outer loop
      vertex   -2.718681e+02 7.723068e+01 1.658413e+02
      vertex   -2.718670e+02 7.723068e+01 1.628413e+02
      vertex   -2.706975e+02 7.723051e+01 1.657265e+02
    endloop
  endfacet
  facet normal -1.437957e-04 -1.000000e+00 -2.969750e-13
    outer loop
      vertex   -2.718681e+02 7.723068e+01 1.658413e+02
      vertex   -2.730386e+02 7.723085e+01 1.657256e+02
      vertex   -2.718670e+02 7.723068e+01 1.628413e+02
    endloop
  endfacet
  facet normal -1.437957e-04 -1.000000e+00 -3.214609e-13
    outer loop
      vertex   -2.689237e+02 7.723025e+01 1.604277e+02
      vertex   -2.688659e+02 7.723025e+01 1.598425e+02
      vertex   -2.658659e+02 7.722981e+01 1.598436e+02
    endloop
  endfacet
  facet normal -1.437957e-04 -1.000000e+00 -2.967047e-13
    outer loop
      vertex   -2.659816e+02 7.722983e+01 1.610141e+02
      vertex   -2.689237e+02 7.723025e+01 1.604277e+02
      vertex   -2.658659e+02 7.722981e+01 1.598436e+02
    endloop
  endfacet
  facet normal -1.437957e-04 -1.000000e+00 -2.690914e-13
    outer loop
      vertex   -2.659816e+02 7.722983e+01 1.610141e+02
      vertex   -2.690947e+02 7.723028e+01 1.609904e+02
      vertex   -2.689237e+02 7.723025e+01 1.604277e+02
    endloop
  endfacet
  facet normal -1.437957e-04 -1.000000e+00 -2.942873e-13
    outer loop
      vertex   -2.659816e+02 7.722983e+01 1.610141e+02
      vertex   -2.663235e+02 7.722988e+01 1.621395e+02
      vertex   -2.690947e+02 7.723028e+01 1.609904e+02
    endloop
  endfacet
  facet normal -1.437957e-04 -1.000000e+00 -2.957364e-13
    outer loop
      vertex   -2.690947e+02 7.723028e+01 1.609904e+02
      vertex   -2.663235e+02 7.722988e+01 1.621395e+02
      vertex   -2.693721e+02 7.723032e+01 1.615090e+02
    endloop
  endfacet
  facet normal -1.437957e-04 -1.000000e+00 -3.080736e-13
    outer loop
      vertex   -2.693721e+02 7.723032e+01 1.615090e+02
      vertex   -2.663235e+02 7.722988e+01 1.621395e+02
      vertex   -2.668783e+02 7.722996e+01 1.631766e+02
    endloop
  endfacet
  facet normal -1.437957e-04 -1.000000e+00 -2.947151e-13
    outer loop
      vertex   -2.697453e+02 7.723037e+01 1.619634e+02
      vertex   -2.668783e+02 7.722996e+01 1.631766e+02
      vertex   -2.676248e+02 7.723007e+01 1.640856e+02
    endloop
  endfacet
  facet normal -1.437957e-04 -1.000000e+00 -2.929928e-13
    outer loop
      vertex   -2.702001e+02 7.723044e+01 1.623364e+02
      vertex   -2.676248e+02 7.723007e+01 1.640856e+02
      vertex   -2.685343e+02 7.723020e+01 1.648314e+02
    endloop
  endfacet
  facet normal -1.437957e-04 -1.000000e+00 -2.947479e-13
    outer loop
      vertex   -2.707189e+02 7.723051e+01 1.626134e+02
      vertex   -2.685343e+02 7.723020e+01 1.648314e+02
      vertex   -2.695718e+02 7.723035e+01 1.653855e+02
    endloop
  endfacet
  facet normal -1.437957e-04 -1.000000e+00 -3.027855e-13
    outer loop
      vertex   -2.712817e+02 7.723059e+01 1.627839e+02
      vertex   -2.695718e+02 7.723035e+01 1.653855e+02
      vertex   -2.706975e+02 7.723051e+01 1.657265e+02
    endloop
  endfacet
  facet normal -1.437957e-04 -1.000000e+00 -3.064412e-13
    outer loop
      vertex   -2.718670e+02 7.723068e+01 1.628413e+02
      vertex   -2.712817e+02 7.723059e+01 1.627839e+02
      vertex   -2.706975e+02 7.723051e+01 1.657265e+02
    endloop
  endfacet
  facet normal -1.437957e-04 -1.000000e+00 -2.877998e-13
    outer loop
      vertex   -2.658659e+02 7.722981e+01 1.598436e+02
      vertex   -2.689233e+02 7.723025e+01 1.592572e+02
      vertex   -2.659807e+02 7.722983e+01 1.586730e+02
    endloop
  endfacet
  facet normal -1.437957e-04 -1.000000e+00 -2.877927e-13
    outer loop
      vertex   -2.658659e+02 7.722981e+01 1.598436e+02
      vertex   -2.688659e+02 7.723025e+01 1.598425e+02
      vertex   -2.689233e+02 7.723025e+01 1.592572e+02
    endloop
  endfacet
  facet normal -1.437957e-04 -1.000000e+00 -3.007009e-13
    outer loop
      vertex   -2.659807e+02 7.722983e+01 1.586730e+02
      vertex   -2.690938e+02 7.723028e+01 1.586943e+02
      vertex   -2.663218e+02 7.722988e+01 1.575473e+02
    endloop
  endfacet
  facet normal -1.437957e-04 -1.000000e+00 -3.006937e-13
    outer loop
      vertex   -2.659807e+02 7.722983e+01 1.586730e+02
      vertex   -2.689233e+02 7.723025e+01 1.592572e+02
      vertex   -2.690938e+02 7.723028e+01 1.586943e+02
    endloop
  endfacet
  facet normal -1.437957e-04 -1.000000e+00 -2.920056e-13
    outer loop
      vertex   -2.663218e+02 7.722988e+01 1.575473e+02
      vertex   -2.693709e+02 7.723032e+01 1.581756e+02
      vertex   -2.668758e+02 7.722996e+01 1.565098e+02
    endloop
  endfacet
  facet normal -1.437957e-04 -1.000000e+00 -2.796736e-13
    outer loop
      vertex   -2.663218e+02 7.722988e+01 1.575473e+02
      vertex   -2.690938e+02 7.723028e+01 1.586943e+02
      vertex   -2.693709e+02 7.723032e+01 1.581756e+02
    endloop
  endfacet
  facet normal -1.437957e-04 -1.000000e+00 -2.967157e-13
    outer loop
      vertex   -2.730386e+02 7.723085e+01 1.657256e+02
      vertex   -2.741640e+02 7.723101e+01 1.653838e+02
      vertex   -2.724522e+02 7.723076e+01 1.627835e+02
    endloop
  endfacet
  facet normal -1.437957e-04 -1.000000e+00 -2.983711e-13
    outer loop
      vertex   -2.741640e+02 7.723101e+01 1.653838e+02
      vertex   -2.752011e+02 7.723116e+01 1.648289e+02
      vertex   -2.730150e+02 7.723084e+01 1.626126e+02
    endloop
  endfacet
  facet normal -1.437957e-04 -1.000000e+00 -2.890143e-13
    outer loop
      vertex   -2.752011e+02 7.723116e+01 1.648289e+02
      vertex   -2.761101e+02 7.723129e+01 1.640824e+02
      vertex   -2.735335e+02 7.723092e+01 1.623351e+02
    endloop
  endfacet
  facet normal -1.437957e-04 -1.000000e+00 -2.986034e-13
    outer loop
      vertex   -2.761101e+02 7.723129e+01 1.640824e+02
      vertex   -2.768559e+02 7.723139e+01 1.631729e+02
      vertex   -2.739880e+02 7.723098e+01 1.619619e+02
    endloop
  endfacet
  facet normal -1.437957e-04 -1.000000e+00 -2.877997e-13
    outer loop
      vertex   -2.777510e+02 7.723152e+01 1.610097e+02
      vertex   -2.778659e+02 7.723154e+01 1.598391e+02
      vertex   -2.748659e+02 7.723111e+01 1.598402e+02
    endloop
  endfacet
  facet normal -1.437957e-04 -1.000000e+00 -2.967047e-13
    outer loop
      vertex   -2.778659e+02 7.723154e+01 1.598391e+02
      vertex   -2.777502e+02 7.723152e+01 1.586686e+02
      vertex   -2.748080e+02 7.723110e+01 1.592550e+02
    endloop
  endfacet
  facet normal -1.437957e-04 -1.000000e+00 -2.942873e-13
    outer loop
      vertex   -2.777502e+02 7.723152e+01 1.586686e+02
      vertex   -2.774083e+02 7.723147e+01 1.575432e+02
      vertex   -2.746371e+02 7.723108e+01 1.586923e+02
    endloop
  endfacet
  facet normal -1.437957e-04 -1.000000e+00 -3.080736e-13
    outer loop
      vertex   -2.774083e+02 7.723147e+01 1.575432e+02
      vertex   -2.768535e+02 7.723139e+01 1.565061e+02
      vertex   -2.743597e+02 7.723104e+01 1.581737e+02
    endloop
  endfacet
  facet normal -1.437957e-04 -1.000000e+00 -2.947151e-13
    outer loop
      vertex   -2.768535e+02 7.723139e+01 1.565061e+02
      vertex   -2.761070e+02 7.723129e+01 1.555971e+02
      vertex   -2.739864e+02 7.723098e+01 1.577192e+02
    endloop
  endfacet
  facet normal -1.437957e-04 -1.000000e+00 -2.929928e-13
    outer loop
      vertex   -2.761070e+02 7.723129e+01 1.555971e+02
      vertex   -2.751975e+02 7.723116e+01 1.548513e+02
      vertex   -2.735317e+02 7.723092e+01 1.573463e+02
    endloop
  endfacet
  facet normal -1.437957e-04 -1.000000e+00 -3.102094e-13
    outer loop
      vertex   -2.693709e+02 7.723032e+01 1.581756e+02
      vertex   -2.697438e+02 7.723037e+01 1.577208e+02
      vertex   -2.668758e+02 7.722996e+01 1.565098e+02
    endloop
  endfacet
  facet normal -1.437957e-04 -1.000000e+00 -2.986034e-13
    outer loop
      vertex   -2.668758e+02 7.722996e+01 1.565098e+02
      vertex   -2.697438e+02 7.723037e+01 1.577208e+02
      vertex   -2.676217e+02 7.723007e+01 1.556003e+02
    endloop
  endfacet
  facet normal -1.437957e-04 -1.000000e+00 -2.994532e-13
    outer loop
      vertex   -2.676217e+02 7.723007e+01 1.556003e+02
      vertex   -2.697438e+02 7.723037e+01 1.577208e+02
      vertex   -2.701982e+02 7.723044e+01 1.573476e+02
    endloop
  endfacet
  facet normal -1.437957e-04 -1.000000e+00 -2.895189e-13
    outer loop
      vertex   -2.685306e+02 7.723020e+01 1.548538e+02
      vertex   -2.701982e+02 7.723044e+01 1.573476e+02
      vertex   -2.707168e+02 7.723051e+01 1.570701e+02
    endloop
  endfacet
  facet normal -1.437957e-04 -1.000000e+00 -2.967157e-13
    outer loop
      vertex   -2.695677e+02 7.723035e+01 1.542989e+02
      vertex   -2.707168e+02 7.723051e+01 1.570701e+02
      vertex   -2.712795e+02 7.723059e+01 1.568992e+02
    endloop
  endfacet
  facet normal -1.437957e-04 -1.000000e+00 -2.969750e-13
    outer loop
      vertex   -2.706932e+02 7.723051e+01 1.539571e+02
      vertex   -2.712795e+02 7.723059e+01 1.568992e+02
      vertex   -2.718648e+02 7.723068e+01 1.568413e+02
    endloop
  endfacet
  facet normal -1.437957e-04 -1.000000e+00 -2.922338e-13
    outer loop
      vertex   -2.718637e+02 7.723068e+01 1.538413e+02
      vertex   -2.706932e+02 7.723051e+01 1.539571e+02
      vertex   -2.718648e+02 7.723068e+01 1.568413e+02
    endloop
  endfacet
  facet normal -1.437957e-04 -1.000000e+00 -2.889425e-13
    outer loop
      vertex   -2.712817e+02 7.723059e+01 1.627839e+02
      vertex   -2.707189e+02 7.723051e+01 1.626134e+02
      vertex   -2.695718e+02 7.723035e+01 1.653855e+02
    endloop
  endfacet
  facet normal -1.437957e-04 -1.000000e+00 -3.035883e-13
    outer loop
      vertex   -2.707189e+02 7.723051e+01 1.626134e+02
      vertex   -2.702001e+02 7.723044e+01 1.623364e+02
      vertex   -2.685343e+02 7.723020e+01 1.648314e+02
    endloop
  endfacet
  facet normal -1.437957e-04 -1.000000e+00 -2.825831e-13
    outer loop
      vertex   -2.702001e+02 7.723044e+01 1.623364e+02
      vertex   -2.697453e+02 7.723037e+01 1.619634e+02
      vertex   -2.676248e+02 7.723007e+01 1.640856e+02
    endloop
  endfacet
  facet normal -1.437957e-04 -1.000000e+00 -3.063042e-13
    outer loop
      vertex   -2.697453e+02 7.723037e+01 1.619634e+02
      vertex   -2.693721e+02 7.723032e+01 1.615090e+02
      vertex   -2.668783e+02 7.722996e+01 1.631766e+02
    endloop
  endfacet
  facet normal -1.437957e-04 -1.000000e+00 -2.983711e-13
    outer loop
      vertex   -2.685306e+02 7.723020e+01 1.548538e+02
      vertex   -2.707168e+02 7.723051e+01 1.570701e+02
      vertex   -2.695677e+02 7.723035e+01 1.542989e+02
    endloop
  endfacet
  facet normal -1.437957e-04 -1.000000e+00 -2.967197e-13
    outer loop
      vertex   -2.695677e+02 7.723035e+01 1.542989e+02
      vertex   -2.712795e+02 7.723059e+01 1.568992e+02
      vertex   -2.706932e+02 7.723051e+01 1.539571e+02
    endloop
  endfacet
  facet normal -1.437957e-04 -1.000000e+00 -2.890143e-13
    outer loop
      vertex   -2.676217e+02 7.723007e+01 1.556003e+02
      vertex   -2.701982e+02 7.723044e+01 1.573476e+02
      vertex   -2.685306e+02 7.723020e+01 1.548538e+02
    endloop
  endfacet
  facet normal 9.951484e-01 -1.430981e-04 9.838520e-02
    outer loop
      vertex   -2.748653e+02 8.123111e+01 1.598402e+02
      vertex   -2.748659e+02 7.723111e+01 1.598402e+02
      vertex   -2.748074e+02 8.123110e+01 1.592550e+02
    endloop
  endfacet
  facet normal 9.951484e-01 -1.430981e-04 9.838520e-02
    outer loop
      vertex   -2.748074e+02 8.123110e+01 1.592550e+02
      vertex   -2.748659e+02 7.723111e+01 1.598402e+02
      vertex   -2.748080e+02 7.723110e+01 1.592550e+02
    endloop
  endfacet
  facet normal 9.568329e-01 -1.375885e-04 2.906386e-01
    outer loop
      vertex   -2.746371e+02 7.723108e+01 1.586923e+02
      vertex   -2.748074e+02 8.123110e+01 1.592550e+02
      vertex   -2.748080e+02 7.723110e+01 1.592550e+02
    endloop
  endfacet
  facet normal 9.568329e-01 -1.375885e-04 2.906386e-01
    outer loop
      vertex   -2.746371e+02 7.723108e+01 1.586923e+02
      vertex   -2.746365e+02 8.123108e+01 1.586923e+02
      vertex   -2.748074e+02 8.123110e+01 1.592550e+02
    endloop
  endfacet
  facet normal 8.817469e-01 -1.267914e-04 4.717229e-01
    outer loop
      vertex   -2.746371e+02 7.723108e+01 1.586923e+02
      vertex   -2.743597e+02 7.723104e+01 1.581737e+02
      vertex   -2.746365e+02 8.123108e+01 1.586923e+02
    endloop
  endfacet
  facet normal 8.817469e-01 -1.267914e-04 4.717229e-01
    outer loop
      vertex   -2.746365e+02 8.123108e+01 1.586923e+02
      vertex   -2.743597e+02 7.723104e+01 1.581737e+02
      vertex   -2.743591e+02 8.123104e+01 1.581737e+02
    endloop
  endfacet
  facet normal 7.727758e-01 -1.111219e-04 6.346791e-01
    outer loop
      vertex   -2.743591e+02 8.123104e+01 1.581737e+02
      vertex   -2.743597e+02 7.723104e+01 1.581737e+02
      vertex   -2.739864e+02 7.723098e+01 1.577192e+02
    endloop
  endfacet
  facet normal 6.341073e-01 -9.118193e-05 7.732450e-01
    outer loop
      vertex   -2.739858e+02 8.123098e+01 1.577192e+02
      vertex   -2.739864e+02 7.723098e+01 1.577192e+02
      vertex   -2.735317e+02 7.723092e+01 1.573463e+02
    endloop
  endfacet
  facet normal 4.710705e-01 -6.773793e-05 8.820955e-01
    outer loop
      vertex   -2.735311e+02 8.123092e+01 1.573463e+02
      vertex   -2.735317e+02 7.723092e+01 1.573463e+02
      vertex   -2.730123e+02 8.123084e+01 1.570693e+02
    endloop
  endfacet
  facet normal 6.341073e-01 -9.118193e-05 7.732450e-01
    outer loop
      vertex   -2.735311e+02 8.123092e+01 1.573463e+02
      vertex   -2.739858e+02 8.123098e+01 1.577192e+02
      vertex   -2.735317e+02 7.723092e+01 1.573463e+02
    endloop
  endfacet
  facet normal 4.710705e-01 -6.773793e-05 8.820955e-01
    outer loop
      vertex   -2.735317e+02 7.723092e+01 1.573463e+02
      vertex   -2.730129e+02 7.723084e+01 1.570693e+02
      vertex   -2.730123e+02 8.123084e+01 1.570693e+02
    endloop
  endfacet
  facet normal 2.899307e-01 -4.169080e-05 9.570476e-01
    outer loop
      vertex   -2.730123e+02 8.123084e+01 1.570693e+02
      vertex   -2.730129e+02 7.723084e+01 1.570693e+02
      vertex   -2.724501e+02 7.723076e+01 1.568988e+02
    endloop
  endfacet
  facet normal 9.764907e-02 -1.404152e-05 9.952209e-01
    outer loop
      vertex   -2.724495e+02 8.123076e+01 1.568988e+02
      vertex   -2.724501e+02 7.723076e+01 1.568988e+02
      vertex   -2.718648e+02 7.723068e+01 1.568413e+02
    endloop
  endfacet
  facet normal -9.838519e-02 1.414737e-05 9.951484e-01
    outer loop
      vertex   -2.718642e+02 8.123068e+01 1.568413e+02
      vertex   -2.718648e+02 7.723068e+01 1.568413e+02
      vertex   -2.712795e+02 7.723059e+01 1.568992e+02
    endloop
  endfacet
  facet normal -2.906386e-01 4.179259e-05 9.568329e-01
    outer loop
      vertex   -2.712789e+02 8.123059e+01 1.568992e+02
      vertex   -2.712795e+02 7.723059e+01 1.568992e+02
      vertex   -2.707168e+02 7.723051e+01 1.570701e+02
    endloop
  endfacet
  facet normal -4.717229e-01 6.783173e-05 8.817469e-01
    outer loop
      vertex   -2.707162e+02 8.123051e+01 1.570701e+02
      vertex   -2.707168e+02 7.723051e+01 1.570701e+02
      vertex   -2.701977e+02 8.123044e+01 1.573476e+02
    endloop
  endfacet
  facet normal -2.906386e-01 4.179259e-05 9.568329e-01
    outer loop
      vertex   -2.707162e+02 8.123051e+01 1.570701e+02
      vertex   -2.712789e+02 8.123059e+01 1.568992e+02
      vertex   -2.707168e+02 7.723051e+01 1.570701e+02
    endloop
  endfacet
  facet normal -4.717229e-01 6.783173e-05 8.817469e-01
    outer loop
      vertex   -2.707168e+02 7.723051e+01 1.570701e+02
      vertex   -2.701982e+02 7.723044e+01 1.573476e+02
      vertex   -2.701977e+02 8.123044e+01 1.573476e+02
    endloop
  endfacet
  facet normal -6.346791e-01 9.126415e-05 7.727758e-01
    outer loop
      vertex   -2.701977e+02 8.123044e+01 1.573476e+02
      vertex   -2.701982e+02 7.723044e+01 1.573476e+02
      vertex   -2.697438e+02 7.723037e+01 1.577208e+02
    endloop
  endfacet
  facet normal -7.732450e-01 1.111893e-04 6.341073e-01
    outer loop
      vertex   -2.697432e+02 8.123037e+01 1.577208e+02
      vertex   -2.697438e+02 7.723037e+01 1.577208e+02
      vertex   -2.693709e+02 7.723032e+01 1.581756e+02
    endloop
  endfacet
  facet normal -8.820955e-01 1.268416e-04 4.710705e-01
    outer loop
      vertex   -2.693703e+02 8.123032e+01 1.581756e+02
      vertex   -2.693709e+02 7.723032e+01 1.581756e+02
      vertex   -2.690938e+02 7.723028e+01 1.586943e+02
    endloop
  endfacet
  facet normal -9.570476e-01 1.376194e-04 2.899307e-01
    outer loop
      vertex   -2.690932e+02 8.123028e+01 1.586943e+02
      vertex   -2.690938e+02 7.723028e+01 1.586943e+02
      vertex   -2.689233e+02 7.723025e+01 1.592572e+02
    endloop
  endfacet
  facet normal -9.952209e-01 1.431085e-04 9.764907e-02
    outer loop
      vertex   -2.689227e+02 8.123025e+01 1.592572e+02
      vertex   -2.689233e+02 7.723025e+01 1.592572e+02
      vertex   -2.688653e+02 8.123025e+01 1.598425e+02
    endloop
  endfacet
  facet normal -9.570476e-01 1.376194e-04 2.899307e-01
    outer loop
      vertex   -2.689227e+02 8.123025e+01 1.592572e+02
      vertex   -2.690932e+02 8.123028e+01 1.586943e+02
      vertex   -2.689233e+02 7.723025e+01 1.592572e+02
    endloop
  endfacet
  facet normal -9.952209e-01 1.431085e-04 9.764907e-02
    outer loop
      vertex   -2.689233e+02 7.723025e+01 1.592572e+02
      vertex   -2.688659e+02 7.723025e+01 1.598425e+02
      vertex   -2.688653e+02 8.123025e+01 1.598425e+02
    endloop
  endfacet
  facet normal -8.820955e-01 1.268416e-04 4.710705e-01
    outer loop
      vertex   -2.690932e+02 8.123028e+01 1.586943e+02
      vertex   -2.693703e+02 8.123032e+01 1.581756e+02
      vertex   -2.690938e+02 7.723028e+01 1.586943e+02
    endloop
  endfacet
  facet normal -7.732450e-01 1.111893e-04 6.341073e-01
    outer loop
      vertex   -2.693703e+02 8.123032e+01 1.581756e+02
      vertex   -2.697432e+02 8.123037e+01 1.577208e+02
      vertex   -2.693709e+02 7.723032e+01 1.581756e+02
    endloop
  endfacet
  facet normal -6.346791e-01 9.126415e-05 7.727758e-01
    outer loop
      vertex   -2.697432e+02 8.123037e+01 1.577208e+02
      vertex   -2.701977e+02 8.123044e+01 1.573476e+02
      vertex   -2.697438e+02 7.723037e+01 1.577208e+02
    endloop
  endfacet
  facet normal -9.838519e-02 1.414737e-05 9.951484e-01
    outer loop
      vertex   -2.712789e+02 8.123059e+01 1.568992e+02
      vertex   -2.718642e+02 8.123068e+01 1.568413e+02
      vertex   -2.712795e+02 7.723059e+01 1.568992e+02
    endloop
  endfacet
  facet normal 9.764907e-02 -1.404152e-05 9.952209e-01
    outer loop
      vertex   -2.718642e+02 8.123068e+01 1.568413e+02
      vertex   -2.724495e+02 8.123076e+01 1.568988e+02
      vertex   -2.718648e+02 7.723068e+01 1.568413e+02
    endloop
  endfacet
  facet normal 2.899307e-01 -4.169080e-05 9.570476e-01
    outer loop
      vertex   -2.724495e+02 8.123076e+01 1.568988e+02
      vertex   -2.730123e+02 8.123084e+01 1.570693e+02
      vertex   -2.724501e+02 7.723076e+01 1.568988e+02
    endloop
  endfacet
  facet normal 7.727758e-01 -1.111219e-04 6.346791e-01
    outer loop
      vertex   -2.739858e+02 8.123098e+01 1.577192e+02
      vertex   -2.743591e+02 8.123104e+01 1.581737e+02
      vertex   -2.739864e+02 7.723098e+01 1.577192e+02
    endloop
  endfacet
  facet normal 9.764907e-02 -1.404152e-05 9.952209e-01
    outer loop
      vertex   -2.718675e+02 8.123068e+01 1.658413e+02
      vertex   -2.718681e+02 7.723068e+01 1.658413e+02
      vertex   -2.706969e+02 8.123051e+01 1.657265e+02
    endloop
  endfacet
  facet normal 9.764907e-02 -1.404152e-05 9.952209e-01
    outer loop
      vertex   -2.706969e+02 8.123051e+01 1.657265e+02
      vertex   -2.718681e+02 7.723068e+01 1.658413e+02
      vertex   -2.706975e+02 7.723051e+01 1.657265e+02
    endloop
  endfacet
  facet normal 2.899307e-01 -4.169080e-05 9.570476e-01
    outer loop
      vertex   -2.695718e+02 7.723035e+01 1.653855e+02
      vertex   -2.706969e+02 8.123051e+01 1.657265e+02
      vertex   -2.706975e+02 7.723051e+01 1.657265e+02
    endloop
  endfacet
  facet normal 2.899307e-01 -4.169080e-05 9.570476e-01
    outer loop
      vertex   -2.695718e+02 7.723035e+01 1.653855e+02
      vertex   -2.695713e+02 8.123035e+01 1.653855e+02
      vertex   -2.706969e+02 8.123051e+01 1.657265e+02
    endloop
  endfacet
  facet normal 4.710705e-01 -6.773793e-05 8.820955e-01
    outer loop
      vertex   -2.695718e+02 7.723035e+01 1.653855e+02
      vertex   -2.685343e+02 7.723020e+01 1.648314e+02
      vertex   -2.695713e+02 8.123035e+01 1.653855e+02
    endloop
  endfacet
  facet normal 4.710705e-01 -6.773793e-05 8.820955e-01
    outer loop
      vertex   -2.695713e+02 8.123035e+01 1.653855e+02
      vertex   -2.685343e+02 7.723020e+01 1.648314e+02
      vertex   -2.685337e+02 8.123020e+01 1.648314e+02
    endloop
  endfacet
  facet normal 6.341073e-01 -9.118193e-05 7.732450e-01
    outer loop
      vertex   -2.685337e+02 8.123020e+01 1.648314e+02
      vertex   -2.685343e+02 7.723020e+01 1.648314e+02
      vertex   -2.676248e+02 7.723007e+01 1.640856e+02
    endloop
  endfacet
  facet normal 7.727758e-01 -1.111219e-04 6.346791e-01
    outer loop
      vertex   -2.676242e+02 8.123007e+01 1.640856e+02
      vertex   -2.676248e+02 7.723007e+01 1.640856e+02
      vertex   -2.668783e+02 7.722996e+01 1.631766e+02
    endloop
  endfacet
  facet normal 8.817469e-01 -1.267914e-04 4.717229e-01
    outer loop
      vertex   -2.668777e+02 8.122996e+01 1.631766e+02
      vertex   -2.668783e+02 7.722996e+01 1.631766e+02
      vertex   -2.663235e+02 7.722988e+01 1.621395e+02
    endloop
  endfacet
  facet normal 9.568329e-01 -1.375885e-04 2.906386e-01
    outer loop
      vertex   -2.663229e+02 8.122988e+01 1.621395e+02
      vertex   -2.663235e+02 7.722988e+01 1.621395e+02
      vertex   -2.659816e+02 7.722983e+01 1.610141e+02
    endloop
  endfacet
  facet normal 9.951484e-01 -1.430981e-04 9.838520e-02
    outer loop
      vertex   -2.659810e+02 8.122983e+01 1.610141e+02
      vertex   -2.659816e+02 7.722983e+01 1.610141e+02
      vertex   -2.658653e+02 8.122981e+01 1.598436e+02
    endloop
  endfacet
  facet normal 9.568329e-01 -1.375885e-04 2.906386e-01
    outer loop
      vertex   -2.659810e+02 8.122983e+01 1.610141e+02
      vertex   -2.663229e+02 8.122988e+01 1.621395e+02
      vertex   -2.659816e+02 7.722983e+01 1.610141e+02
    endloop
  endfacet
  facet normal 9.951484e-01 -1.430981e-04 9.838520e-02
    outer loop
      vertex   -2.659816e+02 7.722983e+01 1.610141e+02
      vertex   -2.658659e+02 7.722981e+01 1.598436e+02
      vertex   -2.658653e+02 8.122981e+01 1.598436e+02
    endloop
  endfacet
  facet normal 9.952209e-01 -1.431085e-04 -9.764907e-02
    outer loop
      vertex   -2.658653e+02 8.122981e+01 1.598436e+02
      vertex   -2.658659e+02 7.722981e+01 1.598436e+02
      vertex   -2.659802e+02 8.122983e+01 1.586730e+02
    endloop
  endfacet
  facet normal 9.952209e-01 -1.431085e-04 -9.764907e-02
    outer loop
      vertex   -2.659802e+02 8.122983e+01 1.586730e+02
      vertex   -2.658659e+02 7.722981e+01 1.598436e+02
      vertex   -2.659807e+02 7.722983e+01 1.586730e+02
    endloop
  endfacet
  facet normal 9.570476e-01 -1.376194e-04 -2.899307e-01
    outer loop
      vertex   -2.663218e+02 7.722988e+01 1.575473e+02
      vertex   -2.659802e+02 8.122983e+01 1.586730e+02
      vertex   -2.659807e+02 7.722983e+01 1.586730e+02
    endloop
  endfacet
  facet normal 9.570476e-01 -1.376194e-04 -2.899307e-01
    outer loop
      vertex   -2.663218e+02 7.722988e+01 1.575473e+02
      vertex   -2.663212e+02 8.122988e+01 1.575473e+02
      vertex   -2.659802e+02 8.122983e+01 1.586730e+02
    endloop
  endfacet
  facet normal 8.820955e-01 -1.268416e-04 -4.710705e-01
    outer loop
      vertex   -2.663218e+02 7.722988e+01 1.575473e+02
      vertex   -2.668758e+02 7.722996e+01 1.565098e+02
      vertex   -2.663212e+02 8.122988e+01 1.575473e+02
    endloop
  endfacet
  facet normal 8.820955e-01 -1.268416e-04 -4.710705e-01
    outer loop
      vertex   -2.663212e+02 8.122988e+01 1.575473e+02
      vertex   -2.668758e+02 7.722996e+01 1.565098e+02
      vertex   -2.668753e+02 8.122996e+01 1.565098e+02
    endloop
  endfacet
  facet normal 7.732450e-01 -1.111893e-04 -6.341073e-01
    outer loop
      vertex   -2.668753e+02 8.122996e+01 1.565098e+02
      vertex   -2.668758e+02 7.722996e+01 1.565098e+02
      vertex   -2.676217e+02 7.723007e+01 1.556003e+02
    endloop
  endfacet
  facet normal 6.346791e-01 -9.126415e-05 -7.727758e-01
    outer loop
      vertex   -2.676211e+02 8.123007e+01 1.556003e+02
      vertex   -2.676217e+02 7.723007e+01 1.556003e+02
      vertex   -2.685306e+02 7.723020e+01 1.548538e+02
    endloop
  endfacet
  facet normal 4.717229e-01 -6.783173e-05 -8.817469e-01
    outer loop
      vertex   -2.685300e+02 8.123020e+01 1.548538e+02
      vertex   -2.685306e+02 7.723020e+01 1.548538e+02
      vertex   -2.695677e+02 7.723035e+01 1.542989e+02
    endloop
  endfacet
  facet normal 2.906386e-01 -4.179259e-05 -9.568329e-01
    outer loop
      vertex   -2.695672e+02 8.123035e+01 1.542989e+02
      vertex   -2.695677e+02 7.723035e+01 1.542989e+02
      vertex   -2.706932e+02 7.723051e+01 1.539571e+02
    endloop
  endfacet
  facet normal 9.838519e-02 -1.414737e-05 -9.951484e-01
    outer loop
      vertex   -2.706926e+02 8.123051e+01 1.539571e+02
      vertex   -2.706932e+02 7.723051e+01 1.539571e+02
      vertex   -2.718631e+02 8.123068e+01 1.538413e+02
    endloop
  endfacet
  facet normal 2.906386e-01 -4.179259e-05 -9.568329e-01
    outer loop
      vertex   -2.706926e+02 8.123051e+01 1.539571e+02
      vertex   -2.695672e+02 8.123035e+01 1.542989e+02
      vertex   -2.706932e+02 7.723051e+01 1.539571e+02
    endloop
  endfacet
  facet normal 9.838519e-02 -1.414737e-05 -9.951484e-01
    outer loop
      vertex   -2.706932e+02 7.723051e+01 1.539571e+02
      vertex   -2.718637e+02 7.723068e+01 1.538413e+02
      vertex   -2.718631e+02 8.123068e+01 1.538413e+02
    endloop
  endfacet
  facet normal 4.717229e-01 -6.783173e-05 -8.817469e-01
    outer loop
      vertex   -2.695672e+02 8.123035e+01 1.542989e+02
      vertex   -2.685300e+02 8.123020e+01 1.548538e+02
      vertex   -2.695677e+02 7.723035e+01 1.542989e+02
    endloop
  endfacet
  facet normal 6.346791e-01 -9.126415e-05 -7.727758e-01
    outer loop
      vertex   -2.685300e+02 8.123020e+01 1.548538e+02
      vertex   -2.676211e+02 8.123007e+01 1.556003e+02
      vertex   -2.685306e+02 7.723020e+01 1.548538e+02
    endloop
  endfacet
  facet normal 7.732450e-01 -1.111893e-04 -6.341073e-01
    outer loop
      vertex   -2.676211e+02 8.123007e+01 1.556003e+02
      vertex   -2.668753e+02 8.122996e+01 1.565098e+02
      vertex   -2.676217e+02 7.723007e+01 1.556003e+02
    endloop
  endfacet
  facet normal 8.817469e-01 -1.267914e-04 4.717229e-01
    outer loop
      vertex   -2.663229e+02 8.122988e+01 1.621395e+02
      vertex   -2.668777e+02 8.122996e+01 1.631766e+02
      vertex   -2.663235e+02 7.722988e+01 1.621395e+02
    endloop
  endfacet
  facet normal 7.727758e-01 -1.111219e-04 6.346791e-01
    outer loop
      vertex   -2.668777e+02 8.122996e+01 1.631766e+02
      vertex   -2.676242e+02 8.123007e+01 1.640856e+02
      vertex   -2.668783e+02 7.722996e+01 1.631766e+02
    endloop
  endfacet
  facet normal 6.341073e-01 -9.118193e-05 7.732450e-01
    outer loop
      vertex   -2.676242e+02 8.123007e+01 1.640856e+02
      vertex   -2.685337e+02 8.123020e+01 1.648314e+02
      vertex   -2.676248e+02 7.723007e+01 1.640856e+02
    endloop
  endfacet
  facet normal -9.951484e-01 1.430981e-04 -9.838520e-02
    outer loop
      vertex   -2.688653e+02 8.123025e+01 1.598425e+02
      vertex   -2.688659e+02 7.723025e+01 1.598425e+02
      vertex   -2.689232e+02 8.123025e+01 1.604277e+02
    endloop
  endfacet
  facet normal -9.951484e-01 1.430981e-04 -9.838520e-02
    outer loop
      vertex   -2.689232e+02 8.123025e+01 1.604277e+02
      vertex   -2.688659e+02 7.723025e+01 1.598425e+02
      vertex   -2.689237e+02 7.723025e+01 1.604277e+02
    endloop
  endfacet
  facet normal -9.568329e-01 1.375885e-04 -2.906386e-01
    outer loop
      vertex   -2.690947e+02 7.723028e+01 1.609904e+02
      vertex   -2.689232e+02 8.123025e+01 1.604277e+02
      vertex   -2.689237e+02 7.723025e+01 1.604277e+02
    endloop
  endfacet
  facet normal -9.568329e-01 1.375885e-04 -2.906386e-01
    outer loop
      vertex   -2.690947e+02 7.723028e+01 1.609904e+02
      vertex   -2.690941e+02 8.123028e+01 1.609904e+02
      vertex   -2.689232e+02 8.123025e+01 1.604277e+02
    endloop
  endfacet
  facet normal -8.817469e-01 1.267914e-04 -4.717229e-01
    outer loop
      vertex   -2.690947e+02 7.723028e+01 1.609904e+02
      vertex   -2.693721e+02 7.723032e+01 1.615090e+02
      vertex   -2.690941e+02 8.123028e+01 1.609904e+02
    endloop
  endfacet
  facet normal -8.817469e-01 1.267914e-04 -4.717229e-01
    outer loop
      vertex   -2.690941e+02 8.123028e+01 1.609904e+02
      vertex   -2.693721e+02 7.723032e+01 1.615090e+02
      vertex   -2.693715e+02 8.123032e+01 1.615090e+02
    endloop
  endfacet
  facet normal -7.727758e-01 1.111219e-04 -6.346791e-01
    outer loop
      vertex   -2.693715e+02 8.123032e+01 1.615090e+02
      vertex   -2.693721e+02 7.723032e+01 1.615090e+02
      vertex   -2.697453e+02 7.723037e+01 1.619634e+02
    endloop
  endfacet
  facet normal -6.341073e-01 9.118193e-05 -7.732450e-01
    outer loop
      vertex   -2.697448e+02 8.123037e+01 1.619634e+02
      vertex   -2.697453e+02 7.723037e+01 1.619634e+02
      vertex   -2.702001e+02 7.723044e+01 1.623364e+02
    endloop
  endfacet
  facet normal -4.710705e-01 6.773793e-05 -8.820955e-01
    outer loop
      vertex   -2.701995e+02 8.123044e+01 1.623364e+02
      vertex   -2.702001e+02 7.723044e+01 1.623364e+02
      vertex   -2.707183e+02 8.123051e+01 1.626134e+02
    endloop
  endfacet
  facet normal -6.341073e-01 9.118193e-05 -7.732450e-01
    outer loop
      vertex   -2.701995e+02 8.123044e+01 1.623364e+02
      vertex   -2.697448e+02 8.123037e+01 1.619634e+02
      vertex   -2.702001e+02 7.723044e+01 1.623364e+02
    endloop
  endfacet
  facet normal -4.710705e-01 6.773793e-05 -8.820955e-01
    outer loop
      vertex   -2.702001e+02 7.723044e+01 1.623364e+02
      vertex   -2.707189e+02 7.723051e+01 1.626134e+02
      vertex   -2.707183e+02 8.123051e+01 1.626134e+02
    endloop
  endfacet
  facet normal -2.899307e-01 4.169080e-05 -9.570476e-01
    outer loop
      vertex   -2.707183e+02 8.123051e+01 1.626134e+02
      vertex   -2.707189e+02 7.723051e+01 1.626134e+02
      vertex   -2.712817e+02 7.723059e+01 1.627839e+02
    endloop
  endfacet
  facet normal -9.764907e-02 1.404152e-05 -9.952209e-01
    outer loop
      vertex   -2.712811e+02 8.123059e+01 1.627839e+02
      vertex   -2.712817e+02 7.723059e+01 1.627839e+02
      vertex   -2.718670e+02 7.723068e+01 1.628413e+02
    endloop
  endfacet
  facet normal 9.838519e-02 -1.414737e-05 -9.951484e-01
    outer loop
      vertex   -2.718664e+02 8.123068e+01 1.628413e+02
      vertex   -2.718670e+02 7.723068e+01 1.628413e+02
      vertex   -2.724522e+02 7.723076e+01 1.627835e+02
    endloop
  endfacet
  facet normal 2.906386e-01 -4.179259e-05 -9.568329e-01
    outer loop
      vertex   -2.724517e+02 8.123076e+01 1.627835e+02
      vertex   -2.724522e+02 7.723076e+01 1.627835e+02
      vertex   -2.730150e+02 7.723084e+01 1.626126e+02
    endloop
  endfacet
  facet normal 4.717229e-01 -6.783173e-05 -8.817469e-01
    outer loop
      vertex   -2.730144e+02 8.123084e+01 1.626126e+02
      vertex   -2.730150e+02 7.723084e+01 1.626126e+02
      vertex   -2.735329e+02 8.123092e+01 1.623351e+02
    endloop
  endfacet
  facet normal 2.906386e-01 -4.179259e-05 -9.568329e-01
    outer loop
      vertex   -2.730144e+02 8.123084e+01 1.626126e+02
      vertex   -2.724517e+02 8.123076e+01 1.627835e+02
      vertex   -2.730150e+02 7.723084e+01 1.626126e+02
    endloop
  endfacet
  facet normal 4.717229e-01 -6.783173e-05 -8.817469e-01
    outer loop
      vertex   -2.730150e+02 7.723084e+01 1.626126e+02
      vertex   -2.735335e+02 7.723092e+01 1.623351e+02
      vertex   -2.735329e+02 8.123092e+01 1.623351e+02
    endloop
  endfacet
  facet normal 6.346791e-01 -9.126415e-05 -7.727758e-01
    outer loop
      vertex   -2.735329e+02 8.123092e+01 1.623351e+02
      vertex   -2.735335e+02 7.723092e+01 1.623351e+02
      vertex   -2.739880e+02 7.723098e+01 1.619619e+02
    endloop
  endfacet
  facet normal 7.732450e-01 -1.111893e-04 -6.341073e-01
    outer loop
      vertex   -2.739874e+02 8.123098e+01 1.619619e+02
      vertex   -2.739880e+02 7.723098e+01 1.619619e+02
      vertex   -2.743609e+02 7.723104e+01 1.615071e+02
    endloop
  endfacet
  facet normal 8.820955e-01 -1.268416e-04 -4.710705e-01
    outer loop
      vertex   -2.743603e+02 8.123104e+01 1.615071e+02
      vertex   -2.743609e+02 7.723104e+01 1.615071e+02
      vertex   -2.746379e+02 7.723108e+01 1.609884e+02
    endloop
  endfacet
  facet normal 9.570476e-01 -1.376194e-04 -2.899307e-01
    outer loop
      vertex   -2.746374e+02 8.123108e+01 1.609884e+02
      vertex   -2.746379e+02 7.723108e+01 1.609884e+02
      vertex   -2.748085e+02 7.723110e+01 1.604255e+02
    endloop
  endfacet
  facet normal 9.952209e-01 -1.431085e-04 -9.764907e-02
    outer loop
      vertex   -2.748079e+02 8.123110e+01 1.604255e+02
      vertex   -2.748085e+02 7.723110e+01 1.604255e+02
      vertex   -2.748653e+02 8.123111e+01 1.598402e+02
    endloop
  endfacet
  facet normal 9.570476e-01 -1.376194e-04 -2.899307e-01
    outer loop
      vertex   -2.748079e+02 8.123110e+01 1.604255e+02
      vertex   -2.746374e+02 8.123108e+01 1.609884e+02
      vertex   -2.748085e+02 7.723110e+01 1.604255e+02
    endloop
  endfacet
  facet normal 9.952209e-01 -1.431085e-04 -9.764907e-02
    outer loop
      vertex   -2.748085e+02 7.723110e+01 1.604255e+02
      vertex   -2.748659e+02 7.723111e+01 1.598402e+02
      vertex   -2.748653e+02 8.123111e+01 1.598402e+02
    endloop
  endfacet
  facet normal 8.820955e-01 -1.268416e-04 -4.710705e-01
    outer loop
      vertex   -2.746374e+02 8.123108e+01 1.609884e+02
      vertex   -2.743603e+02 8.123104e+01 1.615071e+02
      vertex   -2.746379e+02 7.723108e+01 1.609884e+02
    endloop
  endfacet
  facet normal 7.732450e-01 -1.111893e-04 -6.341073e-01
    outer loop
      vertex   -2.743603e+02 8.123104e+01 1.615071e+02
      vertex   -2.739874e+02 8.123098e+01 1.619619e+02
      vertex   -2.743609e+02 7.723104e+01 1.615071e+02
    endloop
  endfacet
  facet normal 6.346791e-01 -9.126415e-05 -7.727758e-01
    outer loop
      vertex   -2.739874e+02 8.123098e+01 1.619619e+02
      vertex   -2.735329e+02 8.123092e+01 1.623351e+02
      vertex   -2.739880e+02 7.723098e+01 1.619619e+02
    endloop
  endfacet
  facet normal 9.838519e-02 -1.414737e-05 -9.951484e-01
    outer loop
      vertex   -2.724517e+02 8.123076e+01 1.627835e+02
      vertex   -2.718664e+02 8.123068e+01 1.628413e+02
      vertex   -2.724522e+02 7.723076e+01 1.627835e+02
    endloop
  endfacet
  facet normal -9.764907e-02 1.404152e-05 -9.952209e-01
    outer loop
      vertex   -2.718664e+02 8.123068e+01 1.628413e+02
      vertex   -2.712811e+02 8.123059e+01 1.627839e+02
      vertex   -2.718670e+02 7.723068e+01 1.628413e+02
    endloop
  endfacet
  facet normal -2.899307e-01 4.169080e-05 -9.570476e-01
    outer loop
      vertex   -2.712811e+02 8.123059e+01 1.627839e+02
      vertex   -2.707183e+02 8.123051e+01 1.626134e+02
      vertex   -2.712817e+02 7.723059e+01 1.627839e+02
    endloop
  endfacet
  facet normal -7.727758e-01 1.111219e-04 -6.346791e-01
    outer loop
      vertex   -2.697448e+02 8.123037e+01 1.619634e+02
      vertex   -2.693715e+02 8.123032e+01 1.615090e+02
      vertex   -2.697453e+02 7.723037e+01 1.619634e+02
    endloop
  endfacet
endsolid
